mtllib ./Block4.mtl
g pb-Cube-407202
v -0.00576134 -0.001874536 -0.01751431
v -0.2185585 0.001755118 0.02562375
v -0.01392828 0.5318627 -0.01707448
v -0.2295015 0.535202 0.008881651
v -0.2185585 0.001755118 0.02562375
v -0.2171559 0 -0.281343
v -0.2295015 0.535202 0.008881651
v -0.2338723 0.533478 -0.281343
v -0.2171559 0 -0.281343
v -0.0001885584 0.0002757609 -0.2990542
v -0.2338723 0.533478 -0.281343
v -0.0165278 0.5332023 -0.2745466
v -0.0001885584 0.0002757609 -0.2990542
v -0.00576134 -0.001874536 -0.01751431
v -0.0165278 0.5332023 -0.2745466
v -0.01392828 0.5318627 -0.01707448
v -0.01392828 0.5318627 -0.01707448
v -0.2295015 0.535202 0.008881651
v -0.0165278 0.5332023 -0.2745466
v -0.2338723 0.533478 -0.281343
v -0.0001885584 0.0002757609 -0.2990542
v -0.2171559 0 -0.281343
v -0.00576134 -0.001874536 -0.01751431
v -0.2185585 0.001755118 0.02562375

vn 0.198714 0.002232988 0.980055
vn 0.1594961 0.017934 0.9870356
vn 0.1594961 0.017934 0.9870356
vn 0.1199873 0.03360155 0.9922067
vn -0.9997769 -0.02064889 -0.0044501
vn -0.9996532 -0.02583508 0.005118989
vn -0.9996532 -0.02583508 0.005118989
vn -0.9993934 -0.03131567 0.01523677
vn -0.08135656 -0.002549282 -0.9966817
vn -0.02511714 0.02219003 -0.9994382
vn -0.02511714 0.02219003 -0.9994382
vn 0.0312799 0.04687274 -0.998411
vn 0.999358 0.02971967 0.02000822
vn 0.9997232 0.02283581 0.005662454
vn 0.9997232 0.02283581 0.005662454
vn 0.9998327 0.01530711 -0.010015
vn 0.01609486 0.9998578 0.005039479
vn 0.008314326 0.9999652 -0.0008077276
vn 0.008314326 0.9999652 -0.0008077276
vn 0.001455046 0.9999812 -0.005962044
vn 0.0006485427 -0.9999706 -0.007624568
vn -0.007912129 -0.9999684 -0.0007652529
vn -0.007912129 -0.9999684 -0.0007652529
vn -0.01591028 -0.9998575 0.005644106

vt 0.8902862 0.1919631
vt 0.7000276 0.2283643
vt 0.9651597 0.6625283
vt 0.7749048 0.6989488
vt 0.7000281 0.2283642
vt 0.4450451 0.2732162
vt 0.7749044 0.6989489
vt 0.5275654 0.7424467
vt 0.445045 0.2732162
vt 0.2529615 0.3008291
vt 0.5275655 0.7424467
vt 0.3356913 0.7700229
vt 0.2529612 0.3008292
vt 0 0.3572717
vt 0.3356915 0.7700229
vt 0.09660975 0.82386
vt 0.3589126 0.9983854
vt 0.5524899 1
vt 0.3356913 0.7700228
vt 0.5275655 0.7424465
vt 0.2529615 0.3008292
vt 0.445045 0.2732162
vt 0.2425257 0.05000825
vt 0.4295364 0

g Default_Prototype
usemtl Default_Prototype
usemap Default_Prototype
f 2/2/2 1/1/1 3/3/3
f 4/4/4 2/2/2 3/3/3
f 6/6/6 5/5/5 7/7/7
f 8/8/8 6/6/6 7/7/7
f 10/10/10 9/9/9 11/11/11
f 12/12/12 10/10/10 11/11/11
f 14/14/14 13/13/13 15/15/15
f 16/16/16 14/14/14 15/15/15
f 18/18/18 17/17/17 19/19/19
f 20/20/20 18/18/18 19/19/19
f 22/22/22 21/21/21 23/23/23
f 24/24/24 22/22/22 23/23/23
