mtllib ./Block3.mtl
g pb-Cube-384512
v 0 0 0
v -0.3208545 0 0
v 0 0.4424796 0.01415598
v -0.3208545 0.4424796 0.01415598
v -0.3208545 0 0
v -0.3208545 0 -0.353755
v -0.3208545 0.4424796 0.01415598
v -0.3208545 0.4424796 -0.353755
v -0.3208545 0 -0.353755
v -0.02670926 0 -0.353755
v -0.3208545 0.4424796 -0.353755
v -0.02670926 0.4424796 -0.353755
v -0.02670926 0 -0.353755
v 0 0 0
v -0.02670926 0.4424796 -0.353755
v 0 0.4424796 0.01415598
v 0 0.4424796 0.01415598
v -0.3208545 0.4424796 0.01415598
v -0.02670926 0.4424796 -0.353755
v -0.3208545 0.4424796 -0.353755
v -0.02670926 0 -0.353755
v -0.3208545 0 -0.353755
v 0 0 0
v -0.3208545 0 0

vn 0 -0.03197604 0.9994886
vn 0 -0.03197604 0.9994886
vn 0 -0.03197604 0.9994886
vn 0 -0.03197604 0.9994886
vn -1 0 0
vn -1 0 0
vn -1 0 0
vn -1 0 0
vn 0 0 -1
vn 0 0 -1
vn 0 0 -1
vn 0 0 -1
vn 0.9971619 0 -0.07528785
vn 0.9972709 0.001180825 -0.0738191
vn 0.9972709 0.001180825 -0.0738191
vn 0.9973724 0.002316452 -0.07240631
vn 0 1 0
vn 0 1 0
vn 0 1 0
vn 0 1 0
vn 0 -1 0
vn 0 -1 0
vn 0 -1 0
vn 0 -1 0

vt 0.2129443 0.2755114
vt 0.4126233 0.2755114
vt 0.2129442 0
vt 0.4126232 0
vt 0.6327775 0.4956656
vt 0.4126233 0.4956656
vt 0.6415872 0.7710361
vt 0.4126233 0.7710361
vt 0.4126233 0.4956656
vt 0.2295664 0.4956656
vt 0.4126233 0.7710361
vt 0.2295664 0.7710361
vt 0.2295664 0.4956656
vt 0.008785709 0.4956652
vt 0.2295664 0.7710361
vt 0 0.7710365
vt 0.2129443 1
vt 0.4126233 1
vt 0.2295664 0.7710361
vt 0.4126233 0.7710361
vt 0.2295664 0.4956656
vt 0.4126233 0.4956656
vt 0.2129443 0.2755114
vt 0.4126233 0.2755114

g Default_Prototype
usemtl Default_Prototype
usemap Default_Prototype
f 2/2/2 1/1/1 3/3/3
f 4/4/4 2/2/2 3/3/3
f 6/6/6 5/5/5 7/7/7
f 8/8/8 6/6/6 7/7/7
f 10/10/10 9/9/9 11/11/11
f 12/12/12 10/10/10 11/11/11
f 14/14/14 13/13/13 15/15/15
f 16/16/16 14/14/14 15/15/15
f 18/18/18 17/17/17 19/19/19
f 20/20/20 18/18/18 19/19/19
f 22/22/22 21/21/21 23/23/23
f 24/24/24 22/22/22 23/23/23
