mtllib ./Block5.mtl
g pb-Cube-472690
v 0.6068997 0.01144314 -0.3919896
v -1 0 -0.3919896
v 0.6114229 0 0
v -1 0 0
v -0.1696342 0.3307638 -0.241209
v -0.1696342 0.3572855 -0.04521418
v -1 0.3572855 -0.04521418
v -1 0.3572855 -0.241209
v -0.1696342 0.3307638 -0.241209
v 0.6607317 0.3572855 -0.04521418
v 0.6607317 0.3572855 -0.241209
v -0.1696342 0.3307638 -0.241209
v -0.1696342 0.3307638 -0.4053072
v -1 0.3572855 -0.4372038
v 0.6607317 0.3572855 -0.241209
v -0.1696342 0.3307638 -0.241209
v 0.6607317 0.3572855 -0.4372038
v -0.1696342 0.3307638 -0.4053072
v 0.6114229 0 0
v -1 0 0
v -0.1696342 0.3572855 -0.04521418
v -1 0.3572855 -0.04521418
v 0.6607317 0.3572855 -0.04521418
v 0.6068997 0.01144314 -0.3919896
v 0.6114229 0 0
v 0.6607317 0.3572855 -0.241209
v 0.6607317 0.3572855 -0.04521418
v 0.6607317 0.3572855 -0.4372038
v -1 0 0
v -1 0 -0.3919896
v -1 0.3572855 -0.241209
v -1 0.3572855 -0.04521418
v -1 0.3572855 -0.4372038
v -1 0 -0.3919896
v 0.6068997 0.01144314 -0.3919896
v -0.1696342 0.3307638 -0.4053072
v -1 0.3572855 -0.4372038
v 0.6607317 0.3572855 -0.4372038

vn 0.007118023 -0.9995465 -0.02926135
vn 0.00355522 -0.9998869 -0.01461509
vn 0.00355522 -0.9998869 -0.01461509
vn 0 -1 0
vn 0.01593143 0.9975923 -0.06749625
vn 0 0.9909683 -0.1340961
vn 0.01593143 0.9975923 -0.06749625
vn 0.03192347 0.9994903 0
vn -0.01593143 0.9975923 -0.06749625
vn -0.01593143 0.9975923 -0.06749625
vn -0.03192347 0.9994903 0
vn 0.03192348 0.9994903 0
vn 0.03192348 0.9994904 0
vn 0.03192347 0.9994903 0
vn -0.03192347 0.9994903 0
vn -0.03192348 0.9994904 0
vn -0.03192348 0.9994904 0
vn -0.03192348 0.9994903 0
vn 0 0.1255478 0.9920876
vn 0 0.1255478 0.9920876
vn 0 0.1255478 0.9920875
vn 0 0.1255478 0.9920875
vn 0 0.1255478 0.9920875
vn 0.9887333 -0.1493178 -0.01051195
vn 0.9895814 -0.1435976 -0.01040715
vn 0.9892361 -0.1461178 -0.007840154
vn 0.9906106 -0.1367136 0
vn 0.9881015 -0.1538025 0
vn -1 0 0
vn -1 0 0
vn -1 0 0
vn -1 0 0
vn -1 0 0
vn 0.01260796 -0.07180763 -0.9973388
vn -0.01195264 -0.07066555 -0.9974285
vn 0.0004667549 -0.08549635 -0.9963384
vn 0.03407898 -0.1254749 -0.9915113
vn -0.03412089 -0.1243341 -0.9916536

vt 0.1761181 0.4852072
vt 0.8521658 0.4803826
vt 0.1730636 0.3202546
vt 0.8509976 0.3154872
vt 0.5000992 0.08340085
vt 0.5005909 0.1664317
vt 0.8499347 0.1647393
vt 0.8496248 0.08245771
vt 0.5000987 0.08340361
vt 0.1512534 0.1688892
vt 0.1505865 0.0866097
vt 0.5000992 0.08340055
vt 0.499913 0.01436197
vt 0.8494024 0
vt 0.1505737 0.0843431
vt 0.5000992 0.08340055
vt 0.1503514 0.001885159
vt 0.499913 0.01436202
vt 0.1730635 0.3202551
vt 0.8509976 0.3154867
vt 0.5005926 0.1664332
vt 0.8499319 0.163976
vt 0.1512534 0.1688904
vt 0.003141735 0.02449603
vt 0 0.1891047
vt 0.1505865 0.0866097
vt 0.1512533 0.1688892
vt 0.1499196 0.004330228
vt 1 0.183156
vt 0.9993803 0.01859285
vt 0.8496248 0.08245769
vt 0.8499346 0.1647393
vt 0.8493149 0.0001760879
vt 0.8521659 0.4803964
vt 0.176118 0.4851934
vt 0.5028185 0.6194437
vt 0.8521675 0.6318485
vt 0.1534717 0.6318541

g Default_Prototype
usemtl Default_Prototype
usemap Default_Prototype
f 2/2/2 1/1/1 3/3/3
f 4/4/4 2/2/2 3/3/3
f 6/6/6 5/5/5 7/7/7
f 5/5/5 8/8/8 7/7/7
f 9/9/9 6/6/6 10/10/10
f 11/11/11 9/9/9 10/10/10
f 8/8/8 12/12/12 13/13/13
f 8/8/8 13/13/13 14/14/14
f 16/16/16 15/15/15 17/17/17
f 18/18/18 16/16/16 17/17/17
f 20/20/20 19/19/19 21/21/21
f 22/22/22 20/20/20 21/21/21
f 19/19/19 23/23/23 21/21/21
f 25/25/25 24/24/24 26/26/26
f 27/27/27 25/25/25 26/26/26
f 24/24/24 28/28/28 26/26/26
f 30/30/30 29/29/29 31/31/31
f 29/29/29 32/32/32 31/31/31
f 33/33/33 30/30/30 31/31/31
f 35/35/35 34/34/34 36/36/36
f 34/34/34 37/37/37 36/36/36
f 38/38/38 35/35/35 36/36/36
