mtllib ./Block2.mtl
g pb-Cube-344564
v 0.005221844 0 -0.0113242
v -0.313941 0 -0.005527809
v 0.005221844 0.2358909 -0.02932858
v -0.313941 0.2358909 -0.0233624
v -0.313941 0 -0.005527809
v -0.313941 0 -0.3771469
v -0.313941 0.2358909 -0.0233624
v -0.313941 0.2358909 -0.4058673
v -0.313941 0 -0.3771469
v 0.005221844 0 -0.3829433
v -0.313941 0.2358909 -0.4058673
v 0.005221844 0.2358909 -0.4118335
v 0.005221844 0 -0.3829433
v 0.005221844 0 -0.0113242
v 0.005221844 0.2358909 -0.4118335
v 0.005221844 0.2358909 -0.02932858
v 0.005221844 0.2358909 -0.02932858
v -0.313941 0.2358909 -0.0233624
v 0.005221844 0.2358909 -0.4118335
v -0.313941 0.2358909 -0.4058673
v 0.005221844 0 -0.3829433
v -0.313941 0 -0.3771469
v 0.005221844 0 -0.0113242
v -0.313941 0 -0.005527809

vn 0.01810559 0.07609124 0.9969364
vn 0.01837119 0.07573414 0.9969588
vn 0.01837119 0.07573414 0.9969588
vn 0.0186368 0.07537699 0.9969809
vn -1 0 0
vn -1 0 0
vn -1 0 0
vn -0.9999999 0 0
vn -0.01802521 -0.1208408 -0.9925082
vn -0.01828832 -0.1211922 -0.9924606
vn -0.01828832 -0.1211922 -0.9924606
vn -0.01855141 -0.1215435 -0.9924127
vn 1 0 0
vn 1 0 0
vn 1 0 0
vn 0.9999999 0 0
vn 0 1 0
vn 0 1 0
vn 0 1 0
vn 0 1 0
vn 0 -1 0
vn 0 -1 0
vn 0 -1 0
vn 0 -1 0

vt 0.9931527 0.2268697
vt 0.7649163 0.2357932
vt 1 0.3960111
vt 0.7717608 0.4049255
vt 0.7649162 0.2357932
vt 0.5007927 0.2665454
vt 0.7717609 0.4049255
vt 0.4999003 0.4365784
vt 0.5007928 0.2665454
vt 0.2723829 0.2658479
vt 0.4999003 0.4365784
vt 0.2714883 0.4358957
vt 0.2723829 0.2658479
vt 0.008620923 0.2321349
vt 0.2714883 0.4358957
vt 0 0.4011951
vt 0.2757855 0.7095587
vt 0.5041976 0.7102417
vt 0.2714882 0.4358956
vt 0.4999003 0.4365784
vt 0.2723829 0.265848
vt 0.5007928 0.2665454
vt 0.2780231 0
vt 0.506433 0.000697403

g Default_Prototype
usemtl Default_Prototype
usemap Default_Prototype
f 2/2/2 1/1/1 3/3/3
f 4/4/4 2/2/2 3/3/3
f 6/6/6 5/5/5 7/7/7
f 8/8/8 6/6/6 7/7/7
f 10/10/10 9/9/9 11/11/11
f 12/12/12 10/10/10 11/11/11
f 14/14/14 13/13/13 15/15/15
f 16/16/16 14/14/14 15/15/15
f 18/18/18 17/17/17 19/19/19
f 20/20/20 18/18/18 19/19/19
f 22/22/22 21/21/21 23/23/23
f 24/24/24 22/22/22 23/23/23
