mtllib ./Block1.mtl
g pb-Cube-277334
v 0.1824434 -0.2621119 0.1702158
v -0.1580465 -0.2621119 0.1702158
v 0.1580465 0.2621119 0.1702158
v -0.1824434 0.2621119 0.1702158
v -0.1580465 -0.2621119 0.1702158
v -0.1580465 -0.2621119 -0.1702158
v -0.1824434 0.2621119 0.1702158
v -0.1824434 0.2621119 -0.1702158
v -0.1580465 -0.2621119 -0.1702158
v 0.1824434 -0.2621119 -0.1702158
v -0.1824434 0.2621119 -0.1702158
v 0.1580465 0.2621119 -0.1702158
v 0.1824434 -0.2621119 -0.1702158
v 0.1824434 -0.2621119 0.1702158
v 0.1580465 0.2621119 -0.1702158
v 0.1580465 0.2621119 0.1702158
v 0.1580465 0.2621119 0.1702158
v -0.1824434 0.2621119 0.1702158
v 0.1580465 0.2621119 -0.1702158
v -0.1824434 0.2621119 -0.1702158
v 0.1824434 -0.2621119 -0.1702158
v -0.1580465 -0.2621119 -0.1702158
v 0.1824434 -0.2621119 0.1702158
v -0.1580465 -0.2621119 0.1702158

vn 0 0 1
vn 0 0 1
vn 0 0 1
vn 0 0 1
vn -0.9989188 -0.04648877 0
vn -0.9989188 -0.04648877 0
vn -0.9989188 -0.04648877 0
vn -0.9989188 -0.04648877 0
vn 0 0 -1
vn 0 0 -1
vn 0 0 -1
vn 0 0 -1
vn 0.9989188 0.04648877 0
vn 0.9989188 0.04648877 0
vn 0.9989188 0.04648877 0
vn 0.9989188 0.04648877 0
vn 0 1 0
vn 0 1 0
vn 0 1 0
vn 0 1 0
vn 0 -1 0
vn 0 -1 0
vn 0 -1 0
vn 0 -1 0

vt 0.4994065 0.2495301
vt 0.2498338 0.261872
vt 0.5005258 0.6346604
vt 0.2509532 0.6470024
vt 0.2498338 0.2618721
vt 0 0.2625982
vt 0.2509532 0.6470024
vt 0.001119433 0.6477286
vt 0.9988804 0.2596947
vt 0.7492402 0.2488039
vt 1 0.6448251
vt 0.7503598 0.6339343
vt 0.7492403 0.2488039
vt 0.4994065 0.2495301
vt 0.7503597 0.6339342
vt 0.5005259 0.6346604
vt 0.5005258 0.6346604
vt 0.2509532 0.6470024
vt 0.5128658 0.8841903
vt 0.2632931 0.8965324
vt 0.4870665 0
vt 0.2374939 0.01234209
vt 0.4994065 0.24953
vt 0.2498338 0.2618721

g Default_Prototype
usemtl Default_Prototype
usemap Default_Prototype
f 2/2/2 1/1/1 3/3/3
f 4/4/4 2/2/2 3/3/3
f 6/6/6 5/5/5 7/7/7
f 8/8/8 6/6/6 7/7/7
f 10/10/10 9/9/9 11/11/11
f 12/12/12 10/10/10 11/11/11
f 14/14/14 13/13/13 15/15/15
f 16/16/16 14/14/14 15/15/15
f 18/18/18 17/17/17 19/19/19
f 20/20/20 18/18/18 19/19/19
f 22/22/22 21/21/21 23/23/23
f 24/24/24 22/22/22 23/23/23
