# 3ds Max Wavefront OBJ Exporter v0.97b - (c)2007 guruware
# File Created: 01.05.2015 11:18:54

#
# object Floor_5x5CurveC_CornerXYb
#

v  750.000000 100.000000 250.000046
v  705.017517 100.000008 250.000061
v  705.017456 99.999733 750.000061
v  749.999939 100.000000 750.000061
v  499.999969 50.000000 250.000031
v  440.017273 26.929741 250.000031
v  440.017273 99.999733 750.000000
v  499.999969 99.999733 750.000000
v  559.982666 73.070282 250.000046
v  559.982666 99.999733 750.000061
v  294.982422 0.000007 250.000015
v  249.999985 0.000000 250.000015
v  249.999908 100.000000 750.000000
v  294.982361 99.999733 750.000000
v  655.561401 97.007828 250.000046
v  655.561340 99.999733 750.000061
v  392.783508 11.968781 250.000046
v  392.783508 99.999733 750.000061
v  607.216431 88.031250 250.000046
v  607.216431 99.999733 750.000061
v  344.438538 2.992205 250.000046
v  344.438477 99.999733 750.000061
v  705.017517 100.000008 295.483032
v  705.017517 100.000008 346.998657
v  705.017517 100.000008 398.514282
v  705.017517 100.000008 450.029907
v  705.017517 100.000008 501.545532
v  705.017517 100.000008 553.061157
v  705.017517 100.000008 604.576782
v  705.017517 100.000008 656.092407
v  705.017517 100.000008 707.608032
v  749.999939 100.000000 707.608032
v  750.000000 100.000000 656.092407
v  750.000000 100.000000 604.576782
v  750.000000 100.000000 553.061157
v  750.000000 100.000000 501.545502
v  750.000000 100.000000 450.029877
v  750.000000 100.000000 398.514252
v  750.000000 100.000000 346.998657
v  750.000000 100.000000 295.483032
v  440.017273 26.929741 295.483002
v  440.017273 27.860466 346.998627
v  440.017273 27.860466 398.514252
v  440.017273 37.500160 450.029877
v  440.017273 52.803040 501.545502
v  440.017273 70.563034 553.061096
v  440.017273 84.007462 604.576782
v  440.017273 92.885162 656.092407
v  440.017273 100.760483 707.608032
v  499.999969 50.000000 295.483002
v  499.999969 50.000000 346.998627
v  499.999969 50.000000 398.514252
v  499.999969 52.569504 450.029877
v  499.999969 60.423130 501.545502
v  499.999969 72.432350 553.061157
v  499.999969 83.199234 604.576782
v  499.999969 93.072021 656.092407
v  499.999969 98.460258 707.608032
v  559.982666 73.070282 295.483032
v  559.982666 73.070282 346.998657
v  559.982666 73.070282 398.514282
v  559.982666 73.070282 450.029907
v  559.982666 73.070282 501.545532
v  559.982666 78.096268 553.061157
v  559.982666 85.817596 604.576782
v  559.982666 92.812813 656.092407
v  559.982666 97.192902 707.608032
v  249.999969 0.000007 294.982483
v  249.999924 2.992205 344.438599
v  249.999924 11.968781 392.783539
v  249.999939 26.929741 440.017334
v  249.999939 50.000000 500.000031
v  249.999924 73.070282 559.982727
v  249.999924 88.031250 607.216492
v  249.999924 97.007828 655.561462
v  249.999893 100.000008 705.017578
v  294.982422 0.000007 295.482971
v  294.982422 5.543884 346.998596
v  294.982422 9.848427 394.297668
v  294.982422 24.913254 443.151428
v  294.982422 49.565010 501.545502
v  294.982422 72.581062 554.792236
v  294.982422 86.425499 604.576721
v  294.982422 94.449265 656.092346
v  294.982422 100.332199 707.607971
v  655.561401 97.007828 295.483032
v  655.561401 97.007828 346.998657
v  655.561401 97.007828 398.514282
v  655.561401 97.007828 450.029907
v  655.561401 97.007828 501.545532
v  655.561401 97.007828 553.061157
v  655.561401 97.007828 604.576782
v  655.561401 97.007828 656.092407
v  655.561401 97.007828 707.608032
v  392.783508 11.968781 295.483032
v  392.783508 13.363313 346.998657
v  392.783508 17.283432 397.152374
v  392.783478 29.364548 447.930389
v  392.783478 50.692062 501.545502
v  392.783478 70.163498 553.061157
v  392.783478 83.126106 604.576782
v  392.783478 93.284302 656.092407
v  392.783478 101.282677 707.608032
v  607.216431 88.031250 295.483032
v  607.216431 88.031250 346.998657
v  607.216431 88.031250 398.514282
v  607.216431 88.031250 450.029907
v  607.216431 88.031250 501.545532
v  607.216431 88.031250 553.061157
v  607.216431 90.124741 604.576782
v  607.216431 95.056076 656.092407
v  607.216431 97.929390 707.608032
v  344.438538 2.992205 295.483032
v  344.438538 6.211550 346.998657
v  344.438538 9.598825 395.798676
v  344.438538 24.901772 446.576691
v  344.438538 48.676926 501.545502
v  344.438538 69.993538 553.061157
v  344.438538 85.160835 604.576782
v  344.438538 93.899094 656.092407
v  344.438538 101.015053 707.608032
# 121 vertices

vn -0.030209 0.999544 -0.000000
vn 0.000000 1.000000 0.000000
vn -0.094289 0.951469 -0.292943
vn -0.168389 0.968732 -0.182220
vn -0.271371 0.956456 -0.107465
vn -0.198706 0.952815 -0.229479
vn -0.238528 0.969134 -0.062311
vn -0.296626 0.954858 -0.016086
vn 0.030711 0.929274 -0.368112
vn 0.014669 0.921490 -0.388124
vn 0.039066 0.940999 -0.336146
vn 0.062999 0.942912 -0.327030
vn -0.121705 0.992566 -0.000000
vn -0.048083 0.934106 -0.353744
vn -0.117024 0.947870 -0.296390
vn -0.231124 0.972849 -0.012141
vn -0.242718 0.970097 -0.000000
vn -0.012902 0.921635 -0.387844
vn -0.035972 0.941693 -0.334545
vn -0.000001 1.000000 0.000005
vn -0.000006 1.000000 -0.000000
vn -0.000001 1.000000 0.000002
vn -0.021920 0.999728 -0.007950
vn 0.011663 0.999905 0.007319
vn 0.006416 0.999091 -0.042134
vn 0.021563 0.997799 -0.062713
vn 0.017556 0.998044 -0.059993
vn -0.000203 0.989361 -0.145479
vn 0.005154 0.986629 -0.162899
vn -0.023839 0.981903 -0.187878
vn -0.005221 0.977922 -0.208903
vn -0.071079 0.975894 -0.206345
vn -0.032529 0.960370 -0.276824
vn -0.358979 0.933346 -0.000000
vn -0.330619 0.943764 -0.000000
vn -0.329519 0.944100 -0.009635
vn -0.357176 0.934035 -0.001820
vn -0.312846 0.949664 -0.016286
vn -0.352630 0.935763 -0.000000
vn -0.273133 0.957162 -0.096116
vn -0.338207 0.940307 -0.037924
vn -0.004154 0.998065 -0.062040
vn -0.004195 0.997631 -0.068658
vn -0.024293 0.993999 -0.106659
vn -0.074135 0.988323 -0.133124
vn -0.154486 0.981227 -0.115448
vn -0.325560 0.945508 -0.005059
vn -0.003829 0.999986 0.003773
vn -0.003786 0.999927 0.011475
vn -0.005037 0.998426 -0.055855
vn 0.009776 0.998877 -0.046367
vn 0.029242 0.991302 -0.128314
vn 0.050111 0.992233 -0.113858
vn 0.028952 0.975568 -0.217780
vn 0.012196 0.972817 -0.231252
vn 0.006443 0.941638 -0.336564
vn -0.018472 0.940671 -0.338816
vn -0.030210 0.999544 -0.000000
vn -0.000000 1.000000 -0.000000
vn 0.000334 0.999550 -0.029996
vn -0.035992 0.998226 -0.047423
vn -0.035899 0.990561 -0.132290
vn -0.024574 0.994107 -0.105579
vn 0.029237 0.975496 -0.218066
vn 0.029925 0.980982 -0.191778
vn -0.016575 0.998374 -0.054539
vn -0.023221 0.999195 -0.032699
vn -0.043251 0.999038 -0.007252
vn -0.088677 0.995984 -0.012343
vn -0.116647 0.993160 -0.005174
vn 0.002952 0.999621 0.027385
vn 0.003203 0.998057 -0.062231
vn 0.005176 0.985744 -0.168175
vn 0.009200 0.976201 -0.216671
vn -0.004412 0.953758 -0.300544
vn -0.238249 0.971043 -0.017669
vn -0.222107 0.973793 -0.048948
vn -0.183485 0.971412 -0.150637
vn 0.005150 0.998541 -0.053744
vn -0.003300 0.998889 -0.047017
vn -0.052217 0.996394 -0.066871
vn -0.115639 0.990990 -0.067573
vn -0.180584 0.982967 -0.034151
vn -0.001499 0.999677 0.025389
vn -0.005592 0.998145 -0.060622
vn 0.012212 0.988227 -0.152504
vn 0.026166 0.975533 -0.218290
vn 0.011319 0.944635 -0.327927
vn -0.115835 0.992588 -0.036750
vn -0.081775 0.994615 -0.063664
vn -0.067476 0.981228 -0.180661
# 91 vertex normals

vt 0.906286 0.496909 0.000000
vt 1.000000 0.496909 0.000000
vt 1.000000 0.599940 0.000000
vt 0.906286 0.599940 0.000000
vt 0.384649 0.496909 0.000000
vt 0.500000 0.496909 0.000000
vt 0.500000 0.599940 0.000000
vt 0.384649 0.599940 0.000000
vt 0.615351 0.496909 0.000000
vt 0.615351 0.599940 0.000000
vt -0.000000 0.496909 0.000000
vt 0.093713 0.496909 0.000000
vt 0.093713 0.599940 0.000000
vt -0.000000 0.599940 0.000000
vt 0.809308 0.496909 0.000000
vt 0.809308 0.599940 0.000000
vt 0.287670 0.496909 0.000000
vt 0.287670 0.599940 0.000000
vt 0.712330 0.496909 0.000000
vt 0.712330 0.599940 0.000000
vt 0.190692 0.496909 0.000000
vt 0.190692 0.599940 0.000000
vt 0.906286 0.000000 0.000000
vt 1.000000 0.000000 0.000000
vt 1.000000 0.084784 0.000000
vt 0.906286 0.084784 0.000000
vt 1.000000 0.187815 0.000000
vt 0.906286 0.187815 0.000000
vt 1.000000 0.290847 0.000000
vt 0.906286 0.290847 0.000000
vt 1.000000 0.393878 0.000000
vt 0.906286 0.393878 0.000000
vt 1.000000 1.000000 0.000000
vt 0.906286 1.000000 0.000000
vt 0.906286 0.909034 0.000000
vt 1.000000 0.909034 0.000000
vt 0.906286 0.806003 0.000000
vt 1.000000 0.806003 0.000000
vt 0.906286 0.702972 0.000000
vt 1.000000 0.702972 0.000000
vt 0.384649 0.000000 0.000000
vt 0.500000 0.000000 0.000000
vt 0.500000 0.084784 0.000000
vt 0.384649 0.084784 0.000000
vt 0.500000 0.187815 0.000000
vt 0.384649 0.187815 0.000000
vt 0.500000 0.290847 0.000000
vt 0.384649 0.290847 0.000000
vt 0.500000 0.393878 0.000000
vt 0.384649 0.393878 0.000000
vt 0.500000 1.000000 0.000000
vt 0.384649 1.000000 0.000000
vt 0.384649 0.909034 0.000000
vt 0.500000 0.909034 0.000000
vt 0.384649 0.806003 0.000000
vt 0.500000 0.806003 0.000000
vt 0.384649 0.702972 0.000000
vt 0.500000 0.702972 0.000000
vt 0.615351 0.000000 0.000000
vt 0.615351 0.084784 0.000000
vt 0.615351 0.187815 0.000000
vt 0.615351 0.290847 0.000000
vt 0.615351 0.393878 0.000000
vt 0.615351 1.000000 0.000000
vt 0.615351 0.909034 0.000000
vt 0.615351 0.806003 0.000000
vt 0.615351 0.702972 0.000000
vt -0.000000 0.000000 0.000000
vt 0.093713 0.000000 0.000000
vt 0.093713 0.084784 0.000000
vt -0.000000 0.084784 0.000000
vt 0.093713 0.187815 0.000000
vt -0.000000 0.187815 0.000000
vt 0.093713 0.290847 0.000000
vt -0.000000 0.290847 0.000000
vt 0.093713 0.393878 0.000000
vt -0.000000 0.393878 0.000000
vt 0.093713 1.000000 0.000000
vt -0.000000 1.000000 0.000000
vt -0.000000 0.909034 0.000000
vt 0.093713 0.909034 0.000000
vt -0.000000 0.806003 0.000000
vt 0.093713 0.806003 0.000000
vt -0.000000 0.702972 0.000000
vt 0.093713 0.702972 0.000000
vt 0.809308 0.000000 0.000000
vt 0.809308 0.084784 0.000000
vt 0.809308 0.187815 0.000000
vt 0.809308 0.290847 0.000000
vt 0.809308 0.393878 0.000000
vt 0.809308 1.000000 0.000000
vt 0.809308 0.909034 0.000000
vt 0.809308 0.806003 0.000000
vt 0.809308 0.702972 0.000000
vt 0.287670 0.000000 0.000000
vt 0.287670 0.084784 0.000000
vt 0.287670 0.187815 0.000000
vt 0.287670 0.290847 0.000000
vt 0.287670 0.393878 0.000000
vt 0.287670 1.000000 0.000000
vt 0.287670 0.909034 0.000000
vt 0.287670 0.806003 0.000000
vt 0.287670 0.702972 0.000000
vt 0.712330 0.000000 0.000000
vt 0.712330 0.084784 0.000000
vt 0.712330 0.187815 0.000000
vt 0.712330 0.290847 0.000000
vt 0.712330 0.393878 0.000000
vt 0.712330 1.000000 0.000000
vt 0.712330 0.909034 0.000000
vt 0.712330 0.806003 0.000000
vt 0.712330 0.702972 0.000000
vt 0.190692 0.000000 0.000000
vt 0.190692 0.084784 0.000000
vt 0.190692 0.187815 0.000000
vt 0.190692 0.290847 0.000000
vt 0.190692 0.393878 0.000000
vt 0.190692 1.000000 0.000000
vt 0.190692 0.909034 0.000000
vt 0.190692 0.806003 0.000000
vt 0.190692 0.702972 0.000000
# 121 texture coords

g Floor_5x5CurveC_CornerXYb
s 1
f -95/-121/-91 -86/-120/-90 -85/-119/-90 -96/-118/-91 
f -77/-117/-89 -68/-116/-88 -69/-115/-87 -78/-114/-86 
f -68/-116/-88 -59/-113/-85 -60/-112/-84 -69/-115/-87 
f -50/-111/-83 -41/-110/-82 -42/-109/-81 -51/-108/-80 
f -32/-107/-79 -95/-121/-91 -96/-118/-91 -33/-106/-79 
f -23/-105/-78 -77/-117/-89 -78/-114/-86 -24/-104/-77 
f -14/-103/-76 -32/-107/-79 -33/-106/-79 -15/-102/-75 
f -59/-113/-85 -14/-103/-76 -15/-102/-75 -60/-112/-84 
f -5/-101/-74 -23/-105/-78 -24/-104/-77 -6/-100/-73 
f -41/-110/-82 -5/-101/-74 -6/-100/-73 -42/-109/-81 
f -119/-99/-72 -118/-98/-71 -90/-97/-70 -91/-96/-69 
f -91/-96/-69 -90/-97/-70 -89/-95/-90 -92/-94/-91 
f -92/-94/-91 -89/-95/-90 -88/-93/-90 -93/-92/-91 
f -93/-92/-91 -88/-93/-90 -87/-91/-90 -94/-90/-91 
f -94/-90/-91 -87/-91/-90 -86/-120/-90 -95/-121/-91 
f -121/-89/-90 -120/-88/-91 -99/-87/-91 -82/-86/-90 
f -82/-86/-90 -99/-87/-91 -98/-85/-91 -83/-84/-90 
f -83/-84/-90 -98/-85/-91 -97/-83/-91 -84/-82/-90 
f -84/-82/-90 -97/-83/-91 -96/-118/-91 -85/-119/-90 
f -115/-81/-68 -114/-80/-67 -64/-79/-66 -73/-78/-65 
f -73/-78/-65 -64/-79/-66 -65/-77/-64 -74/-76/-63 
f -74/-76/-63 -65/-77/-64 -66/-75/-62 -75/-74/-61 
f -75/-74/-61 -66/-75/-62 -67/-73/-60 -76/-72/-59 
f -76/-72/-59 -67/-73/-60 -68/-116/-88 -77/-117/-89 
f -117/-71/-58 -116/-70/-57 -81/-69/-56 -72/-68/-55 
f -72/-68/-55 -81/-69/-56 -80/-67/-54 -71/-66/-53 
f -71/-66/-53 -80/-67/-54 -79/-65/-52 -70/-64/-51 
f -70/-64/-51 -79/-65/-52 -78/-114/-86 -69/-115/-87 
f -114/-80/-67 -112/-63/-50 -55/-62/-49 -64/-79/-66 
f -64/-79/-66 -55/-62/-49 -56/-61/-48 -65/-77/-64 
f -65/-77/-64 -56/-61/-48 -57/-60/-47 -66/-75/-62 
f -66/-75/-62 -57/-60/-47 -58/-59/-46 -67/-73/-60 
f -67/-73/-60 -58/-59/-46 -59/-113/-85 -68/-116/-88 
f -113/-58/-57 -117/-71/-58 -72/-68/-55 -63/-57/-57 
f -63/-57/-57 -72/-68/-55 -71/-66/-53 -62/-56/-57 
f -62/-56/-57 -71/-66/-53 -70/-64/-51 -61/-55/-45 
f -61/-55/-45 -70/-64/-51 -69/-115/-87 -60/-112/-84 
f -109/-54/-44 -108/-53/-43 -37/-52/-42 -46/-51/-41 
f -46/-51/-41 -37/-52/-42 -38/-50/-40 -47/-49/-39 
f -47/-49/-39 -38/-50/-40 -39/-48/-38 -48/-47/-37 
f -48/-47/-37 -39/-48/-38 -40/-46/-36 -49/-45/-35 
f -49/-45/-35 -40/-46/-36 -41/-110/-82 -50/-111/-83 
f -111/-44/-34 -110/-43/-33 -54/-42/-32 -45/-41/-31 
f -45/-41/-31 -54/-42/-32 -53/-40/-30 -44/-39/-29 
f -44/-39/-29 -53/-40/-30 -52/-38/-28 -43/-37/-27 
f -43/-37/-27 -52/-38/-28 -51/-108/-80 -42/-109/-81 
f -106/-36/-26 -119/-99/-72 -91/-96/-69 -28/-35/-25 
f -28/-35/-25 -91/-96/-69 -92/-94/-91 -29/-34/-24 
f -29/-34/-24 -92/-94/-91 -93/-92/-91 -30/-33/-23 
f -30/-33/-23 -93/-92/-91 -94/-90/-91 -31/-32/-22 
f -31/-32/-22 -94/-90/-91 -95/-121/-91 -32/-107/-79 
f -120/-88/-91 -107/-31/-79 -36/-30/-79 -99/-87/-91 
f -99/-87/-91 -36/-30/-79 -35/-29/-79 -98/-85/-91 
f -98/-85/-91 -35/-29/-79 -34/-28/-79 -97/-83/-91 
f -97/-83/-91 -34/-28/-79 -33/-106/-79 -96/-118/-91 
f -104/-27/-21 -115/-81/-68 -73/-78/-65 -19/-26/-20 
f -19/-26/-20 -73/-78/-65 -74/-76/-63 -20/-25/-19 
f -20/-25/-19 -74/-76/-63 -75/-74/-61 -21/-24/-18 
f -21/-24/-18 -75/-74/-61 -76/-72/-59 -22/-23/-17 
f -22/-23/-17 -76/-72/-59 -77/-117/-89 -23/-105/-78 
f -116/-70/-57 -105/-22/-75 -27/-21/-16 -81/-69/-56 
f -81/-69/-56 -27/-21/-16 -26/-20/-15 -80/-67/-54 
f -80/-67/-54 -26/-20/-15 -25/-19/-14 -79/-65/-52 
f -79/-65/-52 -25/-19/-14 -24/-104/-77 -78/-114/-86 
f -102/-18/-13 -106/-36/-26 -28/-35/-25 -10/-17/-12 
f -10/-17/-12 -28/-35/-25 -29/-34/-24 -11/-16/-11 
f -11/-16/-11 -29/-34/-24 -30/-33/-23 -12/-15/-10 
f -12/-15/-10 -30/-33/-23 -31/-32/-22 -13/-14/-9 
f -13/-14/-9 -31/-32/-22 -32/-107/-79 -14/-103/-76 
f -107/-31/-79 -103/-13/-75 -18/-12/-75 -36/-30/-79 
f -36/-30/-79 -18/-12/-75 -17/-11/-75 -35/-29/-79 
f -35/-29/-79 -17/-11/-75 -16/-10/-75 -34/-28/-79 
f -34/-28/-79 -16/-10/-75 -15/-102/-75 -33/-106/-79 
f -112/-63/-50 -102/-18/-13 -10/-17/-12 -55/-62/-49 
f -55/-62/-49 -10/-17/-12 -11/-16/-11 -56/-61/-48 
f -56/-61/-48 -11/-16/-11 -12/-15/-10 -57/-60/-47 
f -57/-60/-47 -12/-15/-10 -13/-14/-9 -58/-59/-46 
f -58/-59/-46 -13/-14/-9 -14/-103/-76 -59/-113/-85 
f -103/-13/-75 -113/-58/-57 -63/-57/-57 -18/-12/-75 
f -18/-12/-75 -63/-57/-57 -62/-56/-57 -17/-11/-75 
f -17/-11/-75 -62/-56/-57 -61/-55/-45 -16/-10/-75 
f -16/-10/-75 -61/-55/-45 -60/-112/-84 -15/-102/-75 
f -100/-9/-8 -104/-27/-21 -19/-26/-20 -1/-8/-7 
f -1/-8/-7 -19/-26/-20 -20/-25/-19 -2/-7/-6 
f -2/-7/-6 -20/-25/-19 -21/-24/-18 -3/-6/-5 
f -3/-6/-5 -21/-24/-18 -22/-23/-17 -4/-5/-4 
f -4/-5/-4 -22/-23/-17 -23/-105/-78 -5/-101/-74 
f -105/-22/-75 -101/-4/-79 -9/-3/-3 -27/-21/-16 
f -27/-21/-16 -9/-3/-3 -8/-2/-2 -26/-20/-15 
f -26/-20/-15 -8/-2/-2 -7/-1/-1 -25/-19/-14 
f -25/-19/-14 -7/-1/-1 -6/-100/-73 -24/-104/-77 
f -108/-53/-43 -100/-9/-8 -1/-8/-7 -37/-52/-42 
f -37/-52/-42 -1/-8/-7 -2/-7/-6 -38/-50/-40 
f -38/-50/-40 -2/-7/-6 -3/-6/-5 -39/-48/-38 
f -39/-48/-38 -3/-6/-5 -4/-5/-4 -40/-46/-36 
f -40/-46/-36 -4/-5/-4 -5/-101/-74 -41/-110/-82 
f -101/-4/-79 -111/-44/-34 -45/-41/-31 -9/-3/-3 
f -9/-3/-3 -45/-41/-31 -44/-39/-29 -8/-2/-2 
f -8/-2/-2 -44/-39/-29 -43/-37/-27 -7/-1/-1 
f -7/-1/-1 -43/-37/-27 -42/-109/-81 -6/-100/-73 
# 100 polygons

