# 3ds Max Wavefront OBJ Exporter v0.97b - (c)2007 guruware
# File Created: 01.05.2015 11:03:28

#
# object Floor_5x5CurveB_CornerYXb
#

v  249.976959 100.000000 -750.000000
v  249.976974 100.000015 -619.975952
v  749.976929 99.997162 -619.975952
v  749.976929 100.000000 -750.000000
v  249.976974 55.442070 -388.605133
v  249.988495 0.000000 -250.000000
v  750.000000 100.000000 -249.999954
v  749.976929 99.997162 -388.605164
v  249.976974 97.215141 -560.524292
v  749.976929 99.997162 -560.524292
v  249.976974 88.860535 -502.145264
v  749.976929 99.997162 -502.145264
v  249.976974 74.936172 -444.838898
v  749.976929 99.997162 -444.838867
v  389.523651 100.000015 -619.975952
v  447.656982 100.000015 -619.975952
v  505.790314 100.000015 -619.975952
v  563.923706 100.000015 -619.975952
v  622.057007 100.000015 -619.975952
v  622.057007 100.000000 -750.000000
v  563.923584 100.000000 -750.000000
v  505.790283 100.000000 -750.000000
v  447.656952 100.000000 -750.000000
v  389.523621 100.000000 -750.000000
v  388.605164 55.442070 -249.999954
v  444.838898 74.936172 -249.999954
v  502.145264 88.860535 -249.999954
v  560.524292 97.215141 -249.999954
v  619.975952 100.000015 -249.999954
v  389.523651 68.629646 -388.605133
v  447.656982 78.767014 -388.605133
v  505.790314 87.213043 -388.605133
v  563.923706 94.712769 -388.605133
v  622.057007 98.092186 -388.605133
v  389.523651 97.215141 -560.524292
v  447.656982 97.519432 -560.524292
v  505.790314 98.631783 -560.524292
v  563.923706 98.002007 -560.524292
v  622.057007 99.477486 -560.524292
v  389.523651 88.860535 -502.145264
v  447.656982 90.611847 -502.145264
v  505.790314 93.452904 -502.145264
v  563.923706 96.260620 -502.145264
v  622.057007 97.251617 -502.145264
v  389.523651 79.000534 -444.838898
v  447.656982 83.543388 -444.838898
v  505.790314 90.249855 -444.838898
v  563.923706 94.557648 -444.838898
v  622.057007 98.137817 -444.838898
# 49 vertices

vn 0.001334 0.999917 0.012847
vn 0.000000 1.000000 -0.000000
vn -0.002356 0.999826 0.018479
vn -0.177931 0.984042 -0.001267
vn -0.132932 0.990888 0.021684
vn -0.151527 0.986732 0.058300
vn -0.262660 0.963732 0.047235
vn -0.009122 0.998671 0.050723
vn -0.015185 0.996944 0.076628
vn -0.047966 0.996216 0.072477
vn -0.044475 0.992407 0.114671
vn -0.092772 0.994110 0.056029
vn -0.093554 0.990029 0.105308
vn 0.000017 1.000000 0.000005
vn 0.000000 1.000000 0.000022
vn 0.000006 1.000000 0.000005
vn -0.000727 0.999993 0.003786
vn -0.003126 0.999902 0.013652
vn 0.000000 0.999726 0.023402
vn -0.000644 0.999741 0.022754
vn -0.007066 0.999949 -0.007242
vn -0.014759 0.999891 0.000098
vn -0.035009 0.999373 -0.005319
vn -0.025049 0.999559 -0.015920
vn -0.085144 0.996362 -0.003689
vn -0.093238 0.995480 -0.018039
vn -0.165313 0.971817 0.168058
vn -0.232829 0.944167 0.233108
vn -0.348785 0.933204 0.086478
vn -0.002586 0.999996 0.001217
vn -0.014748 0.999603 0.023990
vn -0.007562 0.999478 0.031398
vn 0.000000 0.995540 0.094336
vn -0.005670 0.995809 0.091285
vn -0.015131 0.999872 0.005195
vn -0.019021 0.999755 0.011316
vn -0.030885 0.999026 0.031526
vn -0.010607 0.983480 0.180705
vn -0.020859 0.988505 0.149745
vn -0.017068 0.999852 -0.002073
vn -0.032471 0.999471 -0.001791
vn -0.064002 0.997803 0.017119
vn -0.051456 0.963147 0.264008
vn -0.059556 0.984045 0.167655
vn -0.088180 0.933092 0.348660
# 45 vertex normals

vt 0.511627 0.739952 0.000000
vt 0.511627 1.000000 0.000000
vt 0.395360 1.000000 0.000000
vt 0.395360 0.739952 0.000000
vt 0.511627 0.000000 0.000000
vt 0.511627 0.277210 0.000000
vt 0.395360 0.277210 0.000000
vt 0.395360 0.000000 0.000000
vt 0.511627 0.624267 0.000000
vt 0.395360 0.624267 0.000000
vt 0.511627 0.508581 0.000000
vt 0.395360 0.508581 0.000000
vt 0.511627 0.392896 0.000000
vt 0.395360 0.392896 0.000000
vt 1.000000 0.739952 0.000000
vt 1.000000 1.000000 0.000000
vt 0.744160 1.000000 0.000000
vt 0.744160 0.739952 0.000000
vt 0.627893 1.000000 0.000000
vt 0.627893 0.739952 0.000000
vt 0.000000 1.000000 0.000000
vt 0.000000 0.739952 0.000000
vt 0.279093 0.739952 0.000000
vt 0.279093 1.000000 0.000000
vt 1.000000 0.000000 0.000000
vt 1.000000 0.277210 0.000000
vt 0.744160 0.277210 0.000000
vt 0.744160 0.000000 0.000000
vt 0.627893 0.277210 0.000000
vt 0.627893 0.000000 0.000000
vt 0.279093 0.277210 0.000000
vt 0.000000 0.000000 0.000000
vt 0.279093 0.000000 0.000000
vt 1.000000 0.624267 0.000000
vt 0.744160 0.624267 0.000000
vt 0.627893 0.624267 0.000000
vt 0.000000 0.624267 0.000000
vt 0.279093 0.624267 0.000000
vt 1.000000 0.508581 0.000000
vt 0.744160 0.508581 0.000000
vt 0.627893 0.508581 0.000000
vt 0.000000 0.508581 0.000000
vt 0.279093 0.508581 0.000000
vt 1.000000 0.392896 0.000000
vt 0.744160 0.392896 0.000000
vt 0.627893 0.392896 0.000000
vt 0.000000 0.392896 0.000000
vt 0.279093 0.392896 0.000000
vt 0.000000 0.277210 0.000000
# 49 texture coords

g Floor_5x5CurveB_CornerYXb
s 1
f -33/-49/-45 -28/-48/-44 -27/-47/-44 -34/-46/-43 
f -23/-45/-42 -18/-44/-41 -19/-43/-40 -24/-42/-39 
f -13/-41/-38 -33/-49/-45 -34/-46/-43 -14/-40/-37 
f -8/-39/-36 -13/-41/-38 -14/-40/-37 -9/-38/-35 
f -3/-37/-34 -8/-39/-36 -9/-38/-35 -4/-36/-33 
f -18/-44/-41 -3/-37/-34 -4/-36/-33 -19/-43/-40 
f -47/-35/-32 -46/-34/-31 -30/-33/-30 -31/-32/-29 
f -31/-32/-29 -30/-33/-30 -29/-31/-44 -32/-30/-28 
f -32/-30/-28 -29/-31/-44 -28/-48/-44 -33/-49/-45 
f -49/-29/-44 -48/-28/-27 -35/-27/-26 -26/-26/-44 
f -26/-26/-44 -35/-27/-26 -34/-46/-43 -27/-47/-44 
f -43/-25/-25 -42/-24/-24 -16/-23/-23 -21/-22/-22 
f -21/-22/-22 -16/-23/-23 -17/-21/-21 -22/-20/-20 
f -22/-20/-20 -17/-21/-21 -18/-44/-41 -23/-45/-42 
f -20/-19/-19 -44/-18/-18 -25/-17/-17 
f -20/-19/-19 -25/-17/-17 -24/-42/-39 -19/-43/-40 
f -40/-16/-16 -47/-35/-32 -31/-32/-29 -11/-15/-15 
f -11/-15/-15 -31/-32/-29 -32/-30/-28 -12/-14/-14 
f -12/-14/-14 -32/-30/-28 -33/-49/-45 -13/-41/-38 
f -48/-28/-27 -41/-13/-13 -15/-12/-12 -35/-27/-26 
f -35/-27/-26 -15/-12/-12 -14/-40/-37 -34/-46/-43 
f -38/-11/-11 -40/-16/-16 -11/-15/-15 -6/-10/-10 
f -6/-10/-10 -11/-15/-15 -12/-14/-14 -7/-9/-9 
f -7/-9/-9 -12/-14/-14 -13/-41/-38 -8/-39/-36 
f -41/-13/-13 -39/-8/-8 -10/-7/-7 -15/-12/-12 
f -15/-12/-12 -10/-7/-7 -9/-38/-35 -14/-40/-37 
f -36/-6/-6 -38/-11/-11 -6/-10/-10 -1/-5/-5 
f -1/-5/-5 -6/-10/-10 -7/-9/-9 -2/-4/-4 
f -2/-4/-4 -7/-9/-9 -8/-39/-36 -3/-37/-34 
f -39/-8/-8 -37/-3/-3 -5/-2/-2 -10/-7/-7 
f -10/-7/-7 -5/-2/-2 -4/-36/-33 -9/-38/-35 
f -42/-24/-24 -36/-6/-6 -1/-5/-5 -16/-23/-23 
f -16/-23/-23 -1/-5/-5 -2/-4/-4 -17/-21/-21 
f -17/-21/-21 -2/-4/-4 -3/-37/-34 -18/-44/-41 
f -37/-3/-3 -45/-1/-1 -20/-19/-19 -5/-2/-2 
f -5/-2/-2 -20/-19/-19 -19/-43/-40 -4/-36/-33 
f -20/-19/-19 -45/-1/-1 -44/-18/-18 
# 35 polygons - 2 triangles

