# 3ds Max Wavefront OBJ Exporter v0.97b - (c)2007 guruware
# File Created: 01.05.2015 11:03:56

#
# object Floor_5x5CurveB_CornerYXa
#

v  -750.000000 100.000000 -249.976959
v  -619.975952 100.000015 -249.976974
v  -619.975952 99.997162 -749.976929
v  -750.000000 100.000000 -749.976929
v  -388.605133 55.442070 -249.976974
v  -250.000000 0.000000 -249.988495
v  -249.999939 100.000000 -750.000000
v  -388.605133 99.997162 -749.976929
v  -560.524292 97.215141 -249.976974
v  -560.524292 99.997162 -749.976929
v  -502.145264 88.860535 -249.976974
v  -502.145264 99.997162 -749.976929
v  -444.838867 74.936172 -249.976974
v  -444.838867 99.997162 -749.976929
v  -619.975952 100.000015 -389.523651
v  -619.975952 100.000015 -447.656982
v  -619.975952 100.000015 -505.790314
v  -619.975952 100.000015 -563.923706
v  -619.975952 100.000015 -622.057007
v  -750.000000 100.000000 -622.057007
v  -750.000000 100.000000 -563.923584
v  -750.000000 100.000000 -505.790283
v  -750.000000 100.000000 -447.656952
v  -750.000000 100.000000 -389.523621
v  -249.999954 55.442070 -388.605164
v  -249.999954 74.936172 -444.838898
v  -249.999954 88.860535 -502.145264
v  -249.999954 97.215141 -560.524292
v  -249.999954 100.000015 -619.975952
v  -388.605133 68.629646 -389.523651
v  -388.605133 78.767014 -447.656982
v  -388.605133 87.213043 -505.790314
v  -388.605133 94.712769 -563.923706
v  -388.605133 98.092186 -622.057007
v  -560.524292 97.215141 -389.523651
v  -560.524292 97.519432 -447.656982
v  -560.524292 98.631783 -505.790314
v  -560.524292 98.002007 -563.923706
v  -560.524292 99.477486 -622.057007
v  -502.145264 88.860535 -389.523651
v  -502.145264 90.611847 -447.656982
v  -502.145264 93.452904 -505.790314
v  -502.145264 96.260620 -563.923706
v  -502.145264 97.251617 -622.057007
v  -444.838867 79.000534 -389.523651
v  -444.838867 83.543388 -447.656982
v  -444.838867 90.249855 -505.790314
v  -444.838867 94.557648 -563.923706
v  -444.838867 98.137817 -622.057007
# 49 vertices

vn 0.012847 0.999917 -0.001334
vn -0.000000 1.000000 -0.000000
vn 0.018479 0.999826 0.002356
vn -0.001267 0.984042 0.177931
vn 0.021684 0.990888 0.132932
vn 0.058300 0.986732 0.151527
vn 0.047235 0.963732 0.262660
vn 0.050723 0.998671 0.009122
vn 0.076628 0.996944 0.015185
vn 0.072477 0.996216 0.047966
vn 0.114671 0.992407 0.044475
vn 0.056029 0.994110 0.092772
vn 0.105308 0.990029 0.093554
vn 0.000005 1.000000 -0.000017
vn 0.000022 1.000000 0.000000
vn 0.000005 1.000000 -0.000006
vn 0.003786 0.999993 0.000727
vn 0.013652 0.999902 0.003126
vn 0.023402 0.999726 0.000000
vn 0.022754 0.999741 0.000644
vn -0.007242 0.999949 0.007066
vn 0.000098 0.999891 0.014759
vn -0.005319 0.999373 0.035009
vn -0.015920 0.999559 0.025049
vn -0.003689 0.996362 0.085144
vn -0.018039 0.995480 0.093238
vn 0.168058 0.971817 0.165313
vn 0.233108 0.944167 0.232829
vn 0.086478 0.933204 0.348785
vn 0.001217 0.999996 0.002586
vn 0.023990 0.999603 0.014748
vn 0.031398 0.999478 0.007562
vn 0.094336 0.995540 0.000000
vn 0.091285 0.995809 0.005670
vn 0.005195 0.999872 0.015131
vn 0.011316 0.999755 0.019021
vn 0.031526 0.999026 0.030885
vn 0.180705 0.983480 0.010607
vn 0.149745 0.988505 0.020859
vn -0.002073 0.999852 0.017068
vn -0.001791 0.999471 0.032471
vn 0.017119 0.997803 0.064002
vn 0.264008 0.963147 0.051456
vn 0.167655 0.984045 0.059556
vn 0.348660 0.933092 0.088180
# 45 vertex normals

vt 0.260048 0.511627 0.000000
vt 0.000000 0.511627 0.000000
vt 0.000000 0.395360 0.000000
vt 0.260048 0.395360 0.000000
vt 1.000000 0.511627 0.000000
vt 0.722790 0.511627 0.000000
vt 0.722790 0.395360 0.000000
vt 1.000000 0.395360 0.000000
vt 0.375733 0.511627 0.000000
vt 0.375733 0.395360 0.000000
vt 0.491419 0.511627 0.000000
vt 0.491419 0.395360 0.000000
vt 0.607104 0.511627 0.000000
vt 0.607104 0.395360 0.000000
vt 0.260048 1.000000 0.000000
vt 0.000000 1.000000 0.000000
vt 0.000000 0.744160 0.000000
vt 0.260048 0.744160 0.000000
vt 0.000000 0.627893 0.000000
vt 0.260048 0.627893 0.000000
vt -0.000000 0.000000 0.000000
vt 0.260048 0.000000 0.000000
vt 0.260048 0.279093 0.000000
vt 0.000000 0.279093 0.000000
vt 1.000000 1.000000 0.000000
vt 0.722790 1.000000 0.000000
vt 0.722790 0.744160 0.000000
vt 1.000000 0.744160 0.000000
vt 0.722790 0.627893 0.000000
vt 1.000000 0.627893 0.000000
vt 0.722790 0.279093 0.000000
vt 1.000000 0.000000 0.000000
vt 1.000000 0.279093 0.000000
vt 0.375733 1.000000 0.000000
vt 0.375733 0.744160 0.000000
vt 0.375733 0.627893 0.000000
vt 0.375733 0.000000 0.000000
vt 0.375733 0.279093 0.000000
vt 0.491419 1.000000 0.000000
vt 0.491419 0.744160 0.000000
vt 0.491419 0.627893 0.000000
vt 0.491419 0.000000 0.000000
vt 0.491419 0.279093 0.000000
vt 0.607104 1.000000 0.000000
vt 0.607104 0.744160 0.000000
vt 0.607104 0.627893 0.000000
vt 0.607104 0.000000 0.000000
vt 0.607104 0.279093 0.000000
vt 0.722790 0.000000 0.000000
# 49 texture coords

g Floor_5x5CurveB_CornerYXa
s 1
f -33/-49/-45 -28/-48/-44 -27/-47/-44 -34/-46/-43 
f -23/-45/-42 -18/-44/-41 -19/-43/-40 -24/-42/-39 
f -13/-41/-38 -33/-49/-45 -34/-46/-43 -14/-40/-37 
f -8/-39/-36 -13/-41/-38 -14/-40/-37 -9/-38/-35 
f -3/-37/-34 -8/-39/-36 -9/-38/-35 -4/-36/-33 
f -18/-44/-41 -3/-37/-34 -4/-36/-33 -19/-43/-40 
f -47/-35/-32 -46/-34/-31 -30/-33/-30 -31/-32/-29 
f -31/-32/-29 -30/-33/-30 -29/-31/-44 -32/-30/-28 
f -32/-30/-28 -29/-31/-44 -28/-48/-44 -33/-49/-45 
f -49/-29/-44 -48/-28/-27 -35/-27/-26 -26/-26/-44 
f -26/-26/-44 -35/-27/-26 -34/-46/-43 -27/-47/-44 
f -43/-25/-25 -42/-24/-24 -16/-23/-23 -21/-22/-22 
f -21/-22/-22 -16/-23/-23 -17/-21/-21 -22/-20/-20 
f -22/-20/-20 -17/-21/-21 -18/-44/-41 -23/-45/-42 
f -20/-19/-19 -44/-18/-18 -25/-17/-17 
f -20/-19/-19 -25/-17/-17 -24/-42/-39 -19/-43/-40 
f -40/-16/-16 -47/-35/-32 -31/-32/-29 -11/-15/-15 
f -11/-15/-15 -31/-32/-29 -32/-30/-28 -12/-14/-14 
f -12/-14/-14 -32/-30/-28 -33/-49/-45 -13/-41/-38 
f -48/-28/-27 -41/-13/-13 -15/-12/-12 -35/-27/-26 
f -35/-27/-26 -15/-12/-12 -14/-40/-37 -34/-46/-43 
f -38/-11/-11 -40/-16/-16 -11/-15/-15 -6/-10/-10 
f -6/-10/-10 -11/-15/-15 -12/-14/-14 -7/-9/-9 
f -7/-9/-9 -12/-14/-14 -13/-41/-38 -8/-39/-36 
f -41/-13/-13 -39/-8/-8 -10/-7/-7 -15/-12/-12 
f -15/-12/-12 -10/-7/-7 -9/-38/-35 -14/-40/-37 
f -36/-6/-6 -38/-11/-11 -6/-10/-10 -1/-5/-5 
f -1/-5/-5 -6/-10/-10 -7/-9/-9 -2/-4/-4 
f -2/-4/-4 -7/-9/-9 -8/-39/-36 -3/-37/-34 
f -39/-8/-8 -37/-3/-3 -5/-2/-2 -10/-7/-7 
f -10/-7/-7 -5/-2/-2 -4/-36/-33 -9/-38/-35 
f -42/-24/-24 -36/-6/-6 -1/-5/-5 -16/-23/-23 
f -16/-23/-23 -1/-5/-5 -2/-4/-4 -17/-21/-21 
f -17/-21/-21 -2/-4/-4 -3/-37/-34 -18/-44/-41 
f -37/-3/-3 -45/-1/-1 -20/-19/-19 -5/-2/-2 
f -5/-2/-2 -20/-19/-19 -19/-43/-40 -4/-36/-33 
f -20/-19/-19 -45/-1/-1 -44/-18/-18 
# 35 polygons - 2 triangles

