# 3ds Max Wavefront OBJ Exporter v0.97b - (c)2007 guruware
# File Created: 01.05.2015 11:33:41

#
# object Floor_2_5x2_5x1_CornerYXb
#

v  125.000000 0.000000 -125.000000
v  375.000000 100.000000 -125.000000
v  125.000000 100.000000 -375.000000
v  375.000000 100.000000 -375.000000
# 4 vertices

vn -0.192450 0.962250 0.192450
vn -0.371391 0.928477 -0.000000
vn 0.000000 0.928477 0.371391
# 3 vertex normals

vt 0.000000 0.000000 0.000000
vt 1.000000 0.000000 0.000000
vt 1.000000 1.000000 0.000000
vt 0.000000 1.000000 0.000000
# 4 texture coords

g Floor_2_5x2_5x1_CornerYXb
s 1
f -4/-4/-3 -3/-3/-2 -1/-2/-3 -2/-1/-1 
# 1 polygons

