# 3ds Max Wavefront OBJ Exporter v0.97b - (c)2007 guruware
# File Created: 01.05.2015 11:33:58

#
# object Floor_2_5x2_5x1_CornerXYa
#

v  -125.000008 0.000000 124.999992
v  -375.000000 100.000000 124.999977
v  -125.000023 100.000000 375.000000
v  -375.000031 100.000000 374.999969
# 4 vertices

vn 0.192450 0.962250 -0.192450
vn 0.371391 0.928477 0.000000
vn 0.000000 0.928477 -0.371391
# 3 vertex normals

vt 1.000000 1.000000 0.000000
vt 0.000000 1.000000 0.000000
vt -0.000000 0.000000 0.000000
vt 1.000000 0.000000 0.000000
# 4 texture coords

g Floor_2_5x2_5x1_CornerXYa
s 1
f -4/-4/-3 -3/-3/-2 -1/-2/-3 -2/-1/-1 
# 1 polygons

