# 3ds Max Wavefront OBJ Exporter v0.97b - (c)2007 guruware
# File Created: 08.06.2015 10:20:56

#
# object Floor_5x5x2_CornerYXa
#

v  250.000000 0.000000 250.000000
v  250.000000 200.000000 -250.000000
v  -250.000000 200.000000 -250.000000
v  -250.000000 200.000000 250.000000
# 4 vertices

vn 0.192450 0.962250 0.192450
vn -0.000000 0.928477 0.371391
vn 0.371391 0.928477 0.000000
# 3 vertex normals

vt 1.000000 -0.000000 0.000000
vt 1.000000 1.000000 0.000000
vt 0.000000 1.000000 0.000000
vt 0.000000 0.000000 0.000000
# 4 texture coords

g Floor_5x5x2_CornerYXa
s 1
f 1/1/1 2/2/2 3/3/1 4/4/3 
# 1 polygons

