# 3ds Max Wavefront OBJ Exporter v0.97b - (c)2007 guruware
# File Created: 01.05.2015 11:18:47

#
# object Floor_5x5CurveC_CornerYXb
#

v  250.000000 100.000000 -750.000000
v  250.000015 100.000008 -705.017578
v  750.000000 99.999733 -705.017517
v  750.000000 100.000000 -750.000000
v  250.000000 50.000000 -500.000000
v  250.000000 26.929741 -440.017303
v  750.000000 99.999733 -440.017303
v  750.000000 99.999733 -500.000000
v  250.000015 73.070282 -559.982727
v  750.000000 99.999733 -559.982727
v  250.000000 0.000007 -294.982452
v  250.000000 0.000000 -250.000000
v  750.000000 100.000000 -249.999954
v  750.000000 99.999733 -294.982422
v  250.000015 97.007828 -655.561401
v  750.000000 99.999733 -655.561401
v  250.000015 11.968781 -392.783508
v  750.000000 99.999733 -392.783539
v  250.000015 88.031250 -607.216492
v  750.000000 99.999733 -607.216492
v  250.000015 2.992205 -344.438568
v  750.000000 99.999733 -344.438538
v  295.482971 100.000008 -705.017578
v  346.998596 100.000008 -705.017578
v  398.514221 100.000008 -705.017578
v  450.029846 100.000008 -705.017578
v  501.545471 100.000008 -705.017578
v  553.061096 100.000008 -705.017578
v  604.576721 100.000008 -705.017578
v  656.092346 100.000008 -705.017578
v  707.607971 100.000008 -705.017578
v  707.607971 100.000000 -750.000000
v  656.092346 100.000000 -750.000000
v  604.576721 100.000000 -750.000000
v  553.061096 100.000000 -750.000000
v  501.545471 100.000000 -750.000000
v  450.029846 100.000000 -750.000000
v  398.514221 100.000000 -750.000000
v  346.998596 100.000000 -750.000000
v  295.482971 100.000000 -750.000000
v  295.482971 26.929741 -440.017303
v  346.998596 27.860466 -440.017303
v  398.514221 27.860466 -440.017303
v  450.029846 37.500160 -440.017303
v  501.545471 52.803040 -440.017303
v  553.061096 70.563034 -440.017303
v  604.576721 84.007462 -440.017303
v  656.092346 92.885162 -440.017303
v  707.607971 100.760483 -440.017303
v  295.482971 50.000000 -500.000000
v  346.998596 50.000000 -500.000000
v  398.514221 50.000000 -500.000000
v  450.029846 52.569504 -500.000000
v  501.545471 60.423130 -500.000000
v  553.061096 72.432350 -500.000000
v  604.576721 83.199234 -500.000000
v  656.092346 93.072021 -500.000000
v  707.607971 98.460258 -500.000000
v  295.482971 73.070282 -559.982727
v  346.998596 73.070282 -559.982727
v  398.514221 73.070282 -559.982727
v  450.029846 73.070282 -559.982727
v  501.545471 73.070282 -559.982727
v  553.061096 78.096268 -559.982727
v  604.576721 85.817596 -559.982727
v  656.092346 92.812813 -559.982727
v  707.607971 97.192902 -559.982727
v  294.982483 0.000007 -249.999985
v  344.438599 2.992205 -249.999954
v  392.783508 11.968781 -249.999954
v  440.017303 26.929741 -249.999969
v  500.000000 50.000000 -249.999969
v  559.982727 73.070282 -249.999954
v  607.216492 88.031250 -249.999954
v  655.561462 97.007828 -249.999954
v  705.017578 100.000008 -249.999939
v  295.482971 0.000007 -294.982452
v  346.998596 5.543884 -294.982452
v  394.297668 9.848427 -294.982452
v  443.151428 24.913254 -294.982452
v  501.545471 49.565010 -294.982452
v  554.792236 72.581062 -294.982452
v  604.576721 86.425499 -294.982452
v  656.092346 94.449265 -294.982452
v  707.607971 100.332199 -294.982452
v  295.482971 97.007828 -655.561401
v  346.998596 97.007828 -655.561401
v  398.514221 97.007828 -655.561401
v  450.029846 97.007828 -655.561401
v  501.545471 97.007828 -655.561401
v  553.061096 97.007828 -655.561401
v  604.576721 97.007828 -655.561401
v  656.092346 97.007828 -655.561401
v  707.607971 97.007828 -655.561401
v  295.482971 11.968781 -392.783508
v  346.998596 13.363313 -392.783508
v  397.152344 17.283432 -392.783508
v  447.930359 29.364548 -392.783508
v  501.545471 50.692062 -392.783508
v  553.061096 70.163498 -392.783508
v  604.576721 83.126106 -392.783508
v  656.092346 93.284302 -392.783508
v  707.607971 101.282677 -392.783508
v  295.482971 88.031250 -607.216492
v  346.998596 88.031250 -607.216492
v  398.514221 88.031250 -607.216492
v  450.029846 88.031250 -607.216492
v  501.545471 88.031250 -607.216492
v  553.061096 88.031250 -607.216492
v  604.576721 90.124741 -607.216492
v  656.092346 95.056076 -607.216492
v  707.607971 97.929390 -607.216492
v  295.482971 2.992205 -344.438568
v  346.998596 6.211550 -344.438568
v  395.798645 9.598825 -344.438568
v  446.576660 24.901772 -344.438568
v  501.545471 48.676926 -344.438568
v  553.061096 69.993538 -344.438568
v  604.576721 85.160835 -344.438568
v  656.092346 93.899094 -344.438568
v  707.607971 101.015053 -344.438568
# 121 vertices

vn 0.000000 0.999544 0.030209
vn 0.000000 1.000000 -0.000000
vn -0.292943 0.951469 0.094289
vn -0.182220 0.968732 0.168389
vn -0.107465 0.956456 0.271371
vn -0.229479 0.952815 0.198706
vn -0.062311 0.969134 0.238528
vn -0.016086 0.954858 0.296626
vn -0.368112 0.929274 -0.030711
vn -0.388124 0.921490 -0.014669
vn -0.336146 0.940999 -0.039066
vn -0.327030 0.942912 -0.062999
vn 0.000000 0.992566 0.121705
vn -0.353744 0.934106 0.048083
vn -0.296390 0.947870 0.117024
vn -0.012141 0.972849 0.231124
vn 0.000000 0.970097 0.242718
vn -0.387844 0.921635 0.012902
vn -0.334545 0.941693 0.035972
vn 0.000005 1.000000 0.000001
vn 0.000000 1.000000 0.000006
vn 0.000002 1.000000 0.000001
vn -0.007950 0.999728 0.021920
vn 0.007319 0.999905 -0.011663
vn -0.042134 0.999091 -0.006416
vn -0.062713 0.997799 -0.021563
vn -0.059993 0.998044 -0.017556
vn -0.145479 0.989361 0.000203
vn -0.162899 0.986629 -0.005154
vn -0.187878 0.981903 0.023839
vn -0.208903 0.977922 0.005221
vn -0.206345 0.975894 0.071079
vn -0.276824 0.960370 0.032529
vn 0.000000 0.933346 0.358979
vn 0.000000 0.943764 0.330619
vn -0.009635 0.944100 0.329519
vn -0.001820 0.934035 0.357176
vn -0.016286 0.949664 0.312846
vn 0.000000 0.935763 0.352630
vn -0.096116 0.957162 0.273133
vn -0.037924 0.940307 0.338207
vn -0.062040 0.998065 0.004154
vn -0.068658 0.997631 0.004195
vn -0.106659 0.993999 0.024293
vn -0.133124 0.988323 0.074135
vn -0.115448 0.981227 0.154486
vn -0.005059 0.945508 0.325560
vn 0.003773 0.999986 0.003829
vn 0.011475 0.999927 0.003786
vn -0.055855 0.998426 0.005037
vn -0.046367 0.998877 -0.009776
vn -0.128314 0.991302 -0.029242
vn -0.113858 0.992233 -0.050111
vn -0.217780 0.975568 -0.028952
vn -0.231252 0.972817 -0.012196
vn -0.336564 0.941638 -0.006443
vn -0.338816 0.940671 0.018472
vn -0.000000 0.999544 0.030210
vn -0.000000 1.000000 0.000000
vn -0.029996 0.999550 -0.000334
vn -0.047423 0.998226 0.035992
vn -0.132290 0.990561 0.035899
vn -0.105579 0.994107 0.024574
vn -0.218066 0.975496 -0.029237
vn -0.191778 0.980982 -0.029925
vn -0.054539 0.998374 0.016575
vn -0.032699 0.999195 0.023221
vn -0.007252 0.999038 0.043251
vn -0.012343 0.995984 0.088677
vn -0.005174 0.993160 0.116647
vn 0.027385 0.999621 -0.002952
vn -0.062231 0.998057 -0.003203
vn -0.168175 0.985744 -0.005176
vn -0.216671 0.976201 -0.009200
vn -0.300544 0.953758 0.004412
vn -0.017669 0.971043 0.238249
vn -0.048948 0.973793 0.222107
vn -0.150637 0.971412 0.183485
vn -0.053744 0.998541 -0.005150
vn -0.047017 0.998889 0.003300
vn -0.066871 0.996394 0.052217
vn -0.067573 0.990990 0.115639
vn -0.034151 0.982967 0.180584
vn 0.025389 0.999677 0.001499
vn -0.060622 0.998145 0.005592
vn -0.152504 0.988227 -0.012212
vn -0.218290 0.975533 -0.026166
vn -0.327927 0.944635 -0.011319
vn -0.036750 0.992588 0.115835
vn -0.063664 0.994615 0.081775
vn -0.180661 0.981228 0.067476
# 91 vertex normals

vt 0.503091 0.906287 0.000000
vt 0.503091 1.000000 0.000000
vt 0.400060 1.000000 0.000000
vt 0.400060 0.906287 0.000000
vt 0.503091 0.384649 0.000000
vt 0.503091 0.500000 0.000000
vt 0.400060 0.500000 0.000000
vt 0.400060 0.384649 0.000000
vt 0.503091 0.615351 0.000000
vt 0.400060 0.615351 0.000000
vt 0.503091 0.000000 0.000000
vt 0.503091 0.093713 0.000000
vt 0.400060 0.093713 0.000000
vt 0.400060 0.000000 0.000000
vt 0.503091 0.809308 0.000000
vt 0.400060 0.809308 0.000000
vt 0.503091 0.287670 0.000000
vt 0.400060 0.287670 0.000000
vt 0.503091 0.712330 0.000000
vt 0.400060 0.712330 0.000000
vt 0.503091 0.190692 0.000000
vt 0.400060 0.190692 0.000000
vt 1.000000 0.906287 0.000000
vt 1.000000 1.000000 0.000000
vt 0.915216 1.000000 0.000000
vt 0.915216 0.906287 0.000000
vt 0.812185 1.000000 0.000000
vt 0.812185 0.906287 0.000000
vt 0.709153 1.000000 0.000000
vt 0.709153 0.906287 0.000000
vt 0.606122 1.000000 0.000000
vt 0.606122 0.906287 0.000000
vt 0.000000 1.000000 0.000000
vt 0.000000 0.906287 0.000000
vt 0.090966 0.906287 0.000000
vt 0.090966 1.000000 0.000000
vt 0.193997 0.906287 0.000000
vt 0.193997 1.000000 0.000000
vt 0.297028 0.906287 0.000000
vt 0.297028 1.000000 0.000000
vt 1.000000 0.384649 0.000000
vt 1.000000 0.500000 0.000000
vt 0.915216 0.500000 0.000000
vt 0.915216 0.384649 0.000000
vt 0.812185 0.500000 0.000000
vt 0.812185 0.384649 0.000000
vt 0.709153 0.500000 0.000000
vt 0.709153 0.384649 0.000000
vt 0.606122 0.500000 0.000000
vt 0.606122 0.384649 0.000000
vt 0.000000 0.500000 0.000000
vt 0.000000 0.384649 0.000000
vt 0.090966 0.384649 0.000000
vt 0.090966 0.500000 0.000000
vt 0.193997 0.384649 0.000000
vt 0.193997 0.500000 0.000000
vt 0.297028 0.384649 0.000000
vt 0.297028 0.500000 0.000000
vt 1.000000 0.615351 0.000000
vt 0.915216 0.615351 0.000000
vt 0.812185 0.615351 0.000000
vt 0.709153 0.615351 0.000000
vt 0.606122 0.615351 0.000000
vt 0.000000 0.615351 0.000000
vt 0.090966 0.615351 0.000000
vt 0.193997 0.615351 0.000000
vt 0.297028 0.615351 0.000000
vt 1.000000 0.000000 0.000000
vt 1.000000 0.093713 0.000000
vt 0.915216 0.093713 0.000000
vt 0.915216 0.000000 0.000000
vt 0.812185 0.093713 0.000000
vt 0.812185 0.000000 0.000000
vt 0.709153 0.093713 0.000000
vt 0.709153 0.000000 0.000000
vt 0.606122 0.093713 0.000000
vt 0.606122 0.000000 0.000000
vt 0.000000 0.093713 0.000000
vt 0.000000 0.000000 0.000000
vt 0.090966 0.000000 0.000000
vt 0.090966 0.093713 0.000000
vt 0.193997 0.000000 0.000000
vt 0.193997 0.093713 0.000000
vt 0.297028 0.000000 0.000000
vt 0.297028 0.093713 0.000000
vt 1.000000 0.809308 0.000000
vt 0.915216 0.809308 0.000000
vt 0.812185 0.809308 0.000000
vt 0.709153 0.809308 0.000000
vt 0.606122 0.809308 0.000000
vt 0.000000 0.809308 0.000000
vt 0.090966 0.809308 0.000000
vt 0.193997 0.809308 0.000000
vt 0.297028 0.809308 0.000000
vt 1.000000 0.287670 0.000000
vt 0.915216 0.287670 0.000000
vt 0.812185 0.287670 0.000000
vt 0.709153 0.287670 0.000000
vt 0.606122 0.287670 0.000000
vt 0.000000 0.287670 0.000000
vt 0.090966 0.287670 0.000000
vt 0.193997 0.287670 0.000000
vt 0.297028 0.287670 0.000000
vt 1.000000 0.712330 0.000000
vt 0.915216 0.712330 0.000000
vt 0.812185 0.712330 0.000000
vt 0.709153 0.712330 0.000000
vt 0.606122 0.712330 0.000000
vt 0.000000 0.712330 0.000000
vt 0.090966 0.712330 0.000000
vt 0.193997 0.712330 0.000000
vt 0.297028 0.712330 0.000000
vt 1.000000 0.190692 0.000000
vt 0.915216 0.190692 0.000000
vt 0.812185 0.190692 0.000000
vt 0.709153 0.190692 0.000000
vt 0.606122 0.190692 0.000000
vt 0.000000 0.190692 0.000000
vt 0.090966 0.190692 0.000000
vt 0.193997 0.190692 0.000000
vt 0.297028 0.190692 0.000000
# 121 texture coords

g Floor_5x5CurveC_CornerYXb
s 1
f -95/-121/-91 -86/-120/-90 -85/-119/-90 -96/-118/-91 
f -77/-117/-89 -68/-116/-88 -69/-115/-87 -78/-114/-86 
f -68/-116/-88 -59/-113/-85 -60/-112/-84 -69/-115/-87 
f -50/-111/-83 -41/-110/-82 -42/-109/-81 -51/-108/-80 
f -32/-107/-79 -95/-121/-91 -96/-118/-91 -33/-106/-79 
f -23/-105/-78 -77/-117/-89 -78/-114/-86 -24/-104/-77 
f -14/-103/-76 -32/-107/-79 -33/-106/-79 -15/-102/-75 
f -59/-113/-85 -14/-103/-76 -15/-102/-75 -60/-112/-84 
f -5/-101/-74 -23/-105/-78 -24/-104/-77 -6/-100/-73 
f -41/-110/-82 -5/-101/-74 -6/-100/-73 -42/-109/-81 
f -119/-99/-72 -118/-98/-71 -90/-97/-70 -91/-96/-69 
f -91/-96/-69 -90/-97/-70 -89/-95/-90 -92/-94/-91 
f -92/-94/-91 -89/-95/-90 -88/-93/-90 -93/-92/-91 
f -93/-92/-91 -88/-93/-90 -87/-91/-90 -94/-90/-91 
f -94/-90/-91 -87/-91/-90 -86/-120/-90 -95/-121/-91 
f -121/-89/-90 -120/-88/-91 -99/-87/-91 -82/-86/-90 
f -82/-86/-90 -99/-87/-91 -98/-85/-91 -83/-84/-90 
f -83/-84/-90 -98/-85/-91 -97/-83/-91 -84/-82/-90 
f -84/-82/-90 -97/-83/-91 -96/-118/-91 -85/-119/-90 
f -115/-81/-68 -114/-80/-67 -64/-79/-66 -73/-78/-65 
f -73/-78/-65 -64/-79/-66 -65/-77/-64 -74/-76/-63 
f -74/-76/-63 -65/-77/-64 -66/-75/-62 -75/-74/-61 
f -75/-74/-61 -66/-75/-62 -67/-73/-60 -76/-72/-59 
f -76/-72/-59 -67/-73/-60 -68/-116/-88 -77/-117/-89 
f -117/-71/-58 -116/-70/-57 -81/-69/-56 -72/-68/-55 
f -72/-68/-55 -81/-69/-56 -80/-67/-54 -71/-66/-53 
f -71/-66/-53 -80/-67/-54 -79/-65/-52 -70/-64/-51 
f -70/-64/-51 -79/-65/-52 -78/-114/-86 -69/-115/-87 
f -114/-80/-67 -112/-63/-50 -55/-62/-49 -64/-79/-66 
f -64/-79/-66 -55/-62/-49 -56/-61/-48 -65/-77/-64 
f -65/-77/-64 -56/-61/-48 -57/-60/-47 -66/-75/-62 
f -66/-75/-62 -57/-60/-47 -58/-59/-46 -67/-73/-60 
f -67/-73/-60 -58/-59/-46 -59/-113/-85 -68/-116/-88 
f -113/-58/-57 -117/-71/-58 -72/-68/-55 -63/-57/-57 
f -63/-57/-57 -72/-68/-55 -71/-66/-53 -62/-56/-57 
f -62/-56/-57 -71/-66/-53 -70/-64/-51 -61/-55/-45 
f -61/-55/-45 -70/-64/-51 -69/-115/-87 -60/-112/-84 
f -109/-54/-44 -108/-53/-43 -37/-52/-42 -46/-51/-41 
f -46/-51/-41 -37/-52/-42 -38/-50/-40 -47/-49/-39 
f -47/-49/-39 -38/-50/-40 -39/-48/-38 -48/-47/-37 
f -48/-47/-37 -39/-48/-38 -40/-46/-36 -49/-45/-35 
f -49/-45/-35 -40/-46/-36 -41/-110/-82 -50/-111/-83 
f -111/-44/-34 -110/-43/-33 -54/-42/-32 -45/-41/-31 
f -45/-41/-31 -54/-42/-32 -53/-40/-30 -44/-39/-29 
f -44/-39/-29 -53/-40/-30 -52/-38/-28 -43/-37/-27 
f -43/-37/-27 -52/-38/-28 -51/-108/-80 -42/-109/-81 
f -106/-36/-26 -119/-99/-72 -91/-96/-69 -28/-35/-25 
f -28/-35/-25 -91/-96/-69 -92/-94/-91 -29/-34/-24 
f -29/-34/-24 -92/-94/-91 -93/-92/-91 -30/-33/-23 
f -30/-33/-23 -93/-92/-91 -94/-90/-91 -31/-32/-22 
f -31/-32/-22 -94/-90/-91 -95/-121/-91 -32/-107/-79 
f -120/-88/-91 -107/-31/-79 -36/-30/-79 -99/-87/-91 
f -99/-87/-91 -36/-30/-79 -35/-29/-79 -98/-85/-91 
f -98/-85/-91 -35/-29/-79 -34/-28/-79 -97/-83/-91 
f -97/-83/-91 -34/-28/-79 -33/-106/-79 -96/-118/-91 
f -104/-27/-21 -115/-81/-68 -73/-78/-65 -19/-26/-20 
f -19/-26/-20 -73/-78/-65 -74/-76/-63 -20/-25/-19 
f -20/-25/-19 -74/-76/-63 -75/-74/-61 -21/-24/-18 
f -21/-24/-18 -75/-74/-61 -76/-72/-59 -22/-23/-17 
f -22/-23/-17 -76/-72/-59 -77/-117/-89 -23/-105/-78 
f -116/-70/-57 -105/-22/-75 -27/-21/-16 -81/-69/-56 
f -81/-69/-56 -27/-21/-16 -26/-20/-15 -80/-67/-54 
f -80/-67/-54 -26/-20/-15 -25/-19/-14 -79/-65/-52 
f -79/-65/-52 -25/-19/-14 -24/-104/-77 -78/-114/-86 
f -102/-18/-13 -106/-36/-26 -28/-35/-25 -10/-17/-12 
f -10/-17/-12 -28/-35/-25 -29/-34/-24 -11/-16/-11 
f -11/-16/-11 -29/-34/-24 -30/-33/-23 -12/-15/-10 
f -12/-15/-10 -30/-33/-23 -31/-32/-22 -13/-14/-9 
f -13/-14/-9 -31/-32/-22 -32/-107/-79 -14/-103/-76 
f -107/-31/-79 -103/-13/-75 -18/-12/-75 -36/-30/-79 
f -36/-30/-79 -18/-12/-75 -17/-11/-75 -35/-29/-79 
f -35/-29/-79 -17/-11/-75 -16/-10/-75 -34/-28/-79 
f -34/-28/-79 -16/-10/-75 -15/-102/-75 -33/-106/-79 
f -112/-63/-50 -102/-18/-13 -10/-17/-12 -55/-62/-49 
f -55/-62/-49 -10/-17/-12 -11/-16/-11 -56/-61/-48 
f -56/-61/-48 -11/-16/-11 -12/-15/-10 -57/-60/-47 
f -57/-60/-47 -12/-15/-10 -13/-14/-9 -58/-59/-46 
f -58/-59/-46 -13/-14/-9 -14/-103/-76 -59/-113/-85 
f -103/-13/-75 -113/-58/-57 -63/-57/-57 -18/-12/-75 
f -18/-12/-75 -63/-57/-57 -62/-56/-57 -17/-11/-75 
f -17/-11/-75 -62/-56/-57 -61/-55/-45 -16/-10/-75 
f -16/-10/-75 -61/-55/-45 -60/-112/-84 -15/-102/-75 
f -100/-9/-8 -104/-27/-21 -19/-26/-20 -1/-8/-7 
f -1/-8/-7 -19/-26/-20 -20/-25/-19 -2/-7/-6 
f -2/-7/-6 -20/-25/-19 -21/-24/-18 -3/-6/-5 
f -3/-6/-5 -21/-24/-18 -22/-23/-17 -4/-5/-4 
f -4/-5/-4 -22/-23/-17 -23/-105/-78 -5/-101/-74 
f -105/-22/-75 -101/-4/-79 -9/-3/-3 -27/-21/-16 
f -27/-21/-16 -9/-3/-3 -8/-2/-2 -26/-20/-15 
f -26/-20/-15 -8/-2/-2 -7/-1/-1 -25/-19/-14 
f -25/-19/-14 -7/-1/-1 -6/-100/-73 -24/-104/-77 
f -108/-53/-43 -100/-9/-8 -1/-8/-7 -37/-52/-42 
f -37/-52/-42 -1/-8/-7 -2/-7/-6 -38/-50/-40 
f -38/-50/-40 -2/-7/-6 -3/-6/-5 -39/-48/-38 
f -39/-48/-38 -3/-6/-5 -4/-5/-4 -40/-46/-36 
f -40/-46/-36 -4/-5/-4 -5/-101/-74 -41/-110/-82 
f -101/-4/-79 -111/-44/-34 -45/-41/-31 -9/-3/-3 
f -9/-3/-3 -45/-41/-31 -44/-39/-29 -8/-2/-2 
f -8/-2/-2 -44/-39/-29 -43/-37/-27 -7/-1/-1 
f -7/-1/-1 -43/-37/-27 -42/-109/-81 -6/-100/-73 
# 100 polygons

