# 3ds Max Wavefront OBJ Exporter v0.97b - (c)2007 guruware
# File Created: 08.06.2015 10:43:43

#
# object Floor_5x5_OutlineA
#

v  57.737255 15.135778 245.938782
v  58.512047 15.161572 180.859802
v  -58.510651 15.161583 180.859802
v  -57.737255 15.135773 245.938782
v  -57.737141 15.795789 -246.937164
v  -58.511974 15.821494 -185.261581
v  55.485020 15.855118 -185.304520
v  54.711914 15.804170 -246.900436
v  245.938782 19.382542 -57.737255
v  185.734467 19.409374 -58.511341
v  185.734467 19.409382 58.511356
v  245.938782 19.382538 57.737255
v  -245.938782 15.174063 57.737255
v  -182.371841 15.199839 58.511341
v  -182.371841 12.929309 -58.511356
v  -245.938782 12.902467 -57.737255
v  246.068970 12.863644 185.312836
v  188.512634 14.414240 187.588226
v  187.588226 14.969338 188.512634
v  245.732697 12.867441 245.732697
v  185.312836 15.095287 246.068970
v  -246.068970 15.133678 185.312851
v  -245.732697 12.867441 245.732697
v  -182.288010 19.374920 245.972061
v  -188.323624 15.614718 187.595688
v  -181.974777 19.819489 192.675186
v  -246.068970 19.343716 -185.312836
v  -188.512634 19.534069 -187.588226
v  -187.588226 19.534069 -188.512634
v  -245.732697 19.347513 -245.732697
v  -185.312836 19.343716 -246.068970
v  245.972061 19.374920 -182.288010
v  245.732697 19.347513 -245.732697
v  185.312851 19.343864 -246.068970
v  195.307632 19.819489 -181.974777
v  187.595688 19.534966 -188.323624
v  -251.621033 4.047044 -251.621033
v  -252.142380 3.683374 -185.212524
v  -250.655457 11.625926 -185.212051
v  -249.832291 11.035507 -249.832291
v  -252.171844 3.668242 57.703659
v  -250.642548 9.672900 57.703659
v  -250.642563 9.256249 -57.703674
v  -252.171844 3.668242 -57.703674
v  -252.142380 3.683374 185.212524
v  -251.621017 4.047040 251.620789
v  -249.832291 9.422065 249.832291
v  -250.655457 9.623693 185.212051
v  -182.176407 3.669601 252.176834
v  -182.186966 11.592007 250.651047
v  57.703659 3.668242 252.171844
v  57.703659 9.665878 250.642548
v  -57.703674 9.665742 250.642563
v  -57.703674 3.668242 252.171844
v  185.212524 3.683374 252.142380
v  251.621033 4.047044 251.621033
v  249.832291 9.422065 249.832291
v  185.212051 9.616807 250.655457
v  252.142380 3.683374 185.212524
v  250.655457 9.215067 185.212051
v  252.171844 3.668242 -57.703659
v  250.642548 11.582498 -57.703659
v  250.642563 11.582485 57.703674
v  252.171844 3.668242 57.703674
v  252.176834 3.669601 -182.176407
v  251.620789 4.047040 -251.621017
v  249.832291 11.035507 -249.832291
v  250.651047 11.592007 -182.186966
v  185.212524 3.683374 -252.142380
v  185.212051 11.625839 -250.655457
v  -57.703663 3.258216 -255.205154
v  -57.703594 10.950377 -253.192017
v  54.678246 10.963159 -253.181854
v  54.677952 2.340584 -254.785446
v  -185.212524 3.683374 -252.142380
v  -185.212051 11.625926 -250.655457
v  -57.912937 3.666747 174.625549
v  -58.348850 9.936484 176.254623
v  58.350277 9.936608 176.254623
v  57.914364 3.666747 174.625549
v  -176.137589 3.666747 -57.913643
v  -177.766663 9.498626 -58.349556
v  -177.766663 9.944117 58.349571
v  -176.137589 3.666747 57.913658
v  54.859402 2.505650 -177.392944
v  55.324684 11.354126 -179.191284
v  -58.349785 11.214453 -179.105927
v  -57.703712 3.417552 -177.013306
v  179.500214 3.666747 57.913643
v  181.129288 12.020004 58.349556
v  181.129288 12.019998 -58.349571
v  179.500214 3.666747 -57.913658
v  184.117889 9.646336 184.117889
v  184.611847 13.867965 187.210327
v  187.210327 11.744185 184.611847
v  -184.117889 9.680634 184.117889
v  -187.210327 13.934271 184.611847
v  -184.611847 13.712289 187.210327
v  -184.117889 8.458455 -184.117889
v  -184.611847 13.763945 -187.210327
v  -187.210327 13.763945 -184.611847
v  184.117889 8.527332 -184.117889
v  187.210327 13.412329 -184.611847
v  184.611847 13.807926 -187.210327
v  188.841599 15.104809 -64.563217
v  246.005356 15.121227 -63.788078
v  182.799667 15.104527 64.563232
v  182.895050 14.658127 181.582336
v  245.872299 12.917501 179.263275
v  246.005341 15.120617 63.788074
v  250.659119 9.645004 -63.754654
v  252.172287 3.668362 -63.754654
v  250.626068 9.271451 179.162003
v  252.171890 3.668253 179.162003
v  252.171799 3.668230 63.754669
v  250.659088 9.644986 63.754669
v  176.611771 3.666782 179.740997
v  178.415451 12.028045 181.113998
v  178.069260 9.579249 64.395706
v  176.613022 3.666439 63.982407
v  184.111176 9.578928 -64.395699
v  184.450821 9.827168 -181.112488
v  182.653427 3.666782 -179.740997
v  182.654678 3.666440 -63.982422
v  250.000000 0.000000 60.729172
v  250.000000 0.000000 -60.729156
v  248.087158 9.423160 -60.729156
v  244.977173 13.914656 -60.762665
v  187.210327 13.898399 -61.537277
v  184.117889 9.580490 -61.372635
v  184.819946 0.000000 -60.729172
v  182.187500 0.000000 60.729156
v  184.117889 9.580499 61.372620
v  187.210327 13.898396 61.537292
v  244.977173 13.914657 60.762665
v  248.087158 9.423155 60.729172
v  250.000000 0.000000 182.187500
v  182.187500 0.000000 182.187500
v  244.977173 10.000000 182.287994
v  248.087158 7.576067 182.187500
v  250.000000 0.000000 250.000000
v  182.287994 13.919102 244.977173
v  182.187500 9.419732 248.087158
v  182.187500 0.000000 250.000000
v  250.000000 0.000000 -250.000000
v  182.187500 0.000000 -250.000000
v  182.187500 9.432533 -248.087158
v  182.287994 13.910120 -244.977173
v  184.819946 0.000000 -182.187500
v  250.000000 0.000000 -182.187500
v  -179.263275 15.149166 -245.872299
v  -181.582336 14.903029 -186.304337
v  -61.537277 12.900440 -186.231857
v  -60.762665 12.894850 -245.972061
v  64.563232 12.872257 -186.208878
v  181.582336 14.953100 -186.304260
v  179.263275 15.149133 -245.872299
v  63.788074 12.887308 -246.005341
v  -179.162003 3.668211 -252.171738
v  -179.162003 9.687182 -250.626053
v  -60.729156 9.248634 -250.650833
v  -60.729156 3.668241 -252.171844
v  179.162003 9.687158 -250.626068
v  179.162003 3.668253 -252.171890
v  63.754669 3.668230 -252.171799
v  63.754669 9.240962 -250.659088
v  179.740997 3.666782 -180.020981
v  181.113998 9.838206 -181.824661
v  64.395706 9.166481 -181.478470
v  63.982407 3.666439 -180.022232
v  -61.372635 9.332558 -181.563660
v  -181.113998 9.828364 -181.825027
v  -179.740997 3.666176 -180.023178
v  -60.729172 3.666710 -180.021240
v  179.263275 19.397573 245.872299
v  181.582336 19.467800 186.304260
v  64.563217 19.352335 186.208908
v  63.788074 19.367378 246.005341
v  -64.563232 19.352600 186.209137
v  -63.788078 19.367996 246.005341
v  179.162003 3.668253 252.171890
v  179.162003 11.560045 250.626068
v  63.754654 11.604149 250.659088
v  63.754654 3.668230 252.171799
v  -63.754669 3.668362 252.172287
v  -63.754669 11.603802 250.659119
v  -179.740997 3.666782 180.020981
v  -181.112488 12.056476 181.818375
v  -64.395683 11.436097 181.478714
v  -63.982407 3.666439 180.022232
v  64.395721 11.436768 181.478470
v  181.113998 12.576239 181.824661
v  179.740997 3.666782 180.020981
v  63.982422 3.666440 180.022232
v  -245.872299 19.508657 179.263275
v  -186.304260 19.578884 181.582336
v  -186.208908 19.463419 64.563217
v  -246.005341 19.478462 63.788074
v  -186.208878 12.872257 -64.563232
v  -186.304260 14.903069 -181.582336
v  -245.872299 15.149145 -179.263275
v  -246.005341 12.887308 -63.788074
v  -252.171890 3.668253 179.162003
v  -250.626068 11.599277 179.162003
v  -250.659088 11.644659 63.754654
v  -252.171799 3.668230 63.754654
v  -250.626068 9.687196 -179.162003
v  -252.171890 3.668253 -179.162003
v  -252.171799 3.668230 -63.754669
v  -250.659088 9.240962 -63.754669
v  -180.020981 3.666782 -179.740997
v  -181.824661 9.828532 -181.113998
v  -181.478470 9.166481 -64.395706
v  -180.022232 3.666439 -63.982407
v  -181.478470 11.475685 64.395721
v  -181.824661 12.623412 181.113998
v  -180.020981 3.666782 179.740997
v  -180.022232 3.666440 63.982422
v  60.729172 0.000000 -250.000000
v  60.729172 7.576067 -248.087158
v  60.762665 10.000000 -244.977173
v  61.537292 10.000000 -187.210327
v  61.372620 7.645588 -184.117889
v  60.729156 0.000000 -182.187500
v  -182.187500 0.000000 -182.187500
v  -60.729172 0.000000 -182.187500
v  -57.703716 1.107513 -178.118942
v  55.696625 1.107608 -178.121674
v  55.499432 1.101260 -254.073975
v  -57.703667 1.100208 -254.076065
v  -60.729156 0.000000 -250.000000
v  -182.187500 0.000000 -250.000000
v  -182.187500 9.432648 -248.087158
v  -182.287994 13.910224 -244.977173
v  -250.000000 0.000000 -250.000000
v  -250.000000 0.000000 -182.187500
v  -248.087158 9.432648 -182.187500
v  -244.977173 13.910224 -182.287994
v  -250.000000 0.000000 -60.729172
v  -248.087158 7.576067 -60.729172
v  -244.977173 10.000000 -60.762665
v  -187.210327 10.000000 -61.537292
v  -184.117889 7.645588 -61.372620
v  -182.187500 0.000000 -60.729156
v  -250.000000 0.000000 60.729156
v  -248.087158 9.457427 60.729156
v  -244.977173 13.976734 60.762665
v  -187.210327 13.992259 61.537277
v  -184.117889 9.529034 61.372635
v  -182.187500 0.000000 60.729172
v  -244.977173 13.986284 182.287994
v  -182.187500 0.000000 182.187500
v  -250.000000 0.000000 182.187500
v  -248.087158 9.451337 182.187500
v  -250.000000 0.000000 250.000000
v  -182.187500 0.000000 250.000000
v  -60.729172 0.000000 250.000000
v  -60.729172 9.425274 248.087158
v  -60.762665 13.909313 244.977173
v  -61.537292 13.924857 187.210327
v  -61.372620 9.497021 184.117889
v  -60.729156 0.000000 182.187500
v  60.729156 0.000000 250.000000
v  60.729156 9.425719 248.087158
v  60.762665 13.909712 244.977173
v  61.537277 13.924976 187.210327
v  61.372635 9.497291 184.117889
v  60.729172 0.000000 182.187500
# 268 vertices

vn 0.232315 0.873517 0.427783
vn 0.437573 0.796404 -0.417457
vn -0.451384 0.788740 -0.417302
vn -0.218227 0.881822 0.418051
vn -0.358980 0.882215 -0.304680
vn -0.364872 0.883096 0.294974
vn 0.366650 0.883190 0.292479
vn 0.358702 0.882782 -0.303363
vn 0.426932 0.789173 -0.441514
vn -0.421471 0.783805 -0.456083
vn -0.420219 0.785444 0.454416
vn 0.428658 0.787132 0.443481
vn -0.429674 0.875517 0.221022
vn 0.425355 0.816613 0.390149
vn 0.313481 0.830941 -0.459637
vn -0.306897 0.879233 -0.364367
vn 0.313508 0.878057 -0.361564
vn -0.053759 0.799854 -0.597782
vn -0.125559 0.954989 -0.268757
vn 0.283830 0.923335 0.258638
vn -0.207861 0.884027 0.418678
vn -0.432947 0.874559 -0.218410
vn -0.294383 0.911567 0.287027
vn -0.043224 0.873510 0.484883
vn 0.032904 0.926539 -0.374757
vn -0.242769 0.933548 -0.263726
vn -0.419957 0.789616 0.447372
vn 0.232959 0.813771 0.532454
vn 0.533618 0.813132 0.232527
vn -0.422738 0.798041 -0.429445
vn 0.448282 0.786988 -0.423902
vn 0.494166 0.869297 0.011063
vn 0.429643 0.798291 -0.422064
vn -0.447113 0.789638 -0.420193
vn -0.268442 0.958131 0.099617
vn -0.543384 0.795157 0.269182
vn -0.702613 -0.073450 -0.707771
vn -0.954162 -0.094779 0.283887
vn -0.861486 0.338391 0.378594
vn -0.632998 0.437260 -0.638840
vn -0.951951 -0.066666 0.298908
vn -0.849763 0.419857 0.318783
vn -0.776821 0.516813 -0.359797
vn -0.953147 -0.060426 -0.296412
vn -0.958218 -0.074302 -0.276221
vn -0.710422 -0.034644 0.702922
vn -0.566775 0.606609 0.557487
vn -0.858458 0.412932 -0.304200
vn -0.001904 -0.170651 0.985330
vn -0.015978 0.364693 0.930991
vn 0.299179 -0.066684 0.951864
vn 0.322606 0.418982 0.848752
vn -0.308391 0.418731 0.854142
vn -0.283818 -0.074126 0.956009
vn -0.276410 -0.074093 0.958179
vn 0.704569 -0.032928 0.708871
vn 0.561539 0.608712 0.560486
vn -0.304963 0.414430 0.857464
vn 0.952861 -0.055637 -0.298261
vn 0.779975 0.511801 -0.360138
vn 0.952626 -0.096365 -0.288473
vn 0.860804 0.340369 -0.378371
vn 0.856281 0.343811 0.385455
vn 0.951850 -0.094898 0.291505
vn 0.985318 -0.170651 -0.005248
vn 0.707734 -0.073473 -0.702648
vn 0.638883 0.437513 -0.632780
vn 0.932908 0.360111 -0.001689
vn -0.283887 -0.094778 -0.954162
vn -0.378594 0.338386 -0.861488
vn -0.360757 -0.109748 -0.926180
vn -0.358342 0.515056 -0.778658
vn 0.357358 0.488853 -0.795813
vn 0.284371 -0.096561 -0.953839
vn 0.284052 -0.095351 -0.954056
vn 0.384190 0.343897 -0.856816
vn -0.448633 -0.344374 -0.824703
vn -0.535849 0.363448 -0.762083
vn 0.530659 0.364252 -0.765324
vn 0.444480 -0.345729 -0.826383
vn 0.855169 -0.296709 -0.425030
vn 0.731884 0.456121 -0.506261
vn 0.783095 0.371654 0.498633
vn 0.854640 -0.305229 0.420030
vn 0.277882 -0.083214 0.957004
vn 0.359222 0.497778 0.789415
vn -0.364011 0.509692 0.779558
vn -0.343981 -0.097835 0.933866
vn -0.936827 -0.156405 0.312878
vn -0.849598 0.329428 0.411898
vn -0.846179 0.333245 -0.415848
vn -0.874547 -0.320146 -0.364245
vn 0.285303 0.943309 0.169617
vn 0.443884 0.754333 -0.483682
vn -0.161624 0.986852 -0.000225
vn 0.305368 0.937536 -0.166664
vn 0.472078 0.835838 0.280210
vn 0.320097 0.647612 -0.691474
vn 0.312931 0.870600 0.379644
vn 0.263898 0.806250 0.529451
vn 0.557464 0.776339 0.294164
vn -0.290671 0.671901 0.681219
vn -0.665387 0.585372 0.463249
vn -0.273466 0.774595 0.570280
vn -0.367498 0.921882 0.122795
vn 0.421734 0.876335 0.232761
vn -0.423344 0.827600 -0.368589
vn -0.272224 0.842736 0.464425
vn 0.319152 0.876582 0.360203
vn 0.428342 0.875154 -0.225007
vn 0.854465 0.414592 0.313054
vn 0.955875 -0.074745 0.284105
vn 0.776931 0.518261 0.357469
vn 0.953270 -0.059659 0.296170
vn 0.951996 -0.067375 -0.298605
vn 0.849473 0.419075 -0.320580
vn -0.856208 -0.323757 0.402603
vn -0.739990 0.456084 0.494371
vn -0.785729 0.405469 -0.467145
vn -0.863109 -0.263518 -0.430814
vn -0.912169 0.406716 0.050291
vn -0.861328 0.507946 -0.010278
vn -0.979780 -0.132324 -0.150075
vn -0.951593 -0.056198 0.302181
vn 0.974030 -0.226412 0.002024
vn 0.972335 -0.233593 -0.000387
vn 0.918024 0.389524 -0.074187
vn 0.445353 0.828921 -0.338453
vn -0.487474 0.658481 -0.573386
vn -0.833119 0.241414 -0.497626
vn -0.866102 -0.470852 -0.167828
vn -0.890977 -0.438699 -0.117060
vn -0.910027 0.401004 -0.105099
vn -0.330942 0.903939 0.270873
vn 0.479163 0.809441 0.339424
vn 0.907080 0.410819 0.091831
vn 0.978147 -0.207897 0.002811
vn -0.324697 -0.903516 -0.279695
vn 0.338368 0.941001 0.004906
vn 0.837192 0.546845 0.008384
vn 0.610165 -0.495530 0.618182
vn 0.339167 0.824199 0.453500
vn 0.076275 0.390265 0.917538
vn 0.005276 -0.230105 0.973151
vn 0.618208 -0.495501 -0.610162
vn 0.001496 -0.232275 -0.972649
vn -0.073073 0.387454 -0.918988
vn -0.340763 0.836784 -0.428572
vn -0.631327 -0.503421 0.589909
vn 0.861619 -0.507534 -0.004647
vn -0.222156 0.877294 -0.425442
vn -0.206613 0.885489 0.416197
vn -0.410322 0.862627 0.295822
vn -0.412240 0.859091 -0.303348
vn -0.359644 0.881657 0.305511
vn 0.234658 0.867165 0.439274
vn 0.209273 0.886132 -0.413492
vn -0.368427 0.879450 -0.301379
vn -0.299282 -0.065696 -0.951900
vn -0.318142 0.423539 -0.848175
vn -0.415276 0.503195 -0.757852
vn -0.425494 -0.123037 -0.896558
vn 0.305562 0.421356 -0.853868
vn 0.283545 -0.073545 -0.956134
vn -0.301942 -0.059140 -0.951490
vn -0.366198 0.511047 -0.777644
vn 0.159915 -0.085993 0.983378
vn 0.329707 0.438233 0.836209
vn -0.356246 0.525583 0.772562
vn -0.305832 -0.046788 0.950935
vn -0.410878 0.481769 0.774002
vn -0.327642 0.399413 0.856224
vn -0.260657 -0.094155 0.960829
vn -0.439142 -0.143613 0.886865
vn 0.437609 0.788799 0.431618
vn 0.460052 0.788673 -0.407856
vn -0.439043 0.791132 -0.425855
vn -0.447544 0.787369 0.423975
vn 0.440913 0.788469 -0.428849
vn 0.445226 0.789731 0.422018
vn 0.289057 -0.095130 0.952573
vn 0.376356 0.341082 0.861405
vn -0.388743 0.343492 0.854922
vn -0.291814 -0.095794 0.951666
vn 0.288006 -0.097637 0.952638
vn 0.380621 0.339561 0.860131
vn -0.283558 -0.116736 -0.951823
vn -0.383252 0.479078 -0.789685
vn 0.385746 0.351378 -0.853073
vn 0.296239 -0.083464 -0.951460
vn -0.375814 0.347474 -0.859084
vn 0.386091 0.334624 -0.859628
vn 0.270166 -0.125688 -0.954575
vn -0.286943 -0.088460 -0.953855
vn -0.432873 0.787637 0.438462
vn 0.409097 0.787530 0.460908
vn 0.427112 0.789943 -0.439960
vn -0.425189 0.786200 -0.448446
vn 0.305524 0.881674 0.359592
vn 0.438824 0.867271 -0.235104
vn -0.413214 0.886252 -0.209313
vn -0.301379 0.879450 0.368427
vn -0.952580 -0.095607 0.288877
vn -0.862163 0.338997 0.376506
vn -0.855616 0.341460 -0.389007
vn -0.951649 -0.096221 -0.291728
vn -0.853869 0.421356 -0.305559
vn -0.956135 -0.073546 -0.283545
vn -0.951490 -0.059140 0.301942
vn -0.777644 0.511047 0.366198
vn 0.955992 -0.088522 -0.279719
vn 0.842659 0.405126 -0.354682
vn 0.772560 0.525596 0.356230
vn 0.950935 -0.046788 0.305832
vn 0.859844 0.345373 -0.376014
vn 0.860311 0.332607 0.386313
vn 0.954496 -0.126063 0.270269
vn 0.953883 -0.088983 -0.286687
vn 0.118278 -0.243075 -0.962770
vn -0.006858 0.536047 -0.844160
vn 0.001785 0.946160 -0.323694
vn -0.008863 0.945794 0.324647
vn -0.011998 0.556890 0.830500
vn 0.147182 -0.258779 0.954657
vn 0.570769 -0.589508 0.571580
vn -0.214923 -0.669602 0.710944
vn -0.289134 -0.691637 0.661846
vn 0.313112 -0.612362 0.725929
vn 0.306041 -0.623199 -0.719696
vn -0.303711 -0.697500 -0.649040
vn -0.213756 -0.667991 -0.712809
vn -0.002779 -0.222923 -0.974832
vn 0.091586 0.413225 -0.906012
vn 0.342101 0.814881 -0.467905
vn -0.610165 -0.495530 -0.618182
vn -0.972649 -0.232275 -0.001496
vn -0.918987 0.387456 0.073075
vn -0.428286 0.836854 0.340950
vn -0.977767 -0.209695 -0.000759
vn -0.836034 0.548664 -0.003830
vn -0.324098 0.946023 -0.001414
vn 0.247183 0.967804 -0.047491
vn 0.801843 0.565773 -0.192221
vn 0.884706 -0.423598 -0.194578
vn -0.974025 -0.226430 -0.002116
vn -0.907031 0.410493 -0.093756
vn -0.475106 0.809121 -0.345828
vn 0.329227 0.902698 -0.277031
vn 0.915051 0.375034 0.148428
vn 0.875405 -0.445028 0.188721
vn -0.454110 0.821626 0.344551
vn 0.568622 -0.594993 -0.568025
vn -0.973076 -0.230425 0.005288
vn -0.918258 0.388389 0.077179
vn -0.618226 -0.495535 0.610116
vn 0.000014 -0.510186 0.860064
vn 0.000553 -0.233939 0.972251
vn 0.074356 0.388610 0.918397
vn 0.339278 0.832886 0.437254
vn 0.248298 0.905599 -0.343858
vn -0.190639 0.390926 -0.900463
vn -0.228812 -0.484779 -0.844177
vn -0.002100 -0.226197 0.974079
vn -0.092501 0.412133 0.906416
vn -0.340449 0.811813 0.474398
vn -0.265542 0.913493 -0.308249
vn 0.192887 0.369065 -0.909168
vn 0.227749 -0.491886 -0.840345
# 268 vertex normals

vt 0.599291 0.040318 0.000000
vt 0.600205 0.156155 0.000000
vt 0.389422 0.154930 0.000000
vt 0.390211 0.039544 0.000000
vt 0.392498 0.956710 0.000000
vt 0.391225 0.848551 0.000000
vt 0.596151 0.848910 0.000000
vt 0.595005 0.956782 0.000000
vt 0.954034 0.605725 0.000000
vt 0.849782 0.607424 0.000000
vt 0.850772 0.398499 0.000000
vt 0.955176 0.399229 0.000000
vt 0.038121 0.393783 0.000000
vt 0.151092 0.392816 0.000000
vt 0.152892 0.603687 0.000000
vt 0.040228 0.602252 0.000000
vt 0.950334 0.157507 0.000000
vt 0.846772 0.151915 0.000000
vt 0.844334 0.149392 0.000000
vt 0.947623 0.049092 0.000000
vt 0.839644 0.045325 0.000000
vt 0.041619 0.153625 0.000000
vt 0.045554 0.045189 0.000000
vt 0.159369 0.042797 0.000000
vt 0.146157 0.148800 0.000000
vt 0.158556 0.136726 0.000000
vt 0.047648 0.842919 0.000000
vt 0.148884 0.848412 0.000000
vt 0.150137 0.849635 0.000000
vt 0.049414 0.948973 0.000000
vt 0.155471 0.950937 0.000000
vt 0.952332 0.835545 0.000000
vt 0.949166 0.947653 0.000000
vt 0.842902 0.950232 0.000000
vt 0.862177 0.835700 0.000000
vt 0.848434 0.848539 0.000000
vt 0.035345 0.962813 0.000000
vt 0.021079 0.843524 0.000000
vt 0.034141 0.841890 0.000000
vt 0.040196 0.958066 0.000000
vt 0.014164 0.394611 0.000000
vt 0.025046 0.394231 0.000000
vt 0.030977 0.602411 0.000000
vt 0.021503 0.602410 0.000000
vt 0.017357 0.152386 0.000000
vt 0.035063 0.034342 0.000000
vt 0.039342 0.038681 0.000000
vt 0.028086 0.153485 0.000000
vt 0.159290 0.013423 0.000000
vt 0.159920 0.027261 0.000000
vt 0.598958 0.016877 0.000000
vt 0.599097 0.027676 0.000000
vt 0.390640 0.026737 0.000000
vt 0.391054 0.015881 0.000000
vt 0.840788 0.021239 0.000000
vt 0.958837 0.038378 0.000000
vt 0.954484 0.042650 0.000000
vt 0.839714 0.031919 0.000000
vt 0.970111 0.157165 0.000000
vt 0.960493 0.157881 0.000000
vt 0.980407 0.606428 0.000000
vt 0.967301 0.606847 0.000000
vt 0.968884 0.397958 0.000000
vt 0.982075 0.398179 0.000000
vt 0.981820 0.837455 0.000000
vt 0.962854 0.962435 0.000000
vt 0.958132 0.957112 0.000000
vt 0.967942 0.835952 0.000000
vt 0.843612 0.977359 0.000000
vt 0.841920 0.964145 0.000000
vt 0.393245 0.980193 0.000000
vt 0.392742 0.968360 0.000000
vt 0.595105 0.968397 0.000000
vt 0.595911 0.981936 0.000000
vt 0.154537 0.977720 0.000000
vt 0.156357 0.964589 0.000000
vt 0.392533 0.171912 0.000000
vt 0.391255 0.163982 0.000000
vt 0.598335 0.166390 0.000000
vt 0.597407 0.175436 0.000000
vt 0.169383 0.601562 0.000000
vt 0.160941 0.602180 0.000000
vt 0.160847 0.394469 0.000000
vt 0.169800 0.395757 0.000000
vt 0.595584 0.825032 0.000000
vt 0.595798 0.838440 0.000000
vt 0.392033 0.837188 0.000000
vt 0.394063 0.824690 0.000000
vt 0.824726 0.398518 0.000000
vt 0.838375 0.398050 0.000000
vt 0.837443 0.607764 0.000000
vt 0.824445 0.605657 0.000000
vt 0.835636 0.162107 0.000000
vt 0.838652 0.151390 0.000000
vt 0.844833 0.159197 0.000000
vt 0.157617 0.160100 0.000000
vt 0.147535 0.155476 0.000000
vt 0.154368 0.151337 0.000000
vt 0.162525 0.835512 0.000000
vt 0.159779 0.846347 0.000000
vt 0.152033 0.838850 0.000000
vt 0.834011 0.836216 0.000000
vt 0.842879 0.839619 0.000000
vt 0.837717 0.846765 0.000000
vt 0.850336 0.623317 0.000000
vt 0.954490 0.622234 0.000000
vt 0.844465 0.380930 0.000000
vt 0.843358 0.169529 0.000000
vt 0.953726 0.174154 0.000000
vt 0.957131 0.382442 0.000000
vt 0.968149 0.622878 0.000000
vt 0.979319 0.623330 0.000000
vt 0.962566 0.173716 0.000000
vt 0.971797 0.173359 0.000000
vt 0.980996 0.381055 0.000000
vt 0.970158 0.381707 0.000000
vt 0.827318 0.177853 0.000000
vt 0.838793 0.172990 0.000000
vt 0.833676 0.381436 0.000000
vt 0.825543 0.383537 0.000000
vt 0.835802 0.621171 0.000000
vt 0.838882 0.831483 0.000000
vt 0.831626 0.825392 0.000000
vt 0.824296 0.618464 0.000000
vt 0.988119 0.389425 0.000000
vt 0.986343 0.614928 0.000000
vt 0.967496 0.615575 0.000000
vt 0.955005 0.615757 0.000000
vt 0.847825 0.617397 0.000000
vt 0.835735 0.615932 0.000000
vt 0.816614 0.612092 0.000000
vt 0.818420 0.392445 0.000000
vt 0.837844 0.390604 0.000000
vt 0.849950 0.388624 0.000000
vt 0.957099 0.389083 0.000000
vt 0.969370 0.389177 0.000000
vt 0.977258 0.164631 0.000000
vt 0.820498 0.174205 0.000000
vt 0.951890 0.165864 0.000000
vt 0.961341 0.165594 0.000000
vt 0.960507 0.036709 0.000000
vt 0.833583 0.044453 0.000000
vt 0.832991 0.032251 0.000000
vt 0.833290 0.013550 0.000000
vt 0.964238 0.964187 0.000000
vt 0.835885 0.984422 0.000000
vt 0.833834 0.965741 0.000000
vt 0.833078 0.953412 0.000000
vt 0.826886 0.825267 0.000000
vt 0.989166 0.838459 0.000000
vt 0.171026 0.954963 0.000000
vt 0.166839 0.848429 0.000000
vt 0.383524 0.848121 0.000000
vt 0.384544 0.956390 0.000000
vt 0.619170 0.848679 0.000000
vt 0.830584 0.848950 0.000000
vt 0.826658 0.954945 0.000000
vt 0.618447 0.956312 0.000000
vt 0.170963 0.978498 0.000000
vt 0.171267 0.967809 0.000000
vt 0.384653 0.968174 0.000000
vt 0.384761 0.979796 0.000000
vt 0.826727 0.967511 0.000000
vt 0.826931 0.978147 0.000000
vt 0.619048 0.977720 0.000000
vt 0.618727 0.967195 0.000000
vt 0.821741 0.831078 0.000000
vt 0.827210 0.839653 0.000000
vt 0.617534 0.837721 0.000000
vt 0.614684 0.827657 0.000000
vt 0.384875 0.836370 0.000000
vt 0.169560 0.838706 0.000000
vt 0.174538 0.830159 0.000000
vt 0.387462 0.824365 0.000000
vt 0.823530 0.045519 0.000000
vt 0.828393 0.147708 0.000000
vt 0.618895 0.148926 0.000000
vt 0.616828 0.043969 0.000000
vt 0.370275 0.147281 0.000000
vt 0.372124 0.042545 0.000000
vt 0.824494 0.019229 0.000000
vt 0.824537 0.032231 0.000000
vt 0.615698 0.029990 0.000000
vt 0.616256 0.016581 0.000000
vt 0.373727 0.015137 0.000000
vt 0.373725 0.028561 0.000000
vt 0.169985 0.167822 0.000000
vt 0.163947 0.156140 0.000000
vt 0.372980 0.161954 0.000000
vt 0.376785 0.175319 0.000000
vt 0.616817 0.164285 0.000000
vt 0.827284 0.157455 0.000000
vt 0.820517 0.169472 0.000000
vt 0.613489 0.178043 0.000000
vt 0.041528 0.170151 0.000000
vt 0.143406 0.165572 0.000000
vt 0.144679 0.375135 0.000000
vt 0.040334 0.376699 0.000000
vt 0.149665 0.620728 0.000000
vt 0.149341 0.831867 0.000000
vt 0.043913 0.827318 0.000000
vt 0.041906 0.619081 0.000000
vt 0.015240 0.168970 0.000000
vt 0.028249 0.168928 0.000000
vt 0.026646 0.377826 0.000000
vt 0.013328 0.377290 0.000000
vt 0.031530 0.827036 0.000000
vt 0.020710 0.827128 0.000000
vt 0.021953 0.619309 0.000000
vt 0.031622 0.619122 0.000000
vt 0.167107 0.823539 0.000000
vt 0.158550 0.828886 0.000000
vt 0.160629 0.619488 0.000000
vt 0.170420 0.616563 0.000000
vt 0.159320 0.377480 0.000000
vt 0.152831 0.167301 0.000000
vt 0.165005 0.173603 0.000000
vt 0.172521 0.380656 0.000000
vt 0.610591 0.985259 0.000000
vt 0.610569 0.967581 0.000000
vt 0.610453 0.956605 0.000000
vt 0.611312 0.848983 0.000000
vt 0.610395 0.838390 0.000000
vt 0.607769 0.820864 0.000000
vt 0.172640 0.824890 0.000000
vt 0.388140 0.815716 0.000000
vt 0.394238 0.821566 0.000000
vt 0.597550 0.824269 0.000000
vt 0.597709 0.982571 0.000000
vt 0.393763 0.982529 0.000000
vt 0.385956 0.988144 0.000000
vt 0.162034 0.984755 0.000000
vt 0.164285 0.966063 0.000000
vt 0.164870 0.953586 0.000000
vt 0.033951 0.964164 0.000000
vt 0.014204 0.835874 0.000000
vt 0.032837 0.833969 0.000000
vt 0.045070 0.833461 0.000000
vt 0.015561 0.610973 0.000000
vt 0.031595 0.610812 0.000000
vt 0.041350 0.610691 0.000000
vt 0.148551 0.613322 0.000000
vt 0.159240 0.613038 0.000000
vt 0.176870 0.609379 0.000000
vt 0.007173 0.385995 0.000000
vt 0.026005 0.386696 0.000000
vt 0.038433 0.387042 0.000000
vt 0.145966 0.384722 0.000000
vt 0.158905 0.384287 0.000000
vt 0.178500 0.388149 0.000000
vt 0.040596 0.160048 0.000000
vt 0.169380 0.172637 0.000000
vt 0.009603 0.160019 0.000000
vt 0.028352 0.160356 0.000000
vt 0.033107 0.032547 0.000000
vt 0.158531 0.006099 0.000000
vt 0.382539 0.009030 0.000000
vt 0.382822 0.027878 0.000000
vt 0.382949 0.040336 0.000000
vt 0.380119 0.148124 0.000000
vt 0.379346 0.161494 0.000000
vt 0.384107 0.181452 0.000000
vt 0.607692 0.010224 0.000000
vt 0.606783 0.029060 0.000000
vt 0.606369 0.041639 0.000000
vt 0.609419 0.149923 0.000000
vt 0.610280 0.163968 0.000000
vt 0.605962 0.184825 0.000000
# 268 texture coords

g Floor_5x5_OutlineA
s 1
f 1/1/1 2/2/2 3/3/3 4/4/4 
f 5/5/5 6/6/6 7/7/7 8/8/8 
f 9/9/9 10/10/10 11/11/11 12/12/12 
f 13/13/13 14/14/14 15/15/15 16/16/16 
f 17/17/17 18/18/18 19/19/19 20/20/20 
f 21/21/21 20/20/20 19/19/19 
f 22/22/22 23/23/23 24/24/24 25/25/25 
f 26/26/26 25/25/25 24/24/24 
f 27/27/27 28/28/28 29/29/29 30/30/30 
f 31/31/31 30/30/30 29/29/29 
f 32/32/32 33/33/33 34/34/34 35/35/35 
f 36/36/36 35/35/35 34/34/34 
f 37/37/37 38/38/38 39/39/39 40/40/40 
f 41/41/41 42/42/42 43/43/43 44/44/44 
f 45/45/45 46/46/46 47/47/47 48/48/48 
f 46/46/46 49/49/49 50/50/50 47/47/47 
f 51/51/51 52/52/52 53/53/53 54/54/54 
f 55/55/55 56/56/56 57/57/57 58/58/58 
f 56/56/56 59/59/59 60/60/60 57/57/57 
f 61/61/61 62/62/62 63/63/63 64/64/64 
f 65/65/65 66/66/66 67/67/67 68/68/68 
f 66/66/66 69/69/69 70/70/70 67/67/67 
f 71/71/71 72/72/72 73/73/73 74/74/74 
f 75/75/75 37/37/37 40/40/40 76/76/76 
f 77/77/77 78/78/78 79/79/79 80/80/80 
f 81/81/81 82/82/82 83/83/83 84/84/84 
f 85/85/85 86/86/86 87/87/87 88/88/88 
f 89/89/89 90/90/90 91/91/91 92/92/92 
f 93/93/93 94/94/94 95/95/95 
f 96/96/96 97/97/97 98/98/98 
f 99/99/99 100/100/100 101/101/101 
f 102/102/102 103/103/103 104/104/104 
f 30/30/30 40/40/40 39/39/39 27/27/27 
f 42/42/42 13/13/13 16/16/16 43/43/43 
f 22/22/22 48/48/48 47/47/47 23/23/23 
f 23/23/23 47/47/47 50/50/50 24/24/24 
f 52/52/52 1/1/1 4/4/4 53/53/53 
f 21/21/21 58/58/58 57/57/57 20/20/20 
f 20/20/20 57/57/57 60/60/60 17/17/17 
f 62/62/62 9/9/9 12/12/12 63/63/63 
f 32/32/32 68/68/68 67/67/67 33/33/33 
f 33/33/33 67/67/67 70/70/70 34/34/34 
f 72/72/72 5/5/5 8/8/8 73/73/73 
f 31/31/31 76/76/76 40/40/40 30/30/30 
f 78/78/78 3/3/3 2/2/2 79/79/79 
f 82/82/82 15/15/15 14/14/14 83/83/83 
f 86/86/86 7/7/7 6/6/6 87/87/87 
f 90/90/90 11/11/11 10/10/10 91/91/91 
f 32/32/32 35/35/35 105/105/105 106/106/106 
f 107/107/107 108/108/108 109/109/109 110/110/110 
f 65/65/65 68/68/68 111/111/111 112/112/112 
f 113/113/113 114/114/114 115/115/115 116/116/116 
f 117/117/117 118/118/118 119/119/119 120/120/120 
f 121/121/121 122/122/122 123/123/123 124/124/124 
f 68/68/68 32/32/32 106/106/106 111/111/111 
f 109/109/109 113/113/113 116/116/116 110/110/110 
f 118/118/118 108/108/108 107/107/107 119/119/119 
f 105/105/105 35/35/35 122/122/122 121/121/121 
f 125/125/125 126/126/126 61/61/61 64/64/64 
f 126/126/126 127/127/127 62/62/62 61/61/61 
f 127/127/127 128/128/128 9/9/9 62/62/62 
f 128/128/128 129/129/129 10/10/10 9/9/9 
f 129/129/129 130/130/130 91/91/91 10/10/10 
f 130/130/130 131/131/131 92/92/92 91/91/91 
f 131/131/131 132/132/132 89/89/89 92/92/92 
f 132/132/132 133/133/133 90/90/90 89/89/89 
f 133/133/133 134/134/134 11/11/11 90/90/90 
f 134/134/134 135/135/135 12/12/12 11/11/11 
f 135/135/135 136/136/136 63/63/63 12/12/12 
f 136/136/136 125/125/125 64/64/64 63/63/63 
f 137/137/137 125/125/125 115/115/115 114/114/114 
f 125/125/125 136/136/136 116/116/116 115/115/115 
f 136/136/136 135/135/135 110/110/110 116/116/116 
f 135/135/135 134/134/134 107/107/107 110/110/110 
f 134/134/134 133/133/133 119/119/119 107/107/107 
f 133/133/133 132/132/132 120/120/120 119/119/119 
f 132/132/132 138/138/138 117/117/117 120/120/120 
f 138/138/138 93/93/93 118/118/118 117/117/117 
f 93/93/93 95/95/95 108/108/108 118/118/118 
f 95/95/95 139/139/139 109/109/109 108/108/108 
f 139/139/139 140/140/140 113/113/113 109/109/109 
f 140/140/140 137/137/137 114/114/114 113/113/113 
f 141/141/141 137/137/137 59/59/59 56/56/56 
f 137/137/137 140/140/140 60/60/60 59/59/59 
f 140/140/140 139/139/139 17/17/17 60/60/60 
f 139/139/139 95/95/95 18/18/18 17/17/17 
f 95/95/95 94/94/94 19/19/19 18/18/18 
f 94/94/94 142/142/142 21/21/21 19/19/19 
f 142/142/142 143/143/143 58/58/58 21/21/21 
f 143/143/143 144/144/144 55/55/55 58/58/58 
f 144/144/144 141/141/141 56/56/56 55/55/55 
f 145/145/145 146/146/146 69/69/69 66/66/66 
f 146/146/146 147/147/147 70/70/70 69/69/69 
f 147/147/147 148/148/148 34/34/34 70/70/70 
f 148/148/148 104/104/104 36/36/36 34/34/34 
f 104/104/104 103/103/103 35/35/35 36/36/36 
f 103/103/103 102/102/102 122/122/122 35/35/35 
f 102/102/102 149/149/149 123/123/123 122/122/122 
f 149/149/149 131/131/131 124/124/124 123/123/123 
f 131/131/131 130/130/130 121/121/121 124/124/124 
f 130/130/130 129/129/129 105/105/105 121/121/121 
f 129/129/129 128/128/128 106/106/106 105/105/105 
f 128/128/128 127/127/127 111/111/111 106/106/106 
f 127/127/127 126/126/126 112/112/112 111/111/111 
f 126/126/126 150/150/150 65/65/65 112/112/112 
f 150/150/150 145/145/145 66/66/66 65/65/65 
f 151/151/151 152/152/152 153/153/153 154/154/154 
f 155/155/155 156/156/156 157/157/157 158/158/158 
f 159/159/159 160/160/160 161/161/161 162/162/162 
f 163/163/163 164/164/164 165/165/165 166/166/166 
f 167/167/167 168/168/168 169/169/169 170/170/170 
f 171/171/171 172/172/172 173/173/173 174/174/174 
f 160/160/160 151/151/151 154/154/154 161/161/161 
f 157/157/157 163/163/163 166/166/166 158/158/158 
f 168/168/168 156/156/156 155/155/155 169/169/169 
f 153/153/153 152/152/152 172/172/172 171/171/171 
f 175/175/175 176/176/176 177/177/177 178/178/178 
f 179/179/179 26/26/26 24/24/24 180/180/180 
f 181/181/181 182/182/182 183/183/183 184/184/184 
f 50/50/50 49/49/49 185/185/185 186/186/186 
f 187/187/187 188/188/188 189/189/189 190/190/190 
f 191/191/191 192/192/192 193/193/193 194/194/194 
f 182/182/182 175/175/175 178/178/178 183/183/183 
f 24/24/24 50/50/50 186/186/186 180/180/180 
f 188/188/188 26/26/26 179/179/179 189/189/189 
f 177/177/177 176/176/176 192/192/192 191/191/191 
f 195/195/195 196/196/196 197/197/197 198/198/198 
f 199/199/199 200/200/200 201/201/201 202/202/202 
f 203/203/203 204/204/204 205/205/205 206/206/206 
f 207/207/207 208/208/208 209/209/209 210/210/210 
f 211/211/211 212/212/212 213/213/213 214/214/214 
f 215/215/215 216/216/216 217/217/217 218/218/218 
f 204/204/204 195/195/195 198/198/198 205/205/205 
f 201/201/201 207/207/207 210/210/210 202/202/202 
f 212/212/212 200/200/200 199/199/199 213/213/213 
f 197/197/197 196/196/196 216/216/216 215/215/215 
f 146/146/146 219/219/219 165/165/165 164/164/164 
f 219/219/219 220/220/220 166/166/166 165/165/165 
f 220/220/220 221/221/221 158/158/158 166/166/166 
f 221/221/221 222/222/222 155/155/155 158/158/158 
f 222/222/222 223/223/223 169/169/169 155/155/155 
f 223/223/223 224/224/224 170/170/170 169/169/169 
f 224/224/224 149/149/149 167/167/167 170/170/170 
f 149/149/149 102/102/102 168/168/168 167/167/167 
f 102/102/102 104/104/104 156/156/156 168/168/168 
f 104/104/104 148/148/148 157/157/157 156/156/156 
f 148/148/148 147/147/147 163/163/163 157/157/157 
f 147/147/147 146/146/146 164/164/164 163/163/163 
f 225/225/225 226/226/226 174/174/174 173/173/173 
f 227/227/227 228/228/228 85/85/85 88/88/88 
f 229/229/229 230/230/230 71/71/71 74/74/74 
f 231/231/231 232/232/232 159/159/159 162/162/162 
f 232/232/232 233/233/233 160/160/160 159/159/159 
f 233/233/233 234/234/234 151/151/151 160/160/160 
f 234/234/234 100/100/100 152/152/152 151/151/151 
f 100/100/100 99/99/99 172/172/172 152/152/152 
f 99/99/99 225/225/225 173/173/173 172/172/172 
f 235/235/235 236/236/236 38/38/38 37/37/37 
f 236/236/236 237/237/237 39/39/39 38/38/38 
f 237/237/237 238/238/238 27/27/27 39/39/39 
f 238/238/238 101/101/101 28/28/28 27/27/27 
f 101/101/101 100/100/100 29/29/29 28/28/28 
f 100/100/100 234/234/234 31/31/31 29/29/29 
f 234/234/234 233/233/233 76/76/76 31/31/31 
f 233/233/233 232/232/232 75/75/75 76/76/76 
f 232/232/232 235/235/235 37/37/37 75/75/75 
f 236/236/236 239/239/239 209/209/209 208/208/208 
f 239/239/239 240/240/240 210/210/210 209/209/209 
f 240/240/240 241/241/241 202/202/202 210/210/210 
f 241/241/241 242/242/242 199/199/199 202/202/202 
f 242/242/242 243/243/243 213/213/213 199/199/199 
f 243/243/243 244/244/244 214/214/214 213/213/213 
f 244/244/244 225/225/225 211/211/211 214/214/214 
f 225/225/225 99/99/99 212/212/212 211/211/211 
f 99/99/99 101/101/101 200/200/200 212/212/212 
f 101/101/101 238/238/238 201/201/201 200/200/200 
f 238/238/238 237/237/237 207/207/207 201/201/201 
f 237/237/237 236/236/236 208/208/208 207/207/207 
f 239/239/239 245/245/245 41/41/41 44/44/44 
f 245/245/245 246/246/246 42/42/42 41/41/41 
f 246/246/246 247/247/247 13/13/13 42/42/42 
f 247/247/247 248/248/248 14/14/14 13/13/13 
f 248/248/248 249/249/249 83/83/83 14/14/14 
f 249/249/249 250/250/250 84/84/84 83/83/83 
f 250/250/250 244/244/244 81/81/81 84/84/84 
f 244/244/244 243/243/243 82/82/82 81/81/81 
f 243/243/243 242/242/242 15/15/15 82/82/82 
f 242/242/242 241/241/241 16/16/16 15/15/15 
f 241/241/241 240/240/240 43/43/43 16/16/16 
f 240/240/240 239/239/239 44/44/44 43/43/43 
f 251/251/251 97/97/97 196/196/196 195/195/195 
f 97/97/97 96/96/96 216/216/216 196/196/196 
f 96/96/96 252/252/252 217/217/217 216/216/216 
f 252/252/252 250/250/250 218/218/218 217/217/217 
f 250/250/250 249/249/249 215/215/215 218/218/218 
f 249/249/249 248/248/248 197/197/197 215/215/215 
f 248/248/248 247/247/247 198/198/198 197/197/197 
f 247/247/247 246/246/246 205/205/205 198/198/198 
f 246/246/246 245/245/245 206/206/206 205/205/205 
f 245/245/245 253/253/253 203/203/203 206/206/206 
f 253/253/253 254/254/254 204/204/204 203/203/203 
f 254/254/254 251/251/251 195/195/195 204/204/204 
f 255/255/255 256/256/256 49/49/49 46/46/46 
f 256/256/256 257/257/257 185/185/185 49/49/49 
f 257/257/257 258/258/258 186/186/186 185/185/185 
f 258/258/258 259/259/259 180/180/180 186/186/186 
f 259/259/259 260/260/260 179/179/179 180/180/180 
f 260/260/260 261/261/261 189/189/189 179/179/179 
f 261/261/261 262/262/262 190/190/190 189/189/189 
f 262/262/262 252/252/252 187/187/187 190/190/190 
f 252/252/252 96/96/96 188/188/188 187/187/187 
f 96/96/96 98/98/98 26/26/26 188/188/188 
f 98/98/98 97/97/97 25/25/25 26/26/26 
f 97/97/97 251/251/251 22/22/22 25/25/25 
f 251/251/251 254/254/254 48/48/48 22/22/22 
f 254/254/254 253/253/253 45/45/45 48/48/48 
f 253/253/253 255/255/255 46/46/46 45/45/45 
f 257/257/257 263/263/263 51/51/51 54/54/54 
f 263/263/263 264/264/264 52/52/52 51/51/51 
f 264/264/264 265/265/265 1/1/1 52/52/52 
f 265/265/265 266/266/266 2/2/2 1/1/1 
f 266/266/266 267/267/267 79/79/79 2/2/2 
f 267/267/267 268/268/268 80/80/80 79/79/79 
f 268/268/268 262/262/262 77/77/77 80/80/80 
f 262/262/262 261/261/261 78/78/78 77/77/77 
f 261/261/261 260/260/260 3/3/3 78/78/78 
f 260/260/260 259/259/259 4/4/4 3/3/3 
f 259/259/259 258/258/258 53/53/53 4/4/4 
f 258/258/258 257/257/257 54/54/54 53/53/53 
f 138/138/138 268/268/268 194/194/194 193/193/193 
f 268/268/268 267/267/267 191/191/191 194/194/194 
f 267/267/267 266/266/266 177/177/177 191/191/191 
f 266/266/266 265/265/265 178/178/178 177/177/177 
f 265/265/265 264/264/264 183/183/183 178/178/178 
f 264/264/264 263/263/263 184/184/184 183/183/183 
f 263/263/263 144/144/144 181/181/181 184/184/184 
f 144/144/144 143/143/143 182/182/182 181/181/181 
f 143/143/143 142/142/142 175/175/175 182/182/182 
f 142/142/142 94/94/94 176/176/176 175/175/175 
f 94/94/94 93/93/93 192/192/192 176/176/176 
f 93/93/93 138/138/138 193/193/193 192/192/192 
f 219/219/219 231/231/231 230/230/230 229/229/229 
f 231/231/231 162/162/162 71/71/71 230/230/230 
f 162/162/162 161/161/161 72/72/72 71/71/71 
f 161/161/161 154/154/154 5/5/5 72/72/72 
f 154/154/154 153/153/153 6/6/6 5/5/5 
f 153/153/153 171/171/171 87/87/87 6/6/6 
f 171/171/171 174/174/174 88/88/88 87/87/87 
f 174/174/174 226/226/226 227/227/227 88/88/88 
f 226/226/226 224/224/224 228/228/228 227/227/227 
f 224/224/224 85/85/85 228/228/228 
f 224/224/224 223/223/223 86/86/86 85/85/85 
f 223/223/223 222/222/222 7/7/7 86/86/86 
f 222/222/222 221/221/221 8/8/8 7/7/7 
f 221/221/221 220/220/220 73/73/73 8/8/8 
f 220/220/220 219/219/219 74/74/74 73/73/73 
f 219/219/219 229/229/229 74/74/74 
# 247 polygons - 10 triangles

