# 3ds Max Wavefront OBJ Exporter v0.97b - (c)2007 guruware
# File Created: 01.05.2015 23:30:56

#
# object Floor_5x5_CornerA
#

v  -250.000000 -0.021415 -250.000000
v  1.218719 -3.364762 -83.406982
v  -7.717376 -2.336918 -66.085518
v  -34.282722 -3.616126 -60.713341
v  -55.555710 -7.526978 -39.982346
v  -74.654205 -7.421595 -13.428754
v  -101.920639 -4.347430 -12.996611
v  -133.046005 0.516486 -12.906672
v  -151.035645 -0.088065 -3.578314
v  1.208717 -0.021415 -250.000000
v  11.612931 -0.603806 -203.599197
v  13.421395 -0.639349 -176.054108
v  -5.518823 -0.118129 -158.263077
v  -17.299398 -0.668435 -138.914505
v  -8.457144 -1.841883 -120.447754
v  0.849388 -3.938293 -104.767548
v  -171.843796 -0.589436 -0.501468
v  -198.233490 -0.320809 -13.919496
v  -216.705338 -0.271597 -14.276334
v  -227.832794 -0.043324 -3.688889
v  -235.749619 -0.379328 12.573089
v  -250.000000 -0.021416 23.051414
v  -171.098755 -7.522947 6.617393
v  -149.684113 -7.213891 3.350830
v  -130.365341 -5.507350 -3.652107
v  -73.940163 -10.991349 -11.603384
v  -54.141014 -9.369806 -39.177280
v  -101.275032 -10.183205 -8.425129
v  -199.733368 -7.569281 -7.375422
v  -8.478984 -6.869061 -66.383301
v  2.470171 -5.419178 -84.761826
v  6.314173 -7.635625 -105.382935
v  -4.971067 -7.144603 -120.706528
v  -33.130165 -8.560069 -60.756489
v  -9.584946 -7.573649 -136.219269
v  21.903479 -7.568657 -172.136627
v  20.945341 -7.573025 -203.571747
v  2.893756 -7.503117 -153.406540
v  4.315155 -7.563664 -250.450500
v  -250.460205 -7.563664 -250.450500
v  -214.842697 -7.568657 -8.756187
v  -222.458908 -7.568657 -0.187990
v  -250.460205 -7.563664 30.527771
v  -231.848587 -7.568657 17.108360
v  -171.194397 -8.726844 6.298799
v  -149.795135 -8.397007 3.037830
v  -130.362137 -8.194548 -3.604510
v  -75.100922 -12.255179 -9.670343
v  -54.215195 -10.427034 -37.875664
v  -100.490288 -9.748189 -6.073071
v  -199.646179 -8.735127 -7.250485
v  -10.931787 -11.455934 -66.110649
v  1.662633 -6.544460 -86.203346
v  6.387409 -8.764627 -106.362656
v  -7.800744 -8.720966 -122.237862
v  -30.207153 -10.829048 -57.213177
v  -9.710068 -8.720966 -136.339554
v  19.792173 -8.727844 -173.471085
v  20.691475 -8.718471 -203.845917
v  2.782236 -8.649404 -153.574341
v  5.415503 -8.712662 -248.894943
v  -214.781036 -8.732632 -8.586103
v  -222.315369 -8.732632 0.034330
v  -248.820663 -8.712662 32.382664
v  -231.903763 -8.732632 17.388487
v  -16.872171 -2.074288 -62.131607
v  -18.929264 -9.434994 -59.372566
v  -18.158115 -10.923292 -57.199432
v  0.729993 -5.401822 -71.903969
v  -2.094812 -10.615300 -74.199074
v  -0.045476 -11.942086 -72.558937
v  -89.006302 -5.946990 -17.454739
v  -87.993629 -8.218951 -15.272075
v  -88.267982 -9.231026 -15.968818
v  -118.165977 -1.660454 -13.567519
v  -117.186684 -6.500997 -10.950297
v  -116.803879 -7.953537 -9.481163
v  -46.560715 -3.585795 -50.030113
v  -46.017529 -9.066797 -51.610233
v  -62.952038 -8.825889 -27.507364
v  -60.285660 -12.832027 -19.463017
v  7.348840 -4.109793 -92.439789
v  10.949930 -7.329336 -93.875679
v  -142.776657 0.447652 -9.297159
v  -139.458389 -6.257780 -0.151005
v  -139.428680 -8.604525 0.669019
v  -59.392773 -13.223722 -20.225315
v  -46.101700 -9.933689 -52.051178
v  10.093979 -7.518763 -93.958214
# 89 vertices

vn 0.001360 0.999990 0.004209
vn 0.000000 0.999921 0.012550
vn 0.002526 0.999994 0.002192
vn 0.004088 0.999652 0.026061
vn 0.025108 0.999685 0.000000
vn 0.013512 0.999909 0.000630
vn -0.021598 0.999765 0.002033
vn 0.017743 0.999841 -0.001974
vn 0.003227 0.979663 -0.200623
vn -0.016349 0.998506 0.052143
vn -0.018894 0.997785 0.063776
vn -0.013975 0.999901 0.001437
vn 0.005395 0.971166 -0.238345
vn 0.015311 0.998316 0.055949
vn 0.180263 0.966439 0.183031
vn 0.105410 0.994362 -0.011567
vn 0.174047 0.969334 0.173492
vn 0.158916 0.974533 0.158215
vn 0.150246 0.978867 0.138726
vn -0.064315 0.987749 -0.142181
vn -0.309010 0.579681 -0.753978
vn 0.247484 0.961639 0.118330
vn 0.082692 0.995683 0.042161
vn 0.022003 0.999513 0.022135
vn 0.011979 0.999034 0.042269
vn 0.153164 0.988180 -0.006420
vn 0.796503 0.440854 -0.413800
vn -0.618097 0.719511 -0.316639
vn -0.141145 0.987923 -0.063920
vn 0.027052 0.999634 -0.000486
vn -0.331358 0.660174 0.674071
vn -0.331403 0.669112 0.665178
vn -0.331398 0.667142 0.667156
vn -0.331343 0.658337 0.675873
vn -0.438204 0.057293 0.897048
vn -0.421166 -0.200616 0.884518
vn -0.422000 -0.193799 0.885640
vn -0.438252 0.063310 0.896620
vn 0.093877 0.707385 0.700567
vn 0.084817 0.718212 0.690636
vn 0.088387 0.713975 0.694570
vn 0.097276 0.703259 0.704247
vn 0.149169 -0.264096 0.952891
vn 0.149227 -0.265957 0.952365
vn 0.149225 -0.265883 0.952385
vn 0.149166 -0.264025 0.952912
vn 0.221667 0.830264 0.511395
vn 0.189525 0.795027 0.576206
vn 0.190401 0.811352 0.552680
vn 0.164274 0.847791 0.504247
vn 0.342576 0.289334 0.893827
vn 0.332887 0.294315 0.895860
vn 0.365746 0.061855 0.928657
vn 0.358046 0.016962 0.933550
vn -0.148561 0.451967 0.879577
vn -0.141887 0.652167 0.744679
vn -0.329081 0.232539 0.915222
vn -0.056809 0.679718 0.731270
vn -0.468484 -0.411286 0.781899
vn -0.006051 0.804658 0.593708
vn 0.442905 0.848051 0.290936
vn 0.448855 0.828899 0.333850
vn 0.578900 0.708238 0.404071
vn 0.613853 0.660271 0.432697
vn 0.604115 0.739956 0.295821
vn 0.581655 0.759610 0.290983
vn 0.872013 0.357630 0.334206
vn 0.875061 0.350087 0.334226
vn 0.024168 0.593258 0.804649
vn 0.049112 0.482713 0.874400
vn 0.042131 0.514913 0.856207
vn 0.018218 0.617818 0.786110
vn -0.037498 0.767818 0.639570
vn -0.071462 0.699921 0.710636
vn 0.016986 0.992039 -0.124783
vn 0.046610 0.979358 -0.196684
vn -0.048367 0.650690 0.757801
vn -0.013836 0.601000 0.799129
vn -0.029847 0.624429 0.780511
vn -0.067016 0.676219 0.733646
vn -0.089990 0.137452 0.986412
vn -0.087452 0.099677 0.991169
vn -0.087580 0.101543 0.990969
vn -0.090112 0.139324 0.986138
vn 0.521149 -0.016176 0.853312
vn 0.391767 0.224920 0.892149
vn 0.456997 0.112585 0.882314
vn 0.575911 -0.149587 0.803710
vn 0.568704 -0.175913 0.803512
vn 0.570843 -0.144633 0.808220
vn 0.576267 0.656191 0.487165
vn 0.502163 0.786174 0.360226
vn 0.927926 0.045752 0.369947
vn 0.886362 -0.460902 -0.043962
vn 0.925565 -0.376842 0.036336
vn 0.855847 0.209462 0.472918
vn 0.903963 -0.425625 -0.041159
vn 0.161394 0.856132 0.490907
vn 0.287507 0.818776 0.496937
vn 0.860459 -0.501394 -0.090629
vn 0.538833 0.804727 -0.249144
vn 0.570878 0.768002 -0.290295
vn 0.559035 0.782256 -0.274874
vn 0.526617 0.817290 -0.233904
vn 0.284949 -0.958524 0.006060
vn 0.212777 -0.976492 0.034496
vn 0.885496 0.296630 -0.357640
vn 0.860182 0.364937 -0.356242
vn 0.742146 0.549246 -0.384120
vn 0.532300 0.821070 -0.206156
vn 0.587564 0.757389 -0.284834
vn 0.734402 0.531918 -0.421565
vn 0.725412 0.446288 -0.524027
vn 0.613392 -0.567017 -0.549766
vn 0.625816 -0.545780 -0.557206
vn 0.710736 0.486788 -0.507831
vn 0.596051 -0.106743 0.795820
vn 0.574501 -0.173660 0.799869
vn 0.639021 0.074498 0.765573
vn 0.649685 0.144945 0.746257
vn 0.205443 0.872277 0.443762
vn 0.535274 -0.423667 0.730745
vn 0.557467 -0.252789 0.790777
vn 0.185493 0.889866 0.416810
vn 0.719901 0.644224 -0.258297
vn 0.692308 0.685669 -0.224874
vn 0.562219 -0.815283 -0.138648
vn 0.986608 -0.093591 -0.133584
vn 0.973800 -0.179953 -0.139036
vn 0.537582 -0.832027 -0.136879
vn 0.436532 0.784392 0.440645
vn 0.475549 0.785249 0.396532
vn 0.460934 0.790197 0.403893
vn 0.436977 0.784081 0.440758
vn 0.685736 -0.220885 0.693525
vn 0.321197 -0.905239 0.278163
vn 0.337321 -0.893830 0.295437
vn 0.691328 -0.170057 0.702244
vn 0.608112 0.793511 -0.023238
vn 0.643480 0.764350 -0.041261
vn 0.630548 0.775379 -0.034590
vn 0.598279 0.801077 -0.018347
vn 0.500629 -0.865548 -0.014028
vn 0.974427 -0.222852 0.028781
vn 0.966756 -0.254240 0.027283
vn 0.488373 -0.872510 -0.014764
vn 0.550756 0.754564 0.356794
vn 0.532720 0.766995 0.357672
vn 0.800522 -0.148673 0.580570
vn 0.799239 -0.162461 0.578639
vn 0.799287 -0.161983 0.578708
vn 0.800565 -0.148181 0.580636
vn 0.847385 0.446329 -0.287627
vn 0.594019 0.794959 -0.123216
vn 0.637721 0.755886 -0.148149
vn 0.872598 0.377884 -0.309478
vn 0.935651 -0.120386 -0.331760
vn 0.856358 0.427034 -0.290333
vn 0.864462 0.408011 -0.293652
vn 0.934720 -0.127788 -0.331616
vn 0.000000 0.059624 -0.998221
vn 0.578815 0.603161 0.548790
vn 0.536827 0.639416 0.550422
vn 0.563178 0.617062 0.549605
vn 0.614208 0.569799 0.545965
vn 0.731319 0.208710 0.649318
vn 0.746074 0.134806 0.652075
vn 0.745131 0.140277 0.651998
vn 0.730095 0.213989 0.648976
vn 0.680613 0.637010 0.361919
vn 0.707839 0.609410 0.357189
vn 0.695171 0.622504 0.359481
vn 0.669779 0.647447 0.363603
vn 0.875986 0.078456 0.475913
vn 0.858237 0.196406 0.474187
vn 0.859222 0.191540 0.474394
vn 0.876506 0.072966 0.475829
vn -0.998144 0.060904 0.000000
vn -0.998144 0.060904 -0.000000
vn 0.458548 0.629274 0.627493
vn 0.483054 0.601371 0.636405
vn 0.471556 0.614673 0.632307
vn 0.450353 0.638239 0.624366
vn 0.264337 0.894435 0.360709
vn 0.656188 0.147019 0.740137
vn 0.644890 0.216995 0.732823
vn 0.247366 0.906278 0.342739
vn -0.052207 0.091388 0.994446
vn -0.098881 -0.031732 0.994593
vn 0.021961 0.279147 0.959997
vn 0.046500 0.339187 0.939569
vn 0.004000 0.840602 0.541638
vn 0.005993 0.844358 0.535745
vn -0.002173 0.828687 0.559708
vn -0.004382 0.824323 0.566103
vn 0.608106 -0.305225 0.732833
vn 0.723400 -0.165605 0.670274
vn 0.456394 -0.445121 0.770437
vn 0.343418 -0.528001 0.776710
vn 0.645091 0.700299 0.305677
vn 0.528887 0.848312 0.025401
vn 0.292334 0.627430 0.721714
vn 0.290032 0.609845 0.737544
vn 0.299885 0.694179 0.654358
vn 0.302786 0.727005 0.616267
vn 0.548357 -0.514232 0.659446
vn 0.529955 -0.573635 0.624572
vn 0.345289 0.649966 0.676993
vn 0.449535 0.493517 0.744553
vn 0.405836 0.080539 0.910390
vn 0.397382 0.016725 0.917501
vn 0.395784 0.651207 0.647521
vn 0.383640 0.704729 0.596806
vn 0.819946 -0.000489 0.572441
vn 0.445441 0.622901 0.643099
vn 0.651968 0.519268 0.552538
vn 0.840392 -0.200862 0.503384
vn 0.490989 0.607111 0.624777
vn 0.486572 0.472939 0.734559
vn 0.753781 0.185854 0.630295
vn 0.731717 -0.003773 0.681598
vn 0.720513 0.500120 0.480355
vn 0.692042 0.586155 0.421308
vn 0.235145 0.770424 0.592582
vn 0.170550 0.703366 0.690065
vn 0.223748 -0.192503 0.955447
vn 0.209482 -0.268407 0.940253
vn 0.482786 0.566368 0.667941
vn 0.481165 0.572919 0.663509
vn 0.433631 -0.361719 0.825302
vn 0.316444 -0.640475 0.699753
vn 0.730134 0.482737 0.483600
vn 0.828146 -0.315916 0.463003
vn 0.320569 -0.830582 0.455378
vn 0.327994 -0.824977 0.460253
vn 0.181454 -0.915368 0.359409
vn 0.169923 -0.920795 0.351089
# 237 vertex normals

vt 0.523664 0.906499 0.805098
vt 0.502875 0.999101 0.842252
vt 0.000920 0.999101 0.842252
vt 0.465893 0.777408 0.800975
vt 0.000920 0.454175 0.842252
vt 0.029394 0.475086 0.819419
vt 0.045213 0.507540 0.840855
vt 0.067448 0.528669 0.826292
vt 0.104358 0.527957 0.823152
vt 0.157088 0.501179 0.806015
vt 0.198666 0.507319 0.838000
vt 0.215169 0.518732 0.872177
vt 0.234613 0.525936 0.876568
vt 0.389451 0.579970 0.363429
vt 0.322611 0.535012 0.464225
vt 0.351289 0.526978 0.370152
vt 0.374672 0.555074 0.280564
vt 0.296806 0.526115 0.566271
vt 0.264345 0.527255 0.737688
vt 0.466747 0.624173 0.711288
vt 0.485039 0.632064 0.694533
vt 0.501918 0.643676 0.499005
vt 0.502895 0.666633 0.628961
vt 0.431957 0.621343 0.612925
vt 0.483561 0.740554 0.726114
vt 0.515144 0.684659 0.581431
vt 0.502157 0.709262 0.592372
vt 0.407424 0.600023 0.614860
vt 0.489432 0.816022 0.836082
vt 0.527278 0.851528 0.802831
vt 0.101360 0.514897 0.360730
vt 0.158577 0.486972 0.363686
vt 0.101535 0.514648 0.286354
vt 0.158386 0.487608 0.286882
vt 0.201367 0.493491 0.383402
vt 0.201145 0.494115 0.307924
vt 0.221800 0.500479 0.444398
vt 0.239969 0.507466 0.492272
vt 0.221859 0.498843 0.294686
vt 0.239975 0.507371 0.320841
vt 0.324634 0.530656 0.319284
vt 0.352715 0.523335 0.142416
vt 0.324086 0.532047 0.254718
vt 0.350396 0.519477 0.061789
vt 0.379999 0.539020 0.024989
vt 0.392277 0.578364 0.245864
vt 0.381784 0.540541 0.000000
vt 0.392129 0.575766 0.178417
vt 0.266302 0.522031 0.428882
vt 0.298096 0.516992 0.193972
vt 0.267067 0.519099 0.336216
vt 0.299664 0.512298 0.221725
vt 0.071170 0.517653 0.360770
vt 0.071293 0.517313 0.286513
vt 0.462636 0.618667 0.241705
vt 0.483517 0.632659 0.405401
vt 0.478616 0.632114 0.112778
vt 0.464177 0.614330 0.146758
vt 0.496274 0.648256 0.166407
vt 0.505396 0.669336 0.497898
vt 0.500369 0.644983 0.081763
vt 0.503782 0.672213 0.426109
vt 0.522340 0.687525 0.376037
vt 0.513077 0.710490 0.356497
vt 0.520629 0.687690 0.363953
vt 0.513223 0.712445 0.284472
vt 0.490527 0.741071 0.387823
vt 0.484873 0.744127 0.287257
vt 0.408509 0.603176 0.265195
vt 0.434260 0.621429 0.297522
vt 0.408341 0.604056 0.209891
vt 0.440101 0.614358 0.152770
vt 0.481308 0.772030 0.360451
vt 0.481058 0.772270 0.287257
vt 0.506242 0.806330 0.364951
vt 0.544227 0.843710 0.360770
vt 0.506019 0.806665 0.291823
vt 0.540008 0.846373 0.286818
vt 0.542312 0.906444 0.360491
vt 0.541805 0.906991 0.287416
vt 0.509082 1.018868 0.361088
vt 0.511281 0.996895 0.287787
vt -0.024189 1.018868 0.361088
vt 0.055951 0.500553 0.360770
vt 0.056238 0.500110 0.286513
vt 0.037189 0.466035 0.360770
vt 0.037079 0.465476 0.286513
vt -0.024189 0.439254 0.361088
vt 0.003276 0.435552 0.287787
# 89 texture coords

g Floor_5x5_CornerA
s 1
f -79/-89/-237 -80/-88/-236 -89/-87/-235 -76/-86/-234 
f -89/-87/-235 -68/-85/-233 -69/-84/-232 -70/-83/-231 
f -89/-87/-235 -70/-83/-231 -71/-82/-230 -76/-86/-234 
f -72/-81/-229 -73/-80/-228 -81/-79/-227 -6/-78/-226 
f -72/-81/-229 -6/-78/-226 -82/-77/-225 -85/-76/-224 
f -18/-75/-223 -84/-74/-222 -10/-73/-221 -85/-76/-224 
f -83/-72/-220 -18/-75/-223 -85/-76/-224 -15/-71/-219 
f -82/-77/-225 -15/-71/-219 -85/-76/-224 
f -71/-82/-230 -72/-81/-229 -85/-76/-224 -76/-86/-234 
f -24/-70/-218 -87/-69/-217 -21/-68/-216 -88/-67/-215 
f -86/-66/-214 -24/-70/-218 -88/-67/-215 -75/-65/-213 
f -8/-64/-212 -74/-63/-211 -75/-65/-213 -88/-67/-215 
f -12/-62/-210 -86/-66/-214 -75/-65/-213 -85/-76/-224 
f -85/-76/-224 -75/-65/-213 -76/-86/-234 
f -79/-89/-237 -76/-86/-234 -77/-61/-209 -78/-60/-208 
s 2
f -73/-80/-207 -72/-81/-206 -61/-59/-205 -67/-58/-204 
s 1
f -39/-57/-203 -45/-56/-202 -67/-58/-201 -61/-59/-200 
s 4
f -81/-79/-199 -73/-80/-198 -67/-58/-197 -66/-55/-196 
s 8
f -45/-56/-195 -44/-54/-194 -66/-55/-193 -67/-58/-192 
s 2
f -6/-78/-191 -5/-53/-190 -65/-52/-189 -82/-77/-188 
s 1
f -5/-53/-187 -4/-51/-186 -43/-50/-185 -65/-52/-184 
s 2
f -84/-74/-183 -18/-75/-182 -17/-49/-181 -64/-48/-180 
f -17/-49/-181 -16/-47/-179 -42/-46/-178 -64/-48/-180 
s 4
f -10/-73/-177 -9/-45/-176 -63/-44/-175 -85/-76/-174 
s 1
f -9/-45/-173 -3/-43/-172 -41/-42/-171 -63/-44/-170 
s 4
f -83/-72/-169 -15/-71/-168 -14/-41/-167 -62/-40/-166 
s 1
f -14/-41/-165 -13/-39/-164 -40/-38/-163 -62/-40/-162 
s 4
f -72/-81/-161 -71/-82/-160 -49/-37/-159 -61/-59/-158 
s 8
f -28/-36/-157 -39/-57/-156 -61/-59/-155 -49/-37/-154 
s 2
f -87/-69/-153 -24/-70/-152 -23/-35/-151 -60/-34/-150 
s 1
f -38/-33/-149 -60/-34/-148 -23/-35/-147 -22/-32/-146 
s 2
f -88/-67/-145 -21/-68/-144 -20/-31/-143 -59/-30/-142 
s 4
f -59/-30/-141 -20/-31/-140 -19/-29/-139 -37/-28/-138 
s 2
f -74/-63/-137 -8/-64/-136 -7/-27/-135 -58/-26/-134 
s 1
f -7/-27/-133 -1/-25/-132 -36/-24/-131 -58/-26/-130 
s 4
f -75/-65/-129 -74/-63/-128 -58/-26/-127 -57/-23/-126 
s 8
f -36/-24/-125 -35/-22/-124 -57/-23/-123 -58/-26/-122 
s 2
f -12/-62/-121 -11/-21/-120 -56/-20/-119 -86/-66/-118 
s 1
f -56/-20/-117 -11/-21/-116 -2/-19/-115 -34/-18/-114 
s 4
f -76/-86/-113 -75/-65/-129 -57/-23/-126 -55/-17/-112 
s 1
f -35/-22/-111 -33/-16/-110 -55/-17/-109 -57/-23/-108 
s 2
f -78/-60/-107 -77/-61/-106 -52/-15/-105 -54/-14/-104 
s 1
f -30/-13/-103 -32/-12/-102 -54/-14/-101 -52/-15/-100 
s 4
f -79/-89/-99 -78/-60/-98 -54/-14/-97 -53/-11/-96 
s 8
f -32/-12/-95 -31/-10/-94 -53/-11/-93 -54/-14/-92 
s 2
f -77/-61/-106 -76/-86/-91 -55/-17/-90 -52/-15/-105 
s 8
f -33/-16/-89 -30/-13/-88 -52/-15/-87 -55/-17/-86 
s 2
f -80/-88/-85 -79/-89/-84 -53/-11/-83 -51/-9/-82 
s 1
f -31/-10/-81 -29/-8/-80 -51/-9/-79 -53/-11/-78 
s 4
f -89/-87/-77 -80/-88/-77 -51/-9/-77 -50/-7/-77 
s 2
f -71/-82/-76 -70/-83/-75 -48/-6/-74 -49/-37/-73 
s 1
f -27/-5/-72 -28/-36/-71 -49/-37/-70 -48/-6/-69 
s 4
f -70/-83/-68 -69/-84/-67 -46/-4/-66 -48/-6/-65 
s 8
f -25/-3/-64 -27/-5/-63 -48/-6/-62 -46/-4/-61 
s 2
f -68/-85/-60 -89/-87/-60 -50/-7/-60 -47/-2/-59 
s 16
f -69/-84/-58 -68/-85/-57 -47/-2/-56 -46/-4/-55 
s 1
f -26/-1/-54 -25/-3/-53 -46/-4/-52 -47/-2/-51 
s 4
f -86/-66/-50 -56/-20/-49 -23/-35/-48 -24/-70/-47 
s 8
f -56/-20/-46 -34/-18/-45 -22/-32/-44 -23/-35/-43 
f -87/-69/-42 -60/-34/-41 -20/-31/-40 -21/-68/-39 
s 1
f -60/-34/-148 -38/-33/-149 -19/-29/-38 -20/-31/-37 
s 8
f -83/-72/-36 -62/-40/-35 -17/-49/-34 -18/-75/-33 
s 1
f -17/-49/-32 -62/-40/-162 -40/-38/-163 -16/-47/-31 
s 2
f -15/-71/-30 -82/-77/-188 -65/-52/-189 -14/-41/-29 
s 8
f -65/-52/-28 -43/-50/-27 -13/-39/-26 -14/-41/-25 
f -12/-62/-24 -85/-76/-23 -63/-44/-22 -11/-21/-21 
s 4
f -84/-74/-20 -64/-48/-19 -9/-45/-176 -10/-73/-177 
s 8
f -88/-67/-18 -59/-30/-17 -7/-27/-16 -8/-64/-15 
s 2
f -81/-79/-14 -66/-55/-13 -5/-53/-190 -6/-78/-191 
s 1
f -66/-55/-12 -44/-54/-11 -4/-51/-186 -5/-53/-187 
s 8
f -64/-48/-10 -42/-46/-9 -3/-43/-8 -9/-45/-7 
f -11/-21/-21 -63/-44/-22 -41/-42/-6 -2/-19/-5 
s 16
f -59/-30/-4 -37/-28/-3 -1/-25/-2 -7/-27/-1 
# 71 polygons - 2 triangles

