# 3ds Max Wavefront OBJ Exporter v0.97b - (c)2007 guruware
# File Created: 01.05.2015 23:31:07

#
# object Floor_5x5_CornerC
#

v  250.000000 -0.021415 250.000000
v  49.009407 -0.335766 123.138924
v  55.125286 -0.213255 109.060585
v  69.633301 -0.238132 99.009216
v  85.967865 -0.253623 91.480934
v  106.996719 -0.259332 89.358406
v  109.522552 -0.157016 77.964943
v  113.051964 -0.326074 69.220978
v  122.989655 0.345932 62.981186
v  133.880402 -3.476346 60.639011
v  138.250076 -4.381684 56.806675
v  141.729843 -3.800224 51.243008
v  148.482605 -0.417161 47.529381
v  157.654999 0.409937 43.029289
v  173.441254 0.079316 41.635117
v  190.020508 -0.298409 41.444595
v  191.071014 -0.234016 33.359924
v  30.632849 -0.453609 145.416733
v  36.707222 -0.438980 170.878952
v  29.111702 -0.379328 189.623032
v  9.145551 -0.379328 198.000717
v  -7.917486 -0.603357 204.675217
v  -12.891287 -0.379329 218.407715
v  -7.460796 -0.486140 233.354828
v  5.877283 -0.322224 242.135757
v  15.763222 -0.021415 250.000000
v  190.857117 -0.463419 22.753832
v  198.586990 -0.536561 18.898640
v  211.201370 -0.438980 18.603401
v  219.277542 -0.361401 22.654530
v  228.958328 -0.379329 19.064993
v  232.514938 -0.379328 7.783868
v  235.954590 -0.277864 0.172081
v  235.246674 -0.379328 -12.708799
v  239.890076 -0.379328 -21.530800
v  250.000000 -0.021415 -24.493340
v  230.015503 -7.568657 -14.454132
v  230.383484 -7.568657 -1.740208
v  226.029083 -7.568657 4.793808
v  224.057556 -7.567857 14.557009
v  213.482483 -7.569281 11.310307
v  196.817978 -7.460123 12.602544
v  185.649673 -7.145441 19.513517
v  183.533752 -5.929798 32.462646
v  185.333450 -7.244957 36.780903
v  171.690903 -5.464728 33.135323
v  156.831833 -7.201855 39.440453
v  146.286194 -6.325738 41.073563
v  137.004822 -7.499733 46.564106
v  137.579605 -8.368914 54.926907
v  130.401566 -7.106248 55.297859
v  109.555862 -7.095029 64.207245
v  100.749603 -3.988676 75.004860
v  120.776939 -6.768492 58.565498
v  104.377655 -7.381567 86.452164
v  83.575279 -9.387949 90.264961
v  66.288399 -6.205044 92.265579
v  45.855244 -5.739023 104.930389
v  45.203327 -8.454687 120.800842
v  21.232346 -7.495018 143.281235
v  31.543093 -7.569281 170.960999
v  25.245213 -7.568657 184.853943
v  -15.384583 -7.568657 199.432556
v  -19.601997 -7.568657 218.383331
v  4.726144 -7.568657 191.820007
v  -14.600190 -7.568657 238.434738
v  4.502004 -7.571675 247.007614
v  13.324839 -7.563664 249.894623
v  249.884903 -7.563664 249.894623
v  219.984802 -7.533442 16.086134
v  249.884903 -7.563664 -30.161963
v  237.263947 -7.568657 -25.948481
v  229.813141 -8.732632 -14.640409
v  230.144867 -8.732632 -1.822297
v  225.777924 -8.732632 4.659194
v  224.011795 -8.731323 14.321520
v  213.498825 -8.735127 11.154699
v  196.984528 -8.605235 12.719675
v  185.815552 -8.376040 19.548079
v  182.736221 -7.993828 32.029015
v  185.240051 -8.429787 36.716049
v  171.549759 -7.707873 33.519680
v  156.761200 -7.997039 38.803841
v  145.844025 -8.482600 39.828812
v  137.107269 -9.006969 46.447170
v  137.010559 -9.660463 54.804996
v  130.236908 -8.649418 54.531811
v  109.220726 -8.384199 63.750198
v  99.825523 -6.984179 74.600891
v  120.298607 -7.737947 57.322506
v  104.261749 -8.544933 86.340279
v  83.352417 -9.428328 90.444351
v  65.356491 -7.734493 90.725006
v  45.657936 -7.821387 104.716782
v  44.768562 -8.938565 120.684196
v  21.644281 -8.690684 143.489929
v  31.472721 -8.735127 170.826828
v  25.059448 -8.732632 184.771011
v  -15.524424 -8.732632 199.333557
v  -19.814804 -8.732632 218.378693
v  4.512816 -8.732632 191.625793
v  -14.775717 -8.732632 238.530396
v  3.968494 -8.713309 247.876495
v  13.136540 -8.712662 248.900391
v  219.946701 -8.703167 15.970516
v  248.974686 -8.712662 -30.931236
v  237.287018 -8.732632 -26.102581
v  41.123528 -0.412398 133.844925
v  28.872400 -4.713706 127.150169
v  29.620367 -8.787445 128.609314
# 110 vertices

vn -0.003041 0.999970 -0.007097
vn 0.000000 0.999269 -0.038222
vn -0.002062 0.999996 -0.002084
vn -0.008076 0.999960 -0.003746
vn -0.035380 0.999374 -0.000000
vn -0.027840 0.999612 -0.001105
vn 0.007868 0.999966 -0.002592
vn -0.013549 0.999883 -0.007131
vn -0.097065 0.994807 -0.030602
vn -0.010766 0.999942 -0.001032
vn -0.000172 0.999993 -0.003672
vn -0.001673 0.999997 -0.001692
vn -0.007819 0.999963 -0.003562
vn -0.003844 0.999766 -0.021305
vn 0.003827 0.999989 -0.002763
vn -0.001312 0.999766 -0.021598
vn 0.003403 0.999891 0.014377
vn 0.023045 0.999448 0.023930
vn 0.026787 0.964774 0.261713
vn -0.100249 0.983222 -0.152394
vn 0.427349 0.129226 0.894804
vn -0.436594 0.827112 -0.353937
vn -0.506641 -0.765383 -0.396867
vn 0.334360 0.882727 0.330146
vn -0.106030 0.992429 -0.061986
vn 0.154914 0.986004 0.061630
vn 0.012515 0.999886 -0.008469
vn 0.000082 0.999998 -0.001881
vn 0.002732 0.999978 0.006019
vn -0.000049 0.999995 0.003212
vn 0.011076 0.999847 0.013512
vn -0.009133 0.999958 -0.000371
vn -0.003612 0.999993 0.000287
vn -0.009539 0.999938 -0.005686
vn -0.002686 0.999992 -0.002901
vn -0.022719 0.999441 -0.024533
vn -0.022328 0.999634 0.015255
vn -0.706490 0.571222 -0.417826
vn -0.755636 0.520413 -0.397724
vn -0.719437 0.558506 -0.412894
vn -0.678323 0.597413 -0.427757
vn -0.843642 0.064193 -0.533056
vn -0.815800 0.226960 -0.531940
vn -0.818054 0.217553 -0.532407
vn -0.844635 0.053775 -0.532635
vn -0.803499 0.594554 0.029897
vn -0.812553 0.581508 0.040076
vn -0.806433 0.590394 0.033162
vn -0.797278 0.603171 0.023076
vn -0.985228 0.168887 0.028320
vn -0.979662 0.199045 0.025353
vn -0.980054 0.197085 0.025547
vn -0.985581 0.166782 0.028526
vn -0.662416 0.661692 -0.351238
vn -0.712941 0.627088 -0.313809
vn -0.647904 0.670623 -0.361227
vn -0.593924 0.700424 -0.395803
vn -0.813654 0.208197 -0.542790
vn -0.805769 0.236653 -0.542892
vn -0.806630 0.233676 -0.542903
vn -0.814430 0.205237 -0.542753
vn -0.723339 0.664842 -0.186455
vn -0.679307 0.701909 -0.214166
vn -0.718687 0.669011 -0.189510
vn -0.768241 0.621066 -0.155185
vn -0.957226 0.216578 -0.191865
vn -0.980939 0.074875 -0.179311
vn -0.979598 0.088084 -0.180633
vn -0.954343 0.228216 -0.192734
vn 0.369492 0.681568 -0.631617
vn 0.334041 0.654299 -0.678461
vn 0.378756 0.688410 -0.618576
vn 0.412837 0.712456 -0.567427
vn 0.591046 0.065087 -0.804008
vn 0.594094 0.114596 -0.796191
vn 0.593863 0.109782 -0.797041
vn 0.590672 0.060294 -0.804656
vn -0.041989 0.690366 -0.722240
vn -0.021943 0.711431 -0.702414
vn -0.034838 0.697986 -0.715264
vn -0.052324 0.679150 -0.732132
vn -0.076734 0.120068 -0.989796
vn -0.094613 -0.114909 -0.988860
vn -0.093824 -0.103020 -0.990244
vn -0.075795 0.130874 -0.988497
vn -0.366541 0.651470 -0.664255
vn -0.321787 0.680690 -0.658115
vn -0.359147 0.656477 -0.663364
vn -0.395084 0.631451 -0.667217
vn -0.522529 -0.157422 -0.837963
vn -0.520705 -0.094020 -0.848544
vn -0.520887 -0.098105 -0.847969
vn -0.522574 -0.161634 -0.837133
vn -0.665391 0.738618 -0.108157
vn -0.789380 0.613900 0.002642
vn -0.696513 0.712722 -0.083046
vn -0.581217 0.795860 -0.169686
vn -0.984064 -0.080284 -0.158661
vn -0.890073 0.392582 -0.231624
vn -0.904660 0.359992 -0.228028
vn -0.979671 -0.136191 -0.147295
vn -0.717922 0.690875 0.085326
vn -0.595974 0.799852 -0.071069
vn -0.791290 0.573562 0.211864
vn -0.852986 0.279682 0.440674
vn -0.871395 0.210571 0.443092
vn -0.879520 0.043393 0.473879
vn -0.879799 0.091649 0.466427
vn -0.866720 0.243432 0.435358
vn 0.170577 0.721628 -0.670937
vn 0.003114 0.555948 -0.831211
vn 0.088544 0.646165 -0.758044
vn 0.253368 0.785547 -0.564554
vn 0.257806 0.011335 -0.966130
vn 0.214815 -0.178059 -0.960286
vn 0.217759 -0.166342 -0.961723
vn 0.261943 0.032147 -0.964548
vn -0.356003 0.515043 -0.779739
vn -0.030246 0.840034 -0.541689
vn -0.151342 0.740741 -0.654522
vn -0.240368 0.557087 -0.794907
vn -0.374236 -0.107157 -0.921122
vn -0.275827 0.615541 -0.738261
vn -0.292398 0.560585 -0.774757
vn -0.373817 -0.133743 -0.917809
vn -0.213909 0.628418 -0.747886
vn -0.072947 0.635098 -0.768979
vn -0.073124 0.611571 -0.787803
vn -0.102828 0.512925 -0.852252
vn -0.443528 0.802977 -0.398134
vn -0.582511 0.688529 -0.431982
vn -0.470264 0.783913 -0.405378
vn -0.324939 0.873498 -0.362514
vn -0.501492 0.469540 -0.726662
vn -0.604494 0.020695 -0.796341
vn -0.597071 0.091581 -0.796943
vn -0.484916 0.509595 -0.710753
vn -0.836191 0.544674 -0.064149
vn -0.470054 0.858679 -0.204252
vn -0.750641 0.651955 -0.107208
vn -0.988453 0.127916 0.081232
vn -0.998095 -0.022835 0.057314
vn -0.915640 0.401460 0.020795
vn -0.935750 0.351729 0.025657
vn -0.995515 -0.072390 0.060899
vn 0.004974 0.749892 -0.661542
vn -0.542823 0.431084 -0.720771
vn -0.186846 0.683058 -0.706060
vn -0.076022 0.656959 -0.750084
vn -0.014805 0.152378 -0.988211
vn 0.100849 0.433720 -0.895386
vn 0.084155 0.394329 -0.915108
vn -0.032344 0.108039 -0.993620
vn -0.395177 0.630732 -0.667842
vn -0.465264 0.566733 -0.679958
vn -0.354062 0.716722 -0.600791
vn -0.416354 0.549839 -0.724104
vn -0.301511 0.783309 -0.543616
vn -0.477095 0.401237 -0.781914
vn -0.418435 0.810553 -0.409775
vn -0.733129 0.606527 -0.307647
vn -0.487035 0.779356 -0.394209
vn -0.231339 0.868440 -0.438515
vn -0.659504 0.383852 -0.646307
vn -0.700683 0.303247 -0.645821
vn -0.697813 0.309338 -0.646040
vn -0.651366 0.398293 -0.645822
vn -0.095968 0.666647 -0.739169
vn -0.180242 0.679298 -0.711384
vn -0.256168 0.493753 -0.831015
vn -0.092141 0.802058 -0.590096
vn -0.785415 0.589515 0.188669
vn -0.377626 0.922881 -0.075429
vn -0.674721 0.730737 0.103800
vn -0.916848 0.194997 0.348377
vn -0.907993 0.220671 0.356164
vn -0.931269 0.058193 0.359656
vn -0.929304 0.083513 0.359750
vn -0.905547 0.231398 0.355584
vn -0.172971 0.229069 -0.957919
vn -0.091713 0.404943 -0.909731
vn -0.116822 0.353153 -0.928243
vn -0.194062 0.179224 -0.964478
vn -0.189571 0.108915 -0.975808
vn -0.002490 -0.974921 -0.222537
vn -0.006415 -0.970203 -0.242208
vn -0.189641 0.112698 -0.975364
vn -0.089657 0.613327 -0.784724
vn -0.407695 0.224610 -0.885062
vn -0.283558 0.400588 -0.871277
vn 0.056696 0.733593 -0.677220
vn -0.211967 -0.838798 -0.501485
vn 0.053921 0.692133 -0.719753
vn 0.052811 0.688350 -0.723453
vn -0.211954 -0.863485 -0.457678
vn -0.297496 0.819358 -0.490050
vn -0.355104 0.780518 -0.514484
vn -0.330102 0.798056 -0.504123
vn -0.279962 0.830105 -0.482231
vn -0.347088 0.736967 -0.580008
vn -0.574008 0.137198 -0.807274
vn -0.567431 0.177930 -0.803967
vn -0.328440 0.762121 -0.557942
vn -0.769541 0.636183 -0.055480
vn -0.441444 0.878193 -0.184129
vn -0.641741 0.758418 -0.113890
vn -0.908640 0.416202 0.033894
vn -0.993384 0.112380 -0.023653
vn -0.744467 0.667639 0.005246
vn -0.776896 0.629622 0.002832
vn -0.995009 0.096773 -0.024313
vn -0.435604 0.884995 -0.164416
vn -0.225094 0.953449 -0.200668
vn -0.375718 0.909870 -0.175988
vn -0.574667 0.807517 -0.132944
vn -0.836568 -0.316596 -0.447125
vn -0.837675 -0.313895 -0.446957
vn -0.820720 -0.353251 -0.449035
vn -0.817583 -0.360102 -0.449315
vn -0.741352 0.619870 0.257213
vn -0.614123 0.775576 0.146062
vn -0.657857 0.730814 0.182030
vn -0.773588 0.563605 0.289675
vn -0.908162 -0.247851 0.337361
vn -0.940869 0.017859 0.338300
vn -0.940870 0.009937 0.338623
vn -0.906698 -0.253547 0.337066
vn -0.740725 0.588858 -0.323376
vn -0.770637 0.554522 -0.314044
vn -0.759065 0.568177 -0.317798
vn -0.723824 0.606958 -0.328148
vn -0.905580 0.105586 -0.410824
vn -0.894940 0.172156 -0.411636
vn -0.895583 0.168772 -0.411640
vn -0.906040 0.101958 -0.410726
vn -0.246214 0.729917 -0.637651
vn -0.252531 0.703508 -0.664308
vn -0.242496 0.717745 -0.652716
vn -0.240108 0.734843 -0.634314
vn -0.329089 0.212127 -0.920164
vn -0.356361 0.121606 -0.926401
vn -0.356054 0.124798 -0.926095
vn -0.326455 0.211847 -0.921167
vn -0.677636 0.712771 -0.181016
vn -0.577244 0.785845 -0.221893
vn -0.636406 0.745307 -0.198760
vn -0.721271 0.673798 -0.160516
vn -0.967002 0.136196 -0.215307
vn -0.960250 0.176422 -0.216320
vn -0.960544 0.174857 -0.216287
vn -0.967249 0.134514 -0.215257
vn -0.299221 0.633977 -0.713120
vn -0.279930 0.655589 -0.701315
vn -0.318951 0.121002 -0.940015
vn -0.319228 0.117943 -0.940310
vn -0.656699 0.730621 0.186921
vn -0.706079 0.658187 0.261232
vn -0.680572 0.698388 0.221529
vn -0.636147 0.755073 0.158686
vn -0.955568 0.173380 0.238387
vn -0.956997 0.163981 0.239304
vn -0.956946 0.164326 0.239271
vn -0.955511 0.173744 0.238351
vn -0.348140 0.628606 0.695452
vn -0.365746 0.757022 0.541430
vn -0.358930 0.697560 0.620145
vn -0.336806 0.568372 0.750676
vn -0.405373 0.162591 0.899576
vn -0.333922 0.664705 0.668329
vn -0.338675 0.648952 0.681293
vn -0.405655 0.135459 0.903933
vn -0.439804 0.323997 0.837615
vn -0.534373 0.538956 0.651132
vn -0.475927 0.399270 0.783631
vn -0.309887 0.086957 0.946788
vn -0.239814 0.561586 0.791903
vn -0.084867 -0.643992 0.760310
vn -0.112301 -0.544814 0.831003
vn -0.235300 0.655865 0.717269
vn 0.000000 -0.013970 0.999902
vn -0.266975 0.636241 -0.723825
vn -0.267219 0.636109 -0.723851
vn -0.266806 0.636332 -0.723806
vn -0.266357 0.636575 -0.723758
vn -0.348399 0.183009 -0.919307
vn -0.373273 0.103286 -0.921954
vn -0.368417 0.119588 -0.921937
vn -0.342968 0.199288 -0.917964
vn 0.999884 -0.015259 -0.000000
vn -0.254937 0.577281 -0.775728
vn -0.247145 0.584579 -0.772779
vn -0.246003 0.618790 -0.746044
vn -0.326165 0.370899 -0.869511
vn -0.246075 0.642364 -0.725820
vn -0.379513 0.114031 -0.918132
vn -0.260323 0.783374 -0.564408
vn -0.707611 0.480830 -0.517774
vn -0.411934 0.712445 -0.568096
vn -0.010288 0.849731 -0.527117
vn -0.431727 -0.355916 -0.828816
vn -0.241121 0.426765 -0.871626
vn -0.272811 0.346896 -0.897350
vn -0.432962 -0.373367 -0.820452
# 303 vertex normals

vt 0.512203 0.016950 0.823062
vt 0.531957 0.001255 0.842252
vt 1.000000 0.001255 0.842252
vt 0.474701 0.064304 0.819419
vt 1.000000 0.549059 0.842252
vt 0.979799 0.543147 0.819419
vt 0.971935 0.499834 0.825892
vt 0.970520 0.525541 0.819419
vt 0.965062 0.484644 0.819419
vt 0.957955 0.462130 0.819419
vt 0.938611 0.454966 0.820563
vt 0.558630 0.121749 0.819419
vt 0.922474 0.463051 0.815613
vt 0.897268 0.462462 0.809388
vt 0.882250 0.433602 0.828689
vt 0.881823 0.454768 0.814054
vt 0.880151 0.417467 0.824581
vt 0.847023 0.417087 0.848679
vt 0.815480 0.414305 0.869771
vt 0.767974 0.379161 0.621842
vt 0.797152 0.405324 0.817005
vt 0.783659 0.397913 0.601180
vt 0.776706 0.386809 0.564085
vt 0.746213 0.374487 0.865687
vt 0.726356 0.362034 0.822816
vt 0.719303 0.344584 0.833602
vt 0.714256 0.321846 0.827074
vt 0.672237 0.317610 0.827438
vt 0.639598 0.302586 0.828427
vt 0.598388 0.254431 0.822198
vt 0.610609 0.282527 0.830014
vt 0.582631 0.233065 0.817309
vt 0.561669 0.209971 0.814680
vt 0.573807 0.159156 0.815613
vt 0.518734 0.105030 0.819419
vt 0.484639 0.091709 0.805127
vt 0.485552 0.034474 0.812605
vt 0.974551 0.551963 0.360770
vt 0.960068 0.529024 0.360770
vt 0.974597 0.552271 0.286513
vt 0.959663 0.529396 0.286513
vt 0.960803 0.503651 0.360770
vt 0.960326 0.503815 0.286513
vt 0.952102 0.490611 0.360770
vt 0.951600 0.490880 0.286513
vt 0.948163 0.471127 0.360821
vt 0.948071 0.471597 0.286596
vt 0.940025 0.468075 0.363016
vt 0.927032 0.477606 0.360730
vt 0.939949 0.468306 0.288393
vt 0.927065 0.477917 0.286354
vt 0.893734 0.475027 0.367694
vt 0.894066 0.474793 0.294640
vt 0.871418 0.461235 0.387769
vt 0.871749 0.461166 0.309262
vt 0.867190 0.435392 0.465322
vt 0.865596 0.436258 0.333646
vt 0.870786 0.426775 0.381420
vt 0.870599 0.426904 0.305833
vt 0.843526 0.434050 0.494992
vt 0.843244 0.433283 0.351888
vt 0.813835 0.421467 0.384170
vt 0.813694 0.422737 0.333441
vt 0.792763 0.418208 0.440063
vt 0.791880 0.420692 0.302464
vt 0.774217 0.407250 0.365167
vt 0.774422 0.407484 0.269011
vt 0.775366 0.390561 0.309717
vt 0.774229 0.390804 0.227321
vt 0.761023 0.389820 0.390270
vt 0.760694 0.391349 0.291822
vt 0.741791 0.383299 0.411817
vt 0.719370 0.372040 0.390985
vt 0.740836 0.385780 0.349970
vt 0.718700 0.372952 0.308742
vt 0.701774 0.350491 0.589158
vt 0.699927 0.351298 0.398057
vt 0.709023 0.327646 0.372705
vt 0.708791 0.327869 0.298487
vt 0.667457 0.320037 0.244707
vt 0.667011 0.319679 0.242131
vt 0.632915 0.316044 0.447763
vt 0.631052 0.319119 0.350190
vt 0.592086 0.290769 0.477493
vt 0.591692 0.291196 0.344647
vt 0.590783 0.259097 0.304245
vt 0.589915 0.259330 0.273375
vt 0.558151 0.246425 0.542904
vt 0.542885 0.214233 0.365468
vt 0.559646 0.243513 0.283016
vt 0.543708 0.213816 0.289189
vt 0.563488 0.158993 0.360730
vt 0.563347 0.159260 0.286354
vt 0.550904 0.131267 0.360770
vt 0.550532 0.131432 0.286513
vt 0.509903 0.117364 0.360770
vt 0.469719 0.102172 0.360770
vt 0.509477 0.117752 0.286513
vt 0.469439 0.102370 0.286513
vt 0.461292 0.064352 0.360770
vt 0.460867 0.064361 0.286513
vt 0.471286 0.024336 0.360770
vt 0.470935 0.024145 0.286513
vt 0.509455 0.007227 0.360577
vt 0.508389 0.005493 0.287746
vt 0.527085 -0.025143 0.361088
vt 0.526709 0.003450 0.287787
vt 1.023959 -0.025143 0.361088
vt 1.023960 0.560372 0.361088
vt 0.997951 0.561907 0.287787
# 110 texture coords

g Floor_5x5_CornerC
s 1
f -86/-110/-303 -85/-109/-302 -110/-108/-301 -88/-107/-300 
f -110/-108/-301 -75/-106/-299 -76/-105/-298 -78/-104/-297 
f -76/-105/-298 -77/-103/-296 -78/-104/-297 
f -78/-104/-297 -79/-102/-295 -80/-101/-294 -110/-108/-301 
f -110/-108/-301 -80/-101/-294 -81/-100/-293 -91/-99/-292 
f -81/-100/-293 -82/-98/-291 -83/-97/-290 -94/-96/-289 
f -83/-97/-290 -84/-95/-288 -94/-96/-289 
f -81/-100/-293 -94/-96/-289 -95/-94/-287 -91/-99/-292 
f -95/-94/-287 -96/-93/-286 -97/-92/-285 -101/-91/-284 
f -97/-92/-285 -98/-90/-283 -99/-89/-282 -101/-91/-284 
f -99/-89/-282 -100/-88/-281 -101/-91/-284 
f -102/-87/-280 -103/-86/-279 -104/-85/-278 -101/-91/-284 
f -101/-91/-284 -104/-85/-278 -105/-84/-277 -95/-94/-287 
f -105/-84/-277 -106/-83/-276 -107/-82/-275 -109/-81/-274 
f -107/-82/-275 -108/-80/-273 -109/-81/-274 
f -3/-79/-272 -93/-78/-271 -92/-77/-270 -109/-81/-274 
f -105/-84/-277 -109/-81/-274 -92/-77/-270 -91/-99/-292 
f -95/-94/-287 -105/-84/-277 -91/-99/-292 
f -90/-76/-269 -89/-75/-268 -88/-107/-300 -91/-99/-292 
f -110/-108/-301 -91/-99/-292 -88/-107/-300 
f -86/-110/-303 -88/-107/-300 -87/-74/-267 
s 2
f -77/-103/-266 -76/-105/-265 -39/-73/-264 -74/-72/-263 
s 1
f -4/-71/-262 -38/-70/-261 -74/-72/-260 -39/-73/-259 
s 4
f -78/-104/-258 -77/-103/-257 -74/-72/-256 -73/-69/-255 
s 8
f -38/-70/-254 -37/-68/-253 -73/-69/-252 -74/-72/-251 
s 2
f -79/-102/-250 -78/-104/-249 -73/-69/-248 -72/-67/-247 
s 1
f -37/-68/-246 -36/-66/-245 -72/-67/-244 -73/-69/-243 
s 4
f -80/-101/-242 -79/-102/-241 -72/-67/-240 -71/-65/-239 
s 8
f -36/-66/-238 -35/-64/-237 -71/-65/-236 -72/-67/-235 
s 2
f -82/-98/-234 -81/-100/-233 -41/-63/-232 -70/-62/-231 
s 1
f -6/-61/-230 -34/-60/-229 -70/-62/-228 -41/-63/-227 
s 4
f -83/-97/-226 -82/-98/-225 -70/-62/-224 -69/-59/-223 
s 8
f -34/-60/-222 -33/-58/-221 -69/-59/-220 -70/-62/-219 
s 2
f -84/-95/-218 -83/-97/-217 -69/-59/-216 -68/-57/-215 
s 1
f -33/-58/-214 -32/-56/-213 -68/-57/-212 -69/-59/-211 
s 4
f -94/-96/-210 -84/-95/-209 -68/-57/-208 -67/-55/-207 
s 8
f -32/-56/-206 -31/-54/-205 -67/-55/-204 -68/-57/-203 
s 2
f -95/-94/-202 -94/-96/-201 -67/-55/-200 -66/-53/-199 
s 1
f -31/-54/-198 -30/-52/-197 -66/-53/-196 -67/-55/-195 
s 4
f -96/-93/-194 -95/-94/-193 -66/-53/-192 -65/-51/-191 
s 8
f -30/-52/-190 -29/-50/-189 -65/-51/-188 -66/-53/-187 
s 2
f -97/-92/-186 -96/-93/-185 -65/-51/-184 -64/-49/-183 
s 1
f -29/-50/-182 -28/-48/-181 -64/-49/-180 -65/-51/-179 
s 2
f -98/-90/-178 -97/-92/-186 -64/-49/-183 -63/-47/-177 
f -28/-48/-176 -27/-46/-175 -63/-47/-177 -64/-49/-183 
s 4
f -99/-89/-174 -98/-90/-173 -63/-47/-172 -62/-45/-171 
s 1
f -27/-46/-170 -26/-44/-169 -62/-45/-168 -63/-47/-167 
s 2
f -100/-88/-166 -99/-89/-165 -62/-45/-164 -61/-43/-163 
s 8
f -26/-44/-162 -25/-42/-161 -61/-43/-160 -62/-45/-159 
s 4
f -101/-91/-158 -100/-88/-157 -61/-43/-156 -60/-41/-155 
s 1
f -25/-42/-154 -24/-40/-153 -60/-41/-152 -61/-43/-151 
s 2
f -103/-86/-150 -102/-87/-149 -57/-39/-148 -59/-38/-147 
f -21/-37/-146 -23/-36/-145 -59/-38/-147 -57/-39/-148 
s 4
f -104/-85/-144 -103/-86/-143 -59/-38/-142 -58/-35/-141 
s 1
f -23/-36/-140 -22/-34/-139 -58/-35/-138 -59/-38/-137 
s 4
f -102/-87/-136 -101/-91/-158 -60/-41/-155 -57/-39/-135 
f -24/-40/-134 -21/-37/-133 -57/-39/-135 -60/-41/-155 
s 2
f -105/-84/-132 -104/-85/-131 -58/-35/-130 -56/-33/-129 
s 8
f -22/-34/-128 -20/-32/-127 -56/-33/-126 -58/-35/-125 
s 4
f -106/-83/-124 -105/-84/-123 -56/-33/-122 -55/-31/-121 
s 1
f -20/-32/-120 -19/-30/-119 -55/-31/-118 -56/-33/-117 
s 2
f -107/-82/-116 -106/-83/-115 -55/-31/-114 -54/-29/-113 
s 8
f -19/-30/-112 -18/-28/-111 -54/-29/-110 -55/-31/-109 
s 4
f -108/-80/-108 -107/-82/-107 -54/-29/-106 -53/-27/-105 
s 1
f -18/-28/-104 -17/-26/-103 -53/-27/-102 -54/-29/-101 
s 2
f -109/-81/-100 -108/-80/-99 -53/-27/-98 -52/-25/-97 
s 8
f -17/-26/-96 -16/-24/-95 -52/-25/-94 -53/-27/-93 
s 2
f -93/-78/-92 -3/-79/-91 -2/-23/-90 -51/-22/-89 
s 1
f -2/-23/-88 -1/-21/-87 -15/-20/-86 -51/-22/-85 
s 4
f -92/-77/-84 -93/-78/-83 -51/-22/-82 -50/-19/-81 
s 8
f -15/-20/-80 -14/-18/-79 -50/-19/-78 -51/-22/-77 
s 2
f -91/-99/-76 -92/-77/-75 -50/-19/-74 -49/-17/-73 
s 1
f -14/-18/-72 -13/-16/-71 -49/-17/-70 -50/-19/-69 
s 4
f -89/-75/-68 -90/-76/-67 -46/-15/-66 -48/-14/-65 
s 8
f -10/-13/-64 -12/-12/-63 -48/-14/-62 -46/-15/-61 
s 2
f -88/-107/-60 -89/-75/-59 -48/-14/-58 -47/-11/-57 
s 1
f -12/-12/-56 -11/-10/-55 -47/-11/-54 -48/-14/-53 
s 4
f -90/-76/-67 -91/-99/-52 -49/-17/-51 -46/-15/-66 
s 8
f -13/-16/-50 -10/-13/-64 -46/-15/-61 -49/-17/-49 
s 4
f -87/-74/-48 -88/-107/-47 -47/-11/-46 -45/-9/-45 
s 8
f -11/-10/-44 -9/-8/-43 -45/-9/-42 -47/-11/-41 
s 2
f -86/-110/-40 -87/-74/-39 -45/-9/-38 -44/-7/-37 
s 1
f -9/-8/-36 -8/-6/-35 -44/-7/-34 -45/-9/-33 
s 4
f -85/-109/-32 -86/-110/-31 -44/-7/-30 -43/-5/-29 
s 8
f -8/-6/-28 -7/-4/-27 -43/-5/-26 -44/-7/-25 
s 2
f -110/-108/-24 -85/-109/-24 -43/-5/-24 -42/-3/-24 
s 16
f -81/-100/-23 -80/-101/-22 -71/-65/-21 -41/-63/-20 
s 32
f -35/-64/-19 -6/-61/-18 -41/-63/-17 -71/-65/-16 
s 4
f -75/-106/-15 -110/-108/-15 -42/-3/-15 -40/-2/-15 
s 8
f -76/-105/-14 -75/-106/-13 -40/-2/-12 -39/-73/-11 
f -5/-1/-10 -4/-71/-9 -39/-73/-11 -40/-2/-12 
s 4
f -3/-79/-8 -109/-81/-7 -52/-25/-6 -2/-23/-5 
s 16
f -2/-23/-4 -52/-25/-3 -16/-24/-2 -1/-21/-1 
# 86 polygons - 7 triangles

