# 3ds Max Wavefront OBJ Exporter v0.97b - (c)2007 guruware
# File Created: 01.05.2015 23:31:15

#
# object Floor_5x5_CornerD
#

v  -250.000000 -0.021415 250.000000
v  -168.818939 -0.578091 5.549124
v  -198.077347 -0.504798 -10.890339
v  -216.571625 -0.584380 -10.492674
v  -227.057434 -0.187474 -1.962270
v  -235.303070 -0.379329 12.615736
v  -250.000000 -0.021415 23.051414
v  -139.513611 -0.841814 23.793341
v  -118.923683 -0.498589 46.660580
v  -110.494476 -0.977159 63.062656
v  -100.147606 -0.602887 68.141190
v  -86.480751 -0.597480 70.078331
v  -76.247963 -1.008096 77.600891
v  -65.988075 -1.207112 90.989876
v  -74.150597 -0.596672 102.745354
v  -75.438812 -0.422982 114.533241
v  -62.843086 -0.445412 113.293480
v  -47.084053 -0.219152 106.992180
v  -26.765276 -0.660460 112.984795
v  -12.468198 -0.461076 115.590073
v  -9.360120 -0.262765 128.075821
v  -9.251392 -0.362632 144.893555
v  2.361498 -0.682201 148.175110
v  18.212921 -0.905069 149.077789
v  32.560051 -0.438980 171.630493
v  23.847549 -0.379328 188.268738
v  5.515203 -0.379328 196.529663
v  -10.806189 -0.447934 203.962753
v  -15.110540 -0.379328 218.402847
v  -9.717571 -0.417624 234.543747
v  5.182964 -0.345755 242.935623
v  15.763222 -0.021415 250.000000
v  31.994196 -7.568657 192.363953
v  41.945965 -7.569281 171.135941
v  8.607152 -7.568657 201.165298
v  20.035959 -7.210239 144.951385
v  3.519047 -4.636809 136.569870
v  -5.427812 -7.653439 141.734573
v  -6.634976 -7.645414 207.029480
v  -7.710835 -7.385695 111.373169
v  -25.422989 -6.881421 106.693657
v  -4.703889 -7.152779 125.948593
v  -48.036755 -5.158488 98.757164
v  -63.075726 -7.093811 106.746140
v  -69.406883 -6.813675 109.633720
v  -56.683079 -7.087059 90.230019
v  -65.736588 -3.847747 68.260887
v  -84.284462 -7.182536 64.203316
v  -95.711472 -7.445148 62.553692
v  -106.757530 -6.879536 59.537907
v  -65.223602 -5.968137 103.195541
v  -110.400848 -5.243856 42.555195
v  -132.344070 -7.323789 18.395861
v  -165.780197 -7.398770 1.305179
v  -197.536377 -7.569281 -17.048117
v  -219.132660 -7.568657 -18.156193
v  -230.686188 -7.566046 -6.111042
v  -239.013885 -7.568657 9.770794
v  -9.757936 -7.568657 218.265518
v  -250.460205 -7.563664 19.383080
v  -250.460205 -7.563664 249.894623
v  -5.373814 -7.630407 230.779068
v  13.055164 -7.421325 250.628891
v  9.781853 -7.568657 239.344482
v  32.179958 -8.732632 192.446899
v  41.999992 -8.735127 171.251251
v  8.820479 -8.732632 201.359512
v  20.139952 -8.869593 145.679550
v  3.554326 -8.750879 138.879669
v  -5.266656 -8.739384 141.521423
v  -6.600364 -8.782967 206.998459
v  -7.593899 -8.630365 111.313431
v  -25.265871 -8.634179 106.183968
v  -4.598613 -8.329591 125.679207
v  -48.104790 -7.806036 98.638474
v  -62.993843 -8.638852 105.842430
v  -67.830826 -8.286122 107.743706
v  -57.471039 -9.461916 90.255394
v  -67.799255 -8.268822 69.790947
v  -84.355370 -8.742924 64.338799
v  -95.241798 -9.021502 61.630966
v  -105.020523 -8.512602 58.471844
v  -65.159103 -8.663186 102.853516
v  -112.352974 -8.186120 43.519493
v  -132.399002 -9.311406 18.111183
v  -166.050400 -8.724729 1.590990
v  -197.605164 -8.735127 -17.172878
v  -219.194321 -8.732632 -18.326277
v  -230.826523 -8.731340 -6.330561
v  -239.247482 -8.732632 9.644478
v  -9.545130 -8.732632 218.270142
v  -248.820663 -8.712662 18.801487
v  -5.375996 -8.777583 230.865082
v  12.299154 -8.570322 249.123993
v  10.270586 -8.732632 239.418701
v  -128.401077 -0.210702 36.962761
v  -128.227783 -7.519786 35.331356
v  -128.311066 -8.141730 34.991730
v  -34.769154 -0.504147 110.684525
v  -38.064453 -9.989325 109.170906
v  -38.695988 -9.788441 108.860718
v  -115.220299 -0.595688 55.154552
v  -108.900711 -6.803994 53.284225
v  -134.655090 0.441752 29.315495
v  -127.945641 -5.676369 20.773787
v  -107.351021 -8.392859 53.001656
v  -128.479736 -8.731058 21.091179
v  -151.712067 -0.691385 15.655890
v  -147.407623 -7.655934 12.439329
v  -147.653656 -8.922080 12.701036
# 110 vertices

vn 0.012234 0.999925 0.000562
vn 0.024346 0.999704 -0.000000
vn 0.002415 0.999994 -0.002347
vn 0.000598 0.999977 -0.006709
vn 0.000000 0.998948 -0.045864
vn 0.000174 0.999216 -0.039597
vn -0.001086 0.999996 0.002497
vn 0.002244 0.999987 -0.004631
vn -0.009623 0.999871 -0.012848
vn -0.002115 0.999987 -0.004692
vn 0.004336 0.999952 -0.008798
vn 0.016060 0.999870 0.001069
vn 0.015800 0.999404 -0.030706
vn 0.041961 0.997044 -0.064363
vn 0.000814 0.999986 -0.005284
vn -0.024651 0.999694 0.002086
vn -0.011575 0.999848 -0.012999
vn -0.000694 0.999985 -0.005384
vn 0.006434 0.998886 0.046741
vn 0.007063 0.998542 0.053517
vn 0.002633 0.999997 0.000102
vn 0.014032 0.999797 -0.014444
vn 0.045671 0.998753 -0.020152
vn 0.025430 0.999617 -0.010945
vn -0.040913 0.998559 0.034719
vn -0.010051 0.997626 0.068127
vn -0.004066 0.999988 -0.002823
vn 0.002993 0.999993 0.002325
vn -0.190266 0.968876 0.158361
vn 0.033705 0.999426 -0.003271
vn 0.361580 0.905546 -0.221916
vn -0.715095 0.454537 0.531070
vn -0.029814 0.999231 0.025476
vn 0.007461 0.999972 -0.000459
vn -0.004052 0.999924 0.011669
vn 0.008670 0.999961 0.001475
vn 0.089403 0.993960 0.063649
vn 0.272383 0.666849 0.693628
vn 0.314525 0.593977 0.740449
vn 0.296721 0.617271 0.728652
vn 0.257631 0.681891 0.684581
vn 0.339871 0.213653 0.915882
vn 0.353789 0.122541 0.927263
vn 0.353554 0.125187 0.926999
vn 0.339809 0.209993 0.916751
vn 0.579209 0.765884 0.279175
vn 0.549688 0.785241 0.285025
vn 0.563583 0.776313 0.282334
vn 0.590492 0.758090 0.276802
vn 0.892425 0.169349 0.418209
vn 0.904196 0.083335 0.418908
vn 0.903903 0.086325 0.418937
vn 0.891926 0.172142 0.418133
vn 0.349278 0.531288 0.771840
vn 0.331020 0.552198 0.765182
vn 0.358413 -0.004121 0.933554
vn 0.359102 -0.014522 0.933185
vn 0.636296 0.579128 -0.509645
vn 0.550690 0.750271 -0.365833
vn 0.575880 0.710131 -0.405063
vn 0.649707 0.538804 -0.536256
vn 0.766079 -0.034843 -0.641802
vn 0.740202 -0.230751 -0.631550
vn 0.741363 -0.225184 -0.632197
vn 0.766442 -0.027951 -0.641706
vn 0.239056 0.865049 -0.441069
vn 0.055001 0.557858 -0.828112
vn 0.159892 0.749905 -0.641932
vn 0.286377 0.915268 -0.283323
vn 0.371834 -0.371148 -0.850875
vn 0.334159 -0.459236 -0.823067
vn 0.337575 -0.451741 -0.825817
vn 0.379445 -0.351742 -0.855745
vn -0.210263 0.700292 -0.682189
vn 0.113652 0.943826 -0.310283
vn -0.169759 0.746256 -0.643649
vn -0.521331 0.094084 -0.848152
vn -0.320760 -0.430339 -0.843755
vn -0.283734 0.143974 -0.948033
vn -0.304877 -0.018185 -0.952218
vn -0.319216 -0.466025 -0.825180
vn 0.793254 0.566275 0.223786
vn 0.782604 0.578261 0.230534
vn 0.788671 0.571487 0.226717
vn 0.800907 0.557382 0.218798
vn 0.950735 0.165476 0.262146
vn 0.967305 0.022543 0.252611
vn 0.966824 0.032131 0.253414
vn 0.948994 0.174545 0.262572
vn 0.768521 0.614195 -0.179275
vn 0.780829 0.590586 -0.203752
vn 0.774028 0.603967 -0.190011
vn 0.762140 0.625443 -0.167226
vn 0.970416 0.131593 -0.202428
vn 0.973486 0.101302 -0.205094
vn 0.973347 0.102895 -0.204959
vn 0.970238 0.133103 -0.202290
vn 0.181113 0.682768 -0.707832
vn 0.137846 0.582517 -0.801044
vn 0.161650 0.638348 -0.752583
vn 0.196871 0.717823 -0.667811
vn 0.257738 0.085136 -0.962457
vn 0.266626 0.291079 -0.918795
vn 0.266474 0.281696 -0.921759
vn 0.256673 0.070378 -0.963933
vn 0.851161 0.523512 0.038223
vn 0.885071 0.465447 -0.002958
vn 0.872088 0.489160 0.013611
vn 0.835147 0.547205 0.055653
vn 0.989672 0.134540 0.049472
vn 0.995900 0.079011 0.044039
vn 0.995704 0.081331 0.044269
vn 0.989315 0.137057 0.049715
vn 0.612611 0.415631 -0.672279
vn 0.287915 0.052563 -0.956212
vn 0.491316 0.268828 -0.828456
vn 0.711549 0.563199 -0.420124
vn 0.734098 -0.000802 -0.679043
vn -0.161029 -0.945135 -0.284236
vn -0.111989 -0.938524 -0.326544
vn 0.736826 0.011370 -0.675987
vn -0.353837 0.722045 -0.594517
vn -0.206375 0.849457 -0.485626
vn -0.281296 0.791186 -0.543045
vn -0.422014 0.643581 -0.638520
vn -0.471986 0.076677 -0.878265
vn -0.410232 0.444150 -0.796518
vn -0.420668 0.404060 -0.812265
vn -0.473678 0.051586 -0.879186
vn -0.171762 0.596704 -0.783863
vn -0.068597 0.701236 -0.709622
vn -0.280476 0.517991 -0.808096
vn -0.364223 0.370892 -0.854272
vn -0.331624 0.498517 -0.800941
vn -0.230756 0.664881 -0.710411
vn 0.512535 0.810345 0.283987
vn 0.578148 0.775539 0.253542
vn 0.485209 0.809867 0.329679
vn 0.529123 0.801230 0.279393
vn 0.832199 -0.070390 0.549990
vn 0.815506 -0.265082 0.514473
vn 0.819568 -0.239893 0.520345
vn 0.832056 -0.050193 0.552416
vn 0.337265 0.938757 -0.070620
vn 0.478568 0.803181 -0.354785
vn 0.395366 0.900947 -0.178830
vn 0.281656 0.959180 0.025359
vn 0.857248 -0.319579 -0.403728
vn 0.761840 -0.498565 -0.413560
vn 0.771620 -0.483448 -0.413377
vn 0.868221 -0.292353 -0.400902
vn 0.084432 0.839239 -0.537168
vn 0.141410 0.980164 -0.138855
vn 0.105810 0.905320 -0.411339
vn 0.040673 0.672700 -0.738796
vn 0.268610 -0.409168 -0.872027
vn 0.313822 -0.096276 -0.944588
vn 0.309013 -0.145194 -0.939909
vn 0.265618 -0.423638 -0.866013
vn 0.096559 0.672148 -0.734094
vn 0.102497 0.681043 -0.725035
vn 0.098367 0.674867 -0.731354
vn 0.091739 0.664852 -0.741320
vn 0.151796 -0.030641 -0.987937
vn 0.190553 0.537583 -0.821397
vn 0.189675 0.487182 -0.852453
vn 0.144347 -0.092103 -0.985231
vn 0.263428 0.657620 -0.705792
vn 0.288978 0.710929 -0.641149
vn 0.258024 0.600288 -0.757019
vn 0.243094 0.629988 -0.737577
vn 0.248123 0.565135 -0.786802
vn 0.251664 0.702353 -0.665857
vn 0.752488 0.654593 0.072589
vn 0.624440 0.743081 0.240634
vn 0.830784 0.128263 0.541614
vn 0.875554 -0.040146 0.481449
vn 0.867535 0.000124 0.497376
vn 0.816955 0.165226 0.552526
vn 0.572213 0.815980 -0.082152
vn 0.701617 0.712533 0.005511
vn 0.566885 0.819355 -0.085435
vn 0.415215 0.893542 -0.170820
vn 0.771402 0.532681 -0.348122
vn 0.647036 0.689112 -0.326295
vn 0.848059 -0.476210 -0.232422
vn 0.786576 -0.585840 -0.195168
vn 0.219585 0.837715 -0.500016
vn 0.252625 0.869530 -0.424379
vn 0.167010 0.777943 -0.605733
vn 0.112980 0.706616 -0.698520
vn 0.575730 -0.112086 -0.809920
vn 0.611981 -0.186850 -0.768483
vn 0.510471 0.004461 -0.859883
vn 0.438563 0.115528 -0.891244
vn 0.435837 0.588876 -0.680640
vn 0.395023 0.628410 -0.670118
vn 0.402007 0.604329 -0.687878
vn 0.398906 0.605960 -0.688248
vn 0.488409 -0.277612 -0.827278
vn 0.496694 -0.267200 -0.825772
vn 0.496602 -0.267640 -0.825685
vn 0.488466 -0.274525 -0.828274
vn 0.389541 0.619814 -0.681240
vn 0.389305 0.621997 -0.679383
vn 0.510118 0.061708 -0.857888
vn 0.510136 0.054177 -0.858386
vn 0.021306 0.714438 -0.699375
vn -0.019045 0.656126 -0.754411
vn -0.001558 0.682074 -0.731282
vn 0.034887 0.732821 -0.679527
vn 0.051033 0.104575 -0.993207
vn 0.052827 0.141646 -0.988507
vn 0.052767 0.140371 -0.988692
vn 0.050970 0.103294 -0.993344
vn -0.522180 0.650187 -0.551892
vn -0.408493 0.738453 -0.536489
vn -0.480065 0.685502 -0.547380
vn -0.578903 0.596991 -0.555404
vn -0.714222 0.141587 -0.685449
vn -0.701474 0.212622 -0.680240
vn -0.702175 0.209214 -0.680573
vn -0.714756 0.138048 -0.685614
vn -0.736679 0.550426 -0.392855
vn -0.715327 0.575038 -0.397037
vn -0.725094 0.563967 -0.395196
vn -0.745682 0.539579 -0.390912
vn -0.869121 0.192017 -0.455804
vn -0.862468 0.222423 -0.454617
vn -0.862777 0.221095 -0.454678
vn -0.869415 0.190576 -0.455849
vn 0.768113 0.584268 -0.261980
vn 0.764259 0.592806 -0.253946
vn 0.766145 0.588672 -0.257852
vn 0.770514 0.578765 -0.267094
vn 0.943954 -0.015031 -0.329735
vn 0.935728 0.169849 -0.309135
vn 0.937149 0.158821 -0.310688
vn 0.943381 -0.026586 -0.330645
vn -0.558228 0.432903 -0.707797
vn -0.483698 0.526374 -0.699262
vn -0.514691 0.489468 -0.703927
vn -0.594559 0.380726 -0.708200
vn -0.636049 0.169876 -0.752718
vn -0.587563 -0.528070 -0.613116
vn -0.610064 -0.456537 -0.647608
vn -0.629034 0.207540 -0.749162
vn -0.998144 0.060904 -0.000000
vn 0.391645 0.599122 -0.698332
vn 0.391390 0.597265 -0.700063
vn 0.391514 0.598163 -0.699227
vn 0.391764 0.599996 -0.697514
vn 0.486241 0.137778 -0.862894
vn 0.478762 -0.066548 -0.875419
vn 0.479533 -0.057379 -0.875646
vn 0.486055 0.149180 -0.861102
vn -0.002757 0.083404 0.996512
vn 0.000000 -0.013970 0.999902
vn -0.000052 -0.012130 0.999926
vn -0.002822 0.085706 0.996316
vn 0.794219 0.326316 -0.512576
vn 0.540942 -0.265778 -0.797962
vn 0.732057 0.078726 -0.676679
vn 0.765156 0.601437 -0.229804
vn 0.935544 -0.233793 -0.264761
vn 0.908525 0.368972 -0.196067
vn 0.923919 0.323211 -0.204717
vn 0.927662 -0.262424 -0.265664
vn 0.294782 0.684775 -0.666473
vn 0.144948 0.783314 -0.604491
vn 0.544630 0.435147 -0.716955
vn 0.707303 0.169927 -0.686183
vn 0.445156 0.317715 -0.837194
vn 0.378709 -0.505379 -0.775352
vn 0.382751 -0.491781 -0.782082
vn 0.435665 0.385758 -0.813257
vn -0.068435 0.455244 -0.887733
vn 0.205317 0.717462 -0.665652
vn -0.028055 0.500407 -0.865335
vn -0.242119 0.234361 -0.941517
vn 0.012272 0.889761 0.456261
vn -0.245097 0.250388 -0.936607
vn -0.245968 0.273260 -0.929962
vn 0.026471 0.862792 0.504866
vn 0.664022 0.684697 -0.300441
vn 0.669685 0.644420 -0.369113
vn 0.640658 0.719954 -0.266878
vn 0.663976 0.714992 -0.218912
vn 0.824185 0.542461 -0.162647
vn 0.771097 0.156064 -0.617296
vn 0.840008 0.456208 -0.293702
vn 0.736371 0.669292 0.099024
vn 0.586449 0.775790 -0.232866
vn 0.657668 0.718580 -0.226087
vn 0.985197 -0.171368 -0.004394
vn 0.990989 -0.133927 0.002247
vn 0.990441 -0.137929 0.001539
vn 0.984964 -0.172697 -0.004630
vn 0.300020 0.711394 -0.635536
vn 0.225155 0.758383 -0.611686
vn 0.337133 0.104458 -0.935644
vn 0.334476 0.124548 -0.934138
vn 0.360252 -0.225520 -0.905185
vn 0.360386 -0.255464 -0.897140
# 304 vertex normals

vt 0.030287 0.475001 0.819419
vt 0.000920 0.454175 0.842252
vt 0.000920 0.001255 0.842252
vt 0.481042 0.032101 0.816976
vt 0.531957 0.001255 0.842252
vt 0.510816 0.015353 0.821561
vt 0.470266 0.064313 0.819419
vt 0.349721 0.271605 0.816634
vt 0.511480 0.107965 0.819419
vt 0.548111 0.124452 0.819419
vt 0.565520 0.157656 0.815613
vt 0.478867 0.093131 0.815042
vt 0.536852 0.202665 0.785879
vt 0.505178 0.204466 0.800097
vt 0.481974 0.211015 0.820484
vt 0.481757 0.244578 0.826855
vt 0.475546 0.269496 0.814204
vt 0.446978 0.274695 0.801484
vt 0.430985 0.279286 0.811456
vt 0.406378 0.286655 0.829638
vt 0.374889 0.274079 0.815203
vt 0.352295 0.295130 0.805553
vt 0.368605 0.318590 0.766610
vt 0.348104 0.345311 0.779306
vt 0.300349 0.364189 0.805157
vt 0.327657 0.360323 0.805502
vt 0.279674 0.374324 0.781280
vt 0.163132 0.489104 0.806739
vt 0.270231 0.390107 0.805616
vt 0.262831 0.407058 0.811811
vt 0.243894 0.426412 0.830177
vt 0.231397 0.441673 0.871800
vt 0.221689 0.452694 0.789914
vt 0.197315 0.468934 0.799511
vt 0.104670 0.521912 0.811414
vt 0.067715 0.521118 0.806337
vt 0.046763 0.504094 0.831658
vt 0.517658 0.098714 0.360770
vt 0.564389 0.116279 0.360770
vt 0.518084 0.098327 0.286513
vt 0.564760 0.116113 0.286513
vt 0.584274 0.158643 0.360730
vt 0.584382 0.158413 0.286354
vt 0.487202 0.087011 0.355873
vt 0.487271 0.087073 0.283302
vt 0.540495 0.210900 0.383635
vt 0.540703 0.209447 0.277775
vt 0.507491 0.227627 0.547809
vt 0.507562 0.223017 0.285349
vt 0.489614 0.217319 0.355361
vt 0.489936 0.217745 0.286082
vt 0.480962 0.064587 0.360770
vt 0.481387 0.064578 0.286513
vt 0.491061 0.248823 0.387301
vt 0.485052 0.277911 0.372442
vt 0.491271 0.249361 0.312225
vt 0.485286 0.278031 0.293037
vt 0.449661 0.287250 0.404613
vt 0.449974 0.288268 0.292794
vt 0.424401 0.282307 0.206341
vt 0.404475 0.303089 0.514529
vt 0.423139 0.282926 0.219157
vt 0.404339 0.303326 0.345626
vt 0.374424 0.287146 0.391063
vt 0.374588 0.288949 0.292496
vt 0.361774 0.281383 0.408934
vt 0.364923 0.285155 0.314998
vt 0.370133 0.294232 0.462876
vt 0.387198 0.320107 0.391494
vt 0.370261 0.294914 0.290943
vt 0.385623 0.320056 0.239988
vt 0.369108 0.363950 0.598148
vt 0.364986 0.360897 0.316102
vt 0.332046 0.372048 0.385403
vt 0.331904 0.371778 0.285856
vt 0.309213 0.375340 0.368649
vt 0.310151 0.377182 0.268084
vt 0.287141 0.381359 0.404733
vt 0.290612 0.383486 0.300550
vt 0.282859 0.393839 0.409552
vt 0.279861 0.415251 0.509082
vt 0.285955 0.394403 0.308189
vt 0.275961 0.413327 0.321378
vt 0.244804 0.458720 0.481490
vt 0.236015 0.463466 0.376391
vt 0.243737 0.458087 0.286613
vt 0.235905 0.464034 0.249590
vt 0.205916 0.475353 0.355202
vt 0.169204 0.497573 0.371608
vt 0.205424 0.474831 0.274427
vt 0.168664 0.497003 0.287017
vt 0.105750 0.534201 0.360730
vt 0.105613 0.534450 0.286354
vt 0.062598 0.536412 0.360770
vt 0.062474 0.536752 0.286513
vt 0.039512 0.512374 0.360936
vt 0.039231 0.512812 0.286595
vt 0.022872 0.480679 0.360770
vt 0.022405 0.480931 0.286513
vt 0.489722 0.039614 0.356830
vt 0.489718 0.039443 0.283645
vt -0.024189 0.461495 0.361088
vt 0.003276 0.462656 0.287787
vt -0.024190 -0.025143 0.361088
vt 0.520005 0.022520 0.360770
vt 0.520982 0.022372 0.286513
vt 0.526546 -0.026609 0.370169
vt 0.525035 0.003003 0.296868
vt 0.244240 0.429668 0.363887
vt 0.244074 0.430345 0.324210
# 110 texture coords

g Floor_5x5_CornerD
s 1
f -105/-110/-304 -104/-109/-303 -110/-108/-302 -81/-107/-301 
f -110/-108/-302 -79/-106/-300 -80/-105/-299 -81/-107/-301 
f -105/-110/-304 -81/-107/-301 -82/-104/-298 -95/-103/-297 
f -84/-102/-296 -85/-101/-295 -86/-100/-294 -83/-99/-293 
f -86/-100/-294 -87/-98/-292 -88/-97/-291 -89/-96/-290 
f -83/-99/-293 -86/-100/-294 -89/-96/-290 -82/-104/-298 
f -90/-95/-289 -91/-94/-288 -92/-93/-287 -89/-96/-290 
f -12/-92/-286 -93/-91/-285 -94/-90/-284 -92/-93/-287 
f -89/-96/-290 -92/-93/-287 -94/-90/-284 -95/-103/-297 
f -82/-104/-298 -89/-96/-290 -95/-103/-297 
f -96/-89/-283 -97/-88/-282 -98/-87/-281 -100/-86/-280 
f -98/-87/-281 -99/-85/-279 -100/-86/-280 
f -96/-89/-283 -100/-86/-280 -101/-84/-278 -95/-103/-297 
f -105/-110/-304 -95/-103/-297 -101/-84/-278 -109/-83/-277 
f -9/-82/-276 -102/-81/-275 -15/-80/-274 -101/-84/-278 
f -101/-84/-278 -15/-80/-274 -7/-79/-273 -103/-78/-272 
f -101/-84/-278 -103/-78/-272 -3/-77/-271 -109/-83/-277 
f -109/-83/-277 -108/-76/-270 -107/-75/-269 -105/-110/-304 
f -105/-110/-304 -107/-75/-269 -106/-74/-268 
s 2
f -85/-101/-267 -84/-102/-266 -76/-73/-265 -78/-72/-264 
s 1
f -44/-71/-263 -46/-70/-262 -78/-72/-261 -76/-73/-260 
s 4
f -86/-100/-259 -85/-101/-258 -78/-72/-257 -77/-69/-256 
s 8
f -46/-70/-255 -45/-68/-254 -77/-69/-253 -78/-72/-252 
s 2
f -84/-102/-266 -83/-99/-251 -72/-67/-250 -76/-73/-265 
s 1
f -40/-66/-249 -44/-71/-263 -76/-73/-260 -72/-67/-248 
s 2
f -87/-98/-247 -86/-100/-246 -77/-69/-245 -75/-65/-244 
s 1
f -45/-68/-243 -43/-64/-242 -75/-65/-241 -77/-69/-240 
s 4
f -88/-97/-239 -87/-98/-238 -75/-65/-237 -74/-63/-236 
s 8
f -43/-64/-235 -42/-62/-234 -74/-63/-233 -75/-65/-232 
s 2
f -89/-96/-231 -88/-97/-230 -74/-63/-229 -73/-61/-228 
s 1
f -42/-62/-227 -41/-60/-226 -73/-61/-225 -74/-63/-224 
s 4
f -83/-99/-223 -82/-104/-222 -52/-59/-221 -72/-67/-220 
s 8
f -20/-58/-219 -40/-66/-218 -72/-67/-217 -52/-59/-216 
s 2
f -91/-94/-215 -90/-95/-214 -69/-57/-213 -71/-56/-212 
s 1
f -37/-55/-211 -39/-54/-210 -71/-56/-209 -69/-57/-208 
s 4
f -92/-93/-207 -91/-94/-206 -71/-56/-205 -70/-53/-204 
s 8
f -39/-54/-203 -38/-52/-202 -70/-53/-201 -71/-56/-200 
s 4
f -90/-95/-199 -89/-96/-198 -73/-61/-197 -69/-57/-196 
s 8
f -41/-60/-195 -37/-55/-194 -69/-57/-193 -73/-61/-192 
s 2
f -93/-91/-191 -12/-92/-190 -11/-51/-189 -68/-50/-188 
s 1
f -68/-50/-187 -11/-51/-186 -10/-49/-185 -36/-48/-184 
s 4
f -94/-90/-183 -93/-91/-182 -68/-50/-181 -67/-47/-180 
s 8
f -36/-48/-179 -35/-46/-178 -67/-47/-177 -68/-50/-176 
s 2
f -95/-103/-175 -94/-90/-174 -67/-47/-173 -66/-45/-172 
f -35/-46/-171 -34/-44/-170 -66/-45/-172 -67/-47/-173 
s 4
f -97/-88/-169 -96/-89/-168 -60/-43/-167 -65/-42/-166 
s 1
f -28/-41/-165 -33/-40/-164 -65/-42/-163 -60/-43/-162 
s 2
f -98/-87/-161 -97/-88/-160 -65/-42/-159 -64/-39/-158 
s 8
f -33/-40/-157 -32/-38/-156 -64/-39/-155 -65/-42/-154 
s 4
f -99/-85/-153 -98/-87/-152 -64/-39/-151 -63/-37/-150 
s 1
f -32/-38/-149 -31/-36/-148 -63/-37/-147 -64/-39/-146 
s 2
f -100/-86/-145 -99/-85/-144 -63/-37/-143 -62/-35/-142 
s 8
f -31/-36/-141 -30/-34/-140 -62/-35/-139 -63/-37/-138 
s 4
f -101/-84/-137 -100/-86/-136 -62/-35/-135 -61/-33/-134 
f -30/-34/-133 -29/-32/-132 -61/-33/-134 -62/-35/-135 
f -96/-89/-168 -95/-103/-131 -66/-45/-130 -60/-43/-167 
s 8
f -34/-44/-129 -28/-41/-128 -60/-43/-127 -66/-45/-126 
s 2
f -9/-82/-125 -8/-31/-124 -59/-30/-123 -102/-81/-122 
s 1
f -8/-31/-121 -5/-29/-120 -27/-28/-119 -59/-30/-118 
s 2
f -103/-78/-117 -7/-79/-116 -6/-27/-115 -58/-26/-114 
s 1
f -6/-27/-113 -4/-25/-112 -26/-24/-111 -58/-26/-110 
s 4
f -3/-77/-109 -2/-23/-108 -57/-22/-107 -109/-83/-106 
s 1
f -57/-22/-105 -2/-23/-104 -1/-21/-103 -25/-20/-102 
s 4
f -108/-76/-101 -109/-83/-106 -57/-22/-107 -56/-19/-100 
s 1
f -25/-20/-102 -24/-18/-99 -56/-19/-98 -57/-22/-105 
s 2
f -107/-75/-97 -108/-76/-96 -56/-19/-95 -55/-17/-94 
s 8
f -24/-18/-93 -23/-16/-92 -55/-17/-91 -56/-19/-90 
s 4
f -106/-74/-89 -107/-75/-88 -55/-17/-87 -54/-15/-86 
s 1
f -23/-16/-85 -22/-14/-84 -54/-15/-83 -55/-17/-82 
s 2
f -105/-110/-81 -106/-74/-80 -54/-15/-79 -53/-13/-78 
s 8
f -22/-14/-77 -21/-12/-76 -53/-13/-75 -54/-15/-74 
s 2
f -82/-104/-73 -81/-107/-72 -49/-11/-71 -52/-59/-70 
s 1
f -18/-10/-69 -20/-58/-68 -52/-59/-67 -49/-11/-66 
s 4
f -104/-109/-65 -105/-110/-64 -53/-13/-63 -51/-9/-62 
s 1
f -21/-12/-61 -19/-8/-60 -51/-9/-59 -53/-13/-58 
s 2
f -110/-108/-57 -104/-109/-57 -51/-9/-57 -50/-7/-57 
s 4
f -81/-107/-56 -80/-105/-55 -47/-6/-54 -49/-11/-53 
s 8
f -16/-5/-52 -18/-10/-51 -49/-11/-50 -47/-6/-49 
s 4
f -79/-106/-48 -110/-108/-47 -50/-7/-46 -48/-4/-45 
s 2
f -80/-105/-44 -79/-106/-43 -48/-4/-42 -47/-6/-41 
s 1
f -17/-3/-40 -16/-5/-39 -47/-6/-38 -48/-4/-37 
s 4
f -102/-81/-36 -59/-30/-35 -14/-2/-34 -15/-80/-33 
s 8
f -14/-2/-32 -59/-30/-31 -27/-28/-30 -13/-1/-29 
s 16
f -12/-92/-28 -92/-93/-27 -70/-53/-26 -11/-51/-25 
s 32
f -11/-51/-24 -70/-53/-23 -38/-52/-22 -10/-49/-21 
s 8
f -9/-82/-20 -101/-84/-19 -61/-33/-18 -8/-31/-17 
s 16
f -7/-79/-16 -15/-80/-15 -14/-2/-14 -6/-27/-13 
s 8
f -61/-33/-18 -29/-32/-12 -5/-29/-11 -8/-31/-17 
s 32
f -6/-27/-10 -14/-2/-9 -13/-1/-8 -4/-25/-7 
s 4
f -103/-78/-6 -58/-26/-5 -2/-23/-108 -3/-77/-109 
s 8
f -58/-26/-4 -26/-24/-3 -1/-21/-2 -2/-23/-1 
# 88 polygons - 3 triangles

