# 3ds Max Wavefront OBJ Exporter v0.97b - (c)2007 guruware
# File Created: 01.05.2015 23:31:02

#
# object Floor_5x5_CornerB
#

v  250.000000 -0.021415 -250.000000
v  1.208717 -0.021415 -250.000000
v  15.839915 -0.761575 -203.453369
v  18.931589 -0.698365 -175.420898
v  0.129542 -0.350027 -156.296219
v  -13.198542 -0.668437 -137.887695
v  -11.257042 -0.668437 -121.511276
v  8.101203 -1.363824 -113.021034
v  186.840027 -0.406837 12.406632
v  198.259720 -0.529758 16.387760
v  211.086761 -0.438980 15.211197
v  218.792969 -0.307152 19.081463
v  227.728287 -0.379328 17.957638
v  229.687698 -0.379328 7.916121
v  233.775620 -0.334298 -0.179779
v  235.502594 -0.379328 -12.667272
v  240.046768 -0.379328 -21.310680
v  250.000000 -0.021415 -24.493340
v  172.386246 -0.928044 -2.256581
v  159.865234 -3.302432 -11.065312
v  152.472137 -0.507877 -23.756582
v  152.876495 -0.388123 -35.716255
v  153.069351 -0.379328 -47.690529
v  148.822754 -0.379328 -53.626163
v  142.442520 -0.135492 -56.605000
v  142.074127 -0.332235 -63.639706
v  149.377594 -0.377805 -73.303329
v  160.420334 -0.326798 -78.295074
v  169.532883 -0.217793 -84.222527
v  178.464035 -0.224106 -94.420929
v  175.972214 0.008333 -106.308998
v  162.752274 0.998611 -113.972595
v  148.552490 2.451280 -114.004204
v  140.954025 1.187415 -120.521553
v  133.482101 2.209365 -126.970970
v  130.004272 0.464820 -135.337509
v  121.010765 -0.674263 -136.558258
v  112.715561 -2.158510 -132.410049
v  100.456505 -1.421249 -132.569946
v  90.056122 -0.041212 -136.298447
v  81.039627 -4.275075 -138.905441
v  76.958755 -2.846628 -145.581497
v  71.039757 -2.643929 -147.490738
v  59.587593 -1.039189 -139.960526
v  42.521957 -0.354513 -132.033585
v  33.562901 -3.350431 -126.997215
v  27.210781 -2.585376 -123.095543
v  23.232214 -0.616105 -115.383469
v  44.750366 -7.070143 -126.694412
v  64.120071 -8.940335 -132.150955
v  72.602470 -7.683439 -146.898819
v  77.467720 -8.312025 -139.057404
v  87.501213 -6.544417 -133.472641
v  100.753662 -6.337563 -123.356209
v  114.391190 -9.247599 -126.271667
v  120.841888 -8.437712 -131.786804
v  127.498940 -7.472891 -132.065720
v  129.421021 -6.637485 -124.608673
v  139.277084 -6.686129 -117.919044
v  145.546371 -5.958606 -106.887283
v  160.205093 -4.971877 -107.938454
v  172.528412 -6.801682 -104.580246
v  145.284760 -7.031548 -78.539612
v  135.594070 -6.941064 -64.756989
v  159.413162 -7.496485 -81.716675
v  136.631180 -6.825403 -52.109764
v  145.281433 -7.178759 -48.946613
v  164.580475 -7.154836 -89.703079
v  145.911453 -6.357653 -45.390404
v  147.518326 -8.147498 -18.469864
v  156.645981 -7.357878 -9.765905
v  162.755753 -6.596259 4.941192
v  157.535461 -11.302554 -35.508026
v  184.712875 -7.036663 19.085073
v  197.527512 -7.490716 21.613531
v  209.372162 -7.571777 19.987160
v  218.082764 -7.568657 26.182468
v  231.969635 -7.568657 21.832981
v  234.226242 -7.568657 10.259314
v  175.122757 -7.002230 -95.680557
v  239.574875 -7.568657 2.481399
v  240.086884 -7.568657 -11.487947
v  249.884903 -7.563664 -20.175425
v  249.884903 -7.563664 -250.450500
v  243.408234 -7.568657 -17.678772
v  77.075989 -7.726276 -147.341873
v  -6.180845 -7.563664 -250.450500
v  6.885458 -7.413202 -203.340408
v  15.393572 -7.572997 -176.969208
v  -4.881252 -7.068686 -159.417572
v  -18.579672 -7.573649 -139.077881
v  -17.014248 -7.569886 -118.886421
v  32.322235 -7.658922 -125.448448
v  29.128132 -7.758603 -122.735268
v  9.760439 -7.218011 -108.132668
v  28.556067 -7.883356 -113.163628
v  44.771255 -8.522956 -126.899117
v  64.067467 -10.301744 -132.310532
v  72.648041 -8.981040 -146.155762
v  76.522026 -9.589488 -138.516464
v  87.680527 -7.915297 -133.931381
v  100.487518 -8.093242 -121.932365
v  114.329498 -10.475148 -126.076408
v  120.754173 -9.603699 -131.571991
v  127.440918 -8.617762 -131.946091
v  129.031906 -7.956302 -124.238060
v  139.171295 -8.039398 -117.855247
v  144.528107 -7.462821 -104.895157
v  160.568481 -7.254306 -109.253807
v  172.350510 -7.951505 -104.543282
v  145.295898 -8.542181 -78.426407
v  135.193604 -8.446679 -64.798790
v  159.182663 -8.666323 -81.944664
v  136.245193 -8.403484 -51.892807
v  144.964096 -8.540417 -48.710224
v  164.320007 -8.329400 -89.871223
v  146.027466 -8.210395 -45.375423
v  147.491898 -9.452662 -18.323259
v  156.514481 -8.730616 -9.755255
v  162.566879 -8.641729 5.481098
v  155.305725 -10.080413 -35.403698
v  184.644272 -8.405773 18.870754
v  197.410263 -8.636803 21.592609
v  209.268951 -8.745112 22.261402
v  218.144684 -8.735127 28.368258
v  232.011688 -8.732632 22.062269
v  236.076935 -8.732632 10.393928
v  174.909821 -8.173221 -95.732491
v  241.412994 -8.732632 2.563488
v  240.289276 -8.732632 -11.301670
v  248.974686 -8.712662 -18.761412
v  243.673950 -8.732632 -17.575306
v  76.995224 -9.145274 -146.898560
v  -7.375169 -8.712662 -248.894943
v  6.792281 -8.557835 -203.692398
v  11.295425 -8.680017 -177.607101
v  -7.399346 -8.224659 -159.878860
v  -18.319471 -8.720966 -138.978104
v  -16.519045 -8.632757 -119.061867
v  32.523781 -8.831693 -125.258629
v  29.305370 -8.935509 -122.543907
v  9.722927 -8.721739 -108.149773
v  28.690393 -9.041855 -112.937531
# 143 vertices

vn -0.001070 0.999999 -0.000238
vn 0.134883 0.984203 0.114681
vn 0.005440 0.999978 0.003860
vn 0.014316 0.999806 0.013514
vn -0.026729 0.989507 0.141988
vn 0.029345 0.984385 -0.173568
vn 0.042911 0.987337 -0.152726
vn 0.039512 0.996988 0.066742
vn 0.042578 0.994140 0.099363
vn -0.417599 -0.229261 -0.879233
vn -0.422172 0.495325 -0.759226
vn -0.058400 0.996695 0.056461
vn -0.482887 0.748054 0.455232
vn 0.083360 0.927967 -0.363219
vn -0.058236 0.989653 0.131128
vn 0.056087 0.977110 0.205209
vn -0.170301 0.737115 0.653956
vn 0.005613 0.998814 -0.048363
vn 0.415239 0.840569 -0.347879
vn 0.071787 0.989411 -0.126144
vn 0.401786 0.652014 -0.642997
vn 0.097799 0.949495 -0.298151
vn 0.008869 0.999931 -0.007702
vn -0.003021 0.999994 0.001585
vn -0.058828 0.995575 -0.073274
vn -0.010252 0.999870 -0.012463
vn 0.009508 0.999938 -0.005753
vn 0.024910 0.999462 0.021335
vn 0.052463 0.998152 -0.030663
vn 0.006542 0.999977 -0.001714
vn -0.043699 0.998751 0.024222
vn -0.000530 0.999991 0.004259
vn 0.027443 0.999422 0.020087
vn 0.322696 0.946283 0.020386
vn -0.259124 0.947859 0.185522
vn -0.050234 0.998162 0.033903
vn -0.005067 0.999987 0.000849
vn 0.035170 0.996920 -0.070104
vn -0.003407 0.999856 -0.016631
vn -0.006184 0.999910 -0.011882
vn 0.003031 0.999192 -0.040070
vn -0.002478 0.999974 -0.006704
vn -0.024997 0.999663 -0.007062
vn 0.005121 0.999986 0.001542
vn -0.008933 0.999959 0.001176
vn -0.035936 0.999354 -0.000000
vn 0.000000 0.999874 0.015899
vn -0.001754 0.999973 0.007076
vn 0.127809 0.559690 0.818787
vn 0.431082 0.192734 0.881489
vn 0.244927 0.437850 0.865042
vn 0.047700 0.631265 0.774099
vn 0.093478 0.153044 0.983788
vn 0.134895 -0.136346 0.981434
vn 0.132495 -0.117433 0.984202
vn 0.090055 0.174189 0.980586
vn 0.271377 0.724951 0.633089
vn 0.340854 0.651756 0.677519
vn 0.308906 0.686947 0.657785
vn 0.245650 0.749061 0.615275
vn 0.257069 -0.130855 0.957493
vn 0.257527 -0.122301 0.958500
vn 0.257507 -0.122691 0.958456
vn 0.257050 -0.131211 0.957449
vn 0.701152 0.490406 0.517579
vn 0.435296 0.746751 0.502873
vn 0.549259 0.656379 0.517186
vn 0.812503 0.309943 0.493735
vn 0.866453 -0.070924 0.494196
vn 0.789433 0.325678 0.520317
vn 0.800160 0.296526 0.521361
vn 0.866581 -0.090998 0.490669
vn -0.881848 0.399163 0.251023
vn -0.854931 -0.194088 0.481065
vn -0.917049 0.150154 0.369426
vn -0.747937 0.658693 0.081939
vn -0.990855 0.126764 0.046237
vn -0.806517 0.591040 -0.014208
vn -0.834290 0.551264 -0.008308
vn -0.995961 0.073012 0.052256
vn -0.474420 0.474808 0.741271
vn -0.398963 0.320666 0.859070
vn -0.456553 0.436226 0.775413
vn -0.486483 0.501879 0.715159
vn -0.470440 0.539365 0.698407
vn -0.313878 -0.337967 0.887276
vn -0.339629 -0.268534 0.901411
vn -0.463742 0.613832 0.638870
vn -0.334604 0.744294 0.577985
vn -0.243331 0.465381 0.851006
vn -0.302059 0.639226 0.707214
vn -0.355479 0.819825 0.448911
vn -0.588207 -0.259669 0.765888
vn -0.556237 0.572689 0.602186
vn -0.567217 0.541646 0.620390
vn -0.570234 -0.326794 0.753684
vn 0.196743 0.765117 0.613097
vn 0.046920 0.881917 0.469064
vn 0.150447 0.806895 0.571214
vn 0.289112 0.664783 0.688823
vn 0.289608 0.553899 0.780592
vn 0.305380 0.134598 0.942670
vn 0.306573 0.176568 0.935327
vn 0.286617 0.576876 0.764895
vn 0.386192 0.571014 0.724430
vn 0.234085 0.667441 0.706914
vn 0.393713 0.565520 0.724691
vn 0.556320 0.426291 0.713291
vn 0.640691 0.089412 0.762575
vn 0.639975 0.092393 0.762821
vn 0.640058 0.092047 0.762793
vn 0.640768 0.089092 0.762548
vn -0.117079 0.469531 0.875119
vn -0.179138 0.517971 0.836430
vn -0.104614 0.459454 0.882019
vn -0.017247 0.385672 0.922475
vn 0.018152 0.170810 0.985137
vn 0.040599 0.101804 0.993976
vn 0.037565 0.111203 0.993088
vn 0.015111 0.180064 0.983539
vn -0.877314 0.419086 0.233852
vn -0.875416 0.392555 0.282042
vn -0.877371 0.423181 0.226136
vn -0.876106 0.449036 0.175514
vn -0.966977 0.102819 0.233202
vn -0.932460 0.321455 0.164880
vn -0.938175 0.300337 0.172122
vn -0.967657 0.074233 0.241101
vn -0.535062 0.399932 0.744153
vn -0.550755 0.441896 0.708094
vn -0.538169 0.407979 0.737514
vn -0.521420 0.365862 0.770887
vn -0.522899 0.349146 0.777608
vn -0.530500 0.081249 0.843782
vn -0.531406 0.103581 0.840761
vn -0.520521 0.369849 0.769591
vn -0.705366 0.501306 0.501149
vn -0.641092 0.360492 0.677530
vn -0.697933 0.481237 0.530378
vn -0.726105 0.576570 0.374618
vn -0.865737 0.168757 0.471190
vn -0.636567 0.736011 0.230369
vn -0.657329 0.711977 0.246996
vn -0.868380 0.090866 0.487503
vn 0.029374 0.676634 0.735733
vn 0.062885 0.631516 0.772809
vn 0.041770 0.660323 0.749819
vn 0.002666 0.710281 0.703913
vn 0.028688 0.696007 0.717462
vn 0.238884 -0.456028 0.857306
vn 0.233981 -0.378414 0.895576
vn -0.010944 0.800684 0.598987
vn -0.246561 0.511221 0.823323
vn -0.295881 0.738525 0.605835
vn -0.276003 0.638857 0.718112
vn -0.201031 0.335311 0.920409
vn -0.302886 -0.482540 0.821836
vn -0.365440 0.086337 0.926822
vn -0.364269 0.009749 0.931243
vn -0.295791 -0.511888 0.806522
vn -0.218596 0.600702 -0.769008
vn -0.371206 0.441885 -0.816667
vn -0.281981 0.539849 -0.793127
vn -0.142978 0.664894 -0.733125
vn -0.209577 0.208219 -0.955365
vn -0.245540 -0.074242 -0.966539
vn -0.244011 -0.058144 -0.968028
vn -0.206612 0.226227 -0.951910
vn -0.596181 0.676353 -0.432568
vn -0.572165 0.694832 -0.435701
vn -0.586657 0.683807 -0.433867
vn -0.606796 0.667842 -0.431028
vn -0.816875 -0.033661 -0.575832
vn -0.782140 0.224177 -0.581379
vn -0.785501 0.210076 -0.582113
vn -0.817202 -0.049060 -0.574260
vn -0.600075 0.570784 -0.560460
vn -0.430970 0.680689 -0.592391
vn -0.462937 0.664978 -0.586084
vn -0.793440 0.349323 -0.498423
vn -0.816596 0.255690 -0.517488
vn -0.815027 0.261371 -0.517124
vn -0.815168 0.260864 -0.517157
vn -0.816730 0.255200 -0.517518
vn -0.727501 0.684978 0.039326
vn -0.715428 0.698456 0.017931
vn -0.727313 0.685198 0.038984
vn -0.735536 0.675319 0.054140
vn -0.964231 0.253685 0.076827
vn -0.965892 0.246956 0.077875
vn -0.965763 0.247488 0.077793
vn -0.964077 0.254297 0.076732
vn -0.264024 0.663937 0.699628
vn -0.283430 0.692195 0.663727
vn -0.260353 0.658516 0.706097
vn -0.243041 0.632646 0.735316
vn -0.328683 0.210035 0.920789
vn -0.329973 0.235595 0.914119
vn -0.329817 0.232265 0.915027
vn -0.328518 0.207046 0.921525
vn -0.674558 0.442355 -0.591011
vn -0.559396 0.564382 -0.607082
vn -0.489785 0.133293 -0.861594
vn -0.474182 0.226932 -0.850678
vn -0.475264 0.221246 -0.851572
vn -0.490606 0.127443 -0.862012
vn -0.651443 0.686462 0.323098
vn -0.627647 0.635939 0.449044
vn -0.663899 0.733621 0.145047
vn -0.651072 0.756691 -0.059371
vn -0.972091 0.157620 0.173766
vn -0.949544 -0.056964 0.308419
vn -0.964814 0.020002 0.262172
vn -0.962965 0.244247 0.114204
vn -0.921947 -0.010970 -0.387161
vn -0.918908 -0.392916 -0.035003
vn -0.952174 -0.170817 -0.253352
vn -0.833417 0.178472 -0.523034
vn 0.458085 0.882079 0.109975
vn -0.909391 -0.028200 -0.414985
vn -0.906408 0.035627 -0.420898
vn 0.481431 0.867905 0.122330
vn -0.561608 0.651302 0.510297
vn -0.552890 0.685914 0.473112
vn -0.556515 0.672438 0.487974
vn -0.567400 0.622951 0.538506
vn -0.691205 0.092905 0.716662
vn -0.689843 0.071672 0.720403
vn -0.689959 0.073308 0.720127
vn -0.691292 0.094466 0.716374
vn -0.460352 0.857153 0.231007
vn -0.530169 0.609661 0.589266
vn -0.499941 0.776923 0.382687
vn -0.427996 0.894163 0.131498
vn -0.921019 0.098708 0.376802
vn -0.914531 0.180057 0.362232
vn -0.915043 0.175691 0.363084
vn -0.921299 0.091188 0.378013
vn -0.839130 0.118895 0.530778
vn -0.642853 0.765927 -0.009791
vn -0.843655 0.394914 0.363716
vn -0.688207 -0.281009 0.668884
vn -0.646685 0.025884 0.762317
vn 0.454230 0.851173 -0.263019
vn 0.384384 0.908566 -0.163575
vn -0.655922 -0.034975 0.754018
vn -0.359607 0.778091 0.515031
vn -0.320175 0.903954 0.283471
vn -0.338818 0.861061 0.379177
vn -0.367921 0.715853 0.593455
vn -0.519794 0.251133 0.816546
vn -0.514732 -0.107360 0.850603
vn -0.516833 -0.087155 0.851638
vn -0.518792 0.262644 0.813556
vn -0.168724 0.656163 0.735515
vn -0.219244 0.726439 0.651320
vn -0.185953 0.680817 0.708456
vn -0.133637 0.603938 0.785748
vn -0.197265 -0.133707 0.971190
vn -0.208463 0.003473 0.978024
vn -0.207768 -0.006712 0.978155
vn -0.196457 -0.142026 0.970172
vn 0.098238 0.558760 0.823490
vn 0.069292 0.594257 0.801285
vn 0.119923 0.258117 0.958642
vn 0.065437 0.694971 0.716054
vn 0.123848 0.097567 0.987493
vn -0.017700 0.888883 0.457792
vn -0.412097 0.617892 0.669616
vn -0.374617 0.576352 0.726279
vn -0.411221 0.616934 0.671037
vn -0.441015 0.649175 0.619740
vn -0.304376 0.850476 0.429006
vn -0.313309 0.834098 0.454001
vn -0.312232 0.836147 0.450966
vn -0.303290 0.852375 0.425996
vn 0.189874 0.618023 0.762886
vn 0.095680 0.691154 0.716346
vn 0.158517 0.788240 0.594601
vn 0.332603 0.407515 0.850475
vn 0.164601 0.850261 0.499964
vn 0.406330 0.190709 0.893603
vn 0.810838 0.563500 0.158147
vn 0.810764 0.563590 0.158205
vn 0.940640 0.285567 0.183432
vn 0.695382 0.697360 0.173590
vn 0.964722 0.173393 0.198107
vn 0.514401 0.838613 0.179217
vn -0.872596 0.430219 0.231275
vn -0.856184 0.480914 0.188865
vn -0.867081 0.448933 0.215937
vn -0.883284 0.385948 0.266183
vn -0.947362 0.155916 0.279634
vn -0.946881 0.159807 0.279066
vn -0.946925 0.159454 0.279118
vn -0.947404 0.155575 0.279683
vn 0.673813 0.620620 0.401007
vn 0.726403 0.579166 0.370009
vn 0.673989 0.620491 0.400910
vn 0.621965 0.655917 0.427706
vn 0.485465 0.808149 0.333495
vn 0.493128 0.802434 0.336042
vn 0.492160 0.803162 0.335721
vn 0.484494 0.808865 0.333171
vn 0.810821 0.582372 0.058419
vn 0.757420 0.644845 0.102423
vn 0.662032 0.748108 0.045254
vn 0.912622 0.408479 -0.016328
vn 0.569743 0.821698 0.014297
vn 0.984154 0.158361 -0.079762
vn 0.275075 0.500780 0.820703
vn 0.241975 0.525268 0.815807
vn 0.315355 0.358063 0.878830
vn 0.280034 0.522011 0.805658
vn 0.335328 0.242957 0.910234
vn 0.149384 0.718124 0.679693
vn 0.999884 -0.015259 -0.000000
vn 0.742341 0.542118 0.393748
vn 0.745269 0.539495 0.391817
vn 0.742190 0.542253 0.393848
vn 0.738547 0.545484 0.396227
vn 0.858569 0.224563 0.460903
vn 0.855177 0.236235 0.461374
vn 0.855581 0.234869 0.461323
vn 0.858981 0.223111 0.460840
vn -0.126212 -0.153259 0.980093
vn -0.306423 0.016769 0.951748
vn -0.131210 -0.148767 0.980129
vn 0.089637 -0.336079 0.937559
vn 0.107392 0.456108 0.883421
vn 0.171897 0.284834 0.943038
vn 0.155279 0.331656 0.930534
vn 0.090221 0.497288 0.862882
vn 0.000000 0.059624 -0.998221
vn -0.600282 0.791884 0.112167
vn -0.701799 0.673775 0.231313
vn -0.685341 0.693981 0.220677
vn -0.618939 0.773417 0.136900
vn -0.578836 0.799915 0.158384
vn -0.954118 -0.014305 0.299090
vn -0.954361 0.012012 0.298415
vn -0.571726 0.805477 0.155999
vn -0.826171 0.512942 0.233093
vn -0.876842 0.387023 0.285240
vn -0.948701 0.093960 0.301892
vn -0.267797 0.962139 0.050737
vn -0.299756 0.952038 0.061395
vn -0.951589 -0.016915 0.306908
vn -0.518253 0.612657 -0.596712
vn -0.627522 0.463802 -0.625383
vn -0.604464 0.499285 -0.620756
vn -0.493169 0.641028 -0.588104
vn -0.216866 0.936425 -0.275821
vn -0.330500 0.867911 -0.370811
vn -0.323180 0.873211 -0.364771
vn -0.211435 0.939007 -0.271220
vn -0.659794 0.611540 -0.436682
vn -0.614278 0.659452 -0.433342
vn -0.530131 0.770355 -0.354279
vn -0.847138 0.203856 -0.490714
vn -0.392382 0.888289 -0.238702
vn -0.859325 -0.234416 -0.454543
vn -0.765216 0.640246 0.067307
vn -0.793074 0.601825 0.094023
vn -0.780921 0.619208 0.082124
vn -0.755532 0.652499 0.058454
vn -0.972067 -0.222101 0.075873
vn -0.897990 -0.432099 0.083092
vn -0.901948 -0.423818 0.082875
vn -0.973845 -0.214289 0.075541
vn 0.578494 0.185892 0.794222
vn 0.528336 0.252275 0.810690
vn 0.597788 0.206679 0.774554
vn 0.636490 0.148923 0.756771
vn 0.627329 0.218294 0.747533
vn 0.623437 0.228182 0.747836
vn 0.861095 0.487760 0.143549
vn 0.750604 0.619816 0.228958
vn 0.831543 0.528958 0.169529
vn 0.934578 0.350590 0.060426
vn 0.989690 0.129500 0.061178
vn 0.985164 0.158903 0.064827
vn 0.985617 0.156207 0.064494
vn 0.990078 0.126669 0.060825
vn -0.316697 0.553950 0.769963
vn -0.316877 0.556464 0.768074
vn -0.316823 0.555715 0.768638
vn -0.316663 0.553479 0.770316
vn -0.352287 -0.301260 0.886079
vn -0.383956 -0.000925 0.923351
vn -0.383577 -0.008864 0.923466
vn -0.350912 -0.309384 0.883823
vn 0.210713 0.495505 0.842660
vn 0.085274 0.652743 0.752765
vn 0.134631 0.595287 0.792154
vn 0.246345 0.443671 0.861667
vn 0.257609 -0.008507 0.966212
vn 0.242510 0.212844 0.946513
vn 0.243514 0.202418 0.948540
vn 0.257949 -0.017423 0.966001
# 400 vertex normals

vt 0.538288 0.850264 0.799066
vt 0.500719 0.812097 0.821288
vt 0.474087 0.775359 0.800975
vt 0.477966 0.742677 0.800975
vt 0.516647 0.725733 0.756612
vt 0.546882 0.730448 0.804314
vt 0.554831 0.745839 0.678682
vt 0.567524 0.753625 0.629875
vt 0.642409 0.794524 0.674947
vt 0.585425 0.763676 0.821002
vt 0.619525 0.779496 0.777323
vt 0.654236 0.790714 0.662016
vt 0.662390 0.777390 0.570887
vt 0.680406 0.772188 0.840989
vt 0.725684 0.764427 0.705914
vt 0.701188 0.764747 0.752949
vt 0.742259 0.772706 0.800603
vt 0.760229 0.770270 0.873272
vt 0.767178 0.753573 0.984567
vt 0.782109 0.740702 0.919371
vt 0.825665 0.727632 0.907326
vt 0.797292 0.727695 1.000000
vt 0.852081 0.712338 0.844150
vt 1.000000 0.999101 0.842252
vt 0.821005 0.656431 0.822770
vt 0.798940 0.646469 0.819516
vt 0.784347 0.627183 0.822423
vt 0.839214 0.668260 0.829724
vt 0.785083 0.613144 0.834975
vt 0.797832 0.607199 0.819419
vt 0.857060 0.688613 0.829322
vt 0.806317 0.595353 0.819419
vt 0.805932 0.571456 0.818858
vt 0.805124 0.547589 0.811218
vt 0.819896 0.522261 0.632937
vt 0.844915 0.504681 0.784413
vt 0.959413 0.484380 0.819419
vt 0.873796 0.475418 0.817664
vt 0.896614 0.467473 0.809822
vt 0.922245 0.469821 0.815613
vt 0.937643 0.462097 0.824023
vt 0.955497 0.464340 0.819419
vt 0.967581 0.500537 0.822292
vt 0.971032 0.525458 0.819419
vt 0.980112 0.542707 0.819419
vt 1.000000 0.549059 0.842252
vt 0.502875 0.999101 0.842252
vt 0.532111 0.906208 0.795033
vt 0.565045 0.750534 0.355011
vt 0.589878 0.753021 0.392573
vt 0.565448 0.750155 0.280193
vt 0.589920 0.753429 0.299889
vt 0.628582 0.763910 0.273262
vt 0.628477 0.764229 0.186410
vt 0.645531 0.793343 0.353447
vt 0.645622 0.791860 0.270666
vt 0.654470 0.794227 0.350714
vt 0.655253 0.777694 0.313346
vt 0.654309 0.793342 0.260188
vt 0.653363 0.776614 0.231849
vt 0.675301 0.766548 0.426112
vt 0.675660 0.767464 0.338656
vt 0.701782 0.746359 0.439308
vt 0.701250 0.743517 0.327303
vt 0.729032 0.752177 0.253660
vt 0.728908 0.751787 0.175348
vt 0.741921 0.763184 0.305328
vt 0.741746 0.762755 0.230943
vt 0.755223 0.763740 0.366879
vt 0.755107 0.763502 0.293841
vt 0.759064 0.748858 0.420175
vt 0.758286 0.748119 0.336040
vt 0.778758 0.735508 0.417071
vt 0.778546 0.735381 0.330738
vt 0.791285 0.713492 0.463484
vt 0.789250 0.709516 0.367522
vt 0.820575 0.715590 0.526433
vt 0.821301 0.718215 0.380824
vt 0.845199 0.708888 0.409700
vt 0.844844 0.708814 0.336346
vt 0.818993 0.663259 0.365374
vt 0.790762 0.656919 0.395035
vt 0.818532 0.663714 0.290743
vt 0.790784 0.656693 0.298663
vt 0.771399 0.629413 0.400808
vt 0.770598 0.629496 0.304756
vt 0.829318 0.679198 0.387170
vt 0.828798 0.679533 0.312238
vt 0.773471 0.604173 0.408186
vt 0.772700 0.603740 0.307511
vt 0.790755 0.597860 0.385644
vt 0.790121 0.597388 0.298776
vt 0.850383 0.691127 0.396905
vt 0.849958 0.691230 0.322201
vt 0.792014 0.590763 0.438027
vt 0.792246 0.590733 0.319829
vt 0.815241 0.571041 0.122563
vt 0.795225 0.537038 0.323842
vt 0.810786 0.570833 0.200530
vt 0.795172 0.536745 0.240578
vt 0.813464 0.519668 0.374217
vt 0.813201 0.519646 0.286642
vt 0.825672 0.490317 0.422805
vt 0.825294 0.489239 0.292312
vt 0.869546 0.462090 0.394709
vt 0.869409 0.462518 0.307365
vt 0.895151 0.457044 0.365742
vt 0.894917 0.457086 0.292627
vt 0.918819 0.460290 0.360571
vt 0.918613 0.455751 0.285717
vt 0.936224 0.447926 0.360770
vt 0.936348 0.443564 0.286354
vt 0.963972 0.456606 0.360770
vt 0.964056 0.456148 0.286513
vt 0.968481 0.479703 0.360770
vt 0.972179 0.479435 0.286513
vt 0.979169 0.495226 0.360770
vt 0.982842 0.495062 0.286513
vt 0.980192 0.523104 0.360770
vt 0.980596 0.522732 0.286513
vt 0.986828 0.535459 0.360770
vt 1.023960 0.540442 0.361088
vt 0.987359 0.535253 0.286513
vt 0.997951 0.537620 0.287787
vt 1.023960 1.018868 0.361088
vt 0.488110 1.018868 0.361088
vt 0.514218 0.905983 0.370687
vt 0.485723 0.996895 0.287787
vt 0.514032 0.906685 0.297664
vt 0.531219 0.853354 0.360493
vt 0.523030 0.854627 0.289870
vt 0.490706 0.818326 0.392666
vt 0.485675 0.819247 0.318920
vt 0.463335 0.777734 0.360451
vt 0.463855 0.777535 0.287257
vt 0.466463 0.737439 0.360691
vt 0.467452 0.737789 0.292885
vt 0.558663 0.745120 0.348652
vt 0.559017 0.744738 0.273570
vt 0.557519 0.726018 0.340693
vt 0.557788 0.725566 0.266786
vt 0.519963 0.715977 0.383139
vt 0.519888 0.716012 0.287208
# 143 texture coords

g Floor_5x5_CornerB
s 1
f -140/-143/-400 -139/-142/-399 -138/-141/-398 -137/-140/-397 
f -137/-140/-397 -136/-139/-396 -96/-138/-395 -97/-137/-394 
f -137/-140/-397 -97/-137/-394 -98/-136/-393 -101/-135/-392 
f -98/-136/-393 -99/-134/-391 -100/-133/-390 -101/-135/-392 
f -102/-132/-389 -103/-131/-388 -104/-130/-387 -106/-129/-386 
f -104/-130/-387 -105/-128/-385 -106/-129/-386 
f -102/-132/-389 -106/-129/-386 -107/-127/-384 -108/-126/-383 
f -108/-126/-383 -109/-125/-382 -110/-124/-381 -112/-123/-380 
f -110/-124/-381 -111/-122/-379 -112/-123/-380 
f -108/-126/-383 -112/-123/-380 -113/-121/-378 -143/-120/-377 
f -116/-119/-376 -117/-118/-375 -118/-117/-374 -115/-116/-373 
f -118/-117/-374 -119/-115/-372 -120/-114/-371 -115/-116/-373 
f -114/-113/-370 -115/-116/-373 -120/-114/-371 -121/-112/-369 
f -122/-111/-368 -123/-110/-367 -124/-109/-366 -125/-108/-365 
f -121/-112/-369 -122/-111/-368 -125/-108/-365 -130/-107/-364 
f -125/-108/-365 -135/-106/-363 -134/-105/-362 -133/-104/-361 
f -133/-104/-361 -132/-103/-360 -131/-102/-359 -130/-107/-364 
f -125/-108/-365 -133/-104/-361 -130/-107/-364 
f -114/-113/-370 -121/-112/-369 -130/-107/-364 -113/-121/-378 
f -130/-107/-364 -129/-101/-358 -128/-100/-357 -143/-120/-377 
f -127/-99/-356 -126/-98/-355 -143/-120/-377 -128/-100/-357 
f -113/-121/-378 -130/-107/-364 -143/-120/-377 
f -102/-132/-389 -108/-126/-383 -143/-120/-377 -101/-135/-392 
f -137/-140/-397 -101/-135/-392 -143/-120/-377 -140/-143/-400 
f -143/-120/-377 -142/-97/-354 -141/-96/-353 -140/-143/-400 
s 2
f -99/-134/-352 -98/-136/-351 -51/-95/-350 -95/-94/-349 
s 1
f -4/-93/-348 -47/-92/-347 -95/-94/-346 -51/-95/-345 
s 4
f -100/-133/-344 -99/-134/-343 -95/-94/-342 -94/-91/-341 
s 8
f -47/-92/-340 -46/-90/-339 -94/-91/-338 -95/-94/-337 
s 2
f -101/-135/-336 -100/-133/-335 -94/-91/-334 -93/-89/-333 
s 1
f -46/-90/-332 -45/-88/-331 -93/-89/-330 -94/-91/-329 
s 2
f -103/-131/-328 -102/-132/-327 -58/-87/-326 -92/-86/-325 
s 1
f -11/-85/-324 -44/-84/-323 -92/-86/-322 -58/-87/-321 
s 4
f -104/-130/-320 -103/-131/-319 -92/-86/-318 -91/-83/-317 
s 8
f -44/-84/-316 -43/-82/-315 -91/-83/-314 -92/-86/-313 
s 2
f -105/-128/-312 -104/-130/-311 -91/-83/-310 -90/-81/-309 
s 1
f -43/-82/-308 -42/-80/-307 -90/-81/-306 -91/-83/-305 
s 4
f -106/-129/-304 -105/-128/-303 -90/-81/-302 -89/-79/-301 
s 8
f -42/-80/-300 -41/-78/-299 -89/-79/-298 -90/-81/-297 
s 2
f -107/-127/-296 -106/-129/-295 -89/-79/-294 -88/-77/-293 
s 1
f -41/-78/-292 -40/-76/-291 -88/-77/-290 -89/-79/-289 
s 4
f -108/-126/-288 -107/-127/-287 -88/-77/-286 -87/-75/-285 
s 8
f -40/-76/-284 -39/-74/-283 -87/-75/-282 -88/-77/-281 
s 2
f -109/-125/-280 -108/-126/-279 -87/-75/-278 -86/-73/-277 
s 1
f -39/-74/-276 -38/-72/-275 -86/-73/-274 -87/-75/-273 
s 4
f -110/-124/-272 -109/-125/-271 -86/-73/-270 -85/-71/-269 
s 8
f -38/-72/-268 -37/-70/-267 -85/-71/-266 -86/-73/-265 
s 2
f -111/-122/-264 -110/-124/-263 -85/-71/-262 -84/-69/-261 
s 1
f -37/-70/-260 -36/-68/-259 -84/-69/-258 -85/-71/-257 
s 4
f -112/-123/-256 -111/-122/-255 -84/-69/-254 -83/-67/-253 
s 8
f -36/-68/-252 -35/-66/-251 -83/-67/-250 -84/-69/-249 
s 2
f -113/-121/-248 -112/-123/-247 -83/-67/-246 -82/-65/-245 
s 1
f -35/-66/-244 -34/-64/-243 -82/-65/-242 -83/-67/-241 
s 2
f -117/-118/-240 -116/-119/-239 -79/-63/-238 -81/-62/-237 
s 1
f -31/-61/-236 -33/-60/-235 -81/-62/-234 -79/-63/-233 
s 4
f -118/-117/-232 -117/-118/-231 -81/-62/-230 -80/-59/-229 
s 8
f -33/-60/-228 -32/-58/-227 -80/-59/-226 -81/-62/-225 
s 4
f -116/-119/-224 -115/-116/-223 -76/-57/-222 -79/-63/-221 
s 8
f -28/-56/-220 -31/-61/-219 -79/-63/-218 -76/-57/-217 
s 2
f -119/-115/-216 -118/-117/-215 -80/-59/-214 -78/-55/-213 
s 1
f -32/-58/-212 -30/-54/-211 -78/-55/-210 -80/-59/-209 
s 4
f -120/-114/-208 -119/-115/-207 -78/-55/-206 -77/-53/-205 
s 8
f -30/-54/-204 -29/-52/-203 -77/-53/-202 -78/-55/-201 
s 4
f -115/-116/-223 -114/-113/-200 -64/-51/-199 -76/-57/-222 
s 1
f -16/-50/-198 -28/-56/-197 -76/-57/-196 -64/-51/-195 
s 2
f -121/-112/-194 -120/-114/-193 -77/-53/-192 -75/-49/-191 
s 1
f -29/-52/-190 -27/-48/-189 -75/-49/-188 -77/-53/-187 
s 2
f -123/-110/-186 -122/-111/-185 -71/-47/-184 -74/-46/-183 
s 1
f -23/-45/-182 -26/-44/-181 -74/-46/-180 -71/-47/-179 
s 4
f -124/-109/-178 -123/-110/-177 -74/-46/-176 -73/-43/-175 
s 8
f -26/-44/-174 -25/-42/-173 -73/-43/-172 -74/-46/-171 
s 2
f -125/-108/-170 -124/-109/-169 -73/-43/-168 -72/-41/-167 
s 1
f -25/-42/-166 -24/-40/-165 -72/-41/-164 -73/-43/-163 
s 4
f -122/-111/-162 -121/-112/-161 -75/-49/-160 -71/-47/-159 
s 8
f -27/-48/-158 -23/-45/-157 -71/-47/-156 -75/-49/-155 
s 4
f -135/-106/-154 -125/-108/-153 -72/-41/-152 -70/-39/-151 
s 8
f -24/-40/-150 -22/-38/-149 -70/-39/-148 -72/-41/-147 
s 2
f -134/-105/-146 -135/-106/-145 -70/-39/-144 -69/-37/-143 
s 1
f -22/-38/-142 -21/-36/-141 -69/-37/-140 -70/-39/-139 
s 4
f -133/-104/-138 -134/-105/-137 -69/-37/-136 -68/-35/-135 
f -21/-36/-134 -20/-34/-133 -68/-35/-135 -69/-37/-136 
s 2
f -132/-103/-132 -133/-104/-131 -68/-35/-130 -67/-33/-129 
s 1
f -20/-34/-128 -19/-32/-127 -67/-33/-126 -68/-35/-125 
s 4
f -131/-102/-124 -132/-103/-123 -67/-33/-122 -66/-31/-121 
f -19/-32/-120 -18/-30/-119 -66/-31/-121 -67/-33/-122 
s 2
f -130/-107/-118 -131/-102/-117 -66/-31/-116 -65/-29/-115 
f -18/-30/-114 -17/-28/-113 -65/-29/-115 -66/-31/-116 
s 8
f -114/-113/-112 -113/-121/-111 -82/-65/-110 -64/-51/-109 
s 16
f -34/-64/-108 -16/-50/-107 -64/-51/-106 -82/-65/-105 
s 4
f -129/-101/-104 -130/-107/-103 -65/-29/-102 -63/-27/-101 
s 1
f -17/-28/-100 -15/-26/-99 -63/-27/-98 -65/-29/-97 
s 2
f -128/-100/-96 -129/-101/-95 -63/-27/-94 -62/-25/-93 
f -15/-26/-92 -14/-24/-91 -62/-25/-93 -63/-27/-94 
f -126/-98/-90 -127/-99/-89 -59/-23/-88 -61/-22/-87 
f -12/-21/-86 -13/-20/-85 -61/-22/-87 -59/-23/-88 
s 4
f -143/-120/-84 -126/-98/-84 -61/-22/-84 -60/-19/-84 
f -127/-99/-83 -128/-100/-82 -62/-25/-81 -59/-23/-80 
s 1
f -14/-24/-79 -12/-21/-78 -59/-23/-77 -62/-25/-76 
s 4
f -102/-132/-75 -101/-135/-74 -93/-89/-73 -58/-87/-72 
s 8
f -45/-88/-71 -11/-85/-70 -58/-87/-69 -93/-89/-68 
s 2
f -142/-97/-67 -143/-120/-67 -60/-19/-67 -57/-18/-67 
s 4
f -141/-96/-66 -142/-97/-65 -57/-18/-64 -56/-17/-63 
s 1
f -10/-16/-62 -9/-15/-61 -56/-17/-60 -57/-18/-59 
s 4
f -140/-143/-58 -141/-96/-66 -56/-17/-63 -55/-14/-57 
s 2
f -9/-15/-56 -8/-13/-55 -55/-14/-54 -56/-17/-53 
s 8
f -139/-142/-52 -140/-143/-51 -55/-14/-50 -54/-12/-49 
s 1
f -8/-13/-48 -7/-11/-47 -54/-12/-46 -55/-14/-45 
s 2
f -138/-141/-44 -139/-142/-43 -54/-12/-42 -53/-10/-41 
f -7/-11/-40 -6/-9/-39 -53/-10/-41 -54/-12/-42 
s 4
f -137/-140/-38 -138/-141/-37 -53/-10/-36 -52/-8/-35 
s 1
f -6/-9/-34 -5/-7/-33 -52/-8/-32 -53/-10/-31 
s 4
f -98/-136/-30 -97/-137/-29 -50/-6/-28 -51/-95/-27 
f -3/-5/-26 -4/-93/-25 -51/-95/-27 -50/-6/-28 
s 2
f -97/-137/-24 -96/-138/-23 -48/-4/-22 -50/-6/-21 
s 1
f -1/-3/-20 -3/-5/-19 -50/-6/-18 -48/-4/-17 
s 2
f -136/-139/-16 -137/-140/-15 -52/-8/-14 -49/-2/-13 
s 8
f -5/-7/-12 -2/-1/-11 -49/-2/-10 -52/-8/-9 
s 4
f -96/-138/-8 -136/-139/-7 -49/-2/-6 -48/-4/-5 
s 16
f -2/-1/-4 -1/-3/-3 -48/-4/-2 -49/-2/-1 
# 115 polygons - 4 triangles

