mtllib ./HighVertex5x5.mtl
g Plane
v 0 0 4.375
v 0 0 5
v -0.625 0 4.375
v -0.625 0 5
v 0 0 3.75
v -0.625 0 3.75
v -1.25 0 3.75
v -1.25 0 4.375
v -1.25 0 5
v 0 0 3.125
v -0.625 0 3.125
v 0 0 2.5
v -0.625 0 2.5
v -1.25 0 2.5
v -1.25 0 3.125
v -1.875 0 3.125
v -1.875 0 3.75
v -1.875 0 2.5
v -2.5 0 2.5
v -2.5 0 3.125
v -2.5 0 3.75
v -1.875 0 4.375
v -1.875 0 5
v -2.5 0 4.375
v -2.5 0 5
v 0 0 1.875
v -0.625 0 1.875
v 0 0 1.25
v -0.625 0 1.25
v -1.25 0 1.25
v -1.25 0 1.875
v 0 0 0.625
v -0.625 0 0.625
v 0 0 0
v -0.625 0 0
v -1.25 0 0
v -1.25 0 0.625
v -1.875 0 0.625
v -1.875 0 1.25
v -1.875 0 0
v -2.5 0 0
v -2.5 0 0.625
v -2.5 0 1.25
v -1.875 0 1.875
v -2.5 0 1.875
v -3.125 0 4.375
v -3.125 0 5
v -3.125 0 3.75
v -3.75 0 3.75
v -3.75 0 4.375
v -3.75 0 5
v -3.125 0 3.125
v -3.125 0 2.5
v -3.75 0 2.5
v -3.75 0 3.125
v -4.375 0 3.125
v -4.375 0 3.75
v -4.375 0 2.5
v -5 0 2.5
v -5 0 3.125
v -5 0 3.75
v -4.375 0 4.375
v -4.375 0 5
v -5 0 4.375
v -5 0 5
v -3.125 0 1.875
v -3.125 0 1.25
v -3.75 0 1.25
v -3.75 0 1.875
v -3.125 0 0.625
v -3.125 0 0
v -3.75 0 0
v -3.75 0 0.625
v -4.375 0 0.625
v -4.375 0 1.25
v -4.375 0 0
v -5 0 0
v -5 0 0.625
v -5 0 1.25
v -4.375 0 1.875
v -5 0 1.875

vn 0 1 0
vn 0 1 0
vn 0 1 0
vn 0 1 0
vn 0 1 0
vn 0 1 0
vn 0 1 0
vn 0 1 0
vn 0 1 0
vn 0 1 0
vn 0 1 0
vn 0 1 0
vn 0 1 0
vn 0 1 0
vn 0 1 0
vn 0 1 0
vn 0 1 0
vn 0 1 0
vn 0 1 0
vn 0 1 0
vn 0 1 0
vn 0 1 0
vn 0 1 0
vn 0 1 0
vn 0 1 0
vn 0 1 0
vn 0 1 0
vn 0 1 0
vn 0 1 0
vn 0 1 0
vn 0 1 0
vn 0 1 0
vn 0 1 0
vn 0 1 0
vn 0 1 0
vn 0 1 0
vn 0 1 0
vn 0 1 0
vn 0 1 0
vn 0 1 0
vn 0 1 0
vn 0 1 0
vn 0 1 0
vn 0 1 0
vn 0 1 0
vn 0 1 0
vn 0 1 0
vn 0 1 0
vn 0 1 0
vn 0 1 0
vn 0 1 0
vn 0 1 0
vn 0 1 0
vn 0 1 0
vn 0 1 0
vn 0 1 0
vn 0 1 0
vn 0 1 0
vn 0 1 0
vn 0 1 0
vn 0 1 0
vn 0 1 0
vn 0 1 0
vn 0 1 0
vn 0 1 0
vn 0 1 0
vn 0 1 0
vn 0 1 0
vn 0 1 0
vn 0 1 0
vn 0 1 0
vn 0 1 0
vn 0 1 0
vn 0 1 0
vn 0 1 0
vn 0 1 0
vn 0 1 0
vn 0 1 0
vn 0 1 0
vn 0 1 0
vn 0 1 0

vt 0 0.875
vt 0 1
vt 0.125 0.875
vt 0.125 1
vt 0 0.75
vt 0.125 0.75
vt 0.25 0.75
vt 0.25 0.875
vt 0.25 1
vt 0 0.625
vt 0.125 0.625
vt 0 0.5
vt 0.125 0.5
vt 0.25 0.5
vt 0.25 0.625
vt 0.375 0.625
vt 0.375 0.75
vt 0.375 0.5
vt 0.5 0.5
vt 0.5 0.625
vt 0.5 0.75
vt 0.375 0.875
vt 0.375 1
vt 0.5 0.875
vt 0.5 1
vt 0 0.375
vt 0.125 0.375
vt 0 0.25
vt 0.125 0.25
vt 0.25 0.25
vt 0.25 0.375
vt 0 0.125
vt 0.125 0.125
vt 0 0
vt 0.125 0
vt 0.25 0
vt 0.25 0.125
vt 0.375 0.125
vt 0.375 0.25
vt 0.375 0
vt 0.5 0
vt 0.5 0.125
vt 0.5 0.25
vt 0.375 0.375
vt 0.5 0.375
vt 0.625 0.875
vt 0.625 1
vt 0.625 0.75
vt 0.75 0.75
vt 0.75 0.875
vt 0.75 1
vt 0.625 0.625
vt 0.625 0.5
vt 0.75 0.5
vt 0.75 0.625
vt 0.875 0.625
vt 0.875 0.75
vt 0.875 0.5
vt 1 0.5
vt 1 0.625
vt 1 0.75
vt 0.875 0.875
vt 0.875 1
vt 1 0.875
vt 1 1
vt 0.625 0.375
vt 0.625 0.25
vt 0.75 0.25
vt 0.75 0.375
vt 0.625 0.125
vt 0.625 0
vt 0.75 0
vt 0.75 0.125
vt 0.875 0.125
vt 0.875 0.25
vt 0.875 0
vt 1 0
vt 1 0.125
vt 1 0.25
vt 0.875 0.375
vt 1 0.375

g Default_Prototype
usemtl Default_Prototype
usemap Default_Prototype
f 2/2/2 1/1/1 3/3/3
f 3/3/3 4/4/4 2/2/2
f 1/1/1 5/5/5 6/6/6
f 6/6/6 3/3/3 1/1/1
f 3/3/3 6/6/6 7/7/7
f 7/7/7 8/8/8 3/3/3
f 4/4/4 3/3/3 8/8/8
f 8/8/8 9/9/9 4/4/4
f 5/5/5 10/10/10 11/11/11
f 11/11/11 6/6/6 5/5/5
f 10/10/10 12/12/12 13/13/13
f 13/13/13 11/11/11 10/10/10
f 11/11/11 13/13/13 14/14/14
f 14/14/14 15/15/15 11/11/11
f 6/6/6 11/11/11 15/15/15
f 15/15/15 7/7/7 6/6/6
f 7/7/7 15/15/15 16/16/16
f 16/16/16 17/17/17 7/7/7
f 15/15/15 14/14/14 18/18/18
f 18/18/18 16/16/16 15/15/15
f 16/16/16 18/18/18 19/19/19
f 19/19/19 20/20/20 16/16/16
f 17/17/17 16/16/16 20/20/20
f 20/20/20 21/21/21 17/17/17
f 9/9/9 8/8/8 22/22/22
f 22/22/22 23/23/23 9/9/9
f 8/8/8 7/7/7 17/17/17
f 17/17/17 22/22/22 8/8/8
f 22/22/22 17/17/17 21/21/21
f 21/21/21 24/24/24 22/22/22
f 23/23/23 22/22/22 24/24/24
f 24/24/24 25/25/25 23/23/23
f 12/12/12 26/26/26 27/27/27
f 27/27/27 13/13/13 12/12/12
f 26/26/26 28/28/28 29/29/29
f 29/29/29 27/27/27 26/26/26
f 27/27/27 29/29/29 30/30/30
f 30/30/30 31/31/31 27/27/27
f 13/13/13 27/27/27 31/31/31
f 31/31/31 14/14/14 13/13/13
f 28/28/28 32/32/32 33/33/33
f 33/33/33 29/29/29 28/28/28
f 32/32/32 34/34/34 35/35/35
f 35/35/35 33/33/33 32/32/32
f 33/33/33 35/35/35 36/36/36
f 36/36/36 37/37/37 33/33/33
f 29/29/29 33/33/33 37/37/37
f 37/37/37 30/30/30 29/29/29
f 30/30/30 37/37/37 38/38/38
f 38/38/38 39/39/39 30/30/30
f 37/37/37 36/36/36 40/40/40
f 40/40/40 38/38/38 37/37/37
f 38/38/38 40/40/40 41/41/41
f 41/41/41 42/42/42 38/38/38
f 39/39/39 38/38/38 42/42/42
f 42/42/42 43/43/43 39/39/39
f 14/14/14 31/31/31 44/44/44
f 44/44/44 18/18/18 14/14/14
f 31/31/31 30/30/30 39/39/39
f 39/39/39 44/44/44 31/31/31
f 44/44/44 39/39/39 43/43/43
f 43/43/43 45/45/45 44/44/44
f 18/18/18 44/44/44 45/45/45
f 45/45/45 19/19/19 18/18/18
f 25/25/25 24/24/24 46/46/46
f 46/46/46 47/47/47 25/25/25
f 24/24/24 21/21/21 48/48/48
f 48/48/48 46/46/46 24/24/24
f 46/46/46 48/48/48 49/49/49
f 49/49/49 50/50/50 46/46/46
f 47/47/47 46/46/46 50/50/50
f 50/50/50 51/51/51 47/47/47
f 21/21/21 20/20/20 52/52/52
f 52/52/52 48/48/48 21/21/21
f 20/20/20 19/19/19 53/53/53
f 53/53/53 52/52/52 20/20/20
f 52/52/52 53/53/53 54/54/54
f 54/54/54 55/55/55 52/52/52
f 48/48/48 52/52/52 55/55/55
f 55/55/55 49/49/49 48/48/48
f 49/49/49 55/55/55 56/56/56
f 56/56/56 57/57/57 49/49/49
f 55/55/55 54/54/54 58/58/58
f 58/58/58 56/56/56 55/55/55
f 56/56/56 58/58/58 59/59/59
f 59/59/59 60/60/60 56/56/56
f 57/57/57 56/56/56 60/60/60
f 60/60/60 61/61/61 57/57/57
f 51/51/51 50/50/50 62/62/62
f 62/62/62 63/63/63 51/51/51
f 50/50/50 49/49/49 57/57/57
f 57/57/57 62/62/62 50/50/50
f 62/62/62 57/57/57 61/61/61
f 61/61/61 64/64/64 62/62/62
f 63/63/63 62/62/62 64/64/64
f 64/64/64 65/65/65 63/63/63
f 19/19/19 45/45/45 66/66/66
f 66/66/66 53/53/53 19/19/19
f 45/45/45 43/43/43 67/67/67
f 67/67/67 66/66/66 45/45/45
f 66/66/66 67/67/67 68/68/68
f 68/68/68 69/69/69 66/66/66
f 53/53/53 66/66/66 69/69/69
f 69/69/69 54/54/54 53/53/53
f 43/43/43 42/42/42 70/70/70
f 70/70/70 67/67/67 43/43/43
f 42/42/42 41/41/41 71/71/71
f 71/71/71 70/70/70 42/42/42
f 70/70/70 71/71/71 72/72/72
f 72/72/72 73/73/73 70/70/70
f 67/67/67 70/70/70 73/73/73
f 73/73/73 68/68/68 67/67/67
f 68/68/68 73/73/73 74/74/74
f 74/74/74 75/75/75 68/68/68
f 73/73/73 72/72/72 76/76/76
f 76/76/76 74/74/74 73/73/73
f 74/74/74 76/76/76 77/77/77
f 77/77/77 78/78/78 74/74/74
f 75/75/75 74/74/74 78/78/78
f 78/78/78 79/79/79 75/75/75
f 54/54/54 69/69/69 80/80/80
f 80/80/80 58/58/58 54/54/54
f 69/69/69 68/68/68 75/75/75
f 75/75/75 80/80/80 69/69/69
f 80/80/80 75/75/75 79/79/79
f 79/79/79 81/81/81 80/80/80
f 58/58/58 80/80/80 81/81/81
f 81/81/81 59/59/59 58/58/58
