# 3ds Max Wavefront OBJ Exporter v0.97b - (c)2007 guruware
# File Created: 23.05.2015 16:18:35

#
# object Ceiling_025x025
#

v  -125.000000 500.000000 125.000000
v  -125.000000 500.000000 -125.000000
v  125.000000 500.000000 -125.000000
v  125.000000 500.000000 125.000000
# 4 vertices

vn 0.000000 -1.000000 -0.000000
# 1 vertex normals

vt 0.000000 0.000000 0.000000
vt 0.000000 1.000000 0.000000
vt 1.000000 1.000000 0.000000
vt 1.000000 0.000000 0.000000
# 4 texture coords

g Ceiling_025x025
s 1
f 1/1/1 2/2/1 3/3/1 4/4/1 
# 1 polygons

