# 3ds Max Wavefront OBJ Exporter v0.97b - (c)2007 guruware
# File Created: 05.06.2015 18:44:43

#
# object Ceiling_5x5_Wood_Beams
#

v  -250.000000 479.666046 17.500000
v  -250.000000 479.666046 -17.500000
v  250.000000 479.666046 -17.500000
v  250.000000 479.666046 17.500000
v  -250.000000 499.666046 17.500000
v  250.000000 499.666046 17.500000
v  250.000000 499.666046 -17.500000
v  -250.000000 499.666046 -17.500000
v  213.665970 458.472717 250.000000
v  178.665970 458.472717 250.000000
v  178.665939 458.472717 -250.000000
v  213.665939 458.472717 -250.000000
v  213.665970 478.472717 250.000000
v  213.665939 478.472717 -250.000000
v  178.665939 478.472717 -250.000000
v  178.665970 478.472717 250.000000
v  -213.665955 458.472717 250.000000
v  -213.665955 458.472717 -250.000000
v  -178.665955 458.472717 -250.000000
v  -178.665955 458.472717 250.000000
v  -213.665955 478.472717 250.000000
v  -178.665955 478.472717 250.000000
v  -178.665955 478.472717 -250.000000
v  -213.665955 478.472717 -250.000000
v  17.500011 458.472717 250.000000
v  -17.499989 458.472717 250.000000
v  -17.500011 458.472717 -250.000000
v  17.499989 458.472717 -250.000000
v  17.500011 478.472717 250.000000
v  17.499989 478.472717 -250.000000
v  -17.500011 478.472717 -250.000000
v  -17.499989 478.472717 250.000000
v  -250.000000 479.666046 205.752045
v  -250.000000 479.666046 170.752045
v  250.000000 479.666046 170.752045
v  250.000000 479.666046 205.752045
v  -250.000000 499.666046 205.752045
v  250.000000 499.666046 205.752045
v  250.000000 499.666046 170.752045
v  -250.000000 499.666046 170.752045
v  -250.000000 479.666046 -205.752045
v  250.000000 479.666046 -205.752045
v  250.000000 479.666046 -170.752045
v  -250.000000 479.666046 -170.752045
v  -250.000000 499.666046 -205.752045
v  -250.000000 499.666046 -170.752045
v  250.000000 499.666046 -170.752045
v  250.000000 499.666046 -205.752045
# 48 vertices

vn 0.000000 -1.000000 -0.000000
vn 0.000000 1.000000 -0.000000
vn 0.000000 0.000000 1.000000
vn 1.000000 0.000000 -0.000000
vn 0.000000 0.000000 -1.000000
vn -1.000000 0.000000 -0.000000
vn -1.000000 0.000000 0.000000
# 7 vertex normals

vt 0.002181 0.684992 0.500000
vt 0.002181 0.552525 0.000000
vt 0.999544 0.552525 0.000000
vt 0.999544 0.684992 0.500000
vt 0.001303 0.782439 1.500000
vt 0.998666 0.782439 1.500000
vt 0.998666 0.914907 0.000000
vt 0.001303 0.914907 0.000000
vt 0.001655 0.697814 0.500000
vt 0.999018 0.697814 0.500000
vt 0.999018 0.773511 0.000000
vt 0.001655 0.773511 0.000000
vt 0.998594 0.424318 0.500000
vt 0.998594 0.545605 0.500000
vt 0.945209 0.545605 0.000000
vt 0.945209 0.424318 0.000000
vt 0.998666 1.000000 0.500000
vt 0.001303 1.000000 0.500000
vt 0.001303 0.924304 0.000000
vt 0.998666 0.924304 0.000000
vt 0.001963 0.545046 0.500000
vt 0.001963 0.423759 0.500000
vt 0.055348 0.423759 0.000000
vt 0.055348 0.545046 0.000000
vt 0.998666 0.296059 0.500000
vt 0.998666 0.417249 0.000000
vt 0.001303 0.417249 0.000000
vt 0.001303 0.296058 0.500000
vt 0.999544 0.206907 1.500000
vt 0.002181 0.206907 1.500000
vt 0.002181 0.085717 0.000000
vt 0.999544 0.085717 0.000000
vt 0.999192 0.284328 0.500000
vt 0.001829 0.284328 0.500000
vt 0.001829 0.215076 0.000000
vt 0.999192 0.215076 0.000000
vt 0.068780 0.545393 0.500000
vt 0.068780 0.423573 0.500000
vt 0.125639 0.423573 0.000000
vt 0.125639 0.545393 0.000000
vt 0.002181 0.007868 0.500000
vt 0.999544 0.007868 0.500000
vt 0.999544 0.077120 0.000000
vt 0.002181 0.077120 0.000000
vt 0.935503 0.422780 0.500000
vt 0.935503 0.545306 0.500000
vt 0.878777 0.545306 0.000000
vt 0.878777 0.422780 0.000000
# 48 texture coords

g Ceiling_5x5_Wood_Beams
s 2
f 1/1/1 2/2/1 3/3/1 4/4/1 
s 4
f 5/5/2 6/6/2 7/7/2 8/8/2 
s 8
f 1/9/3 4/10/3 6/11/3 5/12/3 
s 16
f 4/13/4 3/14/4 7/15/4 6/16/4 
s 32
f 3/17/5 2/18/5 8/19/5 7/20/5 
s 64
f 2/21/6 1/22/6 5/23/6 8/24/6 
s 2
f 9/25/1 10/26/1 11/27/1 12/28/1 
s 4
f 13/29/2 14/30/2 15/31/2 16/32/2 
s 8
f 9/33/4 12/34/4 14/35/4 13/36/4 
s 16
f 12/37/5 11/38/5 15/39/5 14/40/5 
s 32
f 11/41/7 10/42/7 16/43/7 15/44/7 
s 64
f 10/45/3 9/46/3 13/47/3 16/48/3 
s 2
f 17/25/1 18/28/1 19/27/1 20/26/1 
s 4
f 21/29/2 22/32/2 23/31/2 24/30/2 
s 8
f 17/33/6 21/36/6 24/35/6 18/34/6 
s 16
f 18/37/5 24/40/5 23/39/5 19/38/5 
s 32
f 19/41/4 23/44/4 22/43/4 20/42/4 
s 64
f 20/45/3 22/48/3 21/47/3 17/46/3 
s 2
f 25/25/1 26/26/1 27/27/1 28/28/1 
s 4
f 29/29/2 30/30/2 31/31/2 32/32/2 
s 8
f 25/33/4 28/34/4 30/35/4 29/36/4 
s 16
f 28/37/5 27/38/5 31/39/5 30/40/5 
s 32
f 27/41/7 26/42/7 32/43/7 31/44/7 
s 64
f 26/45/3 25/46/3 29/47/3 32/48/3 
s 2
f 33/1/1 34/2/1 35/3/1 36/4/1 
s 4
f 37/5/2 38/6/2 39/7/2 40/8/2 
s 8
f 33/9/3 36/10/3 38/11/3 37/12/3 
s 16
f 36/13/4 35/14/4 39/15/4 38/16/4 
s 32
f 35/17/5 34/18/5 40/19/5 39/20/5 
s 64
f 34/21/6 33/22/6 37/23/6 40/24/6 
s 2
f 41/1/1 42/4/1 43/3/1 44/2/1 
s 4
f 45/5/2 46/8/2 47/7/2 48/6/2 
s 8
f 41/9/5 45/12/5 48/11/5 42/10/5 
s 16
f 42/13/4 48/16/4 47/15/4 43/14/4 
s 32
f 43/17/3 47/20/3 46/19/3 44/18/3 
s 64
f 44/21/6 46/24/6 45/23/6 41/22/6 
# 36 polygons

