# 3ds Max Wavefront OBJ Exporter v0.97b - (c)2007 guruware
# File Created: 23.05.2015 16:18:36

#
# object Ceiling_5x5_Arched
#

v  -211.011108 609.375000 -250.000000
v  -211.011108 609.375000 250.000000
v  -250.000000 500.000000 250.000000
v  -250.000000 500.000000 -250.000000
v  -167.407181 687.500000 250.000000
v  -167.407181 687.500000 -250.000000
v  -83.703590 734.375000 250.000000
v  -83.703590 734.375000 -250.000000
v  0.000000 750.000000 250.000000
v  0.000000 750.000000 -250.000000
v  83.703590 734.375000 250.000000
v  83.703590 734.375000 -250.000000
v  167.407181 687.500000 250.000000
v  167.407181 687.500000 -250.000000
v  211.011108 609.375000 250.000000
v  211.011108 609.375000 -250.000000
v  250.000000 500.000000 -250.000000
v  250.000000 500.000000 250.000000
# 18 vertices

vn 0.910731 -0.413000 -0.000000
vn 0.941943 -0.335774 -0.000000
vn 0.707613 -0.706600 -0.000000
vn 0.340569 -0.940220 -0.000000
vn 0.000000 -1.000000 -0.000000
vn -0.000000 -1.000000 -0.000000
vn -0.340569 -0.940220 -0.000000
vn -0.707613 -0.706600 -0.000000
vn -0.910731 -0.413000 -0.000000
vn -0.941943 -0.335774 -0.000000
# 10 vertex normals

vt 0.150948 -0.000308 0.000000
vt 0.150948 0.999999 0.000000
vt 0.000894 0.999999 0.000000
vt 0.000894 -0.000308 0.000000
vt 0.266568 1.000000 0.000000
vt 0.266568 -0.000308 0.000000
vt 0.390542 1.000000 0.000000
vt 0.390542 -0.000308 0.000000
vt 0.500579 1.000000 0.000000
vt 0.500579 -0.000308 0.000000
vt 0.610616 1.000000 0.000000
vt 0.610616 -0.000308 0.000000
vt 0.734591 1.000000 0.000000
vt 0.734591 -0.000309 0.000000
vt 0.850210 1.000000 0.000000
vt 0.850210 -0.000309 0.000000
vt 1.000265 -0.000309 0.000000
vt 1.000265 1.000000 0.000000
# 18 texture coords

g Ceiling_5x5_Arched
s 1
f 1/1/1 2/2/1 3/3/2 4/4/2 
f 5/5/3 2/2/1 1/1/1 6/6/3 
f 7/7/4 5/5/3 6/6/3 8/8/4 
f 9/9/5 7/7/4 8/8/4 10/10/6 
f 11/11/7 9/9/5 10/10/6 12/12/7 
f 13/13/8 11/11/7 12/12/7 14/14/8 
f 15/15/9 13/13/8 14/14/8 16/16/9 
f 17/17/10 18/18/10 15/15/9 16/16/9 
# 8 polygons

