mtllib ./SewerFloor1_X5x5.mtl
g SewerFloor1_X5x5
v -0.4999998 1.490116E-08 2.5
v -2.5 1.490116E-08 2.5
v -0.4999998 1.490116E-08 0.5
v -2.5 1.490116E-08 0.5
v -2.5 1.490116E-08 -2.5
v -0.4999998 1.490116E-08 -2.5
v -2.5 1.490116E-08 -0.5
v -0.4999998 1.490116E-08 -0.5
v 0.5000002 1.490116E-08 -2.5
v 2.5 1.490116E-08 -2.5
v 0.5000002 1.490116E-08 -0.5
v 2.5 1.490116E-08 -0.5
v 2.5 1.490116E-08 2.5
v 0.5000002 1.490116E-08 2.5
v 2.5 1.490116E-08 0.5
v 0.5000002 1.490116E-08 0.5
v -0.4999998 1.490116E-08 0.5
v -2.5 1.490116E-08 0.5
v -0.4999998 -0.2 0.5
v -2.5 -0.2 0.5
v -2.5 1.490116E-08 -0.5
v -0.4999998 1.490116E-08 -0.5
v -2.5 -0.2 -0.5
v -0.4999998 -0.2 -0.5
v 0.5000002 1.490116E-08 -0.5
v 2.5 1.490116E-08 -0.5
v 0.5000002 -0.2 -0.5
v 2.5 -0.2 -0.5
v 2.5 1.490116E-08 0.5
v 0.5000002 1.490116E-08 0.5
v 2.5 -0.2 0.5
v 0.5000002 -0.2 0.5
v -0.4999998 -0.2 2.5
v -0.4999998 1.490116E-08 2.5
v -0.4999998 -0.2 0.5
v -0.4999998 1.490116E-08 0.5
v -0.4999998 1.490116E-08 -2.5
v -0.4999998 -0.2 -2.5
v -0.4999998 1.490116E-08 -0.5
v -0.4999998 -0.2 -0.5
v 0.5000002 -0.2 -2.5
v 0.5000002 1.490116E-08 -2.5
v 0.5000002 -0.2 -0.5
v 0.5000002 1.490116E-08 -0.5
v 0.5000002 1.490116E-08 2.5
v 0.5000002 -0.2 2.5
v 0.5000002 1.490116E-08 0.5
v 0.5000002 -0.2 0.5
v 2.5 -0.2 -0.5
v 2.5 -0.2 0.5
v 0.5000002 -0.2 -0.5
v 0.5000002 -0.2 0.5
v 0.5000002 -0.2 2.5
v -0.4999998 -0.2 2.5
v 0.5000002 -0.2 -2.5
v -0.4999998 -0.2 -2.5
v -2.5 -0.2 0.5
v -2.5 -0.2 -0.5
v -0.4999998 -0.2 0.5
v -0.4999998 -0.2 -0.5

vn 0 1 0
vn 0 1 0
vn 0 1 0
vn 0 1 0
vn 0 1 0
vn 0 1 0
vn 0 1 0
vn 0 1 0
vn 0 1 0
vn 0 1 0
vn 0 1 0
vn 0 1 0
vn 0 1 0
vn 0 1 0
vn 0 1 0
vn 0 1 0
vn 0 0 -1
vn 0 0 -1
vn 0 0 -1
vn 0 0 -1
vn 0 0 1
vn 0 0 1
vn 0 0 1
vn 0 0 1
vn 0 0 1
vn 0 0 1
vn 0 0 1
vn 0 0 1
vn 0 0 -1
vn 0 0 -1
vn 0 0 -1
vn 0 0 -1
vn 1 0 0
vn 1 0 0
vn 1 0 0
vn 1 0 0
vn 1 0 0
vn 1 0 0
vn 1 0 0
vn 1 0 0
vn -1 0 0
vn -1 0 0
vn -1 0 0
vn -1 0 0
vn -1 0 0
vn -1 0 0
vn -1 0 0
vn -1 0 0
vn 0 1 0
vn 0 1 0
vn 0 1 0
vn 0 1 0
vn 0 1 0
vn 0 1 0
vn 0 1 0
vn 0 1 0
vn 0 1 0
vn 0 1 0
vn 0 1 0
vn 0 1 0

vt 0.6 1
vt 1 1
vt 0.6 0.6
vt 1 0.6
vt 1 0
vt 0.6 0
vt 1 0.4
vt 0.6 0.4
vt 0.4 0
vt 0 0
vt 0.4 0.4
vt 0 0.4
vt 0 1
vt 0.4 1
vt 0 0.6
vt 0.4 0.6
vt 0.6000001 0.6
vt 1 0.6
vt 0.6000001 0.56
vt 1 0.56
vt 1 0.4
vt 0.6000001 0.4
vt 1 0.44
vt 0.6000001 0.44
vt 0.4 0.4
vt -2.980232E-08 0.4
vt 0.4 0.44
vt -2.980232E-08 0.44
vt 0 0.6
vt 0.4 0.6
vt 0 0.56
vt 0.4 0.56
vt 0.56 1
vt 0.6 1
vt 0.56 0.6000001
vt 0.6 0.6000001
vt 0.6 1.490116E-08
vt 0.56 1.490116E-08
vt 0.6 0.4
vt 0.56 0.4
vt 0.44 4.470348E-08
vt 0.4 4.470348E-08
vt 0.44 0.4
vt 0.4 0.4
vt 0.4 1
vt 0.44 1
vt 0.4 0.6
vt 0.44 0.6
vt -1.490116E-08 0.3998576
vt -1.490116E-08 0.5998576
vt 0.4 0.3998576
vt 0.4 0.5998576
vt 0.4000343 0.9999998
vt 0.6000344 0.9999998
vt 0.4000343 -2.384186E-07
vt 0.6000344 -2.384186E-07
vt 0.9998346 0.5995545
vt 0.9998346 0.3995545
vt 0.5998346 0.5995545
vt 0.5998346 0.3995545

g Default_Prototype
usemtl Default_Prototype
usemap Default_Prototype
f 2/2/2 1/1/1 3/3/3
f 4/4/4 2/2/2 3/3/3
f 6/6/6 5/5/5 7/7/7
f 8/8/8 6/6/6 7/7/7
f 10/10/10 9/9/9 11/11/11
f 12/12/12 10/10/10 11/11/11
f 14/14/14 13/13/13 15/15/15
f 16/16/16 14/14/14 15/15/15
f 18/18/18 17/17/17 19/19/19
f 20/20/20 18/18/18 19/19/19
f 22/22/22 21/21/21 23/23/23
f 24/24/24 22/22/22 23/23/23
f 26/26/26 25/25/25 27/27/27
f 28/28/28 26/26/26 27/27/27
f 30/30/30 29/29/29 31/31/31
f 32/32/32 30/30/30 31/31/31
f 34/34/34 33/33/33 35/35/35
f 36/36/36 34/34/34 35/35/35
f 38/38/38 37/37/37 39/39/39
f 40/40/40 38/38/38 39/39/39
f 42/42/42 41/41/41 43/43/43
f 44/44/44 42/42/42 43/43/43
f 46/46/46 45/45/45 47/47/47
f 48/48/48 46/46/46 47/47/47

g Default-Material
usemtl Default-Material
usemap Default-Material
f 50/50/50 49/49/49 51/51/51
f 52/52/52 50/50/50 51/51/51
f 54/54/54 53/53/53 55/55/55
f 56/56/56 54/54/54 55/55/55
f 58/58/58 57/57/57 59/59/59
f 60/60/60 58/58/58 59/59/59
