mtllib ./SewerFloor1_Eb5x5.mtl
g SewerFloor1_Eb5x5
v 2.5 -0.2 -0.4999991
v 2.5 -0.2 0.5000009
v -0.4999998 -0.2 -0.5000002
v -0.5000002 -0.2 0.4999998
v -0.4999998 -0.2 -0.5000002
v -0.5000002 -0.2 0.4999998
v -0.4999998 -2.980232E-08 -0.5000002
v -0.5000002 -2.980232E-08 0.4999998
v 2.5 -2.980232E-08 -0.4999991
v 2.5 -0.2 -0.4999991
v -0.4999998 -2.980232E-08 -0.5000002
v -0.4999998 -0.2 -0.5000002
v 2.5 -0.2 0.5000009
v 2.5 -2.980232E-08 0.5000009
v -0.5000002 -0.2 0.4999998
v -0.5000002 -2.980232E-08 0.4999998
v -2.499999 -2.980232E-08 -2.500001
v 2.500001 -2.980232E-08 -2.499999
v -2.5 -2.980232E-08 -0.5000009
v 2.5 -2.980232E-08 -0.4999991
v -0.4999998 -2.980232E-08 -0.5000002
v -0.5000002 -2.980232E-08 0.4999998
v -2.5 -2.980232E-08 -0.5000009
v -2.5 -2.980232E-08 0.4999991
v 2.499999 -2.980232E-08 2.500001
v -2.500001 -2.980232E-08 2.499999
v 2.5 -2.980232E-08 0.5000009
v -2.5 -2.980232E-08 0.4999991

vn 0 1 0
vn 0 1 0
vn 0 1 0
vn 0 1 0
vn 1 0 3.576279E-07
vn 1 0 3.576279E-07
vn 1 0 3.576279E-07
vn 1 0 3.576279E-07
vn -3.576279E-07 0 1
vn -3.576279E-07 0 1
vn -3.576279E-07 0 1
vn -3.576279E-07 0 1
vn 3.576279E-07 0 -1
vn 3.576279E-07 0 -1
vn 3.576279E-07 0 -1
vn 3.576279E-07 0 -1
vn 0 1 0
vn 0 1 0
vn 0 1 0
vn 0 1 0
vn 0 1 0
vn 0 1 0
vn 0 1 0
vn 0 1 0
vn 0 1 0
vn 0 1 0
vn 0 1 0
vn 0 1 0

vt 0.001028074 0.4002509
vt 0.001202325 0.5999408
vt 0.6000975 0.3997281
vt 0.6002718 0.599418
vt 0.5601596 0.399763
vt 0.5603338 0.5994529
vt 0.6000975 0.3997281
vt 0.6002718 0.599418
vt 0.0008662939 0.4009724
vt 0.0009011626 0.4410023
vt 0.6013143 0.4004486
vt 0.6013491 0.4404784
vt -5.960464E-08 0.5593114
vt 3.480911E-05 0.5993413
vt 0.600448 0.5587876
vt 0.6004828 0.5988175
vt 0.9991288 0
vt 0.0006795701 0.0008712888
vt 0.9994773 0.3993796
vt 0.001028074 0.4002509
vt 0.6000975 0.3997281
vt 0.6002718 0.599418
vt 0.9994773 0.3993796
vt 0.9996515 0.5990695
vt 0.001550829 0.9993204
vt 1 0.9984491
vt 0.001202325 0.5999408
vt 0.9996515 0.5990695

g Default-Material
usemtl Default-Material
usemap Default-Material
f 2/2/2 1/1/1 3/3/3
f 4/4/4 2/2/2 3/3/3

g Default_Prototype
usemtl Default_Prototype
usemap Default_Prototype
f 6/6/6 5/5/5 7/7/7
f 8/8/8 6/6/6 7/7/7
f 10/10/10 9/9/9 11/11/11
f 12/12/12 10/10/10 11/11/11
f 14/14/14 13/13/13 15/15/15
f 16/16/16 14/14/14 15/15/15
f 18/18/18 17/17/17 19/19/19
f 20/20/20 18/18/18 19/19/19
f 22/22/22 21/21/21 23/23/23
f 24/24/24 22/22/22 23/23/23
f 26/26/26 25/25/25 27/27/27
f 28/28/28 26/26/26 27/27/27
