mtllib ./SewerFloor1_Cb5x5.mtl
g SewerFloor1_Cb5x5
v 2.5 0 0.4999991
v 2.5 0 2.499999
v 0.5000001 0 0.4999994
v 0.5000004 0 2.499999
v 0.5000001 0 0.4999994
v 0.5000004 0 2.499999
v 0.5000001 -0.2 0.4999994
v 0.5000004 -0.2 2.499999
v 2.5 -0.2 0.4999991
v 2.5 0 0.4999991
v 0.5000001 -0.2 0.4999994
v 0.5000001 0 0.4999994
v -2.5 0 2.5
v -2.5 0 0.5
v -0.4999995 0 2.5
v -0.4999999 0 0.4999996
v -0.5000001 0 -0.5000004
v -2.5 0 -0.5
v -2.5 0 -2.5
v 2.5 0 -2.500001
v -2.5 0 -0.5
v 2.5 0 -0.500001
v -0.5000001 -0.2 -0.5000004
v -0.4999999 -0.2 0.4999996
v -0.5000001 0 -0.5000004
v -0.4999999 0 0.4999996
v -0.4999995 0 2.5
v -0.4999995 -0.2 2.5
v 2.5 0 -0.500001
v 2.5 -0.2 -0.500001
v -0.5000001 0 -0.5000004
v -0.5000001 -0.2 -0.5000004
v 0.5000004 -0.2 2.499999
v -0.4999995 -0.2 2.5
v 0.5000001 -0.2 0.4999994
v -0.4999999 -0.2 0.4999996
v 2.5 -0.2 -0.500001
v 2.5 -0.2 0.4999991
v -0.5000001 -0.2 -0.5000004
v -0.4999999 -0.2 0.4999996

vn 0 1 0
vn 0 1 0
vn 0 1 0
vn 0 1 0
vn -1 0 1.78814E-07
vn -1 0 1.78814E-07
vn -1 0 1.78814E-07
vn -1 0 1.78814E-07
vn -1.788139E-07 1.490116E-07 -1
vn -1.713633E-07 7.45058E-08 -1
vn -1.713633E-07 7.45058E-08 -1
vn -1.639127E-07 0 -1
vn 0 1 0
vn 0 1 0
vn 0 1 0
vn 0 1 0
vn 0 1 0
vn 0 1 0
vn 0 1 0
vn 0 1 0
vn 0 1 0
vn 0 1 0
vn 1 0 -2.384186E-07
vn 1 0 -2.384186E-07
vn 1 0 -2.384186E-07
vn 1 0 -2.384186E-07
vn 1 0 -1.788139E-07
vn 1 0 -1.788139E-07
vn 1.986821E-07 0 1
vn 1.986821E-07 0 1
vn 1.986821E-07 0 1
vn 1.986821E-07 0 1
vn 0 1 0
vn 0 1 0
vn 0 1 0
vn 0 1 0
vn 0 1 0
vn 0 1 0
vn 0 1 0
vn 0 1 0

vt 0.0005163331 0.5992255
vt 0 0.9987091
vt 0.4 0.5997418
vt 0.3994837 0.9992254
vt 0.4 0.5997417
vt 0.3994836 0.9992254
vt 0.4399484 0.5997934
vt 0.439432 0.999277
vt 0.0005679429 0.5592772
vt 0.0005163401 0.5992256
vt 0.4000516 0.5597932
vt 0.4 0.5997416
vt 0.9987092 0.9999999
vt 0.9992254 0.6005163
vt 0.5992256 0.9994836
vt 0.5997418 0.5999999
vt 0.6 0.4002581
vt 0.9994836 0.4007744
vt 1 0.001290699
vt 0.001290788 0
vt 0.9994836 0.4007744
vt 0.0007744847 0.3994836
vt 0.5608436 0.3992952
vt 0.5605848 0.5994967
vt 0.6008839 0.3993469
vt 0.6006252 0.5995484
vt 0.6001077 0.9999513
vt 0.5600674 0.9998995
vt 0.0004576445 0.3989441
vt 0.0004059076 0.4389843
vt 0.601062 0.3997203
vt 0.6010101 0.4397605
vt 0.4001999 0.9996408
vt 0.6004014 0.9998995
vt 0.4007175 0.5992379
vt 0.6009189 0.5994967
vt 0.0005733822 0.3985189
vt 0.0003145748 0.5987204
vt 0.6011776 0.3992952
vt 0.6009189 0.5994967

g Default_Prototype
usemtl Default_Prototype
usemap Default_Prototype
f 2/2/2 1/1/1 3/3/3
f 4/4/4 2/2/2 3/3/3
f 6/6/6 5/5/5 7/7/7
f 8/8/8 6/6/6 7/7/7
f 10/10/10 9/9/9 11/11/11
f 12/12/12 10/10/10 11/11/11
f 14/14/14 13/13/13 15/15/15
f 16/16/16 14/14/14 15/15/15
f 16/16/16 17/17/17 18/18/18
f 14/14/14 16/16/16 18/18/18
f 20/20/20 19/19/19 21/21/21
f 22/22/22 20/20/20 21/21/21
f 24/24/24 23/23/23 25/25/25
f 26/26/26 24/24/24 25/25/25
f 26/26/26 27/27/27 28/28/28
f 24/24/24 26/26/26 28/28/28
f 30/30/30 29/29/29 31/31/31
f 32/32/32 30/30/30 31/31/31

g Default-Material
usemtl Default-Material
usemap Default-Material
f 34/34/34 33/33/33 35/35/35
f 36/36/36 34/34/34 35/35/35
f 38/38/38 37/37/37 39/39/39
f 40/40/40 38/38/38 39/39/39
