mtllib ./SewerFloor1_Tb5x5.mtl
g SewerFloor1_Tb5x5
v -2.499999 0 -2.500001
v 2.500001 0 -2.5
v -2.5 0 -0.5000014
v 2.5 0 -0.4999996
v -2.5 0 -0.5000014
v 2.5 0 -0.4999996
v -2.5 -0.2 -0.5000014
v 2.5 -0.2 -0.4999996
v 2.5 0 0.5000004
v 2.499999 0 2.5
v 0.4999998 0 0.4999997
v 0.4999991 0 2.5
v -2.500001 0 2.499999
v -2.5 0 0.4999986
v -0.5000009 0 2.499999
v -0.5000002 0 0.4999994
v 0.4999998 0 0.4999997
v 0.4999991 0 2.5
v 0.4999998 -0.2 0.4999997
v 0.4999991 -0.2 2.5
v -0.5000009 0 2.499999
v -0.5000002 0 0.4999994
v -0.5000009 -0.2 2.499999
v -0.5000002 -0.2 0.4999993
v 2.5 -0.2 0.5000004
v 2.5 0 0.5000004
v 0.4999998 -0.2 0.4999997
v 0.4999998 0 0.4999997
v -2.5 0 0.4999986
v -2.5 -0.2 0.4999986
v -0.5000002 0 0.4999994
v -0.5000002 -0.2 0.4999993
v 0.4999991 -0.2 2.5
v -0.5000009 -0.2 2.499999
v 0.4999998 -0.2 0.4999997
v -0.5000002 -0.2 0.4999993
v 2.5 -0.2 -0.4999996
v 2.5 -0.2 0.5000004
v -2.5 -0.2 -0.5000014
v -2.5 -0.2 0.4999986

vn 0 1 0
vn 0 1 0
vn 0 1 0
vn 0 1 0
vn -3.576279E-07 0 1
vn -3.576279E-07 0 1
vn -3.576279E-07 0 1
vn -3.576279E-07 0 1
vn 0 1 0
vn 0 1 0
vn 0 1 0
vn 0 1 0
vn 0 1 0
vn 0 1 0
vn 0 1 0
vn 0 1 0
vn -1 0 -3.427267E-07
vn -1 7.450581E-08 -3.501773E-07
vn -1 7.450581E-08 -3.501773E-07
vn -1 1.490116E-07 -3.576278E-07
vn 1 0 3.576279E-07
vn 1 -2.664536E-14 3.576279E-07
vn 1 -2.664536E-14 3.576279E-07
vn 1 -5.329071E-14 3.576279E-07
vn 3.576279E-07 0 -1
vn 3.576279E-07 0 -1
vn 3.576279E-07 0 -1
vn 3.576279E-07 0 -1
vn 3.72529E-07 0 -1
vn 3.650784E-07 7.450581E-08 -1
vn 3.650784E-07 7.450581E-08 -1
vn 3.576279E-07 1.490116E-07 -1
vn 0 1 0
vn 0 1 0
vn 0 1 0
vn 0 1 0
vn 0 1 0
vn 0 1 0
vn 0 1 0
vn 0 1 0

vt 0.9996411 0
vt 0.001369832 0.0003598448
vt 0.9997852 0.3993074
vt 0.001513962 0.3996674
vt 0.9997853 0.3993151
vt 0.001513988 0.3996598
vt 0.9997991 0.4392459
vt 0.001527786 0.4395906
vt 0.001584888 0.5993221
vt 0.001728838 0.9986303
vt 0.400893 0.5991783
vt 0.4010369 0.9984864
vt 1 0.9982712
vt 0.9998561 0.598963
vt 0.6006919 0.9984152
vt 0.600548 0.599107
vt 0.4008931 0.5991782
vt 0.4010369 0.9984864
vt 0.4408239 0.5991638
vt 0.4409677 0.998472
vt 0.6006919 0.9984152
vt 0.600548 0.599107
vt 0.5607611 0.9984295
vt 0.5606172 0.5991213
vt 0.001570559 0.5593938
vt 0.001585248 0.5993217
vt 0.400879 0.559247
vt 0.4008936 0.599175
vt 0.9998561 0.5989661
vt 0.9998423 0.5590353
vt 0.600548 0.599104
vt 0.6005343 0.5591732
vt 0.3995246 0.9970791
vt 0.5991789 0.9970072
vt 0.3993807 0.5977711
vt 0.599035 0.597699
vt 0 0.3982609
vt 7.194497E-05 0.597915
vt 0.9982715 0.397901
vt 0.9983435 0.5975552

g Default_Prototype
usemtl Default_Prototype
usemap Default_Prototype
f 2/2/2 1/1/1 3/3/3
f 4/4/4 2/2/2 3/3/3
f 6/6/6 5/5/5 7/7/7
f 8/8/8 6/6/6 7/7/7
f 10/10/10 9/9/9 11/11/11
f 12/12/12 10/10/10 11/11/11
f 14/14/14 13/13/13 15/15/15
f 16/16/16 14/14/14 15/15/15
f 18/18/18 17/17/17 19/19/19
f 20/20/20 18/18/18 19/19/19
f 22/22/22 21/21/21 23/23/23
f 24/24/24 22/22/22 23/23/23
f 26/26/26 25/25/25 27/27/27
f 28/28/28 26/26/26 27/27/27
f 30/30/30 29/29/29 31/31/31
f 32/32/32 30/30/30 31/31/31

g Default-Material
usemtl Default-Material
usemap Default-Material
f 34/34/34 33/33/33 35/35/35
f 36/36/36 34/34/34 35/35/35
f 38/38/38 37/37/37 39/39/39
f 40/40/40 38/38/38 39/39/39
