mtllib ./SewerFloor1_Ed5x5.mtl
g SewerFloor1_Ed5x5
v -2.5 -0.2 0.4999979
v -2.499999 -0.2 -0.500002
v 0.4999996 -0.2 0.5000004
v 0.5000004 -0.2 -0.4999996
v 0.4999996 -0.2 0.5000004
v 0.5000004 -0.2 -0.4999996
v 0.4999996 -2.980232E-08 0.5000004
v 0.5000004 -2.980232E-08 -0.4999996
v -2.5 -2.980232E-08 0.4999979
v -2.5 -0.2 0.4999979
v 0.4999996 -2.980232E-08 0.5000004
v 0.4999996 -0.2 0.5000004
v -2.499999 -0.2 -0.500002
v -2.499999 -2.980232E-08 -0.500002
v 0.5000004 -0.2 -0.4999996
v 0.5000004 -2.980232E-08 -0.4999996
v 2.5 -2.980232E-08 -0.4999979
v 2.5 -0.2 -0.4999979
v 2.499998 -2.980232E-08 2.500002
v -2.500002 -2.980232E-08 2.499998
v 2.499999 -2.980232E-08 0.500002
v -2.5 -2.980232E-08 0.4999979
v 0.4999996 -2.980232E-08 0.5000004
v 0.5000004 -2.980232E-08 -0.4999996
v 2.499999 -2.980232E-08 0.500002
v 2.5 -2.980232E-08 -0.4999979
v -2.499998 -2.980232E-08 -2.500002
v 2.500002 -2.980232E-08 -2.499998
v -2.499999 -2.980232E-08 -0.500002
v 2.5 -2.980232E-08 -0.4999979

vn 0 0.9999999 0
vn 0 0.9999999 0
vn 0 0.9999999 0
vn 0 0.9999999 0
vn -0.9999999 0 -8.046628E-07
vn -0.9999999 0 -8.046628E-07
vn -0.9999999 0 -8.046628E-07
vn -0.9999999 0 -8.046628E-07
vn 8.24531E-07 0 -1
vn 8.24531E-07 0 -1
vn 8.24531E-07 0 -1
vn 8.24531E-07 0 -1
vn -8.245311E-07 0 1
vn -8.245311E-07 0 1
vn -8.245311E-07 0 1
vn -8.245311E-07 0 1
vn 1 0 0
vn 1 0 0
vn 0 1 0
vn 0 1 0
vn 0 1 0
vn 0 1 0
vn 0 1 0
vn 0 1 0
vn 0 1 0
vn 0 1 0
vn 0 1 0
vn 0 1 0
vn 0 1 0
vn 0 1 0

vt 0.999084 0.5989161
vt 0.9987913 0.3992901
vt 0.4001551 0.5997938
vt 0.3998625 0.4001679
vt 0.4400778 0.5997366
vt 0.4397916 0.4000915
vt 0.4001488 0.5997939
vt 0.3998626 0.4001487
vt 0.9998044 0.5987331
vt 0.9997474 0.5587061
vt 0.3994902 0.5995877
vt 0.3994333 0.5595607
vt 1 0.4397776
vt 0.9999431 0.3997509
vt 0.399686 0.4406321
vt 0.399629 0.4006054
vt 0.001431009 0.9996563
vt 0.001431009 0.9996563
vt 0.001421928 0.9996562
vt 0.9996567 0.9982345
vt 0.0008533001 0.6003625
vt 0.9990878 0.5989406
vt 0.400147 0.5997939
vt 0.3998625 0.4001467
vt 0.0008533001 0.6003625
vt 0.0005688667 0.4007156
vt 0.9982347 0
vt 0 0.00142169
vt 0.9988034 0.3992937
vt 0.0005688667 0.4007156

g Default-Material
usemtl Default-Material
usemap Default-Material
f 2/2/2 1/1/1 3/3/3
f 4/4/4 2/2/2 3/3/3

g Default_Prototype
usemtl Default_Prototype
usemap Default_Prototype
f 6/6/6 5/5/5 7/7/7
f 8/8/8 6/6/6 7/7/7
f 10/10/10 9/9/9 11/11/11
f 12/12/12 10/10/10 11/11/11
f 14/14/14 13/13/13 15/15/15
f 16/16/16 14/14/14 15/15/15
f 18/18/18 17/17/17 17/17/17
f 20/20/20 19/19/19 21/21/21
f 22/22/22 20/20/20 21/21/21
f 24/24/24 23/23/23 25/25/25
f 26/26/26 24/24/24 25/25/25
f 28/28/28 27/27/27 29/29/29
f 30/30/30 28/28/28 29/29/29
