mtllib ./SewerFloor1_V5x5.mtl
g SewerFloor1_V5x5
v 0.5 -0.2 2.5
v -0.5 -0.2 2.5
v 0.5 -0.2 -2.5
v -0.5 -0.2 -2.5
v 2.5 -2.980232E-08 2.5
v -2.5 -2.980232E-08 2.5
v 2.5 -2.980232E-08 -2.5
v -2.5 -2.980232E-08 -2.5
v 0.5 -2.980232E-08 2.5
v -0.5 -2.980232E-08 2.5
v 2.5 -2.980232E-08 -2.5
v 2.5 -2.980232E-08 2.5
v 0.5 -2.980232E-08 -2.5
v 0.5 -2.980232E-08 2.5
v -2.5 -2.980232E-08 2.5
v -2.5 -2.980232E-08 -2.5
v -0.5 -2.980232E-08 2.5
v -0.5 -2.980232E-08 -2.5
v -0.5 -2.980232E-08 -2.5
v 0.5 -2.980232E-08 -2.5
v 0.5 -2.980232E-08 -2.5
v 0.5 -2.980232E-08 2.5
v 0.5 -0.2 -2.5
v 0.5 -0.2 2.5
v -0.5 -2.980232E-08 2.5
v -0.5 -2.980232E-08 -2.5
v -0.5 -0.2 2.5
v -0.5 -0.2 -2.5

vn 0 1 0
vn 0 1 0
vn 0 1 0
vn 0 1 0
vn 0 0 0
vn 0 0 0
vn 0 0 0
vn 0 0 0
vn 0 0 0
vn 0 0 0
vn 0 1 0
vn 0 1 0
vn 0 1 0
vn 0 1 0
vn 0 1 0
vn 0 1 0
vn 0 1 0
vn 0 1 0
vn 0 0 0
vn 0 0 0
vn -1 0 0
vn -1 0 0
vn -1 0 0
vn -1 0 0
vn 1 0 0
vn 1 0 0
vn 1 0 0
vn 1 0 0

vt 0.4005882 1
vt 0.6005882 1
vt 0.4005882 5.960464E-08
vt 0.6005882 5.960464E-08
vt 0 0
vt 0 0
vt 0 0
vt 0 0
vt 0 0
vt 0 0
vt 0 0
vt 0 1
vt 0.4 0
vt 0.4 1
vt 1 1
vt 1 0
vt 0.6 1
vt 0.6 0
vt 0 0
vt 0 0
vt 0.4 0
vt 0.4 1
vt 0.44 0
vt 0.44 1
vt 0.6 1
vt 0.6 0
vt 0.56 1
vt 0.56 0

g Default-Material
usemtl Default-Material
usemap Default-Material
f 2/2/2 1/1/1 3/3/3
f 4/4/4 2/2/2 3/3/3

g Default_Prototype
usemtl Default_Prototype
usemap Default_Prototype
f 6/6/6 5/5/5 5/5/5
f 6/6/6 6/6/6 5/5/5
f 5/5/5 7/7/7 7/7/7
f 5/5/5 5/5/5 7/7/7
f 8/8/8 6/6/6 6/6/6
f 8/8/8 8/8/8 6/6/6
f 7/7/7 8/8/8 8/8/8
f 7/7/7 7/7/7 8/8/8
f 6/6/6 5/5/5 5/5/5
f 6/6/6 6/6/6 5/5/5
f 5/5/5 7/7/7 7/7/7
f 5/5/5 5/5/5 7/7/7
f 8/8/8 6/6/6 6/6/6
f 8/8/8 8/8/8 6/6/6
f 7/7/7 8/8/8 8/8/8
f 7/7/7 7/7/7 8/8/8
f 6/6/6 5/5/5 9/9/9
f 10/10/10 6/6/6 9/9/9
f 12/12/12 11/11/11 13/13/13
f 14/14/14 12/12/12 13/13/13
f 16/16/16 15/15/15 17/17/17
f 18/18/18 16/16/16 17/17/17
f 7/7/7 8/8/8 19/19/19
f 20/20/20 7/7/7 19/19/19
f 22/22/22 21/21/21 23/23/23
f 24/24/24 22/22/22 23/23/23
f 26/26/26 25/25/25 27/27/27
f 28/28/28 26/26/26 27/27/27
