mtllib ./SewerFloor1_Tc5x5.mtl
g SewerFloor1_Tc5x5
v -2.500003 0 2.499998
v -2.499998 0 -2.500002
v -0.5000026 0 2.5
v -0.4999983 0 -2.5
v -0.5000026 0 2.5
v -0.4999983 0 -2.5
v -0.5000026 -0.2 2.5
v -0.4999983 -0.2 -2.5
v 0.5000017 0 -2.5
v 2.500002 0 -2.499998
v 0.4999999 0 -0.4999996
v 2.5 0 -0.4999979
v 2.499997 0 2.500002
v 0.4999974 0 2.5
v 2.499999 0 0.5000021
v 0.4999991 0 0.5000004
v 0.4999999 0 -0.4999996
v 2.5 0 -0.4999979
v 0.4999999 -0.2 -0.4999996
v 2.5 -0.2 -0.4999979
v 2.499999 0 0.5000021
v 0.4999991 0 0.5000004
v 2.499999 -0.2 0.5000021
v 0.4999991 -0.2 0.5000004
v 0.5000017 -0.2 -2.5
v 0.5000017 0 -2.5
v 0.4999999 -0.2 -0.4999996
v 0.4999999 0 -0.4999996
v 0.4999974 0 2.5
v 0.4999974 -0.2 2.5
v 0.4999991 0 0.5000004
v 0.4999991 -0.2 0.5000004
v 2.5 -0.2 -0.4999979
v 2.499999 -0.2 0.5000021
v 0.4999999 -0.2 -0.4999996
v 0.4999991 -0.2 0.5000004
v -0.4999983 -0.2 -2.5
v 0.5000017 -0.2 -2.5
v -0.5000026 -0.2 2.5
v 0.4999974 -0.2 2.5

vn 0 1 0
vn 0 1 0
vn 0 1 0
vn 0 1 0
vn 1 0 8.583069E-07
vn 1 0 8.583069E-07
vn 1 0 8.583069E-07
vn 1 0 8.583069E-07
vn 0 1 0
vn 0 1 0
vn 0 1 0
vn 0 1 0
vn 0 1 0
vn 0 1 0
vn 0 1 0
vn 0 1 0
vn -8.791685E-07 1.490115E-07 1
vn -8.71718E-07 7.450574E-08 1
vn -8.71718E-07 7.450574E-08 1
vn -8.642673E-07 0 1
vn 8.642673E-07 0 -1
vn 8.642673E-07 0 -1
vn 8.642673E-07 0 -1
vn 8.642673E-07 0 -1
vn -1 0 -8.642673E-07
vn -1 -7.45061E-08 -8.71718E-07
vn -1 -7.45061E-08 -8.71718E-07
vn -1 -1.490122E-07 -8.791686E-07
vn -1 0 -8.642673E-07
vn -1 0 -8.642673E-07
vn -1 0 -8.642673E-07
vn -1 0 -8.642673E-07
vn 0 1 0
vn 0 1 0
vn 0 1 0
vn 0 1 0
vn 0 1 0
vn 0 1 0
vn 0 1 0
vn 0 1 0

vt 1 0.9991549
vt 0.9991549 0
vt 0.600338 0.9994929
vt 0.599493 0.0003380302
vt 0.600338 0.9994929
vt 0.599493 0.0003380179
vt 0.5603718 0.9995267
vt 0.5595268 0.0003718138
vt 0.3996619 0.0005070452
vt 0 0.0008450755
vt 0.3999999 0.400169
vt 0.0003380302 0.400507
vt 0.0008450159 1
vt 0.400507 0.999662
vt 0.0005070155 0.600338
vt 0.400169 0.6
vt 0.4 0.4001837
vt 0.0003380477 0.4004923
vt 0.4000308 0.4401499
vt 0.000368908 0.4404584
vt 0.0005070567 0.6003233
vt 0.400169 0.6000148
vt 0.0004761964 0.5603572
vt 0.4001381 0.5600486
vt 0.4396281 0.0004732311
vt 0.3996619 0.0005070418
vt 0.4399662 0.4001351
vt 0.4 0.400169
vt 0.400507 0.999662
vt 0.4404732 0.9996282
vt 0.4001689 0.6000001
vt 0.4401351 0.5999663
vt 0.0002101076 0.400507
vt 0.0003790929 0.600338
vt 0.3998719 0.400169
vt 0.400041 0.6
vt 0.5993649 0.0003381493
vt 0.399534 0.0005071644
vt 0.60021 0.9994929
vt 0.400379 0.999662

g Default_Prototype
usemtl Default_Prototype
usemap Default_Prototype
f 2/2/2 1/1/1 3/3/3
f 4/4/4 2/2/2 3/3/3
f 6/6/6 5/5/5 7/7/7
f 8/8/8 6/6/6 7/7/7
f 10/10/10 9/9/9 11/11/11
f 12/12/12 10/10/10 11/11/11
f 14/14/14 13/13/13 15/15/15
f 16/16/16 14/14/14 15/15/15
f 18/18/18 17/17/17 19/19/19
f 20/20/20 18/18/18 19/19/19
f 22/22/22 21/21/21 23/23/23
f 24/24/24 22/22/22 23/23/23
f 26/26/26 25/25/25 27/27/27
f 28/28/28 26/26/26 27/27/27
f 30/30/30 29/29/29 31/31/31
f 32/32/32 30/30/30 31/31/31

g Default-Material
usemtl Default-Material
usemap Default-Material
f 34/34/34 33/33/33 35/35/35
f 36/36/36 34/34/34 35/35/35
f 38/38/38 37/37/37 39/39/39
f 40/40/40 38/38/38 39/39/39
