mtllib ./SewerFloor1_Ea5x5.mtl
g SewerFloor1_Ea5x5
v 2.5 -2.980232E-08 2.5
v -2.5 -2.980232E-08 2.5
v 2.5 -2.980232E-08 -2.5
v -2.5 -2.980232E-08 -2.5
v 0.5 -2.980232E-08 2.5
v -0.5 -2.980232E-08 2.5
v -0.5 -2.980232E-08 -2.5
v 0.5 -2.980232E-08 -2.5
v 0.5 -0.2 2.5
v -0.5 -0.2 2.5
v 0.5 -0.2 -2.5
v -0.5 -0.2 -2.5
v 0.5 -0.2 -0.5
v -0.5 -0.2 -0.5
v 0.5 -0.2 -0.5
v -0.5 -0.2 -0.5
v 0.5 -2.980232E-08 -0.5
v -0.5 -2.980232E-08 -0.5
v 0.5 -2.980232E-08 -0.5
v 0.5 -2.980232E-08 2.5
v 0.5 -0.2 2.5
v 0.5 -2.980232E-08 -0.5
v 0.5 -0.2 -0.5
v -0.5 -2.980232E-08 -0.5
v -0.5 -0.2 2.5
v -0.5 -2.980232E-08 2.5
v -0.5 -0.2 -0.5
v -0.5 -2.980232E-08 -0.5
v 2.5 -2.980232E-08 -2.5
v 2.5 -2.980232E-08 2.5
v 0.5 -2.980232E-08 -2.5
v 0.5 -2.980232E-08 2.5
v 0.5 -2.980232E-08 -0.5
v -0.5 -2.980232E-08 -0.5
v 0.5 -2.980232E-08 -2.5
v -0.5 -2.980232E-08 -2.5
v -2.5 -2.980232E-08 2.5
v -2.5 -2.980232E-08 -2.5
v -0.5 -2.980232E-08 2.5
v -0.5 -2.980232E-08 -2.5
v 0.5 -0.2 2.5
v -0.5 -0.2 2.5
v 0.5 -0.2 -0.5
v -0.5 -0.2 -0.5

vn 0 0 0
vn 0 0 0
vn 0 0 0
vn 0 0 0
vn 0 0 0
vn 0 0 0
vn 0 0 0
vn 0 0 0
vn 0 0 0
vn 0 0 0
vn 0 0 0
vn 0 0 0
vn 0 0 0
vn 0 0 0
vn 0 0 1
vn 0 0 1
vn 0 0 1
vn 0 0 1
vn 0 0 0
vn -1 0 0
vn -1 0 0
vn -1 0 0
vn -1 0 0
vn 0 0 0
vn 1 0 0
vn 1 0 0
vn 1 0 0
vn 1 0 0
vn 0 1 0
vn 0 1 0
vn 0 1 0
vn 0 1 0
vn 0 1 0
vn 0 1 0
vn 0 1 0
vn 0 1 0
vn 0 1 0
vn 0 1 0
vn 0 1 0
vn 0 1 0
vn 0 1 0
vn 0 1 0
vn 0 1 0
vn 0 1 0

vt 0 0
vt 0 0
vt 0 0
vt 0 0
vt 0 0
vt 0 0
vt 0 0
vt 0 0
vt 0 0
vt 0 0
vt 0 0
vt 0 0
vt 0 0
vt 0 0
vt 0.4 0.44
vt 0.6 0.44
vt 0.4 0.4
vt 0.6 0.4
vt 0 0
vt 0.401278 1.000127
vt 0.44137 1.000127
vt 0.401278 0.3987463
vt 0.44137 0.3987463
vt 0 0
vt 0.5602201 1.001204
vt 0.6003121 1.001204
vt 0.5602201 0.3998236
vt 0.6003121 0.3998236
vt 0 0
vt 0 1
vt 0.4 0
vt 0.4 1
vt 0.4 0.4
vt 0.6 0.4
vt 0.4 0
vt 0.6 0
vt 1 1
vt 1 0
vt 0.6 1
vt 0.6 0
vt 0.4 1
vt 0.6 1
vt 0.4 0.4
vt 0.6 0.4

g Default_Prototype
usemtl Default_Prototype
usemap Default_Prototype
f 2/2/2 1/1/1 1/1/1
f 2/2/2 2/2/2 1/1/1
f 1/1/1 3/3/3 3/3/3
f 1/1/1 1/1/1 3/3/3
f 4/4/4 2/2/2 2/2/2
f 4/4/4 4/4/4 2/2/2
f 3/3/3 4/4/4 4/4/4
f 3/3/3 3/3/3 4/4/4
f 2/2/2 1/1/1 1/1/1
f 2/2/2 2/2/2 1/1/1
f 1/1/1 3/3/3 3/3/3
f 1/1/1 1/1/1 3/3/3
f 4/4/4 2/2/2 2/2/2
f 4/4/4 4/4/4 2/2/2
f 3/3/3 4/4/4 4/4/4
f 3/3/3 3/3/3 4/4/4
f 2/2/2 1/1/1 5/5/5
f 6/6/6 2/2/2 5/5/5
f 3/3/3 4/4/4 7/7/7
f 8/8/8 3/3/3 7/7/7
f 10/10/10 9/9/9 9/9/9
f 10/10/10 10/10/10 9/9/9
f 9/9/9 11/11/11 11/11/11
f 9/9/9 9/9/9 11/11/11
f 12/12/12 10/10/10 10/10/10
f 12/12/12 12/12/12 10/10/10
f 11/11/11 12/12/12 12/12/12
f 11/11/11 11/11/11 12/12/12
f 9/9/9 11/11/11 11/11/11
f 13/13/13 9/9/9 11/11/11
f 12/12/12 10/10/10 14/14/14
f 12/12/12 12/12/12 14/14/14
f 11/11/11 12/12/12 12/12/12
f 11/11/11 11/11/11 12/12/12
f 16/16/16 15/15/15 17/17/17
f 18/18/18 16/16/16 17/17/17
f 5/5/5 8/8/8 8/8/8
f 19/19/19 5/5/5 8/8/8
f 8/8/8 11/11/11 11/11/11
f 8/8/8 8/8/8 11/11/11
f 21/21/21 20/20/20 22/22/22
f 23/23/23 21/21/21 22/22/22
f 11/11/11 9/9/9 13/13/13
f 11/11/11 11/11/11 13/13/13
f 7/7/7 6/6/6 24/24/24
f 7/7/7 7/7/7 24/24/24
f 26/26/26 25/25/25 27/27/27
f 28/28/28 26/26/26 27/27/27
f 12/12/12 7/7/7 7/7/7
f 12/12/12 12/12/12 7/7/7
f 10/10/10 12/12/12 12/12/12
f 14/14/14 10/10/10 12/12/12
f 30/30/30 29/29/29 31/31/31
f 32/32/32 30/30/30 31/31/31
f 34/34/34 33/33/33 35/35/35
f 36/36/36 34/34/34 35/35/35
f 38/38/38 37/37/37 39/39/39
f 40/40/40 38/38/38 39/39/39

g Default-Material
usemtl Default-Material
usemap Default-Material
f 42/42/42 41/41/41 43/43/43
f 44/44/44 42/42/42 43/43/43
