mtllib ./SewerFloor1_Cc5x5.mtl
g SewerFloor1_Cc5x5
v 0.4999999 0 -2.5
v 2.5 0 -2.5
v 0.4999996 0 -0.4999999
v 2.5 0 -0.4999996
v 0.4999996 0 -0.4999999
v 2.5 0 -0.4999996
v 0.4999996 -0.2 -0.4999999
v 2.5 -0.2 -0.4999996
v 0.5 -0.2 -2.5
v 0.4999999 0 -2.5
v 0.4999996 -0.2 -0.4999999
v 0.4999996 0 -0.4999999
v 2.499999 0 2.5
v 0.4999991 0 2.5
v 2.5 0 0.5000004
v 0.4999994 0 0.5000001
v -0.5000005 0 0.4999999
v -0.5000009 0 2.5
v -2.500001 0 2.5
v -2.5 0 -2.5
v -0.5000009 0 2.5
v -0.5000001 0 -2.5
v -0.5000005 -0.2 0.4999999
v 0.4999994 -0.2 0.5000001
v -0.5000005 0 0.4999999
v 0.4999994 0 0.5000001
v 2.5 0 0.5000004
v 2.5 -0.2 0.5000004
v -0.5000001 0 -2.5
v -0.5000001 -0.2 -2.5
v -0.5000005 0 0.4999999
v -0.5000005 -0.2 0.4999999
v 2.5 -0.2 -0.4999996
v 2.5 -0.2 0.5000004
v 0.4999996 -0.2 -0.4999999
v 0.4999994 -0.2 0.5000001
v -0.5000001 -0.2 -2.5
v 0.5 -0.2 -2.5
v -0.5000005 -0.2 0.4999999
v 0.4999994 -0.2 0.5000001

vn 0 1 0
vn 0 1 0
vn 0 1 0
vn 0 1 0
vn -1.78814E-07 0 1
vn -1.78814E-07 0 1
vn -1.78814E-07 0 1
vn -1.78814E-07 0 1
vn -1 -1.490116E-07 -1.788139E-07
vn -1 -7.450581E-08 -1.713634E-07
vn -1 -7.450581E-08 -1.713634E-07
vn -1 0 -1.639128E-07
vn 0 1 0
vn 0 1 0
vn 0 1 0
vn 0 1 0
vn 0 1 0
vn 0 1 0
vn 0 1 0
vn 0 1 0
vn 0 1 0
vn 0 1 0
vn 1.490116E-07 0 -1
vn 1.490116E-07 0 -1
vn 1.490116E-07 0 -1
vn 1.788139E-07 0 -1
vn 1.788139E-07 0 -1
vn 1.788139E-07 0 -1
vn 1 0 1.589457E-07
vn 1 0 1.589457E-07
vn 1 0 1.589457E-07
vn 1 0 1.589457E-07
vn 0 1 0
vn 0 1 0
vn 0 1 0
vn 0 1 0
vn 0 1 0
vn 0 1 0
vn 0 1 0
vn 0 1 0

vt 0.4008528 0.0005685943
vt 0.001421486 0
vt 0.4002843 0.4
vt 0.0008528915 0.3994314
vt 0.4002843 0.4000082
vt 0.0008528829 0.3994231
vt 0.4002258 0.4399513
vt 0.0007943809 0.4393663
vt 0.440796 0.0006254315
vt 0.4008528 0.0005685836
vt 0.4402274 0.4000568
vt 0.4002843 0.4
vt 0 0.9985785
vt 0.3994313 0.9991471
vt 0.0005685943 0.5991471
vt 0.3999999 0.5997157
vt 0.5997157 0.6
vt 0.5991471 0.9994314
vt 0.9985785 1
vt 0.9999999 0.001421486
vt 0.5991471 0.9994314
vt 0.6005686 0.0008528915
vt 0.6006783 0.5608083
vt 0.400503 0.5605233
vt 0.6006213 0.6008434
vt 0.400446 0.6005585
vt 9.551644E-05 0.5999886
vt 0.0001525581 0.5599535
vt 0.6014575 0.0005416572
vt 0.5614226 0.0004846752
vt 0.6006027 0.6010674
vt 0.5605677 0.6010103
vt 0.0004374718 0.4001475
vt 0.0001525497 0.6003228
vt 0.400788 0.4007174
vt 0.400503 0.6008927
vt 0.6015331 0.0006519223
vt 0.4013579 0.0003669407
vt 0.6006783 0.6011776
vt 0.400503 0.6008927

g Default_Prototype
usemtl Default_Prototype
usemap Default_Prototype
f 2/2/2 1/1/1 3/3/3
f 4/4/4 2/2/2 3/3/3
f 6/6/6 5/5/5 7/7/7
f 8/8/8 6/6/6 7/7/7
f 10/10/10 9/9/9 11/11/11
f 12/12/12 10/10/10 11/11/11
f 14/14/14 13/13/13 15/15/15
f 16/16/16 14/14/14 15/15/15
f 16/16/16 17/17/17 18/18/18
f 14/14/14 16/16/16 18/18/18
f 20/20/20 19/19/19 21/21/21
f 22/22/22 20/20/20 21/21/21
f 24/24/24 23/23/23 25/25/25
f 26/26/26 24/24/24 25/25/25
f 26/26/26 27/27/27 28/28/28
f 24/24/24 26/26/26 28/28/28
f 30/30/30 29/29/29 31/31/31
f 32/32/32 30/30/30 31/31/31

g Default-Material
usemtl Default-Material
usemap Default-Material
f 34/34/34 33/33/33 35/35/35
f 36/36/36 34/34/34 35/35/35
f 38/38/38 37/37/37 39/39/39
f 40/40/40 38/38/38 39/39/39
