# 3ds Max Wavefront OBJ Exporter v0.97b - (c)2007 guruware
# File Created: 29.04.2015 13:29:05

#
# object Stairs_Straight
#

v  -148.412003 82.101585 -81.846794
v  148.412155 82.101639 -81.846664
v  -152.682266 75.414925 -31.326862
v  148.740753 82.448677 -31.385563
v  -152.894302 57.864063 -32.135941
v  149.224228 61.696136 -28.303883
v  -152.682251 58.673149 5.414988
v  148.740768 62.448620 8.614565
v  -152.894302 37.864059 7.864065
v  149.224228 41.696133 11.696139
v  -152.682266 38.673138 45.414932
v  148.740753 42.448677 48.614460
v  -152.894302 17.864058 47.864063
v  149.224228 21.696133 51.696140
v  -152.682266 18.673138 75.414925
v  148.740753 22.448677 78.614449
v  -148.662750 0.000000 82.707016
v  152.706970 0.000000 78.662872
v  -152.071823 0.000000 -82.071823
v  152.071823 0.000000 -82.071823
v  -152.101593 78.412003 -81.846794
v  152.101639 78.412132 -81.846672
v  -148.740585 82.448677 -31.385380
v  152.682266 75.414925 -31.326883
v  -149.224213 61.696140 -28.303865
v  152.894302 57.864059 -32.135960
v  -148.740753 58.614563 12.448627
v  152.682266 55.414928 8.673140
v  -149.224213 41.696136 11.696142
v  152.894302 37.864056 7.864063
v  -148.740723 38.614452 52.448685
v  152.682266 35.414925 48.673141
v  -149.224213 21.696135 51.696144
v  152.894302 17.864056 47.864063
v  -148.740723 18.614452 82.448677
v  152.682266 15.414925 78.673134
v  -152.707016 0.000000 78.662750
v  148.662888 0.000000 82.706963
v  -152.682266 78.673134 -34.585075
v  148.740601 78.614616 -27.551338
v  -152.682251 55.414982 8.673151
v  148.740677 58.614540 12.448685
v  -152.682266 35.414925 48.673145
v  148.740753 38.614452 52.448685
v  -152.682266 15.414927 78.673134
v  148.740753 18.614452 82.448677
v  -148.740723 78.614449 -27.551321
v  152.682266 78.673134 -34.585091
v  -148.740753 62.448624 8.614565
v  152.682251 58.673145 5.414986
v  -148.740723 42.448677 48.614460
v  152.682266 38.673134 45.414932
v  -148.740723 22.448679 78.614449
v  152.682266 18.673132 75.414925
v  -152.929993 0.000000 47.671860
v  -152.929993 0.000000 6.487518
v  -152.929993 0.000000 -33.350266
v  152.929993 0.000000 -32.691040
v  152.929993 0.000000 8.212944
v  -152.071823 57.293621 -82.071823
v  -152.929993 37.153866 -32.774391
v  -152.071823 36.699661 -82.071823
v  -152.929993 17.315928 6.973718
v  -152.929993 17.093075 -33.085327
v  -152.071823 16.832081 -82.071823
v  152.071823 57.698059 -82.071823
v  152.929993 37.820179 -32.538136
v  152.071823 38.150055 -82.071823
v  152.929993 17.720530 7.896062
v  152.929993 17.903370 -32.618660
v  152.071823 18.117197 -82.071823
v  152.929993 0.000000 48.331573
v  88.524979 82.071823 -82.071823
v  29.508331 82.071823 -82.071823
v  -29.508331 82.071823 -82.071823
v  -88.524979 82.071823 -82.071823
v  -88.524963 82.706970 -31.337132
v  -29.508316 82.706970 -31.337135
v  29.508347 82.706970 -31.337133
v  88.524994 82.706970 -31.337139
v  88.524979 78.662872 -27.293045
v  29.508331 78.662872 -27.293043
v  -29.508331 78.662872 -27.293039
v  -88.524979 78.662872 -27.293037
v  -88.524963 62.071827 -27.928181
v  -29.508316 62.071827 -27.928183
v  29.508347 62.071827 -27.928186
v  88.524994 62.071827 -27.928188
v  -88.524963 62.706970 8.662880
v  -29.508316 62.706970 8.662880
v  29.508347 62.706970 8.662880
v  88.524994 62.706970 8.662880
v  88.524979 58.662876 12.706974
v  29.508331 58.662876 12.706974
v  -29.508331 58.662876 12.706974
v  -88.524979 58.662876 12.706974
v  -88.524963 42.071823 12.071831
v  -29.508316 42.071823 12.071831
v  29.508347 42.071823 12.071831
v  88.524994 42.071823 12.071831
v  -88.524963 42.706966 48.662880
v  -29.508316 42.706966 48.662880
v  29.508347 42.706966 48.662880
v  88.524994 42.706966 48.662880
v  88.524979 38.662872 52.706974
v  29.508331 38.662872 52.706974
v  -29.508331 38.662872 52.706974
v  -88.524979 38.662872 52.706974
v  -88.524963 22.071823 52.071831
v  -29.508316 22.071823 52.071831
v  29.508347 22.071823 52.071831
v  88.524994 22.071823 52.071831
v  -88.524963 22.706966 78.662872
v  -29.508316 22.706966 78.662872
v  29.508347 22.706966 78.662872
v  88.524994 22.706966 78.662872
v  88.524979 18.662872 82.706970
v  29.508331 18.662872 82.706970
v  -29.508331 18.662872 82.706970
v  -88.524979 18.662872 82.706970
v  -88.524963 0.000000 82.930000
v  -29.508316 0.000000 82.930000
v  29.508347 0.000000 82.930000
v  88.524994 0.000000 82.930000
v  90.000000 37.859978 -82.930000
v  30.000000 37.569897 -82.930000
v  -30.000000 37.279819 -82.930000
v  -90.000000 36.989738 -82.930000
v  -89.999992 57.374508 -82.930000
v  -29.999992 57.455395 -82.930000
v  30.000000 57.536285 -82.930000
v  90.000000 57.617172 -82.930000
v  90.000000 0.000000 -82.930000
v  30.000000 0.000000 -82.930000
v  -30.000000 0.000000 -82.930000
v  -90.000000 0.000000 -82.930000
v  -90.000000 17.089104 -82.930000
v  -30.000000 17.346127 -82.930000
v  30.000000 17.603151 -82.930000
v  90.000000 17.860174 -82.930000
v  -90.000000 77.541611 -82.930000
v  -30.000000 77.541611 -82.930000
v  30.000000 77.541611 -82.930000
v  90.000000 77.541611 -82.930000
# 144 vertices

vn -0.922612 0.001221 0.385728
vn -0.907040 0.132112 0.399782
vn -0.999991 0.001654 0.003834
vn 0.705412 0.004253 -0.708785
vn 0.718520 0.299841 -0.627554
vn 0.908697 0.399602 0.120782
vn 0.907366 0.124629 0.401442
vn 0.000000 0.766097 -0.642725
vn 0.000000 0.926257 0.376893
vn 0.000000 0.926257 0.376894
vn -0.000000 0.766097 -0.642725
vn 0.000000 0.364939 0.931031
vn 0.000000 0.699676 0.714460
vn 0.000000 0.364939 0.931032
vn -0.000000 0.927166 0.374652
vn 0.000000 0.927166 0.374652
vn 0.000000 0.702004 0.712173
vn 0.000000 0.928383 0.371625
vn 0.000000 0.388197 0.921576
vn 0.000000 0.011950 0.999929
vn 0.000000 0.000000 -1.000000
vn 0.000000 0.093471 -0.995622
vn -0.389801 0.350876 0.851435
vn -0.906147 0.120878 0.405323
vn -0.989653 0.107330 0.095223
vn -0.600149 0.562238 0.568955
vn -0.301517 0.719533 -0.625588
vn -0.718900 0.299342 -0.627358
vn -0.909848 0.396988 0.120736
vn -0.392846 0.845207 0.362349
vn 0.393139 0.845279 0.361863
vn 0.302399 0.719670 -0.625004
vn 0.598530 0.556328 0.576421
vn 0.989775 0.106055 0.095384
vn 0.388402 0.352194 0.851530
vn -0.389799 0.350883 0.851433
vn -0.903226 0.122694 0.411254
vn -0.988812 0.106826 0.104108
vn -0.600148 0.562240 0.568954
vn -0.905559 0.404219 0.128725
vn -0.390779 0.847339 0.359593
vn 0.391609 0.847233 0.358942
vn 0.904888 0.406344 0.126737
vn 0.598530 0.556328 0.576420
vn 0.988924 0.105673 0.104221
vn 0.904674 0.126583 0.406868
vn 0.388406 0.352187 0.851531
vn -0.389798 0.350881 0.851434
vn -0.903322 0.122756 0.411024
vn -0.988860 0.106607 0.103877
vn -0.600959 0.564338 0.566014
vn -0.905907 0.403564 0.128326
vn -0.390778 0.847341 0.359592
vn 0.391607 0.847234 0.358941
vn 0.904890 0.406340 0.126737
vn 0.599855 0.557387 0.574016
vn 0.988910 0.105604 0.104427
vn 0.904675 0.126582 0.406867
vn 0.388411 0.352186 0.851529
vn -0.380588 0.008640 0.924704
vn -0.393778 0.370385 0.841281
vn -0.904814 0.405939 0.128551
vn -0.390029 0.848663 0.357280
vn 0.391065 0.848561 0.356389
vn 0.903892 0.408808 0.125916
vn 0.907026 0.132135 0.399805
vn 0.393893 0.370464 0.841193
vn 0.380813 0.008440 0.924614
vn 0.922581 0.001222 0.385802
vn -0.999998 0.001510 0.001232
vn -1.000000 0.000000 -0.000000
vn -0.999962 0.000119 -0.008738
vn -0.999961 0.000108 -0.008855
vn -0.705787 0.000020 -0.708424
vn -0.705766 0.000000 -0.708445
vn 0.999971 0.001630 -0.007458
vn 0.999998 0.001683 0.001097
vn 0.999991 0.001750 0.003950
vn -0.705865 0.003763 -0.708336
vn -0.999970 0.001669 -0.007516
vn -0.705824 0.000023 -0.708387
vn 0.705981 0.000186 -0.708231
vn 0.999964 0.000157 -0.008519
vn 0.705859 0.000000 -0.708353
vn 1.000000 0.000000 -0.000000
vn 0.999962 0.000035 -0.008711
vn 0.705857 0.000011 -0.708355
vn -0.001426 0.926061 0.377372
vn -0.000789 0.765832 -0.643040
vn 0.001426 0.926061 0.377372
vn 0.000789 0.765832 -0.643041
vn -0.003874 0.699467 0.714654
vn -0.002142 0.364841 0.931067
vn 0.002524 0.364597 0.931162
vn 0.003956 0.699841 0.714288
vn -0.002458 0.927299 0.374312
vn 0.002138 0.927204 0.374551
vn -0.002143 0.364841 0.931067
vn 0.003956 0.699841 0.714287
vn 0.002138 0.927204 0.374552
vn -0.003872 0.701799 0.712364
vn 0.003909 0.702178 0.711991
vn -0.002493 0.928518 0.371279
vn 0.002139 0.928420 0.371525
vn -0.002093 0.012132 0.999924
vn -0.002132 0.388094 0.921617
vn 0.002003 0.388178 0.921582
vn 0.001854 0.011950 0.999927
vn -0.006912 -0.000000 -0.999976
vn -0.006912 0.000000 -0.999976
vn 0.007630 0.000556 -0.999971
vn 0.006912 0.000000 -0.999976
vn 0.005633 0.091626 -0.995778
vn -0.004897 0.092181 -0.995730
# 114 vertex normals

vt 0.488071 0.800485 0.000000
vt 0.487484 0.839625 0.000000
vt 0.396484 0.799502 0.000000
vt 0.992136 0.945767 0.000000
vt 0.992026 0.997264 0.000000
vt 0.853781 0.997053 0.000000
vt 0.846256 0.990661 0.000000
vt 0.405049 0.571346 0.000000
vt 0.405004 0.476312 0.000000
vt 0.594398 0.476312 0.000000
vt 0.594347 0.571346 0.000000
vt 0.405039 0.459508 0.000000
vt 0.404793 0.415660 0.000000
vt 0.594636 0.415661 0.000000
vt 0.594370 0.459508 0.000000
vt 0.405053 0.332630 0.000000
vt 0.594402 0.332630 0.000000
vt 0.405098 0.315589 0.000000
vt 0.404836 0.271673 0.000000
vt 0.594673 0.271673 0.000000
vt 0.594377 0.315589 0.000000
vt 0.405096 0.188639 0.000000
vt 0.594446 0.188639 0.000000
vt 0.405139 0.171599 0.000000
vt 0.404852 0.127708 0.000000
vt 0.594727 0.127707 0.000000
vt 0.594420 0.171598 0.000000
vt 0.405107 0.069301 0.000000
vt 0.594483 0.069299 0.000000
vt 0.594464 0.052437 0.000000
vt 0.405080 0.052437 0.000000
vt 0.404663 0.010206 0.000000
vt 0.594279 0.010207 0.000000
vt 0.395647 0.699217 -0.203522
vt 0.395647 0.649929 -0.203522
vt 0.587137 0.649731 -0.203522
vt 0.587137 0.698508 -0.203522
vt 0.596206 0.583961 0.000000
vt 0.403188 0.583961 0.000000
vt 0.036379 0.459507 0.000000
vt 0.014164 0.457438 0.000000
vt 0.012806 0.415794 0.000000
vt 0.035109 0.415659 0.000000
vt 0.036453 0.571345 0.000000
vt 0.017152 0.583960 0.000000
vt 0.014060 0.479531 0.000000
vt 0.036216 0.476312 0.000000
vt 0.963185 0.476313 0.000000
vt 0.985342 0.479535 0.000000
vt 0.982242 0.583962 0.000000
vt 0.962943 0.571346 0.000000
vt 0.964321 0.415661 0.000000
vt 0.986623 0.415799 0.000000
vt 0.985245 0.457444 0.000000
vt 0.963031 0.459509 0.000000
vt 0.036540 0.315589 0.000000
vt 0.014442 0.313318 0.000000
vt 0.012868 0.271804 0.000000
vt 0.035163 0.271673 0.000000
vt 0.014205 0.334983 0.000000
vt 0.036355 0.332630 0.000000
vt 0.963100 0.332630 0.000000
vt 0.985252 0.334990 0.000000
vt 0.964346 0.271674 0.000000
vt 0.986642 0.271809 0.000000
vt 0.985031 0.313326 0.000000
vt 0.962935 0.315589 0.000000
vt 0.036578 0.171602 0.000000
vt 0.014467 0.169344 0.000000
vt 0.012667 0.127815 0.000000
vt 0.035101 0.127712 0.000000
vt 0.014248 0.191000 0.000000
vt 0.036398 0.188641 0.000000
vt 0.963144 0.188638 0.000000
vt 0.985296 0.191002 0.000000
vt 0.964478 0.127704 0.000000
vt 0.986915 0.127805 0.000000
vt 0.985092 0.169343 0.000000
vt 0.962981 0.171595 0.000000
vt 0.035431 0.010206 0.000000
vt 0.036311 0.052438 0.000000
vt 0.014121 0.049627 0.000000
vt 0.013780 0.010817 0.000000
vt 0.014112 0.071550 0.000000
vt 0.036355 0.069305 0.000000
vt 0.963235 0.069295 0.000000
vt 0.985491 0.071509 0.000000
vt 0.985480 0.049520 0.000000
vt 0.963233 0.052436 0.000000
vt 0.963511 0.010208 0.000000
vt 0.984865 0.010658 0.000000
vt 0.395403 0.845018 0.000000
vt 0.271023 0.843097 0.000000
vt 0.270205 0.798147 0.000000
vt 0.148202 0.841199 0.000000
vt 0.148055 0.796835 0.000000
vt 0.004363 0.838976 0.000000
vt 0.005018 0.795298 0.000000
vt 0.846353 0.945138 0.000000
vt 0.731235 0.944961 0.000000
vt 0.723710 0.938570 0.000000
vt 0.846707 0.893958 0.000000
vt 0.723807 0.893047 0.000000
vt 0.608689 0.892872 0.000000
vt 0.601164 0.886481 0.000000
vt 0.722830 0.841607 0.000000
vt 0.601260 0.840958 0.000000
vt 0.516805 0.840832 0.000000
vt 0.509280 0.834441 0.000000
vt 0.598934 0.795431 0.000000
vt 0.002000 0.996515 0.000000
vt 0.002788 0.943972 0.000000
vt 0.147868 0.991702 0.000000
vt 0.140234 0.998000 0.000000
vt 0.148551 0.946182 0.000000
vt 0.148375 0.893266 0.000000
vt 0.271294 0.941120 0.000000
vt 0.263661 0.947418 0.000000
vt 0.271977 0.895600 0.000000
vt 0.003590 0.890532 0.000000
vt 0.394721 0.890537 0.000000
vt 0.992244 0.895037 0.000000
vt 0.847065 0.842271 0.000000
vt 0.992356 0.843048 0.000000
vt 0.721956 0.795617 0.000000
vt 0.847386 0.795809 0.000000
vt 0.992456 0.796031 0.000000
vt 0.395647 0.600859 -0.203522
vt 0.587137 0.600859 -0.203522
vt 0.587137 0.790290 0.203522
vt 0.395647 0.790290 0.203522
vt 0.395647 0.747914 -0.203522
vt 0.587137 0.747286 -0.203522
vt 0.387087 0.896836 0.000000
vt 0.215610 0.476312 0.000000
vt 0.215751 0.571345 0.000000
vt 0.783791 0.476313 0.000000
vt 0.783645 0.571346 0.000000
vt 0.214951 0.415660 0.000000
vt 0.215709 0.459507 0.000000
vt 0.783700 0.459509 0.000000
vt 0.784478 0.415661 0.000000
vt 0.215704 0.332630 0.000000
vt 0.783751 0.332630 0.000000
vt 0.215000 0.271673 0.000000
vt 0.215819 0.315589 0.000000
vt 0.783656 0.315589 0.000000
vt 0.784509 0.271673 0.000000
vt 0.215747 0.188640 0.000000
vt 0.783795 0.188638 0.000000
vt 0.214977 0.127710 0.000000
vt 0.215858 0.171601 0.000000
vt 0.783701 0.171597 0.000000
vt 0.784603 0.127705 0.000000
vt 0.215731 0.069303 0.000000
vt 0.783859 0.069297 0.000000
vt 0.215047 0.010206 0.000000
vt 0.215695 0.052438 0.000000
vt 0.783849 0.052437 0.000000
vt 0.783895 0.010207 0.000000
vt 0.012667 0.700634 -0.203522
vt 0.012667 0.650324 -0.203522
vt 0.204157 0.650126 -0.203522
vt 0.204157 0.699925 -0.203522
vt 0.778627 0.649534 -0.203522
vt 0.970116 0.649336 -0.203522
vt 0.970116 0.697090 -0.203522
vt 0.778627 0.697799 -0.203522
vt 0.789224 0.583961 0.000000
vt 0.210170 0.583960 0.000000
vt 0.012667 0.600859 -0.203522
vt 0.204157 0.600859 -0.203522
vt 0.970116 0.600859 -0.203522
vt 0.778626 0.600859 -0.203522
vt 0.012667 0.790290 0.203522
vt 0.012667 0.749170 -0.203522
vt 0.204157 0.748542 -0.203522
vt 0.204157 0.790290 0.203522
vt 0.970116 0.746030 -0.203522
vt 0.970116 0.790290 0.203522
vt 0.778626 0.790290 0.203522
vt 0.778626 0.746658 -0.203522
vt 0.479851 0.845924 0.000000
vt 0.509362 0.795298 0.000000
# 184 texture coords

g Stairs_Straight
s 1
f -108/-184/-114 -100/-183/-113 -90/-182/-112 
f -79/-181/-111 -123/-180/-110 -97/-179/-109 -121/-178/-108 
f -70/-177/-107 -67/-176/-106 -66/-175/-105 -71/-174/-104 
f -62/-173/-103 -59/-172/-102 -58/-171/-102 -63/-170/-101 
f -59/-172/-102 -55/-169/-100 -54/-168/-100 -58/-171/-102 
f -50/-167/-103 -47/-166/-102 -46/-165/-102 -51/-164/-103 
f -47/-166/-102 -43/-163/-99 -42/-162/-99 -46/-165/-102 
f -38/-161/-103 -35/-160/-98 -34/-159/-98 -39/-158/-103 
f -35/-160/-98 -31/-157/-97 -30/-156/-97 -34/-159/-98 
f -27/-155/-96 -26/-154/-96 -23/-153/-95 -22/-152/-95 
f -18/-151/-94 -15/-150/-94 -14/-149/-94 -19/-148/-94 
f -71/-174/-104 -2/-147/-93 -3/-146/-93 -70/-177/-107 
f -98/-145/-92 -142/-144/-91 -140/-143/-90 -120/-142/-89 
f -144/-141/-88 -124/-140/-87 -106/-139/-86 -122/-138/-85 
f -141/-137/-84 -97/-136/-109 -123/-135/-110 -143/-134/-83 
f -139/-133/-82 -119/-132/-81 -121/-131/-108 -105/-130/-80 
f -118/-129/-79 -104/-128/-78 -136/-127/-77 -116/-126/-76 
f -120/-142/-89 -140/-143/-90 -138/-125/-75 -96/-124/-74 
f -137/-123/-73 -95/-122/-72 -119/-132/-81 -139/-133/-82 
f -135/-121/-71 -115/-120/-70 -117/-119/-69 -103/-118/-68 
f -114/-117/-67 -102/-116/-66 -132/-115/-65 -112/-114/-64 
f -116/-126/-76 -136/-127/-77 -134/-113/-63 -94/-112/-62 
f -133/-111/-61 -93/-110/-60 -115/-120/-70 -135/-121/-71 
f -131/-109/-59 -111/-108/-58 -113/-107/-57 -101/-106/-56 
f -128/-105/-55 -110/-104/-54 -100/-103/-113 -108/-102/-114 
f -112/-114/-64 -132/-115/-65 -130/-101/-53 -92/-100/-52 
f -129/-99/-51 -91/-98/-50 -111/-108/-58 -131/-109/-59 
f -109/-97/-49 -99/-96/-48 -107/-95/-47 -127/-94/-46 
f -63/-170/-101 -66/-175/-105 -67/-176/-106 -62/-173/-103 
f -51/-164/-103 -54/-168/-100 -55/-169/-100 -50/-167/-103 
f -39/-158/-103 -42/-162/-99 -43/-163/-99 -38/-161/-103 
f -27/-155/-96 -30/-156/-97 -31/-157/-97 -26/-154/-96 
f -106/-139/-86 -142/-144/-91 -98/-145/-92 -122/-138/-85 
f -141/-137/-84 -105/-130/-80 -121/-131/-108 -97/-136/-109 
f -138/-125/-75 -104/-128/-78 -118/-129/-79 -96/-124/-74 
f -137/-123/-73 -103/-118/-68 -117/-119/-69 -95/-122/-72 
f -134/-113/-63 -102/-116/-66 -114/-117/-67 -94/-112/-62 
f -133/-111/-61 -101/-106/-56 -113/-107/-57 -93/-110/-60 
f -130/-101/-53 -100/-103/-113 -110/-104/-54 -92/-100/-52 
f -129/-99/-51 -99/-96/-48 -109/-97/-49 -91/-98/-50 
f -90/-182/-112 -132/-93/-65 -82/-92/-45 -89/-91/-44 
f -81/-90/-43 -88/-89/-42 -89/-91/-44 -82/-92/-45 
f -80/-88/-41 -126/-87/-40 -88/-89/-42 -81/-90/-43 
f -119/-86/-81 -95/-85/-72 -117/-84/-69 -78/-83/-39 
f -115/-82/-70 -93/-81/-60 -113/-80/-57 -76/-79/-38 
f -111/-78/-58 -91/-77/-50 -109/-76/-49 -73/-75/-37 
f -124/-74/-87 -85/-73/-36 -142/-72/-91 -106/-71/-86 
f -140/-70/-90 -142/-72/-91 -85/-73/-36 
f -140/-70/-90 -84/-69/-35 -104/-68/-78 -138/-67/-75 
f -136/-66/-77 -104/-68/-78 -84/-69/-35 
f -85/-73/-36 -83/-65/-34 -84/-69/-35 -140/-70/-90 
f -132/-93/-65 -102/-64/-66 -82/-92/-45 
f -84/-69/-35 -81/-90/-43 -82/-92/-45 -136/-66/-77 
f -83/-65/-34 -80/-88/-41 -81/-90/-43 -84/-69/-35 
f -77/-63/-33 -79/-181/-111 -119/-86/-81 -78/-83/-39 
f -75/-62/-32 -78/-83/-39 -115/-82/-70 -76/-79/-38 
f -77/-63/-33 -78/-83/-39 -75/-62/-32 -74/-61/-31 
f -73/-75/-37 -86/-60/-30 -76/-79/-38 -111/-78/-58 
f -86/-60/-30 -87/-59/-29 -75/-62/-32 -76/-79/-38 
f -125/-58/-28 -74/-61/-31 -75/-62/-32 -87/-59/-29 
f -15/-150/-94 -3/-57/-93 -2/-56/-93 -14/-149/-94 
f -11/-55/-94 -10/-54/-94 -7/-53/-94 -6/-52/-94 
f -19/-148/-94 -6/-52/-94 -7/-53/-94 -18/-151/-94 
f -117/-84/-69 -115/-82/-70 -78/-83/-39 
f -113/-80/-57 -111/-78/-58 -76/-79/-38 
f -134/-51/-63 -136/-66/-77 -82/-92/-45 -102/-64/-66 
f -121/-178/-108 -119/-86/-81 -79/-181/-111 
f -144/-141/-88 -122/-138/-85 -68/-50/-27 -69/-49/-26 
f -69/-49/-26 -68/-50/-27 -67/-176/-106 -70/-177/-107 
f -65/-48/-25 -141/-137/-84 -143/-134/-83 -72/-47/-24 
f -65/-48/-25 -72/-47/-24 -71/-174/-104 -66/-175/-105 
f -98/-145/-92 -120/-142/-89 -60/-46/-23 -61/-45/-22 
f -61/-45/-22 -60/-46/-23 -59/-172/-102 -62/-173/-103 
f -139/-133/-82 -105/-130/-80 -64/-44/-21 -57/-43/-20 
f -57/-43/-20 -64/-44/-21 -63/-170/-101 -58/-171/-102 
f -120/-142/-89 -96/-124/-74 -56/-42/-19 -60/-46/-23 
f -60/-46/-23 -56/-42/-19 -55/-169/-100 -59/-172/-102 
f -137/-123/-73 -139/-133/-82 -57/-43/-20 -53/-41/-18 
f -53/-41/-18 -57/-43/-20 -58/-171/-102 -54/-168/-100 
f -118/-129/-79 -116/-126/-76 -48/-40/-23 -49/-39/-17 
f -49/-39/-17 -48/-40/-23 -47/-166/-102 -50/-167/-103 
f -135/-121/-71 -103/-118/-68 -52/-38/-21 -45/-37/-16 
f -45/-37/-16 -52/-38/-21 -51/-164/-103 -46/-165/-102 
f -116/-126/-76 -94/-112/-62 -44/-36/-19 -48/-40/-23 
f -48/-40/-23 -44/-36/-19 -43/-163/-99 -47/-166/-102 
f -133/-111/-61 -135/-121/-71 -45/-37/-16 -41/-35/-15 
f -41/-35/-15 -45/-37/-16 -46/-165/-102 -42/-162/-99 
f -114/-117/-67 -112/-114/-64 -36/-34/-14 -37/-33/-22 
f -37/-33/-22 -36/-34/-14 -35/-160/-98 -38/-161/-103 
f -131/-109/-59 -101/-106/-56 -40/-32/-21 -33/-31/-13 
f -33/-31/-13 -40/-32/-21 -39/-158/-103 -34/-159/-98 
f -112/-114/-64 -92/-100/-52 -32/-30/-12 -36/-34/-14 
f -36/-34/-14 -32/-30/-12 -31/-157/-97 -35/-160/-98 
f -129/-99/-51 -131/-109/-59 -33/-31/-13 -29/-29/-11 
f -29/-29/-11 -33/-31/-13 -34/-159/-98 -30/-156/-97 
f -110/-104/-54 -128/-105/-55 -24/-28/-10 -25/-27/-9 
f -25/-27/-9 -24/-28/-10 -23/-153/-95 -26/-154/-96 
f -107/-95/-47 -99/-96/-48 -28/-26/-8 -21/-25/-7 
f -21/-25/-7 -28/-26/-8 -27/-155/-96 -22/-152/-95 
f -83/-24/-34 -85/-23/-36 -16/-22/-6 -17/-21/-5 
f -17/-21/-5 -16/-22/-6 -15/-150/-94 -18/-151/-94 
f -13/-20/-4 -79/-19/-111 -77/-18/-33 -20/-17/-3 
f -13/-20/-4 -20/-17/-3 -19/-148/-94 -14/-149/-94 
f -143/-134/-83 -123/-135/-110 -1/-16/-2 -72/-47/-24 
f -72/-47/-24 -1/-16/-2 -2/-147/-93 -71/-174/-104 
f -4/-15/-1 -124/-140/-87 -144/-141/-88 -69/-49/-26 
f -3/-146/-93 -4/-15/-1 -69/-49/-26 -70/-177/-107 
f -105/-130/-80 -141/-137/-84 -65/-48/-25 -64/-44/-21 
f -64/-44/-21 -65/-48/-25 -66/-175/-105 -63/-170/-101 
f -68/-50/-27 -122/-138/-85 -98/-145/-92 -61/-45/-22 
f -68/-50/-27 -61/-45/-22 -62/-173/-103 -67/-176/-106 
f -103/-118/-68 -137/-123/-73 -53/-41/-18 -52/-38/-21 
f -52/-38/-21 -53/-41/-18 -54/-168/-100 -51/-164/-103 
f -96/-124/-74 -118/-129/-79 -49/-39/-17 -56/-42/-19 
f -56/-42/-19 -49/-39/-17 -50/-167/-103 -55/-169/-100 
f -101/-106/-56 -133/-111/-61 -41/-35/-15 -40/-32/-21 
f -40/-32/-21 -41/-35/-15 -42/-162/-99 -39/-158/-103 
f -94/-112/-62 -114/-117/-67 -37/-33/-22 -44/-36/-19 
f -44/-36/-19 -37/-33/-22 -38/-161/-103 -43/-163/-99 
f -99/-96/-48 -129/-99/-51 -29/-29/-11 -28/-26/-8 
f -28/-26/-8 -29/-29/-11 -30/-156/-97 -27/-155/-96 
f -92/-100/-52 -110/-104/-54 -25/-27/-9 -32/-30/-12 
f -32/-30/-12 -25/-27/-9 -26/-154/-96 -31/-157/-97 
f -85/-23/-36 -124/-14/-87 -4/-13/-1 -16/-22/-6 
f -16/-22/-6 -4/-13/-1 -3/-57/-93 -15/-150/-94 
f -123/-12/-110 -79/-19/-111 -13/-20/-4 -1/-11/-2 
f -1/-11/-2 -13/-20/-4 -14/-149/-94 -2/-56/-93 
f -126/-10/-40 -80/-9/-41 -8/-8/-5 -9/-7/-5 
f -9/-7/-5 -8/-8/-5 -7/-53/-94 -10/-54/-94 
f -74/-6/-31 -125/-5/-28 -12/-4/-3 -5/-3/-3 
f -5/-3/-3 -12/-4/-3 -11/-55/-94 -6/-52/-94 
f -77/-18/-33 -74/-6/-31 -5/-3/-3 -20/-17/-3 
f -20/-17/-3 -5/-3/-3 -6/-52/-94 -19/-148/-94 
f -8/-8/-5 -80/-9/-41 -83/-24/-34 -17/-21/-5 
f -8/-8/-5 -17/-21/-5 -18/-151/-94 -7/-53/-94 
f -100/-183/-113 -130/-2/-53 -132/-93/-65 -90/-182/-112 
f -109/-76/-49 -127/-1/-46 -73/-75/-37 
# 129 polygons - 8 triangles

