# 3ds Max Wavefront OBJ Exporter v0.97b - (c)2007 guruware
# File Created: 29.04.2015 13:35:19

#
# object StairsRuined_Straight
#

v  -144.210037 82.828300 -80.729538
v  148.795654 82.792145 -79.930763
v  -140.135162 69.034843 -40.637768
v  149.752029 80.466232 -32.631065
v  -150.438736 58.336945 -32.627666
v  151.092636 62.843704 -28.113050
v  145.337173 62.098492 7.364202
v  -150.385849 38.898483 7.844584
v  149.238144 42.737568 13.060791
v  -150.235168 39.506371 44.378494
v  142.629730 39.885857 45.432182
v  -150.493240 18.774282 47.402679
v  149.783890 22.771824 52.458950
v  -146.879761 14.147167 70.221237
v  141.536713 15.938236 73.852081
v  -146.339966 0.842957 82.707016
v  154.802902 0.893437 78.662872
v  -149.749039 0.842957 -82.071823
v  154.394608 0.842957 -82.071823
v  -148.102753 78.800903 -81.137688
v  152.784210 78.769279 -81.652557
v  -135.829361 76.269661 -40.403706
v  154.763275 75.460594 -31.940928
v  -145.439102 62.639305 -27.791687
v  155.065094 58.710190 -32.688648
v  -144.629120 53.897537 10.444278
v  151.052536 54.431610 7.763592
v  -145.101395 43.041206 12.165374
v  155.021515 38.691399 7.626504
v  -145.023163 38.946514 52.123562
v  148.046936 32.019966 45.537254
v  -144.969116 22.802254 52.540073
v  155.065338 18.576828 47.577225
v  -140.826447 10.085793 72.572922
v  145.852386 8.656809 73.851685
v  -150.384232 0.842957 78.662750
v  150.985672 0.842957 82.706963
v  -139.961273 72.297615 -44.212448
v  150.339371 77.845322 -27.764301
v  -147.237366 52.181255 6.185522
v  147.638824 58.607246 11.913829
v  -150.272430 35.528076 47.623367
v  145.080673 36.084194 50.010292
v  -146.812607 10.799591 73.613144
v  141.720856 11.850439 77.754326
v  -136.158554 72.402649 -36.484268
v  154.446945 78.633354 -35.982159
v  -143.963913 55.722683 6.633090
v  148.140167 57.093609 4.557980
v  -145.023163 42.984020 47.586060
v  146.738770 35.305103 42.280155
v  -140.634476 14.027624 68.798080
v  145.626892 12.232924 70.865112
v  -150.607208 0.842957 47.671860
v  -150.607208 0.842957 6.487518
v  -150.607208 0.842957 -33.350266
v  155.252777 0.842957 -32.691040
v  155.252777 0.842957 8.212944
v  -148.079941 58.124397 -80.938728
v  -150.517487 38.311428 -32.140873
v  -148.086502 37.831802 -80.904938
v  -150.600830 18.592014 7.832416
v  -150.585754 18.009272 -33.307365
v  -148.218689 17.763876 -80.868614
v  151.265564 58.139297 -80.771927
v  155.231613 38.856396 -32.285133
v  152.326431 38.470486 -80.450638
v  155.155457 18.849945 8.511724
v  155.218033 18.817421 -33.945488
v  148.719910 18.855024 -80.503830
v  155.252777 0.842957 48.331573
v  90.906403 82.818146 -80.819283
v  32.720768 82.844116 -80.410202
v  -27.548153 79.297653 -75.800606
v  -85.502869 82.846329 -80.403870
v  -86.301132 78.560623 -40.466667
v  -27.964161 83.454117 -35.461151
v  31.811296 81.456779 -38.645649
v  91.560310 83.386467 -32.731365
v  90.428474 79.024422 -27.482504
v  31.821358 78.508385 -32.729176
v  -25.907848 79.188950 -32.481216
v  -86.242470 74.467911 -36.267860
v  -86.552162 63.238377 -27.117455
v  -28.307308 63.208427 -31.612753
v  32.866844 63.375931 -27.178764
v  91.454407 63.194977 -26.781574
v  -87.563210 60.199295 7.809908
v  -26.767633 60.985943 4.071220
v  30.300299 63.339165 7.976373
v  91.516098 60.558624 7.470924
v  91.530357 56.136368 12.442446
v  31.007801 59.167091 12.549051
v  -27.536728 58.377533 10.993262
v  -86.034004 55.914349 11.582089
v  -85.534966 41.167252 8.503084
v  -26.842119 43.173393 13.208565
v  32.762447 43.298775 12.819609
v  90.926170 43.060642 13.789734
v  -85.592743 39.444912 43.355034
v  -30.361425 30.350588 41.238853
v  32.474220 41.124805 47.722382
v  91.046440 40.743282 47.550079
v  90.919052 37.853661 52.321629
v  33.657288 36.643421 52.495548
v  -86.856613 35.305412 48.050266
v  -86.244247 23.123234 52.221851
v  -27.013092 23.332695 52.853405
v  31.831131 23.284470 52.752487
v  90.017372 23.655319 52.537811
v  -86.115044 13.800952 71.820251
v  -27.415749 16.716883 70.576073
v  32.120605 23.447029 77.941589
v  91.350761 23.365387 78.098488
v  90.692184 18.932528 82.551964
v  31.480902 19.124971 82.605743
v  -27.285128 11.138284 74.843666
v  -86.146973 9.938179 76.102631
v  -86.202179 0.842957 82.930000
v  -27.185532 0.842957 82.930000
v  31.831131 0.842957 82.930000
v  90.847778 0.842957 82.930000
v  92.374580 38.696869 -82.908546
v  32.322784 38.412846 -82.930000
v  -27.677216 38.128822 -82.930000
v  -87.729012 37.844799 -82.908546
v  -88.086510 57.989372 -82.916527
v  -27.586224 58.728710 -82.930000
v  32.322784 58.380215 -82.930000
v  92.926292 58.652554 -82.902435
v  92.322784 0.842957 -82.930000
v  32.322784 0.842957 -82.930000
v  -27.677216 0.842957 -82.930000
v  -87.677216 0.842957 -82.930000
v  -87.729012 18.002348 -82.908546
v  -27.677216 18.253773 -82.930000
v  32.322784 18.505198 -82.930000
v  92.916908 19.148869 -82.905197
v  -88.081848 78.010262 -82.881462
v  -27.569326 74.755569 -76.893173
v  32.835941 77.997688 -82.908546
v  92.338448 78.019615 -82.909164
v  105.015823 41.787796 47.524963
v  104.436188 39.140480 52.320335
v  103.815918 39.838806 49.469845
v  91.276489 38.080513 48.456253
v  107.118362 41.020767 48.498276
v  108.172455 39.562206 52.369682
v  85.320839 38.866039 52.624016
v  85.759293 40.195923 50.411541
v  85.844391 41.744064 47.786976
v  141.426636 39.137283 48.770248
v  142.877121 37.422424 46.978481
v  146.241608 33.121788 43.287033
v  -18.362583 61.237244 10.414184
v  -43.922279 61.051609 10.913502
v  -39.236000 62.054573 7.749479
v  -39.850285 60.627022 8.918042
v  -29.112082 58.323586 5.126868
v  -33.818127 57.741375 3.259115
v  -33.785511 58.213058 1.669383
v  -36.105995 58.753071 -0.552590
v  97.498436 41.665794 41.526127
v  97.362427 39.031075 44.652939
v  97.097359 37.558716 46.558453
v  96.961838 35.501785 48.719067
v  -40.822044 59.716045 -4.840835
v  149.040161 32.789421 40.817093
v  -34.909893 39.737488 45.917458
v  -28.527905 37.482025 37.724712
v  -22.206343 40.247871 47.272652
v  -29.367506 32.954411 48.714478
v  -41.801655 38.010696 44.317047
v  -48.373322 41.768162 48.153328
v  -51.593422 38.972832 52.253254
v  -144.682999 52.647522 5.880227
v  -146.762161 52.379822 7.512342
v  -140.304977 56.043369 6.598480
v  -139.500916 54.980465 7.751697
v  -144.479767 62.355785 0.258765
v  -147.588425 56.290363 3.779181
v  -134.215195 61.756149 8.043462
v  -133.140411 59.824669 10.163342
v  -136.201981 56.665379 11.575266
v  -143.600433 53.261131 6.604865
v  -31.914457 58.763374 -8.758186
v  -7.297612 43.231003 47.334545
v  30.002432 40.929638 48.435768
v  9.575298 37.188477 43.429832
v  11.195490 35.492912 46.174759
v  18.568108 40.316628 44.396107
v  9.051425 43.091526 34.794460
v  1.006865 42.237663 44.428173
v  139.419357 62.857479 -8.255656
v  151.027527 62.573105 -17.345009
v  153.942917 58.265911 -14.359840
v  154.829849 48.243801 -11.099224
v  144.807571 59.911423 -5.973507
v  148.629974 56.019878 -6.774101
v  75.223328 20.877979 78.196144
v  62.288761 22.913639 65.784233
v  48.985149 23.229782 78.193657
v  53.226723 18.582071 82.083420
v  70.061592 16.500996 82.172951
v  61.632244 16.268955 70.038734
v  61.337345 12.136791 74.119225
v  61.222366 8.870207 79.267998
v  9.985298 28.966597 52.051270
v  -6.865751 38.074799 49.382355
v  -98.890259 16.611530 75.632301
v  -85.960785 19.369160 63.701931
v  -70.047043 23.088005 78.190247
v  -74.921295 18.797016 82.492569
v  -86.146965 9.132757 82.617531
v  -93.913773 17.391033 81.190826
v  -111.114571 23.068703 77.779129
v  -104.023529 16.410303 81.124794
v  -150.161484 18.819172 61.540718
v  -143.820541 21.163477 69.182457
v  -134.421982 22.878021 78.173172
v  -139.009705 16.149303 79.676666
v  -146.095108 8.156267 81.612404
v  -149.872910 6.686907 77.521500
v  -148.272079 10.867317 68.716820
v  149.719360 30.973665 41.645664
v  153.504990 26.429178 46.645699
v  152.857605 37.823784 32.470947
v  150.713577 29.964699 38.262318
v  150.403595 22.691923 68.025803
v  126.904678 23.144470 77.865211
v  133.115036 18.915953 82.314323
v  152.414322 18.632601 69.496628
v  153.173584 7.427818 66.002655
v  -57.417835 62.684364 -11.211245
v  -46.988182 62.626331 8.060440
v  -1.479090 23.281759 78.091286
v  -27.463306 22.997076 64.196396
v  -50.261406 23.276268 77.635895
v  -45.615299 18.926432 82.404724
v  -7.658222 19.237583 82.482285
v  -14.759803 22.335701 70.001434
v  -13.069925 17.478029 71.931679
v  -12.942065 14.314528 77.697372
v  -12.679682 9.828907 82.672935
v  -3.148801 19.140360 82.611443
v  -10.527802 0.842957 82.929993
v  79.223335 58.218708 1.375718
v  78.967873 54.109505 5.676455
v  78.829071 62.997387 -9.382569
v  65.033958 62.245831 8.106361
v  58.511349 59.122189 12.407099
v  77.053314 47.916428 12.078949
v  133.788956 76.570305 -37.363266
v  133.970108 72.480507 -33.096302
v  142.549820 82.678696 -32.008957
v  129.948624 82.923477 -53.016663
v  115.238594 80.469765 -31.886515
v  118.897049 75.920113 -27.577894
v  139.661163 78.706696 -27.948744
v  130.670197 63.418633 -27.953465
v  125.130768 79.330963 -33.985512
v  125.115524 74.944962 -29.476931
v  30.642981 76.232613 -29.995243
v  46.058681 76.214470 -30.046526
v  61.086227 83.342628 -32.828991
v  30.896997 83.282326 -49.295433
v  1.488150 83.385681 -32.031788
v  16.782928 79.389679 -31.888557
v  -150.011246 67.215393 -33.181152
v  -146.126968 69.842323 -32.674057
v  -132.071930 78.878258 -27.868505
v  -120.508118 83.058372 -32.078331
v  -144.080261 82.963631 -48.335285
v  -148.506439 79.109406 -52.028965
v  -146.848953 70.521301 -45.384369
v  -60.703518 51.597321 12.175836
v  -107.524971 51.071598 11.786635
v  -86.026909 47.763309 4.913787
v  -86.246605 43.207214 4.375193
v  -150.150467 48.185543 -52.570633
v  -109.155914 47.412621 -82.597359
v  -140.123215 46.685493 -82.161636
v  -146.753616 47.667328 -78.981827
v  -147.843414 51.989395 -78.852638
v  -144.007706 52.185570 -80.020813
v  124.148293 68.260620 -82.300003
v  150.331238 68.372078 -77.987747
v  154.473114 67.846886 -57.307724
v  150.299744 62.709412 -78.849182
v  152.893677 74.018524 -81.484055
v  -87.475525 83.248238 -46.721363
v  -56.461720 83.312134 -32.933243
v  -66.061829 78.942223 -29.359737
v  -86.242462 69.636604 -27.949152
v  -106.867424 79.196442 -27.728001
v  153.554230 29.268177 -81.291641
v  121.480515 18.539444 -82.432663
v  152.794678 8.422741 -81.323494
v  154.678467 18.811880 -55.735767
v  153.040253 22.653542 -78.247025
v  149.874878 13.634859 -79.393700
v  -48.401314 82.758446 -81.518448
v  -27.401581 83.154526 -63.076283
v  -13.019417 82.787117 -80.362015
v  -7.010831 77.790848 -82.912834
v  -27.518408 65.307869 -82.821541
v  -43.501354 77.574203 -82.912750
v  -27.763922 82.608391 -73.566154
v  -23.096083 81.327156 -79.838676
v  -14.518535 77.999489 -82.693985
v  -37.141445 76.485985 -82.737091
v  -36.061142 79.807159 -81.534508
v  -75.710457 49.458683 11.744029
v  -80.228348 45.029541 6.994083
v  -93.486702 48.290894 9.685367
v  -90.336823 50.968956 9.727362
# 316 vertices

vn -0.880848 0.356770 0.311162
vn -0.955108 0.238048 0.176358
vn -0.999594 0.013487 0.025080
vn -0.904065 0.115329 0.411540
vn 0.652894 0.252618 -0.714082
vn 0.630095 0.442363 -0.638197
vn 0.998659 -0.028195 -0.043420
vn 0.008281 0.637187 0.770665
vn 0.015306 0.942765 0.333107
vn -0.000440 0.998354 0.057349
vn 0.064434 0.859455 0.507135
vn 0.087349 0.650514 0.754454
vn 0.015955 0.488931 0.872177
vn -0.001990 0.927366 0.374151
vn -0.012338 0.767361 0.641096
vn -0.012430 0.650032 0.759805
vn -0.394763 0.817405 0.419537
vn 0.001010 0.685892 0.727703
vn -0.007946 0.361253 0.932434
vn -0.091204 0.675457 0.731737
vn -0.056222 0.671055 0.739272
vn 0.178462 0.853824 0.489015
vn -0.265220 0.767189 0.584020
vn 0.038935 0.985364 0.165957
vn -0.448293 0.537946 0.713896
vn -0.125276 0.921720 0.367067
vn -0.257598 0.766436 0.588404
vn -0.412177 0.568954 0.711619
vn -0.618660 0.633687 0.464436
vn -0.278147 0.304953 0.910845
vn 0.000000 0.000000 -1.000000
vn 0.024492 0.308862 -0.950791
vn -0.151183 0.391838 -0.907528
vn -0.467437 0.434206 -0.770044
vn -0.128020 0.109741 -0.985681
vn -0.439398 0.870989 0.219788
vn -0.774491 0.523437 0.355215
vn -0.596454 0.798250 0.083897
vn -0.775528 0.625284 -0.087034
vn -0.599428 0.653316 0.462454
vn -0.926676 0.246527 0.283719
vn -0.557415 0.405341 0.724560
vn -0.771576 0.280957 0.570731
vn 0.710283 0.257458 -0.655144
vn 0.308809 0.807307 -0.502884
vn 0.406892 0.885048 0.226119
vn 0.790431 0.599162 0.127373
vn 0.874884 0.250589 0.414468
vn 0.398774 0.427891 0.811103
vn 0.610833 0.530012 0.588193
vn 0.988467 0.110330 0.103737
vn -0.549344 0.671252 0.497636
vn -0.487445 0.785773 0.380734
vn -0.977957 0.195881 0.072330
vn -0.599250 0.642951 0.476983
vn -0.545844 0.607412 0.577152
vn -0.227648 0.243219 0.942879
vn -0.524709 0.801118 0.287907
vn -0.813100 0.267150 0.517204
vn 0.828540 0.439127 0.347403
vn 0.482820 0.866929 0.123772
vn 0.923109 0.375916 0.080969
vn 0.566803 0.488779 0.663196
vn 0.653454 0.503745 0.565013
vn 0.973806 0.175873 0.144121
vn -0.988855 0.106506 0.104027
vn -0.587479 0.554101 0.589780
vn -0.359414 0.373845 0.855021
vn -0.903322 0.122756 0.411024
vn -0.905907 0.403564 0.128326
vn -0.347279 0.860396 0.372983
vn 0.530229 0.757941 0.379977
vn 0.806598 0.546247 0.225862
vn 0.924943 0.359159 0.124435
vn 0.562999 0.660080 0.497319
vn 0.613408 0.642221 0.459656
vn 0.975371 0.198527 0.096118
vn -0.375287 0.144760 0.915535
vn -0.387694 0.469097 0.793499
vn -0.873186 0.444873 0.199084
vn -0.463515 0.648718 0.603588
vn 0.551424 0.276307 0.787138
vn 0.539591 0.745595 0.391062
vn 0.461989 0.640444 0.613512
vn 0.586965 0.731561 0.346829
vn 0.673484 0.638984 0.371644
vn 0.756645 0.585452 0.291092
vn -0.103074 0.768066 0.632021
vn -0.033803 0.710089 0.703300
vn -0.314797 0.745221 0.587833
vn 0.805625 0.557424 -0.200616
vn 0.460404 0.874421 0.153020
vn 0.895928 0.437194 0.078574
vn 0.681651 0.631454 0.369619
vn 0.763670 0.156723 0.626295
vn -0.555820 0.766262 0.322346
vn -0.443265 0.298935 0.845076
vn -0.505463 0.413709 0.757200
vn -0.314371 0.850033 0.422629
vn 0.625822 0.207322 0.751907
vn 0.639567 0.343021 0.687962
vn -0.999998 0.001510 0.001232
vn -1.000000 0.000000 -0.000000
vn -0.999962 0.000119 -0.008738
vn -0.999961 0.000108 -0.008855
vn -0.705787 0.000020 -0.708424
vn -0.705766 0.000000 -0.708445
vn 0.978341 0.175488 0.109785
vn 0.999971 0.001630 -0.007458
vn 0.974617 0.180375 0.132612
vn 0.999630 0.015487 0.022342
vn 0.933356 0.228988 0.276425
vn 0.998471 0.032036 0.045053
vn -0.639903 0.681290 0.355482
vn -0.986589 0.105399 0.124629
vn -0.999872 0.013802 0.008086
vn -0.712752 0.112434 -0.692346
vn 0.710400 0.024672 -0.703366
vn 0.999957 0.000003 -0.009283
vn 0.682241 -0.145247 -0.716554
vn 0.998686 -0.035283 -0.037173
vn 1.000000 0.000000 -0.000000
vn 0.999962 0.000035 -0.008711
vn 0.716346 0.057129 -0.695402
vn 0.661370 0.248871 -0.707568
vn 0.005319 0.130062 -0.991492
vn -0.053526 0.928525 0.367391
vn 0.353452 0.465365 -0.811485
vn -0.042547 0.958198 -0.282925
vn 0.134920 0.873397 0.467946
vn 0.328253 0.828126 0.454375
vn 0.032247 0.996262 0.080140
vn -0.067507 0.825990 0.559627
vn -0.403782 0.677640 0.614625
vn 0.027934 0.684365 0.728604
vn -0.119710 0.565916 0.815726
vn 0.037686 0.348356 0.936604
vn -0.005047 0.092645 0.995686
vn -0.418620 0.499559 0.758418
vn -0.352634 0.610397 0.709271
vn 0.013107 0.768378 0.639862
vn -0.083050 0.422275 0.902655
vn -0.392550 0.385332 0.835119
vn 0.192039 0.981359 -0.007410
vn 0.019958 0.999058 0.038529
vn 0.019307 0.970791 0.239147
vn 0.542963 0.719925 0.432317
vn 0.163584 0.984452 0.063987
vn -0.006508 0.689344 0.724405
vn -0.215537 0.861269 0.460173
vn 0.267914 0.770724 0.578106
vn 0.027037 0.838990 0.543475
vn 0.056660 0.993176 0.101935
vn -0.168953 0.369343 0.913806
vn 0.033076 -0.111856 0.993174
vn -0.022922 0.083932 0.996208
vn 0.075819 0.871413 0.484655
vn -0.195327 0.408986 0.891391
vn 0.002583 0.678762 0.734354
vn -0.006780 0.233481 0.972338
vn -0.047467 0.699179 0.713369
vn 0.002034 0.934265 0.356574
vn -0.239348 0.925742 0.292770
vn 0.220030 0.811330 0.541599
vn -0.058294 0.718261 0.693328
vn -0.089481 0.803520 0.588514
vn -0.091638 0.962824 0.254110
vn -0.063459 0.889282 0.452935
vn 0.193918 0.894363 0.403126
vn 0.073613 0.724881 0.684929
vn -0.002902 0.502982 0.864292
vn -0.000285 0.786740 0.617284
vn 0.012549 0.469700 0.882737
vn 0.031440 0.692415 0.720814
vn -0.247285 0.594318 0.765269
vn 0.015540 0.715803 0.698130
vn -0.002087 0.310473 0.950580
vn -0.203491 0.612878 0.763526
vn 0.048218 0.489275 0.870796
vn -0.097021 0.395326 0.913403
vn 0.417419 0.561219 0.714699
vn 0.000577 0.699404 0.714727
vn 0.099474 0.813423 0.573103
vn 0.339656 0.904893 0.256521
vn 0.082478 0.935975 0.342269
vn 0.066736 0.937071 0.342702
vn 0.156496 0.633218 0.757987
vn 0.048879 0.966053 0.253678
vn 0.089144 0.923406 0.373329
vn 0.068892 0.678222 0.731621
vn -0.195051 0.896693 0.397363
vn 0.024871 0.962311 0.270810
vn -0.048643 0.379024 0.924108
vn 0.216674 0.829049 0.515490
vn 0.151279 0.578578 0.801475
vn -0.025654 0.035750 0.999031
vn 0.163424 0.634294 0.755621
vn 0.230259 0.521450 0.821627
vn 0.047571 0.417858 0.907266
vn 0.349483 0.618687 0.703625
vn -0.340962 0.328238 0.880912
vn 0.069512 0.766808 0.638102
vn 0.039427 0.391917 0.919156
vn -0.006912 0.000000 -0.999976
vn -0.004527 -0.001018 -0.999989
vn 0.006912 0.000000 -0.999976
vn 0.007673 0.000556 -0.999970
vn 0.004488 0.091715 -0.995775
vn 0.001462 0.766136 -0.642677
vn 0.000000 0.093471 -0.995622
vn -0.000384 0.766217 -0.642582
vn -0.309439 0.721615 -0.619289
vn -0.001558 0.766089 -0.642732
vn -0.003443 0.093269 -0.995635
vn -0.734823 0.303054 -0.606789
vn 0.215978 0.158463 -0.963454
vn -0.230269 0.827798 0.511593
vn -0.065589 0.955451 0.287769
vn -0.012364 0.789964 0.613029
vn 0.001311 0.870423 0.492302
vn -0.225232 0.603098 0.765208
vn -0.007541 0.876116 0.482041
vn -0.264957 0.812397 0.519432
vn 0.064391 0.553073 0.830641
vn 0.414793 0.778461 0.471110
vn 0.235808 0.824461 0.514450
vn 0.256067 0.220410 0.941195
vn -0.683527 -0.180117 -0.707353
vn 0.022112 -0.021794 -0.999518
vn 0.023639 0.000062 -0.999721
vn -0.157414 0.785154 0.598961
vn -0.387836 0.819254 0.422381
vn 0.140636 0.886728 0.440381
vn 0.500945 0.677159 0.538989
vn 0.290011 0.568083 0.770178
vn 0.673768 0.725726 -0.139135
vn -0.411421 0.817208 0.403612
vn 0.272455 0.955957 0.109158
vn -0.122602 0.850250 0.511902
vn 0.522350 0.667642 0.530476
vn 0.139506 0.986425 -0.086625
vn -0.194158 0.977174 0.086216
vn 0.688073 0.467942 0.554604
vn 0.212010 0.866656 0.451618
vn -0.366598 0.796528 0.480779
vn 0.425900 0.877052 0.222234
vn -0.578250 0.663740 0.474421
vn -0.617159 0.767061 0.175306
vn -0.578195 0.649571 0.493708
vn 0.009329 0.776216 0.630398
vn 0.037228 0.261423 0.964506
vn -0.016063 0.542546 0.839872
vn 0.357433 0.811390 0.462480
vn 0.641024 0.754038 0.143234
vn 0.751171 0.584562 0.306641
vn -0.074179 0.928485 0.363887
vn 0.000933 0.928642 0.370975
vn 0.185186 0.900031 0.394525
vn 0.004439 0.386739 0.922178
vn 0.440179 0.435219 0.785383
vn 0.028262 0.023094 0.999334
vn -0.051043 0.051180 0.997384
vn -0.055800 0.387314 0.920258
vn -0.016892 0.271383 0.962323
vn -0.105206 0.866286 0.488345
vn -0.134342 0.958852 0.250109
vn -0.373304 0.613195 0.696158
vn 0.014875 0.898085 0.439570
vn -0.280544 0.795457 0.537162
vn -0.632850 0.511958 0.580861
vn 0.827158 0.519658 0.213927
vn -0.000319 0.387976 0.921669
vn -0.000841 0.013429 0.999909
vn 0.082310 0.420478 0.903562
vn 0.403235 0.471285 0.784406
vn 0.035419 0.921129 0.387643
vn 0.007335 0.369586 0.929168
vn 0.159568 0.395531 0.904485
vn 0.183563 0.658692 0.729678
vn -0.003940 0.966688 0.255929
vn -0.024520 -0.035212 0.999079
vn -0.344991 -0.034589 0.937968
vn 0.235723 -0.183171 0.954402
vn -0.055824 -0.472943 0.879323
vn 0.295629 -0.505051 0.810881
vn -0.999543 0.006059 -0.029617
vn -0.776209 0.081404 -0.625199
vn -0.013663 -0.005705 -0.999890
vn -0.099405 0.196176 -0.975517
vn -0.730431 -0.309081 -0.609048
vn -0.116520 -0.116207 -0.986367
vn 0.638270 -0.367796 -0.676267
vn 0.688511 -0.326845 -0.647399
vn -0.034933 0.747499 0.663344
vn -0.043668 0.806514 0.589600
vn 0.767084 -0.413993 -0.490095
vn 0.443788 0.075285 -0.892964
vn 0.624324 0.375382 -0.685060
vn 0.001527 0.999820 -0.018913
vn 0.029587 0.763051 -0.645661
vn -0.100048 0.739750 -0.665403
vn -0.000134 0.094392 -0.995535
vn 0.035220 0.139548 -0.989589
vn 0.011416 -0.328182 0.944545
vn 0.085807 0.457841 0.884883
# 305 vertex normals

vt 0.487846 0.815494 0.000000
vt 0.464354 0.829427 0.000000
vt 0.396484 0.799502 0.000000
vt 0.488071 0.800485 0.000000
vt 0.992136 0.945767 0.000000
vt 0.992097 0.963969 0.000000
vt 0.916027 0.969189 0.000000
vt 0.492730 0.476312 0.000000
vt 0.594398 0.476312 0.000000
vt 0.594380 0.506059 0.000000
vt 0.594370 0.459508 0.000000
vt 0.548813 0.459508 0.000000
vt 0.594447 0.446830 0.000000
vt 0.594402 0.332630 0.000000
vt 0.594636 0.415661 0.000000
vt 0.404793 0.415660 0.000000
vt 0.405053 0.332630 0.000000
vt 0.594673 0.271673 0.000000
vt 0.594377 0.315589 0.000000
vt 0.405098 0.315589 0.000000
vt 0.404836 0.271673 0.000000
vt 0.523020 0.188639 0.000000
vt 0.553044 0.188639 0.000000
vt 0.522940 0.215450 0.000000
vt 0.442799 0.069300 0.000000
vt 0.493434 0.069300 0.000000
vt 0.443075 0.081978 0.000000
vt 0.467692 0.052437 0.000000
vt 0.441800 0.052437 0.000000
vt 0.442371 0.035472 0.000000
vt 0.587137 0.649731 -0.203522
vt 0.587137 0.698508 -0.203522
vt 0.395647 0.699217 -0.203522
vt 0.395647 0.649929 -0.203522
vt 0.403188 0.583961 0.000000
vt 0.405049 0.571346 0.000000
vt 0.425019 0.571346 0.000000
vt 0.448380 0.583961 0.000000
vt 0.014164 0.457438 0.000000
vt 0.013504 0.437214 0.000000
vt 0.035844 0.441041 0.000000
vt 0.036379 0.459507 0.000000
vt 0.036295 0.504424 0.000000
vt 0.015181 0.511046 0.000000
vt 0.014060 0.479531 0.000000
vt 0.036216 0.476312 0.000000
vt 0.982242 0.583962 0.000000
vt 0.962943 0.571346 0.000000
vt 0.963185 0.476313 0.000000
vt 0.985342 0.479535 0.000000
vt 0.985245 0.457444 0.000000
vt 0.963031 0.459509 0.000000
vt 0.964321 0.415661 0.000000
vt 0.986623 0.415799 0.000000
vt 0.036540 0.315589 0.000000
vt 0.015334 0.313486 0.000000
vt 0.012868 0.271804 0.000000
vt 0.035163 0.271673 0.000000
vt 0.014442 0.313318 0.000000
vt 0.036355 0.332630 0.000000
vt 0.036048 0.345510 0.000000
vt 0.014205 0.334983 0.000000
vt 0.985963 0.372120 0.000000
vt 0.963971 0.388988 0.000000
vt 0.985031 0.313326 0.000000
vt 0.962935 0.315589 0.000000
vt 0.964346 0.271674 0.000000
vt 0.986642 0.271809 0.000000
vt 0.012667 0.127815 0.000000
vt 0.035101 0.127712 0.000000
vt 0.036578 0.171602 0.000000
vt 0.014467 0.169344 0.000000
vt 0.014248 0.191000 0.000000
vt 0.036398 0.188641 0.000000
vt 0.963144 0.188638 0.000000
vt 0.985698 0.208123 0.000000
vt 0.986073 0.146994 0.000000
vt 0.962981 0.171595 0.000000
vt 0.964478 0.127704 0.000000
vt 0.986915 0.127805 0.000000
vt 0.013911 0.025699 0.000000
vt 0.013780 0.010817 0.000000
vt 0.035431 0.010206 0.000000
vt 0.035782 0.027060 0.000000
vt 0.013369 0.095653 0.000000
vt 0.035983 0.079625 0.000000
vt 0.985919 0.081468 0.000000
vt 0.963780 0.089269 0.000000
vt 0.963511 0.010208 0.000000
vt 0.984865 0.010658 0.000000
vt 0.985480 0.049520 0.000000
vt 0.963233 0.052436 0.000000
vt 0.431479 0.318823 0.000000
vt 0.528307 0.171599 0.000000
vt 0.020899 0.320263 0.000000
vt 0.985252 0.334990 0.000000
vt 0.963100 0.332630 0.000000
vt 0.963080 0.175869 0.000000
vt 0.985206 0.175874 0.000000
vt 0.985296 0.191002 0.000000
vt 0.036311 0.052438 0.000000
vt 0.036355 0.069305 0.000000
vt 0.014112 0.071550 0.000000
vt 0.014121 0.049627 0.000000
vt 0.985491 0.071509 0.000000
vt 0.963235 0.069295 0.000000
vt 0.271023 0.843097 0.000000
vt 0.270205 0.798147 0.000000
vt 0.395403 0.845018 0.000000
vt 0.148202 0.841199 0.000000
vt 0.148055 0.796835 0.000000
vt 0.004363 0.838976 0.000000
vt 0.005018 0.795298 0.000000
vt 0.782659 0.917189 0.000000
vt 0.846707 0.893958 0.000000
vt 0.846353 0.945138 0.000000
vt 0.790982 0.945053 0.000000
vt 0.643071 0.892925 0.000000
vt 0.622803 0.878500 0.000000
vt 0.722830 0.841607 0.000000
vt 0.723807 0.893047 0.000000
vt 0.562906 0.811107 0.000000
vt 0.598934 0.795431 0.000000
vt 0.601260 0.840958 0.000000
vt 0.542232 0.840870 0.000000
vt 0.121002 0.982863 0.000000
vt 0.147868 0.991702 0.000000
vt 0.140234 0.998000 0.000000
vt 0.090082 0.997461 0.000000
vt 0.148199 0.969595 0.000000
vt 0.148551 0.946182 0.000000
vt 0.148375 0.893266 0.000000
vt 0.271294 0.941120 0.000000
vt 0.263661 0.947418 0.000000
vt 0.271977 0.895600 0.000000
vt 0.394721 0.890537 0.000000
vt 0.003590 0.890532 0.000000
vt 0.992244 0.895037 0.000000
vt 0.847065 0.842271 0.000000
vt 0.992296 0.871072 0.000000
vt 0.909426 0.842605 0.000000
vt 0.721956 0.795617 0.000000
vt 0.847386 0.795809 0.000000
vt 0.992456 0.796031 0.000000
vt 0.992416 0.814611 0.000000
vt 0.395647 0.635197 -0.203522
vt 0.395647 0.600859 -0.203522
vt 0.440481 0.600859 -0.203522
vt 0.395647 0.747914 -0.203522
vt 0.587137 0.747286 -0.203522
vt 0.587137 0.790290 0.203522
vt 0.395647 0.790290 0.203522
vt 0.723710 0.938570 0.000000
vt 0.601216 0.861989 0.000000
vt 0.387087 0.896836 0.000000
vt 0.846256 0.990661 0.000000
vt 0.106048 0.476312 0.000000
vt 0.376297 0.571346 0.000000
vt 0.405041 0.561604 0.000000
vt 0.860110 0.476313 0.000000
vt 0.889929 0.476313 0.000000
vt 0.908363 0.518677 0.000000
vt 0.693520 0.476313 0.000000
vt 0.067030 0.459507 0.000000
vt 0.214951 0.415660 0.000000
vt 0.276884 0.459508 0.000000
vt 0.215236 0.432133 0.000000
vt 0.405039 0.459508 0.000000
vt 0.937188 0.459509 0.000000
vt 0.909263 0.459509 0.000000
vt 0.909731 0.415661 0.000000
vt 0.638675 0.459508 0.000000
vt 0.041252 0.332630 0.000000
vt 0.360744 0.343835 0.000000
vt 0.305126 0.371235 0.000000
vt 0.345023 0.332630 0.000000
vt 0.366731 0.332630 0.000000
vt 0.940021 0.363596 0.000000
vt 0.784478 0.415661 0.000000
vt 0.783751 0.332630 0.000000
vt 0.701906 0.332630 0.000000
vt 0.746069 0.332630 0.000000
vt 0.749757 0.370495 0.000000
vt 0.057263 0.315589 0.000000
vt 0.146659 0.297056 0.000000
vt 0.215819 0.315589 0.000000
vt 0.215000 0.271673 0.000000
vt 0.783656 0.315589 0.000000
vt 0.784509 0.271673 0.000000
vt 0.744355 0.282924 0.000000
vt 0.745891 0.315589 0.000000
vt 0.215747 0.188640 0.000000
vt 0.405030 0.202249 0.000000
vt 0.385988 0.188639 0.000000
vt 0.804241 0.188638 0.000000
vt 0.826121 0.188638 0.000000
vt 0.805399 0.193077 0.000000
vt 0.594446 0.188639 0.000000
vt 0.771558 0.188638 0.000000
vt 0.214977 0.127710 0.000000
vt 0.215858 0.171601 0.000000
vt 0.404852 0.127708 0.000000
vt 0.325029 0.171600 0.000000
vt 0.405139 0.171599 0.000000
vt 0.825007 0.171596 0.000000
vt 0.784603 0.127705 0.000000
vt 0.832400 0.171596 0.000000
vt 0.803365 0.171596 0.000000
vt 0.771468 0.171597 0.000000
vt 0.594420 0.171598 0.000000
vt 0.783701 0.171597 0.000000
vt 0.594727 0.127707 0.000000
vt 0.138374 0.069304 0.000000
vt 0.174219 0.069303 0.000000
vt 0.215278 0.100332 0.000000
vt 0.322713 0.069302 0.000000
vt 0.405107 0.069301 0.000000
vt 0.404958 0.099143 0.000000
vt 0.894850 0.069296 0.000000
vt 0.689983 0.069298 0.000000
vt 0.735174 0.069297 0.000000
vt 0.692555 0.093675 0.000000
vt 0.215335 0.028984 0.000000
vt 0.191346 0.052438 0.000000
vt 0.163634 0.052438 0.000000
vt 0.215047 0.010206 0.000000
vt 0.405080 0.052437 0.000000
vt 0.345688 0.052437 0.000000
vt 0.404663 0.010206 0.000000
vt 0.918784 0.052436 0.000000
vt 0.716362 0.052437 0.000000
vt 0.689082 0.052437 0.000000
vt 0.688709 0.029372 0.000000
vt 0.204157 0.699925 -0.203522
vt 0.204157 0.650126 -0.203522
vt 0.970116 0.697090 -0.203522
vt 0.778627 0.697799 -0.203522
vt 0.778627 0.649534 -0.203522
vt 0.970116 0.649336 -0.203522
vt 0.789224 0.583961 0.000000
vt 0.783645 0.571346 0.000000
vt 0.596206 0.583961 0.000000
vt 0.594347 0.571346 0.000000
vt 0.036453 0.571345 0.000000
vt 0.215751 0.571345 0.000000
vt 0.210170 0.583960 0.000000
vt 0.017152 0.583960 0.000000
vt 0.371506 0.583961 0.000000
vt 0.908479 0.476313 0.000000
vt 0.948321 0.476313 0.000000
vt 0.405004 0.476312 0.000000
vt 0.314696 0.476312 0.000000
vt 0.067372 0.319157 0.000000
vt 0.215704 0.332630 0.000000
vt 0.063507 0.332630 0.000000
vt 0.352743 0.318473 0.000000
vt 0.959565 0.175114 0.000000
vt 0.771522 0.175631 0.000000
vt 0.357860 0.174669 0.000000
vt 0.204157 0.600859 -0.203522
vt 0.012667 0.650324 -0.203522
vt 0.012667 0.600859 -0.203522
vt 0.364216 0.600859 -0.203522
vt 0.870476 0.626215 -0.203522
vt 0.778626 0.600859 -0.203522
vt 0.970116 0.600859 -0.203522
vt 0.587137 0.600859 -0.203522
vt 0.204157 0.748542 -0.203522
vt 0.204157 0.790290 0.203522
vt 0.012667 0.790290 0.203522
vt 0.012667 0.749170 -0.203522
vt 0.970116 0.790290 0.203522
vt 0.778626 0.790290 0.203522
vt 0.863877 0.746379 -0.203522
vt 0.970116 0.772799 0.042669
vt 0.778626 0.746658 -0.203522
vt 0.970116 0.719650 -0.203522
vt 0.012667 0.700634 -0.203522
vt 0.436391 0.845457 0.000000
vt 0.509362 0.795298 0.000000
vt 0.802777 0.175835 0.000000
vt 0.825663 0.175745 0.000000
vt 0.831628 0.188638 0.000000
vt 0.783758 0.175910 0.000000
vt 0.783795 0.188638 0.000000
vt 0.985092 0.169343 0.000000
vt 0.405075 0.319132 0.000000
vt 0.382595 0.319577 0.000000
vt 0.389195 0.332626 0.000000
vt 0.365668 0.319913 0.000000
vt 0.380741 0.333983 0.000000
vt 0.390191 0.366074 0.000000
vt 0.619911 0.886370 0.000000
vt 0.608689 0.892872 0.000000
vt 0.605380 0.890061 0.000000
vt 0.601164 0.886481 0.000000
vt 0.405096 0.188639 0.000000
vt 0.424111 0.188639 0.000000
vt 0.338993 0.176725 0.000000
vt 0.036448 0.319100 0.000000
vt 0.044077 0.319132 0.000000
vt 0.035109 0.415659 0.000000
vt 0.012806 0.415794 0.000000
vt 0.468486 0.188639 0.000000
vt 0.472135 0.171599 0.000000
vt 0.591909 0.188639 0.000000
vt 0.497452 0.188639 0.000000
vt 0.963582 0.359371 0.000000
vt 0.985698 0.354513 0.000000
vt 0.768662 0.945018 0.000000
vt 0.731235 0.944961 0.000000
vt 0.783859 0.069297 0.000000
vt 0.594483 0.069299 0.000000
vt 0.648339 0.069298 0.000000
vt 0.594464 0.052437 0.000000
vt 0.664010 0.052437 0.000000
vt 0.594279 0.010207 0.000000
vt 0.783895 0.010207 0.000000
vt 0.783849 0.052437 0.000000
vt 0.529564 0.142270 0.000000
vt 0.215731 0.069303 0.000000
vt 0.269271 0.069302 0.000000
vt 0.247628 0.052438 0.000000
vt 0.215695 0.052438 0.000000
vt 0.063859 0.069304 0.000000
vt 0.046426 0.052438 0.000000
vt 0.487484 0.839625 0.000000
vt 0.479851 0.845924 0.000000
vt 0.613794 0.881823 0.000000
vt 0.516805 0.840832 0.000000
vt 0.509280 0.834441 0.000000
vt 0.479968 0.052437 0.000000
vt 0.458183 0.010207 0.000000
vt 0.678097 0.315589 0.000000
vt 0.889774 0.459509 0.000000
vt 0.783791 0.476313 0.000000
vt 0.783700 0.459509 0.000000
vt 0.873104 0.459509 0.000000
vt 0.150686 0.459507 0.000000
vt 0.215653 0.501131 0.000000
vt 0.002788 0.943972 0.000000
vt 0.002000 0.996515 0.000000
vt 0.301195 0.296087 0.000000
vt 0.233288 0.286744 0.000000
vt 0.183311 0.290217 0.000000
vt 0.250059 0.295630 0.000000
vt 0.191067 0.295936 0.000000
vt 0.095796 0.918271 0.000000
vt 0.036725 0.919877 0.000000
vt 0.146568 0.677383 -0.203522
vt 0.012667 0.672149 -0.203522
vt 0.022858 0.929723 0.000000
vt 0.012667 0.661438 -0.203522
vt 0.003136 0.920790 0.000000
vt 0.002965 0.932167 0.000000
vt 0.992026 0.997264 0.000000
vt 0.853781 0.997053 0.000000
vt 0.970116 0.632201 -0.203522
vt 0.970116 0.610812 -0.203522
vt 0.992048 0.986691 0.000000
vt 0.970116 0.620241 -0.203522
vt 0.992070 0.976675 0.000000
vt 0.215610 0.476312 0.000000
vt 0.215709 0.459507 0.000000
vt 0.970116 0.736700 -0.203522
vt 0.970116 0.746030 -0.203522
vt 0.970116 0.758735 -0.086681
vt 0.992384 0.829552 0.000000
vt 0.992356 0.843048 0.000000
vt 0.992334 0.852960 0.000000
vt 0.405031 0.535218 0.000000
vt 0.335430 0.571345 0.000000
vt 0.448196 0.571346 0.000000
vt 0.470802 0.583961 0.000000
vt 0.462726 0.600859 -0.203522
vt 0.345991 0.600859 -0.203522
vt 0.353136 0.583961 0.000000
vt 0.215441 0.295321 0.000000
vt 0.215234 0.284261 0.000000
# 379 texture coords

g StairsRuined_Straight
s 1
f -94/-379/-305 -93/-378/-304 -263/-377/-303 -281/-376/-302 
f -252/-375/-301 -28/-374/-300 -29/-373/-299 
f -50/-372/-298 -239/-371/-297 -51/-370/-296 
f -236/-369/-295 -49/-368/-294 -54/-367/-293 
f -227/-366/-292 -231/-365/-291 -232/-364/-290 -228/-363/-289 
f -219/-362/-288 -224/-361/-287 -223/-360/-286 -220/-359/-285 
f -128/-358/-284 -126/-357/-283 -125/-356/-282 
f -75/-355/-281 -81/-354/-280 -76/-353/-279 
f -77/-352/-278 -74/-351/-277 -73/-350/-276 
f -188/-349/-275 -193/-348/-275 -192/-347/-275 -189/-346/-275 
f -177/-345/-274 -243/-344/-273 -8/-343/-272 -7/-342/-271 
f -314/-341/-270 -48/-340/-269 -47/-339/-268 -271/-338/-267 
f -44/-337/-266 -43/-336/-265 -279/-335/-264 -295/-334/-263 
f -296/-333/-262 -315/-332/-261 -313/-331/-260 -270/-330/-259 
f -294/-329/-258 -278/-328/-257 -311/-327/-256 -292/-326/-255 
f -291/-325/-254 -140/-324/-253 -309/-323/-252 -289/-322/-251 
f -309/-323/-252 -140/-324/-253 -277/-321/-250 
f -269/-320/-249 -137/-319/-248 -136/-318/-247 
f -121/-317/-246 -292/-326/-255 -311/-327/-256 -122/-316/-245 
f -290/-315/-244 -276/-314/-243 -308/-313/-242 -288/-312/-241 
f -305/-311/-240 -285/-310/-239 -287/-309/-238 -275/-308/-237 
f -307/-307/-236 -267/-306/-235 -289/-322/-251 -309/-323/-252 
f -288/-312/-241 -308/-313/-242 -306/-305/-234 -90/-304/-233 
f -91/-303/-232 -274/-302/-231 -304/-301/-230 -284/-300/-229 
f -94/-299/-305 -281/-298/-302 -301/-297/-228 -95/-296/-227 
f -99/-295/-226 -98/-294/-225 -285/-310/-239 -305/-311/-240 
f -85/-293/-224 -284/-300/-229 -304/-301/-230 -88/-292/-223 
f -280/-291/-222 -300/-290/-221 -282/-289/-220 -272/-288/-219 
f -239/-371/-297 -50/-372/-298 -49/-368/-294 -236/-369/-295 
f -224/-361/-287 -227/-366/-292 -162/-287/-218 -223/-360/-286 
f -162/-287/-218 -227/-366/-292 -228/-363/-289 
f -126/-357/-283 -128/-358/-284 -127/-286/-217 
f -75/-355/-281 -74/-351/-277 -77/-352/-278 -81/-354/-280 
f -271/-338/-267 -295/-334/-263 -279/-335/-264 -314/-341/-270 
f -294/-329/-258 -270/-330/-259 -313/-331/-260 -278/-328/-257 
f -291/-325/-254 -141/-285/-216 -140/-324/-253 
f -290/-315/-244 -268/-284/-215 -310/-283/-214 -276/-314/-243 
f -287/-309/-238 -267/-306/-235 -307/-307/-236 -275/-308/-237 
f -164/-282/-213 -163/-281/-212 -266/-280/-211 -306/-305/-234 
f -283/-279/-210 -265/-278/-209 -303/-277/-208 -273/-276/-207 
f -282/-289/-220 -264/-275/-206 -302/-274/-205 -272/-288/-219 
f -255/-273/-204 -262/-272/-203 -263/-377/-303 -305/-271/-240 
f -262/-272/-203 -255/-273/-204 -254/-270/-202 -261/-269/-201 
f -261/-269/-201 -254/-270/-202 -253/-268/-200 -299/-267/-199 
f -120/-266/-198 -251/-265/-197 -292/-264/-255 -121/-263/-246 
f -90/-262/-233 -89/-261/-196 -249/-260/-195 -288/-259/-241 
f -84/-258/-194 -246/-257/-193 -284/-256/-229 -85/-255/-224 
f -42/-254/-192 -314/-253/-270 -279/-252/-264 -43/-251/-265 
f -48/-250/-269 -314/-253/-270 -42/-254/-192 
f -312/-249/-191 -257/-248/-190 -277/-247/-250 -136/-246/-247 
f -309/-245/-252 -277/-247/-250 -257/-248/-190 
f -305/-271/-240 -275/-244/-237 -255/-273/-204 
f -255/-273/-204 -309/-245/-252 -257/-248/-190 -254/-270/-202 
f -254/-270/-202 -257/-248/-190 -256/-243/-189 -253/-268/-200 
f -292/-264/-255 -251/-265/-197 -250/-242/-188 -252/-375/-301 
f -288/-259/-241 -249/-260/-195 -248/-241/-187 -251/-265/-197 
f -21/-240/-186 -250/-242/-188 -248/-241/-187 -18/-239/-185 
f -248/-241/-187 -250/-242/-188 -251/-265/-197 
f -249/-260/-195 -284/-256/-229 -246/-257/-193 -259/-238/-184 
f -248/-241/-187 -249/-260/-195 -259/-238/-184 -260/-237/-183 
f -248/-241/-187 -298/-236/-182 -19/-235/-181 -18/-239/-185 
f -260/-237/-183 -298/-236/-182 -248/-241/-187 
f -11/-234/-180 -177/-233/-274 -7/-232/-271 
f -181/-231/-275 -180/-230/-275 -185/-229/-275 -184/-228/-275 
f -181/-231/-275 -192/-347/-275 -193/-348/-275 -180/-230/-275 
f -288/-259/-241 -251/-265/-197 -120/-266/-198 -290/-227/-244 
f -89/-261/-196 -91/-226/-232 -284/-256/-229 -249/-260/-195 
f -255/-273/-204 -275/-244/-237 -307/-225/-236 -309/-245/-252 
f -292/-264/-255 -252/-375/-301 -29/-373/-299 -294/-224/-258 
f -44/-337/-266 -295/-334/-263 -45/-223/-179 
f -243/-344/-273 -5/-222/-178 -9/-221/-177 
f -60/-220/-176 -56/-219/-175 -61/-218/-174 
f -239/-371/-297 -52/-217/-173 -51/-370/-296 
f -46/-216/-172 -271/-338/-267 -47/-339/-268 
f -233/-215/-171 -232/-364/-290 -24/-214/-170 -23/-213/-169 
f -235/-212/-168 -24/-214/-170 -232/-364/-290 
f -58/-211/-167 -63/-210/-166 -57/-209/-165 
f -53/-208/-164 -236/-369/-295 -54/-367/-293 
f -137/-319/-248 -269/-320/-249 -139/-207/-163 
f -150/-206/-162 -83/-205/-161 -82/-204/-160 -160/-203/-159 
f -123/-202/-158 -230/-201/-157 -226/-200/-156 -310/-283/-214 
f -311/-327/-256 -57/-209/-165 -123/-202/-158 -122/-316/-245 
f -123/-202/-158 -57/-209/-165 -230/-201/-157 
f -67/-199/-155 -70/-198/-154 -68/-197/-153 
f -133/-196/-152 -289/-322/-251 -40/-195/-151 -222/-194/-150 
f -40/-195/-151 -289/-322/-251 -221/-193/-149 
f -225/-192/-148 -218/-191/-147 -308/-313/-242 -276/-314/-243 
f -65/-190/-146 -225/-192/-148 -69/-189/-145 
f -217/-188/-144 -221/-193/-149 -289/-322/-251 -267/-306/-235 
f -147/-187/-143 -221/-193/-149 -217/-188/-144 -148/-186/-142 
f -220/-359/-285 -221/-193/-149 -147/-187/-143 
f -153/-185/-141 -174/-184/-140 -154/-183/-139 
f -219/-362/-288 -215/-182/-138 -166/-181/-137 -218/-191/-147 
f -210/-180/-136 -211/-179/-135 -287/-309/-238 -285/-310/-239 
f -209/-178/-134 -142/-177/-133 -211/-179/-135 -210/-180/-136 
f -145/-176/-132 -142/-177/-133 -209/-178/-134 
f -274/-302/-231 -173/-175/-131 -207/-174/-130 -304/-301/-230 
f -274/-302/-231 -169/-173/-129 -173/-175/-131 
f -207/-174/-130 -173/-175/-131 -151/-172/-128 
f -168/-171/-127 -212/-170/-126 -207/-174/-130 -213/-169/-125 
f -208/-168/-124 -207/-174/-130 -212/-170/-126 
f -101/-167/-123 -107/-166/-122 -106/-165/-121 
f -79/-164/-120 -205/-163/-119 -80/-162/-118 
f -87/-161/-117 -302/-274/-205 -88/-292/-223 
f -112/-160/-116 -117/-159/-115 -116/-158/-114 
f -103/-157/-113 -102/-156/-112 -100/-155/-111 -198/-154/-110 
f -200/-153/-109 -78/-152/-108 -197/-151/-107 
f -280/-291/-222 -272/-288/-219 -86/-150/-106 
f -113/-149/-105 -111/-148/-104 -110/-147/-103 
f -189/-346/-275 -192/-347/-275 -191/-146/-102 -190/-145/-101 
f -250/-144/-188 -194/-143/-100 -187/-142/-99 -252/-141/-301 
f -193/-348/-275 -188/-349/-275 -187/-142/-99 -194/-143/-100 
f -175/-140/-98 -245/-139/-97 -315/-332/-261 -296/-333/-262 
f -176/-138/-96 -244/-137/-95 -245/-139/-97 -175/-140/-98 
f -316/-136/-94 -242/-135/-93 -178/-134/-92 -297/-133/-91 
f -5/-222/-178 -243/-344/-273 -177/-345/-274 -6/-132/-90 
f -64/-131/-89 -63/-210/-166 -58/-211/-167 -62/-130/-88 
f -239/-371/-297 -236/-369/-295 -53/-208/-164 -52/-217/-173 
f -46/-216/-172 -45/-223/-179 -295/-334/-263 -271/-338/-267 
f -235/-212/-168 -240/-129/-87 -25/-128/-86 -24/-214/-170 
f -226/-200/-156 -225/-192/-148 -276/-314/-243 -310/-283/-214 
f -70/-198/-154 -69/-189/-145 -225/-192/-148 -226/-200/-156 
f -134/-127/-85 -222/-194/-150 -229/-126/-84 -135/-125/-83 
f -134/-127/-85 -133/-196/-152 -222/-194/-150 
f -161/-124/-82 -222/-194/-150 -223/-360/-286 
f -165/-123/-81 -164/-282/-213 -306/-305/-234 
f -212/-170/-126 -168/-171/-127 -167/-122/-80 
f -211/-179/-135 -217/-188/-144 -267/-306/-235 -287/-309/-238 
f -148/-186/-142 -144/-121/-79 -145/-176/-132 
f -302/-274/-205 -87/-161/-117 -86/-150/-106 -272/-288/-219 
f -112/-160/-116 -111/-148/-104 -113/-149/-105 -117/-159/-115 
f -100/-155/-111 -102/-156/-112 -107/-166/-122 -101/-167/-123 
f -78/-152/-108 -200/-153/-109 -205/-163/-119 -79/-164/-120 
f -178/-120/-92 -190/-145/-101 -258/-119/-78 -297/-118/-91 
f -6/-117/-90 -177/-233/-274 -11/-234/-180 
f -31/-116/-77 -187/-142/-99 -175/-115/-98 -296/-114/-262 
f -31/-116/-77 -252/-141/-301 -187/-142/-99 
f -188/-349/-275 -176/-113/-96 -175/-115/-98 -187/-142/-99 
f -182/-112/-102 -183/-111/-102 -299/-110/-199 -253/-109/-200 
f -181/-231/-275 -184/-228/-275 -183/-111/-102 -182/-112/-102 
f -298/-108/-182 -186/-107/-100 -20/-106/-76 -19/-105/-181 
f -179/-104/-100 -20/-106/-76 -186/-107/-100 
f -185/-229/-275 -180/-230/-275 -179/-104/-100 -186/-107/-100 
f -179/-104/-100 -250/-144/-188 -21/-103/-186 -20/-106/-76 
f -194/-143/-100 -250/-144/-188 -179/-104/-100 
f -180/-230/-275 -193/-348/-275 -194/-143/-100 -179/-104/-100 
f -256/-102/-189 -191/-146/-102 -182/-112/-102 -253/-109/-200 
f -192/-347/-275 -181/-231/-275 -182/-112/-102 -191/-146/-102 
f -263/-377/-303 -93/-378/-304 -99/-101/-226 -305/-271/-240 
f -300/-100/-221 -246/-257/-193 -84/-258/-194 
f -152/-99/-75 -151/-172/-128 -173/-175/-131 -172/-98/-74 
f -152/-99/-75 -172/-98/-74 -174/-184/-140 -153/-185/-141 
f -167/-122/-80 -166/-181/-137 -215/-182/-138 -212/-170/-126 
f -172/-98/-74 -173/-175/-131 -170/-97/-73 -174/-184/-140 
f -170/-97/-73 -173/-175/-131 -169/-173/-129 
f -167/-122/-80 -168/-171/-127 -213/-169/-125 -171/-96/-72 
f -166/-181/-137 -167/-122/-80 -171/-96/-72 -214/-95/-71 
f -166/-181/-137 -214/-95/-71 -218/-191/-147 
f -169/-173/-129 -274/-302/-231 -165/-123/-81 
f -169/-173/-129 -165/-123/-81 -306/-305/-234 -170/-97/-73 
f -165/-123/-81 -274/-302/-231 -164/-282/-213 
f -286/-94/-70 -163/-281/-212 -164/-282/-213 -274/-302/-231 
f -162/-287/-218 -228/-363/-289 -158/-93/-69 
f -157/-92/-68 -156/-91/-67 -160/-203/-159 -159/-90/-66 
f -157/-92/-68 -159/-90/-66 -223/-360/-286 -158/-93/-69 
f -161/-124/-82 -223/-360/-286 -159/-90/-66 
f -158/-93/-69 -223/-360/-286 -162/-287/-218 
f -158/-93/-69 -228/-363/-289 -156/-91/-67 -157/-92/-68 
f -155/-89/-65 -160/-203/-159 -156/-91/-67 
f -156/-91/-67 -228/-363/-289 -155/-89/-65 
f -218/-191/-147 -214/-95/-71 -154/-183/-139 
f -154/-183/-139 -214/-95/-71 -153/-185/-141 
f -171/-96/-72 -152/-99/-75 -153/-185/-141 -214/-95/-71 
f -151/-172/-128 -152/-99/-75 -171/-96/-72 -213/-169/-125 
f -151/-172/-128 -213/-169/-125 -207/-174/-130 
f -218/-191/-147 -154/-183/-139 -174/-184/-140 -308/-313/-242 
f -232/-364/-290 -83/-205/-161 -150/-206/-162 
f -170/-97/-73 -306/-305/-234 -308/-313/-242 -174/-184/-140 
f -159/-90/-66 -160/-203/-159 -161/-124/-82 
f -161/-124/-82 -160/-203/-159 -82/-204/-160 
f -228/-363/-289 -232/-364/-290 -131/-88/-64 
f -160/-203/-159 -155/-89/-65 -150/-206/-162 
f -150/-206/-162 -131/-88/-64 -232/-364/-290 
f -149/-87/-63 -266/-86/-211 -163/-85/-212 -286/-84/-70 
f -145/-176/-132 -216/-83/-62 -148/-186/-142 
f -148/-186/-142 -216/-83/-62 -147/-187/-143 
f -147/-187/-143 -216/-83/-62 -146/-82/-61 
f -146/-82/-61 -216/-83/-62 -145/-176/-132 
f -142/-177/-133 -145/-176/-132 -144/-121/-79 
f -142/-177/-133 -143/-81/-60 -217/-188/-144 -211/-179/-135 
f -148/-186/-142 -217/-188/-144 -143/-81/-60 
f -141/-285/-216 -291/-325/-254 -132/-80/-59 
f -141/-285/-216 -269/-320/-249 -136/-318/-247 
f -277/-321/-250 -140/-324/-253 -141/-285/-216 -136/-318/-247 
f -138/-79/-58 -132/-80/-59 -291/-325/-254 
f -137/-319/-248 -229/-126/-84 -233/-215/-171 -293/-78/-57 
f -135/-125/-83 -229/-126/-84 -137/-319/-248 
f -312/-77/-191 -136/-318/-247 -137/-319/-248 -293/-78/-57 
f -137/-319/-248 -139/-207/-163 -135/-125/-83 
f -291/-325/-254 -133/-196/-152 -134/-127/-85 -138/-79/-58 
f -133/-196/-152 -291/-325/-254 -289/-322/-251 
f -138/-79/-58 -134/-127/-85 -135/-125/-83 -139/-207/-163 
f -132/-80/-59 -138/-79/-58 -139/-207/-163 -269/-320/-249 
f -132/-80/-59 -269/-320/-249 -141/-285/-216 
f -150/-206/-162 -155/-89/-65 -131/-88/-64 
f -131/-88/-64 -155/-89/-65 -228/-363/-289 
f -219/-362/-288 -220/-359/-285 -125/-356/-282 -215/-182/-138 
f -130/-76/-56 -220/-359/-285 -147/-187/-143 -146/-82/-61 
f -125/-356/-282 -220/-359/-285 -130/-76/-56 
f -108/-75/-55 -130/-76/-56 -146/-82/-61 -145/-176/-132 
f -215/-182/-138 -129/-74/-54 -127/-286/-217 -212/-170/-126 
f -125/-356/-282 -130/-76/-56 -124/-73/-53 
f -128/-358/-284 -124/-73/-53 -127/-286/-217 
f -127/-286/-217 -129/-74/-54 -126/-357/-283 
f -129/-74/-54 -215/-182/-138 -125/-356/-282 -126/-357/-283 
f -124/-73/-53 -128/-358/-284 -125/-356/-282 
f -124/-73/-53 -130/-76/-56 -127/-286/-217 
f -123/-202/-158 -119/-72/-52 -122/-316/-245 
f -121/-317/-246 -122/-316/-245 -119/-72/-52 -118/-71/-51 
f -121/-263/-246 -118/-70/-51 -120/-266/-198 
f -123/-202/-158 -310/-283/-214 -119/-72/-52 
f -268/-284/-215 -118/-71/-51 -119/-72/-52 -310/-283/-214 
f -120/-266/-198 -118/-70/-51 -268/-69/-215 -290/-227/-244 
f -207/-174/-130 -116/-158/-114 -117/-159/-115 -203/-68/-50 
f -208/-168/-124 -204/-67/-49 -116/-158/-114 -207/-174/-130 
f -116/-158/-114 -204/-67/-49 -115/-66/-48 
f -201/-65/-47 -114/-64/-46 -115/-66/-48 -204/-67/-49 
f -196/-63/-45 -110/-147/-103 -114/-64/-46 -201/-65/-47 
f -195/-62/-44 -202/-61/-43 -110/-147/-103 -196/-63/-45 
f -110/-147/-103 -202/-61/-43 -113/-149/-105 
f -117/-159/-115 -113/-149/-105 -202/-61/-43 -203/-68/-50 
f -116/-158/-114 -115/-66/-48 -112/-160/-116 
f -114/-64/-46 -111/-148/-104 -112/-160/-116 -115/-66/-48 
f -111/-148/-104 -114/-64/-46 -110/-147/-103 
f -209/-178/-134 -109/-60/-42 -108/-75/-55 -145/-176/-132 
f -109/-60/-42 -209/-178/-134 -208/-168/-124 -212/-170/-126 
f -109/-60/-42 -127/-286/-217 -108/-75/-55 
f -108/-75/-55 -127/-286/-217 -130/-76/-56 
f -109/-60/-42 -212/-170/-126 -127/-286/-217 
f -107/-166/-122 -206/-59/-41 -106/-165/-121 
f -106/-165/-121 -206/-59/-41 -105/-58/-40 
f -104/-57/-39 -105/-58/-40 -206/-59/-41 -199/-56/-38 
f -104/-57/-39 -199/-56/-38 -103/-157/-113 
f -103/-157/-113 -199/-56/-38 -102/-156/-112 
f -206/-59/-41 -107/-166/-122 -102/-156/-112 -199/-56/-38 
f -101/-167/-123 -285/-310/-239 -98/-294/-225 -97/-55/-37 
f -101/-167/-123 -106/-165/-121 -210/-180/-136 -285/-310/-239 
f -96/-54/-36 -100/-155/-111 -101/-167/-123 -97/-55/-37 
f -301/-297/-228 -100/-155/-111 -96/-54/-36 -95/-296/-227 
f -100/-155/-111 -301/-297/-228 -198/-154/-110 
f -98/-294/-225 -99/-295/-226 -303/-277/-208 -265/-278/-209 
f -98/-294/-225 -265/-278/-209 -97/-55/-37 
f -96/-54/-36 -97/-55/-37 -265/-278/-209 -283/-279/-210 
f -96/-54/-36 -283/-279/-210 -95/-296/-227 
f -273/-276/-207 -94/-299/-305 -95/-296/-227 -283/-279/-210 
f -94/-379/-305 -273/-53/-207 -93/-378/-304 
f -303/-52/-208 -99/-101/-226 -93/-378/-304 -273/-53/-207 
f -149/-87/-63 -286/-84/-70 -92/-51/-35 
f -92/-51/-35 -286/-84/-70 -91/-226/-232 
f -91/-303/-232 -286/-94/-70 -274/-302/-231 
f -306/-305/-234 -266/-280/-211 -90/-304/-233 
f -149/-87/-63 -92/-51/-35 -90/-262/-233 -266/-86/-211 
f -90/-262/-233 -92/-51/-35 -89/-261/-196 
f -89/-261/-196 -92/-51/-35 -91/-226/-232 
f -144/-121/-79 -148/-186/-142 -143/-81/-60 
f -144/-121/-79 -143/-81/-60 -142/-177/-133 
f -87/-161/-117 -304/-301/-230 -207/-174/-130 -203/-68/-50 
f -88/-292/-223 -304/-301/-230 -87/-161/-117 
f -202/-61/-43 -86/-150/-106 -87/-161/-117 -203/-68/-50 
f -202/-61/-43 -195/-62/-44 -280/-291/-222 -86/-150/-106 
f -264/-275/-206 -85/-293/-224 -88/-292/-223 -302/-274/-205 
f -264/-50/-206 -282/-49/-220 -84/-258/-194 -85/-255/-224 
f -84/-258/-194 -282/-49/-220 -300/-100/-221 
f -232/-364/-290 -233/-215/-171 -83/-205/-161 
f -229/-126/-84 -82/-204/-160 -83/-205/-161 -233/-215/-171 
f -222/-194/-150 -161/-124/-82 -82/-204/-160 -229/-126/-84 
f -209/-178/-134 -81/-354/-280 -204/-67/-49 -208/-168/-124 
f -76/-353/-279 -81/-354/-280 -209/-178/-134 -80/-162/-118 
f -106/-165/-121 -79/-164/-120 -209/-178/-134 -210/-180/-136 
f -106/-165/-121 -105/-58/-40 -79/-164/-120 
f -80/-162/-118 -209/-178/-134 -79/-164/-120 
f -104/-57/-39 -78/-152/-108 -79/-164/-120 -105/-58/-40 
f -198/-154/-110 -197/-151/-107 -104/-57/-39 -103/-157/-113 
f -78/-152/-108 -104/-57/-39 -197/-151/-107 
f -72/-48/-34 -71/-47/-33 -196/-63/-45 -201/-65/-47 
f -81/-354/-280 -72/-48/-34 -201/-65/-47 -204/-67/-49 
f -76/-353/-279 -80/-162/-118 -205/-163/-119 -75/-355/-281 
f -200/-153/-109 -74/-351/-277 -75/-355/-281 -205/-163/-119 
f -74/-351/-277 -200/-153/-109 -197/-151/-107 -73/-350/-276 
f -81/-354/-280 -77/-352/-278 -72/-48/-34 
f -73/-350/-276 -71/-47/-33 -72/-48/-34 -77/-352/-278 
f -73/-350/-276 -197/-151/-107 -71/-47/-33 
f -69/-189/-145 -70/-198/-154 -67/-199/-155 -66/-46/-32 
f -230/-201/-157 -231/-365/-291 -68/-197/-153 -226/-200/-156 
f -227/-366/-292 -67/-199/-155 -68/-197/-153 -231/-365/-291 
f -66/-46/-32 -67/-199/-155 -227/-366/-292 -224/-361/-287 
f -219/-362/-288 -65/-190/-146 -66/-46/-32 -224/-361/-287 
f -218/-191/-147 -225/-192/-148 -65/-190/-146 -219/-362/-288 
f -69/-189/-145 -66/-46/-32 -65/-190/-146 
f -70/-198/-154 -226/-200/-156 -68/-197/-153 
f -55/-45/-31 -63/-210/-166 -64/-131/-89 -56/-219/-175 
f -313/-331/-260 -315/-332/-261 -61/-218/-174 -62/-130/-88 
f -245/-139/-97 -238/-44/-30 -61/-218/-174 -315/-332/-261 
f -61/-218/-174 -238/-44/-30 -60/-220/-176 
f -237/-43/-29 -59/-42/-28 -60/-220/-176 -238/-44/-30 
f -230/-201/-157 -57/-209/-165 -59/-42/-28 -237/-43/-29 
f -278/-328/-257 -58/-211/-167 -57/-209/-165 -311/-327/-256 
f -62/-130/-88 -58/-211/-167 -278/-328/-257 -313/-331/-260 
f -63/-210/-166 -55/-45/-31 -57/-209/-165 
f -64/-131/-89 -62/-130/-88 -61/-218/-174 
f -59/-42/-28 -55/-45/-31 -56/-219/-175 -60/-220/-176 
f -55/-45/-31 -59/-42/-28 -57/-209/-165 
f -56/-219/-175 -64/-131/-89 -61/-218/-174 
f -53/-208/-164 -231/-365/-291 -230/-201/-157 -237/-43/-29 
f -54/-367/-293 -231/-365/-291 -53/-208/-164 
f -52/-217/-173 -53/-208/-164 -237/-43/-29 -238/-44/-30 
f -244/-137/-95 -52/-217/-173 -238/-44/-30 -245/-139/-97 
f -52/-217/-173 -244/-137/-95 -51/-370/-296 
f -8/-343/-272 -243/-344/-273 -9/-221/-177 
f -235/-212/-168 -49/-368/-294 -50/-372/-298 -240/-129/-87 
f -231/-365/-291 -54/-367/-293 -235/-212/-168 -232/-364/-290 
f -49/-368/-294 -235/-212/-168 -54/-367/-293 
f -293/-78/-57 -47/-339/-268 -48/-340/-269 -312/-77/-191 
f -46/-216/-172 -233/-215/-171 -23/-213/-169 -22/-41/-27 
f -46/-216/-172 -47/-339/-268 -293/-78/-57 -233/-215/-171 
f -46/-216/-172 -22/-41/-27 -45/-223/-179 
f -44/-337/-266 -26/-40/-26 -242/-135/-93 -316/-136/-94 
f -45/-223/-179 -26/-40/-26 -44/-337/-266 
f -43/-336/-265 -44/-337/-266 -316/-136/-94 -297/-133/-91 
f -258/-39/-78 -42/-254/-192 -43/-251/-265 -297/-38/-91 
f -258/-39/-78 -312/-249/-191 -48/-250/-269 -42/-254/-192 
f -41/-37/-25 -220/-359/-285 -223/-360/-286 -222/-194/-150 
f -221/-193/-149 -220/-359/-285 -41/-37/-25 
f -41/-37/-25 -3/-36/-24 -221/-193/-149 
f -40/-195/-151 -221/-193/-149 -2/-35/-23 
f -41/-37/-25 -222/-194/-150 -4/-34/-22 
f -222/-194/-150 -40/-195/-151 -1/-33/-21 
f -41/-37/-25 -4/-34/-22 -3/-36/-24 
f -1/-33/-21 -40/-195/-151 -2/-35/-23 
f -312/-249/-191 -258/-39/-78 -37/-32/-20 
f -37/-32/-20 -34/-31/-19 -256/-243/-189 
f -36/-30/-18 -190/-145/-101 -191/-146/-102 -256/-102/-189 
f -36/-30/-18 -256/-102/-189 -35/-29/-17 
f -37/-32/-20 -33/-28/-16 -34/-31/-19 
f -35/-29/-17 -32/-27/-15 -36/-30/-18 
f -37/-32/-20 -256/-243/-189 -257/-248/-190 -312/-249/-191 
f -36/-30/-18 -258/-119/-78 -190/-145/-101 
f -35/-26/-17 -34/-31/-19 -33/-28/-16 -32/-25/-15 
f -34/-31/-19 -35/-26/-17 -256/-243/-189 
f -37/-32/-20 -258/-39/-78 -33/-28/-16 
f -33/-28/-16 -258/-39/-78 -32/-25/-15 
f -32/-27/-15 -258/-119/-78 -36/-30/-18 
f -29/-373/-299 -296/-24/-262 -270/-23/-259 -294/-224/-258 
f -31/-116/-77 -28/-22/-300 -252/-141/-301 
f -31/-116/-77 -296/-114/-262 -27/-21/-14 
f -27/-20/-14 -296/-24/-262 -29/-373/-299 
f -31/-116/-77 -30/-19/-13 -28/-22/-300 
f -28/-374/-300 -30/-18/-13 -29/-373/-299 
f -29/-373/-299 -30/-18/-13 -27/-20/-14 
f -27/-21/-14 -30/-19/-13 -31/-116/-77 
f -45/-223/-179 -241/-17/-12 -26/-40/-26 
f -26/-40/-26 -241/-17/-12 -25/-128/-86 
f -24/-214/-170 -25/-128/-86 -241/-17/-12 -234/-16/-11 
f -24/-214/-170 -234/-16/-11 -23/-213/-169 
f -23/-213/-169 -234/-16/-11 -22/-41/-27 
f -45/-223/-179 -22/-41/-27 -234/-16/-11 -241/-17/-12 
f -17/-15/-10 -247/-14/-9 -20/-106/-76 
f -20/-106/-76 -16/-13/-8 -19/-105/-181 
f -19/-235/-181 -16/-12/-8 -18/-239/-185 
f -18/-239/-185 -247/-11/-9 -17/-10/-10 
f -20/-106/-76 -21/-103/-186 -17/-15/-10 
f -17/-10/-10 -21/-240/-186 -18/-239/-185 
f -20/-106/-76 -247/-14/-9 -16/-13/-8 
f -16/-12/-8 -247/-11/-9 -18/-239/-185 
f -240/-129/-87 -242/-135/-93 -26/-40/-26 -25/-128/-86 
f -240/-129/-87 -14/-9/-7 -15/-8/-6 -242/-135/-93 
f -51/-370/-296 -13/-7/-5 -240/-129/-87 -50/-372/-298 
f -51/-370/-296 -244/-137/-95 -13/-7/-5 
f -14/-9/-7 -240/-129/-87 -13/-7/-5 
f -12/-6/-4 -13/-7/-5 -244/-137/-95 -176/-138/-96 
f -189/-346/-275 -12/-5/-4 -176/-113/-96 -188/-349/-275 
f -12/-5/-4 -189/-346/-275 -11/-234/-180 
f -10/-4/-3 -189/-346/-275 -190/-145/-101 -178/-120/-92 
f -11/-234/-180 -189/-346/-275 -10/-4/-3 
f -15/-8/-6 -10/-3/-3 -178/-134/-92 -242/-135/-93 
f -15/-8/-6 -14/-9/-7 -9/-221/-177 
f -9/-221/-177 -14/-9/-7 -13/-7/-5 -8/-343/-272 
f -7/-342/-271 -8/-343/-272 -13/-7/-5 -12/-6/-4 
f -7/-232/-271 -12/-5/-4 -11/-234/-180 
f -11/-234/-180 -10/-4/-3 -6/-117/-90 
f -5/-222/-178 -6/-132/-90 -10/-3/-3 -15/-8/-6 
f -5/-222/-178 -15/-8/-6 -9/-221/-177 
f -222/-194/-150 -39/-2/-2 -4/-34/-22 
f -4/-34/-22 -39/-2/-2 -38/-1/-1 -3/-36/-24 
f -3/-36/-24 -38/-1/-1 -221/-193/-149 
f -221/-193/-149 -38/-1/-1 -2/-35/-23 
f -39/-2/-2 -1/-33/-21 -2/-35/-23 -38/-1/-1 
f -1/-33/-21 -39/-2/-2 -222/-194/-150 
# 211 polygons - 187 triangles

