# 3ds Max Wavefront OBJ Exporter v0.97b - (c)2007 guruware
# File Created: 30.04.2015 23:22:58

#
# object Stairs_Wood
#

v  -150.000000 12.500000 80.000000
v  150.000000 12.500000 80.000000
v  -150.000000 17.483089 80.000000
v  150.000000 17.483089 80.000000
v  -150.000000 12.500000 40.000000
v  150.000000 12.500000 40.000000
v  -150.000000 20.000000 40.000000
v  150.000000 20.000000 40.000000
v  -150.000000 32.500000 40.000000
v  150.000000 32.500000 40.000000
v  -150.000000 37.483089 40.000000
v  150.000000 37.483089 40.000000
v  -150.000000 32.500000 -0.000000
v  150.000000 32.500000 -0.000000
v  -150.000000 40.000000 -0.000000
v  150.000000 40.000000 -0.000000
v  -150.000000 52.500004 -0.000008
v  150.000000 52.500004 -0.000008
v  -150.000000 57.483093 -0.000008
v  150.000000 57.483093 -0.000008
v  -150.000000 52.500004 -40.000000
v  150.000000 52.500004 -40.000000
v  -150.000000 60.000004 -40.000000
v  150.000000 60.000004 -40.000000
v  -150.000000 72.500000 -40.000000
v  150.000000 72.500000 -40.000000
v  -150.000000 77.483093 -40.000000
v  150.000000 77.483093 -40.000000
v  -150.000000 72.500000 -80.000000
v  150.000000 72.500000 -80.000000
v  -150.000000 80.000000 -80.000000
v  150.000000 80.000000 -80.000000
v  -160.000000 100.002052 -80.000000
v  -150.000000 100.002052 -80.000000
v  -160.000000 -1.074818 117.307007
v  -150.000000 -1.074818 117.307007
v  -160.000000 -41.074818 117.307007
v  -150.000000 -41.074818 117.307007
v  -160.000000 60.002052 -80.000000
v  -150.000000 60.002052 -80.000000
v  160.000000 100.034790 -80.000000
v  160.000000 60.034790 -80.000000
v  160.000000 -41.062870 117.307007
v  160.000000 -1.062869 117.307007
v  150.000000 -1.062869 117.307007
v  150.000000 -41.062870 117.307007
v  150.000000 60.034790 -80.000000
v  150.000000 100.034790 -80.000000
v  150.000000 20.000000 76.000000
v  -150.000000 20.000000 76.000000
v  150.000000 40.000000 36.000000
v  -150.000000 40.000000 36.000000
v  150.000000 60.000004 -4.000008
v  -150.000000 60.000004 -4.000008
v  150.000000 80.000000 -44.000000
v  -150.000000 80.000000 -44.000000
v  -102.644241 18.065079 76.000000
v  -102.644241 15.548169 80.000000
v  -102.644241 10.565080 80.000000
v  -102.644241 10.565080 40.000000
v  -102.644241 18.065079 40.000000
v  66.842728 39.500031 36.000000
v  66.842728 36.983116 40.000000
v  66.842728 32.000031 40.000000
v  66.842728 32.000031 -0.000000
v  66.842728 39.500031 -0.000000
v  -44.422600 57.208031 -4.000015
v  -44.422600 54.691124 -0.000000
v  -44.422600 49.708031 -0.000000
v  -44.422600 49.708031 -40.000000
v  -44.422600 57.208031 -40.000000
v  104.488235 75.536591 -40.000000
v  104.488235 70.553497 -40.000000
v  104.488235 70.553497 -80.000000
v  104.488235 78.053497 -80.000000
v  104.488235 78.053497 -44.000000
v  -99.027863 80.554764 -44.000000
v  -99.027863 78.037849 -40.000000
v  -99.027863 73.054756 -40.000000
v  -99.027863 73.054756 -80.000000
v  -99.027863 80.554764 -80.000000
v  -2.967926 34.756607 40.000000
v  -2.967926 29.773520 40.000000
v  -2.967926 29.773520 -0.000000
v  -2.967926 37.273521 -0.000000
v  -2.967926 37.273521 36.000000
v  98.165771 13.835499 80.000000
v  98.165771 8.852411 80.000000
v  98.165771 8.852411 40.000000
v  98.165771 16.352411 40.000000
v  98.165771 16.352411 76.000000
# 91 vertices

vn -0.017540 -0.710490 0.703489
vn 0.011774 0.479528 0.877448
vn 0.020138 0.492856 0.869878
vn -0.028495 -0.697394 0.716121
vn 0.022087 -0.715416 -0.698349
vn -0.021539 0.697687 -0.716079
vn -0.050759 0.721308 -0.690752
vn 0.048539 -0.689769 -0.722401
vn 0.023769 0.960335 0.277835
vn 0.039251 0.960634 0.275029
vn 0.022087 -0.715416 0.698349
vn 0.048539 -0.689769 0.722401
vn 0.004754 -0.712677 0.701477
vn -0.003158 0.477445 0.878656
vn 0.009045 0.487770 0.872925
vn -0.013033 -0.702825 0.711243
vn 0.013342 -0.704045 -0.710030
vn -0.013452 0.709867 -0.704207
vn -0.004259 0.708449 -0.705750
vn 0.004243 -0.705742 -0.708456
vn -0.006433 0.960465 0.278328
vn 0.017819 0.960926 0.276230
vn 0.013342 -0.704045 0.710030
vn 0.004243 -0.705742 0.708456
vn -0.004298 -0.711627 0.702545
vn 0.002871 0.478597 0.878030
vn 0.012947 0.489587 0.871858
vn -0.018536 -0.700936 0.712983
vn -0.004298 -0.711627 -0.702544
vn 0.004243 0.702444 -0.711727
vn -0.010200 0.710273 -0.703852
vn 0.010107 -0.703810 -0.710317
vn 0.005820 0.960535 0.278098
vn 0.025410 0.960874 0.275817
vn 0.010107 -0.703810 0.710317
vn -0.000495 -0.704480 0.709724
vn 0.000343 0.486164 0.873868
vn -0.005233 0.480860 0.876782
vn 0.007722 -0.709519 0.704644
vn 0.010859 -0.713112 -0.700966
vn -0.010671 0.700725 -0.713352
vn -0.030629 0.716137 -0.697287
vn 0.029807 -0.696915 -0.716534
vn 0.000675 0.960985 0.276598
vn -0.010455 0.960629 0.277638
vn 0.010859 -0.713112 0.700966
vn 0.029807 -0.696915 0.716534
vn -0.606415 -0.414723 -0.678429
vn -0.556456 -0.708913 0.433357
vn -0.606415 0.414723 0.678429
vn -0.556456 0.708913 -0.433357
vn 0.606415 0.414723 0.678429
vn 0.556456 -0.708913 0.433357
vn 0.606415 -0.414723 -0.678429
vn 0.556456 0.708913 -0.433357
vn 0.606421 -0.414692 -0.678443
vn 0.556453 0.708933 -0.433329
vn 0.606421 0.414692 0.678443
vn 0.556453 -0.708933 0.433329
vn -0.606421 0.414692 0.678443
vn -0.556453 0.708933 -0.433329
vn -0.606421 -0.414692 -0.678443
vn -0.556453 -0.708933 0.433329
vn -0.029820 0.959857 0.278901
vn -0.067525 0.959564 0.273272
vn -0.018171 0.960843 0.276497
vn -0.005777 0.960895 0.276854
vn -0.013799 0.960932 0.276442
vn -0.014688 0.960348 0.278416
vn -0.041084 0.960589 0.274921
vn -0.014439 0.473915 0.880452
vn -0.028495 -0.697394 -0.716121
vn 0.029245 0.715760 -0.697734
vn 0.017361 0.703220 -0.710761
vn -0.017540 -0.710490 -0.703489
vn -0.002915 0.484854 0.874590
vn -0.009258 0.486428 0.873672
vn 0.004754 -0.712677 -0.701476
vn -0.004678 0.701326 -0.712825
vn -0.006991 0.486801 0.873485
vn -0.018536 -0.700936 -0.712983
vn 0.018851 0.712833 -0.701080
vn -0.021097 0.493285 0.869612
vn -0.007195 0.476868 0.878946
vn -0.000495 -0.704480 -0.709724
vn 0.000499 0.709696 -0.704508
vn 0.007722 -0.709519 -0.704644
vn -0.007669 0.704620 -0.709544
vn -0.013033 -0.702825 -0.711243
vn 0.013188 0.711170 -0.702896
vn -0.035140 0.499359 0.865682
# 91 vertex normals

vt 0.103180 0.281030 0.380415
vt 0.103180 0.295799 -0.380415
vt 0.000000 0.295799 -0.380415
vt 0.000000 0.281030 0.380415
vt 0.540708 0.389342 -0.380415
vt 0.540708 0.374572 -0.380415
vt 0.653645 0.374572 -0.380415
vt 0.653645 0.389342 -0.380415
vt 0.103180 0.313676 -0.380415
vt 0.000000 0.313676 -0.380415
vt 0.540708 0.281030 0.380415
vt 0.540708 0.202256 -0.380415
vt 0.653645 0.202256 -0.380415
vt 0.653645 0.281030 0.380415
vt 0.320356 0.078773 0.485357
vt 0.320356 0.093543 -0.485357
vt 0.000000 0.093543 -0.485357
vt 0.000000 0.078773 0.485357
vt 0.472461 0.187086 -0.485357
vt 0.472461 0.172316 -0.485357
vt 0.653645 0.172316 -0.485357
vt 0.653645 0.187086 -0.485357
vt 0.320356 0.111420 -0.485357
vt 0.000000 0.111420 -0.485357
vt 0.472461 0.078773 0.485357
vt 0.472461 0.000000 -0.485357
vt 0.653645 0.000000 -0.485357
vt 0.653645 0.078773 0.485357
vt 0.230034 0.685541 0.590299
vt 0.230034 0.700311 -0.590299
vt 0.000000 0.700311 -0.590299
vt 0.000000 0.685541 0.590299
vt 0.230034 0.793854 -0.590299
vt 0.230034 0.779084 -0.590299
vt 0.653645 0.779084 -0.590299
vt 0.653645 0.793854 -0.590299
vt 0.230034 0.718188 -0.590299
vt 0.000000 0.718188 -0.590299
vt 0.230034 0.606768 -0.590299
vt 0.653645 0.606768 -0.590299
vt 0.653645 0.685541 0.590299
vt 0.111059 0.483286 0.695241
vt 0.111059 0.498055 -0.695241
vt 0.000000 0.498055 -0.695241
vt 0.000000 0.483286 0.695241
vt 0.554484 0.591598 -0.695241
vt 0.554484 0.576828 -0.695241
vt 0.653646 0.576828 -0.695241
vt 0.653646 0.591598 -0.695241
vt 0.111059 0.515932 -0.695241
vt 0.000000 0.515932 -0.695241
vt 0.554484 0.483286 0.695241
vt 0.554484 0.404512 -0.695241
vt 0.653646 0.404512 -0.695241
vt 0.653646 0.483286 0.695241
vt 0.686269 0.995478 -0.621767
vt 0.686269 0.007177 -0.621767
vt 0.756021 0.007177 0.018841
vt 0.756021 0.995478 0.621767
vt 0.774389 0.007177 -0.621767
vt 0.827969 0.007177 -0.621767
vt 0.827969 0.995478 -0.621767
vt 0.774389 0.995478 -0.621767
vt 0.544633 0.980506 -0.309033
vt 0.544634 0.818639 0.309033
vt 0.578297 0.818639 0.309033
vt 0.578297 0.980506 -0.309033
vt 0.663718 0.995478 -0.621767
vt 0.663718 0.007177 -0.621767
vt 0.517088 0.982708 0.000000
vt 0.483465 0.982708 0.000000
vt 0.483465 0.820646 0.000000
vt 0.517088 0.820646 0.000000
vt 0.859962 0.994359 -0.621767
vt 0.926575 0.994359 0.621767
vt 0.926575 0.005716 0.018841
vt 0.859962 0.005716 -0.621767
vt 0.944117 0.005716 -0.621767
vt 0.944117 0.994359 -0.621767
vt 0.995287 0.994359 -0.621767
vt 0.995287 0.005716 -0.621767
vt 0.604500 0.983142 -0.309033
vt 0.638164 0.983143 -0.309033
vt 0.638164 0.821275 0.309033
vt 0.604501 0.821275 0.309033
vt 0.838425 0.994359 -0.621767
vt 0.838425 0.005716 -0.621767
vt 0.462746 0.981841 0.000000
vt 0.462746 0.819779 0.000000
vt 0.429123 0.819779 0.000000
vt 0.429123 0.981841 0.000000
vt 0.540708 0.313676 -0.380415
vt 0.653645 0.313676 -0.380415
vt 0.472461 0.111420 -0.485357
vt 0.653645 0.111420 -0.485357
vt 0.653645 0.718188 -0.590299
vt 0.554484 0.515932 -0.695241
vt 0.653646 0.515932 -0.695241
vt 0.540708 0.295799 -0.380415
vt 0.000000 0.389342 -0.380415
vt 0.000000 0.374572 -0.380415
vt 0.103180 0.374572 -0.380415
vt 0.103180 0.389342 -0.380415
vt 0.000000 0.202256 -0.380415
vt 0.103180 0.202256 -0.380415
vt 0.653645 0.093543 -0.485357
vt 0.472461 0.093543 -0.485357
vt 0.320356 0.187086 -0.485357
vt 0.320356 0.172316 -0.485357
vt 0.320356 0.000000 -0.485357
vt 0.653645 0.700311 -0.590299
vt 0.000000 0.793854 -0.590299
vt 0.000000 0.779084 -0.590299
vt 0.000000 0.606768 -0.590299
vt 0.653646 0.498055 -0.695241
vt 0.554484 0.498055 -0.695241
vt 0.111059 0.591598 -0.695241
vt 0.111059 0.576828 -0.695241
vt 0.111059 0.404512 -0.695241
vt 0.000000 0.591598 -0.695241
vt 0.000000 0.576828 -0.695241
vt 0.000000 0.404512 -0.695241
vt 0.000000 0.187085 -0.485357
vt 0.000000 0.172316 -0.485357
vt 0.000000 0.000000 -0.485357
vt 0.653645 0.295799 -0.380415
# 126 texture coords

g Stairs_Wood
s 1
f -33/-126/-91 -34/-125/-90 -89/-124/-89 -91/-123/-88 
f -3/-122/-87 -2/-121/-86 -84/-120/-85 -86/-119/-84 
f -34/-125/-90 -35/-118/-83 -42/-117/-82 -89/-124/-89 
f -4/-116/-81 -3/-115/-87 -86/-114/-84 -90/-113/-80 
f -9/-112/-79 -10/-111/-78 -81/-110/-77 -83/-109/-76 
f -27/-108/-75 -26/-107/-74 -76/-106/-73 -78/-105/-72 
f -10/-111/-78 -6/-104/-71 -40/-103/-70 -81/-110/-77 
f -28/-102/-69 -27/-101/-75 -78/-100/-72 -82/-99/-68 
f -23/-98/-67 -24/-97/-66 -73/-96/-65 -75/-95/-64 
f -22/-94/-63 -21/-93/-62 -68/-92/-61 -70/-91/-60 
f -24/-97/-66 -25/-90/-59 -38/-89/-58 -73/-96/-65 
f -23/-98/-67 -22/-88/-63 -70/-87/-60 -74/-86/-57 
f -13/-85/-56 -14/-84/-55 -65/-83/-54 -67/-82/-53 
f -18/-81/-52 -17/-80/-51 -60/-79/-50 -62/-78/-49 
f -14/-84/-55 -15/-77/-48 -36/-76/-47 -65/-83/-54 
f -19/-75/-46 -18/-74/-52 -62/-73/-49 -66/-72/-45 
f -53/-71/-44 -55/-70/-43 -57/-69/-42 -59/-68/-41 
f -56/-67/-40 -54/-66/-39 -52/-65/-38 -58/-64/-37 
f -56/-67/-40 -58/-64/-37 -59/-68/-41 -57/-69/-42 
f -54/-63/-39 -56/-62/-40 -57/-61/-42 -55/-60/-43 
f -52/-59/-38 -54/-58/-39 -55/-70/-43 -53/-71/-44 
f -58/-57/-37 -52/-56/-38 -53/-55/-44 -59/-54/-41 
f -50/-53/-36 -51/-52/-35 -48/-51/-34 -49/-50/-33 
f -47/-49/-32 -44/-48/-31 -45/-47/-30 -46/-46/-29 
f -47/-49/-32 -48/-51/-34 -51/-52/-35 -44/-48/-31 
f -46/-45/-29 -49/-44/-33 -48/-43/-34 -47/-42/-32 
f -45/-41/-30 -50/-53/-36 -49/-50/-33 -46/-40/-29 
f -44/-39/-31 -51/-38/-35 -50/-37/-36 -45/-36/-30 
f -84/-120/-85 -2/-121/-86 -1/-35/-28 -43/-34/-27 
f -76/-106/-73 -26/-107/-74 -30/-33/-26 -41/-32/-25 
f -68/-92/-61 -21/-93/-62 -25/-90/-59 -39/-31/-24 
f -60/-79/-50 -17/-80/-51 -16/-30/-23 -37/-29/-22 
f -4/-116/-81 -5/-28/-21 -34/-125/-90 -33/-126/-91 
f -87/-27/-20 -85/-26/-19 -31/-25/-18 -32/-24/-17 
f -5/-28/-21 -1/-35/-28 -35/-118/-83 -34/-125/-90 
f -91/-123/-88 -87/-23/-20 -32/-22/-17 -33/-126/-91 
f -85/-26/-19 -42/-117/-82 -35/-118/-83 -31/-25/-18 
f -82/-99/-68 -80/-21/-16 -29/-20/-15 -28/-102/-69 
f -8/-19/-14 -7/-18/-13 -26/-107/-74 -27/-108/-75 
f -80/-21/-16 -41/-32/-25 -30/-33/-26 -29/-20/-15 
f -9/-112/-79 -8/-17/-14 -27/-101/-75 -28/-102/-69 
f -7/-18/-13 -6/-104/-71 -30/-33/-26 -26/-107/-74 
f -74/-86/-57 -72/-16/-12 -24/-97/-66 -23/-98/-67 
f -71/-15/-11 -69/-14/-10 -21/-93/-62 -22/-94/-63 
f -72/-16/-12 -39/-31/-24 -25/-90/-59 -24/-97/-66 
f -75/-95/-64 -71/-13/-11 -22/-88/-63 -23/-98/-67 
f -69/-14/-10 -38/-89/-58 -25/-90/-59 -21/-93/-62 
f -66/-72/-45 -64/-12/-9 -20/-11/-8 -19/-75/-46 
f -12/-10/-7 -11/-9/-6 -17/-80/-51 -18/-81/-52 
f -64/-12/-9 -37/-29/-22 -16/-30/-23 -20/-11/-8 
f -13/-85/-56 -12/-8/-7 -18/-74/-52 -19/-75/-46 
f -11/-9/-6 -15/-77/-48 -16/-30/-23 -17/-80/-51 
f -19/-75/-46 -20/-11/-8 -14/-84/-55 -13/-85/-56 
f -20/-11/-8 -16/-30/-23 -15/-77/-48 -14/-84/-55 
f -63/-7/-5 -61/-6/-4 -11/-9/-6 -12/-10/-7 
f -67/-82/-53 -63/-5/-5 -12/-8/-7 -13/-85/-56 
f -61/-6/-4 -36/-76/-47 -15/-77/-48 -11/-9/-6 
f -28/-102/-69 -29/-20/-15 -10/-111/-78 -9/-112/-79 
f -29/-20/-15 -30/-33/-26 -6/-104/-71 -10/-111/-78 
f -79/-4/-3 -77/-3/-2 -7/-18/-13 -8/-19/-14 
f -83/-109/-76 -79/-2/-3 -8/-17/-14 -9/-112/-79 
f -77/-3/-2 -40/-103/-70 -6/-104/-71 -7/-18/-13 
f -32/-24/-17 -31/-25/-18 -2/-121/-86 -3/-122/-87 
f -33/-126/-91 -32/-22/-17 -3/-115/-87 -4/-116/-81 
f -31/-25/-18 -35/-118/-83 -1/-35/-28 -2/-121/-86 
f -90/-113/-80 -88/-1/-1 -5/-28/-21 -4/-116/-81 
f -88/-1/-1 -43/-34/-27 -1/-35/-28 -5/-28/-21 
# 67 polygons

