mtllib ./WoodBeam1.mtl
g Wood_beam5
v -0.0456003 -0.09020087 0.8540179
v -0.0456003 0.09020087 0.8540179
v 0.0456003 0.09020087 0.8540179
v 0.0456003 -0.09020087 0.8540179
v -0.0456003 0.09020087 0.8540179
v -0.0456003 0.09020087 -0.8540177
v 0.0456003 0.09020087 -0.8540177
v 0.0456003 0.09020087 0.8540179
v -0.0456003 0.09020087 -0.8540177
v -0.0456003 -0.09020087 -0.8540177
v 0.0456003 -0.09020087 -0.8540177
v 0.0456003 0.09020087 -0.8540177
v -0.0456003 -0.09020087 -0.8540177
v -0.0456003 -0.09020087 0.8540179
v 0.0456003 -0.09020087 0.8540179
v 0.0456003 -0.09020087 -0.8540177
v 0.0456003 -0.09020087 0.8540179
v 0.0456003 0.09020087 0.8540179
v 0.0456003 0.09020087 -0.8540177
v 0.0456003 -0.09020087 -0.8540177
v -0.0456003 -0.09020087 -0.8540177
v -0.0456003 0.09020087 -0.8540177
v -0.0456003 0.09020087 0.8540179
v -0.0456003 -0.09020087 0.8540179

vn 0 0 1
vn 0 0 1
vn 0 0 1
vn 0 0 1
vn 0 1 0
vn 0 1 0
vn 0 1 0
vn 0 1 0
vn 0 0 -1
vn 0 0 -1
vn 0 0 -1
vn 0 0 -1
vn 0 -1 0
vn 0 -1 0
vn 0 -1 0
vn 0 -1 0
vn 1 0 0
vn 1 0 0
vn 1 0 0
vn 1 0 0
vn -1 0 0
vn -1 0 0
vn -1 0 0
vn -1 0 0

vt 0.3128439 0.951618
vt 0.4049662 0.9516187
vt 0.4049667 0.9033753
vt 0.3128439 0.9033753
vt 0.1019729 7.33913E-07
vt 0.1019602 0.9999962
vt 0.1535053 0.9999979
vt 0.1535183 1.876014E-06
vt 0.405154 0.9517546
vt 0.3130314 0.9517556
vt 0.3130338 1
vt 0.4051563 0.9999955
vt 0.3070101 1
vt 0.307023 4.024152E-06
vt 0.2554782 3.150054E-06
vt 0.2554652 0.9999993
vt 0.2554782 3.150054E-06
vt 0.1535183 1.876014E-06
vt 0.1535053 0.9999979
vt 0.2554652 0.9999993
vt 0 0.9999974
vt 0.1019602 0.9999962
vt 0.1019729 7.33913E-07
vt 1.30745E-05 0

g Atlas2
usemtl Atlas2
usemap Atlas2
f 2/2/2 1/1/1 3/3/3
f 3/3/3 1/1/1 4/4/4
f 6/6/6 5/5/5 7/7/7
f 7/7/7 5/5/5 8/8/8
f 10/10/10 9/9/9 11/11/11
f 11/11/11 9/9/9 12/12/12
f 14/14/14 13/13/13 15/15/15
f 15/15/15 13/13/13 16/16/16
f 18/18/18 17/17/17 19/19/19
f 19/19/19 17/17/17 20/20/20
f 22/22/22 21/21/21 23/23/23
f 23/23/23 21/21/21 24/24/24
