mtllib ./WoodBeam2.mtl
g Wood_beam3
v -0.4018489 0.1310463 0.5763869
v -0.4211901 -0.1309902 0.5773053
v -0.6832268 -0.1309902 0.5772755
v -0.6832268 0.1310463 0.5772755
v -0.6712406 0.1166064 -0.4887558
v -0.6832268 0.1310463 0.5772755
v -0.6832268 -0.1309902 0.5772755
v -0.6712406 -0.1254927 -0.4887558
v -0.4380839 -0.1165503 -0.4887558
v -0.6712406 -0.1254927 -0.4887558
v -0.6832268 -0.1309902 0.5772755
v -0.4211901 -0.1309902 0.5773053
v -0.4211901 -0.1309902 0.5773053
v -0.4018489 0.1310463 0.5763869
v -0.4380839 0.1166064 -0.4887558
v -0.4380839 -0.1165503 -0.4887558
v -0.4018489 0.1310463 0.5763869
v -0.6832268 0.1310463 0.5772755
v -0.6712406 0.1166064 -0.4887558
v -0.4380839 0.1166064 -0.4887558
v -0.6712406 -0.1254927 -0.4887558
v -0.4380839 0.1166064 -0.4887558
v -0.6712406 0.1166064 -0.4887558
v -0.4380839 -0.1165503 -0.4887558

vn 0.001580453 0.00169396 0.9999974
vn -0.0001135051 0.00351294 0.9999938
vn 0.001580453 0.00169396 0.9999974
vn 0.003157966 0 0.9999951
vn -0.9999368 0 -0.01124299
vn -0.9999369 0 -0.01124299
vn -0.9999368 0 -0.01124299
vn -0.9999369 0 -0.01124299
vn 0.01805517 -0.9997928 -0.00939069
vn 0.03832488 -0.9992542 -0.004722204
vn 0.01805517 -0.9997928 -0.00939069
vn 1.533468E-06 -0.9999083 -0.01354384
vn 0.9989263 -0.03906207 -0.02490221
vn 0.9967384 -0.07368556 -0.03290897
vn 0.9989263 -0.03906207 -0.02490221
vn 0.9998745 0 -0.01584492
vn -2.339971E-05 0.9999081 -0.01354957
vn -4.277383E-05 0.9999082 -0.01354467
vn -2.339971E-05 0.9999081 -0.01354957
vn 0 0.999908 -0.01355549
vn 0 0 -0.9999999
vn 0 0 -0.9999999
vn 0 0 -1
vn 0 0 -1

vt 0.1455276 0.8345979
vt 0.1641855 1
vt 0.3300599 0.9935858
vt 0.3236464 0.8277116
vt 0.2878362 0.1532339
vt 0.3236465 0.8277115
vt 0.4892767 0.8166662
vt 0.4408643 0.143029
vt 0.5881383 0.1307387
vt 0.4408644 0.143029
vt 0.4892765 0.8166662
vt 0.6546772 0.8029404
vt 0.003844198 0.8390106
vt 0.1455282 0.8345981
vt 0.1402616 0.1594062
vt 0 0.1594062
vt 0.1455278 0.8345981
vt 0.3236464 0.8277115
vt 0.2878361 0.1532339
vt 0.140262 0.1594064
vt 0.2814269 0
vt 0.1402619 0.1594064
vt 0.2878361 0.1532339
vt 0.1340895 0.01183227

g Atlas2
usemtl Atlas2
usemap Atlas2
f 2/2/2 1/1/1 3/3/3
f 3/3/3 1/1/1 4/4/4
f 6/6/6 5/5/5 7/7/7
f 7/7/7 5/5/5 8/8/8
f 10/10/10 9/9/9 11/11/11
f 11/11/11 9/9/9 12/12/12
f 14/14/14 13/13/13 15/15/15
f 15/15/15 13/13/13 16/16/16
f 18/18/18 17/17/17 19/19/19
f 19/19/19 17/17/17 20/20/20
f 22/22/22 21/21/21 23/23/23
f 24/24/24 21/21/21 22/22/22
