mtllib ./WoodBoard1.mtl
g Wood_board1
v 0.1918879 0.03910302 1.43797
v -0.1676042 0.03910302 1.43797
v -0.1676042 0.03910302 -1.437968
v 0.1918879 0.03910302 -1.437968
v 0.1918879 -0.03910302 -1.437968
v 0.1918879 0.03910302 -1.437968
v -0.1676042 0.03910302 -1.437968
v -0.1676042 -0.03910302 -1.437968
v -0.1676042 0.03910302 -1.437968
v -0.1676042 0.03910302 1.43797
v -0.1676042 -0.03910302 1.43797
v -0.1676042 -0.03910302 -1.437968
v -0.1676042 -0.03910302 1.43797
v -0.1676042 0.03910302 1.43797
v 0.1918879 0.03910302 1.43797
v 0.1918879 -0.03910302 1.43797
v 0.1918879 -0.03910302 1.43797
v 0.1918879 0.03910302 1.43797
v 0.1918879 0.03910302 -1.437968
v 0.1918879 -0.03910302 -1.437968
v -0.1676042 -0.03910302 -1.437968
v 0.1918879 -0.03910302 1.43797
v 0.1918879 -0.03910302 -1.437968
v -0.1676042 -0.03910302 1.43797

vn 0 1 0
vn 0 1 0
vn 0 1 0
vn 0 1 0
vn 0 0 -1
vn 0 0 -1
vn 0 0 -1
vn 0 0 -1
vn -1 0 0
vn -1 0 0
vn -1 0 0
vn -1 0 0
vn 0 0 1
vn 0 0 1
vn 0 0 1
vn 0 0 1
vn 1 0 0
vn 1 0 0
vn 1 0 0
vn 1 0 0
vn 0 -1 0
vn 0 -1 0
vn 0 -1 0
vn 0 -1 0

vt 0.2803036 0
vt 0.1792795 1.419934E-06
vt 0.1794901 0.9999924
vt 0.2803036 1
vt 0.3845648 1.00006
vt 0.3845648 0.9728666
vt 0.2837512 0.972859
vt 0.283751 1.00006
vt 0.1794899 0.9999925
vt 0.1792795 1.467069E-06
vt 0.1520865 7.211617E-06
vt 0.1522969 0.9999982
vt 0.2814424 0.945754
vt 0.2812318 0.9729486
vt 0.3822559 0.9729472
vt 0.3822559 0.945754
vt 0.02719296 7.258752E-06
vt 0 7.258752E-06
vt 0 0.9999983
vt 0.02719296 0.9999983
vt 0.1521917 0.9999982
vt 0.02719296 7.164482E-06
vt 0.02719296 0.9999982
vt 0.1521917 7.164482E-06

g Atlas2
usemtl Atlas2
usemap Atlas2
f 2/2/2 1/1/1 3/3/3
f 3/3/3 1/1/1 4/4/4
f 6/6/6 5/5/5 7/7/7
f 7/7/7 5/5/5 8/8/8
f 10/10/10 9/9/9 11/11/11
f 11/11/11 9/9/9 12/12/12
f 14/14/14 13/13/13 15/15/15
f 15/15/15 13/13/13 16/16/16
f 18/18/18 17/17/17 19/19/19
f 19/19/19 17/17/17 20/20/20
f 22/22/22 21/21/21 23/23/23
f 24/24/24 21/21/21 22/22/22
