mtllib ./WoodSupport.mtl
g Wood_el6
v -0.1062436 -0.7047058 -0.1060445
v 0.1062436 -0.7047058 -0.1060445
v 0.1062436 2.536201 -0.1060445
v -0.1062436 2.536201 -0.1060445
v -0.1062436 -0.7047058 -0.1060445
v -0.1062436 2.536201 -0.1060445
v -0.1062436 2.536201 0.1064418
v -0.1062436 -0.7047058 0.1064418
v 0.1062436 2.530881 0.1064418
v 0.1062436 -0.7047058 0.1064418
v -0.1062436 -0.7047058 0.1064418
v -0.1062436 2.536201 0.1064418
v 0.1062436 -0.7047058 -0.1060445
v 0.1062436 -0.7047058 0.1064418
v 0.1062436 2.530881 0.1064418
v 0.1062436 2.536201 -0.1060445
v -0.09028788 2.519055 0.4235086
v -0.09028788 2.057646 0.09105308
v 0.08789724 2.057646 0.09105308
v 0.08789724 2.519055 0.4235086
v 0.08789724 2.519055 0.4235086
v 0.08789724 2.057646 0.09105308
v 0.08789724 1.774242 0.09105308
v 0.08789724 2.519054 0.6277037
v -0.09028788 1.774242 0.09105308
v -0.09028788 2.519054 0.6277037
v 0.08789724 2.519054 0.6277037
v 0.08789724 1.774242 0.09105308
v -0.09028788 2.057646 0.09105308
v -0.09028788 2.519055 0.4235086
v -0.09028788 2.519054 0.6277037
v -0.09028788 1.774242 0.09105308
v 0.08789712 2.519055 -0.4235087
v 0.08789712 2.057646 -0.09105311
v -0.0902881 2.057646 -0.09105311
v -0.0902881 2.519055 -0.4235087
v -0.0902881 2.519055 -0.4235087
v -0.0902881 2.057646 -0.09105311
v -0.0902881 1.774242 -0.09105311
v -0.0902881 2.519054 -0.6277037
v 0.08789712 1.774242 -0.09105311
v 0.08789712 2.519054 -0.6277037
v -0.0902881 2.519054 -0.6277037
v -0.0902881 1.774242 -0.09105311
v 0.08789712 2.057646 -0.09105311
v 0.08789712 2.519055 -0.4235087
v 0.08789712 2.519054 -0.6277037
v 0.08789712 1.774242 -0.09105311
v 0.1062436 2.530881 0.1064418
v -0.1062436 2.536201 -0.1060445
v 0.1062436 2.536201 -0.1060445
v -0.1062436 2.536201 0.1064418
v 0.08789724 2.519055 0.4235086
v -0.09028788 2.519054 0.6277037
v -0.09028788 2.519055 0.4235086
v 0.08789724 2.519054 0.6277037
v 0.08789712 2.519054 -0.6277037
v -0.0902881 2.519055 -0.4235087
v -0.0902881 2.519054 -0.6277037
v 0.08789712 2.519055 -0.4235087
v -0.1062436 -0.7047058 -0.1060445
v 0.1062436 -0.7047058 0.1064418
v 0.1062436 -0.7047058 -0.1060445
v -0.1062436 -0.7047058 0.1064418

vn 0 0 -1
vn 0 0 -1
vn 0 0 -1
vn 0 0 -1
vn -1 0 0
vn -1 0 0
vn -1 0 0
vn -1 0 0
vn 0 0 1
vn 0 0 1
vn 0 0 1
vn 0 0 1
vn 0.9999999 0 0
vn 1 0 0
vn 0.9999999 0 0
vn 1 0 0
vn 0 0.5845842 -0.8113331
vn 0 0.5845842 -0.8113331
vn 0 0.5845842 -0.8113331
vn 0 0.5845842 -0.8113331
vn 1 0 0
vn 0.9999999 0 0
vn 1 0 0
vn 1 0 0
vn 0 -0.5845813 0.8113352
vn 0 -0.5845813 0.8113352
vn 0 -0.5845813 0.8113352
vn 0 -0.5845813 0.8113352
vn -1 0 0
vn -1 0 0
vn -1 0 0
vn -1 0 0
vn 0 0.5845842 0.811333
vn 0 0.5845842 0.811333
vn 0 0.5845842 0.811333
vn 0 0.5845842 0.811333
vn -1 0 0
vn -0.9999999 0 0
vn -1 0 0
vn -1 0 0
vn 0 -0.5845811 -0.8113353
vn 0 -0.5845811 -0.8113353
vn 0 -0.5845811 -0.8113353
vn 0 -0.5845811 -0.8113353
vn 1 0 0
vn 1 0 0
vn 1 0 0
vn 1 0 0
vn 0.01251661 0.9998433 0.01251666
vn 0.01251661 0.9998433 0.01251666
vn 0 0.9996867 0.0250294
vn 0.02502929 0.9996867 0
vn 0 1 2.335204E-06
vn 0 1 2.335204E-06
vn 0 1 2.335204E-06
vn 0 1 2.335204E-06
vn 0 1 -2.335205E-06
vn 0 1 -2.335205E-06
vn 0 1 -2.335205E-06
vn 0 1 -2.335205E-06
vn 0 -1 0
vn 0 -1 0
vn 0 -1 0
vn 0 -1 0

vt 0.1778774 0.04782037
vt 0.1185848 0.04782037
vt 0.1185848 0.9521646
vt 0.1778774 0.9521646
vt 0.1778774 0.04782041
vt 0.1778774 0.9521646
vt 0.2256976 0.9521646
vt 0.2256976 0.04782042
vt 0.05929255 0.9506801
vt 0.05929255 0.04782041
vt 0 0.04782041
vt 0 0.9521646
vt 0.1185848 0.04782041
vt 0.05929255 0.04782041
vt 0.05929255 0.9506801
vt 0.1185848 0.9521646
vt 0.3886109 0.497383
vt 0.3886109 0.6500152
vt 0.4364333 0.6500152
vt 0.4364333 0.497383
vt 0.2518616 0.4973826
vt 0.2518597 0.6500148
vt 0.2963235 0.7117268
vt 0.2963255 0.4653462
vt 0.3441468 0.7117268
vt 0.3441468 0.4653462
vt 0.2963244 0.4653462
vt 0.2963244 0.7117268
vt 0.3886111 0.6500152
vt 0.3886107 0.497383
vt 0.3441468 0.4653462
vt 0.3441468 0.7117269
vt 0.3430473 0.7777914
vt 0.3430473 0.9304236
vt 0.3908697 0.9304236
vt 0.3908697 0.7777914
vt 0.3908707 0.7777913
vt 0.3908688 0.9304236
vt 0.433792 0.9921358
vt 0.4337952 0.7457544
vt 0.2985832 0.992135
vt 0.2985832 0.7457545
vt 0.2507608 0.7457545
vt 0.2507608 0.992135
vt 0.3430473 0.9304236
vt 0.3430473 0.7777914
vt 0.2985837 0.7457545
vt 0.2985828 0.992135
vt 0.2257051 1
vt 0.1778774 0.9521646
vt 0.1778699 0.999985
vt 0.2256976 0.9521646
vt 0.4364333 0.497383
vt 0.3886109 0.44258
vt 0.3886109 0.497383
vt 0.4364333 0.44258
vt 0.3430473 0.7229883
vt 0.3908697 0.7777914
vt 0.3908697 0.7229883
vt 0.3430473 0.7777914
vt 0.1778774 0.04782042
vt 0.2256976 9.801601E-09
vt 0.1778774 0
vt 0.2256976 0.04782043

g Atlas2
usemtl Atlas2
usemap Atlas2
f 2/2/2 1/1/1 3/3/3
f 3/3/3 1/1/1 4/4/4
f 6/6/6 5/5/5 7/7/7
f 7/7/7 5/5/5 8/8/8
f 10/10/10 9/9/9 11/11/11
f 11/11/11 9/9/9 12/12/12
f 14/14/14 13/13/13 15/15/15
f 15/15/15 13/13/13 16/16/16
f 18/18/18 17/17/17 19/19/19
f 19/19/19 17/17/17 20/20/20
f 22/22/22 21/21/21 23/23/23
f 23/23/23 21/21/21 24/24/24
f 26/26/26 25/25/25 27/27/27
f 27/27/27 25/25/25 28/28/28
f 30/30/30 29/29/29 31/31/31
f 31/31/31 29/29/29 32/32/32
f 34/34/34 33/33/33 35/35/35
f 35/35/35 33/33/33 36/36/36
f 38/38/38 37/37/37 39/39/39
f 39/39/39 37/37/37 40/40/40
f 42/42/42 41/41/41 43/43/43
f 43/43/43 41/41/41 44/44/44
f 46/46/46 45/45/45 47/47/47
f 47/47/47 45/45/45 48/48/48
f 50/50/50 49/49/49 51/51/51
f 52/52/52 49/49/49 50/50/50
f 54/54/54 53/53/53 55/55/55
f 56/56/56 53/53/53 54/54/54
f 58/58/58 57/57/57 59/59/59
f 60/60/60 57/57/57 58/58/58
f 62/62/62 61/61/61 63/63/63
f 64/64/64 61/61/61 62/62/62
