mtllib ./WallTopCorner1.mtl
g pb-Cylinder-812732
v -0.5 0 0
v -0.5 0.2 0
v -0.4903926 0 0.09754516
v -0.4903926 0.2 0.09754516
v -0.4619398 0 0.1913417
v -0.4619398 0.2 0.1913417
v -0.4157348 0 0.2777851
v -0.4157348 0.2 0.2777851
v -0.3535534 0 0.3535534
v -0.3535534 0.2 0.3535534
v -0.2777851 0 0.4157348
v -0.2777851 0.2 0.4157348
v -0.2777851 0 0.4157348
v -0.2777851 0.2 0.4157348
v -0.1913417 0 0.4619398
v -0.1913417 0.2 0.4619398
v -0.1913417 0 0.4619398
v -0.1913417 0.2 0.4619398
v -0.09754518 0 0.4903926
v -0.09754518 0.2 0.4903926
v 2.185569E-08 0 0.5
v 2.185569E-08 0.2 0.5
v 0.09754516 0 0.4903926
v 0.09754516 0.2 0.4903926
v 0.1913417 0 0.4619398
v 0.1913417 0.2 0.4619398
v 0.2777851 0 0.4157348
v 0.2777851 0.2 0.4157348
v 0.3535534 0 0.3535534
v 0.3535534 0.2 0.3535534
v 0.4157348 0 0.2777851
v 0.4157348 0.2 0.2777851
v 0.4619398 0 0.1913417
v 0.4619398 0.2 0.1913417
v 0.4903927 0 0.09754515
v 0.4903927 0.2 0.09754515
v 0.5 0 -4.371139E-08
v 0.5 0.2 -4.371139E-08
v 0.4903927 0 -0.09754512
v 0.4903927 0.2 -0.09754512
v 0.4619398 0 -0.1913417
v 0.4619398 0.2 -0.1913417
v 0.4157348 0 -0.2777852
v 0.4157348 0.2 -0.2777852
v 0.3535534 0 -0.3535534
v 0.3535534 0.2 -0.3535534
v 0.3535534 0 -0.3535534
v 0.3535534 0.2 -0.3535534
v 0.2777852 0 -0.4157347
v 0.2777852 0.2 -0.4157347
v 0.2777852 0 -0.4157347
v 0.2777852 0.2 -0.4157347
v 0.1913418 0 -0.4619398
v 0.1913418 0.2 -0.4619398
v 0.09754519 0 -0.4903926
v 0.09754519 0.2 -0.4903926
v -5.96244E-09 0 -0.5
v -5.96244E-09 0.2 -0.5
v -0.09754521 0 -0.4903926
v -0.09754521 0.2 -0.4903926
v -0.1913418 0 -0.4619397
v -0.1913418 0.2 -0.4619397
v -0.277785 0 -0.4157349
v -0.277785 0.2 -0.4157349
v -0.3535533 0 -0.3535534
v -0.3535533 0.2 -0.3535534
v -0.4157348 0 -0.2777852
v -0.4157348 0.2 -0.2777852
v -0.4619398 0 -0.1913417
v -0.4619398 0.2 -0.1913417
v -0.4903927 0 -0.09754512
v -0.4903927 0.2 -0.09754512
v -0.2297853 0.238301 -0.1535377
v 1.388537E-09 0.238301 8.331222E-09
v -0.2553238 0.238301 -0.1057585
v -0.2710503 0.238301 -0.05391521
v -0.2763605 0.238301 8.331222E-09
v -0.2710502 0.238301 0.05391526
v -0.2553238 0.238301 0.1057586
v -0.2297853 0.238301 0.1535376
v -0.1954163 0.238301 0.1954163
v -0.1535376 0.238301 0.2297853
v -0.1057586 0.238301 0.2553238
v -0.05391525 0.238301 0.2710503
v 1.346864E-08 0.238301 0.2763605
v 0.05391525 0.238301 0.2710503
v 0.1057586 0.238301 0.2553238
v 0.1535376 0.238301 0.2297853
v 0.1954163 0.238301 0.1954163
v 0.2297853 0.238301 0.1535376
v 0.2553238 0.238301 0.1057586
v 0.2710503 0.238301 0.05391525
v 0.2763605 0.238301 -1.582898E-08
v 0.2710503 0.238301 -0.05391522
v 0.2553238 0.238301 -0.1057585
v 0.2297853 0.238301 -0.1535377
v 0.1954164 0.238301 -0.1954163
v 0.1535377 0.238301 -0.2297853
v 0.1057586 0.238301 -0.2553237
v 0.05391527 0.238301 -0.2710502
v -1.907028E-09 0.238301 -0.2763604
v -0.05391527 0.238301 -0.2710502
v -0.1057586 0.238301 -0.2553237
v -0.1535376 0.238301 -0.2297854
v -0.1954163 0.238301 -0.1954164
v -0.4619398 0.2 -0.1913417
v -0.4157348 0.2 -0.2777852
v -0.4903927 0.2 -0.09754512
v -0.5 0.2 0
v -0.4903926 0.2 0.09754516
v -0.4619398 0.2 0.1913417
v -0.4157348 0.2 0.2777851
v -0.3535534 0.2 0.3535534
v -0.2777851 0.2 0.4157348
v -0.1913417 0.2 0.4619398
v 2.185569E-08 0.2 0.5
v -0.09754518 0.2 0.4903926
v 0.09754516 0.2 0.4903926
v 0.1913417 0.2 0.4619398
v 0.2777851 0.2 0.4157348
v 0.3535534 0.2 0.3535534
v 0.4157348 0.2 0.2777851
v 0.4619398 0.2 0.1913417
v 0.4903927 0.2 0.09754515
v 0.5 0.2 -4.371139E-08
v 0.4903927 0.2 -0.09754512
v 0.4619398 0.2 -0.1913417
v 0.4157348 0.2 -0.2777852
v 0.3535534 0.2 -0.3535534
v 0.2777852 0.2 -0.4157347
v 0.1913418 0.2 -0.4619398
v 0.09754519 0.2 -0.4903926
v -5.96244E-09 0.2 -0.5
v -0.09754521 0.2 -0.4903926
v -0.277785 0.2 -0.4157349
v -0.1913418 0.2 -0.4619397
v -0.3535533 0.2 -0.3535534
v -0.2553238 0.2 -0.1057585
v -0.2297853 0.2 -0.1535377
v -0.2710503 0.2 -0.05391521
v -0.2763605 0.2 8.331222E-09
v -0.2710502 0.2 0.05391526
v -0.2553238 0.2 0.1057586
v -0.2297853 0.2 0.1535376
v -0.1954163 0.2 0.1954163
v -0.1535376 0.2 0.2297853
v -0.1057586 0.2 0.2553238
v 1.346864E-08 0.2 0.2763605
v -0.05391525 0.2 0.2710503
v 0.05391525 0.2 0.2710503
v 0.1057586 0.2 0.2553238
v 0.1535376 0.2 0.2297853
v 0.1954163 0.2 0.1954163
v 0.2297853 0.2 0.1535376
v 0.2553238 0.2 0.1057586
v 0.2710503 0.2 0.05391525
v 0.2763605 0.2 -1.582898E-08
v 0.2710503 0.2 -0.05391522
v 0.2553238 0.2 -0.1057585
v 0.2297853 0.2 -0.1535377
v 0.1954164 0.2 -0.1954163
v 0.1535377 0.2 -0.2297853
v 0.1057586 0.2 -0.2553237
v 0.05391527 0.2 -0.2710502
v -1.907028E-09 0.2 -0.2763604
v -0.05391527 0.2 -0.2710502
v -0.1535376 0.2 -0.2297854
v -0.1057586 0.2 -0.2553237
v -0.1954163 0.2 -0.1954164
v -0.2553238 0.2 -0.1057585
v -0.2297853 0.2 -0.1535377
v -0.2553238 0.238301 -0.1057585
v -0.2297853 0.238301 -0.1535377
v -0.2710503 0.2 -0.05391521
v -0.2710503 0.238301 -0.05391521
v -0.2763605 0.2 8.331222E-09
v -0.2763605 0.238301 8.331222E-09
v -0.2710502 0.2 0.05391526
v -0.2710502 0.238301 0.05391526
v -0.2553238 0.2 0.1057586
v -0.2553238 0.238301 0.1057586
v -0.2297853 0.2 0.1535376
v -0.2297853 0.238301 0.1535376
v -0.1954163 0.2 0.1954163
v -0.1954163 0.238301 0.1954163
v -0.1535376 0.2 0.2297853
v -0.1535376 0.238301 0.2297853
v -0.1057586 0.2 0.2553238
v -0.1535376 0.2 0.2297853
v -0.1057586 0.238301 0.2553238
v -0.1535376 0.238301 0.2297853
v 1.346864E-08 0.2 0.2763605
v -0.05391525 0.2 0.2710503
v 1.346864E-08 0.238301 0.2763605
v -0.05391525 0.238301 0.2710503
v 0.05391525 0.2 0.2710503
v 0.05391525 0.238301 0.2710503
v 0.1057586 0.2 0.2553238
v 0.1057586 0.238301 0.2553238
v 0.1535376 0.2 0.2297853
v 0.1535376 0.238301 0.2297853
v 0.1954163 0.2 0.1954163
v 0.1954163 0.238301 0.1954163
v 0.2297853 0.2 0.1535376
v 0.2297853 0.238301 0.1535376
v 0.2553238 0.2 0.1057586
v 0.2553238 0.238301 0.1057586
v 0.2710503 0.2 0.05391525
v 0.2710503 0.238301 0.05391525
v 0.2763605 0.2 -1.582898E-08
v 0.2763605 0.238301 -1.582898E-08
v 0.2710503 0.2 -0.05391522
v 0.2710503 0.238301 -0.05391522
v 0.2553238 0.2 -0.1057585
v 0.2553238 0.238301 -0.1057585
v 0.2297853 0.2 -0.1535377
v 0.2297853 0.238301 -0.1535377
v 0.1954164 0.2 -0.1954163
v 0.1954164 0.238301 -0.1954163
v 0.1535377 0.2 -0.2297853
v 0.1535377 0.238301 -0.2297853
v 0.1057586 0.2 -0.2553237
v 0.1535377 0.2 -0.2297853
v 0.1057586 0.238301 -0.2553237
v 0.1535377 0.238301 -0.2297853
v 0.05391527 0.2 -0.2710502
v 0.05391527 0.238301 -0.2710502
v -1.907028E-09 0.2 -0.2763604
v -1.907028E-09 0.238301 -0.2763604
v -0.05391527 0.2 -0.2710502
v -0.05391527 0.238301 -0.2710502
v -0.1535376 0.2 -0.2297854
v -0.1057586 0.2 -0.2553237
v -0.1535376 0.238301 -0.2297854
v -0.1057586 0.238301 -0.2553237
v -0.1954163 0.2 -0.1954164
v -0.1954163 0.238301 -0.1954164
v 0.4619398 0.2 0.1913417
v 0.4157348 0.2 0.2777851
v 0.2553238 0.2 0.1057586
v 0.2297853 0.2 0.1535376
v 0.3535534 0.2 0.3535534
v 0.1954163 0.2 0.1954163
v 0.2777851 0.2 0.4157348
v 0.1535376 0.2 0.2297853
v 0.1913417 0.2 0.4619398
v 0.1057586 0.2 0.2553238
v 0.09754516 0.2 0.4903926
v 0.05391525 0.2 0.2710503
v 2.185569E-08 0.2 0.5
v 1.346864E-08 0.2 0.2763605
v -0.09754518 0.2 0.4903926
v -0.05391525 0.2 0.2710503
v -0.1913417 0.2 0.4619398
v -0.1057586 0.2 0.2553238
v -0.2777851 0.2 0.4157348
v -0.3535534 0.2 0.3535534
v -0.1535376 0.2 0.2297853
v -0.1954163 0.2 0.1954163
v -0.4157348 0.2 0.2777851
v -0.2297853 0.2 0.1535376
v -0.4619398 0.2 0.1913417
v -0.2553238 0.2 0.1057586
v -0.4903926 0.2 0.09754516
v -0.5 0.2 0
v -0.2710502 0.2 0.05391526
v -0.2763605 0.2 8.331222E-09
v -0.4903927 0.2 -0.09754512
v -0.2710503 0.2 -0.05391521
v -0.4619398 0.2 -0.1913417
v -0.2553238 0.2 -0.1057585
v -0.4157348 0.2 -0.2777852
v -0.3535533 0.2 -0.3535534
v -0.2297853 0.2 -0.1535377
v -0.1954163 0.2 -0.1954164
v -0.277785 0.2 -0.4157349
v -0.1913418 0.2 -0.4619397
v -0.1535376 0.2 -0.2297854
v -0.1057586 0.2 -0.2553237
v -5.96244E-09 0.2 -0.5
v 0.09754519 0.2 -0.4903926
v -1.907028E-09 0.2 -0.2763604
v 0.05391527 0.2 -0.2710502
v 0.4619398 0.2 -0.1913417
v 0.4903927 0.2 -0.09754512
v 0.2553238 0.2 -0.1057585
v 0.2710503 0.2 -0.05391522
v 0.5 0.2 -4.371139E-08
v 0.2763605 0.2 -1.582898E-08
v 0.4903927 0.2 0.09754515
v 0.2710503 0.2 0.05391525
v 0.4157348 0.2 -0.2777852
v 0.2297853 0.2 -0.1535377
v 0.2777852 0.2 -0.4157347
v 0.3535534 0.2 -0.3535534
v 0.1535377 0.2 -0.2297853
v 0.1954164 0.2 -0.1954163
v 0.1913418 0.2 -0.4619398
v 0.1057586 0.2 -0.2553237
v -0.09754521 0.2 -0.4903926
v -0.05391527 0.2 -0.2710502
v -5.96244E-09 0 -0.5
v 0 0 0
v 0.09754519 0 -0.4903926
v 0.1913418 0 -0.4619398
v 0.2777852 0 -0.4157347
v 0.3535534 0 -0.3535534
v 0.4157348 0 -0.2777852
v 0.4619398 0 -0.1913417
v 0.4903927 0 -0.09754512
v 0.5 0 -4.371139E-08
v 0.4903927 0 0.09754515
v 0.4619398 0 0.1913417
v 0.4157348 0 0.2777851
v 0.3535534 0 0.3535534
v 0.2777851 0 0.4157348
v 0.1913417 0 0.4619398
v 0.09754516 0 0.4903926
v 2.185569E-08 0 0.5
v -0.4903926 0 0.09754516
v -0.5 0 0
v -0.4619398 0 0.1913417
v -0.4157348 0 0.2777851
v -0.3535534 0 0.3535534
v -0.2777851 0 0.4157348
v -0.1913417 0 0.4619398
v -0.09754518 0 0.4903926
v -0.4903927 0 -0.09754512
v -0.4619398 0 -0.1913417
v -0.4157348 0 -0.2777852
v -0.3535533 0 -0.3535534
v -0.277785 0 -0.4157349
v -0.1913418 0 -0.4619397
v -0.09754521 0 -0.4903926

vn -1 0 1.272727E-07
vn -1 0 1.272727E-07
vn -0.9807853 0 0.1950904
vn -0.9807853 0 0.1950904
vn -0.9238796 0 0.3826834
vn -0.9238796 0 0.3826834
vn -0.8314697 0 0.5555702
vn -0.8314697 0 0.5555702
vn -0.7071068 0 0.7071068
vn -0.7071068 0 0.7071068
vn -0.5555702 0 0.8314697
vn -0.5555702 0 0.8314697
vn -0.5555702 0 0.8314697
vn -0.5555702 0 0.8314697
vn -0.3826834 0 0.9238796
vn -0.3826834 0 0.9238796
vn -0.3826834 0 0.9238796
vn -0.3826834 0 0.9238796
vn -0.1950904 0 0.9807853
vn -0.1950904 0 0.9807853
vn 2.994652E-08 0 1
vn 2.994652E-08 0 1
vn 0.1950903 0 0.9807853
vn 0.1950903 0 0.9807853
vn 0.3826833 0 0.9238796
vn 0.3826833 0 0.9238796
vn 0.5555702 0 0.8314696
vn 0.5555702 0 0.8314696
vn 0.7071068 0 0.7071068
vn 0.7071068 0 0.7071068
vn 0.8314697 0 0.5555702
vn 0.8314697 0 0.5555702
vn 0.9238795 0 0.3826835
vn 0.9238795 0 0.3826835
vn 0.9807853 0 0.1950903
vn 0.9807853 0 0.1950903
vn 1 0 -5.989304E-08
vn 1 0 -5.989304E-08
vn 0.9807853 0 -0.1950904
vn 0.9807853 0 -0.1950904
vn 0.9238795 0 -0.3826835
vn 0.9238795 0 -0.3826835
vn 0.8314697 0 -0.5555702
vn 0.8314697 0 -0.5555702
vn 0.7071068 0 -0.7071067
vn 0.7071068 0 -0.7071067
vn 0.7071068 0 -0.7071067
vn 0.7071068 0 -0.7071067
vn 0.5555705 0 -0.8314694
vn 0.5555705 0 -0.8314694
vn 0.5555705 0 -0.8314694
vn 0.5555705 0 -0.8314694
vn 0.3826835 0 -0.9238795
vn 0.3826835 0 -0.9238795
vn 0.1950903 0 -0.9807853
vn 0.1950903 0 -0.9807853
vn 0 0 -1
vn 0 0 -1
vn -0.1950904 0 -0.9807853
vn -0.1950904 0 -0.9807853
vn -0.3826835 0 -0.9238795
vn -0.3826835 0 -0.9238795
vn -0.5555702 0 -0.8314697
vn -0.5555702 0 -0.8314697
vn -0.7071066 0 -0.7071069
vn -0.7071066 0 -0.7071069
vn -0.8314695 0 -0.5555704
vn -0.8314695 0 -0.5555704
vn -0.9238796 0 -0.3826834
vn -0.9238796 0 -0.3826834
vn -0.9807853 0 -0.1950902
vn -0.9807853 0 -0.1950902
vn 0 0.9999999 0
vn 0 1 0
vn 0 0.9999999 0
vn 0 1 0
vn 0 1 0
vn 0 1 0
vn 0 1 0
vn 0 1 0
vn 0 1 0
vn 0 1 0
vn 0 1 0
vn 0 1 0
vn 0 1 0
vn 0 1 0
vn 0 0.9999999 0
vn 0 1 0
vn 0 1 0
vn 0 1 0
vn 0 0.9999999 0
vn 0 0.9999999 0
vn 0 1 0
vn 0 1 0
vn 0 1 0
vn 0 1 0
vn 0 1 0
vn 0 1 0
vn 0 1 0
vn 0 1 0
vn 0 1 0
vn 0 1 0
vn 0 0.9999999 0
vn 0 1 0
vn 0 1 0
vn 0 0 0
vn 0 0 0
vn 0 0 0
vn 0 0 0
vn 0 0 0
vn 0 0 0
vn 0 0 0
vn 0 0 0
vn 0 0 0
vn 0 0 0
vn 0 0 0
vn 0 0 0
vn 0 0 0
vn 0 0 0
vn 0 0 0
vn 0 0 0
vn 0 0 0
vn 0 0 0
vn 0 0 0
vn 0 0 0
vn 0 0 0
vn 0 0 0
vn 0 0 0
vn 0 0 0
vn 0 0 0
vn 0 0 0
vn 0 0 0
vn 0 0 0
vn 0 0 0
vn 0 0 0
vn 0 0 0
vn 0 0 0
vn 0 0 0
vn 0 0 0
vn 0 0 0
vn 0 0 0
vn 0 0 0
vn 0 0 0
vn 0 0 0
vn 0 0 0
vn 0 0 0
vn 0 0 0
vn 0 0 0
vn 0 0 0
vn 0 0 0
vn 0 0 0
vn 0 0 0
vn 0 0 0
vn 0 0 0
vn 0 0 0
vn 0 0 0
vn 0 0 0
vn 0 0 0
vn 0 0 0
vn 0 0 0
vn 0 0 0
vn 0 0 0
vn 0 0 0
vn 0 0 0
vn 0 0 0
vn 0 0 0
vn 0 0 0
vn 0 0 0
vn 0 0 0
vn -0.9238796 0 -0.3826834
vn -0.8314696 0 -0.5555703
vn -0.9238796 0 -0.3826834
vn -0.8314696 0 -0.5555703
vn -0.9807853 0 -0.1950903
vn -0.9807853 0 -0.1950903
vn -1 0 2.433155E-07
vn -1 0 2.433155E-07
vn -0.9807853 0 0.1950903
vn -0.9807853 0 0.1950903
vn -0.9238796 0 0.3826834
vn -0.9238796 0 0.3826834
vn -0.8314695 0 0.5555704
vn -0.8314695 0 0.5555704
vn -0.7071068 0 0.7071068
vn -0.7071068 0 0.7071068
vn -0.5555703 0 0.8314696
vn -0.5555703 0 0.8314696
vn -0.3826836 0 0.9238795
vn -0.5555703 0 0.8314696
vn -0.3826836 0 0.9238795
vn -0.5555703 0 0.8314696
vn 2.620321E-08 0 1
vn -0.1950903 0 0.9807853
vn 2.620321E-08 0 1
vn -0.1950903 0 0.9807853
vn 0.1950901 0 0.9807854
vn 0.1950901 0 0.9807854
vn 0.3826835 0 0.9238795
vn 0.3826835 0 0.9238795
vn 0.5555704 0 0.8314695
vn 0.5555704 0 0.8314695
vn 0.7071068 0 0.7071068
vn 0.7071068 0 0.7071068
vn 0.8314695 0 0.5555704
vn 0.8314695 0 0.5555704
vn 0.9238794 0 0.3826836
vn 0.9238794 0 0.3826836
vn 0.9807853 0 0.1950902
vn 0.9807853 0 0.1950902
vn 1 0 -4.86631E-08
vn 1 0 -4.86631E-08
vn 0.9807853 0 -0.1950903
vn 0.9807853 0 -0.1950903
vn 0.9238795 0 -0.3826835
vn 0.9238795 0 -0.3826835
vn 0.8314697 0 -0.5555702
vn 0.8314697 0 -0.5555702
vn 0.7071069 0 -0.7071066
vn 0.7071069 0 -0.7071066
vn 0.5555704 0 -0.8314695
vn 0.5555704 0 -0.8314695
vn 0.3826835 0 -0.9238795
vn 0.5555704 0 -0.8314695
vn 0.3826835 0 -0.9238795
vn 0.5555704 0 -0.8314695
vn 0.1950902 0 -0.9807853
vn 0.1950902 0 -0.9807853
vn -1.122995E-08 0 -1
vn -1.122995E-08 0 -1
vn -0.1950902 0 -0.9807853
vn -0.1950902 0 -0.9807853
vn -0.5555702 0 -0.8314697
vn -0.3826833 0 -0.9238796
vn -0.5555702 0 -0.8314697
vn -0.3826833 0 -0.9238796
vn -0.7071067 0 -0.7071069
vn -0.7071067 0 -0.7071069
vn 0 1 0
vn 0 1 0
vn 0 1 0
vn 0 1 0
vn 0 1 0
vn 0 1 0
vn 0 0.9999999 0
vn 0 1 0
vn 0 1 0
vn 0 0.9999999 0
vn 0 0.9999999 0
vn 0 0.9999999 0
vn 0 1 0
vn 0 1 0
vn 0 1 0
vn 0 1 0
vn 0 1 0
vn 0 1 0
vn 0 1 0
vn 0 1 0
vn 0 1 0
vn 0 1 0
vn 0 1 0
vn 0 1 0
vn 0 1 0
vn 0 1 0
vn 0 1 0
vn 0 1 0
vn 0 1 0
vn 0 0.9999999 0
vn 0 1 0
vn 0 1 0
vn 0 0.9999999 0
vn 0 1 0
vn 0 1 0
vn 0 1 0
vn 0 1 0
vn 0 1 0
vn 0 1 0
vn 0 1 0
vn 0 0.9999999 0
vn 0 1 0
vn 0 0.9999999 0
vn 0 1 0
vn 0 1 0
vn 0 1 0
vn 0 0.9999999 0
vn 0 1 0
vn 0 1 0
vn 0 1 0
vn 0 1 0
vn 0 1 0
vn 0 1 0
vn 0 1 0
vn 0 1 0
vn 0 1 0
vn 0 1 0
vn 0 1 0
vn 0 1 0
vn 0 1 0
vn 0 1 0
vn 0 1 0
vn 0 1 0
vn 0 1 0
vn 0 -1 0
vn 0 -1 0
vn 0 -1 0
vn 0 -0.9999999 0
vn 0 -1 0
vn 0 -1 0
vn 0 -1 0
vn 0 -0.9999999 0
vn 0 -1 0
vn 0 -1 0
vn 0 -1 0
vn 0 -1 0
vn 0 -1 0
vn 0 -1 0
vn 0 -1 0
vn 0 -1 0
vn 0 -1 0
vn 0 -1 0
vn 0 -0.9999999 0
vn 0 -1 0
vn 0 -0.9999999 0
vn 0 -1 0
vn 0 -1 0
vn 0 -1 0
vn 0 -1 0
vn 0 -1 0
vn 0 -0.9999999 0
vn 0 -0.9999999 0
vn 0 -0.9999999 0
vn 0 -1 0
vn 0 -1 0
vn 0 -1 0
vn 0 -0.9999999 0

vt 0.5874625 0.001029018
vt 0.5874625 0.101029
vt 0.6364711 0.001029018
vt 0.6364711 0.101029
vt 0.6854797 0.001029018
vt 0.6854797 0.101029
vt 0.7344883 0.001029018
vt 0.7344883 0.101029
vt 0.7834969 0.001029018
vt 0.7834969 0.101029
vt 0.8325055 0.001029018
vt 0.8325055 0.101029
vt 0.8325055 0.001029018
vt 0.8325055 0.101029
vt 0.8815141 0.001029018
vt 0.8815141 0.101029
vt 0.292818 0.1024625
vt 0.292818 0.2024625
vt 0.3418266 0.1024625
vt 0.3418266 0.2024625
vt 0.3908352 0.1024625
vt 0.3908352 0.2024625
vt 0.4398437 0.1024625
vt 0.4398437 0.2024625
vt 0.4888523 0.1024625
vt 0.4888523 0.2024625
vt 0.5378609 0.1024625
vt 0.5378609 0.2024625
vt 0.5868695 0.1024625
vt 0.5868695 0.2024625
vt 0.6358781 0.1024625
vt 0.6358781 0.2024625
vt 0.6848868 0.1024625
vt 0.6848868 0.2024625
vt 0.7338954 0.1024625
vt 0.7338954 0.2024625
vt 0.782904 0.1024625
vt 0.782904 0.2024625
vt 0.8319126 0.1024625
vt 0.8319126 0.2024625
vt 0.8809209 0.1024625
vt 0.8809209 0.2024625
vt 0.9299296 0.1024625
vt 0.9299296 0.2024625
vt 0.9789382 0.1024625
vt 0.9789382 0.2024625
vt -0.0006404519 0.001029018
vt -0.0006404519 0.101029
vt 0.04836816 0.001029018
vt 0.04836816 0.101029
vt 0.04836816 0.001029018
vt 0.04836816 0.101029
vt 0.0973767 0.001029018
vt 0.0973767 0.101029
vt 0.1463853 0.001029018
vt 0.1463853 0.101029
vt 0.1953939 0.001029018
vt 0.1953939 0.101029
vt 0.2444025 0.001029018
vt 0.2444025 0.101029
vt 0.2934111 0.001029018
vt 0.2934111 0.101029
vt 0.3424196 0.001029018
vt 0.3424196 0.101029
vt 0.3914282 0.001029018
vt 0.3914282 0.101029
vt 0.4404368 0.001029018
vt 0.4404368 0.101029
vt 0.4894454 0.001029018
vt 0.4894454 0.101029
vt 0.538454 0.001029018
vt 0.538454 0.101029
vt 0.2725175 0.2453233
vt 0.1576249 0.3220922
vt 0.2852867 0.2692129
vt 0.29315 0.2951346
vt 0.2958051 0.3220922
vt 0.29315 0.3490498
vt 0.2852867 0.3749714
vt 0.2725175 0.398861
vt 0.255333 0.4198003
vt 0.2343937 0.4369848
vt 0.2105041 0.4497541
vt 0.1845825 0.4576173
vt 0.1576249 0.4602724
vt 0.1306672 0.4576173
vt 0.1047456 0.4497541
vt 0.08085604 0.4369848
vt 0.05991669 0.4198003
vt 0.04273219 0.398861
vt 0.02996297 0.3749714
vt 0.02209972 0.3490498
vt 0.01944463 0.3220922
vt 0.02209972 0.2951345
vt 0.02996297 0.2692129
vt 0.04273221 0.2453234
vt 0.05991668 0.224384
vt 0.08085601 0.2071995
vt 0.1047456 0.1944303
vt 0.1306672 0.1865671
vt 0.1576249 0.183912
vt 0.1845825 0.1865671
vt 0.2105042 0.1944303
vt 0.2343937 0.2071995
vt 0.255333 0.224384
vt 0 0
vt 0 0
vt 0 0
vt 0 0
vt 0 0
vt 0 0
vt 0 0
vt 0 0
vt 0 0
vt 0 0
vt 0 0
vt 0 0
vt 0 0
vt 0 0
vt 0 0
vt 0 0
vt 0 0
vt 0 0
vt 0 0
vt 0 0
vt 0 0
vt 0 0
vt 0 0
vt 0 0
vt 0 0
vt 0 0
vt 0 0
vt 0 0
vt 0 0
vt 0 0
vt 0 0
vt 0 0
vt 0 0
vt 0 0
vt 0 0
vt 0 0
vt 0 0
vt 0 0
vt 0 0
vt 0 0
vt 0 0
vt 0 0
vt 0 0
vt 0 0
vt 0 0
vt 0 0
vt 0 0
vt 0 0
vt 0 0
vt 0 0
vt 0 0
vt 0 0
vt 0 0
vt 0 0
vt 0 0
vt 0 0
vt 0 0
vt 0 0
vt 0 0
vt 0 0
vt 0 0
vt 0 0
vt 0 0
vt 0 0
vt 0.3028943 0.2619196
vt 0.2883639 0.2347351
vt 0.2852867 0.2692129
vt 0.2725175 0.2453234
vt 0.3118421 0.2914165
vt 0.29315 0.2951346
vt 0.3148634 0.3220922
vt 0.2958051 0.3220922
vt 0.3118421 0.3527679
vt 0.29315 0.3490498
vt 0.3028943 0.3822647
vt 0.2852867 0.3749714
vt 0.2883639 0.4094492
vt 0.2725175 0.398861
vt 0.2688093 0.4332766
vt 0.255333 0.4198003
vt 0.2449819 0.4528312
vt 0.2343937 0.4369848
vt 0.2177974 0.4673616
vt 0.2449819 0.4528312
vt 0.2105041 0.4497541
vt 0.2343937 0.4369848
vt 0.1576249 0.4793307
vt 0.1883006 0.4763094
vt 0.1576249 0.4602724
vt 0.1845825 0.4576173
vt 0.1269491 0.4763094
vt 0.1306672 0.4576173
vt 0.0974523 0.4673616
vt 0.1047456 0.4497541
vt 0.07026781 0.4528312
vt 0.08085604 0.4369848
vt 0.04644044 0.4332766
vt 0.05991669 0.4198003
vt 0.02688582 0.4094492
vt 0.04273219 0.398861
vt 0.01235542 0.3822648
vt 0.02996297 0.3749714
vt 0.003407642 0.3527679
vt 0.02209972 0.3490498
vt 0.0003863424 0.3220922
vt 0.01944463 0.3220922
vt 0.003407627 0.2914165
vt 0.02209972 0.2951346
vt 0.01235542 0.2619196
vt 0.02996297 0.2692129
vt 0.02688582 0.2347351
vt 0.04273221 0.2453233
vt 0.04644044 0.2109078
vt 0.05991668 0.224384
vt 0.0702678 0.1913532
vt 0.08085601 0.2071995
vt 0.09745227 0.1768228
vt 0.0702678 0.1913532
vt 0.1047456 0.1944303
vt 0.08085601 0.2071995
vt 0.1269491 0.167875
vt 0.1306672 0.1865671
vt 0.1576249 0.1648537
vt 0.1576249 0.183912
vt 0.1883006 0.167875
vt 0.1845825 0.1865671
vt 0.2449819 0.1913531
vt 0.2177974 0.1768228
vt 0.2343937 0.2071995
vt 0.2105042 0.1944303
vt 0.2688093 0.2109077
vt 0.255333 0.224384
vt 0.0192689 0.8459097
vt 0.04237136 0.8891313
vt 0.1225769 0.8031181
vt 0.1353461 0.8270076
vt 0.07346207 0.9270155
vt 0.1525306 0.8479469
vt 0.1113462 0.9581062
vt 0.17347 0.8651314
vt 0.1545679 0.9812087
vt 0.1973595 0.8779007
vt 0.2014662 0.9954351
vt 0.2232811 0.8857639
vt 0.2502388 1.000239
vt 0.2502388 0.888419
vt 0.2990113 0.9954351
vt 0.2771964 0.8857639
vt 0.3459096 0.9812087
vt 0.3031181 0.8779007
vt 0.3891313 0.9581062
vt 0.4270155 0.9270155
vt 0.3270076 0.8651314
vt 0.3479469 0.8479469
vt 0.4581062 0.8891313
vt 0.3651314 0.8270076
vt 0.4812087 0.8459097
vt 0.3779007 0.8031181
vt 0.4954351 0.7990113
vt 0.5002388 0.7502388
vt 0.3857639 0.7771964
vt 0.388419 0.7502388
vt 0.4954351 0.7014662
vt 0.3857639 0.7232811
vt 0.4812087 0.654568
vt 0.3779007 0.6973595
vt 0.4581062 0.6113462
vt 0.4270154 0.5734621
vt 0.3651314 0.67347
vt 0.3479469 0.6525306
vt 0.3891313 0.5423713
vt 0.3459097 0.5192689
vt 0.3270076 0.6353461
vt 0.3031181 0.6225769
vt 0.2502388 0.5002388
vt 0.2014662 0.5050424
vt 0.2502388 0.6120586
vt 0.2232811 0.6147137
vt 0.0192689 0.654568
vt 0.005042434 0.7014662
vt 0.1225769 0.6973595
vt 0.1147136 0.7232811
vt 0.0002387762 0.7502388
vt 0.1120586 0.7502388
vt 0.005042434 0.7990113
vt 0.1147136 0.7771964
vt 0.04237139 0.6113462
vt 0.1353461 0.67347
vt 0.1113462 0.5423714
vt 0.07346207 0.5734621
vt 0.1734699 0.6353462
vt 0.1525306 0.6525306
vt 0.1545679 0.5192689
vt 0.1973595 0.6225769
vt 0.2990113 0.5050424
vt 0.2771964 0.6147137
vt 0.7500341 0.4982656
vt 0.7500341 0.7482656
vt 0.7988067 0.5030693
vt 0.845705 0.5172957
vt 0.8889267 0.5403982
vt 0.9268108 0.5714889
vt 0.9579015 0.609373
vt 0.981004 0.6525947
vt 0.9952304 0.6994931
vt 1.000034 0.7482656
vt 0.9952304 0.7970382
vt 0.981004 0.8439364
vt 0.9579015 0.8871582
vt 0.9268108 0.9250423
vt 0.8889266 0.956133
vt 0.8457049 0.9792355
vt 0.7988067 0.993462
vt 0.7500341 0.9982656
vt 0.5048378 0.7970382
vt 0.5000341 0.7482656
vt 0.5190642 0.8439364
vt 0.5421667 0.8871582
vt 0.5732574 0.9250423
vt 0.6111415 0.956133
vt 0.6543632 0.9792355
vt 0.7012615 0.993462
vt 0.5048378 0.6994931
vt 0.5190642 0.6525947
vt 0.5421667 0.609373
vt 0.5732574 0.5714889
vt 0.6111416 0.5403982
vt 0.6543632 0.5172958
vt 0.7012615 0.5030693

g Default_Prototype
usemtl Default_Prototype
usemap Default_Prototype
f 2/2/2 1/1/1 3/3/3
f 4/4/4 2/2/2 3/3/3
f 4/4/4 3/3/3 5/5/5
f 6/6/6 4/4/4 5/5/5
f 6/6/6 5/5/5 7/7/7
f 8/8/8 6/6/6 7/7/7
f 8/8/8 7/7/7 9/9/9
f 10/10/10 8/8/8 9/9/9
f 10/10/10 9/9/9 11/11/11
f 12/12/12 10/10/10 11/11/11
f 14/14/14 13/13/13 15/15/15
f 16/16/16 14/14/14 15/15/15
f 18/18/18 17/17/17 19/19/19
f 20/20/20 18/18/18 19/19/19
f 20/20/20 19/19/19 21/21/21
f 22/22/22 20/20/20 21/21/21
f 22/22/22 21/21/21 23/23/23
f 24/24/24 22/22/22 23/23/23
f 24/24/24 23/23/23 25/25/25
f 26/26/26 24/24/24 25/25/25
f 26/26/26 25/25/25 27/27/27
f 28/28/28 26/26/26 27/27/27
f 28/28/28 27/27/27 29/29/29
f 30/30/30 28/28/28 29/29/29
f 30/30/30 29/29/29 31/31/31
f 32/32/32 30/30/30 31/31/31
f 32/32/32 31/31/31 33/33/33
f 34/34/34 32/32/32 33/33/33
f 34/34/34 33/33/33 35/35/35
f 36/36/36 34/34/34 35/35/35
f 36/36/36 35/35/35 37/37/37
f 38/38/38 36/36/36 37/37/37
f 38/38/38 37/37/37 39/39/39
f 40/40/40 38/38/38 39/39/39
f 40/40/40 39/39/39 41/41/41
f 42/42/42 40/40/40 41/41/41
f 42/42/42 41/41/41 43/43/43
f 44/44/44 42/42/42 43/43/43
f 44/44/44 43/43/43 45/45/45
f 46/46/46 44/44/44 45/45/45
f 48/48/48 47/47/47 49/49/49
f 50/50/50 48/48/48 49/49/49
f 52/52/52 51/51/51 53/53/53
f 54/54/54 52/52/52 53/53/53
f 54/54/54 53/53/53 55/55/55
f 56/56/56 54/54/54 55/55/55
f 56/56/56 55/55/55 57/57/57
f 58/58/58 56/56/56 57/57/57
f 58/58/58 57/57/57 59/59/59
f 60/60/60 58/58/58 59/59/59
f 60/60/60 59/59/59 61/61/61
f 62/62/62 60/60/60 61/61/61
f 62/62/62 61/61/61 63/63/63
f 64/64/64 62/62/62 63/63/63
f 64/64/64 63/63/63 65/65/65
f 66/66/66 64/64/64 65/65/65
f 66/66/66 65/65/65 67/67/67
f 68/68/68 66/66/66 67/67/67
f 68/68/68 67/67/67 69/69/69
f 70/70/70 68/68/68 69/69/69
f 70/70/70 69/69/69 71/71/71
f 72/72/72 70/70/70 71/71/71
f 72/72/72 71/71/71 1/1/1
f 2/2/2 72/72/72 1/1/1
f 74/74/74 73/73/73 75/75/75
f 74/74/74 75/75/75 76/76/76
f 74/74/74 76/76/76 77/77/77
f 74/74/74 77/77/77 78/78/78
f 74/74/74 78/78/78 79/79/79
f 74/74/74 79/79/79 80/80/80
f 74/74/74 80/80/80 81/81/81
f 74/74/74 81/81/81 82/82/82
f 74/74/74 82/82/82 83/83/83
f 74/74/74 84/84/84 85/85/85
f 74/74/74 83/83/83 84/84/84
f 74/74/74 85/85/85 86/86/86
f 74/74/74 86/86/86 87/87/87
f 74/74/74 87/87/87 88/88/88
f 74/74/74 88/88/88 89/89/89
f 74/74/74 89/89/89 90/90/90
f 74/74/74 90/90/90 91/91/91
f 74/74/74 91/91/91 92/92/92
f 74/74/74 92/92/92 93/93/93
f 74/74/74 93/93/93 94/94/94
f 74/74/74 94/94/94 95/95/95
f 74/74/74 95/95/95 96/96/96
f 74/74/74 96/96/96 97/97/97
f 74/74/74 97/97/97 98/98/98
f 74/74/74 98/98/98 99/99/99
f 74/74/74 99/99/99 100/100/100
f 74/74/74 100/100/100 101/101/101
f 74/74/74 101/101/101 102/102/102
f 74/74/74 103/103/103 104/104/104
f 74/74/74 102/102/102 103/103/103
f 74/74/74 104/104/104 105/105/105
f 74/74/74 105/105/105 73/73/73
f 107/107/107 106/106/106 107/107/107
f 107/107/107 106/106/106 106/106/106
f 106/106/106 108/108/108 106/106/106
f 106/106/106 108/108/108 108/108/108
f 108/108/108 109/109/109 108/108/108
f 108/108/108 109/109/109 109/109/109
f 109/109/109 110/110/110 109/109/109
f 109/109/109 110/110/110 110/110/110
f 110/110/110 111/111/111 110/110/110
f 110/110/110 111/111/111 111/111/111
f 111/111/111 112/112/112 111/111/111
f 111/111/111 112/112/112 112/112/112
f 112/112/112 113/113/113 112/112/112
f 112/112/112 113/113/113 113/113/113
f 113/113/113 114/114/114 113/113/113
f 113/113/113 114/114/114 114/114/114
f 114/114/114 115/115/115 114/114/114
f 114/114/114 115/115/115 115/115/115
f 117/117/117 116/116/116 117/117/117
f 117/117/117 116/116/116 116/116/116
f 115/115/115 117/117/117 115/115/115
f 115/115/115 117/117/117 117/117/117
f 116/116/116 118/118/118 116/116/116
f 116/116/116 118/118/118 118/118/118
f 118/118/118 119/119/119 118/118/118
f 118/118/118 119/119/119 119/119/119
f 119/119/119 120/120/120 119/119/119
f 119/119/119 120/120/120 120/120/120
f 120/120/120 121/121/121 120/120/120
f 120/120/120 121/121/121 121/121/121
f 121/121/121 122/122/122 121/121/121
f 121/121/121 122/122/122 122/122/122
f 122/122/122 123/123/123 122/122/122
f 122/122/122 123/123/123 123/123/123
f 123/123/123 124/124/124 123/123/123
f 123/123/123 124/124/124 124/124/124
f 124/124/124 125/125/125 124/124/124
f 124/124/124 125/125/125 125/125/125
f 125/125/125 126/126/126 125/125/125
f 125/125/125 126/126/126 126/126/126
f 126/126/126 127/127/127 126/126/126
f 126/126/126 127/127/127 127/127/127
f 127/127/127 128/128/128 127/127/127
f 127/127/127 128/128/128 128/128/128
f 128/128/128 129/129/129 128/128/128
f 128/128/128 129/129/129 129/129/129
f 129/129/129 130/130/130 129/129/129
f 129/129/129 130/130/130 130/130/130
f 130/130/130 131/131/131 130/130/130
f 130/130/130 131/131/131 131/131/131
f 131/131/131 132/132/132 131/131/131
f 131/131/131 132/132/132 132/132/132
f 132/132/132 133/133/133 132/132/132
f 132/132/132 133/133/133 133/133/133
f 133/133/133 134/134/134 133/133/133
f 133/133/133 134/134/134 134/134/134
f 136/136/136 135/135/135 136/136/136
f 136/136/136 135/135/135 135/135/135
f 134/134/134 136/136/136 134/134/134
f 134/134/134 136/136/136 136/136/136
f 135/135/135 137/137/137 135/135/135
f 135/135/135 137/137/137 137/137/137
f 137/137/137 107/107/107 137/137/137
f 137/137/137 107/107/107 107/107/107
f 107/107/107 106/106/106 107/107/107
f 107/107/107 106/106/106 106/106/106
f 106/106/106 108/108/108 106/106/106
f 106/106/106 108/108/108 108/108/108
f 108/108/108 109/109/109 108/108/108
f 108/108/108 109/109/109 109/109/109
f 109/109/109 110/110/110 109/109/109
f 109/109/109 110/110/110 110/110/110
f 110/110/110 111/111/111 110/110/110
f 110/110/110 111/111/111 111/111/111
f 111/111/111 112/112/112 111/111/111
f 111/111/111 112/112/112 112/112/112
f 112/112/112 113/113/113 112/112/112
f 112/112/112 113/113/113 113/113/113
f 113/113/113 114/114/114 113/113/113
f 113/113/113 114/114/114 114/114/114
f 114/114/114 115/115/115 114/114/114
f 114/114/114 115/115/115 115/115/115
f 117/117/117 116/116/116 117/117/117
f 117/117/117 116/116/116 116/116/116
f 115/115/115 117/117/117 115/115/115
f 115/115/115 117/117/117 117/117/117
f 116/116/116 118/118/118 116/116/116
f 116/116/116 118/118/118 118/118/118
f 118/118/118 119/119/119 118/118/118
f 118/118/118 119/119/119 119/119/119
f 119/119/119 120/120/120 119/119/119
f 119/119/119 120/120/120 120/120/120
f 120/120/120 121/121/121 120/120/120
f 120/120/120 121/121/121 121/121/121
f 121/121/121 122/122/122 121/121/121
f 121/121/121 122/122/122 122/122/122
f 122/122/122 123/123/123 122/122/122
f 122/122/122 123/123/123 123/123/123
f 123/123/123 124/124/124 123/123/123
f 123/123/123 124/124/124 124/124/124
f 124/124/124 125/125/125 124/124/124
f 124/124/124 125/125/125 125/125/125
f 125/125/125 126/126/126 125/125/125
f 125/125/125 126/126/126 126/126/126
f 126/126/126 127/127/127 126/126/126
f 126/126/126 127/127/127 127/127/127
f 127/127/127 128/128/128 127/127/127
f 127/127/127 128/128/128 128/128/128
f 128/128/128 129/129/129 128/128/128
f 128/128/128 129/129/129 129/129/129
f 129/129/129 130/130/130 129/129/129
f 129/129/129 130/130/130 130/130/130
f 130/130/130 131/131/131 130/130/130
f 130/130/130 131/131/131 131/131/131
f 131/131/131 132/132/132 131/131/131
f 131/131/131 132/132/132 132/132/132
f 132/132/132 133/133/133 132/132/132
f 132/132/132 133/133/133 133/133/133
f 133/133/133 134/134/134 133/133/133
f 133/133/133 134/134/134 134/134/134
f 136/136/136 135/135/135 136/136/136
f 136/136/136 135/135/135 135/135/135
f 134/134/134 136/136/136 134/134/134
f 134/134/134 136/136/136 136/136/136
f 135/135/135 137/137/137 135/135/135
f 135/135/135 137/137/137 137/137/137
f 137/137/137 107/107/107 137/137/137
f 137/137/137 107/107/107 107/107/107
f 107/107/107 106/106/106 107/107/107
f 107/107/107 106/106/106 106/106/106
f 106/106/106 108/108/108 106/106/106
f 106/106/106 108/108/108 108/108/108
f 108/108/108 109/109/109 108/108/108
f 108/108/108 109/109/109 109/109/109
f 109/109/109 110/110/110 109/109/109
f 109/109/109 110/110/110 110/110/110
f 110/110/110 111/111/111 110/110/110
f 110/110/110 111/111/111 111/111/111
f 111/111/111 112/112/112 111/111/111
f 111/111/111 112/112/112 112/112/112
f 112/112/112 113/113/113 112/112/112
f 112/112/112 113/113/113 113/113/113
f 113/113/113 114/114/114 113/113/113
f 113/113/113 114/114/114 114/114/114
f 114/114/114 115/115/115 114/114/114
f 114/114/114 115/115/115 115/115/115
f 117/117/117 116/116/116 117/117/117
f 117/117/117 116/116/116 116/116/116
f 115/115/115 117/117/117 115/115/115
f 115/115/115 117/117/117 117/117/117
f 116/116/116 118/118/118 116/116/116
f 116/116/116 118/118/118 118/118/118
f 118/118/118 119/119/119 118/118/118
f 118/118/118 119/119/119 119/119/119
f 119/119/119 120/120/120 119/119/119
f 119/119/119 120/120/120 120/120/120
f 120/120/120 121/121/121 120/120/120
f 120/120/120 121/121/121 121/121/121
f 121/121/121 122/122/122 121/121/121
f 121/121/121 122/122/122 122/122/122
f 122/122/122 123/123/123 122/122/122
f 122/122/122 123/123/123 123/123/123
f 123/123/123 124/124/124 123/123/123
f 123/123/123 124/124/124 124/124/124
f 124/124/124 125/125/125 124/124/124
f 124/124/124 125/125/125 125/125/125
f 125/125/125 126/126/126 125/125/125
f 125/125/125 126/126/126 126/126/126
f 126/126/126 127/127/127 126/126/126
f 126/126/126 127/127/127 127/127/127
f 127/127/127 128/128/128 127/127/127
f 127/127/127 128/128/128 128/128/128
f 128/128/128 129/129/129 128/128/128
f 128/128/128 129/129/129 129/129/129
f 129/129/129 130/130/130 129/129/129
f 129/129/129 130/130/130 130/130/130
f 130/130/130 131/131/131 130/130/130
f 130/130/130 131/131/131 131/131/131
f 131/131/131 132/132/132 131/131/131
f 131/131/131 132/132/132 132/132/132
f 132/132/132 133/133/133 132/132/132
f 132/132/132 133/133/133 133/133/133
f 133/133/133 134/134/134 133/133/133
f 133/133/133 134/134/134 134/134/134
f 136/136/136 135/135/135 136/136/136
f 136/136/136 135/135/135 135/135/135
f 134/134/134 136/136/136 134/134/134
f 134/134/134 136/136/136 136/136/136
f 135/135/135 137/137/137 135/135/135
f 135/135/135 137/137/137 137/137/137
f 137/137/137 107/107/107 137/137/137
f 137/137/137 107/107/107 107/107/107
f 139/139/139 138/138/138 139/139/139
f 139/139/139 138/138/138 138/138/138
f 138/138/138 140/140/140 138/138/138
f 138/138/138 140/140/140 140/140/140
f 140/140/140 141/141/141 140/140/140
f 140/140/140 141/141/141 141/141/141
f 141/141/141 142/142/142 141/141/141
f 141/141/141 142/142/142 142/142/142
f 142/142/142 143/143/143 142/142/142
f 142/142/142 143/143/143 143/143/143
f 143/143/143 144/144/144 143/143/143
f 143/143/143 144/144/144 144/144/144
f 144/144/144 145/145/145 144/144/144
f 144/144/144 145/145/145 145/145/145
f 145/145/145 146/146/146 145/145/145
f 145/145/145 146/146/146 146/146/146
f 146/146/146 147/147/147 146/146/146
f 146/146/146 147/147/147 147/147/147
f 149/149/149 148/148/148 149/149/149
f 149/149/149 148/148/148 148/148/148
f 147/147/147 149/149/149 147/147/147
f 147/147/147 149/149/149 149/149/149
f 148/148/148 150/150/150 148/148/148
f 148/148/148 150/150/150 150/150/150
f 150/150/150 151/151/151 150/150/150
f 150/150/150 151/151/151 151/151/151
f 151/151/151 152/152/152 151/151/151
f 151/151/151 152/152/152 152/152/152
f 152/152/152 153/153/153 152/152/152
f 152/152/152 153/153/153 153/153/153
f 153/153/153 154/154/154 153/153/153
f 153/153/153 154/154/154 154/154/154
f 154/154/154 155/155/155 154/154/154
f 154/154/154 155/155/155 155/155/155
f 155/155/155 156/156/156 155/155/155
f 155/155/155 156/156/156 156/156/156
f 156/156/156 157/157/157 156/156/156
f 156/156/156 157/157/157 157/157/157
f 157/157/157 158/158/158 157/157/157
f 157/157/157 158/158/158 158/158/158
f 158/158/158 159/159/159 158/158/158
f 158/158/158 159/159/159 159/159/159
f 159/159/159 160/160/160 159/159/159
f 159/159/159 160/160/160 160/160/160
f 160/160/160 161/161/161 160/160/160
f 160/160/160 161/161/161 161/161/161
f 161/161/161 162/162/162 161/161/161
f 161/161/161 162/162/162 162/162/162
f 162/162/162 163/163/163 162/162/162
f 162/162/162 163/163/163 163/163/163
f 163/163/163 164/164/164 163/163/163
f 163/163/163 164/164/164 164/164/164
f 164/164/164 165/165/165 164/164/164
f 164/164/164 165/165/165 165/165/165
f 165/165/165 166/166/166 165/165/165
f 165/165/165 166/166/166 166/166/166
f 168/168/168 167/167/167 168/168/168
f 168/168/168 167/167/167 167/167/167
f 166/166/166 168/168/168 166/166/166
f 166/166/166 168/168/168 168/168/168
f 167/167/167 169/169/169 167/167/167
f 167/167/167 169/169/169 169/169/169
f 169/169/169 139/139/139 169/169/169
f 169/169/169 139/139/139 139/139/139
f 139/139/139 138/138/138 139/139/139
f 139/139/139 138/138/138 138/138/138
f 138/138/138 140/140/140 138/138/138
f 138/138/138 140/140/140 140/140/140
f 140/140/140 141/141/141 140/140/140
f 140/140/140 141/141/141 141/141/141
f 141/141/141 142/142/142 141/141/141
f 141/141/141 142/142/142 142/142/142
f 142/142/142 143/143/143 142/142/142
f 142/142/142 143/143/143 143/143/143
f 143/143/143 144/144/144 143/143/143
f 143/143/143 144/144/144 144/144/144
f 144/144/144 145/145/145 144/144/144
f 144/144/144 145/145/145 145/145/145
f 145/145/145 146/146/146 145/145/145
f 145/145/145 146/146/146 146/146/146
f 146/146/146 147/147/147 146/146/146
f 146/146/146 147/147/147 147/147/147
f 149/149/149 148/148/148 149/149/149
f 149/149/149 148/148/148 148/148/148
f 147/147/147 149/149/149 147/147/147
f 147/147/147 149/149/149 149/149/149
f 148/148/148 150/150/150 148/148/148
f 148/148/148 150/150/150 150/150/150
f 150/150/150 151/151/151 150/150/150
f 150/150/150 151/151/151 151/151/151
f 151/151/151 152/152/152 151/151/151
f 151/151/151 152/152/152 152/152/152
f 152/152/152 153/153/153 152/152/152
f 152/152/152 153/153/153 153/153/153
f 153/153/153 154/154/154 153/153/153
f 153/153/153 154/154/154 154/154/154
f 154/154/154 155/155/155 154/154/154
f 154/154/154 155/155/155 155/155/155
f 155/155/155 156/156/156 155/155/155
f 155/155/155 156/156/156 156/156/156
f 156/156/156 157/157/157 156/156/156
f 156/156/156 157/157/157 157/157/157
f 157/157/157 158/158/158 157/157/157
f 157/157/157 158/158/158 158/158/158
f 158/158/158 159/159/159 158/158/158
f 158/158/158 159/159/159 159/159/159
f 159/159/159 160/160/160 159/159/159
f 159/159/159 160/160/160 160/160/160
f 160/160/160 161/161/161 160/160/160
f 160/160/160 161/161/161 161/161/161
f 161/161/161 162/162/162 161/161/161
f 161/161/161 162/162/162 162/162/162
f 162/162/162 163/163/163 162/162/162
f 162/162/162 163/163/163 163/163/163
f 163/163/163 164/164/164 163/163/163
f 163/163/163 164/164/164 164/164/164
f 164/164/164 165/165/165 164/164/164
f 164/164/164 165/165/165 165/165/165
f 165/165/165 166/166/166 165/165/165
f 165/165/165 166/166/166 166/166/166
f 168/168/168 167/167/167 168/168/168
f 168/168/168 167/167/167 167/167/167
f 166/166/166 168/168/168 166/166/166
f 166/166/166 168/168/168 168/168/168
f 167/167/167 169/169/169 167/167/167
f 167/167/167 169/169/169 169/169/169
f 169/169/169 139/139/139 169/169/169
f 169/169/169 139/139/139 139/139/139
f 171/171/171 170/170/170 172/172/172
f 173/173/173 171/171/171 172/172/172
f 170/170/170 174/174/174 175/175/175
f 172/172/172 170/170/170 175/175/175
f 174/174/174 176/176/176 177/177/177
f 175/175/175 174/174/174 177/177/177
f 176/176/176 178/178/178 179/179/179
f 177/177/177 176/176/176 179/179/179
f 178/178/178 180/180/180 181/181/181
f 179/179/179 178/178/178 181/181/181
f 180/180/180 182/182/182 183/183/183
f 181/181/181 180/180/180 183/183/183
f 182/182/182 184/184/184 185/185/185
f 183/183/183 182/182/182 185/185/185
f 184/184/184 186/186/186 187/187/187
f 185/185/185 184/184/184 187/187/187
f 189/189/189 188/188/188 190/190/190
f 191/191/191 189/189/189 190/190/190
f 193/193/193 192/192/192 194/194/194
f 195/195/195 193/193/193 194/194/194
f 188/188/188 193/193/193 195/195/195
f 190/190/190 188/188/188 195/195/195
f 192/192/192 196/196/196 197/197/197
f 194/194/194 192/192/192 197/197/197
f 196/196/196 198/198/198 199/199/199
f 197/197/197 196/196/196 199/199/199
f 198/198/198 200/200/200 201/201/201
f 199/199/199 198/198/198 201/201/201
f 200/200/200 202/202/202 203/203/203
f 201/201/201 200/200/200 203/203/203
f 202/202/202 204/204/204 205/205/205
f 203/203/203 202/202/202 205/205/205
f 204/204/204 206/206/206 207/207/207
f 205/205/205 204/204/204 207/207/207
f 206/206/206 208/208/208 209/209/209
f 207/207/207 206/206/206 209/209/209
f 208/208/208 210/210/210 211/211/211
f 209/209/209 208/208/208 211/211/211
f 210/210/210 212/212/212 213/213/213
f 211/211/211 210/210/210 213/213/213
f 212/212/212 214/214/214 215/215/215
f 213/213/213 212/212/212 215/215/215
f 214/214/214 216/216/216 217/217/217
f 215/215/215 214/214/214 217/217/217
f 216/216/216 218/218/218 219/219/219
f 217/217/217 216/216/216 219/219/219
f 218/218/218 220/220/220 221/221/221
f 219/219/219 218/218/218 221/221/221
f 223/223/223 222/222/222 224/224/224
f 225/225/225 223/223/223 224/224/224
f 222/222/222 226/226/226 227/227/227
f 224/224/224 222/222/222 227/227/227
f 226/226/226 228/228/228 229/229/229
f 227/227/227 226/226/226 229/229/229
f 228/228/228 230/230/230 231/231/231
f 229/229/229 228/228/228 231/231/231
f 233/233/233 232/232/232 234/234/234
f 235/235/235 233/233/233 234/234/234
f 230/230/230 233/233/233 235/235/235
f 231/231/231 230/230/230 235/235/235
f 232/232/232 236/236/236 237/237/237
f 234/234/234 232/232/232 237/237/237
f 236/236/236 171/171/171 173/173/173
f 237/237/237 236/236/236 173/173/173
f 239/239/239 238/238/238 240/240/240
f 241/241/241 239/239/239 240/240/240
f 242/242/242 239/239/239 241/241/241
f 243/243/243 242/242/242 241/241/241
f 244/244/244 242/242/242 243/243/243
f 245/245/245 244/244/244 243/243/243
f 246/246/246 244/244/244 245/245/245
f 247/247/247 246/246/246 245/245/245
f 248/248/248 246/246/246 247/247/247
f 249/249/249 248/248/248 247/247/247
f 250/250/250 248/248/248 249/249/249
f 251/251/251 250/250/250 249/249/249
f 252/252/252 250/250/250 251/251/251
f 253/253/253 252/252/252 251/251/251
f 254/254/254 252/252/252 253/253/253
f 255/255/255 254/254/254 253/253/253
f 257/257/257 256/256/256 258/258/258
f 259/259/259 257/257/257 258/258/258
f 256/256/256 254/254/254 255/255/255
f 258/258/258 256/256/256 255/255/255
f 260/260/260 257/257/257 259/259/259
f 261/261/261 260/260/260 259/259/259
f 262/262/262 260/260/260 261/261/261
f 263/263/263 262/262/262 261/261/261
f 265/265/265 264/264/264 266/266/266
f 267/267/267 265/265/265 266/266/266
f 264/264/264 262/262/262 263/263/263
f 266/266/266 264/264/264 263/263/263
f 268/268/268 265/265/265 267/267/267
f 269/269/269 268/268/268 267/267/267
f 270/270/270 268/268/268 269/269/269
f 271/271/271 270/270/270 269/269/269
f 273/273/273 272/272/272 274/274/274
f 275/275/275 273/273/273 274/274/274
f 272/272/272 270/270/270 271/271/271
f 274/274/274 272/272/272 271/271/271
f 277/277/277 276/276/276 278/278/278
f 279/279/279 277/277/277 278/278/278
f 281/281/281 280/280/280 282/282/282
f 283/283/283 281/281/281 282/282/282
f 285/285/285 284/284/284 286/286/286
f 287/287/287 285/285/285 286/286/286
f 288/288/288 285/285/285 287/287/287
f 289/289/289 288/288/288 287/287/287
f 290/290/290 288/288/288 289/289/289
f 291/291/291 290/290/290 289/289/289
f 284/284/284 292/292/292 293/293/293
f 286/286/286 284/284/284 293/293/293
f 295/295/295 294/294/294 296/296/296
f 297/297/297 295/295/295 296/296/296
f 294/294/294 298/298/298 299/299/299
f 296/296/296 294/294/294 299/299/299
f 298/298/298 281/281/281 283/283/283
f 299/299/299 298/298/298 283/283/283
f 300/300/300 277/277/277 279/279/279
f 301/301/301 300/300/300 279/279/279
f 280/280/280 300/300/300 301/301/301
f 282/282/282 280/280/280 301/301/301
f 276/276/276 273/273/273 275/275/275
f 278/278/278 276/276/276 275/275/275
f 292/292/292 295/295/295 297/297/297
f 293/293/293 292/292/292 297/297/297
f 238/238/238 290/290/290 291/291/291
f 240/240/240 238/238/238 291/291/291
f 303/303/303 302/302/302 304/304/304
f 303/303/303 304/304/304 305/305/305
f 303/303/303 305/305/305 306/306/306
f 303/303/303 306/306/306 307/307/307
f 303/303/303 307/307/307 308/308/308
f 303/303/303 308/308/308 309/309/309
f 303/303/303 309/309/309 310/310/310
f 303/303/303 310/310/310 311/311/311
f 303/303/303 311/311/311 312/312/312
f 303/303/303 312/312/312 313/313/313
f 303/303/303 313/313/313 314/314/314
f 303/303/303 314/314/314 315/315/315
f 303/303/303 315/315/315 316/316/316
f 303/303/303 316/316/316 317/317/317
f 303/303/303 317/317/317 318/318/318
f 303/303/303 318/318/318 319/319/319
f 303/303/303 320/320/320 321/321/321
f 303/303/303 322/322/322 320/320/320
f 303/303/303 323/323/323 322/322/322
f 303/303/303 324/324/324 323/323/323
f 303/303/303 325/325/325 324/324/324
f 303/303/303 326/326/326 325/325/325
f 303/303/303 327/327/327 326/326/326
f 303/303/303 319/319/319 327/327/327
f 303/303/303 321/321/321 328/328/328
f 303/303/303 328/328/328 329/329/329
f 303/303/303 329/329/329 330/330/330
f 303/303/303 330/330/330 331/331/331
f 303/303/303 331/331/331 332/332/332
f 303/303/303 332/332/332 333/333/333
f 303/303/303 334/334/334 302/302/302
f 303/303/303 333/333/333 334/334/334
