mtllib ./WallThinTop2_3.mtl
g pb-MergedObject-1325762
v 0.2462316 0.1599483 -0.2219599
v 0.4962316 -0.06005192 -0.2219599
v 0.4962316 0.1599483 -0.2219599
v -0.003768444 -0.06005192 -0.2219599
v -0.003768444 0.1599483 -0.2219599
v 0.2462316 -0.06005192 -0.2219599
v 0.4962316 0.1599483 -0.02196002
v 0.4962316 -0.06005192 0.17804
v 0.4962316 0.1599483 0.17804
v 0.4962316 -0.06005192 -0.02196002
v 0.4962316 0.1599483 -0.2219599
v 0.4962316 -0.06005192 -0.2219599
v -0.003768444 -0.06005192 -0.2219599
v -0.003768444 0.1599483 -0.2219599
v -0.003768444 -0.06005192 -0.02196002
v -0.003768444 0.1599483 -0.02196002
v -0.003768444 0.1599483 0.17804
v -0.003768444 -0.06005192 0.17804
v 0.2462316 0.1599483 0.17804
v -0.003768444 -0.06005192 0.17804
v -0.003768444 0.1599483 0.17804
v 0.4962316 -0.06005192 0.17804
v 0.4962316 0.1599483 0.17804
v 0.2462316 -0.06005192 0.17804
v 0.2462316 -0.06005192 -0.2219599
v 0.2462316 -0.06005192 -0.02196002
v 0.4962316 -0.06005192 -0.2219599
v 0.4962316 -0.06005192 -0.02196002
v -0.003768444 -0.06005192 -0.2219599
v -0.003768444 -0.06005192 -0.02196002
v 0.4962316 -0.06005192 -0.02196002
v 0.2462316 -0.06005192 -0.02196002
v 0.4962316 -0.06005192 0.17804
v 0.2462316 -0.06005192 0.17804
v -0.003768444 -0.06005192 -0.02196002
v -0.003768444 -0.06005192 0.17804
v 0.4962316 0.1599483 -0.02196002
v 0.2462316 0.1599483 -0.02196002
v 0.4962316 0.1599483 -0.2219599
v 0.2462316 0.1599483 -0.2219599
v -0.003768444 0.1599483 -0.02196002
v -0.003768444 0.1599483 -0.2219599
v 0.2462316 0.1599483 0.17804
v -0.003768444 0.1599483 0.17804
v 0.4962316 0.1599483 0.17804
v 0.6962314 0.1689472 -0.20196
v 0.8962314 -0.07105255 -0.20196
v 0.8962314 0.1689472 -0.20196
v 0.6962314 -0.07105255 -0.20196
v 0.4962313 0.1689472 -0.20196
v 0.4962313 -0.07105255 -0.20196
v 0.4962313 -0.07105255 -0.20196
v 0.4962313 0.1689472 -0.20196
v 0.4962313 -0.07105255 -0.0219599
v 0.4962313 0.1689472 -0.0219599
v 0.4962313 0.1689472 0.15804
v 0.4962313 -0.07105255 0.15804
v 0.4962313 -0.07105255 0.15804
v 0.4962313 0.1689472 0.15804
v 0.6962314 -0.07105255 0.15804
v 0.6962314 0.1689472 0.15804
v 0.8962314 0.1689472 0.15804
v 0.8962314 -0.07105255 0.15804
v 0.6962314 -0.07105255 -0.20196
v 0.6962314 -0.07105255 -0.0219599
v 0.8962314 -0.07105255 -0.20196
v 0.8962314 -0.07105255 -0.0219599
v 0.4962313 -0.07105255 -0.0219599
v 0.4962313 -0.07105255 -0.20196
v 0.8962314 -0.07105255 -0.0219599
v 0.6962314 -0.07105255 -0.0219599
v 0.8962314 -0.07105255 0.15804
v 0.6962314 -0.07105255 0.15804
v 0.4962313 -0.07105255 -0.0219599
v 0.4962313 -0.07105255 0.15804
v 0.8962314 0.1689472 -0.0219599
v 0.6962314 0.1689472 -0.0219599
v 0.8962314 0.1689472 -0.20196
v 0.6962314 0.1689472 -0.20196
v 0.6962314 0.1689472 0.15804
v 0.4962313 0.1689472 0.15804
v 0.4962313 0.1689472 -0.0219599
v 0.8962314 0.1689472 0.15804
v 0.4962313 0.1689472 -0.20196
v -0.9111891 -0.08205223 -0.2109599
v -0.9111891 0.1579475 -0.2109599
v -1.253769 -0.08205223 -0.2109599
v -1.253769 0.1579475 -0.2109599
v -1.603769 0.1579475 -0.2109599
v -1.603769 -0.08205223 -0.2109599
v -0.9111891 0.1579475 -0.02095997
v -0.9111891 -0.08205223 0.1690401
v -0.9111891 0.1579475 0.1690401
v -0.9111891 -0.08205223 -0.02095997
v -0.9111891 0.1579475 -0.2109599
v -0.9111891 -0.08205223 -0.2109599
v -1.603769 -0.08205223 -0.2109599
v -1.603769 0.1579475 -0.2109599
v -1.603769 -0.08205223 -0.02095997
v -1.603769 0.1579475 -0.02095997
v -1.603769 0.1579475 0.1690401
v -1.603769 -0.08205223 0.1690401
v -1.253769 0.1579475 0.1690401
v -1.603769 -0.08205223 0.1690401
v -1.603769 0.1579475 0.1690401
v -1.253769 -0.08205223 0.1690401
v -0.9111891 0.1579475 0.1690401
v -0.9111891 -0.08205223 0.1690401
v -1.253769 -0.08205223 -0.2109599
v -1.253769 -0.08205223 -0.02095997
v -0.9111891 -0.08205223 -0.2109599
v -0.9111891 -0.08205223 -0.02095997
v -1.603769 -0.08205223 -0.02095997
v -1.603769 -0.08205223 -0.2109599
v -0.9111891 -0.08205223 -0.02095997
v -1.253769 -0.08205223 -0.02095997
v -0.9111891 -0.08205223 0.1690401
v -1.253769 -0.08205223 0.1690401
v -1.603769 -0.08205223 -0.02095997
v -1.603769 -0.08205223 0.1690401
v -1.253769 0.1579475 -0.02095997
v -1.603769 0.1579475 -0.02095997
v -1.253769 0.1579475 -0.2109599
v -1.603769 0.1579475 -0.2109599
v -1.253769 0.1579475 0.1690401
v -0.9111891 0.1579475 0.1690401
v -0.9111891 0.1579475 -0.02095997
v -1.603769 0.1579475 0.1690401
v -0.9111891 0.1579475 -0.2109599
v -0.5537684 -0.06605244 -0.2229599
v -0.5537684 0.1639471 -0.2229599
v -0.7287683 -0.06605244 -0.2229599
v -0.7287683 0.1639471 -0.2229599
v -0.9037683 0.1639471 -0.2229599
v -0.9037683 -0.06605244 -0.2229599
v -0.5537684 0.1639471 -0.02295995
v -0.5537684 -0.06605244 0.1770401
v -0.5537684 0.1639471 0.1770401
v -0.5537684 -0.06605244 -0.02295995
v -0.5537684 0.1639471 -0.2229599
v -0.5537684 -0.06605244 -0.2229599
v -0.9037683 -0.06605244 -0.2229599
v -0.9037683 0.1639471 -0.2229599
v -0.9037683 -0.06605244 -0.02295995
v -0.9037683 0.1639471 -0.02295995
v -0.9037683 0.1639471 0.1770401
v -0.9037683 -0.06605244 0.1770401
v -0.7287683 0.1639471 0.1770401
v -0.9037683 -0.06605244 0.1770401
v -0.9037683 0.1639471 0.1770401
v -0.7287683 -0.06605244 0.1770401
v -0.5537684 0.1639471 0.1770401
v -0.5537684 -0.06605244 0.1770401
v -0.7287683 -0.06605244 -0.2229599
v -0.7287683 -0.06605244 -0.02295995
v -0.5537684 -0.06605244 -0.2229599
v -0.5537684 -0.06605244 -0.02295995
v -0.9037683 -0.06605244 -0.2229599
v -0.9037683 -0.06605244 -0.02295995
v -0.5537684 -0.06605244 -0.02295995
v -0.7287683 -0.06605244 -0.02295995
v -0.5537684 -0.06605244 0.1770401
v -0.7287683 -0.06605244 0.1770401
v -0.9037683 -0.06605244 -0.02295995
v -0.9037683 -0.06605244 0.1770401
v -0.7287683 0.1639471 -0.02295995
v -0.7287683 0.1639471 0.1770401
v -0.9037683 0.1639471 0.1770401
v -0.9037683 0.1639471 -0.02295995
v -0.7287683 0.1639471 -0.2229599
v -0.9037683 0.1639471 -0.2229599
v -0.5537684 0.1639471 -0.02295995
v -0.5537684 0.1639471 -0.2229599
v -0.5537684 0.1639471 0.1770401
v -0.2787685 0.1689472 -0.2109599
v -0.003768444 -0.07105255 -0.2109599
v -0.003768444 0.1689472 -0.2109599
v -0.2787685 -0.07105255 -0.2109599
v -0.5537684 0.1689472 -0.2109599
v -0.5537684 -0.07105255 -0.2109599
v -0.003768444 -0.07105255 0.1590401
v -0.003768444 0.1689472 0.1590401
v -0.003768444 -0.07105255 -0.02595985
v -0.003768444 0.1689472 -0.02595985
v -0.003768444 0.1689472 -0.2109599
v -0.003768444 -0.07105255 -0.2109599
v -0.5537684 0.1689472 -0.02595985
v -0.5537684 -0.07105255 -0.2109599
v -0.5537684 0.1689472 -0.2109599
v -0.5537684 -0.07105255 -0.02595985
v -0.5537684 0.1689472 0.1590401
v -0.5537684 -0.07105255 0.1590401
v -0.2787685 0.1689472 0.1590401
v -0.5537684 -0.07105255 0.1590401
v -0.5537684 0.1689472 0.1590401
v -0.2787685 -0.07105255 0.1590401
v -0.003768444 0.1689472 0.1590401
v -0.003768444 -0.07105255 0.1590401
v -0.2787685 -0.07105255 -0.2109599
v -0.2787685 -0.07105255 -0.02595985
v -0.003768444 -0.07105255 -0.2109599
v -0.003768444 -0.07105255 -0.02595985
v -0.5537684 -0.07105255 -0.02595985
v -0.5537684 -0.07105255 -0.2109599
v -0.003768444 -0.07105255 -0.02595985
v -0.2787685 -0.07105255 -0.02595985
v -0.003768444 -0.07105255 0.1590401
v -0.2787685 -0.07105255 0.1590401
v -0.5537684 -0.07105255 -0.02595985
v -0.5537684 -0.07105255 0.1590401
v -0.2787685 0.1689472 0.1590401
v -0.2787685 0.1689472 -0.02595985
v -0.003768444 0.1689472 0.1590401
v -0.003768444 0.1689472 -0.02595985
v -0.5537684 0.1689472 -0.02595985
v -0.5537684 0.1689472 0.1590401
v -0.2787685 0.1689472 -0.2109599
v -0.5537684 0.1689472 -0.2109599
v -0.003768444 0.1689472 -0.2109599
v -1.978769 0.1729479 -0.2269599
v -1.603769 -0.07705212 -0.2269599
v -1.603769 0.1729479 -0.2269599
v -1.978769 -0.07705212 -0.2269599
v -2.105833 0.1729479 -0.2269599
v -2.105833 -0.07705212 -0.2269599
v -1.603769 0.1729479 -0.02696002
v -1.603769 -0.07705212 0.17304
v -1.603769 0.1729479 0.17304
v -1.603769 -0.07705212 -0.02696002
v -1.603769 0.1729479 -0.2269599
v -1.603769 -0.07705212 -0.2269599
v -2.105833 0.1729479 -0.02696002
v -2.105833 -0.07705212 -0.2269599
v -2.105833 0.1729479 -0.2269599
v -2.105833 -0.07705212 -0.02696002
v -2.105833 0.1729479 0.17304
v -2.105833 -0.07705212 0.17304
v -1.978769 0.1729479 0.17304
v -2.105833 -0.07705212 0.17304
v -2.105833 0.1729479 0.17304
v -1.978769 -0.07705212 0.17304
v -1.603769 0.1729479 0.17304
v -1.603769 -0.07705212 0.17304
v -1.978769 -0.07705212 -0.2269599
v -1.978769 -0.07705212 -0.02696002
v -1.603769 -0.07705212 -0.2269599
v -1.603769 -0.07705212 -0.02696002
v -2.105833 -0.07705212 -0.2269599
v -2.105833 -0.07705212 -0.02696002
v -1.603769 -0.07705212 -0.02696002
v -1.978769 -0.07705212 -0.02696002
v -1.603769 -0.07705212 0.17304
v -1.978769 -0.07705212 0.17304
v -2.105833 -0.07705212 -0.02696002
v -2.105833 -0.07705212 0.17304
v -1.603769 0.1729479 -0.02696002
v -1.978769 0.1729479 -0.02696002
v -1.603769 0.1729479 -0.2269599
v -1.978769 0.1729479 -0.2269599
v -1.978769 0.1729479 0.17304
v -2.105833 0.1729479 0.17304
v -2.105833 0.1729479 -0.02696002
v -1.603769 0.1729479 0.17304
v -2.105833 0.1729479 -0.2269599
v 0.8962314 0.1689472 -0.20196
v 0.8962314 -0.07105255 0.15804
v 0.8962314 0.1689472 0.15804
v 0.8962314 -0.07105255 -0.20196

vn 0 0 -1
vn 0 0 -1
vn 0 0 -1
vn 0 0 -1
vn 0 0 -1
vn 0 0 -1
vn 1 0 0
vn 1 0 0
vn 1 0 0
vn 1 0 0
vn 1 0 0
vn 1 0 0
vn -1 0 0
vn -1 0 0
vn -1 0 0
vn -1 0 0
vn -1 0 0
vn -1 0 0
vn 0 0 1
vn 0 0 1
vn 0 0 1
vn 0 0 1
vn 0 0 1
vn 0 0 1
vn 0 -1 0
vn 0 -1 0
vn 0 -1 0
vn 0 -1 0
vn 0 -1 0
vn 0 -1 0
vn 0 -1 0
vn 0 -1 0
vn 0 -1 0
vn 0 -1 0
vn 0 -1 0
vn 0 -1 0
vn 0 1 0
vn 0 1 0
vn 0 1 0
vn 0 1 0
vn 0 1 0
vn 0 1 0
vn 0 1 0
vn 0 1 0
vn 0 1 0
vn 0 0 -1
vn 0 0 -1
vn 0 0 -1
vn 0 0 -1
vn 0 0 -1
vn 0 0 -1
vn -1 0 0
vn -1 0 0
vn -0.9999999 0 0
vn -0.9999999 0 0
vn -1 0 0
vn -1 0 0
vn 0 0 1
vn 0 0 1
vn 0 0 1
vn 0 0 1
vn 0 0 1
vn 0 0 1
vn 0 -0.9999999 0
vn 0 -0.9999999 0
vn 0 -1 0
vn 0 -1 0
vn 0 -1 0
vn 0 -1 0
vn 0 -1 0
vn 0 -1 0
vn 0 -1 0
vn 0 -1 0
vn 0 -1 0
vn 0 -1 0
vn 0 1 0
vn 0 1 0
vn 0 1 0
vn 0 1 0
vn 0 1 0
vn 0 1 0
vn 0 1 0
vn 0 1 0
vn 0 1 0
vn 0 0 -1
vn 0 0 -1
vn 0 0 -1
vn 0 0 -1
vn 0 0 -1
vn 0 0 -1
vn 1 0 0
vn 1 0 0
vn 1 0 0
vn 1 0 0
vn 1 0 0
vn 1 0 0
vn -1 0 0
vn -1 0 0
vn -1 0 0
vn -1 0 0
vn -1 0 0
vn -1 0 0
vn 0 0 1
vn 0 0 1
vn 0 0 1
vn 0 0 1
vn 0 0 1
vn 0 0 1
vn 0 -1 0
vn 0 -0.9999999 0
vn 0 -1 0
vn 0 -1 0
vn 0 -1 0
vn 0 -1 0
vn 0 -1 0
vn 0 -1 0
vn 0 -1 0
vn 0 -1 0
vn 0 -1 0
vn 0 -1 0
vn 0 0.9999999 0
vn 0 1 0
vn 0 1 0
vn 0 1 0
vn 0 1 0
vn 0 1 0
vn 0 1 0
vn 0 1 0
vn 0 1 0
vn 0 0 -1
vn 0 0 -1
vn 0 0 -1
vn 0 0 -1
vn 0 0 -1
vn 0 0 -1
vn 1 0 0
vn 1 0 0
vn 1 0 0
vn 1 0 0
vn 1 0 0
vn 1 0 0
vn -1 0 0
vn -1 0 0
vn -1 0 0
vn -1 0 0
vn -1 0 0
vn -1 0 0
vn 0 0 1
vn 0 0 1
vn 0 0 1
vn 0 0 1
vn 0 0 1
vn 0 0 1
vn 0 -1 0
vn 0 -1 0
vn 0 -1 0
vn 0 -1 0
vn 0 -1 0
vn 0 -1 0
vn 0 -1 0
vn 0 -1 0
vn 0 -1 0
vn 0 -1 0
vn 0 -1 0
vn 0 -1 0
vn 0 1 0
vn 0 1 0
vn 0 1 0
vn 0 1 0
vn 0 1 0
vn 0 1 0
vn 0 1 0
vn 0 1 0
vn 0 1 0
vn 0 0 -1
vn 0 0 -1
vn 0 0 -1
vn 0 0 -1
vn 0 0 -1
vn 0 0 -1
vn 0.9999999 0 0
vn 0.9999999 0 0
vn 0.9999999 0 0
vn 0.9999999 0 0
vn 0.9999999 0 0
vn 0.9999999 0 0
vn -1 0 0
vn -0.9999999 0 0
vn -0.9999999 0 0
vn -1 0 0
vn -0.9999999 0 0
vn -0.9999999 0 0
vn 0 0 1
vn 0 0 1
vn 0 0 1
vn 0 0 1
vn 0 0 1
vn 0 0 1
vn 0 -1 0
vn 0 -1 0
vn 0 -0.9999999 0
vn 0 -0.9999999 0
vn 0 -0.9999999 0
vn 0 -0.9999999 0
vn 0 -1 0
vn 0 -1 0
vn 0 -1 0
vn 0 -1 0
vn 0 -1 0
vn 0 -1 0
vn 0 1 0
vn 0 1 0
vn 0 1 0
vn 0 1 0
vn 0 0.9999999 0
vn 0 1 0
vn 0 1 0
vn 0 0.9999999 0
vn 0 0.9999999 0
vn 0 0 -1
vn 0 0 -1
vn 0 0 -1
vn 0 0 -1
vn 0 0 -1
vn 0 0 -1
vn 1 0 0
vn 1 0 0
vn 1 0 0
vn 1 0 0
vn 1 0 0
vn 1 0 0
vn -1 0 0
vn -1 0 0
vn -1 0 0
vn -1 0 0
vn -1 0 0
vn -1 0 0
vn 0 0 1
vn 0 0 1
vn 0 0 1
vn 0 0 1
vn 0 0 1
vn 0 0 1
vn 0 -1 0
vn 0 -1 0
vn 0 -1 0
vn 0 -1 0
vn 0 -1 0
vn 0 -1 0
vn 0 -1 0
vn 0 -1 0
vn 0 -1 0
vn 0 -1 0
vn 0 -1 0
vn 0 -1 0
vn 0 1 0
vn 0 1 0
vn 0 1 0
vn 0 1 0
vn 0 1 0
vn 0 1 0
vn 0 1 0
vn 0 1 0
vn 0 1 0
vn 0.9999999 0 0
vn 0.9999999 0 0
vn 0.9999999 0 0
vn 0.9999999 0 0

vt 0.6704369 0.7732442
vt 0.6013041 0.7124072
vt 0.6013041 0.7732442
vt 0.7395698 0.7124072
vt 0.7395698 0.7732442
vt 0.6704369 0.7124072
vt 0.5459977 0.8838568
vt 0.6013041 0.9446937
vt 0.6013041 0.8838568
vt 0.5459977 0.9446937
vt 0.4906914 0.8838568
vt 0.4906914 0.9446937
vt 0.8004068 0.7732442
vt 0.7395698 0.7732442
vt 0.8004068 0.8285505
vt 0.7395698 0.8285505
vt 0.7395698 0.8838568
vt 0.8004068 0.8838568
vt 0.6704369 0.8838568
vt 0.7395698 0.9446937
vt 0.7395698 0.8838568
vt 0.6013041 0.9446937
vt 0.6013041 0.8838568
vt 0.6704369 0.9446937
vt 0.6704369 0.7124072
vt 0.6704369 0.6571009
vt 0.6013041 0.7124072
vt 0.6013041 0.6571009
vt 0.7395698 0.7124072
vt 0.7395698 0.6571009
vt 0.6013041 1
vt 0.6704369 1
vt 0.6013041 0.9446937
vt 0.6704369 0.9446937
vt 0.7395698 1
vt 0.7395698 0.9446937
vt 0.6013041 0.8285505
vt 0.6704369 0.8285505
vt 0.6013041 0.7732442
vt 0.6704369 0.7732442
vt 0.7395698 0.8285505
vt 0.7395698 0.7732442
vt 0.6704369 0.8838568
vt 0.7395698 0.8838568
vt 0.6013041 0.8838568
vt 0.5419692 0.5302442
vt 0.4866628 0.4638767
vt 0.4866628 0.5302442
vt 0.5419692 0.4638767
vt 0.5972754 0.5302442
vt 0.5972754 0.4638767
vt 0.6636431 0.5302442
vt 0.5972754 0.5302442
vt 0.6636431 0.5800199
vt 0.5972754 0.5800199
vt 0.5972754 0.6297956
vt 0.6636431 0.6297956
vt 0.5972754 0.6961632
vt 0.5972754 0.6297956
vt 0.5419692 0.6961632
vt 0.5419692 0.6297956
vt 0.4866628 0.6297956
vt 0.4866628 0.6961632
vt 0.5419692 0.4638767
vt 0.5419692 0.414101
vt 0.4866628 0.4638767
vt 0.4866628 0.414101
vt 0.5972754 0.414101
vt 0.5972754 0.4638767
vt 0.4866628 0.7459388
vt 0.5419692 0.7459388
vt 0.4866628 0.6961632
vt 0.5419692 0.6961632
vt 0.5972754 0.7459388
vt 0.5972754 0.6961632
vt 0.4866629 0.58002
vt 0.5419691 0.58002
vt 0.4866629 0.5302443
vt 0.5419691 0.5302443
vt 0.5419691 0.6297956
vt 0.5972754 0.6297956
vt 0.5972754 0.58002
vt 0.4866629 0.6297956
vt 0.5972754 0.5302443
vt 0.4358363 0.1018798
vt 0.4358363 0.1682473
vt 0.5326224 0.1018798
vt 0.5326224 0.1682473
vt 0.6294084 0.1682473
vt 0.6294084 0.1018798
vt 0.3694688 0.3922379
vt 0.4358363 0.3396969
vt 0.3694688 0.3396969
vt 0.4358363 0.3922379
vt 0.3694688 0.4447788
vt 0.4358363 0.4447788
vt 0.6294084 0.4447788
vt 0.6957759 0.4447788
vt 0.6294084 0.3922379
vt 0.6957759 0.3922378
vt 0.6957759 0.3396969
vt 0.6294084 0.3396969
vt 0.5326224 0.2733293
vt 0.6294084 0.3396969
vt 0.6294084 0.2733293
vt 0.5326224 0.3396969
vt 0.4358363 0.2733293
vt 0.4358363 0.3396969
vt 0.5326224 0.1018798
vt 0.5326224 0.04933877
vt 0.4358363 0.1018798
vt 0.4358363 0.04933884
vt 0.6294084 0.04933877
vt 0.6294084 0.1018798
vt 0.4358363 0.3922378
vt 0.5326223 0.3922378
vt 0.4358363 0.3396969
vt 0.5326223 0.3396969
vt 0.6294084 0.3922378
vt 0.6294084 0.3396969
vt 0.5326224 0.2207883
vt 0.6294084 0.2207883
vt 0.5326224 0.1682473
vt 0.6294084 0.1682473
vt 0.5326224 0.2733293
vt 0.4358363 0.2733293
vt 0.4358363 0.2207883
vt 0.6294084 0.2733293
vt 0.4358363 0.1682473
vt 0.3705263 0.7020527
vt 0.3705263 0.7656549
vt 0.4189194 0.7020527
vt 0.4189194 0.7656549
vt 0.4673123 0.7656549
vt 0.4673123 0.7020527
vt 0.31522 0.8762674
vt 0.3705263 0.9398698
vt 0.3705263 0.8762674
vt 0.31522 0.9398698
vt 0.2599137 0.8762674
vt 0.2599137 0.9398698
vt 0.5309146 0.7656549
vt 0.4673123 0.7656549
vt 0.5309146 0.8209612
vt 0.4673123 0.8209612
vt 0.4673123 0.8762674
vt 0.5309146 0.8762674
vt 0.4189194 0.8762674
vt 0.4673123 0.9398698
vt 0.4673123 0.8762674
vt 0.4189194 0.9398698
vt 0.3705263 0.8762674
vt 0.3705263 0.9398698
vt 0.4189194 0.7020527
vt 0.4189194 0.6467463
vt 0.3705263 0.7020527
vt 0.3705263 0.6467463
vt 0.4673123 0.7020526
vt 0.4673123 0.6467463
vt 0.3705263 0.9951761
vt 0.4189194 0.9951761
vt 0.3705263 0.9398698
vt 0.4189194 0.9398698
vt 0.4673123 0.9951761
vt 0.4673123 0.9398698
vt 0.4189194 0.8209612
vt 0.4189194 0.8762674
vt 0.4673123 0.8762674
vt 0.4673123 0.8209612
vt 0.4189194 0.7656549
vt 0.4673123 0.7656549
vt 0.3705263 0.8209612
vt 0.3705263 0.7656549
vt 0.3705263 0.8762674
vt 0.2753615 0.1405249
vt 0.1993154 0.07415729
vt 0.1993154 0.1405249
vt 0.2753615 0.07415729
vt 0.3514077 0.1405249
vt 0.3514077 0.07415729
vt 0.1329478 0.2428415
vt 0.1993154 0.2428415
vt 0.1329478 0.1916832
vt 0.1993154 0.1916832
vt 0.1993154 0.1405249
vt 0.1329478 0.1405249
vt 0.3514077 0.1916832
vt 0.4177753 0.1405249
vt 0.3514077 0.1405249
vt 0.4177753 0.1916832
vt 0.3514077 0.2428415
vt 0.4177753 0.2428415
vt 0.2753615 0.2428415
vt 0.3514077 0.3092091
vt 0.3514077 0.2428415
vt 0.2753615 0.3092091
vt 0.1993154 0.2428415
vt 0.1993154 0.3092091
vt 0.2753615 0.07415729
vt 0.2753615 0.02299898
vt 0.1993154 0.07415736
vt 0.1993154 0.02299898
vt 0.3514077 0.02299898
vt 0.3514077 0.07415729
vt 0.1993154 0.3603675
vt 0.2753615 0.3603675
vt 0.1993154 0.3092091
vt 0.2753615 0.3092091
vt 0.3514077 0.3603675
vt 0.3514077 0.3092091
vt 0.2753615 0.2428415
vt 0.2753615 0.1916832
vt 0.1993154 0.2428415
vt 0.1993154 0.1916832
vt 0.3514077 0.1916832
vt 0.3514077 0.2428415
vt 0.2753615 0.1405249
vt 0.3514077 0.1405249
vt 0.1993154 0.1405249
vt 0.2548322 0.4982503
vt 0.1511328 0.4291172
vt 0.1511328 0.4982503
vt 0.2548322 0.4291172
vt 0.3585315 0.4982503
vt 0.3585315 0.4291172
vt 0.1511328 0.5535565
vt 0.08199996 0.6088629
vt 0.1511328 0.6088629
vt 0.08199996 0.5535566
vt 0.1511328 0.4982503
vt 0.08199996 0.4982503
vt 0.3585315 0.5535565
vt 0.4276644 0.4982503
vt 0.3585315 0.4982503
vt 0.4276644 0.5535565
vt 0.3585315 0.6088629
vt 0.4276644 0.6088629
vt 0.2548322 0.6088629
vt 0.3585315 0.6779957
vt 0.3585315 0.6088629
vt 0.2548322 0.6779957
vt 0.1511328 0.6088629
vt 0.1511328 0.6779957
vt 0.2548322 0.4291172
vt 0.2548322 0.3738111
vt 0.1511328 0.4291172
vt 0.1511328 0.3738111
vt 0.3585315 0.4291172
vt 0.3585315 0.3738111
vt 0.1511328 0.733302
vt 0.2548322 0.733302
vt 0.1511328 0.6779957
vt 0.2548322 0.6779957
vt 0.3585315 0.733302
vt 0.3585315 0.6779957
vt 0.1511328 0.5535565
vt 0.2548322 0.5535565
vt 0.1511328 0.4982503
vt 0.2548322 0.4982503
vt 0.2548322 0.6088629
vt 0.3585315 0.6088629
vt 0.3585315 0.5535565
vt 0.1511328 0.6088629
vt 0.3585315 0.4982503
vt 0.3871112 0.6297956
vt 0.4866628 0.6961632
vt 0.4866628 0.6297956
vt 0.3871112 0.6961632

g Default_Prototype
usemtl Default_Prototype
usemap Default_Prototype
f 2/2/2 1/1/1 3/3/3
f 1/1/1 4/4/4 5/5/5
f 1/1/1 2/2/2 6/6/6
f 4/4/4 1/1/1 6/6/6
f 8/8/8 7/7/7 9/9/9
f 7/7/7 8/8/8 10/10/10
f 11/11/11 7/7/7 10/10/10
f 12/12/12 11/11/11 10/10/10
f 14/14/14 13/13/13 15/15/15
f 16/16/16 14/14/14 15/15/15
f 17/17/17 16/16/16 15/15/15
f 18/18/18 17/17/17 15/15/15
f 20/20/20 19/19/19 21/21/21
f 19/19/19 22/22/22 23/23/23
f 19/19/19 20/20/20 24/24/24
f 22/22/22 19/19/19 24/24/24
f 26/26/26 25/25/25 27/27/27
f 28/28/28 26/26/26 27/27/27
f 25/25/25 26/26/26 29/29/29
f 26/26/26 30/30/30 29/29/29
f 32/32/32 31/31/31 33/33/33
f 34/34/34 32/32/32 33/33/33
f 35/35/35 32/32/32 36/36/36
f 32/32/32 34/34/34 36/36/36
f 38/38/38 37/37/37 39/39/39
f 40/40/40 38/38/38 39/39/39
f 41/41/41 38/38/38 42/42/42
f 38/38/38 40/40/40 42/42/42
f 43/43/43 38/38/38 44/44/44
f 38/38/38 41/41/41 44/44/44
f 38/38/38 43/43/43 45/45/45
f 37/37/37 38/38/38 45/45/45
f 47/47/47 46/46/46 48/48/48
f 46/46/46 47/47/47 49/49/49
f 50/50/50 46/46/46 49/49/49
f 51/51/51 50/50/50 49/49/49
f 53/53/53 52/52/52 54/54/54
f 55/55/55 53/53/53 54/54/54
f 56/56/56 55/55/55 54/54/54
f 57/57/57 56/56/56 54/54/54
f 59/59/59 58/58/58 60/60/60
f 61/61/61 59/59/59 60/60/60
f 62/62/62 61/61/61 60/60/60
f 63/63/63 62/62/62 60/60/60
f 65/65/65 64/64/64 66/66/66
f 67/67/67 65/65/65 66/66/66
f 64/64/64 65/65/65 68/68/68
f 64/64/64 68/68/68 69/69/69
f 71/71/71 70/70/70 72/72/72
f 73/73/73 71/71/71 72/72/72
f 74/74/74 71/71/71 75/75/75
f 71/71/71 73/73/73 75/75/75
f 77/77/77 76/76/76 78/78/78
f 79/79/79 77/77/77 78/78/78
f 80/80/80 77/77/77 81/81/81
f 77/77/77 82/82/82 81/81/81
f 77/77/77 80/80/80 83/83/83
f 76/76/76 77/77/77 83/83/83
f 82/82/82 77/77/77 84/84/84
f 77/77/77 79/79/79 84/84/84
f 86/86/86 85/85/85 87/87/87
f 88/88/88 86/86/86 87/87/87
f 89/89/89 88/88/88 87/87/87
f 90/90/90 89/89/89 87/87/87
f 92/92/92 91/91/91 93/93/93
f 91/91/91 92/92/92 94/94/94
f 95/95/95 91/91/91 94/94/94
f 96/96/96 95/95/95 94/94/94
f 98/98/98 97/97/97 99/99/99
f 100/100/100 98/98/98 99/99/99
f 101/101/101 100/100/100 99/99/99
f 102/102/102 101/101/101 99/99/99
f 104/104/104 103/103/103 105/105/105
f 103/103/103 104/104/104 106/106/106
f 107/107/107 103/103/103 106/106/106
f 108/108/108 107/107/107 106/106/106
f 110/110/110 109/109/109 111/111/111
f 112/112/112 110/110/110 111/111/111
f 109/109/109 110/110/110 113/113/113
f 109/109/109 113/113/113 114/114/114
f 116/116/116 115/115/115 117/117/117
f 118/118/118 116/116/116 117/117/117
f 119/119/119 116/116/116 118/118/118
f 119/119/119 118/118/118 120/120/120
f 122/122/122 121/121/121 123/123/123
f 122/122/122 123/123/123 124/124/124
f 121/121/121 125/125/125 126/126/126
f 127/127/127 121/121/121 126/126/126
f 125/125/125 121/121/121 122/122/122
f 125/125/125 122/122/122 128/128/128
f 121/121/121 127/127/127 129/129/129
f 123/123/123 121/121/121 129/129/129
f 131/131/131 130/130/130 132/132/132
f 133/133/133 131/131/131 132/132/132
f 134/134/134 133/133/133 132/132/132
f 135/135/135 134/134/134 132/132/132
f 137/137/137 136/136/136 138/138/138
f 136/136/136 137/137/137 139/139/139
f 140/140/140 136/136/136 139/139/139
f 141/141/141 140/140/140 139/139/139
f 143/143/143 142/142/142 144/144/144
f 145/145/145 143/143/143 144/144/144
f 146/146/146 145/145/145 144/144/144
f 147/147/147 146/146/146 144/144/144
f 149/149/149 148/148/148 150/150/150
f 148/148/148 149/149/149 151/151/151
f 152/152/152 148/148/148 151/151/151
f 153/153/153 152/152/152 151/151/151
f 155/155/155 154/154/154 156/156/156
f 157/157/157 155/155/155 156/156/156
f 154/154/154 155/155/155 158/158/158
f 155/155/155 159/159/159 158/158/158
f 161/161/161 160/160/160 162/162/162
f 163/163/163 161/161/161 162/162/162
f 164/164/164 161/161/161 163/163/163
f 164/164/164 163/163/163 165/165/165
f 167/167/167 166/166/166 168/168/168
f 166/166/166 169/169/169 168/168/168
f 169/169/169 166/166/166 170/170/170
f 169/169/169 170/170/170 171/171/171
f 166/166/166 172/172/172 173/173/173
f 170/170/170 166/166/166 173/173/173
f 166/166/166 167/167/167 174/174/174
f 172/172/172 166/166/166 174/174/174
f 176/176/176 175/175/175 177/177/177
f 175/175/175 176/176/176 178/178/178
f 179/179/179 175/175/175 178/178/178
f 180/180/180 179/179/179 178/178/178
f 182/182/182 181/181/181 183/183/183
f 184/184/184 182/182/182 183/183/183
f 185/185/185 184/184/184 183/183/183
f 186/186/186 185/185/185 183/183/183
f 188/188/188 187/187/187 189/189/189
f 187/187/187 188/188/188 190/190/190
f 191/191/191 187/187/187 190/190/190
f 192/192/192 191/191/191 190/190/190
f 194/194/194 193/193/193 195/195/195
f 193/193/193 194/194/194 196/196/196
f 197/197/197 193/193/193 196/196/196
f 198/198/198 197/197/197 196/196/196
f 200/200/200 199/199/199 201/201/201
f 202/202/202 200/200/200 201/201/201
f 199/199/199 200/200/200 203/203/203
f 199/199/199 203/203/203 204/204/204
f 206/206/206 205/205/205 207/207/207
f 208/208/208 206/206/206 207/207/207
f 209/209/209 206/206/206 208/208/208
f 209/209/209 208/208/208 210/210/210
f 212/212/212 211/211/211 213/213/213
f 214/214/214 212/212/212 213/213/213
f 211/211/211 212/212/212 215/215/215
f 211/211/211 215/215/215 216/216/216
f 215/215/215 212/212/212 217/217/217
f 215/215/215 217/217/217 218/218/218
f 212/212/212 214/214/214 219/219/219
f 217/217/217 212/212/212 219/219/219
f 221/221/221 220/220/220 222/222/222
f 220/220/220 221/221/221 223/223/223
f 224/224/224 220/220/220 223/223/223
f 225/225/225 224/224/224 223/223/223
f 227/227/227 226/226/226 228/228/228
f 226/226/226 227/227/227 229/229/229
f 230/230/230 226/226/226 229/229/229
f 231/231/231 230/230/230 229/229/229
f 233/233/233 232/232/232 234/234/234
f 232/232/232 233/233/233 235/235/235
f 236/236/236 232/232/232 235/235/235
f 237/237/237 236/236/236 235/235/235
f 239/239/239 238/238/238 240/240/240
f 238/238/238 239/239/239 241/241/241
f 242/242/242 238/238/238 241/241/241
f 243/243/243 242/242/242 241/241/241
f 245/245/245 244/244/244 246/246/246
f 247/247/247 245/245/245 246/246/246
f 244/244/244 245/245/245 248/248/248
f 245/245/245 249/249/249 248/248/248
f 251/251/251 250/250/250 252/252/252
f 253/253/253 251/251/251 252/252/252
f 254/254/254 251/251/251 255/255/255
f 251/251/251 253/253/253 255/255/255
f 257/257/257 256/256/256 258/258/258
f 259/259/259 257/257/257 258/258/258
f 260/260/260 257/257/257 261/261/261
f 257/257/257 262/262/262 261/261/261
f 257/257/257 260/260/260 263/263/263
f 256/256/256 257/257/257 263/263/263
f 262/262/262 257/257/257 264/264/264
f 257/257/257 259/259/259 264/264/264
f 266/266/266 265/265/265 267/267/267
f 268/268/268 265/265/265 266/266/266
