mtllib ./wallTop3.mtl
g pb-Cylinder-587574
v -0.2 0.5 0
v 0.2 0 -1.748456E-08
v 0.2 0.5 -1.748456E-08
v -0.2 0 0
v -0.2 1 0
v 0.2 1 -1.748456E-08
v -0.2 0 0
v -0.2 0.5 0
v -0.1961571 0 0.03901806
v -0.1961571 0.5 0.03901806
v -0.2 1 0
v -0.1961571 1 0.03901806
v -0.1847759 0 0.07653669
v -0.1847759 0.5 0.07653669
v -0.1847759 1 0.07653669
v -0.1662939 0 0.111114
v -0.1662939 0.5 0.111114
v -0.1662939 1 0.111114
v -0.1414214 0 0.1414214
v -0.1414214 0.5 0.1414214
v -0.1414214 1 0.1414214
v -0.111114 0 0.1662939
v -0.111114 0.5 0.1662939
v -0.111114 1 0.1662939
v -0.07653669 0 0.1847759
v -0.07653669 0.5 0.1847759
v -0.07653669 1 0.1847759
v -0.03901807 0.5 0.1961571
v -0.03901807 1 0.1961571
v -0.03901807 0 0.1961571
v 8.742278E-09 0.5 0.2
v 8.742278E-09 1 0.2
v 8.742278E-09 0 0.2
v 8.742278E-09 0.5 0.2
v 8.742278E-09 1 0.2
v 0.03901806 0.5 0.1961571
v 0.03901806 1 0.1961571
v 8.742278E-09 0 0.2
v 0.03901806 0 0.1961571
v 0.07653668 0.5 0.1847759
v 0.07653668 1 0.1847759
v 0.07653668 0 0.1847759
v 0.111114 0.5 0.1662939
v 0.111114 1 0.1662939
v 0.111114 0 0.1662939
v 0.1414214 0.5 0.1414214
v 0.1414214 1 0.1414214
v 0.1414214 0 0.1414214
v 0.1662939 0.5 0.111114
v 0.1662939 1 0.111114
v 0.1662939 0 0.111114
v 0.1847759 0.5 0.0765367
v 0.1847759 1 0.0765367
v 0.1847759 0 0.0765367
v 0.1961571 0.5 0.03901806
v 0.1961571 1 0.03901806
v 0.1961571 0 0.03901806
v 0.2 0.5 -1.748456E-08
v 0.2 1 -1.748456E-08
v 0.2 0 -1.748456E-08

vn -4.371139E-08 0 -1
vn -4.371139E-08 0 -1
vn -4.371139E-08 0 -1
vn -4.371139E-08 0 -1
vn -4.371139E-08 0 -1
vn -4.371139E-08 0 -1
vn -0.9951847 0 0.09801729
vn -0.9951847 0 0.09801729
vn -0.9807853 0 0.1950904
vn -0.9807853 0 0.1950904
vn -0.9951847 0 0.09801729
vn -0.9807853 0 0.1950904
vn -0.9238795 0 0.3826835
vn -0.9238795 0 0.3826835
vn -0.9238795 0 0.3826835
vn -0.8314697 0 0.5555702
vn -0.8314697 0 0.5555702
vn -0.8314697 0 0.5555702
vn -0.7071068 0 0.7071068
vn -0.7071068 0 0.7071068
vn -0.7071068 0 0.7071068
vn -0.5555701 0 0.8314697
vn -0.5555701 0 0.8314697
vn -0.5555701 0 0.8314697
vn -0.3826835 0 0.9238795
vn -0.3826835 0 0.9238795
vn -0.3826835 0 0.9238795
vn -0.1950904 0 0.9807853
vn -0.1950904 0 0.9807853
vn -0.1950904 0 0.9807853
vn 2.994652E-08 0 1
vn 2.994652E-08 0 1
vn 2.994652E-08 0 1
vn 2.994652E-08 0 1
vn 2.994652E-08 0 1
vn 0.1950902 0 0.9807853
vn 0.1950902 0 0.9807853
vn 2.994652E-08 0 1
vn 0.1950902 0 0.9807853
vn 0.3826833 0 0.9238796
vn 0.3826833 0 0.9238796
vn 0.3826833 0 0.9238796
vn 0.5555702 0 0.8314697
vn 0.5555702 0 0.8314697
vn 0.5555702 0 0.8314697
vn 0.7071068 0 0.7071068
vn 0.7071068 0 0.7071068
vn 0.7071068 0 0.7071068
vn 0.8314697 0 0.5555702
vn 0.8314697 0 0.5555701
vn 0.8314697 0 0.5555701
vn 0.9238795 0 0.3826835
vn 0.9238795 0 0.3826835
vn 0.9238795 0 0.3826835
vn 0.9807853 0 0.1950903
vn 0.9807853 0 0.1950903
vn 0.9807853 0 0.1950903
vn 0.9951848 0 0.09801688
vn 0.9951848 0 0.09801688
vn 0.9951848 0 0.09801688

vt 0.7136549 0.5
vt 0.3136549 0
vt 0.3136549 0.5
vt 0.7136549 0
vt 0.7136549 1
vt 0.3136549 1
vt 0.7136549 0
vt 0.7136549 0.5
vt 0.7528617 0
vt 0.7528617 0.5
vt 0.7136549 1
vt 0.7528617 1
vt 0.7920685 0
vt 0.7920685 0.5
vt 0.7920685 1
vt 0.8312754 0
vt 0.8312754 0.5
vt 0.8312754 1
vt 0.8704823 0
vt 0.8704823 0.5
vt 0.8704823 1
vt 0.9096891 0
vt 0.9096891 0.5
vt 0.9096891 1
vt 0.948896 0
vt 0.948896 0.5
vt 0.948896 1
vt 0.9881029 0.5
vt 0.9881029 1
vt 0.9881029 0
vt 1.02731 0.5
vt 1.02731 1
vt 1.02731 0
vt 0 0.5
vt 0 1
vt 0.03920685 0.5
vt 0.03920685 1
vt 0 0
vt 0.03920685 0
vt 0.0784137 0.5
vt 0.0784137 1
vt 0.0784137 0
vt 0.1176206 0.5
vt 0.1176206 1
vt 0.1176206 0
vt 0.1568274 0.5
vt 0.1568274 1
vt 0.1568274 0
vt 0.1960343 0.5
vt 0.1960343 1
vt 0.1960343 0
vt 0.2352411 0.5
vt 0.2352411 1
vt 0.2352411 0
vt 0.274448 0.5
vt 0.274448 1
vt 0.274448 0
vt 0.3136549 0.5
vt 0.3136549 1
vt 0.3136549 0

g Default_Prototype
usemtl Default_Prototype
usemap Default_Prototype
f 2/2/2 1/1/1 3/3/3
f 4/4/4 1/1/1 2/2/2
f 5/5/5 3/3/3 1/1/1
f 6/6/6 3/3/3 5/5/5
f 8/8/8 7/7/7 9/9/9
f 10/10/10 8/8/8 9/9/9
f 11/11/11 8/8/8 10/10/10
f 12/12/12 11/11/11 10/10/10
f 10/10/10 9/9/9 13/13/13
f 14/14/14 10/10/10 13/13/13
f 12/12/12 10/10/10 14/14/14
f 15/15/15 12/12/12 14/14/14
f 14/14/14 13/13/13 16/16/16
f 17/17/17 14/14/14 16/16/16
f 15/15/15 14/14/14 17/17/17
f 18/18/18 15/15/15 17/17/17
f 17/17/17 16/16/16 19/19/19
f 20/20/20 17/17/17 19/19/19
f 18/18/18 17/17/17 20/20/20
f 21/21/21 18/18/18 20/20/20
f 20/20/20 19/19/19 22/22/22
f 23/23/23 20/20/20 22/22/22
f 21/21/21 20/20/20 23/23/23
f 24/24/24 21/21/21 23/23/23
f 23/23/23 22/22/22 25/25/25
f 26/26/26 23/23/23 25/25/25
f 24/24/24 23/23/23 26/26/26
f 27/27/27 24/24/24 26/26/26
f 27/27/27 26/26/26 28/28/28
f 29/29/29 27/27/27 28/28/28
f 26/26/26 25/25/25 30/30/30
f 28/28/28 26/26/26 30/30/30
f 29/29/29 28/28/28 31/31/31
f 32/32/32 29/29/29 31/31/31
f 28/28/28 30/30/30 33/33/33
f 31/31/31 28/28/28 33/33/33
f 35/35/35 34/34/34 36/36/36
f 37/37/37 35/35/35 36/36/36
f 34/34/34 38/38/38 39/39/39
f 36/36/36 34/34/34 39/39/39
f 37/37/37 36/36/36 40/40/40
f 41/41/41 37/37/37 40/40/40
f 36/36/36 39/39/39 42/42/42
f 40/40/40 36/36/36 42/42/42
f 41/41/41 40/40/40 43/43/43
f 44/44/44 41/41/41 43/43/43
f 40/40/40 42/42/42 45/45/45
f 43/43/43 40/40/40 45/45/45
f 44/44/44 43/43/43 46/46/46
f 47/47/47 44/44/44 46/46/46
f 43/43/43 45/45/45 48/48/48
f 46/46/46 43/43/43 48/48/48
f 47/47/47 46/46/46 49/49/49
f 50/50/50 47/47/47 49/49/49
f 46/46/46 48/48/48 51/51/51
f 49/49/49 46/46/46 51/51/51
f 50/50/50 49/49/49 52/52/52
f 53/53/53 50/50/50 52/52/52
f 49/49/49 51/51/51 54/54/54
f 52/52/52 49/49/49 54/54/54
f 53/53/53 52/52/52 55/55/55
f 56/56/56 53/53/53 55/55/55
f 52/52/52 54/54/54 57/57/57
f 55/55/55 52/52/52 57/57/57
f 56/56/56 55/55/55 58/58/58
f 59/59/59 56/56/56 58/58/58
f 55/55/55 57/57/57 60/60/60
f 58/58/58 55/55/55 60/60/60
