mtllib ./WallThinTop2_25.mtl
g pb-MergedObject-1325762
v 0.8565722 0.229331 -0.1647495
v 1.106572 0.00933075 -0.1647495
v 1.106572 0.229331 -0.1647495
v 0.6065722 0.00933075 -0.1647495
v 0.6065722 0.229331 -0.1647495
v 0.8565722 0.00933075 -0.1647495
v 1.106572 0.229331 0.03525043
v 1.106572 0.00933075 0.2352505
v 1.106572 0.229331 0.2352505
v 1.106572 0.00933075 0.03525043
v 1.106572 0.229331 -0.1647495
v 1.106572 0.00933075 -0.1647495
v 0.6065722 0.00933075 -0.1647495
v 0.6065722 0.229331 -0.1647495
v 0.6065722 0.00933075 0.03525043
v 0.6065722 0.229331 0.03525043
v 0.6065722 0.229331 0.2352505
v 0.6065722 0.00933075 0.2352505
v 0.8565722 0.229331 0.2352505
v 0.6065722 0.00933075 0.2352505
v 0.6065722 0.229331 0.2352505
v 1.106572 0.00933075 0.2352505
v 1.106572 0.229331 0.2352505
v 0.8565722 0.00933075 0.2352505
v 0.8565722 0.00933075 -0.1647495
v 0.8565722 0.00933075 0.03525043
v 1.106572 0.00933075 -0.1647495
v 1.106572 0.00933075 0.03525043
v 0.6065722 0.00933075 -0.1647495
v 0.6065722 0.00933075 0.03525043
v 1.106572 0.00933075 0.03525043
v 0.8565722 0.00933075 0.03525043
v 1.106572 0.00933075 0.2352505
v 0.8565722 0.00933075 0.2352505
v 0.6065722 0.00933075 0.03525043
v 0.6065722 0.00933075 0.2352505
v 1.106572 0.229331 0.03525043
v 0.8565722 0.229331 0.03525043
v 1.106572 0.229331 -0.1647495
v 0.8565722 0.229331 -0.1647495
v 0.6065722 0.229331 0.03525043
v 0.6065722 0.229331 -0.1647495
v 0.8565722 0.229331 0.2352505
v 0.6065722 0.229331 0.2352505
v 1.106572 0.229331 0.2352505
v -0.3008485 -0.01266956 -0.1537495
v -0.3008485 0.2273302 -0.1537495
v -0.6434281 -0.01266956 -0.1537495
v -0.6434281 0.2273302 -0.1537495
v -0.993428 0.2273302 -0.1537495
v -0.993428 -0.01266956 -0.1537495
v -0.3008485 0.2273302 0.03625047
v -0.3008485 -0.01266956 0.2262505
v -0.3008485 0.2273302 0.2262505
v -0.3008485 -0.01266956 0.03625047
v -0.3008485 0.2273302 -0.1537495
v -0.3008485 -0.01266956 -0.1537495
v -0.993428 -0.01266956 -0.1537495
v -0.993428 0.2273302 -0.1537495
v -0.993428 -0.01266956 0.03625047
v -0.993428 0.2273302 0.03625047
v -0.993428 0.2273302 0.2262505
v -0.993428 -0.01266956 0.2262505
v -0.6434281 0.2273302 0.2262505
v -0.993428 -0.01266956 0.2262505
v -0.993428 0.2273302 0.2262505
v -0.6434281 -0.01266956 0.2262505
v -0.3008485 0.2273302 0.2262505
v -0.3008485 -0.01266956 0.2262505
v -0.6434281 -0.01266956 -0.1537495
v -0.6434281 -0.01266956 0.03625047
v -0.3008485 -0.01266956 -0.1537495
v -0.3008485 -0.01266956 0.03625047
v -0.993428 -0.01266956 0.03625047
v -0.993428 -0.01266956 -0.1537495
v -0.3008485 -0.01266956 0.03625047
v -0.6434281 -0.01266956 0.03625047
v -0.3008485 -0.01266956 0.2262505
v -0.6434281 -0.01266956 0.2262505
v -0.993428 -0.01266956 0.03625047
v -0.993428 -0.01266956 0.2262505
v -0.6434281 0.2273302 0.03625047
v -0.993428 0.2273302 0.03625047
v -0.6434281 0.2273302 -0.1537495
v -0.993428 0.2273302 -0.1537495
v -0.6434281 0.2273302 0.2262505
v -0.3008485 0.2273302 0.2262505
v -0.3008485 0.2273302 0.03625047
v -0.993428 0.2273302 0.2262505
v -0.3008485 0.2273302 -0.1537495
v 0.0565722 0.003330231 -0.1657494
v 0.0565722 0.2333298 -0.1657494
v -0.1184278 0.003330231 -0.1657494
v -0.1184278 0.2333298 -0.1657494
v -0.2934277 0.2333298 -0.1657494
v -0.2934277 0.003330231 -0.1657494
v 0.0565722 0.2333298 0.0342505
v 0.0565722 0.003330231 0.2342505
v 0.0565722 0.2333298 0.2342505
v 0.0565722 0.003330231 0.0342505
v 0.0565722 0.2333298 -0.1657494
v 0.0565722 0.003330231 -0.1657494
v -0.2934277 0.003330231 -0.1657494
v -0.2934277 0.2333298 -0.1657494
v -0.2934277 0.003330231 0.0342505
v -0.2934277 0.2333298 0.0342505
v -0.2934277 0.2333298 0.2342505
v -0.2934277 0.003330231 0.2342505
v -0.1184278 0.2333298 0.2342505
v -0.2934277 0.003330231 0.2342505
v -0.2934277 0.2333298 0.2342505
v -0.1184278 0.003330231 0.2342505
v 0.0565722 0.2333298 0.2342505
v 0.0565722 0.003330231 0.2342505
v -0.1184278 0.003330231 -0.1657494
v -0.1184278 0.003330231 0.0342505
v 0.0565722 0.003330231 -0.1657494
v 0.0565722 0.003330231 0.0342505
v -0.2934277 0.003330231 -0.1657494
v -0.2934277 0.003330231 0.0342505
v 0.0565722 0.003330231 0.0342505
v -0.1184278 0.003330231 0.0342505
v 0.0565722 0.003330231 0.2342505
v -0.1184278 0.003330231 0.2342505
v -0.2934277 0.003330231 0.0342505
v -0.2934277 0.003330231 0.2342505
v -0.1184278 0.2333298 0.0342505
v -0.1184278 0.2333298 0.2342505
v -0.2934277 0.2333298 0.2342505
v -0.2934277 0.2333298 0.0342505
v -0.1184278 0.2333298 -0.1657494
v -0.2934277 0.2333298 -0.1657494
v 0.0565722 0.2333298 0.0342505
v 0.0565722 0.2333298 -0.1657494
v 0.0565722 0.2333298 0.2342505
v 0.3315721 0.2383299 -0.1537495
v 0.6065722 -0.001669884 -0.1537495
v 0.6065722 0.2383299 -0.1537495
v 0.3315721 -0.001669884 -0.1537495
v 0.0565722 0.2383299 -0.1537495
v 0.0565722 -0.001669884 -0.1537495
v 0.6065722 -0.001669884 0.2162505
v 0.6065722 0.2383299 0.2162505
v 0.6065722 -0.001669884 0.0312506
v 0.6065722 0.2383299 0.0312506
v 0.6065722 0.2383299 -0.1537495
v 0.6065722 -0.001669884 -0.1537495
v 0.0565722 0.2383299 0.0312506
v 0.0565722 -0.001669884 -0.1537495
v 0.0565722 0.2383299 -0.1537495
v 0.0565722 -0.001669884 0.0312506
v 0.0565722 0.2383299 0.2162505
v 0.0565722 -0.001669884 0.2162505
v 0.3315721 0.2383299 0.2162505
v 0.0565722 -0.001669884 0.2162505
v 0.0565722 0.2383299 0.2162505
v 0.3315721 -0.001669884 0.2162505
v 0.6065722 0.2383299 0.2162505
v 0.6065722 -0.001669884 0.2162505
v 0.3315721 -0.001669884 -0.1537495
v 0.3315721 -0.001669884 0.0312506
v 0.6065722 -0.001669884 -0.1537495
v 0.6065722 -0.001669884 0.0312506
v 0.0565722 -0.001669884 0.0312506
v 0.0565722 -0.001669884 -0.1537495
v 0.6065722 -0.001669884 0.0312506
v 0.3315721 -0.001669884 0.0312506
v 0.6065722 -0.001669884 0.2162505
v 0.3315721 -0.001669884 0.2162505
v 0.0565722 -0.001669884 0.0312506
v 0.0565722 -0.001669884 0.2162505
v 0.3315721 0.2383299 0.2162505
v 0.3315721 0.2383299 0.0312506
v 0.6065722 0.2383299 0.2162505
v 0.6065722 0.2383299 0.0312506
v 0.0565722 0.2383299 0.0312506
v 0.0565722 0.2383299 0.2162505
v 0.3315721 0.2383299 -0.1537495
v 0.0565722 0.2383299 -0.1537495
v 0.6065722 0.2383299 -0.1537495
v -1.368428 0.2423306 -0.1697495
v -0.993428 -0.007669449 -0.1697495
v -0.993428 0.2423306 -0.1697495
v -1.368428 -0.007669449 -0.1697495
v -1.393728 0.2423306 -0.1697495
v -1.393728 -0.007669449 -0.1697495
v -0.993428 0.2423306 0.03025043
v -0.993428 -0.007669449 0.2302505
v -0.993428 0.2423306 0.2302505
v -0.993428 -0.007669449 0.03025043
v -0.993428 0.2423306 -0.1697495
v -0.993428 -0.007669449 -0.1697495
v -1.393728 0.2423306 0.03025043
v -1.393728 -0.007669449 -0.1697495
v -1.393728 0.2423306 -0.1697495
v -1.393728 -0.007669449 0.03025043
v -1.393728 0.2423306 0.2302505
v -1.393728 -0.007669449 0.2302505
v -1.368428 0.2423306 0.2302505
v -1.393728 -0.007669449 0.2302505
v -1.393728 0.2423306 0.2302505
v -1.368428 -0.007669449 0.2302505
v -0.993428 0.2423306 0.2302505
v -0.993428 -0.007669449 0.2302505
v -1.368428 -0.007669449 -0.1697495
v -1.368428 -0.007669449 0.03025043
v -0.993428 -0.007669449 -0.1697495
v -0.993428 -0.007669449 0.03025043
v -1.393728 -0.007669449 -0.1697495
v -1.393728 -0.007669449 0.03025043
v -0.993428 -0.007669449 0.03025043
v -1.368428 -0.007669449 0.03025043
v -0.993428 -0.007669449 0.2302505
v -1.368428 -0.007669449 0.2302505
v -1.393728 -0.007669449 0.03025043
v -1.393728 -0.007669449 0.2302505
v -0.993428 0.2423306 0.03025043
v -1.368428 0.2423306 0.03025043
v -0.993428 0.2423306 -0.1697495
v -1.368428 0.2423306 -0.1697495
v -1.368428 0.2423306 0.2302505
v -1.393728 0.2423306 0.2302505
v -1.393728 0.2423306 0.03025043
v -0.993428 0.2423306 0.2302505
v -1.393728 0.2423306 -0.1697495

vn 0 0 -1
vn 0 0 -1
vn 0 0 -1
vn 0 0 -1
vn 0 0 -1
vn 0 0 -1
vn 1 0 0
vn 1 0 0
vn 1 0 0
vn 1 0 0
vn 1 0 0
vn 1 0 0
vn -1 0 0
vn -1 0 0
vn -1 0 0
vn -1 0 0
vn -1 0 0
vn -1 0 0
vn 0 0 1
vn 0 0 1
vn 0 0 1
vn 0 0 1
vn 0 0 1
vn 0 0 1
vn 0 -1 0
vn 0 -1 0
vn 0 -1 0
vn 0 -1 0
vn 0 -1 0
vn 0 -1 0
vn 0 -1 0
vn 0 -1 0
vn 0 -1 0
vn 0 -1 0
vn 0 -1 0
vn 0 -1 0
vn 0 1 0
vn 0 1 0
vn 0 1 0
vn 0 1 0
vn 0 1 0
vn 0 1 0
vn 0 1 0
vn 0 1 0
vn 0 1 0
vn 0 0 -1
vn 0 0 -1
vn 0 0 -1
vn 0 0 -1
vn 0 0 -1
vn 0 0 -1
vn 1 0 0
vn 1 0 0
vn 1 0 0
vn 1 0 0
vn 1 0 0
vn 1 0 0
vn -1 0 0
vn -1 0 0
vn -1 0 0
vn -1 0 0
vn -1 0 0
vn -1 0 0
vn 0 0 1
vn 0 0 1
vn 0 0 1
vn 0 0 1
vn 0 0 1
vn 0 0 1
vn 0 -1 0
vn 0 -0.9999999 0
vn 0 -1 0
vn 0 -1 0
vn 0 -1 0
vn 0 -1 0
vn 0 -1 0
vn 0 -1 0
vn 0 -1 0
vn 0 -1 0
vn 0 -1 0
vn 0 -1 0
vn 0 0.9999999 0
vn 0 1 0
vn 0 1 0
vn 0 1 0
vn 0 1 0
vn 0 1 0
vn 0 1 0
vn 0 1 0
vn 0 1 0
vn 0 0 -1
vn 0 0 -1
vn 0 0 -1
vn 0 0 -1
vn 0 0 -1
vn 0 0 -1
vn 1 0 0
vn 1 0 0
vn 1 0 0
vn 1 0 0
vn 1 0 0
vn 1 0 0
vn -1 0 0
vn -1 0 0
vn -1 0 0
vn -1 0 0
vn -1 0 0
vn -1 0 0
vn 0 0 1
vn 0 0 1
vn 0 0 1
vn 0 0 1
vn 0 0 1
vn 0 0 1
vn 0 -1 0
vn 0 -1 0
vn 0 -1 0
vn 0 -1 0
vn 0 -1 0
vn 0 -1 0
vn 0 -1 0
vn 0 -1 0
vn 0 -1 0
vn 0 -1 0
vn 0 -1 0
vn 0 -1 0
vn 0 1 0
vn 0 1 0
vn 0 1 0
vn 0 1 0
vn 0 1 0
vn 0 1 0
vn 0 1 0
vn 0 1 0
vn 0 1 0
vn 0 0 -1
vn 0 0 -1
vn 0 0 -1
vn 0 0 -1
vn 0 0 -1
vn 0 0 -1
vn 0.9999999 0 0
vn 0.9999999 0 0
vn 0.9999999 0 0
vn 0.9999999 0 0
vn 0.9999999 0 0
vn 0.9999999 0 0
vn -1 0 0
vn -0.9999999 0 0
vn -0.9999999 0 0
vn -1 0 0
vn -0.9999999 0 0
vn -0.9999999 0 0
vn 0 0 1
vn 0 0 1
vn 0 0 1
vn 0 0 1
vn 0 0 1
vn 0 0 1
vn 0 -1 0
vn 0 -1 0
vn 0 -0.9999999 0
vn 0 -0.9999999 0
vn 0 -0.9999999 0
vn 0 -0.9999999 0
vn 0 -1 0
vn 0 -1 0
vn 0 -1 0
vn 0 -1 0
vn 0 -1 0
vn 0 -1 0
vn 0 1 0
vn 0 1 0
vn 0 1 0
vn 0 1 0
vn 0 0.9999999 0
vn 0 1 0
vn 0 1 0
vn 0 0.9999999 0
vn 0 0.9999999 0
vn 0 0 -1
vn 0 0 -1
vn 0 0 -1
vn 0 0 -0.9999999
vn 0 0 -1
vn 0 0 -1
vn 1 0 0
vn 1 0 0
vn 1 0 0
vn 1 0 0
vn 1 0 0
vn 1 0 0
vn -1 0 0
vn -1 0 0
vn -1 0 0
vn -1 0 0
vn -1 0 0
vn -1 0 0
vn 0 0 0.9999999
vn 0 0 1
vn 0 0 1
vn 0 0 1
vn 0 0 1
vn 0 0 1
vn 0 -1 0
vn 0 -1 0
vn 0 -1 0
vn 0 -1 0
vn 0 -1 0
vn 0 -1 0
vn 0 -1 0
vn 0 -1 0
vn 0 -1 0
vn 0 -1 0
vn 0 -1 0
vn 0 -1 0
vn 0 1 0
vn 0 1 0
vn 0 1 0
vn 0 1 0
vn 0 1 0
vn 0 1 0
vn 0 1 0
vn 0 1 0
vn 0 1 0

vt 0.6704369 0.7732442
vt 0.6013041 0.7124072
vt 0.6013041 0.7732442
vt 0.7395698 0.7124072
vt 0.7395698 0.7732442
vt 0.6704369 0.7124072
vt 0.5459977 0.8838568
vt 0.6013041 0.9446937
vt 0.6013041 0.8838568
vt 0.5459977 0.9446937
vt 0.4906914 0.8838568
vt 0.4906914 0.9446937
vt 0.8004068 0.7732442
vt 0.7395698 0.7732442
vt 0.8004068 0.8285505
vt 0.7395698 0.8285505
vt 0.7395698 0.8838568
vt 0.8004068 0.8838568
vt 0.6704369 0.8838568
vt 0.7395698 0.9446937
vt 0.7395698 0.8838568
vt 0.6013041 0.9446937
vt 0.6013041 0.8838568
vt 0.6704369 0.9446937
vt 0.6704369 0.7124072
vt 0.6704369 0.6571009
vt 0.6013041 0.7124072
vt 0.6013041 0.6571009
vt 0.7395698 0.7124072
vt 0.7395698 0.6571009
vt 0.6013041 1
vt 0.6704369 1
vt 0.6013041 0.9446937
vt 0.6704369 0.9446937
vt 0.7395698 1
vt 0.7395698 0.9446937
vt 0.6013041 0.8285505
vt 0.6704369 0.8285505
vt 0.6013041 0.7732442
vt 0.6704369 0.7732442
vt 0.7395698 0.8285505
vt 0.7395698 0.7732442
vt 0.6704369 0.8838568
vt 0.7395698 0.8838568
vt 0.6013041 0.8838568
vt 0.4358363 0.1018798
vt 0.4358363 0.1682473
vt 0.5326224 0.1018798
vt 0.5326224 0.1682473
vt 0.6294084 0.1682473
vt 0.6294084 0.1018798
vt 0.3694688 0.3922379
vt 0.4358363 0.3396969
vt 0.3694688 0.3396969
vt 0.4358363 0.3922379
vt 0.3694688 0.4447788
vt 0.4358363 0.4447788
vt 0.6294084 0.4447788
vt 0.6957759 0.4447788
vt 0.6294084 0.3922379
vt 0.6957759 0.3922378
vt 0.6957759 0.3396969
vt 0.6294084 0.3396969
vt 0.5326224 0.2733293
vt 0.6294084 0.3396969
vt 0.6294084 0.2733293
vt 0.5326224 0.3396969
vt 0.4358363 0.2733293
vt 0.4358363 0.3396969
vt 0.5326224 0.1018798
vt 0.5326224 0.04933877
vt 0.4358363 0.1018798
vt 0.4358363 0.04933884
vt 0.6294084 0.04933877
vt 0.6294084 0.1018798
vt 0.4358363 0.3922378
vt 0.5326223 0.3922378
vt 0.4358363 0.3396969
vt 0.5326223 0.3396969
vt 0.6294084 0.3922378
vt 0.6294084 0.3396969
vt 0.5326224 0.2207883
vt 0.6294084 0.2207883
vt 0.5326224 0.1682473
vt 0.6294084 0.1682473
vt 0.5326224 0.2733293
vt 0.4358363 0.2733293
vt 0.4358363 0.2207883
vt 0.6294084 0.2733293
vt 0.4358363 0.1682473
vt 0.3705263 0.7020527
vt 0.3705263 0.7656549
vt 0.4189194 0.7020527
vt 0.4189194 0.7656549
vt 0.4673123 0.7656549
vt 0.4673123 0.7020527
vt 0.31522 0.8762674
vt 0.3705263 0.9398698
vt 0.3705263 0.8762674
vt 0.31522 0.9398698
vt 0.2599137 0.8762674
vt 0.2599137 0.9398698
vt 0.5309146 0.7656549
vt 0.4673123 0.7656549
vt 0.5309146 0.8209612
vt 0.4673123 0.8209612
vt 0.4673123 0.8762674
vt 0.5309146 0.8762674
vt 0.4189194 0.8762674
vt 0.4673123 0.9398698
vt 0.4673123 0.8762674
vt 0.4189194 0.9398698
vt 0.3705263 0.8762674
vt 0.3705263 0.9398698
vt 0.4189194 0.7020527
vt 0.4189194 0.6467463
vt 0.3705263 0.7020527
vt 0.3705263 0.6467463
vt 0.4673123 0.7020526
vt 0.4673123 0.6467463
vt 0.3705263 0.9951761
vt 0.4189194 0.9951761
vt 0.3705263 0.9398698
vt 0.4189194 0.9398698
vt 0.4673123 0.9951761
vt 0.4673123 0.9398698
vt 0.4189194 0.8209612
vt 0.4189194 0.8762674
vt 0.4673123 0.8762674
vt 0.4673123 0.8209612
vt 0.4189194 0.7656549
vt 0.4673123 0.7656549
vt 0.3705263 0.8209612
vt 0.3705263 0.7656549
vt 0.3705263 0.8762674
vt 0.2753615 0.1405249
vt 0.1993154 0.07415729
vt 0.1993154 0.1405249
vt 0.2753615 0.07415729
vt 0.3514077 0.1405249
vt 0.3514077 0.07415729
vt 0.1329478 0.2428415
vt 0.1993154 0.2428415
vt 0.1329478 0.1916832
vt 0.1993154 0.1916832
vt 0.1993154 0.1405249
vt 0.1329478 0.1405249
vt 0.3514077 0.1916832
vt 0.4177753 0.1405249
vt 0.3514077 0.1405249
vt 0.4177753 0.1916832
vt 0.3514077 0.2428415
vt 0.4177753 0.2428415
vt 0.2753615 0.2428415
vt 0.3514077 0.3092091
vt 0.3514077 0.2428415
vt 0.2753615 0.3092091
vt 0.1993154 0.2428415
vt 0.1993154 0.3092091
vt 0.2753615 0.07415729
vt 0.2753615 0.02299898
vt 0.1993154 0.07415736
vt 0.1993154 0.02299898
vt 0.3514077 0.02299898
vt 0.3514077 0.07415729
vt 0.1993154 0.3603675
vt 0.2753615 0.3603675
vt 0.1993154 0.3092091
vt 0.2753615 0.3092091
vt 0.3514077 0.3603675
vt 0.3514077 0.3092091
vt 0.2753615 0.2428415
vt 0.2753615 0.1916832
vt 0.1993154 0.2428415
vt 0.1993154 0.1916832
vt 0.3514077 0.1916832
vt 0.3514077 0.2428415
vt 0.2753615 0.1405249
vt 0.3514077 0.1405249
vt 0.1993154 0.1405249
vt 0.2548322 0.4982503
vt 0.1511328 0.4291172
vt 0.1511328 0.4982503
vt 0.2548322 0.4291172
vt 0.3585315 0.4982503
vt 0.3585315 0.4291172
vt 0.1511328 0.5535565
vt 0.08199996 0.6088629
vt 0.1511328 0.6088629
vt 0.08199996 0.5535566
vt 0.1511328 0.4982503
vt 0.08199996 0.4982503
vt 0.3585315 0.5535565
vt 0.4276644 0.4982503
vt 0.3585315 0.4982503
vt 0.4276644 0.5535565
vt 0.3585315 0.6088629
vt 0.4276644 0.6088629
vt 0.2548322 0.6088629
vt 0.3585315 0.6779957
vt 0.3585315 0.6088629
vt 0.2548322 0.6779957
vt 0.1511328 0.6088629
vt 0.1511328 0.6779957
vt 0.2548322 0.4291172
vt 0.2548322 0.3738111
vt 0.1511328 0.4291172
vt 0.1511328 0.3738111
vt 0.3585315 0.4291172
vt 0.3585315 0.3738111
vt 0.1511328 0.733302
vt 0.2548322 0.733302
vt 0.1511328 0.6779957
vt 0.2548322 0.6779957
vt 0.3585315 0.733302
vt 0.3585315 0.6779957
vt 0.1511328 0.5535565
vt 0.2548322 0.5535565
vt 0.1511328 0.4982503
vt 0.2548322 0.4982503
vt 0.2548322 0.6088629
vt 0.3585315 0.6088629
vt 0.3585315 0.5535565
vt 0.1511328 0.6088629
vt 0.3585315 0.4982503

g Default_Prototype
usemtl Default_Prototype
usemap Default_Prototype
f 2/2/2 1/1/1 3/3/3
f 1/1/1 4/4/4 5/5/5
f 1/1/1 2/2/2 6/6/6
f 4/4/4 1/1/1 6/6/6
f 8/8/8 7/7/7 9/9/9
f 7/7/7 8/8/8 10/10/10
f 11/11/11 7/7/7 10/10/10
f 12/12/12 11/11/11 10/10/10
f 14/14/14 13/13/13 15/15/15
f 16/16/16 14/14/14 15/15/15
f 17/17/17 16/16/16 15/15/15
f 18/18/18 17/17/17 15/15/15
f 20/20/20 19/19/19 21/21/21
f 19/19/19 22/22/22 23/23/23
f 19/19/19 20/20/20 24/24/24
f 22/22/22 19/19/19 24/24/24
f 26/26/26 25/25/25 27/27/27
f 28/28/28 26/26/26 27/27/27
f 25/25/25 26/26/26 29/29/29
f 26/26/26 30/30/30 29/29/29
f 32/32/32 31/31/31 33/33/33
f 34/34/34 32/32/32 33/33/33
f 35/35/35 32/32/32 36/36/36
f 32/32/32 34/34/34 36/36/36
f 38/38/38 37/37/37 39/39/39
f 40/40/40 38/38/38 39/39/39
f 41/41/41 38/38/38 42/42/42
f 38/38/38 40/40/40 42/42/42
f 43/43/43 38/38/38 44/44/44
f 38/38/38 41/41/41 44/44/44
f 38/38/38 43/43/43 45/45/45
f 37/37/37 38/38/38 45/45/45
f 47/47/47 46/46/46 48/48/48
f 49/49/49 47/47/47 48/48/48
f 50/50/50 49/49/49 48/48/48
f 51/51/51 50/50/50 48/48/48
f 53/53/53 52/52/52 54/54/54
f 52/52/52 53/53/53 55/55/55
f 56/56/56 52/52/52 55/55/55
f 57/57/57 56/56/56 55/55/55
f 59/59/59 58/58/58 60/60/60
f 61/61/61 59/59/59 60/60/60
f 62/62/62 61/61/61 60/60/60
f 63/63/63 62/62/62 60/60/60
f 65/65/65 64/64/64 66/66/66
f 64/64/64 65/65/65 67/67/67
f 68/68/68 64/64/64 67/67/67
f 69/69/69 68/68/68 67/67/67
f 71/71/71 70/70/70 72/72/72
f 73/73/73 71/71/71 72/72/72
f 70/70/70 71/71/71 74/74/74
f 70/70/70 74/74/74 75/75/75
f 77/77/77 76/76/76 78/78/78
f 79/79/79 77/77/77 78/78/78
f 80/80/80 77/77/77 79/79/79
f 80/80/80 79/79/79 81/81/81
f 83/83/83 82/82/82 84/84/84
f 83/83/83 84/84/84 85/85/85
f 82/82/82 86/86/86 87/87/87
f 88/88/88 82/82/82 87/87/87
f 86/86/86 82/82/82 83/83/83
f 86/86/86 83/83/83 89/89/89
f 82/82/82 88/88/88 90/90/90
f 84/84/84 82/82/82 90/90/90
f 92/92/92 91/91/91 93/93/93
f 94/94/94 92/92/92 93/93/93
f 95/95/95 94/94/94 93/93/93
f 96/96/96 95/95/95 93/93/93
f 98/98/98 97/97/97 99/99/99
f 97/97/97 98/98/98 100/100/100
f 101/101/101 97/97/97 100/100/100
f 102/102/102 101/101/101 100/100/100
f 104/104/104 103/103/103 105/105/105
f 106/106/106 104/104/104 105/105/105
f 107/107/107 106/106/106 105/105/105
f 108/108/108 107/107/107 105/105/105
f 110/110/110 109/109/109 111/111/111
f 109/109/109 110/110/110 112/112/112
f 113/113/113 109/109/109 112/112/112
f 114/114/114 113/113/113 112/112/112
f 116/116/116 115/115/115 117/117/117
f 118/118/118 116/116/116 117/117/117
f 115/115/115 116/116/116 119/119/119
f 116/116/116 120/120/120 119/119/119
f 122/122/122 121/121/121 123/123/123
f 124/124/124 122/122/122 123/123/123
f 125/125/125 122/122/122 124/124/124
f 125/125/125 124/124/124 126/126/126
f 128/128/128 127/127/127 129/129/129
f 127/127/127 130/130/130 129/129/129
f 130/130/130 127/127/127 131/131/131
f 130/130/130 131/131/131 132/132/132
f 127/127/127 133/133/133 134/134/134
f 131/131/131 127/127/127 134/134/134
f 127/127/127 128/128/128 135/135/135
f 133/133/133 127/127/127 135/135/135
f 137/137/137 136/136/136 138/138/138
f 136/136/136 137/137/137 139/139/139
f 140/140/140 136/136/136 139/139/139
f 141/141/141 140/140/140 139/139/139
f 143/143/143 142/142/142 144/144/144
f 145/145/145 143/143/143 144/144/144
f 146/146/146 145/145/145 144/144/144
f 147/147/147 146/146/146 144/144/144
f 149/149/149 148/148/148 150/150/150
f 148/148/148 149/149/149 151/151/151
f 152/152/152 148/148/148 151/151/151
f 153/153/153 152/152/152 151/151/151
f 155/155/155 154/154/154 156/156/156
f 154/154/154 155/155/155 157/157/157
f 158/158/158 154/154/154 157/157/157
f 159/159/159 158/158/158 157/157/157
f 161/161/161 160/160/160 162/162/162
f 163/163/163 161/161/161 162/162/162
f 160/160/160 161/161/161 164/164/164
f 160/160/160 164/164/164 165/165/165
f 167/167/167 166/166/166 168/168/168
f 169/169/169 167/167/167 168/168/168
f 170/170/170 167/167/167 169/169/169
f 170/170/170 169/169/169 171/171/171
f 173/173/173 172/172/172 174/174/174
f 175/175/175 173/173/173 174/174/174
f 172/172/172 173/173/173 176/176/176
f 172/172/172 176/176/176 177/177/177
f 176/176/176 173/173/173 178/178/178
f 176/176/176 178/178/178 179/179/179
f 173/173/173 175/175/175 180/180/180
f 178/178/178 173/173/173 180/180/180
f 182/182/182 181/181/181 183/183/183
f 181/181/181 182/182/182 184/184/184
f 185/185/185 181/181/181 184/184/184
f 186/186/186 185/185/185 184/184/184
f 188/188/188 187/187/187 189/189/189
f 187/187/187 188/188/188 190/190/190
f 191/191/191 187/187/187 190/190/190
f 192/192/192 191/191/191 190/190/190
f 194/194/194 193/193/193 195/195/195
f 193/193/193 194/194/194 196/196/196
f 197/197/197 193/193/193 196/196/196
f 198/198/198 197/197/197 196/196/196
f 200/200/200 199/199/199 201/201/201
f 199/199/199 200/200/200 202/202/202
f 203/203/203 199/199/199 202/202/202
f 204/204/204 203/203/203 202/202/202
f 206/206/206 205/205/205 207/207/207
f 208/208/208 206/206/206 207/207/207
f 205/205/205 206/206/206 209/209/209
f 206/206/206 210/210/210 209/209/209
f 212/212/212 211/211/211 213/213/213
f 214/214/214 212/212/212 213/213/213
f 215/215/215 212/212/212 216/216/216
f 212/212/212 214/214/214 216/216/216
f 218/218/218 217/217/217 219/219/219
f 220/220/220 218/218/218 219/219/219
f 221/221/221 218/218/218 222/222/222
f 218/218/218 223/223/223 222/222/222
f 218/218/218 221/221/221 224/224/224
f 217/217/217 218/218/218 224/224/224
f 223/223/223 218/218/218 225/225/225
f 218/218/218 220/220/220 225/225/225
