mtllib ./wallTop_5x1_b.mtl
g pb-Cube-277600
v 0 0 0
v -1 0 0
v 0 0.05 0
v -1 0.05 0
v -1 0 -0.2
v 0 0 -0.2
v -1 0.05 -0.2
v 0 0.05 -0.2
v 0 0.07019167 -0.05628399
v -1 0.07019167 -0.05628399
v 0 0.07019167 -0.143716
v -1 0.07019167 -0.143716
v 0 0.05 0
v -1 0.05 0
v 0 0.05 -0.05628399
v -1 0.05 -0.05628399
v 0 0.05 -0.2
v 0 0.05 0
v 0 0.05 -0.143716
v 0 0.05 -0.05628399
v -1 0.05 0
v -1 0.05 -0.2
v -1 0.05 -0.05628399
v -1 0.05 -0.143716
v -1 0.05 -0.2
v 0 0.05 -0.2
v -1 0.05 -0.143716
v 0 0.05 -0.143716
v 0 0.05 -0.05628399
v -1 0.05 -0.05628399
v 0 0.07019167 -0.05628399
v -1 0.07019167 -0.05628399
v 0 0.05 -0.143716
v 0 0.05 -0.05628399
v 0 0.07019167 -0.143716
v 0 0.07019167 -0.05628399
v -1 0.05 -0.05628399
v -1 0.05 -0.143716
v -1 0.07019167 -0.05628399
v -1 0.07019167 -0.143716
v -1 0.05 -0.143716
v 0 0.05 -0.143716
v -1 0.07019167 -0.143716
v 0 0.07019167 -0.143716
v 0 0 -0.2
v -1 0 -0.2
v -0.5 -0.05800283 -0.1665406
v -1 -0.05800283 -0.1665406
v 0 -0.05800283 -0.1665406
v 0 0 0
v 0 0.05 0
v 0 -0.05800283 -0.09999999
v 0 0.05 -0.2
v 0 0 -0.2
v 0 -0.05800283 -0.1665406
v 0 -0.05800283 -0.03345943
v -1 0 -0.2
v -1 0.05 -0.2
v -1 -0.05800283 -0.09999999
v -1 0.05 0
v -1 0 0
v -1 -0.05800283 -0.03345943
v -1 -0.05800283 -0.1665406
v -1 0 0
v 0 0 0
v -0.5 -0.05800283 -0.03345943
v 0 -0.05800283 -0.03345943
v -1 -0.05800283 -0.03345943
v -0.5 -0.05800283 -0.09999999
v -0.5 -0.05800283 -0.1665406
v -1 -0.05800283 -0.1665406
v -1 -0.05800283 -0.09999999
v 0 -0.05800283 -0.1665406
v 0 -0.05800283 -0.09999999
v -0.5 -0.05800283 -0.09999999
v -1 -0.05800283 -0.09999999
v -1 -0.05800283 -0.03345943
v -0.5 -0.05800283 -0.03345943
v 0 -0.05800283 -0.09999999
v 0 -0.05800283 -0.03345943

vn 0 0 1
vn 0 0 1
vn 0 0 1
vn 0 0 1
vn 0 0 -1
vn 0 0 -1
vn 0 0 -1
vn 0 0 -1
vn 0 0.9999999 0
vn 0 0.9999999 0
vn 0 0.9999999 0
vn 0 0.9999999 0
vn 0 0.9999999 0
vn 0 0.9999999 0
vn 0 0.9999999 0
vn 0 0.9999999 0
vn 0 0 0
vn 0 0 0
vn 0 0 0
vn 0 0 0
vn 0 0 0
vn 0 0 0
vn 0 0 0
vn 0 0 0
vn 0 1 0
vn 0 1 0
vn 0 1 0
vn 0 1 0
vn 0 0 1
vn 0 0 1
vn 0 0 1
vn 0 0 1
vn 1 0 0
vn 1 0 0
vn 1 0 0
vn 1 0 0
vn -1 0 0
vn -1 0 0
vn -1 0 0
vn -1 0 0
vn 0 0 -1
vn 0 0 -1
vn 0 0 -1
vn 0 0 -1
vn 0 -0.4996806 -0.8662096
vn 0 -0.4996806 -0.8662096
vn 0 -0.4996807 -0.8662097
vn 0 -0.4996807 -0.8662097
vn 0 -0.4996807 -0.8662097
vn 0.9999999 0 0
vn 1 0 0
vn 1 0 0
vn 1 0 0
vn 0.9999999 0 0
vn 1 0 0
vn 1 0 0
vn -0.9999999 0 0
vn -1 0 0
vn -1 0 0
vn -1 0 0
vn -0.9999999 0 0
vn -1 0 0
vn -1 0 0
vn 0 -0.4996805 0.8662097
vn 0 -0.4996805 0.8662097
vn 0 -0.4996805 0.8662097
vn 0 -0.4996805 0.8662097
vn 0 -0.4996805 0.8662097
vn 0 -1 0
vn 0 -1 0
vn 0 -1 0
vn 0 -1 0
vn 0 -1 0
vn 0 -1 0
vn 0 -1 0
vn 0 -1 0
vn 0 -1 0
vn 0 -1 0
vn 0 -1 0
vn 0 -1 0

vt 1 0.5203553
vt 0 0.5203553
vt 1 0.5703553
vt 0 0.5703553
vt 0 0.8607387
vt 1 0.8607386
vt 0 0.8107387
vt 1 0.8107386
vt 1 0.6468309
vt 0 0.646831
vt 1 0.7342629
vt 0 0.734263
vt 1 0.5703552
vt 0 0.5703554
vt 1 0.6266392
vt 0 0.6266394
vt 0 0
vt 0 0
vt 0 0
vt 0 0
vt 0 0
vt 0 0
vt 0 0
vt 0 0
vt 0 0.8107387
vt 1 0.8107386
vt 0 0.7544546
vt 1 0.7544546
vt 1 0.6266393
vt 0 0.6266393
vt 1 0.646831
vt 0 0.646831
vt 1.020192 0.7342628
vt 1.020192 0.6468309
vt 1 0.7342628
vt 1 0.6468309
vt -0.02019167 0.646831
vt -0.02019167 0.7342629
vt 0 0.646831
vt 0 0.7342629
vt 0 0.7544546
vt 1 0.7544546
vt 0 0.7342629
vt 1 0.7342629
vt 1 0.8607386
vt 0 0.8607386
vt 0.5 0.9277003
vt 0 0.9277003
vt 1 0.9277002
vt -0.001733914 0.3370805
vt -0.001733914 0.3870805
vt 0.09826608 0.2790777
vt 0.1982661 0.3870805
vt 0.1982661 0.3370805
vt 0.1648066 0.2790777
vt 0.03172552 0.2790777
vt 0.1986362 0.335048
vt 0.1986362 0.385048
vt 0.2986362 0.2770451
vt 0.3986362 0.385048
vt 0.3986362 0.335048
vt 0.3651767 0.2770451
vt 0.2320956 0.2770451
vt 0 0.5203553
vt 1 0.5203553
vt 0.5 0.4533936
vt 1 0.4533936
vt 0 0.4533936
vt 0.5 0.9942409
vt 0.5 0.9277003
vt 0 0.9277003
vt 0 0.9942409
vt 1 0.9277003
vt 1 0.9942409
vt 0.5 0.3868531
vt 0 0.3868531
vt 0 0.4533936
vt 0.5 0.4533936
vt 1 0.3868531
vt 1 0.4533936

g Default_Prototype
usemtl Default_Prototype
usemap Default_Prototype
f 2/2/2 1/1/1 3/3/3
f 4/4/4 2/2/2 3/3/3
f 6/6/6 5/5/5 7/7/7
f 8/8/8 6/6/6 7/7/7
f 10/10/10 9/9/9 11/11/11
f 12/12/12 10/10/10 11/11/11
f 14/14/14 13/13/13 15/15/15
f 16/16/16 14/14/14 15/15/15
f 18/18/18 17/17/17 19/19/19
f 20/20/20 18/18/18 19/19/19
f 22/22/22 21/21/21 23/23/23
f 24/24/24 22/22/22 23/23/23
f 26/26/26 25/25/25 27/27/27
f 28/28/28 26/26/26 27/27/27
f 30/30/30 29/29/29 31/31/31
f 32/32/32 30/30/30 31/31/31
f 34/34/34 33/33/33 35/35/35
f 36/36/36 34/34/34 35/35/35
f 38/38/38 37/37/37 39/39/39
f 40/40/40 38/38/38 39/39/39
f 42/42/42 41/41/41 43/43/43
f 44/44/44 42/42/42 43/43/43
f 46/46/46 45/45/45 47/47/47
f 48/48/48 46/46/46 47/47/47
f 45/45/45 49/49/49 47/47/47
f 51/51/51 50/50/50 52/52/52
f 53/53/53 51/51/51 52/52/52
f 54/54/54 53/53/53 52/52/52
f 55/55/55 54/54/54 52/52/52
f 50/50/50 56/56/56 52/52/52
f 58/58/58 57/57/57 59/59/59
f 60/60/60 58/58/58 59/59/59
f 61/61/61 60/60/60 59/59/59
f 62/62/62 61/61/61 59/59/59
f 57/57/57 63/63/63 59/59/59
f 65/65/65 64/64/64 66/66/66
f 67/67/67 65/65/65 66/66/66
f 64/64/64 68/68/68 66/66/66
f 70/70/70 69/69/69 71/71/71
f 69/69/69 72/72/72 71/71/71
f 69/69/69 70/70/70 73/73/73
f 74/74/74 69/69/69 73/73/73
f 76/76/76 75/75/75 77/77/77
f 75/75/75 78/78/78 77/77/77
f 75/75/75 79/79/79 80/80/80
f 78/78/78 75/75/75 80/80/80
