mtllib ./WallThinTop2_4.mtl
g pb-MergedObject-1325762
v 0.3236408 0.2347565 -0.1992496
v 0.5736408 0.0147562 -0.1992496
v 0.5736408 0.2347565 -0.1992496
v 0.07364082 0.0147562 -0.1992496
v 0.07364082 0.2347565 -0.1992496
v 0.3236408 0.0147562 -0.1992496
v 0.5736408 0.2347565 0.0007503033
v 0.5736408 0.0147562 0.2007504
v 0.5736408 0.2347565 0.2007504
v 0.5736408 0.0147562 0.0007503033
v 0.5736408 0.2347565 -0.1992496
v 0.5736408 0.0147562 -0.1992496
v 0.07364082 0.0147562 -0.1992496
v 0.07364082 0.2347565 -0.1992496
v 0.07364082 0.0147562 0.0007503033
v 0.07364082 0.2347565 0.0007503033
v 0.07364082 0.2347565 0.2007504
v 0.07364082 0.0147562 0.2007504
v 0.3236408 0.2347565 0.2007504
v 0.07364082 0.0147562 0.2007504
v 0.07364082 0.2347565 0.2007504
v 0.5736408 0.0147562 0.2007504
v 0.5736408 0.2347565 0.2007504
v 0.3236408 0.0147562 0.2007504
v 0.3236408 0.0147562 -0.1992496
v 0.3236408 0.0147562 0.0007503033
v 0.5736408 0.0147562 -0.1992496
v 0.5736408 0.0147562 0.0007503033
v 0.07364082 0.0147562 -0.1992496
v 0.07364082 0.0147562 0.0007503033
v 0.5736408 0.0147562 0.0007503033
v 0.3236408 0.0147562 0.0007503033
v 0.5736408 0.0147562 0.2007504
v 0.3236408 0.0147562 0.2007504
v 0.07364082 0.0147562 0.0007503033
v 0.07364082 0.0147562 0.2007504
v 0.5736408 0.2347565 0.0007503033
v 0.3236408 0.2347565 0.0007503033
v 0.5736408 0.2347565 -0.1992496
v 0.3236408 0.2347565 -0.1992496
v 0.07364082 0.2347565 0.0007503033
v 0.07364082 0.2347565 -0.1992496
v 0.3236408 0.2347565 0.2007504
v 0.07364082 0.2347565 0.2007504
v 0.5736408 0.2347565 0.2007504
v 1.473641 -0.01624393 -0.1972497
v 1.548641 0.2637558 -0.1972497
v 1.473641 0.2637558 -0.1972497
v 1.72456 -0.01624393 -0.1972497
v 1.72456 0.2637558 -0.1972497
v 1.623641 -0.01624393 -0.1972497
v 1.623641 0.2637558 -0.1972497
v 1.72456 -0.01624393 -0.1972497
v 1.72456 0.2637558 0.002750278
v 1.72456 0.2637558 -0.1972497
v 1.72456 -0.01624393 0.2027503
v 1.72456 0.2637558 0.2027503
v 1.72456 -0.01624393 0.002750278
v 1.473641 0.2637558 -0.09724963
v 1.473641 -0.01624393 -0.1972497
v 1.473641 0.2637558 -0.1972497
v 1.473641 0.2637558 0.002750278
v 1.473641 0.2637558 0.2027503
v 1.473641 -0.01624393 0.002750278
v 1.473641 -0.01624393 0.2027503
v 1.72456 -0.01624393 0.2027503
v 1.623641 0.2637558 0.2027503
v 1.72456 0.2637558 0.2027503
v 1.623641 -0.01624393 0.2027503
v 1.473641 0.2637558 0.2027503
v 1.473641 -0.01624393 0.2027503
v 1.623641 -0.01624393 -0.1972497
v 1.623641 -0.01624393 0.002750278
v 1.72456 -0.01624393 0.002750278
v 1.72456 -0.01624393 -0.1972497
v 1.473641 -0.01624393 -0.1972497
v 1.473641 -0.01624393 0.002750278
v 1.72456 -0.01624393 0.002750278
v 1.623641 -0.01624393 0.002750278
v 1.72456 -0.01624393 0.2027503
v 1.623641 -0.01624393 0.2027503
v 1.473641 -0.01624393 0.002750278
v 1.473641 -0.01624393 0.2027503
v 1.72456 0.2637558 0.002750278
v 1.623641 0.2637558 0.002750278
v 1.623641 0.2637558 -0.09724963
v 1.623641 0.2637558 -0.1972497
v 1.72456 0.2637558 -0.1972497
v 1.548641 0.2637558 -0.09724963
v 1.548641 0.2637558 -0.1972497
v 1.473641 0.2637558 -0.09724963
v 1.473641 0.2637558 -0.1972497
v 1.548641 0.2637558 0.002750278
v 1.473641 0.2637558 0.002750278
v 1.623641 0.2637558 0.2027503
v 1.473641 0.2637558 0.2027503
v 1.72456 0.2637558 0.2027503
v 0.7736406 0.2437553 -0.1792496
v 0.9736407 0.003755569 -0.1792496
v 0.9736407 0.2437553 -0.1792496
v 0.7736406 0.003755569 -0.1792496
v 0.5736406 0.2437553 -0.1792496
v 0.5736406 0.003755569 -0.1792496
v 0.5736406 0.003755569 -0.1792496
v 0.5736406 0.2437553 -0.1792496
v 0.5736406 0.003755569 0.0007504225
v 0.5736406 0.2437553 0.0007504225
v 0.5736406 0.2437553 0.1807504
v 0.5736406 0.003755569 0.1807504
v 0.5736406 0.003755569 0.1807504
v 0.5736406 0.2437553 0.1807504
v 0.7736406 0.003755569 0.1807504
v 0.7736406 0.2437553 0.1807504
v 0.9736407 0.2437553 0.1807504
v 0.9736407 0.003755569 0.1807504
v 0.7736406 0.003755569 -0.1792496
v 0.7736406 0.003755569 0.0007504225
v 0.9736407 0.003755569 -0.1792496
v 0.9736407 0.003755569 0.0007504225
v 0.5736406 0.003755569 0.0007504225
v 0.5736406 0.003755569 -0.1792496
v 0.9736407 0.003755569 0.0007504225
v 0.7736406 0.003755569 0.0007504225
v 0.9736407 0.003755569 0.1807504
v 0.7736406 0.003755569 0.1807504
v 0.5736406 0.003755569 0.0007504225
v 0.5736406 0.003755569 0.1807504
v 0.9736407 0.2437553 0.0007504225
v 0.7736406 0.2437553 0.0007504225
v 0.9736407 0.2437553 -0.1792496
v 0.7736406 0.2437553 -0.1792496
v 0.7736406 0.2437553 0.1807504
v 0.5736406 0.2437553 0.1807504
v 0.5736406 0.2437553 0.0007504225
v 0.9736407 0.2437553 0.1807504
v 0.5736406 0.2437553 -0.1792496
v -0.8337798 -0.00724411 -0.1882496
v -0.8337798 0.2327557 -0.1882496
v -1.176359 -0.00724411 -0.1882496
v -1.176359 0.2327557 -0.1882496
v -1.526359 0.2327557 -0.1882496
v -1.526359 -0.00724411 -0.1882496
v -0.8337798 0.2327557 0.00175035
v -0.8337798 -0.00724411 0.1917504
v -0.8337798 0.2327557 0.1917504
v -0.8337798 -0.00724411 0.00175035
v -0.8337798 0.2327557 -0.1882496
v -0.8337798 -0.00724411 -0.1882496
v -1.526359 -0.00724411 -0.1882496
v -1.526359 0.2327557 -0.1882496
v -1.526359 -0.00724411 0.00175035
v -1.526359 0.2327557 0.00175035
v -1.526359 0.2327557 0.1917504
v -1.526359 -0.00724411 0.1917504
v -1.176359 0.2327557 0.1917504
v -1.526359 -0.00724411 0.1917504
v -1.526359 0.2327557 0.1917504
v -1.176359 -0.00724411 0.1917504
v -0.8337798 0.2327557 0.1917504
v -0.8337798 -0.00724411 0.1917504
v -1.176359 -0.00724411 -0.1882496
v -1.176359 -0.00724411 0.00175035
v -0.8337798 -0.00724411 -0.1882496
v -0.8337798 -0.00724411 0.00175035
v -1.526359 -0.00724411 0.00175035
v -1.526359 -0.00724411 -0.1882496
v -0.8337798 -0.00724411 0.00175035
v -1.176359 -0.00724411 0.00175035
v -0.8337798 -0.00724411 0.1917504
v -1.176359 -0.00724411 0.1917504
v -1.526359 -0.00724411 0.00175035
v -1.526359 -0.00724411 0.1917504
v -1.176359 0.2327557 0.00175035
v -1.526359 0.2327557 0.00175035
v -1.176359 0.2327557 -0.1882496
v -1.526359 0.2327557 -0.1882496
v -1.176359 0.2327557 0.1917504
v -0.8337798 0.2327557 0.1917504
v -0.8337798 0.2327557 0.00175035
v -1.526359 0.2327557 0.1917504
v -0.8337798 0.2327557 -0.1882496
v -0.4763591 0.008755684 -0.2002496
v -0.4763591 0.2387552 -0.2002496
v -0.6513591 0.008755684 -0.2002496
v -0.6513591 0.2387552 -0.2002496
v -0.826359 0.2387552 -0.2002496
v -0.826359 0.008755684 -0.2002496
v -0.4763591 0.2387552 -0.0002496243
v -0.4763591 0.008755684 0.1997504
v -0.4763591 0.2387552 0.1997504
v -0.4763591 0.008755684 -0.0002496243
v -0.4763591 0.2387552 -0.2002496
v -0.4763591 0.008755684 -0.2002496
v -0.826359 0.008755684 -0.2002496
v -0.826359 0.2387552 -0.2002496
v -0.826359 0.008755684 -0.0002496243
v -0.826359 0.2387552 -0.0002496243
v -0.826359 0.2387552 0.1997504
v -0.826359 0.008755684 0.1997504
v -0.6513591 0.2387552 0.1997504
v -0.826359 0.008755684 0.1997504
v -0.826359 0.2387552 0.1997504
v -0.6513591 0.008755684 0.1997504
v -0.4763591 0.2387552 0.1997504
v -0.4763591 0.008755684 0.1997504
v -0.6513591 0.008755684 -0.2002496
v -0.6513591 0.008755684 -0.0002496243
v -0.4763591 0.008755684 -0.2002496
v -0.4763591 0.008755684 -0.0002496243
v -0.826359 0.008755684 -0.2002496
v -0.826359 0.008755684 -0.0002496243
v -0.4763591 0.008755684 -0.0002496243
v -0.6513591 0.008755684 -0.0002496243
v -0.4763591 0.008755684 0.1997504
v -0.6513591 0.008755684 0.1997504
v -0.826359 0.008755684 -0.0002496243
v -0.826359 0.008755684 0.1997504
v -0.6513591 0.2387552 -0.0002496243
v -0.6513591 0.2387552 0.1997504
v -0.826359 0.2387552 0.1997504
v -0.826359 0.2387552 -0.0002496243
v -0.6513591 0.2387552 -0.2002496
v -0.826359 0.2387552 -0.2002496
v -0.4763591 0.2387552 -0.0002496243
v -0.4763591 0.2387552 -0.2002496
v -0.4763591 0.2387552 0.1997504
v 1.223641 0.254756 -0.1882496
v 0.9736407 0.254756 -0.1882496
v 1.223641 -0.005244255 -0.1882496
v 0.9736407 -0.005244255 -0.1882496
v 1.473641 -0.005244255 -0.1882496
v 1.473641 0.254756 -0.1882496
v 0.9736407 0.254756 0.00175035
v 0.9736407 0.254756 0.1917504
v 0.9736407 -0.005244255 0.00175035
v 0.9736407 -0.005244255 0.1917504
v 0.9736407 -0.005244255 -0.1882496
v 0.9736407 0.254756 -0.1882496
v 1.223641 0.254756 0.1917504
v 1.473641 0.254756 0.1917504
v 1.223641 -0.005244255 0.1917504
v 1.473641 -0.005244255 0.1917504
v 0.9736407 -0.005244255 0.1917504
v 0.9736407 0.254756 0.1917504
v 1.223641 -0.005244255 -0.1882496
v 1.223641 -0.005244255 0.00175035
v 1.473641 -0.005244255 -0.1882496
v 1.473641 -0.005244255 0.00175035
v 0.9736407 -0.005244255 -0.1882496
v 0.9736407 -0.005244255 0.00175035
v 1.473641 -0.005244255 0.00175035
v 1.223641 -0.005244255 0.00175035
v 1.473641 -0.005244255 0.1917504
v 1.223641 -0.005244255 0.1917504
v 0.9736407 -0.005244255 0.00175035
v 0.9736407 -0.005244255 0.1917504
v 1.473641 0.254756 0.00175035
v 1.223641 0.254756 0.00175035
v 1.473641 0.254756 -0.1882496
v 1.223641 0.254756 -0.1882496
v 1.223641 0.254756 0.1917504
v 1.473641 0.254756 0.1917504
v 0.9736407 0.254756 0.1917504
v 0.9736407 0.254756 0.00175035
v 0.9736407 0.254756 -0.1882496
v -0.2013593 0.2437553 -0.1882496
v 0.07364082 0.003755569 -0.1882496
v 0.07364082 0.2437553 -0.1882496
v -0.2013593 0.003755569 -0.1882496
v -0.4763591 0.2437553 -0.1882496
v -0.4763591 0.003755569 -0.1882496
v 0.07364082 0.003755569 0.1817504
v 0.07364082 0.2437553 0.1817504
v 0.07364082 0.003755569 -0.003249526
v 0.07364082 0.2437553 -0.003249526
v 0.07364082 0.2437553 -0.1882496
v 0.07364082 0.003755569 -0.1882496
v -0.4763591 0.2437553 -0.003249526
v -0.4763591 0.003755569 -0.1882496
v -0.4763591 0.2437553 -0.1882496
v -0.4763591 0.003755569 -0.003249526
v -0.4763591 0.2437553 0.1817504
v -0.4763591 0.003755569 0.1817504
v -0.2013593 0.2437553 0.1817504
v -0.4763591 0.003755569 0.1817504
v -0.4763591 0.2437553 0.1817504
v -0.2013593 0.003755569 0.1817504
v 0.07364082 0.2437553 0.1817504
v 0.07364082 0.003755569 0.1817504
v -0.2013593 0.003755569 -0.1882496
v -0.2013593 0.003755569 -0.003249526
v 0.07364082 0.003755569 -0.1882496
v 0.07364082 0.003755569 -0.003249526
v -0.4763591 0.003755569 -0.003249526
v -0.4763591 0.003755569 -0.1882496
v 0.07364082 0.003755569 -0.003249526
v -0.2013593 0.003755569 -0.003249526
v 0.07364082 0.003755569 0.1817504
v -0.2013593 0.003755569 0.1817504
v -0.4763591 0.003755569 -0.003249526
v -0.4763591 0.003755569 0.1817504
v -0.2013593 0.2437553 0.1817504
v -0.2013593 0.2437553 -0.003249526
v 0.07364082 0.2437553 0.1817504
v 0.07364082 0.2437553 -0.003249526
v -0.4763591 0.2437553 -0.003249526
v -0.4763591 0.2437553 0.1817504
v -0.2013593 0.2437553 -0.1882496
v -0.4763591 0.2437553 -0.1882496
v 0.07364082 0.2437553 -0.1882496
v -1.901359 0.247756 -0.2042496
v -1.526359 -0.002243996 -0.2042496
v -1.526359 0.247756 -0.2042496
v -1.901359 -0.002243996 -0.2042496
v -2.276359 0.247756 -0.2042496
v -2.276359 -0.002243996 -0.2042496
v -1.526359 0.247756 -0.004249692
v -1.526359 -0.002243996 0.1957504
v -1.526359 0.247756 0.1957504
v -1.526359 -0.002243996 -0.004249692
v -1.526359 0.247756 -0.2042496
v -1.526359 -0.002243996 -0.2042496
v -2.276359 0.247756 -0.004249692
v -2.276359 -0.002243996 -0.2042496
v -2.276359 0.247756 -0.2042496
v -2.276359 -0.002243996 -0.004249692
v -2.276359 0.247756 0.1957504
v -2.276359 -0.002243996 0.1957504
v -1.901359 0.247756 0.1957504
v -2.276359 -0.002243996 0.1957504
v -2.276359 0.247756 0.1957504
v -1.901359 -0.002243996 0.1957504
v -1.526359 0.247756 0.1957504
v -1.526359 -0.002243996 0.1957504
v -1.901359 -0.002243996 -0.2042496
v -1.901359 -0.002243996 -0.004249692
v -1.526359 -0.002243996 -0.2042496
v -1.526359 -0.002243996 -0.004249692
v -2.276359 -0.002243996 -0.2042496
v -2.276359 -0.002243996 -0.004249692
v -1.526359 -0.002243996 -0.004249692
v -1.901359 -0.002243996 -0.004249692
v -1.526359 -0.002243996 0.1957504
v -1.901359 -0.002243996 0.1957504
v -2.276359 -0.002243996 -0.004249692
v -2.276359 -0.002243996 0.1957504
v -1.526359 0.247756 -0.004249692
v -1.901359 0.247756 -0.004249692
v -1.526359 0.247756 -0.2042496
v -1.901359 0.247756 -0.2042496
v -1.901359 0.247756 0.1957504
v -2.276359 0.247756 0.1957504
v -2.276359 0.247756 -0.004249692
v -1.526359 0.247756 0.1957504
v -2.276359 0.247756 -0.2042496

vn 0 0 -1
vn 0 0 -1
vn 0 0 -1
vn 0 0 -1
vn 0 0 -1
vn 0 0 -1
vn 1 0 0
vn 1 0 0
vn 1 0 0
vn 1 0 0
vn 1 0 0
vn 1 0 0
vn -1 0 0
vn -1 0 0
vn -1 0 0
vn -1 0 0
vn -1 0 0
vn -1 0 0
vn 0 0 1
vn 0 0 1
vn 0 0 1
vn 0 0 1
vn 0 0 1
vn 0 0 1
vn 0 -1 0
vn 0 -1 0
vn 0 -1 0
vn 0 -1 0
vn 0 -1 0
vn 0 -1 0
vn 0 -1 0
vn 0 -1 0
vn 0 -1 0
vn 0 -1 0
vn 0 -1 0
vn 0 -1 0
vn 0 1 0
vn 0 1 0
vn 0 1 0
vn 0 1 0
vn 0 1 0
vn 0 1 0
vn 0 1 0
vn 0 1 0
vn 0 1 0
vn 0 0 -1
vn 0 0 -1
vn 0 0 -1
vn 0 0 -1
vn 0 0 -1
vn 0 0 -1
vn 0 0 -0.9999999
vn 1 0 0
vn 0.9999999 0 0
vn 1 0 0
vn 1 0 0
vn 1 0 0
vn 0.9999999 0 0
vn -1 0 0
vn -1 0 0
vn -1 0 0
vn -1 0 0
vn -1 0 0
vn -1 0 0
vn -1 0 0
vn 0 0 1
vn 0 0 0.9999999
vn 0 0 1
vn 0 0 1
vn 0 0 1
vn 0 0 1
vn 0 -1 0
vn 0 -1 0
vn 0 -1 0
vn 0 -1 0
vn 0 -1 0
vn 0 -1 0
vn 0 -1 0
vn 0 -1 0
vn 0 -1 0
vn 0 -0.9999999 0
vn 0 -1 0
vn 0 -1 0
vn 0 1 0
vn 0 1 0
vn 0 1 0
vn 0 1 0
vn 0 1 0
vn 0 1 0
vn 0 1 0
vn 0 1 0
vn 0 1 0
vn 0 1 0
vn 0 1 0
vn 0 1 0
vn 0 1 0
vn 0 1 0
vn 0 0 -1
vn 0 0 -1
vn 0 0 -1
vn 0 0 -1
vn 0 0 -1
vn 0 0 -1
vn -1 0 0
vn -1 0 0
vn -0.9999999 0 0
vn -0.9999999 0 0
vn -1 0 0
vn -1 0 0
vn 0 0 1
vn 0 0 1
vn 0 0 1
vn 0 0 1
vn 0 0 1
vn 0 0 1
vn 0 -0.9999999 0
vn 0 -0.9999999 0
vn 0 -1 0
vn 0 -1 0
vn 0 -1 0
vn 0 -1 0
vn 0 -1 0
vn 0 -1 0
vn 0 -1 0
vn 0 -1 0
vn 0 -1 0
vn 0 -1 0
vn 0 1 0
vn 0 1 0
vn 0 1 0
vn 0 1 0
vn 0 1 0
vn 0 1 0
vn 0 1 0
vn 0 1 0
vn 0 1 0
vn 0 0 -1
vn 0 0 -1
vn 0 0 -1
vn 0 0 -1
vn 0 0 -1
vn 0 0 -1
vn 1 0 0
vn 1 0 0
vn 1 0 0
vn 1 0 0
vn 1 0 0
vn 1 0 0
vn -1 0 0
vn -1 0 0
vn -1 0 0
vn -1 0 0
vn -1 0 0
vn -1 0 0
vn 0 0 1
vn 0 0 1
vn 0 0 1
vn 0 0 1
vn 0 0 1
vn 0 0 1
vn 0 -1 0
vn 0 -0.9999999 0
vn 0 -1 0
vn 0 -1 0
vn 0 -1 0
vn 0 -1 0
vn 0 -1 0
vn 0 -1 0
vn 0 -1 0
vn 0 -1 0
vn 0 -1 0
vn 0 -1 0
vn 0 0.9999999 0
vn 0 1 0
vn 0 1 0
vn 0 1 0
vn 0 1 0
vn 0 1 0
vn 0 1 0
vn 0 1 0
vn 0 1 0
vn 0 0 -1
vn 0 0 -1
vn 0 0 -1
vn 0 0 -1
vn 0 0 -1
vn 0 0 -1
vn 1 0 0
vn 1 0 0
vn 1 0 0
vn 1 0 0
vn 1 0 0
vn 1 0 0
vn -1 0 0
vn -1 0 0
vn -1 0 0
vn -1 0 0
vn -1 0 0
vn -1 0 0
vn 0 0 1
vn 0 0 1
vn 0 0 1
vn 0 0 1
vn 0 0 1
vn 0 0 1
vn 0 -1 0
vn 0 -1 0
vn 0 -1 0
vn 0 -1 0
vn 0 -1 0
vn 0 -1 0
vn 0 -1 0
vn 0 -1 0
vn 0 -1 0
vn 0 -1 0
vn 0 -1 0
vn 0 -1 0
vn 0 1 0
vn 0 1 0
vn 0 1 0
vn 0 1 0
vn 0 1 0
vn 0 1 0
vn 0 1 0
vn 0 1 0
vn 0 1 0
vn 0 0 -1
vn 0 0 -1
vn 0 0 -1
vn 0 0 -1
vn 0 0 -1
vn 0 0 -1
vn -1 0 0
vn -1 0 0
vn -1 0 0
vn -1 0 0
vn -0.9999999 0 0
vn -0.9999999 0 0
vn 0 0 1
vn 0 0 1
vn 0 0 1
vn 0 0 1
vn 0 0 1
vn 0 0 1
vn 0 -1 0
vn 0 -1 0
vn 0 -1 0
vn 0 -1 0
vn 0 -1 0
vn 0 -1 0
vn 0 -1 0
vn 0 -1 0
vn 0 -1 0
vn 0 -1 0
vn 0 -1 0
vn 0 -1 0
vn 0 1 0
vn 0 1 0
vn 0 1 0
vn 0 1 0
vn 0 1 0
vn 0 1 0
vn 0 1 0
vn 0 1 0
vn 0 1 0
vn 0 0 -1
vn 0 0 -1
vn 0 0 -1
vn 0 0 -1
vn 0 0 -1
vn 0 0 -1
vn 0.9999999 0 0
vn 0.9999999 0 0
vn 0.9999999 0 0
vn 0.9999999 0 0
vn 0.9999999 0 0
vn 0.9999999 0 0
vn -1 0 0
vn -0.9999999 0 0
vn -0.9999999 0 0
vn -1 0 0
vn -0.9999999 0 0
vn -0.9999999 0 0
vn 0 0 1
vn 0 0 1
vn 0 0 1
vn 0 0 1
vn 0 0 1
vn 0 0 1
vn 0 -1 0
vn 0 -1 0
vn 0 -0.9999999 0
vn 0 -0.9999999 0
vn 0 -0.9999999 0
vn 0 -0.9999999 0
vn 0 -1 0
vn 0 -1 0
vn 0 -1 0
vn 0 -1 0
vn 0 -1 0
vn 0 -1 0
vn 0 1 0
vn 0 1 0
vn 0 1 0
vn 0 1 0
vn 0 0.9999999 0
vn 0 1 0
vn 0 1 0
vn 0 0.9999999 0
vn 0 0.9999999 0
vn 0 0 -1
vn 0 0 -1
vn 0 0 -1
vn 0 0 -1
vn 0 0 -1
vn 0 0 -1
vn 1 0 0
vn 1 0 0
vn 1 0 0
vn 1 0 0
vn 1 0 0
vn 1 0 0
vn -1 0 0
vn -1 0 0
vn -1 0 0
vn -1 0 0
vn -1 0 0
vn -1 0 0
vn 0 0 1
vn 0 0 1
vn 0 0 1
vn 0 0 1
vn 0 0 1
vn 0 0 1
vn 0 -1 0
vn 0 -1 0
vn 0 -1 0
vn 0 -1 0
vn 0 -1 0
vn 0 -1 0
vn 0 -1 0
vn 0 -1 0
vn 0 -1 0
vn 0 -1 0
vn 0 -1 0
vn 0 -1 0
vn 0 1 0
vn 0 1 0
vn 0 1 0
vn 0 1 0
vn 0 1 0
vn 0 1 0
vn 0 1 0
vn 0 1 0
vn 0 1 0

vt 0.6704369 0.7732442
vt 0.6013041 0.7124072
vt 0.6013041 0.7732442
vt 0.7395698 0.7124072
vt 0.7395698 0.7732442
vt 0.6704369 0.7124072
vt 0.5459977 0.8838568
vt 0.6013041 0.9446937
vt 0.6013041 0.8838568
vt 0.5459977 0.9446937
vt 0.4906914 0.8838568
vt 0.4906914 0.9446937
vt 0.8004068 0.7732442
vt 0.7395698 0.7732442
vt 0.8004068 0.8285505
vt 0.7395698 0.8285505
vt 0.7395698 0.8838568
vt 0.8004068 0.8838568
vt 0.6704369 0.8838568
vt 0.7395698 0.9446937
vt 0.7395698 0.8838568
vt 0.6013041 0.9446937
vt 0.6013041 0.8838568
vt 0.6704369 0.9446937
vt 0.6704369 0.7124072
vt 0.6704369 0.6571009
vt 0.6013041 0.7124072
vt 0.6013041 0.6571009
vt 0.7395698 0.7124072
vt 0.7395698 0.6571009
vt 0.6013041 1
vt 0.6704369 1
vt 0.6013041 0.9446937
vt 0.6704369 0.9446937
vt 0.7395698 1
vt 0.7395698 0.9446937
vt 0.6013041 0.8285505
vt 0.6704369 0.8285505
vt 0.6013041 0.7732442
vt 0.6704369 0.7732442
vt 0.7395698 0.8285505
vt 0.7395698 0.7732442
vt 0.6704369 0.8838568
vt 0.7395698 0.8838568
vt 0.6013041 0.8838568
vt 0.8515123 0.05530632
vt 0.8307724 0.1327351
vt 0.8515123 0.1327351
vt 0.7685528 0.05530632
vt 0.7685528 0.1327351
vt 0.8100326 0.05530632
vt 0.8100326 0.1327351
vt 0.691124 0.1327351
vt 0.7685528 0.1880414
vt 0.7685528 0.1327351
vt 0.691124 0.2433477
vt 0.7685528 0.2433477
vt 0.691124 0.1880414
vt 0.8515123 0.1603882
vt 0.9289411 0.1327351
vt 0.8515123 0.1327351
vt 0.8515123 0.1880414
vt 0.8515123 0.2433477
vt 0.9289411 0.1880414
vt 0.9289411 0.2433477
vt 0.7685528 0.3207765
vt 0.8100326 0.2433477
vt 0.7685528 0.2433477
vt 0.8100326 0.3207765
vt 0.8515123 0.2433477
vt 0.8515123 0.3207765
vt 0.8100326 0.05530625
vt 0.8100326 0
vt 0.7685528 0
vt 0.7685528 0.05530632
vt 0.8515123 0.05530625
vt 0.8515123 0
vt 0.7685528 0.3760828
vt 0.8100326 0.3760828
vt 0.7685528 0.3207765
vt 0.8100326 0.3207765
vt 0.8515124 0.3760828
vt 0.8515123 0.3207765
vt 0.7685528 0.1880414
vt 0.8100326 0.1880414
vt 0.8100326 0.1603882
vt 0.8100326 0.1327351
vt 0.7685528 0.1327351
vt 0.8307724 0.1603882
vt 0.8307724 0.1327351
vt 0.8515123 0.1603882
vt 0.8515123 0.1327351
vt 0.8307724 0.1880414
vt 0.8515123 0.1880414
vt 0.8100326 0.2433477
vt 0.8515123 0.2433477
vt 0.7685528 0.2433477
vt 0.5419692 0.5302442
vt 0.4866628 0.4638767
vt 0.4866628 0.5302442
vt 0.5419692 0.4638767
vt 0.5972754 0.5302442
vt 0.5972754 0.4638767
vt 0.6636431 0.5302442
vt 0.5972754 0.5302442
vt 0.6636431 0.5800199
vt 0.5972754 0.5800199
vt 0.5972754 0.6297956
vt 0.6636431 0.6297956
vt 0.5972754 0.6961632
vt 0.5972754 0.6297956
vt 0.5419692 0.6961632
vt 0.5419692 0.6297956
vt 0.4866628 0.6297956
vt 0.4866628 0.6961632
vt 0.5419692 0.4638767
vt 0.5419692 0.414101
vt 0.4866628 0.4638767
vt 0.4866628 0.414101
vt 0.5972754 0.414101
vt 0.5972754 0.4638767
vt 0.4866628 0.7459388
vt 0.5419692 0.7459388
vt 0.4866628 0.6961632
vt 0.5419692 0.6961632
vt 0.5972754 0.7459388
vt 0.5972754 0.6961632
vt 0.4866628 0.5800199
vt 0.5419692 0.5800199
vt 0.4866628 0.5302442
vt 0.5419692 0.5302442
vt 0.5419692 0.6297956
vt 0.5972754 0.6297956
vt 0.5972754 0.5800199
vt 0.4866628 0.6297956
vt 0.5972754 0.5302442
vt 0.4358363 0.1018798
vt 0.4358363 0.1682473
vt 0.5326224 0.1018798
vt 0.5326224 0.1682473
vt 0.6294084 0.1682473
vt 0.6294084 0.1018798
vt 0.3694688 0.3922379
vt 0.4358363 0.3396969
vt 0.3694688 0.3396969
vt 0.4358363 0.3922379
vt 0.3694688 0.4447788
vt 0.4358363 0.4447788
vt 0.6294084 0.4447788
vt 0.6957759 0.4447788
vt 0.6294084 0.3922379
vt 0.6957759 0.3922378
vt 0.6957759 0.3396969
vt 0.6294084 0.3396969
vt 0.5326224 0.2733293
vt 0.6294084 0.3396969
vt 0.6294084 0.2733293
vt 0.5326224 0.3396969
vt 0.4358363 0.2733293
vt 0.4358363 0.3396969
vt 0.5326224 0.1018798
vt 0.5326224 0.04933877
vt 0.4358363 0.1018798
vt 0.4358363 0.04933884
vt 0.6294084 0.04933877
vt 0.6294084 0.1018798
vt 0.4358363 0.3922378
vt 0.5326223 0.3922378
vt 0.4358363 0.3396969
vt 0.5326223 0.3396969
vt 0.6294084 0.3922378
vt 0.6294084 0.3396969
vt 0.5326224 0.2207883
vt 0.6294084 0.2207883
vt 0.5326224 0.1682473
vt 0.6294084 0.1682473
vt 0.5326224 0.2733293
vt 0.4358363 0.2733293
vt 0.4358363 0.2207883
vt 0.6294084 0.2733293
vt 0.4358363 0.1682473
vt 0.3705263 0.7020527
vt 0.3705263 0.7656549
vt 0.4189194 0.7020527
vt 0.4189194 0.7656549
vt 0.4673123 0.7656549
vt 0.4673123 0.7020527
vt 0.31522 0.8762674
vt 0.3705263 0.9398698
vt 0.3705263 0.8762674
vt 0.31522 0.9398698
vt 0.2599137 0.8762674
vt 0.2599137 0.9398698
vt 0.5309146 0.7656549
vt 0.4673123 0.7656549
vt 0.5309146 0.8209612
vt 0.4673123 0.8209612
vt 0.4673123 0.8762674
vt 0.5309146 0.8762674
vt 0.4189194 0.8762674
vt 0.4673123 0.9398698
vt 0.4673123 0.8762674
vt 0.4189194 0.9398698
vt 0.3705263 0.8762674
vt 0.3705263 0.9398698
vt 0.4189194 0.7020527
vt 0.4189194 0.6467463
vt 0.3705263 0.7020527
vt 0.3705263 0.6467463
vt 0.4673123 0.7020526
vt 0.4673123 0.6467463
vt 0.3705263 0.9951761
vt 0.4189194 0.9951761
vt 0.3705263 0.9398698
vt 0.4189194 0.9398698
vt 0.4673123 0.9951761
vt 0.4673123 0.9398698
vt 0.4189194 0.8209612
vt 0.4189194 0.8762674
vt 0.4673123 0.8762674
vt 0.4673123 0.8209612
vt 0.4189194 0.7656549
vt 0.4673123 0.7656549
vt 0.3705263 0.8209612
vt 0.3705263 0.7656549
vt 0.3705263 0.8762674
vt 0.06913287 0.7424011
vt 0.1382657 0.7424011
vt 0.06913287 0.670503
vt 0.1382657 0.670503
vt 0 0.670503
vt 0 0.7424011
vt 0.1382657 0.7949421
vt 0.1382657 0.8474831
vt 0.2101639 0.7949421
vt 0.2101639 0.8474831
vt 0.2101639 0.7424012
vt 0.1382657 0.7424012
vt 0.06913287 0.8474831
vt 0 0.8474831
vt 0.06913287 0.9193813
vt 0 0.9193813
vt 0.1382657 0.9193813
vt 0.1382657 0.8474831
vt 0.06913287 0.670503
vt 0.06913287 0.6179619
vt 0 0.670503
vt 0 0.6179619
vt 0.1382657 0.670503
vt 0.1382657 0.6179619
vt 0 0.9719222
vt 0.06913287 0.9719222
vt 0 0.9193813
vt 0.06913287 0.9193813
vt 0.1382657 0.9719222
vt 0.1382657 0.9193813
vt 0 0.7949421
vt 0.06913287 0.7949421
vt 0 0.7424011
vt 0.06913287 0.7424011
vt 0.06913287 0.8474831
vt 0 0.8474831
vt 0.1382657 0.8474831
vt 0.1382657 0.7949421
vt 0.1382657 0.7424011
vt 0.2753615 0.1405249
vt 0.1993154 0.07415729
vt 0.1993154 0.1405249
vt 0.2753615 0.07415729
vt 0.3514077 0.1405249
vt 0.3514077 0.07415729
vt 0.1329478 0.2428415
vt 0.1993154 0.2428415
vt 0.1329478 0.1916832
vt 0.1993154 0.1916832
vt 0.1993154 0.1405249
vt 0.1329478 0.1405249
vt 0.3514077 0.1916832
vt 0.4177753 0.1405249
vt 0.3514077 0.1405249
vt 0.4177753 0.1916832
vt 0.3514077 0.2428415
vt 0.4177753 0.2428415
vt 0.2753615 0.2428415
vt 0.3514077 0.3092091
vt 0.3514077 0.2428415
vt 0.2753615 0.3092091
vt 0.1993154 0.2428415
vt 0.1993154 0.3092091
vt 0.2753615 0.07415729
vt 0.2753615 0.02299898
vt 0.1993154 0.07415736
vt 0.1993154 0.02299898
vt 0.3514077 0.02299898
vt 0.3514077 0.07415729
vt 0.1993154 0.3603675
vt 0.2753615 0.3603675
vt 0.1993154 0.3092091
vt 0.2753615 0.3092091
vt 0.3514077 0.3603675
vt 0.3514077 0.3092091
vt 0.2753615 0.2428415
vt 0.2753615 0.1916832
vt 0.1993154 0.2428415
vt 0.1993154 0.1916832
vt 0.3514077 0.1916832
vt 0.3514077 0.2428415
vt 0.2753615 0.1405249
vt 0.3514077 0.1405249
vt 0.1993154 0.1405249
vt 0.2548322 0.4982503
vt 0.1511328 0.4291172
vt 0.1511328 0.4982503
vt 0.2548322 0.4291172
vt 0.3585315 0.4982503
vt 0.3585315 0.4291172
vt 0.1511328 0.5535565
vt 0.08199996 0.6088629
vt 0.1511328 0.6088629
vt 0.08199996 0.5535566
vt 0.1511328 0.4982503
vt 0.08199996 0.4982503
vt 0.3585315 0.5535565
vt 0.4276644 0.4982503
vt 0.3585315 0.4982503
vt 0.4276644 0.5535565
vt 0.3585315 0.6088629
vt 0.4276644 0.6088629
vt 0.2548322 0.6088629
vt 0.3585315 0.6779957
vt 0.3585315 0.6088629
vt 0.2548322 0.6779957
vt 0.1511328 0.6088629
vt 0.1511328 0.6779957
vt 0.2548322 0.4291172
vt 0.2548322 0.3738111
vt 0.1511328 0.4291172
vt 0.1511328 0.3738111
vt 0.3585315 0.4291172
vt 0.3585315 0.3738111
vt 0.1511328 0.733302
vt 0.2548322 0.733302
vt 0.1511328 0.6779957
vt 0.2548322 0.6779957
vt 0.3585315 0.733302
vt 0.3585315 0.6779957
vt 0.1511328 0.5535565
vt 0.2548322 0.5535565
vt 0.1511328 0.4982503
vt 0.2548322 0.4982503
vt 0.2548322 0.6088629
vt 0.3585315 0.6088629
vt 0.3585315 0.5535565
vt 0.1511328 0.6088629
vt 0.3585315 0.4982503

g Default_Prototype
usemtl Default_Prototype
usemap Default_Prototype
f 2/2/2 1/1/1 3/3/3
f 1/1/1 4/4/4 5/5/5
f 1/1/1 2/2/2 6/6/6
f 4/4/4 1/1/1 6/6/6
f 8/8/8 7/7/7 9/9/9
f 7/7/7 8/8/8 10/10/10
f 11/11/11 7/7/7 10/10/10
f 12/12/12 11/11/11 10/10/10
f 14/14/14 13/13/13 15/15/15
f 16/16/16 14/14/14 15/15/15
f 17/17/17 16/16/16 15/15/15
f 18/18/18 17/17/17 15/15/15
f 20/20/20 19/19/19 21/21/21
f 19/19/19 22/22/22 23/23/23
f 19/19/19 20/20/20 24/24/24
f 22/22/22 19/19/19 24/24/24
f 26/26/26 25/25/25 27/27/27
f 28/28/28 26/26/26 27/27/27
f 25/25/25 26/26/26 29/29/29
f 26/26/26 30/30/30 29/29/29
f 32/32/32 31/31/31 33/33/33
f 34/34/34 32/32/32 33/33/33
f 35/35/35 32/32/32 36/36/36
f 32/32/32 34/34/34 36/36/36
f 38/38/38 37/37/37 39/39/39
f 40/40/40 38/38/38 39/39/39
f 41/41/41 38/38/38 42/42/42
f 38/38/38 40/40/40 42/42/42
f 43/43/43 38/38/38 44/44/44
f 38/38/38 41/41/41 44/44/44
f 38/38/38 43/43/43 45/45/45
f 37/37/37 38/38/38 45/45/45
f 47/47/47 46/46/46 48/48/48
f 50/50/50 49/49/49 51/51/51
f 52/52/52 50/50/50 51/51/51
f 47/47/47 52/52/52 51/51/51
f 46/46/46 47/47/47 51/51/51
f 54/54/54 53/53/53 55/55/55
f 56/56/56 54/54/54 57/57/57
f 54/54/54 56/56/56 58/58/58
f 53/53/53 54/54/54 58/58/58
f 60/60/60 59/59/59 61/61/61
f 63/63/63 62/62/62 64/64/64
f 65/65/65 63/63/63 64/64/64
f 59/59/59 60/60/60 64/64/64
f 62/62/62 59/59/59 64/64/64
f 67/67/67 66/66/66 68/68/68
f 66/66/66 67/67/67 69/69/69
f 67/67/67 70/70/70 69/69/69
f 70/70/70 71/71/71 69/69/69
f 73/73/73 72/72/72 74/74/74
f 74/74/74 72/72/72 75/75/75
f 72/72/72 73/73/73 76/76/76
f 73/73/73 77/77/77 76/76/76
f 79/79/79 78/78/78 80/80/80
f 81/81/81 79/79/79 80/80/80
f 82/82/82 79/79/79 83/83/83
f 79/79/79 81/81/81 83/83/83
f 85/85/85 84/84/84 86/86/86
f 88/88/88 87/87/87 86/86/86
f 84/84/84 88/88/88 86/86/86
f 89/89/89 86/86/86 87/87/87
f 90/90/90 89/89/89 87/87/87
f 91/91/91 89/89/89 92/92/92
f 89/89/89 90/90/90 92/92/92
f 93/93/93 89/89/89 91/91/91
f 93/93/93 91/91/91 94/94/94
f 89/89/89 93/93/93 86/86/86
f 86/86/86 93/93/93 85/85/85
f 95/95/95 85/85/85 93/93/93
f 96/96/96 95/95/95 93/93/93
f 94/94/94 96/96/96 93/93/93
f 85/85/85 95/95/95 97/97/97
f 84/84/84 85/85/85 97/97/97
f 99/99/99 98/98/98 100/100/100
f 98/98/98 99/99/99 101/101/101
f 102/102/102 98/98/98 101/101/101
f 103/103/103 102/102/102 101/101/101
f 105/105/105 104/104/104 106/106/106
f 107/107/107 105/105/105 106/106/106
f 108/108/108 107/107/107 106/106/106
f 109/109/109 108/108/108 106/106/106
f 111/111/111 110/110/110 112/112/112
f 113/113/113 111/111/111 112/112/112
f 114/114/114 113/113/113 112/112/112
f 115/115/115 114/114/114 112/112/112
f 117/117/117 116/116/116 118/118/118
f 119/119/119 117/117/117 118/118/118
f 116/116/116 117/117/117 120/120/120
f 116/116/116 120/120/120 121/121/121
f 123/123/123 122/122/122 124/124/124
f 125/125/125 123/123/123 124/124/124
f 126/126/126 123/123/123 127/127/127
f 123/123/123 125/125/125 127/127/127
f 129/129/129 128/128/128 130/130/130
f 131/131/131 129/129/129 130/130/130
f 132/132/132 129/129/129 133/133/133
f 129/129/129 134/134/134 133/133/133
f 129/129/129 132/132/132 135/135/135
f 128/128/128 129/129/129 135/135/135
f 134/134/134 129/129/129 136/136/136
f 129/129/129 131/131/131 136/136/136
f 138/138/138 137/137/137 139/139/139
f 140/140/140 138/138/138 139/139/139
f 141/141/141 140/140/140 139/139/139
f 142/142/142 141/141/141 139/139/139
f 144/144/144 143/143/143 145/145/145
f 143/143/143 144/144/144 146/146/146
f 147/147/147 143/143/143 146/146/146
f 148/148/148 147/147/147 146/146/146
f 150/150/150 149/149/149 151/151/151
f 152/152/152 150/150/150 151/151/151
f 153/153/153 152/152/152 151/151/151
f 154/154/154 153/153/153 151/151/151
f 156/156/156 155/155/155 157/157/157
f 155/155/155 156/156/156 158/158/158
f 159/159/159 155/155/155 158/158/158
f 160/160/160 159/159/159 158/158/158
f 162/162/162 161/161/161 163/163/163
f 164/164/164 162/162/162 163/163/163
f 161/161/161 162/162/162 165/165/165
f 161/161/161 165/165/165 166/166/166
f 168/168/168 167/167/167 169/169/169
f 170/170/170 168/168/168 169/169/169
f 171/171/171 168/168/168 170/170/170
f 171/171/171 170/170/170 172/172/172
f 174/174/174 173/173/173 175/175/175
f 174/174/174 175/175/175 176/176/176
f 173/173/173 177/177/177 178/178/178
f 179/179/179 173/173/173 178/178/178
f 177/177/177 173/173/173 174/174/174
f 177/177/177 174/174/174 180/180/180
f 173/173/173 179/179/179 181/181/181
f 175/175/175 173/173/173 181/181/181
f 183/183/183 182/182/182 184/184/184
f 185/185/185 183/183/183 184/184/184
f 186/186/186 185/185/185 184/184/184
f 187/187/187 186/186/186 184/184/184
f 189/189/189 188/188/188 190/190/190
f 188/188/188 189/189/189 191/191/191
f 192/192/192 188/188/188 191/191/191
f 193/193/193 192/192/192 191/191/191
f 195/195/195 194/194/194 196/196/196
f 197/197/197 195/195/195 196/196/196
f 198/198/198 197/197/197 196/196/196
f 199/199/199 198/198/198 196/196/196
f 201/201/201 200/200/200 202/202/202
f 200/200/200 201/201/201 203/203/203
f 204/204/204 200/200/200 203/203/203
f 205/205/205 204/204/204 203/203/203
f 207/207/207 206/206/206 208/208/208
f 209/209/209 207/207/207 208/208/208
f 206/206/206 207/207/207 210/210/210
f 207/207/207 211/211/211 210/210/210
f 213/213/213 212/212/212 214/214/214
f 215/215/215 213/213/213 214/214/214
f 216/216/216 213/213/213 215/215/215
f 216/216/216 215/215/215 217/217/217
f 219/219/219 218/218/218 220/220/220
f 218/218/218 221/221/221 220/220/220
f 221/221/221 218/218/218 222/222/222
f 221/221/221 222/222/222 223/223/223
f 218/218/218 224/224/224 225/225/225
f 222/222/222 218/218/218 225/225/225
f 218/218/218 219/219/219 226/226/226
f 224/224/224 218/218/218 226/226/226
f 228/228/228 227/227/227 229/229/229
f 230/230/230 228/228/228 229/229/229
f 232/232/232 231/231/231 229/229/229
f 227/227/227 232/232/232 229/229/229
f 234/234/234 233/233/233 235/235/235
f 236/236/236 234/234/234 235/235/235
f 238/238/238 237/237/237 235/235/235
f 233/233/233 238/238/238 235/235/235
f 240/240/240 239/239/239 241/241/241
f 242/242/242 240/240/240 241/241/241
f 244/244/244 243/243/243 241/241/241
f 239/239/239 244/244/244 241/241/241
f 246/246/246 245/245/245 247/247/247
f 248/248/248 246/246/246 247/247/247
f 245/245/245 246/246/246 249/249/249
f 246/246/246 250/250/250 249/249/249
f 252/252/252 251/251/251 253/253/253
f 254/254/254 252/252/252 253/253/253
f 255/255/255 252/252/252 256/256/256
f 252/252/252 254/254/254 256/256/256
f 258/258/258 257/257/257 259/259/259
f 260/260/260 258/258/258 259/259/259
f 258/258/258 261/261/261 262/262/262
f 257/257/257 258/258/258 262/262/262
f 261/261/261 258/258/258 263/263/263
f 258/258/258 264/264/264 263/263/263
f 264/264/264 258/258/258 265/265/265
f 258/258/258 260/260/260 265/265/265
f 267/267/267 266/266/266 268/268/268
f 266/266/266 267/267/267 269/269/269
f 270/270/270 266/266/266 269/269/269
f 271/271/271 270/270/270 269/269/269
f 273/273/273 272/272/272 274/274/274
f 275/275/275 273/273/273 274/274/274
f 276/276/276 275/275/275 274/274/274
f 277/277/277 276/276/276 274/274/274
f 279/279/279 278/278/278 280/280/280
f 278/278/278 279/279/279 281/281/281
f 282/282/282 278/278/278 281/281/281
f 283/283/283 282/282/282 281/281/281
f 285/285/285 284/284/284 286/286/286
f 284/284/284 285/285/285 287/287/287
f 288/288/288 284/284/284 287/287/287
f 289/289/289 288/288/288 287/287/287
f 291/291/291 290/290/290 292/292/292
f 293/293/293 291/291/291 292/292/292
f 290/290/290 291/291/291 294/294/294
f 290/290/290 294/294/294 295/295/295
f 297/297/297 296/296/296 298/298/298
f 299/299/299 297/297/297 298/298/298
f 300/300/300 297/297/297 299/299/299
f 300/300/300 299/299/299 301/301/301
f 303/303/303 302/302/302 304/304/304
f 305/305/305 303/303/303 304/304/304
f 302/302/302 303/303/303 306/306/306
f 302/302/302 306/306/306 307/307/307
f 306/306/306 303/303/303 308/308/308
f 306/306/306 308/308/308 309/309/309
f 303/303/303 305/305/305 310/310/310
f 308/308/308 303/303/303 310/310/310
f 312/312/312 311/311/311 313/313/313
f 311/311/311 312/312/312 314/314/314
f 315/315/315 311/311/311 314/314/314
f 316/316/316 315/315/315 314/314/314
f 318/318/318 317/317/317 319/319/319
f 317/317/317 318/318/318 320/320/320
f 321/321/321 317/317/317 320/320/320
f 322/322/322 321/321/321 320/320/320
f 324/324/324 323/323/323 325/325/325
f 323/323/323 324/324/324 326/326/326
f 327/327/327 323/323/323 326/326/326
f 328/328/328 327/327/327 326/326/326
f 330/330/330 329/329/329 331/331/331
f 329/329/329 330/330/330 332/332/332
f 333/333/333 329/329/329 332/332/332
f 334/334/334 333/333/333 332/332/332
f 336/336/336 335/335/335 337/337/337
f 338/338/338 336/336/336 337/337/337
f 335/335/335 336/336/336 339/339/339
f 336/336/336 340/340/340 339/339/339
f 342/342/342 341/341/341 343/343/343
f 344/344/344 342/342/342 343/343/343
f 345/345/345 342/342/342 346/346/346
f 342/342/342 344/344/344 346/346/346
f 348/348/348 347/347/347 349/349/349
f 350/350/350 348/348/348 349/349/349
f 351/351/351 348/348/348 352/352/352
f 348/348/348 353/353/353 352/352/352
f 348/348/348 351/351/351 354/354/354
f 347/347/347 348/348/348 354/354/354
f 353/353/353 348/348/348 355/355/355
f 348/348/348 350/350/350 355/355/355
