mtllib ./WallThinTop2_5.mtl
g pb-MergedObject-1325762
v 0 0.2199984 -0.1
v 0.25 -1.907349E-06 -0.1
v 0.25 0.2199984 -0.1
v -0.25 -1.907349E-06 -0.1
v -0.25 0.2199984 -0.1
v 0 -1.907349E-06 -0.1
v 0.25 0.2199984 0.0999999
v 0.25 -1.907349E-06 0.3
v 0.25 0.2199984 0.3
v 0.25 -1.907349E-06 0.0999999
v 0.25 0.2199984 -0.1
v 0.25 -1.907349E-06 -0.1
v -0.25 -1.907349E-06 -0.1
v -0.25 0.2199984 -0.1
v -0.25 -1.907349E-06 0.0999999
v -0.25 0.2199984 0.0999999
v -0.25 0.2199984 0.3
v -0.25 -1.907349E-06 0.3
v 0 0.2199984 0.3
v -0.25 -1.907349E-06 0.3
v -0.25 0.2199984 0.3
v 0.25 -1.907349E-06 0.3
v 0.25 0.2199984 0.3
v 0 -1.907349E-06 0.3
v 0 -1.907349E-06 -0.1
v 0 -1.907349E-06 0.0999999
v 0.25 -1.907349E-06 -0.1
v 0.25 -1.907349E-06 0.0999999
v -0.25 -1.907349E-06 -0.1
v -0.25 -1.907349E-06 0.0999999
v 0.25 -1.907349E-06 0.0999999
v 0 -1.907349E-06 0.0999999
v 0.25 -1.907349E-06 0.3
v 0 -1.907349E-06 0.3
v -0.25 -1.907349E-06 0.0999999
v -0.25 -1.907349E-06 0.3
v 0.25 0.2199984 0.0999999
v 0 0.2199984 0.0999999
v 0.25 0.2199984 -0.1
v 0 0.2199984 -0.1
v -0.25 0.2199984 0.0999999
v -0.25 0.2199984 -0.1
v 0 0.2199984 0.3
v -0.25 0.2199984 0.3
v 0.25 0.2199984 0.3
v 1.15 -0.03100204 -0.09800005
v 1.225 0.2489977 -0.09800005
v 1.15 0.2489977 -0.09800005
v 1.45 -0.03100204 -0.09800005
v 1.45 0.2489977 -0.09800005
v 1.3 -0.03100204 -0.09800005
v 1.3 0.2489977 -0.09800005
v 1.45 -0.03100204 -0.09800005
v 1.45 0.2489977 0.1019999
v 1.45 0.2489977 -0.09800005
v 1.45 -0.03100204 0.3019999
v 1.45 0.2489977 0.3019999
v 1.45 -0.03100204 0.1019999
v 1.15 0.2489977 0.001999974
v 1.15 -0.03100204 -0.09800005
v 1.15 0.2489977 -0.09800005
v 1.15 0.2489977 0.1019999
v 1.15 0.2489977 0.3019999
v 1.15 -0.03100204 0.1019999
v 1.15 -0.03100204 0.3019999
v 1.45 -0.03100204 0.3019999
v 1.3 0.2489977 0.3019999
v 1.45 0.2489977 0.3019999
v 1.3 -0.03100204 0.3019999
v 1.15 0.2489977 0.3019999
v 1.15 -0.03100204 0.3019999
v 1.3 -0.03100204 -0.09800005
v 1.3 -0.03100204 0.1019999
v 1.45 -0.03100204 0.1019999
v 1.45 -0.03100204 -0.09800005
v 1.15 -0.03100204 -0.09800005
v 1.15 -0.03100204 0.1019999
v 1.45 -0.03100204 0.1019999
v 1.3 -0.03100204 0.1019999
v 1.45 -0.03100204 0.3019999
v 1.3 -0.03100204 0.3019999
v 1.15 -0.03100204 0.1019999
v 1.15 -0.03100204 0.3019999
v 1.45 0.2489977 0.1019999
v 1.3 0.2489977 0.1019999
v 1.3 0.2489977 0.001999974
v 1.3 0.2489977 -0.09800005
v 1.45 0.2489977 -0.09800005
v 1.225 0.2489977 0.001999974
v 1.225 0.2489977 -0.09800005
v 1.15 0.2489977 0.001999974
v 1.15 0.2489977 -0.09800005
v 1.225 0.2489977 0.1019999
v 1.15 0.2489977 0.1019999
v 1.3 0.2489977 0.3019999
v 1.15 0.2489977 0.3019999
v 1.45 0.2489977 0.3019999
v 2.4 0.2289972 0.321
v 1.8 0.2289972 0.321
v 2.4 0.2289972 -0.09899998
v 1.8 0.2289972 -0.09899998
v 2.4 -0.001002312 -0.09899998
v 2.4 0.2289972 -0.09899998
v 2.1 -0.001002312 -0.09899998
v 1.8 0.2289972 -0.09899998
v 1.8 -0.001002312 -0.09899998
v 2.4 0.2289972 -0.09899998
v 2.4 -0.001002312 -0.09899998
v 2.4 -0.001002312 0.1109999
v 2.4 -0.001002312 0.321
v 2.4 0.2289972 0.321
v 1.8 0.2289972 0.321
v 1.8 -0.001002312 0.321
v 1.8 -0.001002312 0.1109999
v 1.8 -0.001002312 -0.09899998
v 1.8 0.2289972 -0.09899998
v 1.8 -0.001002312 0.321
v 1.8 0.2289972 0.321
v 2.1 -0.001002312 0.321
v 2.4 0.2289972 0.321
v 2.4 -0.001002312 0.321
v 2.1 -0.001002312 -0.09899998
v 2.1 -0.001002312 0.1109999
v 2.4 -0.001002312 -0.09899998
v 2.4 -0.001002312 0.1109999
v 1.8 -0.001002312 -0.09899998
v 1.8 -0.001002312 0.1109999
v 2.4 -0.001002312 0.1109999
v 2.1 -0.001002312 0.1109999
v 2.4 -0.001002312 0.321
v 2.1 -0.001002312 0.321
v 1.8 -0.001002312 0.1109999
v 1.8 -0.001002312 0.321
v 0.4499998 0.2289972 -0.08000004
v 0.6499999 -0.01100254 -0.08000004
v 0.6499999 0.2289972 -0.08000004
v 0.4499998 -0.01100254 -0.08000004
v 0.2499998 0.2289972 -0.08000004
v 0.2499998 -0.01100254 -0.08000004
v 0.2499998 -0.01100254 -0.08000004
v 0.2499998 0.2289972 -0.08000004
v 0.2499998 -0.01100254 0.1
v 0.2499998 0.2289972 0.1
v 0.2499998 0.2289972 0.28
v 0.2499998 -0.01100254 0.28
v 0.2499998 -0.01100254 0.28
v 0.2499998 0.2289972 0.28
v 0.4499998 -0.01100254 0.28
v 0.4499998 0.2289972 0.28
v 0.6499999 0.2289972 0.28
v 0.6499999 -0.01100254 0.28
v 0.4499998 -0.01100254 -0.08000004
v 0.4499998 -0.01100254 0.1
v 0.6499999 -0.01100254 -0.08000004
v 0.6499999 -0.01100254 0.1
v 0.2499998 -0.01100254 0.1
v 0.2499998 -0.01100254 -0.08000004
v 0.6499999 -0.01100254 0.1
v 0.4499998 -0.01100254 0.1
v 0.6499999 -0.01100254 0.28
v 0.4499998 -0.01100254 0.28
v 0.2499998 -0.01100254 0.1
v 0.2499998 -0.01100254 0.28
v 0.6499999 0.2289972 0.1
v 0.4499998 0.2289972 0.1
v 0.6499999 0.2289972 -0.08000004
v 0.4499998 0.2289972 -0.08000004
v 0.4499998 0.2289972 0.28
v 0.2499998 0.2289972 0.28
v 0.2499998 0.2289972 0.1
v 0.6499999 0.2289972 0.28
v 0.2499998 0.2289972 -0.08000004
v -1.157421 -0.02200222 -0.08899999
v -1.157421 0.2179976 -0.08899999
v -1.5 -0.02200222 -0.08899999
v -1.5 0.2179976 -0.08899999
v -1.85 0.2179976 -0.08899999
v -1.85 -0.02200222 -0.08899999
v -1.157421 0.2179976 0.101
v -1.157421 -0.02200222 0.291
v -1.157421 0.2179976 0.291
v -1.157421 -0.02200222 0.101
v -1.157421 0.2179976 -0.08899999
v -1.157421 -0.02200222 -0.08899999
v -1.85 -0.02200222 -0.08899999
v -1.85 0.2179976 -0.08899999
v -1.85 -0.02200222 0.101
v -1.85 0.2179976 0.101
v -1.85 0.2179976 0.291
v -1.85 -0.02200222 0.291
v -1.5 0.2179976 0.291
v -1.85 -0.02200222 0.291
v -1.85 0.2179976 0.291
v -1.5 -0.02200222 0.291
v -1.157421 0.2179976 0.291
v -1.157421 -0.02200222 0.291
v -1.5 -0.02200222 -0.08899999
v -1.5 -0.02200222 0.101
v -1.157421 -0.02200222 -0.08899999
v -1.157421 -0.02200222 0.101
v -1.85 -0.02200222 0.101
v -1.85 -0.02200222 -0.08899999
v -1.157421 -0.02200222 0.101
v -1.5 -0.02200222 0.101
v -1.157421 -0.02200222 0.291
v -1.5 -0.02200222 0.291
v -1.85 -0.02200222 0.101
v -1.85 -0.02200222 0.291
v -1.5 0.2179976 0.101
v -1.85 0.2179976 0.101
v -1.5 0.2179976 -0.08899999
v -1.85 0.2179976 -0.08899999
v -1.5 0.2179976 0.291
v -1.157421 0.2179976 0.291
v -1.157421 0.2179976 0.101
v -1.85 0.2179976 0.291
v -1.157421 0.2179976 -0.08899999
v -0.8 -0.006002426 -0.101
v -0.8 0.2239971 -0.101
v -0.9749999 -0.006002426 -0.101
v -0.9749999 0.2239971 -0.101
v -1.15 0.2239971 -0.101
v -1.15 -0.006002426 -0.101
v -0.8 0.2239971 0.09899998
v -0.8 -0.006002426 0.299
v -0.8 0.2239971 0.299
v -0.8 -0.006002426 0.09899998
v -0.8 0.2239971 -0.101
v -0.8 -0.006002426 -0.101
v -1.15 -0.006002426 -0.101
v -1.15 0.2239971 -0.101
v -1.15 -0.006002426 0.09899998
v -1.15 0.2239971 0.09899998
v -1.15 0.2239971 0.299
v -1.15 -0.006002426 0.299
v -0.9749999 0.2239971 0.299
v -1.15 -0.006002426 0.299
v -1.15 0.2239971 0.299
v -0.9749999 -0.006002426 0.299
v -0.8 0.2239971 0.299
v -0.8 -0.006002426 0.299
v -0.9749999 -0.006002426 -0.101
v -0.9749999 -0.006002426 0.09899998
v -0.8 -0.006002426 -0.101
v -0.8 -0.006002426 0.09899998
v -1.15 -0.006002426 -0.101
v -1.15 -0.006002426 0.09899998
v -0.8 -0.006002426 0.09899998
v -0.9749999 -0.006002426 0.09899998
v -0.8 -0.006002426 0.299
v -0.9749999 -0.006002426 0.299
v -1.15 -0.006002426 0.09899998
v -1.15 -0.006002426 0.299
v -0.9749999 0.2239971 0.09899998
v -0.9749999 0.2239971 0.299
v -1.15 0.2239971 0.299
v -1.15 0.2239971 0.09899998
v -0.9749999 0.2239971 -0.101
v -1.15 0.2239971 -0.101
v -0.8 0.2239971 0.09899998
v -0.8 0.2239971 -0.101
v -0.8 0.2239971 0.299
v 0.9 0.2399979 -0.08899999
v 0.6499999 0.2399979 -0.08899999
v 0.9 -0.02000237 -0.08899999
v 0.6499999 -0.02000237 -0.08899999
v 1.15 -0.02000237 -0.08899999
v 1.15 0.2399979 -0.08899999
v 0.6499999 0.2399979 0.101
v 0.6499999 0.2399979 0.291
v 0.6499999 -0.02000237 0.101
v 0.6499999 -0.02000237 0.291
v 0.6499999 -0.02000237 -0.08899999
v 0.6499999 0.2399979 -0.08899999
v 0.9 0.2399979 0.291
v 1.15 0.2399979 0.291
v 0.9 -0.02000237 0.291
v 1.15 -0.02000237 0.291
v 0.6499999 -0.02000237 0.291
v 0.6499999 0.2399979 0.291
v 0.9 -0.02000237 -0.08899999
v 0.9 -0.02000237 0.101
v 1.15 -0.02000237 -0.08899999
v 1.15 -0.02000237 0.101
v 0.6499999 -0.02000237 -0.08899999
v 0.6499999 -0.02000237 0.101
v 1.15 -0.02000237 0.101
v 0.9 -0.02000237 0.101
v 1.15 -0.02000237 0.291
v 0.9 -0.02000237 0.291
v 0.6499999 -0.02000237 0.101
v 0.6499999 -0.02000237 0.291
v 1.15 0.2399979 0.101
v 0.9 0.2399979 0.101
v 1.15 0.2399979 -0.08899999
v 0.9 0.2399979 -0.08899999
v 0.9 0.2399979 0.291
v 1.15 0.2399979 0.291
v 0.6499999 0.2399979 0.291
v 0.6499999 0.2399979 0.101
v 0.6499999 0.2399979 -0.08899999
v -0.5250001 0.2289972 -0.08899999
v -0.25 -0.01100254 -0.08899999
v -0.25 0.2289972 -0.08899999
v -0.5250001 -0.01100254 -0.08899999
v -0.8 0.2289972 -0.08899999
v -0.8 -0.01100254 -0.08899999
v -0.25 -0.01100254 0.281
v -0.25 0.2289972 0.281
v -0.25 -0.01100254 0.09600008
v -0.25 0.2289972 0.09600008
v -0.25 0.2289972 -0.08899999
v -0.25 -0.01100254 -0.08899999
v -0.8 0.2289972 0.09600008
v -0.8 -0.01100254 -0.08899999
v -0.8 0.2289972 -0.08899999
v -0.8 -0.01100254 0.09600008
v -0.8 0.2289972 0.281
v -0.8 -0.01100254 0.281
v -0.5250001 0.2289972 0.281
v -0.8 -0.01100254 0.281
v -0.8 0.2289972 0.281
v -0.5250001 -0.01100254 0.281
v -0.25 0.2289972 0.281
v -0.25 -0.01100254 0.281
v -0.5250001 -0.01100254 -0.08899999
v -0.5250001 -0.01100254 0.09600008
v -0.25 -0.01100254 -0.08899999
v -0.25 -0.01100254 0.09600008
v -0.8 -0.01100254 0.09600008
v -0.8 -0.01100254 -0.08899999
v -0.25 -0.01100254 0.09600008
v -0.5250001 -0.01100254 0.09600008
v -0.25 -0.01100254 0.281
v -0.5250001 -0.01100254 0.281
v -0.8 -0.01100254 0.09600008
v -0.8 -0.01100254 0.281
v -0.5250001 0.2289972 0.281
v -0.5250001 0.2289972 0.09600008
v -0.25 0.2289972 0.281
v -0.25 0.2289972 0.09600008
v -0.8 0.2289972 0.09600008
v -0.8 0.2289972 0.281
v -0.5250001 0.2289972 -0.08899999
v -0.8 0.2289972 -0.08899999
v -0.25 0.2289972 -0.08899999
v 1.8 0.2139978 0.311
v 1.45 0.2139978 0.311
v 1.8 0.2139978 -0.08899999
v 1.45 0.2139978 -0.08899999
v 1.45 0.2139978 -0.08899999
v 1.45 0.003997803 -0.08899999
v 1.625 0.003997803 -0.08899999
v 1.8 0.003997803 -0.08899999
v 1.8 0.2139978 -0.08899999
v 1.8 0.2139978 0.311
v 1.8 0.003997803 0.311
v 1.625 0.003997803 0.311
v 1.45 0.003997803 0.311
v 1.45 0.2139978 0.311
v 1.625 0.003997803 -0.08899999
v 1.625 0.003997803 0.1109999
v 1.8 0.003997803 -0.08899999
v 1.8 0.003997803 0.1109999
v 1.45 0.003997803 -0.08899999
v 1.45 0.003997803 0.1109999
v 1.8 0.003997803 0.1109999
v 1.625 0.003997803 0.1109999
v 1.8 0.003997803 0.311
v 1.625 0.003997803 0.311
v 1.45 0.003997803 0.1109999
v 1.45 0.003997803 0.311
v -2.225 0.2329979 -0.105
v -1.85 -0.01700211 -0.105
v -1.85 0.2329979 -0.105
v -2.225 -0.01700211 -0.105
v -2.6 0.2329979 -0.105
v -2.6 -0.01700211 -0.105
v -1.85 0.2329979 0.09499991
v -1.85 -0.01700211 0.295
v -1.85 0.2329979 0.295
v -1.85 -0.01700211 0.09499991
v -1.85 0.2329979 -0.105
v -1.85 -0.01700211 -0.105
v -2.6 0.2329979 0.09499991
v -2.6 -0.01700211 -0.105
v -2.6 0.2329979 -0.105
v -2.6 -0.01700211 0.09499991
v -2.6 0.2329979 0.295
v -2.6 -0.01700211 0.295
v -2.225 0.2329979 0.295
v -2.6 -0.01700211 0.295
v -2.6 0.2329979 0.295
v -2.225 -0.01700211 0.295
v -1.85 0.2329979 0.295
v -1.85 -0.01700211 0.295
v -2.225 -0.01700211 -0.105
v -2.225 -0.01700211 0.09499991
v -1.85 -0.01700211 -0.105
v -1.85 -0.01700211 0.09499991
v -2.6 -0.01700211 -0.105
v -2.6 -0.01700211 0.09499991
v -1.85 -0.01700211 0.09499991
v -2.225 -0.01700211 0.09499991
v -1.85 -0.01700211 0.295
v -2.225 -0.01700211 0.295
v -2.6 -0.01700211 0.09499991
v -2.6 -0.01700211 0.295
v -1.85 0.2329979 0.09499991
v -2.225 0.2329979 0.09499991
v -1.85 0.2329979 -0.105
v -2.225 0.2329979 -0.105
v -2.225 0.2329979 0.295
v -2.6 0.2329979 0.295
v -2.6 0.2329979 0.09499991
v -1.85 0.2329979 0.295
v -2.6 0.2329979 -0.105

vn 0 0 -1
vn 0 0 -1
vn 0 0 -1
vn 0 0 -1
vn 0 0 -1
vn 0 0 -1
vn 1 0 0
vn 1 0 0
vn 1 0 0
vn 1 0 0
vn 1 0 0
vn 1 0 0
vn -1 0 0
vn -1 0 0
vn -1 0 0
vn -1 0 0
vn -1 0 0
vn -1 0 0
vn 0 0 1
vn 0 0 1
vn 0 0 1
vn 0 0 1
vn 0 0 1
vn 0 0 1
vn 0 -1 0
vn 0 -1 0
vn 0 -1 0
vn 0 -1 0
vn 0 -1 0
vn 0 -1 0
vn 0 -1 0
vn 0 -1 0
vn 0 -1 0
vn 0 -1 0
vn 0 -1 0
vn 0 -1 0
vn 0 1 0
vn 0 1 0
vn 0 1 0
vn 0 1 0
vn 0 1 0
vn 0 1 0
vn 0 1 0
vn 0 1 0
vn 0 1 0
vn 0 0 -1
vn 0 0 -1
vn 0 0 -1
vn 0 0 -1
vn 0 0 -1
vn 0 0 -1
vn 0 0 -1
vn 1 0 0
vn 0.9999999 0 0
vn 1 0 0
vn 1 0 0
vn 1 0 0
vn 0.9999999 0 0
vn -1 0 0
vn -1 0 0
vn -1 0 0
vn -1 0 0
vn -1 0 0
vn -1 0 0
vn -1 0 0
vn 0 0 1
vn 0 0 1
vn 0 0 1
vn 0 0 1
vn 0 0 1
vn 0 0 1
vn 0 -1 0
vn 0 -1 0
vn 0 -1 0
vn 0 -1 0
vn 0 -1 0
vn 0 -1 0
vn 0 -0.9999999 0
vn 0 -1 0
vn 0 -0.9999999 0
vn 0 -1 0
vn 0 -1 0
vn 0 -1 0
vn 0 1 0
vn 0 1 0
vn 0 1 0
vn 0 1 0
vn 0 1 0
vn 0 1 0
vn 0 1 0
vn 0 1 0
vn 0 1 0
vn 0 1 0
vn 0 1 0
vn 0 1 0
vn 0 1 0
vn 0 0.9999999 0
vn 0 1 0
vn 0 1 0
vn 0 1 0
vn 0 1 0
vn 0 0 -1
vn 0 0 -1
vn 0 0 -1
vn 0 0 -1
vn 0 0 -1
vn 1 0 0
vn 1 0 0
vn 1 0 0
vn 1 0 0
vn 1 0 0
vn -1 0 0
vn -1 0 0
vn -1 0 0
vn -1 0 0
vn -1 0 0
vn 0 0 1
vn 0 0 1
vn 0 0 1
vn 0 0 1
vn 0 0 1
vn 0 -1 0
vn 0 -1 0
vn 0 -1 0
vn 0 -1 0
vn 0 -1 0
vn 0 -1 0
vn 0 -1 0
vn 0 -1 0
vn 0 -1 0
vn 0 -1 0
vn 0 -1 0
vn 0 -1 0
vn 0 0 -1
vn 0 0 -1
vn 0 0 -1
vn 0 0 -1
vn 0 0 -1
vn 0 0 -1
vn -1 0 0
vn -1 0 0
vn -0.9999999 0 0
vn -0.9999999 0 0
vn -1 0 0
vn -1 0 0
vn 0 0 1
vn 0 0 1
vn 0 0 1
vn 0 0 1
vn 0 0 1
vn 0 0 1
vn 0 -0.9999999 0
vn 0 -0.9999999 0
vn 0 -1 0
vn 0 -1 0
vn 0 -1 0
vn 0 -1 0
vn 0 -1 0
vn 0 -1 0
vn 0 -1 0
vn 0 -1 0
vn 0 -1 0
vn 0 -1 0
vn 0 1 0
vn 0 1 0
vn 0 1 0
vn 0 1 0
vn 0 1 0
vn 0 1 0
vn 0 1 0
vn 0 1 0
vn 0 1 0
vn 0 0 -1
vn 0 0 -1
vn 0 0 -1
vn 0 0 -1
vn 0 0 -1
vn 0 0 -1
vn 1 0 0
vn 1 0 0
vn 1 0 0
vn 1 0 0
vn 1 0 0
vn 1 0 0
vn -1 0 0
vn -1 0 0
vn -1 0 0
vn -1 0 0
vn -1 0 0
vn -1 0 0
vn 0 0 1
vn 0 0 1
vn 0 0 1
vn 0 0 1
vn 0 0 1
vn 0 0 1
vn 0 -1 0
vn 0 -0.9999999 0
vn 0 -1 0
vn 0 -1 0
vn 0 -1 0
vn 0 -1 0
vn 0 -1 0
vn 0 -1 0
vn 0 -1 0
vn 0 -1 0
vn 0 -1 0
vn 0 -1 0
vn 0 0.9999999 0
vn 0 1 0
vn 0 1 0
vn 0 1 0
vn 0 1 0
vn 0 1 0
vn 0 1 0
vn 0 1 0
vn 0 1 0
vn 0 0 -1
vn 0 0 -1
vn 0 0 -1
vn 0 0 -1
vn 0 0 -1
vn 0 0 -1
vn 1 0 0
vn 1 0 0
vn 1 0 0
vn 1 0 0
vn 1 0 0
vn 1 0 0
vn -1 0 0
vn -1 0 0
vn -1 0 0
vn -1 0 0
vn -1 0 0
vn -1 0 0
vn 0 0 1
vn 0 0 1
vn 0 0 1
vn 0 0 1
vn 0 0 1
vn 0 0 1
vn 0 -1 0
vn 0 -1 0
vn 0 -1 0
vn 0 -1 0
vn 0 -1 0
vn 0 -1 0
vn 0 -1 0
vn 0 -1 0
vn 0 -1 0
vn 0 -1 0
vn 0 -1 0
vn 0 -1 0
vn 0 1 0
vn 0 1 0
vn 0 1 0
vn 0 1 0
vn 0 1 0
vn 0 1 0
vn 0 1 0
vn 0 1 0
vn 0 1 0
vn 0 0 -1
vn 0 0 -1
vn 0 0 -1
vn 0 0 -1
vn 0 0 -1
vn 0 0 -1
vn -1 0 0
vn -1 0 0
vn -1 0 0
vn -1 0 0
vn -0.9999999 0 0
vn -0.9999999 0 0
vn 0 0 1
vn 0 0 1
vn 0 0 1
vn 0 0 1
vn 0 0 1
vn 0 0 1
vn 0 -1 0
vn 0 -1 0
vn 0 -1 0
vn 0 -1 0
vn 0 -1 0
vn 0 -1 0
vn 0 -1 0
vn 0 -1 0
vn 0 -1 0
vn 0 -1 0
vn 0 -1 0
vn 0 -1 0
vn 0 1 0
vn 0 1 0
vn 0 1 0
vn 0 1 0
vn 0 1 0
vn 0 1 0
vn 0 1 0
vn 0 1 0
vn 0 1 0
vn 0 0 -1
vn 0 0 -1
vn 0 0 -1
vn 0 0 -1
vn 0 0 -1
vn 0 0 -1
vn 0.9999999 0 0
vn 0.9999999 0 0
vn 0.9999999 0 0
vn 0.9999999 0 0
vn 0.9999999 0 0
vn 0.9999999 0 0
vn -1 0 0
vn -0.9999999 0 0
vn -0.9999999 0 0
vn -1 0 0
vn -0.9999999 0 0
vn -0.9999999 0 0
vn 0 0 1
vn 0 0 1
vn 0 0 1
vn 0 0 1
vn 0 0 1
vn 0 0 1
vn 0 -1 0
vn 0 -1 0
vn 0 -0.9999999 0
vn 0 -0.9999999 0
vn 0 -0.9999999 0
vn 0 -0.9999999 0
vn 0 -1 0
vn 0 -1 0
vn 0 -1 0
vn 0 -1 0
vn 0 -1 0
vn 0 -1 0
vn 0 1 0
vn 0 1 0
vn 0 1 0
vn 0 1 0
vn 0 0.9999999 0
vn 0 1 0
vn 0 1 0
vn 0 0.9999999 0
vn 0 0.9999999 0
vn 0 1 0
vn 0 1 0
vn 0 1 0
vn 0 1 0
vn 0 0 -1
vn 0 0 -0.9999999
vn 0 0 -1
vn 0 0 -1
vn 0 0 -0.9999999
vn 0 0 0.9999999
vn 0 0 1
vn 0 0 1
vn 0 0 0.9999999
vn 0 0 1
vn 0 -1 0
vn 0 -1 0
vn 0 -1 0
vn 0 -1 0
vn 0 -1 0
vn 0 -1 0
vn 0 -1 0
vn 0 -1 0
vn 0 -1 0
vn 0 -0.9999999 0
vn 0 -1 0
vn 0 -1 0
vn 0 0 -1
vn 0 0 -1
vn 0 0 -1
vn 0 0 -1
vn 0 0 -1
vn 0 0 -1
vn 1 0 0
vn 1 0 0
vn 1 0 0
vn 1 0 0
vn 1 0 0
vn 1 0 0
vn -1 0 0
vn -1 0 0
vn -1 0 0
vn -1 0 0
vn -1 0 0
vn -1 0 0
vn 0 0 1
vn 0 0 1
vn 0 0 1
vn 0 0 1
vn 0 0 1
vn 0 0 1
vn 0 -1 0
vn 0 -1 0
vn 0 -1 0
vn 0 -1 0
vn 0 -1 0
vn 0 -1 0
vn 0 -1 0
vn 0 -1 0
vn 0 -1 0
vn 0 -1 0
vn 0 -1 0
vn 0 -1 0
vn 0 1 0
vn 0 1 0
vn 0 1 0
vn 0 1 0
vn 0 1 0
vn 0 1 0
vn 0 1 0
vn 0 1 0
vn 0 1 0

vt 0.6704369 0.7732442
vt 0.6013041 0.7124072
vt 0.6013041 0.7732442
vt 0.7395698 0.7124072
vt 0.7395698 0.7732442
vt 0.6704369 0.7124072
vt 0.5459977 0.8838568
vt 0.6013041 0.9446937
vt 0.6013041 0.8838568
vt 0.5459977 0.9446937
vt 0.4906914 0.8838568
vt 0.4906914 0.9446937
vt 0.8004068 0.7732442
vt 0.7395698 0.7732442
vt 0.8004068 0.8285505
vt 0.7395698 0.8285505
vt 0.7395698 0.8838568
vt 0.8004068 0.8838568
vt 0.6704369 0.8838568
vt 0.7395698 0.9446937
vt 0.7395698 0.8838568
vt 0.6013041 0.9446937
vt 0.6013041 0.8838568
vt 0.6704369 0.9446937
vt 0.6704369 0.7124072
vt 0.6704369 0.6571009
vt 0.6013041 0.7124072
vt 0.6013041 0.6571009
vt 0.7395698 0.7124072
vt 0.7395698 0.6571009
vt 0.6013041 1
vt 0.6704369 1
vt 0.6013041 0.9446937
vt 0.6704369 0.9446937
vt 0.7395698 1
vt 0.7395698 0.9446937
vt 0.6013041 0.8285505
vt 0.6704369 0.8285505
vt 0.6013041 0.7732442
vt 0.6704369 0.7732442
vt 0.7395698 0.8285505
vt 0.7395698 0.7732442
vt 0.6704369 0.8838568
vt 0.7395698 0.8838568
vt 0.6013041 0.8838568
vt 0.8515123 0.05530632
vt 0.8307724 0.1327351
vt 0.8515123 0.1327351
vt 0.7685528 0.05530632
vt 0.7685528 0.1327351
vt 0.8100326 0.05530632
vt 0.8100326 0.1327351
vt 0.691124 0.1327351
vt 0.7685528 0.1880414
vt 0.7685528 0.1327351
vt 0.691124 0.2433477
vt 0.7685528 0.2433477
vt 0.691124 0.1880414
vt 0.8515123 0.1603882
vt 0.9289411 0.1327351
vt 0.8515123 0.1327351
vt 0.8515123 0.1880414
vt 0.8515123 0.2433477
vt 0.9289411 0.1880414
vt 0.9289411 0.2433477
vt 0.7685528 0.3207765
vt 0.8100326 0.2433477
vt 0.7685528 0.2433477
vt 0.8100326 0.3207765
vt 0.8515123 0.2433477
vt 0.8515123 0.3207765
vt 0.8100326 0.05530625
vt 0.8100326 0
vt 0.7685528 0
vt 0.7685528 0.05530632
vt 0.8515123 0.05530625
vt 0.8515123 0
vt 0.7685528 0.3760828
vt 0.8100326 0.3760828
vt 0.7685528 0.3207765
vt 0.8100326 0.3207765
vt 0.8515124 0.3760828
vt 0.8515123 0.3207765
vt 0.7685528 0.1880414
vt 0.8100326 0.1880414
vt 0.8100326 0.1603882
vt 0.8100326 0.1327351
vt 0.7685528 0.1327351
vt 0.8307724 0.1603882
vt 0.8307724 0.1327351
vt 0.8515123 0.1603882
vt 0.8515123 0.1327351
vt 0.8307724 0.1880414
vt 0.8515123 0.1880414
vt 0.8100326 0.2433477
vt 0.8515123 0.2433477
vt 0.7685528 0.2433477
vt 0.7556948 0.629729
vt 0.9216138 0.629729
vt 0.7556948 0.5135857
vt 0.9216138 0.5135857
vt 0.7556948 0.4499835
vt 0.7556948 0.5135857
vt 0.8386542 0.4499835
vt 0.9216138 0.5135857
vt 0.9216138 0.4499835
vt 0.7556949 0.5135857
vt 0.6920926 0.5135857
vt 0.6920926 0.5716574
vt 0.6920926 0.629729
vt 0.7556949 0.629729
vt 0.9216138 0.629729
vt 0.985216 0.629729
vt 0.985216 0.5716574
vt 0.985216 0.5135857
vt 0.9216138 0.5135857
vt 0.9216138 0.6933312
vt 0.9216138 0.629729
vt 0.8386542 0.6933312
vt 0.7556948 0.629729
vt 0.7556948 0.6933312
vt 0.8386542 0.4499835
vt 0.8386542 0.3919119
vt 0.7556948 0.4499835
vt 0.7556948 0.3919119
vt 0.9216138 0.4499835
vt 0.9216138 0.3919119
vt 0.7556949 0.7514028
vt 0.8386542 0.7514028
vt 0.7556949 0.6933312
vt 0.8386542 0.6933312
vt 0.9216138 0.7514028
vt 0.9216138 0.6933312
vt 0.5419692 0.5302442
vt 0.4866628 0.4638767
vt 0.4866628 0.5302442
vt 0.5419692 0.4638767
vt 0.5972754 0.5302442
vt 0.5972754 0.4638767
vt 0.6636431 0.5302442
vt 0.5972754 0.5302442
vt 0.6636431 0.5800199
vt 0.5972754 0.5800199
vt 0.5972754 0.6297956
vt 0.6636431 0.6297956
vt 0.5972754 0.6961632
vt 0.5972754 0.6297956
vt 0.5419692 0.6961632
vt 0.5419692 0.6297956
vt 0.4866628 0.6297956
vt 0.4866628 0.6961632
vt 0.5419692 0.4638767
vt 0.5419692 0.414101
vt 0.4866628 0.4638767
vt 0.4866628 0.414101
vt 0.5972754 0.414101
vt 0.5972754 0.4638767
vt 0.4866628 0.7459388
vt 0.5419692 0.7459388
vt 0.4866628 0.6961632
vt 0.5419692 0.6961632
vt 0.5972754 0.7459388
vt 0.5972754 0.6961632
vt 0.4866628 0.5800199
vt 0.5419692 0.5800199
vt 0.4866628 0.5302442
vt 0.5419692 0.5302442
vt 0.5419692 0.6297956
vt 0.5972754 0.6297956
vt 0.5972754 0.5800199
vt 0.4866628 0.6297956
vt 0.5972754 0.5302442
vt 0.4358363 0.1018798
vt 0.4358363 0.1682473
vt 0.5326224 0.1018798
vt 0.5326224 0.1682473
vt 0.6294084 0.1682473
vt 0.6294084 0.1018798
vt 0.3694688 0.3922379
vt 0.4358363 0.3396969
vt 0.3694688 0.3396969
vt 0.4358363 0.3922379
vt 0.3694688 0.4447788
vt 0.4358363 0.4447788
vt 0.6294084 0.4447788
vt 0.6957759 0.4447788
vt 0.6294084 0.3922379
vt 0.6957759 0.3922378
vt 0.6957759 0.3396969
vt 0.6294084 0.3396969
vt 0.5326224 0.2733293
vt 0.6294084 0.3396969
vt 0.6294084 0.2733293
vt 0.5326224 0.3396969
vt 0.4358363 0.2733293
vt 0.4358363 0.3396969
vt 0.5326224 0.1018798
vt 0.5326224 0.04933877
vt 0.4358363 0.1018798
vt 0.4358363 0.04933884
vt 0.6294084 0.04933877
vt 0.6294084 0.1018798
vt 0.4358363 0.3922378
vt 0.5326223 0.3922378
vt 0.4358363 0.3396969
vt 0.5326223 0.3396969
vt 0.6294084 0.3922378
vt 0.6294084 0.3396969
vt 0.5326224 0.2207883
vt 0.6294084 0.2207883
vt 0.5326224 0.1682473
vt 0.6294084 0.1682473
vt 0.5326224 0.2733293
vt 0.4358363 0.2733293
vt 0.4358363 0.2207883
vt 0.6294084 0.2733293
vt 0.4358363 0.1682473
vt 0.3705263 0.7020527
vt 0.3705263 0.7656549
vt 0.4189194 0.7020527
vt 0.4189194 0.7656549
vt 0.4673123 0.7656549
vt 0.4673123 0.7020527
vt 0.31522 0.8762674
vt 0.3705263 0.9398698
vt 0.3705263 0.8762674
vt 0.31522 0.9398698
vt 0.2599137 0.8762674
vt 0.2599137 0.9398698
vt 0.5309146 0.7656549
vt 0.4673123 0.7656549
vt 0.5309146 0.8209612
vt 0.4673123 0.8209612
vt 0.4673123 0.8762674
vt 0.5309146 0.8762674
vt 0.4189194 0.8762674
vt 0.4673123 0.9398698
vt 0.4673123 0.8762674
vt 0.4189194 0.9398698
vt 0.3705263 0.8762674
vt 0.3705263 0.9398698
vt 0.4189194 0.7020527
vt 0.4189194 0.6467463
vt 0.3705263 0.7020527
vt 0.3705263 0.6467463
vt 0.4673123 0.7020526
vt 0.4673123 0.6467463
vt 0.3705263 0.9951761
vt 0.4189194 0.9951761
vt 0.3705263 0.9398698
vt 0.4189194 0.9398698
vt 0.4673123 0.9951761
vt 0.4673123 0.9398698
vt 0.4189194 0.8209612
vt 0.4189194 0.8762674
vt 0.4673123 0.8762674
vt 0.4673123 0.8209612
vt 0.4189194 0.7656549
vt 0.4673123 0.7656549
vt 0.3705263 0.8209612
vt 0.3705263 0.7656549
vt 0.3705263 0.8762674
vt 0.06913287 0.7424011
vt 0.1382657 0.7424011
vt 0.06913287 0.670503
vt 0.1382657 0.670503
vt 0 0.670503
vt 0 0.7424011
vt 0.1382657 0.7949421
vt 0.1382657 0.8474831
vt 0.2101639 0.7949421
vt 0.2101639 0.8474831
vt 0.2101639 0.7424012
vt 0.1382657 0.7424012
vt 0.06913287 0.8474831
vt 0 0.8474831
vt 0.06913287 0.9193813
vt 0 0.9193813
vt 0.1382657 0.9193813
vt 0.1382657 0.8474831
vt 0.06913287 0.670503
vt 0.06913287 0.6179619
vt 0 0.670503
vt 0 0.6179619
vt 0.1382657 0.670503
vt 0.1382657 0.6179619
vt 0 0.9719222
vt 0.06913287 0.9719222
vt 0 0.9193813
vt 0.06913287 0.9193813
vt 0.1382657 0.9719222
vt 0.1382657 0.9193813
vt 0 0.7949421
vt 0.06913287 0.7949421
vt 0 0.7424011
vt 0.06913287 0.7424011
vt 0.06913287 0.8474831
vt 0 0.8474831
vt 0.1382657 0.8474831
vt 0.1382657 0.7949421
vt 0.1382657 0.7424011
vt 0.2753615 0.1405249
vt 0.1993154 0.07415729
vt 0.1993154 0.1405249
vt 0.2753615 0.07415729
vt 0.3514077 0.1405249
vt 0.3514077 0.07415729
vt 0.1329478 0.2428415
vt 0.1993154 0.2428415
vt 0.1329478 0.1916832
vt 0.1993154 0.1916832
vt 0.1993154 0.1405249
vt 0.1329478 0.1405249
vt 0.3514077 0.1916832
vt 0.4177753 0.1405249
vt 0.3514077 0.1405249
vt 0.4177753 0.1916832
vt 0.3514077 0.2428415
vt 0.4177753 0.2428415
vt 0.2753615 0.2428415
vt 0.3514077 0.3092091
vt 0.3514077 0.2428415
vt 0.2753615 0.3092091
vt 0.1993154 0.2428415
vt 0.1993154 0.3092091
vt 0.2753615 0.07415729
vt 0.2753615 0.02299898
vt 0.1993154 0.07415736
vt 0.1993154 0.02299898
vt 0.3514077 0.02299898
vt 0.3514077 0.07415729
vt 0.1993154 0.3603675
vt 0.2753615 0.3603675
vt 0.1993154 0.3092091
vt 0.2753615 0.3092091
vt 0.3514077 0.3603675
vt 0.3514077 0.3092091
vt 0.2753615 0.2428415
vt 0.2753615 0.1916832
vt 0.1993154 0.2428415
vt 0.1993154 0.1916832
vt 0.3514077 0.1916832
vt 0.3514077 0.2428415
vt 0.2753615 0.1405249
vt 0.3514077 0.1405249
vt 0.1993154 0.1405249
vt 0.02037152 0.380196
vt 0.1171575 0.380196
vt 0.02037152 0.2695834
vt 0.1171575 0.2695834
vt 0.1171575 0.2695834
vt 0.1171575 0.2115117
vt 0.06876459 0.2115117
vt 0.02037152 0.2115117
vt 0.02037152 0.2695834
vt 0.02037152 0.380196
vt 0.02037152 0.4382676
vt 0.06876459 0.4382676
vt 0.1171575 0.4382676
vt 0.1171575 0.380196
vt 0.06876459 0.2115117
vt 0.06876459 0.1562054
vt 0.02037152 0.2115117
vt 0.02037152 0.1562055
vt 0.1171575 0.2115117
vt 0.1171575 0.1562054
vt 0.02037152 0.4935739
vt 0.06876459 0.4935739
vt 0.02037152 0.4382676
vt 0.06876459 0.4382676
vt 0.1171575 0.4935739
vt 0.1171575 0.4382676
vt 0.2548322 0.4982503
vt 0.1511328 0.4291172
vt 0.1511328 0.4982503
vt 0.2548322 0.4291172
vt 0.3585315 0.4982503
vt 0.3585315 0.4291172
vt 0.1511328 0.5535565
vt 0.08199996 0.6088629
vt 0.1511328 0.6088629
vt 0.08199996 0.5535566
vt 0.1511328 0.4982503
vt 0.08199996 0.4982503
vt 0.3585315 0.5535565
vt 0.4276644 0.4982503
vt 0.3585315 0.4982503
vt 0.4276644 0.5535565
vt 0.3585315 0.6088629
vt 0.4276644 0.6088629
vt 0.2548322 0.6088629
vt 0.3585315 0.6779957
vt 0.3585315 0.6088629
vt 0.2548322 0.6779957
vt 0.1511328 0.6088629
vt 0.1511328 0.6779957
vt 0.2548322 0.4291172
vt 0.2548322 0.3738111
vt 0.1511328 0.4291172
vt 0.1511328 0.3738111
vt 0.3585315 0.4291172
vt 0.3585315 0.3738111
vt 0.1511328 0.733302
vt 0.2548322 0.733302
vt 0.1511328 0.6779957
vt 0.2548322 0.6779957
vt 0.3585315 0.733302
vt 0.3585315 0.6779957
vt 0.1511328 0.5535565
vt 0.2548322 0.5535565
vt 0.1511328 0.4982503
vt 0.2548322 0.4982503
vt 0.2548322 0.6088629
vt 0.3585315 0.6088629
vt 0.3585315 0.5535565
vt 0.1511328 0.6088629
vt 0.3585315 0.4982503

g Default_Prototype
usemtl Default_Prototype
usemap Default_Prototype
f 2/2/2 1/1/1 3/3/3
f 1/1/1 4/4/4 5/5/5
f 1/1/1 2/2/2 6/6/6
f 4/4/4 1/1/1 6/6/6
f 8/8/8 7/7/7 9/9/9
f 7/7/7 8/8/8 10/10/10
f 11/11/11 7/7/7 10/10/10
f 12/12/12 11/11/11 10/10/10
f 14/14/14 13/13/13 15/15/15
f 16/16/16 14/14/14 15/15/15
f 17/17/17 16/16/16 15/15/15
f 18/18/18 17/17/17 15/15/15
f 20/20/20 19/19/19 21/21/21
f 19/19/19 22/22/22 23/23/23
f 19/19/19 20/20/20 24/24/24
f 22/22/22 19/19/19 24/24/24
f 26/26/26 25/25/25 27/27/27
f 28/28/28 26/26/26 27/27/27
f 25/25/25 26/26/26 29/29/29
f 26/26/26 30/30/30 29/29/29
f 32/32/32 31/31/31 33/33/33
f 34/34/34 32/32/32 33/33/33
f 35/35/35 32/32/32 36/36/36
f 32/32/32 34/34/34 36/36/36
f 38/38/38 37/37/37 39/39/39
f 40/40/40 38/38/38 39/39/39
f 41/41/41 38/38/38 42/42/42
f 38/38/38 40/40/40 42/42/42
f 43/43/43 38/38/38 44/44/44
f 38/38/38 41/41/41 44/44/44
f 38/38/38 43/43/43 45/45/45
f 37/37/37 38/38/38 45/45/45
f 47/47/47 46/46/46 48/48/48
f 50/50/50 49/49/49 51/51/51
f 52/52/52 50/50/50 51/51/51
f 47/47/47 52/52/52 51/51/51
f 46/46/46 47/47/47 51/51/51
f 54/54/54 53/53/53 55/55/55
f 56/56/56 54/54/54 57/57/57
f 54/54/54 56/56/56 58/58/58
f 53/53/53 54/54/54 58/58/58
f 60/60/60 59/59/59 61/61/61
f 63/63/63 62/62/62 64/64/64
f 65/65/65 63/63/63 64/64/64
f 59/59/59 60/60/60 64/64/64
f 62/62/62 59/59/59 64/64/64
f 67/67/67 66/66/66 68/68/68
f 66/66/66 67/67/67 69/69/69
f 67/67/67 70/70/70 69/69/69
f 70/70/70 71/71/71 69/69/69
f 73/73/73 72/72/72 74/74/74
f 74/74/74 72/72/72 75/75/75
f 72/72/72 73/73/73 76/76/76
f 73/73/73 77/77/77 76/76/76
f 79/79/79 78/78/78 80/80/80
f 81/81/81 79/79/79 80/80/80
f 82/82/82 79/79/79 83/83/83
f 79/79/79 81/81/81 83/83/83
f 85/85/85 84/84/84 86/86/86
f 88/88/88 87/87/87 86/86/86
f 84/84/84 88/88/88 86/86/86
f 89/89/89 86/86/86 87/87/87
f 90/90/90 89/89/89 87/87/87
f 91/91/91 89/89/89 92/92/92
f 89/89/89 90/90/90 92/92/92
f 93/93/93 89/89/89 91/91/91
f 93/93/93 91/91/91 94/94/94
f 89/89/89 93/93/93 86/86/86
f 86/86/86 93/93/93 85/85/85
f 95/95/95 85/85/85 93/93/93
f 96/96/96 95/95/95 93/93/93
f 94/94/94 96/96/96 93/93/93
f 85/85/85 95/95/95 97/97/97
f 84/84/84 85/85/85 97/97/97
f 99/99/99 98/98/98 100/100/100
f 101/101/101 99/99/99 100/100/100
f 103/103/103 102/102/102 104/104/104
f 106/106/106 105/105/105 104/104/104
f 105/105/105 103/103/103 104/104/104
f 108/108/108 107/107/107 109/109/109
f 111/111/111 110/110/110 109/109/109
f 107/107/107 111/111/111 109/109/109
f 113/113/113 112/112/112 114/114/114
f 116/116/116 115/115/115 114/114/114
f 112/112/112 116/116/116 114/114/114
f 118/118/118 117/117/117 119/119/119
f 121/121/121 120/120/120 119/119/119
f 120/120/120 118/118/118 119/119/119
f 123/123/123 122/122/122 124/124/124
f 125/125/125 123/123/123 124/124/124
f 122/122/122 123/123/123 126/126/126
f 123/123/123 127/127/127 126/126/126
f 129/129/129 128/128/128 130/130/130
f 131/131/131 129/129/129 130/130/130
f 132/132/132 129/129/129 133/133/133
f 129/129/129 131/131/131 133/133/133
f 135/135/135 134/134/134 136/136/136
f 134/134/134 135/135/135 137/137/137
f 138/138/138 134/134/134 137/137/137
f 139/139/139 138/138/138 137/137/137
f 141/141/141 140/140/140 142/142/142
f 143/143/143 141/141/141 142/142/142
f 144/144/144 143/143/143 142/142/142
f 145/145/145 144/144/144 142/142/142
f 147/147/147 146/146/146 148/148/148
f 149/149/149 147/147/147 148/148/148
f 150/150/150 149/149/149 148/148/148
f 151/151/151 150/150/150 148/148/148
f 153/153/153 152/152/152 154/154/154
f 155/155/155 153/153/153 154/154/154
f 152/152/152 153/153/153 156/156/156
f 152/152/152 156/156/156 157/157/157
f 159/159/159 158/158/158 160/160/160
f 161/161/161 159/159/159 160/160/160
f 162/162/162 159/159/159 163/163/163
f 159/159/159 161/161/161 163/163/163
f 165/165/165 164/164/164 166/166/166
f 167/167/167 165/165/165 166/166/166
f 168/168/168 165/165/165 169/169/169
f 165/165/165 170/170/170 169/169/169
f 165/165/165 168/168/168 171/171/171
f 164/164/164 165/165/165 171/171/171
f 170/170/170 165/165/165 172/172/172
f 165/165/165 167/167/167 172/172/172
f 174/174/174 173/173/173 175/175/175
f 176/176/176 174/174/174 175/175/175
f 177/177/177 176/176/176 175/175/175
f 178/178/178 177/177/177 175/175/175
f 180/180/180 179/179/179 181/181/181
f 179/179/179 180/180/180 182/182/182
f 183/183/183 179/179/179 182/182/182
f 184/184/184 183/183/183 182/182/182
f 186/186/186 185/185/185 187/187/187
f 188/188/188 186/186/186 187/187/187
f 189/189/189 188/188/188 187/187/187
f 190/190/190 189/189/189 187/187/187
f 192/192/192 191/191/191 193/193/193
f 191/191/191 192/192/192 194/194/194
f 195/195/195 191/191/191 194/194/194
f 196/196/196 195/195/195 194/194/194
f 198/198/198 197/197/197 199/199/199
f 200/200/200 198/198/198 199/199/199
f 197/197/197 198/198/198 201/201/201
f 197/197/197 201/201/201 202/202/202
f 204/204/204 203/203/203 205/205/205
f 206/206/206 204/204/204 205/205/205
f 207/207/207 204/204/204 206/206/206
f 207/207/207 206/206/206 208/208/208
f 210/210/210 209/209/209 211/211/211
f 210/210/210 211/211/211 212/212/212
f 209/209/209 213/213/213 214/214/214
f 215/215/215 209/209/209 214/214/214
f 213/213/213 209/209/209 210/210/210
f 213/213/213 210/210/210 216/216/216
f 209/209/209 215/215/215 217/217/217
f 211/211/211 209/209/209 217/217/217
f 219/219/219 218/218/218 220/220/220
f 221/221/221 219/219/219 220/220/220
f 222/222/222 221/221/221 220/220/220
f 223/223/223 222/222/222 220/220/220
f 225/225/225 224/224/224 226/226/226
f 224/224/224 225/225/225 227/227/227
f 228/228/228 224/224/224 227/227/227
f 229/229/229 228/228/228 227/227/227
f 231/231/231 230/230/230 232/232/232
f 233/233/233 231/231/231 232/232/232
f 234/234/234 233/233/233 232/232/232
f 235/235/235 234/234/234 232/232/232
f 237/237/237 236/236/236 238/238/238
f 236/236/236 237/237/237 239/239/239
f 240/240/240 236/236/236 239/239/239
f 241/241/241 240/240/240 239/239/239
f 243/243/243 242/242/242 244/244/244
f 245/245/245 243/243/243 244/244/244
f 242/242/242 243/243/243 246/246/246
f 243/243/243 247/247/247 246/246/246
f 249/249/249 248/248/248 250/250/250
f 251/251/251 249/249/249 250/250/250
f 252/252/252 249/249/249 251/251/251
f 252/252/252 251/251/251 253/253/253
f 255/255/255 254/254/254 256/256/256
f 254/254/254 257/257/257 256/256/256
f 257/257/257 254/254/254 258/258/258
f 257/257/257 258/258/258 259/259/259
f 254/254/254 260/260/260 261/261/261
f 258/258/258 254/254/254 261/261/261
f 254/254/254 255/255/255 262/262/262
f 260/260/260 254/254/254 262/262/262
f 264/264/264 263/263/263 265/265/265
f 266/266/266 264/264/264 265/265/265
f 268/268/268 267/267/267 265/265/265
f 263/263/263 268/268/268 265/265/265
f 270/270/270 269/269/269 271/271/271
f 272/272/272 270/270/270 271/271/271
f 274/274/274 273/273/273 271/271/271
f 269/269/269 274/274/274 271/271/271
f 276/276/276 275/275/275 277/277/277
f 278/278/278 276/276/276 277/277/277
f 280/280/280 279/279/279 277/277/277
f 275/275/275 280/280/280 277/277/277
f 282/282/282 281/281/281 283/283/283
f 284/284/284 282/282/282 283/283/283
f 281/281/281 282/282/282 285/285/285
f 282/282/282 286/286/286 285/285/285
f 288/288/288 287/287/287 289/289/289
f 290/290/290 288/288/288 289/289/289
f 291/291/291 288/288/288 292/292/292
f 288/288/288 290/290/290 292/292/292
f 294/294/294 293/293/293 295/295/295
f 296/296/296 294/294/294 295/295/295
f 294/294/294 297/297/297 298/298/298
f 293/293/293 294/294/294 298/298/298
f 297/297/297 294/294/294 299/299/299
f 294/294/294 300/300/300 299/299/299
f 300/300/300 294/294/294 301/301/301
f 294/294/294 296/296/296 301/301/301
f 303/303/303 302/302/302 304/304/304
f 302/302/302 303/303/303 305/305/305
f 306/306/306 302/302/302 305/305/305
f 307/307/307 306/306/306 305/305/305
f 309/309/309 308/308/308 310/310/310
f 311/311/311 309/309/309 310/310/310
f 312/312/312 311/311/311 310/310/310
f 313/313/313 312/312/312 310/310/310
f 315/315/315 314/314/314 316/316/316
f 314/314/314 315/315/315 317/317/317
f 318/318/318 314/314/314 317/317/317
f 319/319/319 318/318/318 317/317/317
f 321/321/321 320/320/320 322/322/322
f 320/320/320 321/321/321 323/323/323
f 324/324/324 320/320/320 323/323/323
f 325/325/325 324/324/324 323/323/323
f 327/327/327 326/326/326 328/328/328
f 329/329/329 327/327/327 328/328/328
f 326/326/326 327/327/327 330/330/330
f 326/326/326 330/330/330 331/331/331
f 333/333/333 332/332/332 334/334/334
f 335/335/335 333/333/333 334/334/334
f 336/336/336 333/333/333 335/335/335
f 336/336/336 335/335/335 337/337/337
f 339/339/339 338/338/338 340/340/340
f 341/341/341 339/339/339 340/340/340
f 338/338/338 339/339/339 342/342/342
f 338/338/338 342/342/342 343/343/343
f 342/342/342 339/339/339 344/344/344
f 342/342/342 344/344/344 345/345/345
f 339/339/339 341/341/341 346/346/346
f 344/344/344 339/339/339 346/346/346
f 348/348/348 347/347/347 349/349/349
f 350/350/350 348/348/348 349/349/349
f 352/352/352 351/351/351 353/353/353
f 355/355/355 354/354/354 353/353/353
f 351/351/351 355/355/355 353/353/353
f 357/357/357 356/356/356 358/358/358
f 360/360/360 359/359/359 358/358/358
f 356/356/356 360/360/360 358/358/358
f 362/362/362 361/361/361 363/363/363
f 364/364/364 362/362/362 363/363/363
f 361/361/361 362/362/362 365/365/365
f 362/362/362 366/366/366 365/365/365
f 368/368/368 367/367/367 369/369/369
f 370/370/370 368/368/368 369/369/369
f 371/371/371 368/368/368 370/370/370
f 371/371/371 370/370/370 372/372/372
f 374/374/374 373/373/373 375/375/375
f 373/373/373 374/374/374 376/376/376
f 377/377/377 373/373/373 376/376/376
f 378/378/378 377/377/377 376/376/376
f 380/380/380 379/379/379 381/381/381
f 379/379/379 380/380/380 382/382/382
f 383/383/383 379/379/379 382/382/382
f 384/384/384 383/383/383 382/382/382
f 386/386/386 385/385/385 387/387/387
f 385/385/385 386/386/386 388/388/388
f 389/389/389 385/385/385 388/388/388
f 390/390/390 389/389/389 388/388/388
f 392/392/392 391/391/391 393/393/393
f 391/391/391 392/392/392 394/394/394
f 395/395/395 391/391/391 394/394/394
f 396/396/396 395/395/395 394/394/394
f 398/398/398 397/397/397 399/399/399
f 400/400/400 398/398/398 399/399/399
f 397/397/397 398/398/398 401/401/401
f 398/398/398 402/402/402 401/401/401
f 404/404/404 403/403/403 405/405/405
f 406/406/406 404/404/404 405/405/405
f 407/407/407 404/404/404 408/408/408
f 404/404/404 406/406/406 408/408/408
f 410/410/410 409/409/409 411/411/411
f 412/412/412 410/410/410 411/411/411
f 413/413/413 410/410/410 414/414/414
f 410/410/410 415/415/415 414/414/414
f 410/410/410 413/413/413 416/416/416
f 409/409/409 410/410/410 416/416/416
f 415/415/415 410/410/410 417/417/417
f 410/410/410 412/412/412 417/417/417
