mtllib ./WallThinTop2_1.mtl
g pb-MergedObject-1325762
v 0.5882521 -0.002508163 -0.1869996
v 0.5882521 0.2374916 -0.1869996
v 0.3302922 -0.002508163 -0.1869996
v 0.3302922 0.2374916 -0.1869996
v -0.01970768 0.2374916 -0.1869996
v -0.01970768 -0.002508163 -0.1869996
v 0.5882521 0.2374916 0.003000379
v 0.5882521 -0.002508163 0.1930004
v 0.5882521 0.2374916 0.1930004
v 0.5882521 -0.002508163 0.003000379
v 0.5882521 0.2374916 -0.1869996
v 0.5882521 -0.002508163 -0.1869996
v -0.01970768 -0.002508163 -0.1869996
v -0.01970768 0.2374916 -0.1869996
v -0.01970768 -0.002508163 0.003000379
v -0.01970768 0.2374916 0.003000379
v -0.01970768 0.2374916 0.1930004
v -0.01970768 -0.002508163 0.1930004
v 0.3302922 0.2374916 0.1930004
v -0.01970768 -0.002508163 0.1930004
v -0.01970768 0.2374916 0.1930004
v 0.3302922 -0.002508163 0.1930004
v 0.5882521 0.2374916 0.1930004
v 0.5882521 -0.002508163 0.1930004
v 0.3302922 -0.002508163 -0.1869996
v 0.3302922 -0.002508163 0.003000379
v 0.5882521 -0.002508163 -0.1869996
v 0.5882521 -0.002508163 0.003000379
v -0.01970768 -0.002508163 0.003000379
v -0.01970768 -0.002508163 -0.1869996
v 0.5882521 -0.002508163 0.003000379
v 0.3302922 -0.002508163 0.003000379
v 0.5882521 -0.002508163 0.1930004
v 0.3302922 -0.002508163 0.1930004
v -0.01970768 -0.002508163 0.003000379
v -0.01970768 -0.002508163 0.1930004
v 0.3302922 0.2374916 0.003000379
v -0.01970768 0.2374916 0.003000379
v 0.3302922 0.2374916 -0.1869996
v -0.01970768 0.2374916 -0.1869996
v 0.3302922 0.2374916 0.1930004
v 0.5882521 0.2374916 0.1930004
v 0.5882521 0.2374916 0.003000379
v -0.01970768 0.2374916 0.1930004
v 0.5882521 0.2374916 -0.1869996
v -0.3947077 0.252492 -0.2029996
v -0.01970768 0.002491951 -0.2029996
v -0.01970768 0.252492 -0.2029996
v -0.3947077 0.002491951 -0.2029996
v -0.4200082 0.252492 -0.2029996
v -0.4200082 0.002491951 -0.2029996
v -0.01970768 0.252492 -0.002999663
v -0.01970768 0.002491951 0.1970004
v -0.01970768 0.252492 0.1970004
v -0.01970768 0.002491951 -0.002999663
v -0.01970768 0.252492 -0.2029996
v -0.01970768 0.002491951 -0.2029996
v -0.4200082 0.252492 -0.002999663
v -0.4200082 0.002491951 -0.2029996
v -0.4200082 0.252492 -0.2029996
v -0.4200082 0.002491951 -0.002999663
v -0.4200082 0.252492 0.1970004
v -0.4200082 0.002491951 0.1970004
v -0.3947077 0.252492 0.1970004
v -0.4200082 0.002491951 0.1970004
v -0.4200082 0.252492 0.1970004
v -0.3947077 0.002491951 0.1970004
v -0.01970768 0.252492 0.1970004
v -0.01970768 0.002491951 0.1970004
v -0.3947077 0.002491951 -0.2029996
v -0.3947077 0.002491951 -0.002999663
v -0.01970768 0.002491951 -0.2029996
v -0.01970768 0.002491951 -0.002999663
v -0.4200082 0.002491951 -0.2029996
v -0.4200082 0.002491951 -0.002999663
v -0.01970768 0.002491951 -0.002999663
v -0.3947077 0.002491951 -0.002999663
v -0.01970768 0.002491951 0.1970004
v -0.3947077 0.002491951 0.1970004
v -0.4200082 0.002491951 -0.002999663
v -0.4200082 0.002491951 0.1970004
v -0.01970768 0.252492 -0.002999663
v -0.3947077 0.252492 -0.002999663
v -0.01970768 0.252492 -0.2029996
v -0.3947077 0.252492 -0.2029996
v -0.3947077 0.252492 0.1970004
v -0.4200082 0.252492 0.1970004
v -0.4200082 0.252492 -0.002999663
v -0.01970768 0.252492 0.1970004
v -0.4200082 0.252492 -0.2029996

vn 0 0 -1
vn 0 0 -1
vn 0 0 -1
vn 0 0 -1
vn 0 0 -1
vn 0 0 -1
vn 1 0 0
vn 1 0 0
vn 1 0 0
vn 1 0 0
vn 1 0 0
vn 1 0 0
vn -1 0 0
vn -1 0 0
vn -1 0 0
vn -1 0 0
vn -1 0 0
vn -1 0 0
vn 0 0 1
vn 0 0 1
vn 0 0 1
vn 0 0 1
vn 0 0 1
vn 0 0 1
vn 0 -1 0
vn 0 -0.9999999 0
vn 0 -1 0
vn 0 -1 0
vn 0 -1 0
vn 0 -1 0
vn 0 -1 0
vn 0 -0.9999999 0
vn 0 -1 0
vn 0 -0.9999999 0
vn 0 -1 0
vn 0 -1 0
vn 0 1 0
vn 0 1 0
vn 0 1 0
vn 0 1 0
vn 0 0.9999999 0
vn 0 1 0
vn 0 1 0
vn 0 1 0
vn 0 1 0
vn 0 0 -1
vn 0 0 -1
vn 0 0 -1
vn 0 0 -0.9999999
vn 0 0 -1
vn 0 0 -1
vn 1 0 0
vn 1 0 0
vn 1 0 0
vn 1 0 0
vn 1 0 0
vn 1 0 0
vn -1 0 0
vn -1 0 0
vn -1 0 0
vn -1 0 0
vn -1 0 0
vn -1 0 0
vn 0 0 0.9999999
vn 0 0 1
vn 0 0 1
vn 0 0 1
vn 0 0 1
vn 0 0 1
vn 0 -1 0
vn 0 -1 0
vn 0 -1 0
vn 0 -1 0
vn 0 -1 0
vn 0 -1 0
vn 0 -1 0
vn 0 -1 0
vn 0 -1 0
vn 0 -1 0
vn 0 -1 0
vn 0 -1 0
vn 0 1 0
vn 0 1 0
vn 0 1 0
vn 0 1 0
vn 0 1 0
vn 0 1 0
vn 0 1 0
vn 0 1 0
vn 0 1 0

vt 0.4358363 0.1018798
vt 0.4358363 0.1682473
vt 0.5326224 0.1018798
vt 0.5326224 0.1682473
vt 0.6294084 0.1682473
vt 0.6294084 0.1018798
vt 0.3694688 0.3922379
vt 0.4358363 0.3396969
vt 0.3694688 0.3396969
vt 0.4358363 0.3922379
vt 0.3694688 0.4447788
vt 0.4358363 0.4447788
vt 0.6294084 0.4447788
vt 0.6957759 0.4447788
vt 0.6294084 0.3922379
vt 0.6957759 0.3922378
vt 0.6957759 0.3396969
vt 0.6294084 0.3396969
vt 0.5326224 0.2733293
vt 0.6294084 0.3396969
vt 0.6294084 0.2733293
vt 0.5326224 0.3396969
vt 0.4358363 0.2733293
vt 0.4358363 0.3396969
vt 0.5326224 0.1018798
vt 0.5326224 0.04933877
vt 0.4358363 0.1018798
vt 0.4358363 0.04933884
vt 0.6294084 0.04933877
vt 0.6294084 0.1018798
vt 0.4358363 0.3922378
vt 0.5326223 0.3922378
vt 0.4358363 0.3396969
vt 0.5326223 0.3396969
vt 0.6294084 0.3922378
vt 0.6294084 0.3396969
vt 0.5326224 0.2207883
vt 0.6294084 0.2207883
vt 0.5326224 0.1682473
vt 0.6294084 0.1682473
vt 0.5326224 0.2733293
vt 0.4358363 0.2733293
vt 0.4358363 0.2207883
vt 0.6294084 0.2733293
vt 0.4358363 0.1682473
vt 0.2548322 0.4982503
vt 0.1511328 0.4291172
vt 0.1511328 0.4982503
vt 0.2548322 0.4291172
vt 0.3585315 0.4982503
vt 0.3585315 0.4291172
vt 0.1511328 0.5535565
vt 0.08199996 0.6088629
vt 0.1511328 0.6088629
vt 0.08199996 0.5535566
vt 0.1511328 0.4982503
vt 0.08199996 0.4982503
vt 0.3585315 0.5535565
vt 0.4276644 0.4982503
vt 0.3585315 0.4982503
vt 0.4276644 0.5535565
vt 0.3585315 0.6088629
vt 0.4276644 0.6088629
vt 0.2548322 0.6088629
vt 0.3585315 0.6779957
vt 0.3585315 0.6088629
vt 0.2548322 0.6779957
vt 0.1511328 0.6088629
vt 0.1511328 0.6779957
vt 0.2548322 0.4291172
vt 0.2548322 0.3738111
vt 0.1511328 0.4291172
vt 0.1511328 0.3738111
vt 0.3585315 0.4291172
vt 0.3585315 0.3738111
vt 0.1511328 0.733302
vt 0.2548322 0.733302
vt 0.1511328 0.6779957
vt 0.2548322 0.6779957
vt 0.3585315 0.733302
vt 0.3585315 0.6779957
vt 0.1511328 0.5535565
vt 0.2548322 0.5535565
vt 0.1511328 0.4982503
vt 0.2548322 0.4982503
vt 0.2548322 0.6088629
vt 0.3585315 0.6088629
vt 0.3585315 0.5535565
vt 0.1511328 0.6088629
vt 0.3585315 0.4982503

g Default_Prototype
usemtl Default_Prototype
usemap Default_Prototype
f 2/2/2 1/1/1 3/3/3
f 4/4/4 2/2/2 3/3/3
f 5/5/5 4/4/4 3/3/3
f 6/6/6 5/5/5 3/3/3
f 8/8/8 7/7/7 9/9/9
f 7/7/7 8/8/8 10/10/10
f 11/11/11 7/7/7 10/10/10
f 12/12/12 11/11/11 10/10/10
f 14/14/14 13/13/13 15/15/15
f 16/16/16 14/14/14 15/15/15
f 17/17/17 16/16/16 15/15/15
f 18/18/18 17/17/17 15/15/15
f 20/20/20 19/19/19 21/21/21
f 19/19/19 20/20/20 22/22/22
f 23/23/23 19/19/19 22/22/22
f 24/24/24 23/23/23 22/22/22
f 26/26/26 25/25/25 27/27/27
f 28/28/28 26/26/26 27/27/27
f 25/25/25 26/26/26 29/29/29
f 25/25/25 29/29/29 30/30/30
f 32/32/32 31/31/31 33/33/33
f 34/34/34 32/32/32 33/33/33
f 35/35/35 32/32/32 34/34/34
f 35/35/35 34/34/34 36/36/36
f 38/38/38 37/37/37 39/39/39
f 38/38/38 39/39/39 40/40/40
f 37/37/37 41/41/41 42/42/42
f 43/43/43 37/37/37 42/42/42
f 41/41/41 37/37/37 38/38/38
f 41/41/41 38/38/38 44/44/44
f 37/37/37 43/43/43 45/45/45
f 39/39/39 37/37/37 45/45/45
f 47/47/47 46/46/46 48/48/48
f 46/46/46 47/47/47 49/49/49
f 50/50/50 46/46/46 49/49/49
f 51/51/51 50/50/50 49/49/49
f 53/53/53 52/52/52 54/54/54
f 52/52/52 53/53/53 55/55/55
f 56/56/56 52/52/52 55/55/55
f 57/57/57 56/56/56 55/55/55
f 59/59/59 58/58/58 60/60/60
f 58/58/58 59/59/59 61/61/61
f 62/62/62 58/58/58 61/61/61
f 63/63/63 62/62/62 61/61/61
f 65/65/65 64/64/64 66/66/66
f 64/64/64 65/65/65 67/67/67
f 68/68/68 64/64/64 67/67/67
f 69/69/69 68/68/68 67/67/67
f 71/71/71 70/70/70 72/72/72
f 73/73/73 71/71/71 72/72/72
f 70/70/70 71/71/71 74/74/74
f 71/71/71 75/75/75 74/74/74
f 77/77/77 76/76/76 78/78/78
f 79/79/79 77/77/77 78/78/78
f 80/80/80 77/77/77 81/81/81
f 77/77/77 79/79/79 81/81/81
f 83/83/83 82/82/82 84/84/84
f 85/85/85 83/83/83 84/84/84
f 86/86/86 83/83/83 87/87/87
f 83/83/83 88/88/88 87/87/87
f 83/83/83 86/86/86 89/89/89
f 82/82/82 83/83/83 89/89/89
f 88/88/88 83/83/83 90/90/90
f 83/83/83 85/85/85 90/90/90
