mtllib ./WallTopCorner3.mtl
g pb-Cube-1144290
v -0.2 0 -0.1
v -0.1 0 0
v 0 0 -0.1
v -0.1 0 -0.2
v -0.2 0 -0.05
v -0.15 0 0
v -0.2 0 0
v -0.05 0 -0.2
v -0.15 0 -0.2
v -0.2 0 -0.15
v -0.2 0 -0.2
v -0.05 0 0
v 0 0 0
v 0 0 -0.05
v 0 0 -0.2
v 0 0 -0.15
v -0.1 0.05 0
v -0.2 0.05 -0.1
v -0.1 0.05 -0.2
v 0 0.05 -0.1
v -0.15 0.05 0
v -0.2 0.05 0
v -0.2 0.05 -0.05
v -0.2 0.05 -0.15
v -0.2 0.05 -0.2
v -0.15 0.05 -0.2
v 0 0.05 -0.05
v -0.05 0.05 0
v 0 0.05 0
v 0 0.05 -0.15
v -0.05 0.05 -0.2
v 0 0.05 -0.2
v -0.1 0.0375 0
v -0.15 0.0375 0
v -0.1 0.05 0
v -0.15 0.05 0
v -0.05 0.0375 0
v -0.05 0.05 0
v 0 0.0375 0
v 0 0.05 0
v -0.2 0.0375 0
v -0.2 0.05 0
v -0.15 0.0125 0
v -0.15 0 0
v -0.2 0.0125 0
v -0.2 0 0
v -0.1 0.0125 0
v -0.05 0.0125 0
v -0.1 0 0
v -0.05 0 0
v 0 0 0
v 0 0.0125 0
v -0.1539142 0.03847855 0.007828422
v -0.1539142 0.025 0.007828422
v -0.2078284 0.03847855 0.007828422
v -0.2078284 0.025 0.007828422
v -0.1539142 0.01152145 0.007828422
v -0.2078284 0.01152145 0.007828422
v -0.1 0.025 0.007828422
v -0.1 0.03847855 0.007828422
v -0.1 0.01152145 0.007828422
v -0.04608579 0.03847855 0.007828422
v -0.04608579 0.025 0.007828422
v -0.04608579 0.01152145 0.007828422
v 0.007828429 0.025 0.007828422
v 0.007828429 0.03847855 0.007828422
v 0.007828429 0.01152145 0.007828422
v -0.2 0.0375 -0.15
v -0.2 0.0375 -0.2
v -0.2 0.05 -0.2
v -0.2 0.05 -0.15
v -0.2 0.0375 -0.05
v -0.2 0.0375 -0.1
v -0.2 0.05 -0.05
v -0.2 0.05 -0.1
v -0.2 0.0375 0
v -0.2 0.05 0
v -0.2 0.0125 -0.15
v -0.2 0 -0.15
v -0.2 0.0125 -0.2
v -0.2 0 -0.2
v -0.2 0.0125 -0.1
v -0.2 0 -0.1
v -0.2 0.0125 -0.05
v -0.2 0 -0.05
v -0.2 0 0
v -0.2 0.0125 0
v -0.2078284 0.025 -0.1539142
v -0.2078284 0.01152145 -0.1539142
v -0.2078284 0.01152145 -0.2078284
v -0.2078284 0.025 -0.2078285
v -0.2078284 0.03847855 -0.1539142
v -0.2078284 0.03847855 -0.2078284
v -0.2078284 0.025 -0.1
v -0.2078284 0.03847855 -0.1
v -0.2078284 0.01152145 -0.04608579
v -0.2078284 0.01152145 -0.1
v -0.2078284 0.025 -0.04608579
v -0.2078284 0.03847855 -0.04608579
v -0.2078284 0.025 0.007828422
v -0.2078284 0.03847855 0.007828422
v -0.2078284 0.01152145 0.007828422
v -0.05 0.0375 -0.2
v 0 0.0375 -0.2
v 0 0.05 -0.2
v -0.05 0.05 -0.2
v -0.1 0.0375 -0.2
v -0.1 0.05 -0.2
v -0.2 0.0375 -0.2
v -0.15 0.0375 -0.2
v -0.15 0.05 -0.2
v -0.2 0.05 -0.2
v -0.05 0.0125 -0.2
v -0.05 0 -0.2
v 0 0 -0.2
v 0 0.0125 -0.2
v -0.1 0.0125 -0.2
v -0.1 0 -0.2
v -0.15 0.0125 -0.2
v -0.15 0 -0.2
v -0.2 0.0125 -0.2
v -0.2 0 -0.2
v -0.04608579 0.03847855 -0.2078284
v -0.04608579 0.025 -0.2078284
v 0.007828429 0.025 -0.2078285
v 0.007828429 0.03847855 -0.2078284
v -0.04608579 0.01152145 -0.2078284
v 0.007828429 0.01152145 -0.2078284
v -0.1 0.025 -0.2078285
v -0.1 0.03847855 -0.2078284
v -0.1 0.01152145 -0.2078284
v -0.1539142 0.03847855 -0.2078284
v -0.1539142 0.025 -0.2078284
v -0.1539142 0.01152145 -0.2078284
v -0.2078284 0.01152145 -0.2078284
v -0.2078284 0.025 -0.2078285
v -0.2078284 0.03847855 -0.2078284
v 0 0.0375 -0.05
v 0 0.0375 0
v 0 0.05 0
v 0 0.05 -0.05
v 0 0.0375 -0.1
v 0 0.05 -0.1
v 0 0.0375 -0.2
v 0 0.0375 -0.15
v 0 0.05 -0.15
v 0 0.05 -0.2
v 0 0.0125 -0.05
v 0 0 -0.05
v 0 0 0
v 0 0.0125 0
v 0 0.0125 -0.1
v 0 0 -0.1
v 0 0 -0.15
v 0 0.0125 -0.15
v 0 0.0125 -0.2
v 0 0 -0.2
v 0.007828429 0.03847855 -0.04608579
v 0.007828429 0.025 -0.04608579
v 0.007828429 0.025 0.007828422
v 0.007828429 0.03847855 0.007828422
v 0.007828429 0.01152145 -0.04608579
v 0.007828429 0.01152145 0.007828422
v 0.007828429 0.025 -0.1
v 0.007828429 0.03847855 -0.1
v 0.007828429 0.01152145 -0.1
v 0.007828429 0.01152145 -0.1539142
v 0.007828429 0.025 -0.1539142
v 0.007828429 0.03847855 -0.1539142
v 0.007828429 0.03847855 -0.2078284
v 0.007828429 0.025 -0.2078285
v 0.007828429 0.01152145 -0.2078284
v -0.2 0.025 0
v -0.2 0.0375 0
v -0.2078284 0.025 0.007828422
v -0.2078284 0.03847855 0.007828422
v -0.2 0.0125 0
v -0.2 0.025 0
v -0.2078284 0.01152145 0.007828422
v -0.2078284 0.025 0.007828422
v 0 0.0375 0
v 0 0.025 0
v 0.007828429 0.03847855 0.007828422
v 0.007828429 0.025 0.007828422
v 0 0.025 0
v 0 0.0125 0
v 0.007828429 0.025 0.007828422
v 0.007828429 0.01152145 0.007828422
v 0 0.025 0
v 0 0.0375 0
v 0.007828429 0.025 0.007828422
v 0.007828429 0.03847855 0.007828422
v 0 0.0125 0
v 0 0.025 0
v 0.007828429 0.01152145 0.007828422
v 0.007828429 0.025 0.007828422
v 0 0.0375 -0.2
v 0 0.025 -0.2
v 0.007828429 0.03847855 -0.2078284
v 0.007828429 0.025 -0.2078285
v 0 0.025 -0.2
v 0 0.0125 -0.2
v 0.007828429 0.025 -0.2078285
v 0.007828429 0.01152145 -0.2078284
v 0 0.025 -0.2
v 0 0.0375 -0.2
v 0.007828429 0.025 -0.2078285
v 0.007828429 0.03847855 -0.2078284
v 0 0.0125 -0.2
v 0 0.025 -0.2
v 0.007828429 0.01152145 -0.2078284
v 0.007828429 0.025 -0.2078285
v -0.2 0.025 -0.2
v -0.2 0.0125 -0.2
v -0.2078284 0.025 -0.2078285
v -0.2078284 0.01152145 -0.2078284
v -0.2 0.0375 -0.2
v -0.2 0.025 -0.2
v -0.2078284 0.03847855 -0.2078284
v -0.2078284 0.025 -0.2078285
v -0.2 0.0125 -0.2
v -0.2 0.025 -0.2
v -0.2078284 0.01152145 -0.2078284
v -0.2078284 0.025 -0.2078285
v -0.2 0.025 -0.2
v -0.2 0.0375 -0.2
v -0.2078284 0.025 -0.2078285
v -0.2078284 0.03847855 -0.2078284
v -0.2 0.0375 0
v -0.2 0.025 0
v -0.2078284 0.03847855 0.007828422
v -0.2078284 0.025 0.007828422
v -0.2 0.025 0
v -0.2 0.0125 0
v -0.2078284 0.025 0.007828422
v -0.2078284 0.01152145 0.007828422
v 0 0.0375 0
v 0 0.0375 -0.05
v 0.007828429 0.03847855 0.007828422
v 0.007828429 0.03847855 -0.04608579
v 0 0.0375 -0.1
v 0.007828429 0.03847855 -0.1
v 0 0.0375 -0.15
v 0.007828429 0.03847855 -0.1539142
v 0 0.0375 -0.2
v 0.007828429 0.03847855 -0.2078284
v 0 0.0125 -0.05
v 0 0.0125 0
v 0.007828429 0.01152145 -0.04608579
v 0.007828429 0.01152145 0.007828422
v 0 0.0125 -0.1
v 0.007828429 0.01152145 -0.1
v 0 0.0125 -0.15
v 0.007828429 0.01152145 -0.1539142
v 0 0.0125 -0.2
v 0.007828429 0.01152145 -0.2078284
v -0.1 0.0125 -0.2
v -0.05 0.0125 -0.2
v -0.1 0.01152145 -0.2078284
v -0.04608579 0.01152145 -0.2078284
v -0.15 0.0125 -0.2
v -0.1539142 0.01152145 -0.2078284
v -0.2 0.0125 -0.2
v -0.2078284 0.01152145 -0.2078284
v 0 0.0125 -0.2
v 0.007828429 0.01152145 -0.2078284
v 0 0.0375 -0.2
v -0.05 0.0375 -0.2
v 0.007828429 0.03847855 -0.2078284
v -0.04608579 0.03847855 -0.2078284
v -0.1 0.0375 -0.2
v -0.1 0.03847855 -0.2078284
v -0.15 0.0375 -0.2
v -0.1539142 0.03847855 -0.2078284
v -0.2 0.0375 -0.2
v -0.2078284 0.03847855 -0.2078284
v -0.2 0.0375 -0.2
v -0.2 0.0375 -0.15
v -0.2078284 0.03847855 -0.2078284
v -0.2078284 0.03847855 -0.1539142
v -0.2 0.0375 -0.1
v -0.2078284 0.03847855 -0.1
v -0.2 0.0375 -0.05
v -0.2078284 0.03847855 -0.04608579
v -0.2 0.0375 0
v -0.2078284 0.03847855 0.007828422
v -0.05 0.0375 0
v 0 0.0375 0
v -0.04608579 0.03847855 0.007828422
v 0.007828429 0.03847855 0.007828422
v -0.2 0.0375 0
v -0.15 0.0375 0
v -0.2078284 0.03847855 0.007828422
v -0.1539142 0.03847855 0.007828422
v -0.1 0.0375 0
v -0.1 0.03847855 0.007828422
v -0.15 0.0125 0
v -0.2 0.0125 0
v -0.1539142 0.01152145 0.007828422
v -0.2078284 0.01152145 0.007828422
v -0.1 0.0125 0
v -0.1 0.01152145 0.007828422
v -0.05 0.0125 0
v -0.04608579 0.01152145 0.007828422
v 0 0.0125 0
v 0.007828429 0.01152145 0.007828422
v -0.2 0.0125 0
v -0.2 0.0125 -0.05
v -0.2078284 0.01152145 0.007828422
v -0.2078284 0.01152145 -0.04608579
v -0.2 0.0125 -0.1
v -0.2078284 0.01152145 -0.1
v -0.2 0.0125 -0.15
v -0.2078284 0.01152145 -0.1539142
v -0.2 0.0125 -0.2
v -0.2078284 0.01152145 -0.2078284

vn 0 -1 0
vn 0 -0.9999999 0
vn 0 -1 0
vn 0 -0.9999999 0
vn 0 -1 0
vn 0 -1 0
vn 0 -1 0
vn 0 -1 0
vn 0 -1 0
vn 0 -1 0
vn 0 -1 0
vn 0 -1 0
vn 0 -1 0
vn 0 -1 0
vn 0 -1 0
vn 0 -1 0
vn 0 0.9999999 0
vn 0 1 0
vn 0 1 0
vn 0 0.9999999 0
vn 0 1 0
vn 0 1 0
vn 0 1 0
vn 0 1 0
vn 0 1 0
vn 0 1 0
vn 0 1 0
vn 0 1 0
vn 0 1 0
vn 0 1 0
vn 0 1 0
vn 0 1 0
vn 0 0 1
vn 0 0 1
vn 0 0 1
vn 0 0 1
vn 0 0 1
vn 0 0 1
vn 0 0 1
vn 0 0 1
vn 0 0 1
vn 0 0 1
vn 0 0 1
vn 0 0 1
vn 0 0 1
vn 0 0 1
vn 0 0 1
vn 0 0 1
vn 0 0 1
vn 0 0 1
vn 0 0 1
vn 0 0 1
vn 0 0 1
vn 0 0 0.9999999
vn 0 0 0.9999999
vn 0 0 0.9999999
vn 0 0 0.9999999
vn 0 0 1
vn 0 0 0.9999999
vn 0 0 1
vn 0 0 1
vn 0 0 0.9999999
vn 0 0 0.9999999
vn 0 0 1
vn 0 0 0.9999999
vn 0 0 1
vn 0 0 1
vn -1 0 0
vn -1 0 0
vn -1 0 0
vn -1 0 0
vn -1 0 0
vn -1 0 0
vn -1 0 0
vn -1 0 0
vn -1 0 0
vn -1 0 0
vn -1 0 0
vn -1 0 0
vn -1 0 0
vn -1 0 0
vn -1 0 0
vn -1 0 0
vn -1 0 0
vn -1 0 0
vn -1 0 0
vn -1 0 0
vn -0.9999999 0 0
vn -0.9999999 0 0
vn -1 0 0
vn -1 0 0
vn -1 0 0
vn -0.9999999 0 0
vn -0.9999999 0 0
vn -1 0 0
vn -1 0 0
vn -1 0 0
vn -0.9999999 0 0
vn -0.9999999 0 0
vn -0.9999999 0 0
vn -1 0 0
vn -1 0 0
vn 0 0 -1
vn 0 0 -1
vn 0 0 -1
vn 0 0 -1
vn 0 0 -1
vn 0 0 -1
vn 0 0 -1
vn 0 0 -1
vn 0 0 -1
vn 0 0 -1
vn 0 0 -1
vn 0 0 -1
vn 0 0 -1
vn 0 0 -1
vn 0 0 -1
vn 0 0 -1
vn 0 0 -1
vn 0 0 -1
vn 0 0 -1
vn 0 0 -1
vn 0 1.105546E-06 -0.9999999
vn 9.548687E-15 0 -0.9999999
vn -2.763865E-07 0 -0.9999999
vn 0 2.211092E-06 -1
vn 0 -1.105546E-06 -1
vn 0 -2.211092E-06 -1
vn -4.774344E-15 0 -0.9999999
vn 0 2.211092E-06 -1
vn 0 -2.211092E-06 -1
vn -1.842577E-07 7.370307E-07 -1
vn 6.365791E-15 0 -0.9999999
vn -1.842577E-07 -7.370306E-07 -0.9999999
vn 2.763865E-07 -1.105546E-06 -1
vn 5.527729E-07 0 -0.9999999
vn 2.763865E-07 1.105546E-06 -0.9999999
vn 1 0 0
vn 1 0 0
vn 1 0 0
vn 1 0 0
vn 1 0 0
vn 1 0 0
vn 1 0 0
vn 1 0 0
vn 1 0 0
vn 1 0 0
vn 1 0 0
vn 1 0 0
vn 1 0 0
vn 1 0 0
vn 1 0 0
vn 1 0 0
vn 1 0 0
vn 1 0 0
vn 1 0 0
vn 1 0 0
vn 0.9999999 0 0
vn 0.9999999 0 0
vn 0.9999999 0 0
vn 1 0 0
vn 1 0 0
vn 1 0 0
vn 0.9999999 0 0
vn 1 0 0
vn 1 0 0
vn 1 0 0
vn 0.9999999 0 0
vn 1 0 0
vn 0.9999999 0 0
vn 1 0 0
vn 1 0 0
vn -0.7071071 8.429374E-07 -0.7071064
vn -0.7071067 4.055927E-07 -0.7071067
vn -0.7071067 4.055927E-07 -0.7071067
vn -0.7071065 0 -0.7071071
vn -0.7071065 -8.429364E-07 -0.7071072
vn -0.7071067 -4.055926E-07 -0.7071067
vn -0.7071067 -4.055926E-07 -0.7071067
vn -0.7071072 0 -0.7071065
vn 0.7071064 0 -0.7071071
vn 0.7071064 0 -0.7071071
vn 0.7071064 0 -0.7071071
vn 0.7071064 0 -0.7071071
vn 0.7071065 0 -0.7071071
vn 0.7071064 0 -0.7071071
vn 0.7071064 0 -0.7071071
vn 0.7071065 0 -0.7071071
vn -0.7071064 0 0.7071071
vn -0.7071065 0 0.7071071
vn -0.7071065 0 0.7071071
vn -0.7071065 0 0.7071071
vn -0.7071065 0 0.7071071
vn -0.7071064 0 0.7071071
vn -0.7071064 0 0.7071071
vn -0.7071065 0 0.7071071
vn -0.7071068 8.42937E-07 -0.7071067
vn -0.7071072 1.215127E-06 -0.7071065
vn -0.7071072 1.215127E-06 -0.7071065
vn -0.7071074 1.560296E-06 -0.7071061
vn -0.7071074 -8.42936E-07 -0.7071061
vn -0.7071072 -1.215127E-06 -0.7071064
vn -0.7071072 -1.215127E-06 -0.7071064
vn -0.7071069 -1.560296E-06 -0.7071066
vn 0.7071074 -8.429362E-07 0.7071061
vn 0.7071072 -1.215127E-06 0.7071064
vn 0.7071072 -1.215127E-06 0.7071064
vn 0.7071068 -1.560297E-06 0.7071066
vn 0.7071068 8.429367E-07 0.7071067
vn 0.7071072 1.215127E-06 0.7071065
vn 0.7071072 1.215127E-06 0.7071065
vn 0.7071074 1.560295E-06 0.7071061
vn -0.7071081 -3.209006E-12 0.7071055
vn -0.7071075 8.095332E-07 0.7071061
vn -0.7071075 8.095332E-07 0.7071061
vn -0.7071069 1.560296E-06 0.7071066
vn -0.7071068 0 0.7071068
vn -0.7071075 -8.095349E-07 0.7071061
vn -0.7071075 -8.095349E-07 0.7071061
vn -0.7071081 -1.560297E-06 0.7071055
vn 0.7071068 0 -0.7071068
vn 0.7071075 -8.095347E-07 -0.7071061
vn 0.7071075 -8.095347E-07 -0.7071061
vn 0.7071081 -1.560296E-06 -0.7071054
vn 0.7071081 -3.209006E-12 -0.7071054
vn 0.7071075 8.095333E-07 -0.7071061
vn 0.7071075 8.095333E-07 -0.7071061
vn 0.7071068 1.560297E-06 -0.7071066
vn 0.7071064 -8.429366E-07 0.7071072
vn 0.7071067 -4.055927E-07 0.7071067
vn 0.7071067 -4.055927E-07 0.7071067
vn 0.7071071 0 0.7071065
vn 0.7071071 8.429372E-07 0.7071064
vn 0.7071067 4.055926E-07 0.7071067
vn 0.7071067 4.055926E-07 0.7071067
vn 0.7071065 0 0.7071071
vn -0.1240345 0.9922779 0
vn -0.1240345 0.992278 0
vn -0.1240345 0.9922779 0
vn -0.1240345 0.9922779 0
vn -0.1240345 0.992278 0
vn -0.1240345 0.9922779 0
vn -0.1240345 0.9922779 0
vn -0.1240345 0.9922778 0
vn -0.1240345 0.9922779 0
vn -0.1240345 0.9922779 0
vn -0.1240347 -0.9922779 0
vn -0.1240347 -0.9922779 0
vn -0.1240347 -0.9922779 0
vn -0.1240347 -0.9922779 0
vn -0.1240347 -0.992278 0
vn -0.1240347 -0.9922779 0
vn -0.1240347 -0.9922779 0
vn -0.1240347 -0.9922778 0
vn -0.1240347 -0.9922779 0
vn -0.1240347 -0.9922778 0
vn 0 -0.992278 0.1240347
vn 0 -0.9922779 0.1240347
vn 0 -0.9922778 0.1240347
vn 0 -0.9922778 0.1240347
vn 0 -0.992278 0.1240347
vn 0 -0.9922779 0.1240347
vn 0 -0.9922779 0.1240347
vn 0 -0.9922779 0.1240347
vn 0 -0.9922779 0.1240347
vn 0 -0.9922779 0.1240347
vn 0 0.9922779 0.1240345
vn 0 0.992278 0.1240345
vn 0 0.9922779 0.1240345
vn 0 0.9922779 0.1240345
vn 0 0.992278 0.1240345
vn 0 0.9922778 0.1240345
vn 0 0.9922779 0.1240345
vn 0 0.9922778 0.1240345
vn 0 0.9922779 0.1240345
vn 0 0.9922779 0.1240345
vn 0.1240345 0.992278 0
vn 0.1240345 0.9922779 0
vn 0.1240345 0.9922779 0
vn 0.1240345 0.9922778 0
vn 0.1240345 0.992278 0
vn 0.1240345 0.9922779 0
vn 0.1240345 0.9922779 0
vn 0.1240345 0.9922778 0
vn 0.1240345 0.9922779 0
vn 0.1240345 0.9922779 0
vn 0 0.992278 -0.1240346
vn 0 0.992278 -0.1240346
vn 0 0.9922779 -0.1240346
vn 0 0.9922779 -0.1240346
vn 0 0.9922779 -0.1240346
vn 0 0.992278 -0.1240346
vn 0 0.992278 -0.1240346
vn 0 0.9922779 -0.1240346
vn 0 0.992278 -0.1240346
vn 0 0.9922779 -0.1240346
vn 0 -0.9922778 -0.1240348
vn 0 -0.9922779 -0.1240349
vn 0 -0.9922779 -0.1240349
vn 0 -0.9922778 -0.1240348
vn 0 -0.9922778 -0.1240348
vn 0 -0.9922779 -0.1240349
vn 0 -0.9922778 -0.1240348
vn 0 -0.9922779 -0.1240349
vn 0 -0.9922779 -0.1240348
vn 0 -0.9922779 -0.1240349
vn 0.1240347 -0.9922779 0
vn 0.1240347 -0.992278 0
vn 0.1240347 -0.9922779 0
vn 0.1240347 -0.9922779 0
vn 0.1240347 -0.992278 0
vn 0.1240347 -0.9922779 0
vn 0.1240347 -0.9922779 0
vn 0.1240347 -0.9922778 0
vn 0.1240347 -0.9922778 0
vn 0.1240347 -0.9922779 0

vt 0.01576886 0.1945858
vt 0.1329564 0.3117733
vt 0.2501439 0.1945858
vt 0.1329564 0.07739828
vt 0.01576886 0.2531796
vt 0.07436262 0.3117733
vt 0.01576886 0.3117733
vt 0.1915502 0.07739828
vt 0.07436262 0.07739828
vt 0.01576886 0.135992
vt 0.01576886 0.07739828
vt 0.1915502 0.3117733
vt 0.2501439 0.3117733
vt 0.2501439 0.2531796
vt 0.2501439 0.07739828
vt 0.2501439 0.135992
vt 0.4129121 0.3117733
vt 0.5300996 0.1945858
vt 0.4129121 0.07739828
vt 0.2957246 0.1945858
vt 0.4715059 0.3117733
vt 0.5300996 0.3117733
vt 0.5300996 0.2531796
vt 0.5300996 0.135992
vt 0.5300996 0.07739828
vt 0.4715059 0.07739828
vt 0.2957246 0.2531796
vt 0.3543184 0.3117733
vt 0.2957246 0.3117733
vt 0.2957246 0.135992
vt 0.3543184 0.07739828
vt 0.2957246 0.07739828
vt 0.4129121 0.3264217
vt 0.4715059 0.3264217
vt 0.4129121 0.3117733
vt 0.4715059 0.3117733
vt 0.3543184 0.3264217
vt 0.3543184 0.3117733
vt 0.2957246 0.3264217
vt 0.2957246 0.3117733
vt 0.5300996 0.3264217
vt 0.5300996 0.3117733
vt 0.07436262 0.3264217
vt 0.07436262 0.3117733
vt 0.01576886 0.3264217
vt 0.01576886 0.3117733
vt 0.1329564 0.3264217
vt 0.1915502 0.3264217
vt 0.1329564 0.3117733
vt 0.1915502 0.3117733
vt 0.2501439 0.3117733
vt 0.2501439 0.3264217
vt 0.8131643 0.04115441
vt 0.8131643 0.02546453
vt 0.7501632 0.04115441
vt 0.7501632 0.02546453
vt 0.8131643 0.009774651
vt 0.7501632 0.009774651
vt 0.8759238 0.02546453
vt 0.8759238 0.04115441
vt 0.8759238 0.009774651
vt 0.9386833 0.04115441
vt 0.9386833 0.02546453
vt 0.9386833 0.009774651
vt 1.001443 0.02546453
vt 1.001443 0.04115441
vt 1.001443 0.009774651
vt 0.5447481 0.135992
vt 0.5447481 0.07739829
vt 0.5300996 0.07739829
vt 0.5300996 0.135992
vt 0.5447481 0.2531796
vt 0.5447481 0.1945858
vt 0.5300996 0.2531796
vt 0.5300996 0.1945858
vt 0.5447481 0.3117733
vt 0.5300996 0.3117733
vt 0.001120448 0.135992
vt 0.01576886 0.135992
vt 0.001120448 0.07739824
vt 0.01576886 0.07739824
vt 0.001120448 0.1945858
vt 0.01576886 0.1945858
vt 0.001120448 0.2531796
vt 0.01576886 0.2531796
vt 0.01576886 0.3117733
vt 0.001120448 0.3117733
vt 0.5616433 0.02546453
vt 0.5616433 0.009774651
vt 0.4999892 0.009774651
vt 0.4999892 0.02546453
vt 0.5616433 0.04115441
vt 0.4999892 0.04115441
vt 0.6244028 0.02546453
vt 0.6244028 0.04115441
vt 0.6871623 0.009774651
vt 0.6244028 0.009774651
vt 0.6871623 0.02546453
vt 0.6871623 0.04115441
vt 0.7501632 0.02546453
vt 0.750284 0.04115441
vt 0.750284 0.009774651
vt 0.3543184 0.06274983
vt 0.2957246 0.06274983
vt 0.2957246 0.07739828
vt 0.3543184 0.07739828
vt 0.4129121 0.06274983
vt 0.4129121 0.07739828
vt 0.5300996 0.06274983
vt 0.4715059 0.06274983
vt 0.4715059 0.07739828
vt 0.5300996 0.07739828
vt 0.1915502 0.06274983
vt 0.1915502 0.07739828
vt 0.2501439 0.07739827
vt 0.2501439 0.06274983
vt 0.1329564 0.06274983
vt 0.1329564 0.07739828
vt 0.07436262 0.06274985
vt 0.07436262 0.07739829
vt 0.01576886 0.06274985
vt 0.01576886 0.07739829
vt 0.312816 0.04115441
vt 0.312816 0.02546453
vt 0.2504033 0.02546453
vt 0.2504033 0.04115441
vt 0.312816 0.009774651
vt 0.2504033 0.009774651
vt 0.3755755 0.02546453
vt 0.3755755 0.04115441
vt 0.3755755 0.009774651
vt 0.438335 0.04115441
vt 0.438335 0.02546453
vt 0.438335 0.009774651
vt 0.4994364 0.009774651
vt 0.4999892 0.02546453
vt 0.4994365 0.04115441
vt 0.2810762 0.2531796
vt 0.2810762 0.3117733
vt 0.2957246 0.3117733
vt 0.2957246 0.2531796
vt 0.2810762 0.1945858
vt 0.2957246 0.1945858
vt 0.2810762 0.07739824
vt 0.2810762 0.135992
vt 0.2957246 0.135992
vt 0.2957246 0.07739824
vt 0.2647923 0.2531796
vt 0.2501439 0.2531796
vt 0.2501439 0.3117733
vt 0.2647923 0.3117733
vt 0.2647923 0.1945858
vt 0.2501439 0.1945858
vt 0.2501439 0.1359921
vt 0.2647923 0.1359921
vt 0.2647923 0.07739829
vt 0.2501439 0.07739829
vt 0.06247154 0.04115441
vt 0.06247154 0.02546453
vt -0.00028795 0.02546453
vt -0.00028795 0.04115441
vt 0.06247154 0.009774651
vt -0.00028795 0.009774651
vt 0.1252311 0.02546453
vt 0.1252311 0.04115441
vt 0.1252311 0.009774651
vt 0.1879905 0.009774651
vt 0.1879905 0.02546453
vt 0.1879905 0.04115441
vt 0.2502299 0.04115441
vt 0.2504033 0.02546453
vt 0.2502299 0.009774651
vt -0.00028795 0.009774651
vt -0.00028795 0.02432543
vt 0.01259941 0.009774651
vt 0.01259941 0.02546452
vt -0.00028795 0.01091375
vt -0.00028795 0.02546453
vt 0.01259947 0.009774651
vt 0.01259947 0.02546453
vt 0.01259941 0.02432543
vt 0.01259941 0.009774651
vt -0.00028795 0.02546452
vt -0.00028795 0.009774651
vt 0.01259941 0.02546453
vt 0.01259941 0.01091375
vt -0.00028795 0.02546453
vt -0.00028795 0.009774651
vt -0.00028795 0.009774651
vt -0.00028795 0.02432543
vt 0.01259941 0.009774651
vt 0.01259941 0.02546452
vt -0.00028795 0.01091375
vt -0.00028795 0.02546453
vt 0.01259941 0.009774651
vt 0.01259941 0.02546453
vt 0.01259947 0.02432543
vt 0.01259947 0.009774651
vt -0.00028795 0.02546452
vt -0.00028795 0.009774651
vt 0.01259947 0.02546453
vt 0.01259947 0.01091375
vt -0.00028795 0.02546453
vt -0.00028795 0.009774651
vt -0.00028795 0.009774651
vt -0.00028795 0.02432543
vt 0.01259947 0.009774651
vt 0.01259947 0.02546452
vt -0.00028795 0.01091375
vt -0.00028795 0.02546453
vt 0.01259941 0.009774651
vt 0.01259947 0.02546453
vt 0.01259941 0.02546453
vt 0.01259947 0.01091375
vt -0.00028795 0.02546453
vt -0.00028795 0.009774651
vt 0.0125995 0.02432543
vt 0.01259947 0.009774651
vt -0.00028795 0.02546452
vt -0.00028795 0.009774651
vt -0.0002880096 0.01091375
vt -0.00028795 0.02546453
vt 0.01259941 0.009774651
vt 0.01259947 0.02546453
vt -0.00028795 0.009774651
vt -0.00028795 0.02432543
vt 0.01259947 0.009774651
vt 0.01259941 0.02546452
vt 0.01259947 0.02432543
vt 0.01259947 0.009774651
vt -0.00028795 0.02546452
vt -0.00028795 0.009774651
vt 0.01259941 0.02546453
vt 0.01259941 0.01091375
vt -0.00028795 0.02546453
vt -0.00028795 0.009774651
vt 0.008824795 0.05033811
vt 0.06702793 0.05033811
vt -0.00028795 0.04115441
vt 0.06247154 0.04115441
vt 0.125231 0.0503381
vt 0.1252311 0.04115441
vt 0.1834342 0.0503381
vt 0.1879905 0.04115441
vt 0.2416373 0.0503381
vt 0.2507501 0.04115441
vt 0.06702793 0.0005909428
vt 0.008824795 0.0005909428
vt 0.06247154 0.009774651
vt -0.00028795 0.009774651
vt 0.125231 0.0005909428
vt 0.1252311 0.009774651
vt 0.1834342 0.0005909428
vt 0.1879905 0.009774651
vt 0.2416373 0.0005909428
vt 0.2507501 0.009774651
vt 0.3755755 0.0005909242
vt 0.3173724 0.0005909428
vt 0.3755755 0.009774633
vt 0.312816 0.009774651
vt 0.4337786 0.0005909242
vt 0.438335 0.009774633
vt 0.4919817 0.0005909242
vt 0.5010945 0.009774633
vt 0.2591693 0.0005909428
vt 0.2502299 0.009774651
vt 0.2591693 0.0503381
vt 0.3173724 0.0503381
vt 0.2502299 0.04115441
vt 0.312816 0.04115441
vt 0.3755755 0.0503381
vt 0.3755755 0.04115441
vt 0.4337786 0.0503381
vt 0.438335 0.04115441
vt 0.4919818 0.0503381
vt 0.5010945 0.04115441
vt 0.5079965 0.0503381
vt 0.5661997 0.0503381
vt 0.4994365 0.04115441
vt 0.5616433 0.04115441
vt 0.6244028 0.0503381
vt 0.6244028 0.04115441
vt 0.682606 0.0503381
vt 0.6871623 0.04115441
vt 0.7408091 0.0503381
vt 0.7499218 0.04115441
vt 0.9341269 0.05033808
vt 0.9923301 0.05033808
vt 0.9386833 0.04115439
vt 1.001443 0.04115438
vt 0.7595176 0.0503381
vt 0.8177206 0.05033809
vt 0.750284 0.04115441
vt 0.8131643 0.04115441
vt 0.8759238 0.05033808
vt 0.8759238 0.04115439
vt 0.8177206 0.0005909596
vt 0.7595176 0.0005909596
vt 0.8131643 0.009774651
vt 0.750284 0.009774651
vt 0.8759238 0.0005909596
vt 0.8759238 0.009774651
vt 0.9341269 0.0005909596
vt 0.9386833 0.009774651
vt 0.9923301 0.0005909596
vt 1.001443 0.009774651
vt 0.7408091 0.0005909428
vt 0.682606 0.0005909428
vt 0.7499218 0.009774651
vt 0.6871623 0.009774651
vt 0.6244028 0.0005909428
vt 0.6244028 0.009774651
vt 0.5661997 0.0005909428
vt 0.5616433 0.009774651
vt 0.5079965 0.0005909428
vt 0.4994364 0.009774651

g Default_Prototype
usemtl Default_Prototype
usemap Default_Prototype
f 2/2/2 1/1/1 3/3/3
f 1/1/1 4/4/4 3/3/3
f 1/1/1 2/2/2 5/5/5
f 2/2/2 6/6/6 5/5/5
f 6/6/6 7/7/7 5/5/5
f 3/3/3 4/4/4 8/8/8
f 4/4/4 1/1/1 9/9/9
f 1/1/1 10/10/10 9/9/9
f 10/10/10 11/11/11 9/9/9
f 13/13/13 12/12/12 14/14/14
f 2/2/2 3/3/3 14/14/14
f 12/12/12 2/2/2 14/14/14
f 8/8/8 15/15/15 16/16/16
f 3/3/3 8/8/8 16/16/16
f 18/18/18 17/17/17 19/19/19
f 19/19/19 17/17/17 20/20/20
f 22/22/22 21/21/21 23/23/23
f 17/17/17 18/18/18 23/23/23
f 21/21/21 17/17/17 23/23/23
f 25/25/25 24/24/24 26/26/26
f 18/18/18 19/19/19 26/26/26
f 24/24/24 18/18/18 26/26/26
f 20/20/20 17/17/17 27/27/27
f 17/17/17 28/28/28 27/27/27
f 28/28/28 29/29/29 27/27/27
f 19/19/19 20/20/20 30/30/30
f 31/31/31 19/19/19 30/30/30
f 32/32/32 31/31/31 30/30/30
f 34/34/34 33/33/33 35/35/35
f 36/36/36 34/34/34 35/35/35
f 33/33/33 37/37/37 38/38/38
f 33/33/33 38/38/38 35/35/35
f 37/37/37 39/39/39 40/40/40
f 38/38/38 37/37/37 40/40/40
f 41/41/41 34/34/34 42/42/42
f 34/34/34 36/36/36 42/42/42
f 44/44/44 43/43/43 45/45/45
f 44/44/44 45/45/45 46/46/46
f 48/48/48 47/47/47 49/49/49
f 50/50/50 48/48/48 49/49/49
f 48/48/48 50/50/50 51/51/51
f 52/52/52 48/48/48 51/51/51
f 47/47/47 43/43/43 49/49/49
f 43/43/43 44/44/44 49/49/49
f 54/54/54 53/53/53 55/55/55
f 54/54/54 55/55/55 56/56/56
f 57/57/57 54/54/54 58/58/58
f 58/58/58 54/54/54 56/56/56
f 53/53/53 54/54/54 59/59/59
f 60/60/60 53/53/53 59/59/59
f 57/57/57 61/61/61 59/59/59
f 54/54/54 57/57/57 59/59/59
f 63/63/63 62/62/62 59/59/59
f 62/62/62 60/60/60 59/59/59
f 61/61/61 64/64/64 59/59/59
f 64/64/64 63/63/63 59/59/59
f 62/62/62 63/63/63 65/65/65
f 66/66/66 62/62/62 65/65/65
f 63/63/63 64/64/64 65/65/65
f 64/64/64 67/67/67 65/65/65
f 69/69/69 68/68/68 70/70/70
f 68/68/68 71/71/71 70/70/70
f 73/73/73 72/72/72 74/74/74
f 73/73/73 74/74/74 75/75/75
f 72/72/72 76/76/76 77/77/77
f 74/74/74 72/72/72 77/77/77
f 68/68/68 73/73/73 75/75/75
f 71/71/71 68/68/68 75/75/75
f 79/79/79 78/78/78 80/80/80
f 79/79/79 80/80/80 81/81/81
f 82/82/82 78/78/78 83/83/83
f 78/78/78 79/79/79 83/83/83
f 84/84/84 82/82/82 83/83/83
f 85/85/85 84/84/84 83/83/83
f 84/84/84 85/85/85 86/86/86
f 87/87/87 84/84/84 86/86/86
f 89/89/89 88/88/88 90/90/90
f 90/90/90 88/88/88 91/91/91
f 88/88/88 92/92/92 93/93/93
f 88/88/88 93/93/93 91/91/91
f 92/92/92 88/88/88 94/94/94
f 95/95/95 92/92/92 94/94/94
f 97/97/97 96/96/96 94/94/94
f 96/96/96 98/98/98 94/94/94
f 98/98/98 99/99/99 94/94/94
f 99/99/99 95/95/95 94/94/94
f 99/99/99 98/98/98 100/100/100
f 101/101/101 99/99/99 100/100/100
f 98/98/98 96/96/96 100/100/100
f 96/96/96 102/102/102 100/100/100
f 89/89/89 97/97/97 94/94/94
f 88/88/88 89/89/89 94/94/94
f 104/104/104 103/103/103 105/105/105
f 103/103/103 106/106/106 105/105/105
f 103/103/103 107/107/107 106/106/106
f 106/106/106 107/107/107 108/108/108
f 110/110/110 109/109/109 111/111/111
f 111/111/111 109/109/109 112/112/112
f 107/107/107 110/110/110 108/108/108
f 110/110/110 111/111/111 108/108/108
f 114/114/114 113/113/113 115/115/115
f 113/113/113 116/116/116 115/115/115
f 117/117/117 113/113/113 118/118/118
f 113/113/113 114/114/114 118/118/118
f 119/119/119 117/117/117 118/118/118
f 120/120/120 119/119/119 118/118/118
f 119/119/119 120/120/120 121/121/121
f 121/121/121 120/120/120 122/122/122
f 124/124/124 123/123/123 125/125/125
f 123/123/123 126/126/126 125/125/125
f 127/127/127 124/124/124 125/125/125
f 128/128/128 127/127/127 125/125/125
f 123/123/123 124/124/124 129/129/129
f 130/130/130 123/123/123 129/129/129
f 127/127/127 131/131/131 129/129/129
f 124/124/124 127/127/127 129/129/129
f 133/133/133 132/132/132 129/129/129
f 132/132/132 130/130/130 129/129/129
f 131/131/131 134/134/134 129/129/129
f 134/134/134 133/133/133 129/129/129
f 133/133/133 134/134/134 135/135/135
f 133/133/133 135/135/135 136/136/136
f 132/132/132 133/133/133 137/137/137
f 137/137/137 133/133/133 136/136/136
f 139/139/139 138/138/138 140/140/140
f 138/138/138 141/141/141 140/140/140
f 138/138/138 142/142/142 141/141/141
f 141/141/141 142/142/142 143/143/143
f 145/145/145 144/144/144 146/146/146
f 146/146/146 144/144/144 147/147/147
f 142/142/142 145/145/145 143/143/143
f 145/145/145 146/146/146 143/143/143
f 149/149/149 148/148/148 150/150/150
f 148/148/148 151/151/151 150/150/150
f 152/152/152 148/148/148 153/153/153
f 148/148/148 149/149/149 153/153/153
f 155/155/155 154/154/154 156/156/156
f 156/156/156 154/154/154 157/157/157
f 155/155/155 152/152/152 153/153/153
f 154/154/154 155/155/155 153/153/153
f 159/159/159 158/158/158 160/160/160
f 158/158/158 161/161/161 160/160/160
f 162/162/162 159/159/159 160/160/160
f 163/163/163 162/162/162 160/160/160
f 158/158/158 159/159/159 164/164/164
f 165/165/165 158/158/158 164/164/164
f 162/162/162 166/166/166 164/164/164
f 159/159/159 162/162/162 164/164/164
f 166/166/166 167/167/167 164/164/164
f 167/167/167 168/168/168 164/164/164
f 168/168/168 169/169/169 164/164/164
f 169/169/169 165/165/165 164/164/164
f 169/169/169 168/168/168 170/170/170
f 170/170/170 168/168/168 171/171/171
f 168/168/168 167/167/167 172/172/172
f 168/168/168 172/172/172 171/171/171
f 174/174/174 173/173/173 175/175/175
f 176/176/176 174/174/174 175/175/175
f 178/178/178 177/177/177 179/179/179
f 180/180/180 178/178/178 179/179/179
f 182/182/182 181/181/181 183/183/183
f 184/184/184 182/182/182 183/183/183
f 186/186/186 185/185/185 187/187/187
f 188/188/188 186/186/186 187/187/187
f 190/190/190 189/189/189 191/191/191
f 192/192/192 190/190/190 191/191/191
f 194/194/194 193/193/193 195/195/195
f 196/196/196 194/194/194 195/195/195
f 198/198/198 197/197/197 199/199/199
f 200/200/200 198/198/198 199/199/199
f 202/202/202 201/201/201 203/203/203
f 204/204/204 202/202/202 203/203/203
f 206/206/206 205/205/205 207/207/207
f 208/208/208 206/206/206 207/207/207
f 210/210/210 209/209/209 211/211/211
f 212/212/212 210/210/210 211/211/211
f 214/214/214 213/213/213 215/215/215
f 216/216/216 214/214/214 215/215/215
f 218/218/218 217/217/217 219/219/219
f 220/220/220 218/218/218 219/219/219
f 222/222/222 221/221/221 223/223/223
f 224/224/224 222/222/222 223/223/223
f 226/226/226 225/225/225 227/227/227
f 228/228/228 226/226/226 227/227/227
f 230/230/230 229/229/229 231/231/231
f 232/232/232 230/230/230 231/231/231
f 234/234/234 233/233/233 235/235/235
f 236/236/236 234/234/234 235/235/235
f 238/238/238 237/237/237 239/239/239
f 240/240/240 238/238/238 239/239/239
f 241/241/241 238/238/238 240/240/240
f 242/242/242 241/241/241 240/240/240
f 243/243/243 241/241/241 242/242/242
f 244/244/244 243/243/243 242/242/242
f 245/245/245 243/243/243 244/244/244
f 246/246/246 245/245/245 244/244/244
f 248/248/248 247/247/247 249/249/249
f 250/250/250 248/248/248 249/249/249
f 247/247/247 251/251/251 252/252/252
f 249/249/249 247/247/247 252/252/252
f 251/251/251 253/253/253 254/254/254
f 252/252/252 251/251/251 254/254/254
f 253/253/253 255/255/255 256/256/256
f 254/254/254 253/253/253 256/256/256
f 258/258/258 257/257/257 259/259/259
f 260/260/260 258/258/258 259/259/259
f 257/257/257 261/261/261 262/262/262
f 259/259/259 257/257/257 262/262/262
f 261/261/261 263/263/263 264/264/264
f 262/262/262 261/261/261 264/264/264
f 265/265/265 258/258/258 260/260/260
f 266/266/266 265/265/265 260/260/260
f 268/268/268 267/267/267 269/269/269
f 270/270/270 268/268/268 269/269/269
f 271/271/271 268/268/268 270/270/270
f 272/272/272 271/271/271 270/270/270
f 273/273/273 271/271/271 272/272/272
f 274/274/274 273/273/273 272/272/272
f 275/275/275 273/273/273 274/274/274
f 276/276/276 275/275/275 274/274/274
f 278/278/278 277/277/277 279/279/279
f 280/280/280 278/278/278 279/279/279
f 281/281/281 278/278/278 280/280/280
f 282/282/282 281/281/281 280/280/280
f 283/283/283 281/281/281 282/282/282
f 284/284/284 283/283/283 282/282/282
f 285/285/285 283/283/283 284/284/284
f 286/286/286 285/285/285 284/284/284
f 288/288/288 287/287/287 289/289/289
f 290/290/290 288/288/288 289/289/289
f 292/292/292 291/291/291 293/293/293
f 294/294/294 292/292/292 293/293/293
f 287/287/287 295/295/295 296/296/296
f 289/289/289 287/287/287 296/296/296
f 295/295/295 292/292/292 294/294/294
f 296/296/296 295/295/295 294/294/294
f 298/298/298 297/297/297 299/299/299
f 300/300/300 298/298/298 299/299/299
f 297/297/297 301/301/301 302/302/302
f 299/299/299 297/297/297 302/302/302
f 301/301/301 303/303/303 304/304/304
f 302/302/302 301/301/301 304/304/304
f 303/303/303 305/305/305 306/306/306
f 304/304/304 303/303/303 306/306/306
f 308/308/308 307/307/307 309/309/309
f 310/310/310 308/308/308 309/309/309
f 311/311/311 308/308/308 310/310/310
f 312/312/312 311/311/311 310/310/310
f 313/313/313 311/311/311 312/312/312
f 314/314/314 313/313/313 312/312/312
f 315/315/315 313/313/313 314/314/314
f 316/316/316 315/315/315 314/314/314
