mtllib ./WallThinTop2_2.mtl
g pb-MergedObject-1325762
v 0.1717031 -0.006859779 -0.1722852
v 0.1717031 0.23314 -0.1722852
v -0.1708765 -0.006859779 -0.1722852
v -0.1708765 0.23314 -0.1722852
v -0.5208764 0.23314 -0.1722852
v -0.5208764 -0.006859779 -0.1722852
v 0.1717031 0.23314 0.01771474
v 0.1717031 -0.006859779 0.2077148
v 0.1717031 0.23314 0.2077148
v 0.1717031 -0.006859779 0.01771474
v 0.1717031 0.23314 -0.1722852
v 0.1717031 -0.006859779 -0.1722852
v -0.5208764 -0.006859779 -0.1722852
v -0.5208764 0.23314 -0.1722852
v -0.5208764 -0.006859779 0.01771474
v -0.5208764 0.23314 0.01771474
v -0.5208764 0.23314 0.2077148
v -0.5208764 -0.006859779 0.2077148
v -0.1708765 0.23314 0.2077148
v -0.5208764 -0.006859779 0.2077148
v -0.5208764 0.23314 0.2077148
v -0.1708765 -0.006859779 0.2077148
v 0.1717031 0.23314 0.2077148
v 0.1717031 -0.006859779 0.2077148
v -0.1708765 -0.006859779 -0.1722852
v -0.1708765 -0.006859779 0.01771474
v 0.1717031 -0.006859779 -0.1722852
v 0.1717031 -0.006859779 0.01771474
v -0.5208764 -0.006859779 0.01771474
v -0.5208764 -0.006859779 -0.1722852
v 0.1717031 -0.006859779 0.01771474
v -0.1708765 -0.006859779 0.01771474
v 0.1717031 -0.006859779 0.2077148
v -0.1708765 -0.006859779 0.2077148
v -0.5208764 -0.006859779 0.01771474
v -0.5208764 -0.006859779 0.2077148
v -0.1708765 0.23314 0.01771474
v -0.5208764 0.23314 0.01771474
v -0.1708765 0.23314 -0.1722852
v -0.5208764 0.23314 -0.1722852
v -0.1708765 0.23314 0.2077148
v 0.1717031 0.23314 0.2077148
v 0.1717031 0.23314 0.01771474
v -0.5208764 0.23314 0.2077148
v 0.1717031 0.23314 -0.1722852
v 0.5291238 0.009140015 -0.1842852
v 0.5291238 0.2391396 -0.1842852
v 0.3541238 0.009140015 -0.1842852
v 0.3541238 0.2391396 -0.1842852
v 0.1791239 0.2391396 -0.1842852
v 0.1791239 0.009140015 -0.1842852
v 0.5291238 0.2391396 0.01571476
v 0.5291238 0.009140015 0.2157148
v 0.5291238 0.2391396 0.2157148
v 0.5291238 0.009140015 0.01571476
v 0.5291238 0.2391396 -0.1842852
v 0.5291238 0.009140015 -0.1842852
v 0.1791239 0.009140015 -0.1842852
v 0.1791239 0.2391396 -0.1842852
v 0.1791239 0.009140015 0.01571476
v 0.1791239 0.2391396 0.01571476
v 0.1791239 0.2391396 0.2157148
v 0.1791239 0.009140015 0.2157148
v 0.3541238 0.2391396 0.2157148
v 0.1791239 0.009140015 0.2157148
v 0.1791239 0.2391396 0.2157148
v 0.3541238 0.009140015 0.2157148
v 0.5291238 0.2391396 0.2157148
v 0.5291238 0.009140015 0.2157148
v 0.3541238 0.009140015 -0.1842852
v 0.3541238 0.009140015 0.01571476
v 0.5291238 0.009140015 -0.1842852
v 0.5291238 0.009140015 0.01571476
v 0.1791239 0.009140015 -0.1842852
v 0.1791239 0.009140015 0.01571476
v 0.5291238 0.009140015 0.01571476
v 0.3541238 0.009140015 0.01571476
v 0.5291238 0.009140015 0.2157148
v 0.3541238 0.009140015 0.2157148
v 0.1791239 0.009140015 0.01571476
v 0.1791239 0.009140015 0.2157148
v 0.3541238 0.2391396 0.01571476
v 0.3541238 0.2391396 0.2157148
v 0.1791239 0.2391396 0.2157148
v 0.1791239 0.2391396 0.01571476
v 0.3541238 0.2391396 -0.1842852
v 0.1791239 0.2391396 -0.1842852
v 0.5291238 0.2391396 0.01571476
v 0.5291238 0.2391396 -0.1842852
v 0.5291238 0.2391396 0.2157148
v 0.8041236 0.2441397 -0.1722852
v 1.079124 0.0041399 -0.1722852
v 1.079124 0.2441397 -0.1722852
v 0.8041236 0.0041399 -0.1722852
v 0.5291238 0.2441397 -0.1722852
v 0.5291238 0.0041399 -0.1722852
v 1.079124 0.0041399 0.1977148
v 1.079124 0.2441397 0.1977148
v 1.079124 0.0041399 0.01271486
v 1.079124 0.2441397 0.01271486
v 1.079124 0.2441397 -0.1722852
v 1.079124 0.0041399 -0.1722852
v 0.5291238 0.2441397 0.01271486
v 0.5291238 0.0041399 -0.1722852
v 0.5291238 0.2441397 -0.1722852
v 0.5291238 0.0041399 0.01271486
v 0.5291238 0.2441397 0.1977148
v 0.5291238 0.0041399 0.1977148
v 0.8041236 0.2441397 0.1977148
v 0.5291238 0.0041399 0.1977148
v 0.5291238 0.2441397 0.1977148
v 0.8041236 0.0041399 0.1977148
v 1.079124 0.2441397 0.1977148
v 1.079124 0.0041399 0.1977148
v 0.8041236 0.0041399 -0.1722852
v 0.8041236 0.0041399 0.01271486
v 1.079124 0.0041399 -0.1722852
v 1.079124 0.0041399 0.01271486
v 0.5291238 0.0041399 0.01271486
v 0.5291238 0.0041399 -0.1722852
v 1.079124 0.0041399 0.01271486
v 0.8041236 0.0041399 0.01271486
v 1.079124 0.0041399 0.1977148
v 0.8041236 0.0041399 0.1977148
v 0.5291238 0.0041399 0.01271486
v 0.5291238 0.0041399 0.1977148
v 0.8041236 0.2441397 0.1977148
v 0.8041236 0.2441397 0.01271486
v 1.079124 0.2441397 0.1977148
v 1.079124 0.2441397 0.01271486
v 0.5291238 0.2441397 0.01271486
v 0.5291238 0.2441397 0.1977148
v 0.8041236 0.2441397 -0.1722852
v 0.5291238 0.2441397 -0.1722852
v 1.079124 0.2441397 -0.1722852
v -0.8958764 0.2481403 -0.1882852
v -0.5208764 -0.001859665 -0.1882852
v -0.5208764 0.2481403 -0.1882852
v -0.8958764 -0.001859665 -0.1882852
v -0.9211769 0.2481403 -0.1882852
v -0.9211769 -0.001859665 -0.1882852
v -0.5208764 0.2481403 0.0117147
v -0.5208764 -0.001859665 0.2117147
v -0.5208764 0.2481403 0.2117147
v -0.5208764 -0.001859665 0.0117147
v -0.5208764 0.2481403 -0.1882852
v -0.5208764 -0.001859665 -0.1882852
v -0.9211769 0.2481403 0.0117147
v -0.9211769 -0.001859665 -0.1882852
v -0.9211769 0.2481403 -0.1882852
v -0.9211769 -0.001859665 0.0117147
v -0.9211769 0.2481403 0.2117147
v -0.9211769 -0.001859665 0.2117147
v -0.8958764 0.2481403 0.2117147
v -0.9211769 -0.001859665 0.2117147
v -0.9211769 0.2481403 0.2117147
v -0.8958764 -0.001859665 0.2117147
v -0.5208764 0.2481403 0.2117147
v -0.5208764 -0.001859665 0.2117147
v -0.8958764 -0.001859665 -0.1882852
v -0.8958764 -0.001859665 0.0117147
v -0.5208764 -0.001859665 -0.1882852
v -0.5208764 -0.001859665 0.0117147
v -0.9211769 -0.001859665 -0.1882852
v -0.9211769 -0.001859665 0.0117147
v -0.5208764 -0.001859665 0.0117147
v -0.8958764 -0.001859665 0.0117147
v -0.5208764 -0.001859665 0.2117147
v -0.8958764 -0.001859665 0.2117147
v -0.9211769 -0.001859665 0.0117147
v -0.9211769 -0.001859665 0.2117147
v -0.5208764 0.2481403 0.0117147
v -0.8958764 0.2481403 0.0117147
v -0.5208764 0.2481403 -0.1882852
v -0.8958764 0.2481403 -0.1882852
v -0.8958764 0.2481403 0.2117147
v -0.9211769 0.2481403 0.2117147
v -0.9211769 0.2481403 0.0117147
v -0.5208764 0.2481403 0.2117147
v -0.9211769 0.2481403 -0.1882852

vn 0 0 -1
vn 0 0 -1
vn 0 0 -1
vn 0 0 -1
vn 0 0 -1
vn 0 0 -1
vn 1 0 0
vn 1 0 0
vn 1 0 0
vn 1 0 0
vn 1 0 0
vn 1 0 0
vn -1 0 0
vn -1 0 0
vn -1 0 0
vn -1 0 0
vn -1 0 0
vn -1 0 0
vn 0 0 1
vn 0 0 1
vn 0 0 1
vn 0 0 1
vn 0 0 1
vn 0 0 1
vn 0 -1 0
vn 0 -0.9999999 0
vn 0 -1 0
vn 0 -1 0
vn 0 -1 0
vn 0 -1 0
vn 0 -1 0
vn 0 -1 0
vn 0 -1 0
vn 0 -1 0
vn 0 -1 0
vn 0 -1 0
vn 0 0.9999999 0
vn 0 1 0
vn 0 1 0
vn 0 1 0
vn 0 1 0
vn 0 1 0
vn 0 1 0
vn 0 1 0
vn 0 1 0
vn 0 0 -1
vn 0 0 -1
vn 0 0 -1
vn 0 0 -1
vn 0 0 -1
vn 0 0 -1
vn 1 0 0
vn 1 0 0
vn 1 0 0
vn 1 0 0
vn 1 0 0
vn 1 0 0
vn -1 0 0
vn -1 0 0
vn -1 0 0
vn -1 0 0
vn -1 0 0
vn -1 0 0
vn 0 0 1
vn 0 0 1
vn 0 0 1
vn 0 0 1
vn 0 0 1
vn 0 0 1
vn 0 -1 0
vn 0 -1 0
vn 0 -1 0
vn 0 -1 0
vn 0 -1 0
vn 0 -1 0
vn 0 -1 0
vn 0 -1 0
vn 0 -1 0
vn 0 -1 0
vn 0 -1 0
vn 0 -1 0
vn 0 1 0
vn 0 1 0
vn 0 1 0
vn 0 1 0
vn 0 1 0
vn 0 1 0
vn 0 1 0
vn 0 1 0
vn 0 1 0
vn 0 0 -1
vn 0 0 -1
vn 0 0 -1
vn 0 0 -1
vn 0 0 -1
vn 0 0 -1
vn 0.9999999 0 0
vn 0.9999999 0 0
vn 0.9999999 0 0
vn 0.9999999 0 0
vn 0.9999999 0 0
vn 0.9999999 0 0
vn -1 0 0
vn -0.9999999 0 0
vn -0.9999999 0 0
vn -1 0 0
vn -0.9999999 0 0
vn -0.9999999 0 0
vn 0 0 1
vn 0 0 1
vn 0 0 1
vn 0 0 1
vn 0 0 1
vn 0 0 1
vn 0 -1 0
vn 0 -1 0
vn 0 -0.9999999 0
vn 0 -0.9999999 0
vn 0 -0.9999999 0
vn 0 -0.9999999 0
vn 0 -1 0
vn 0 -1 0
vn 0 -1 0
vn 0 -1 0
vn 0 -1 0
vn 0 -1 0
vn 0 1 0
vn 0 1 0
vn 0 1 0
vn 0 1 0
vn 0 0.9999999 0
vn 0 1 0
vn 0 1 0
vn 0 0.9999999 0
vn 0 0.9999999 0
vn 0 0 -1
vn 0 0 -1
vn 0 0 -1
vn 0 0 -0.9999999
vn 0 0 -1
vn 0 0 -1
vn 1 0 0
vn 1 0 0
vn 1 0 0
vn 1 0 0
vn 1 0 0
vn 1 0 0
vn -1 0 0
vn -1 0 0
vn -1 0 0
vn -1 0 0
vn -1 0 0
vn -1 0 0
vn 0 0 0.9999999
vn 0 0 1
vn 0 0 1
vn 0 0 1
vn 0 0 1
vn 0 0 1
vn 0 -1 0
vn 0 -1 0
vn 0 -1 0
vn 0 -1 0
vn 0 -1 0
vn 0 -1 0
vn 0 -1 0
vn 0 -1 0
vn 0 -1 0
vn 0 -1 0
vn 0 -1 0
vn 0 -1 0
vn 0 1 0
vn 0 1 0
vn 0 1 0
vn 0 1 0
vn 0 1 0
vn 0 1 0
vn 0 1 0
vn 0 1 0
vn 0 1 0

vt 0.4358363 0.1018798
vt 0.4358363 0.1682473
vt 0.5326224 0.1018798
vt 0.5326224 0.1682473
vt 0.6294084 0.1682473
vt 0.6294084 0.1018798
vt 0.3694688 0.3922379
vt 0.4358363 0.3396969
vt 0.3694688 0.3396969
vt 0.4358363 0.3922379
vt 0.3694688 0.4447788
vt 0.4358363 0.4447788
vt 0.6294084 0.4447788
vt 0.6957759 0.4447788
vt 0.6294084 0.3922379
vt 0.6957759 0.3922378
vt 0.6957759 0.3396969
vt 0.6294084 0.3396969
vt 0.5326224 0.2733293
vt 0.6294084 0.3396969
vt 0.6294084 0.2733293
vt 0.5326224 0.3396969
vt 0.4358363 0.2733293
vt 0.4358363 0.3396969
vt 0.5326224 0.1018798
vt 0.5326224 0.04933877
vt 0.4358363 0.1018798
vt 0.4358363 0.04933884
vt 0.6294084 0.04933877
vt 0.6294084 0.1018798
vt 0.4358363 0.3922378
vt 0.5326223 0.3922378
vt 0.4358363 0.3396969
vt 0.5326223 0.3396969
vt 0.6294084 0.3922378
vt 0.6294084 0.3396969
vt 0.5326224 0.2207883
vt 0.6294084 0.2207883
vt 0.5326224 0.1682473
vt 0.6294084 0.1682473
vt 0.5326224 0.2733293
vt 0.4358363 0.2733293
vt 0.4358363 0.2207883
vt 0.6294084 0.2733293
vt 0.4358363 0.1682473
vt 0.3705263 0.7020527
vt 0.3705263 0.7656549
vt 0.4189194 0.7020527
vt 0.4189194 0.7656549
vt 0.4673123 0.7656549
vt 0.4673123 0.7020527
vt 0.31522 0.8762674
vt 0.3705263 0.9398698
vt 0.3705263 0.8762674
vt 0.31522 0.9398698
vt 0.2599137 0.8762674
vt 0.2599137 0.9398698
vt 0.5309146 0.7656549
vt 0.4673123 0.7656549
vt 0.5309146 0.8209612
vt 0.4673123 0.8209612
vt 0.4673123 0.8762674
vt 0.5309146 0.8762674
vt 0.4189194 0.8762674
vt 0.4673123 0.9398698
vt 0.4673123 0.8762674
vt 0.4189194 0.9398698
vt 0.3705263 0.8762674
vt 0.3705263 0.9398698
vt 0.4189194 0.7020527
vt 0.4189194 0.6467463
vt 0.3705263 0.7020527
vt 0.3705263 0.6467463
vt 0.4673123 0.7020526
vt 0.4673123 0.6467463
vt 0.3705263 0.9951761
vt 0.4189194 0.9951761
vt 0.3705263 0.9398698
vt 0.4189194 0.9398698
vt 0.4673123 0.9951761
vt 0.4673123 0.9398698
vt 0.4189194 0.8209612
vt 0.4189194 0.8762674
vt 0.4673123 0.8762674
vt 0.4673123 0.8209612
vt 0.4189194 0.7656549
vt 0.4673123 0.7656549
vt 0.3705263 0.8209612
vt 0.3705263 0.7656549
vt 0.3705263 0.8762674
vt 0.2753615 0.1405249
vt 0.1993154 0.07415729
vt 0.1993154 0.1405249
vt 0.2753615 0.07415729
vt 0.3514077 0.1405249
vt 0.3514077 0.07415729
vt 0.1329478 0.2428415
vt 0.1993154 0.2428415
vt 0.1329478 0.1916832
vt 0.1993154 0.1916832
vt 0.1993154 0.1405249
vt 0.1329478 0.1405249
vt 0.3514077 0.1916832
vt 0.4177753 0.1405249
vt 0.3514077 0.1405249
vt 0.4177753 0.1916832
vt 0.3514077 0.2428415
vt 0.4177753 0.2428415
vt 0.2753615 0.2428415
vt 0.3514077 0.3092091
vt 0.3514077 0.2428415
vt 0.2753615 0.3092091
vt 0.1993154 0.2428415
vt 0.1993154 0.3092091
vt 0.2753615 0.07415729
vt 0.2753615 0.02299898
vt 0.1993154 0.07415736
vt 0.1993154 0.02299898
vt 0.3514077 0.02299898
vt 0.3514077 0.07415729
vt 0.1993154 0.3603675
vt 0.2753615 0.3603675
vt 0.1993154 0.3092091
vt 0.2753615 0.3092091
vt 0.3514077 0.3603675
vt 0.3514077 0.3092091
vt 0.2753615 0.2428415
vt 0.2753615 0.1916832
vt 0.1993154 0.2428415
vt 0.1993154 0.1916832
vt 0.3514077 0.1916832
vt 0.3514077 0.2428415
vt 0.2753615 0.1405249
vt 0.3514077 0.1405249
vt 0.1993154 0.1405249
vt 0.2548322 0.4982503
vt 0.1511328 0.4291172
vt 0.1511328 0.4982503
vt 0.2548322 0.4291172
vt 0.3585315 0.4982503
vt 0.3585315 0.4291172
vt 0.1511328 0.5535565
vt 0.08199996 0.6088629
vt 0.1511328 0.6088629
vt 0.08199996 0.5535566
vt 0.1511328 0.4982503
vt 0.08199996 0.4982503
vt 0.3585315 0.5535565
vt 0.4276644 0.4982503
vt 0.3585315 0.4982503
vt 0.4276644 0.5535565
vt 0.3585315 0.6088629
vt 0.4276644 0.6088629
vt 0.2548322 0.6088629
vt 0.3585315 0.6779957
vt 0.3585315 0.6088629
vt 0.2548322 0.6779957
vt 0.1511328 0.6088629
vt 0.1511328 0.6779957
vt 0.2548322 0.4291172
vt 0.2548322 0.3738111
vt 0.1511328 0.4291172
vt 0.1511328 0.3738111
vt 0.3585315 0.4291172
vt 0.3585315 0.3738111
vt 0.1511328 0.733302
vt 0.2548322 0.733302
vt 0.1511328 0.6779957
vt 0.2548322 0.6779957
vt 0.3585315 0.733302
vt 0.3585315 0.6779957
vt 0.1511328 0.5535565
vt 0.2548322 0.5535565
vt 0.1511328 0.4982503
vt 0.2548322 0.4982503
vt 0.2548322 0.6088629
vt 0.3585315 0.6088629
vt 0.3585315 0.5535565
vt 0.1511328 0.6088629
vt 0.3585315 0.4982503

g Default_Prototype
usemtl Default_Prototype
usemap Default_Prototype
f 2/2/2 1/1/1 3/3/3
f 4/4/4 2/2/2 3/3/3
f 5/5/5 4/4/4 3/3/3
f 6/6/6 5/5/5 3/3/3
f 8/8/8 7/7/7 9/9/9
f 7/7/7 8/8/8 10/10/10
f 11/11/11 7/7/7 10/10/10
f 12/12/12 11/11/11 10/10/10
f 14/14/14 13/13/13 15/15/15
f 16/16/16 14/14/14 15/15/15
f 17/17/17 16/16/16 15/15/15
f 18/18/18 17/17/17 15/15/15
f 20/20/20 19/19/19 21/21/21
f 19/19/19 20/20/20 22/22/22
f 23/23/23 19/19/19 22/22/22
f 24/24/24 23/23/23 22/22/22
f 26/26/26 25/25/25 27/27/27
f 28/28/28 26/26/26 27/27/27
f 25/25/25 26/26/26 29/29/29
f 25/25/25 29/29/29 30/30/30
f 32/32/32 31/31/31 33/33/33
f 34/34/34 32/32/32 33/33/33
f 35/35/35 32/32/32 34/34/34
f 35/35/35 34/34/34 36/36/36
f 38/38/38 37/37/37 39/39/39
f 38/38/38 39/39/39 40/40/40
f 37/37/37 41/41/41 42/42/42
f 43/43/43 37/37/37 42/42/42
f 41/41/41 37/37/37 38/38/38
f 41/41/41 38/38/38 44/44/44
f 37/37/37 43/43/43 45/45/45
f 39/39/39 37/37/37 45/45/45
f 47/47/47 46/46/46 48/48/48
f 49/49/49 47/47/47 48/48/48
f 50/50/50 49/49/49 48/48/48
f 51/51/51 50/50/50 48/48/48
f 53/53/53 52/52/52 54/54/54
f 52/52/52 53/53/53 55/55/55
f 56/56/56 52/52/52 55/55/55
f 57/57/57 56/56/56 55/55/55
f 59/59/59 58/58/58 60/60/60
f 61/61/61 59/59/59 60/60/60
f 62/62/62 61/61/61 60/60/60
f 63/63/63 62/62/62 60/60/60
f 65/65/65 64/64/64 66/66/66
f 64/64/64 65/65/65 67/67/67
f 68/68/68 64/64/64 67/67/67
f 69/69/69 68/68/68 67/67/67
f 71/71/71 70/70/70 72/72/72
f 73/73/73 71/71/71 72/72/72
f 70/70/70 71/71/71 74/74/74
f 71/71/71 75/75/75 74/74/74
f 77/77/77 76/76/76 78/78/78
f 79/79/79 77/77/77 78/78/78
f 80/80/80 77/77/77 79/79/79
f 80/80/80 79/79/79 81/81/81
f 83/83/83 82/82/82 84/84/84
f 82/82/82 85/85/85 84/84/84
f 85/85/85 82/82/82 86/86/86
f 85/85/85 86/86/86 87/87/87
f 82/82/82 88/88/88 89/89/89
f 86/86/86 82/82/82 89/89/89
f 82/82/82 83/83/83 90/90/90
f 88/88/88 82/82/82 90/90/90
f 92/92/92 91/91/91 93/93/93
f 91/91/91 92/92/92 94/94/94
f 95/95/95 91/91/91 94/94/94
f 96/96/96 95/95/95 94/94/94
f 98/98/98 97/97/97 99/99/99
f 100/100/100 98/98/98 99/99/99
f 101/101/101 100/100/100 99/99/99
f 102/102/102 101/101/101 99/99/99
f 104/104/104 103/103/103 105/105/105
f 103/103/103 104/104/104 106/106/106
f 107/107/107 103/103/103 106/106/106
f 108/108/108 107/107/107 106/106/106
f 110/110/110 109/109/109 111/111/111
f 109/109/109 110/110/110 112/112/112
f 113/113/113 109/109/109 112/112/112
f 114/114/114 113/113/113 112/112/112
f 116/116/116 115/115/115 117/117/117
f 118/118/118 116/116/116 117/117/117
f 115/115/115 116/116/116 119/119/119
f 115/115/115 119/119/119 120/120/120
f 122/122/122 121/121/121 123/123/123
f 124/124/124 122/122/122 123/123/123
f 125/125/125 122/122/122 124/124/124
f 125/125/125 124/124/124 126/126/126
f 128/128/128 127/127/127 129/129/129
f 130/130/130 128/128/128 129/129/129
f 127/127/127 128/128/128 131/131/131
f 127/127/127 131/131/131 132/132/132
f 131/131/131 128/128/128 133/133/133
f 131/131/131 133/133/133 134/134/134
f 128/128/128 130/130/130 135/135/135
f 133/133/133 128/128/128 135/135/135
f 137/137/137 136/136/136 138/138/138
f 136/136/136 137/137/137 139/139/139
f 140/140/140 136/136/136 139/139/139
f 141/141/141 140/140/140 139/139/139
f 143/143/143 142/142/142 144/144/144
f 142/142/142 143/143/143 145/145/145
f 146/146/146 142/142/142 145/145/145
f 147/147/147 146/146/146 145/145/145
f 149/149/149 148/148/148 150/150/150
f 148/148/148 149/149/149 151/151/151
f 152/152/152 148/148/148 151/151/151
f 153/153/153 152/152/152 151/151/151
f 155/155/155 154/154/154 156/156/156
f 154/154/154 155/155/155 157/157/157
f 158/158/158 154/154/154 157/157/157
f 159/159/159 158/158/158 157/157/157
f 161/161/161 160/160/160 162/162/162
f 163/163/163 161/161/161 162/162/162
f 160/160/160 161/161/161 164/164/164
f 161/161/161 165/165/165 164/164/164
f 167/167/167 166/166/166 168/168/168
f 169/169/169 167/167/167 168/168/168
f 170/170/170 167/167/167 171/171/171
f 167/167/167 169/169/169 171/171/171
f 173/173/173 172/172/172 174/174/174
f 175/175/175 173/173/173 174/174/174
f 176/176/176 173/173/173 177/177/177
f 173/173/173 178/178/178 177/177/177
f 173/173/173 176/176/176 179/179/179
f 172/172/172 173/173/173 179/179/179
f 178/178/178 173/173/173 180/180/180
f 173/173/173 175/175/175 180/180/180
