mtllib ./WallThinTop_4.mtl
g pb-Cube-525722
v 2.25 0.1427403 0.06888304
v -1.75 0.1427403 0.06888304
v 2.25 0.1427403 -0.06888303
v -1.75 0.1427403 -0.06888303
v 2.25 -4.768372E-07 -0.15
v 2.25 0.09999952 -0.15
v -0.2500001 -4.768372E-07 -0.15
v -1.75 0.09999952 -0.15
v -1.75 -4.768372E-07 -0.15
v -1.75 -4.768372E-07 0.15
v -1.75 0.09999952 0.15
v -0.2500001 -4.768372E-07 0.15
v 2.25 0.09999952 0.15
v 2.25 -4.768372E-07 0.15
v -0.2500001 -4.768372E-07 0
v -0.2500001 -4.768372E-07 -0.15
v -1.75 -4.768372E-07 -0.15
v -1.75 -4.768372E-07 0
v 2.25 -4.768372E-07 -0.15
v 2.25 -4.768372E-07 0
v -0.2500001 -4.768372E-07 0
v -1.75 -4.768372E-07 0
v -1.75 -4.768372E-07 0.15
v -0.2500001 -4.768372E-07 0.15
v 2.25 -4.768372E-07 0
v 2.25 -4.768372E-07 0.15
v 2.25 0.09999952 0.15
v -1.75 0.09999952 0.15
v 2.25 0.09999952 0.06888304
v -1.75 0.09999952 0.06888304
v 2.25 0.09999952 -0.15
v 2.25 0.09999952 0.15
v 2.25 0.09999952 -0.06888303
v 2.25 0.09999952 0.06888304
v -1.75 0.09999952 0.15
v -1.75 0.09999952 -0.15
v -1.75 0.09999952 0.06888304
v -1.75 0.09999952 -0.06888303
v -1.75 0.09999952 -0.15
v 2.25 0.09999952 -0.15
v -1.75 0.09999952 -0.06888303
v 2.25 0.09999952 -0.06888303
v 2.25 0.09999952 0.06888304
v -1.75 0.09999952 0.06888304
v 2.25 0.1427403 0.06888304
v -1.75 0.1427403 0.06888304
v -1.75 0.09999952 -0.06888303
v 2.25 0.09999952 -0.06888303
v -1.75 0.1427403 -0.06888303
v 2.25 0.1427403 -0.06888303
v 2.25 0.09999952 -0.06888303
v 2.25 0.09999952 0.06888304
v 2.25 0.1427403 -0.06888303
v 2.25 0.1427403 0.06888304
v 2.25 -4.768372E-07 0.15
v 2.25 0.09999952 0.15
v 2.25 -4.768372E-07 0
v 2.25 0.09999952 -0.15
v 2.25 -4.768372E-07 -0.15
v -1.75 0.09999952 0.06888304
v -1.75 0.09999952 -0.06888303
v -1.75 0.1427403 0.06888304
v -1.75 0.1427403 -0.06888303
v -1.75 -4.768372E-07 -0.15
v -1.75 0.09999952 -0.15
v -1.75 -4.768372E-07 0
v -1.75 0.09999952 0.15
v -1.75 -4.768372E-07 0.15

vn 0 1 0
vn 0 1 0
vn 0 1 0
vn 0 1 0
vn 0 0 -1
vn 0 0 -1
vn 0 0 -1
vn 0 0 -1
vn 0 0 -1
vn 0 0 1
vn 0 0 1
vn 0 0 1
vn 0 0 1
vn 0 0 1
vn 0 -1 0
vn 0 -1 0
vn 0 -1 0
vn 0 -1 0
vn 0 -1 0
vn 0 -1 0
vn 0 -1 0
vn 0 -1 0
vn 0 -1 0
vn 0 -1 0
vn 0 -1 0
vn 0 -1 0
vn 0 1 0
vn 0 1 0
vn 0 1 0
vn 0 1 0
vn 0 0 0
vn 0 0 0
vn 0 0 0
vn 0 0 0
vn 0 0 0
vn 0 0 0
vn 0 0 0
vn 0 0 0
vn 0 1 0
vn 0 1 0
vn 0 1 0
vn 0 1 0
vn 0 0 1
vn 0 0 1
vn 0 0 1
vn 0 0 1
vn 0 0 -1
vn 0 0 -1
vn 0 0 -1
vn 0 0 -1
vn 1 0 0
vn 1 0 0
vn 1 0 0
vn 1 0 0
vn 1 0 0
vn 1 0 0
vn 1 0 0
vn 1 0 0
vn 1 0 0
vn -1 0 0
vn -1 0 0
vn -1 0 0
vn -1 0 0
vn -1 0 0
vn -1 0 0
vn -1 0 0
vn -1 0 0
vn -1 0 0

vt 0.001526237 0.1023248
vt 0.8015263 0.1023248
vt 0.001526237 0.07477163
vt 0.8015263 0.07477163
vt 0.001526237 0.03000006
vt 0.001526237 0.05000007
vt 0.5015261 0.03000006
vt 0.8015263 0.05000007
vt 0.8015263 0.03000006
vt 0.8015263 0.1470964
vt 0.8015263 0.1270964
vt 0.5015261 0.1470964
vt 0.001526117 0.1270964
vt 0.001526117 0.1470964
vt 0.5015261 3.72529E-08
vt 0.5015261 0.03000004
vt 0.8015263 0.03000001
vt 0.8015263 7.450581E-09
vt 0.001526117 0.03000008
vt 0.001526117 8.195639E-08
vt 0.5015261 0.1770964
vt 0.8015263 0.1770964
vt 0.8015263 0.1470964
vt 0.5015261 0.1470964
vt 0.001526117 0.1770964
vt 0.001526117 0.1470964
vt 0.001526237 0.1270964
vt 0.8015263 0.1270964
vt 0.001526237 0.110873
vt 0.8015263 0.110873
vt 0.4015262 0.08622348
vt 0.4015262 0.08622348
vt 0.4015262 0.08622348
vt 0.4015262 0.08622348
vt 0.4015262 0.08622348
vt 0.4015262 0.08622348
vt 0.4015262 0.08622348
vt 0.4015262 0.08622348
vt 0.8015263 0.05000006
vt 0.001526237 0.05000006
vt 0.8015263 0.06622346
vt 0.001526237 0.06622346
vt 0.001526117 0.110873
vt 0.8015263 0.110873
vt 0.001526117 0.1023249
vt 0.8015263 0.1023248
vt 0.8015263 0.06622346
vt 0.001526237 0.06622346
vt 0.8015263 0.07477163
vt 0.001526237 0.07477163
vt 0.04352067 0.2000484
vt 0.01596745 0.2000484
vt 0.04352067 0.2085966
vt 0.01596745 0.2085966
vt -0.0002559349 0.1800484
vt -0.0002559349 0.2000484
vt 0.02974407 0.1800484
vt 0.05974407 0.2000484
vt 0.05974407 0.1800484
vt 0.1076282 0.1997927
vt 0.08007504 0.1997927
vt 0.1076282 0.2083409
vt 0.08007504 0.2083409
vt 0.06385165 0.1797927
vt 0.06385165 0.1997927
vt 0.09385164 0.1797927
vt 0.1238516 0.1997927
vt 0.1238516 0.1797927

g Default_Prototype
usemtl Default_Prototype
usemap Default_Prototype
f 2/2/2 1/1/1 3/3/3
f 4/4/4 2/2/2 3/3/3
f 6/6/6 5/5/5 7/7/7
f 9/9/9 8/8/8 7/7/7
f 8/8/8 6/6/6 7/7/7
f 11/11/11 10/10/10 12/12/12
f 14/14/14 13/13/13 12/12/12
f 13/13/13 11/11/11 12/12/12
f 16/16/16 15/15/15 17/17/17
f 15/15/15 18/18/18 17/17/17
f 15/15/15 16/16/16 19/19/19
f 20/20/20 15/15/15 19/19/19
f 22/22/22 21/21/21 23/23/23
f 21/21/21 24/24/24 23/23/23
f 21/21/21 25/25/25 26/26/26
f 24/24/24 21/21/21 26/26/26
f 28/28/28 27/27/27 29/29/29
f 30/30/30 28/28/28 29/29/29
f 32/32/32 31/31/31 33/33/33
f 34/34/34 32/32/32 33/33/33
f 36/36/36 35/35/35 37/37/37
f 38/38/38 36/36/36 37/37/37
f 40/40/40 39/39/39 41/41/41
f 42/42/42 40/40/40 41/41/41
f 44/44/44 43/43/43 45/45/45
f 46/46/46 44/44/44 45/45/45
f 48/48/48 47/47/47 49/49/49
f 50/50/50 48/48/48 49/49/49
f 52/52/52 51/51/51 53/53/53
f 54/54/54 52/52/52 53/53/53
f 56/56/56 55/55/55 57/57/57
f 59/59/59 58/58/58 57/57/57
f 58/58/58 56/56/56 57/57/57
f 61/61/61 60/60/60 62/62/62
f 63/63/63 61/61/61 62/62/62
f 65/65/65 64/64/64 66/66/66
f 68/68/68 67/67/67 66/66/66
f 67/67/67 65/65/65 66/66/66
