mtllib ./WallTopCorner2.mtl
g pb-Cube-1012638
v 0 0 0
v -0.2 0 0
v 0 0.05 0
v -0.2 0.05 0
v -0.2 0 0
v -0.2 0 -0.2
v -0.2 0.05 0
v -0.2 0.05 -0.2
v -0.2 0 -0.2
v 0 0 -0.2
v -0.2 0.05 -0.2
v 0 0.05 -0.2
v 0 0 -0.2
v 0 0 0
v 0 0.05 -0.2
v 0 0.05 0
v -0.03241424 0.06598966 -0.03241423
v -0.1675858 0.06598966 -0.03241423
v -0.03241424 0.06598966 -0.1675858
v -0.1675858 0.06598966 -0.1675858
v 0 0 -0.2
v -0.2 0 -0.2
v 0 0 0
v -0.2 0 0
v -0.03241424 0.05 -0.03241423
v -0.1675858 0.05 -0.03241423
v -0.03241424 0.06598966 -0.03241423
v -0.1675858 0.06598966 -0.03241423
v -0.03241424 0.05 -0.1675858
v -0.03241424 0.05 -0.03241423
v -0.03241424 0.06598966 -0.1675858
v -0.03241424 0.06598966 -0.03241423
v -0.1675858 0.05 -0.03241423
v -0.1675858 0.05 -0.1675858
v -0.1675858 0.06598966 -0.03241423
v -0.1675858 0.06598966 -0.1675858
v -0.1675858 0.05 -0.1675858
v -0.03241424 0.05 -0.1675858
v -0.1675858 0.06598966 -0.1675858
v -0.03241424 0.06598966 -0.1675858
v -0.2 0.05 -0.2
v 0 0.05 -0.2
v -0.1675858 0.05 -0.1675858
v -0.03241424 0.05 -0.1675858
v 0 0.05 0
v -0.03241424 0.05 -0.03241423
v -0.2 0.05 0
v -0.1675858 0.05 -0.03241423

vn 0 0 1
vn 0 0 1
vn 0 0 1
vn 0 0 1
vn -1 0 0
vn -1 0 0
vn -1 0 0
vn -1 0 0
vn 0 0 -1
vn 0 0 -1
vn 0 0 -1
vn 0 0 -1
vn 1 0 0
vn 1 0 0
vn 1 0 0
vn 1 0 0
vn 0 1 0
vn 0 1 0
vn 0 1 0
vn 0 1 0
vn 0 -1 0
vn 0 -1 0
vn 0 -1 0
vn 0 -1 0
vn 0 0 1
vn 0 0 1
vn 0 0 1
vn 0 0 1
vn 1 0 0
vn 1 0 0
vn 1 0 0
vn 1 0 0
vn -1 0 0
vn -1 0 0
vn -1 0 0
vn -1 0 0
vn 0 0 -1
vn 0 0 -1
vn 0 0 -1
vn 0 0 -1
vn 0 1 0
vn 0 1 0
vn 0 0.9999999 0
vn 0 0.9999999 0
vn 0 1 0
vn 0 0.9999999 0
vn 0 1 0
vn 0 1 0

vt 0.249019 0.3003967
vt 0.449019 0.3003967
vt 0.249019 0.2503967
vt 0.449019 0.2503967
vt 0.499019 0.2503967
vt 0.499019 0.05039668
vt 0.449019 0.2503967
vt 0.449019 0.05039668
vt 0.449019 0.0003966689
vt 0.249019 0.0003966689
vt 0.449019 0.05039667
vt 0.249019 0.05039667
vt 0.199019 0.05039667
vt 0.199019 0.2503967
vt 0.249019 0.05039667
vt 0.249019 0.2503967
vt 0.01586625 0.4012583
vt 0.1510378 0.4012583
vt 0.01586625 0.2660868
vt 0.1510378 0.2660868
vt 0.199019 0.05039667
vt -0.0009809732 0.05039667
vt 0.199019 0.2503967
vt -0.0009809732 0.2503967
vt 0.01586624 0.417248
vt 0.1510378 0.417248
vt 0.01586624 0.4012583
vt 0.1510378 0.4012583
vt -0.0001234114 0.2660868
vt -0.000123404 0.4012583
vt 0.01586625 0.2660868
vt 0.01586625 0.4012583
vt 0.1670274 0.4012583
vt 0.1670274 0.2660868
vt 0.1510378 0.4012583
vt 0.1510378 0.2660868
vt 0.1510378 0.2500972
vt 0.01586625 0.2500972
vt 0.1510378 0.2660868
vt 0.01586625 0.2660868
vt 0.449019 0.05039667
vt 0.249019 0.05039667
vt 0.4166048 0.0828109
vt 0.2814333 0.0828109
vt 0.249019 0.2503967
vt 0.2814333 0.2179824
vt 0.449019 0.2503967
vt 0.4166048 0.2179824

g Default_Prototype
usemtl Default_Prototype
usemap Default_Prototype
f 2/2/2 1/1/1 3/3/3
f 4/4/4 2/2/2 3/3/3
f 6/6/6 5/5/5 7/7/7
f 8/8/8 6/6/6 7/7/7
f 10/10/10 9/9/9 11/11/11
f 12/12/12 10/10/10 11/11/11
f 14/14/14 13/13/13 15/15/15
f 16/16/16 14/14/14 15/15/15
f 18/18/18 17/17/17 19/19/19
f 20/20/20 18/18/18 19/19/19
f 22/22/22 21/21/21 23/23/23
f 24/24/24 22/22/22 23/23/23
f 26/26/26 25/25/25 27/27/27
f 28/28/28 26/26/26 27/27/27
f 30/30/30 29/29/29 31/31/31
f 32/32/32 30/30/30 31/31/31
f 34/34/34 33/33/33 35/35/35
f 36/36/36 34/34/34 35/35/35
f 38/38/38 37/37/37 39/39/39
f 40/40/40 38/38/38 39/39/39
f 42/42/42 41/41/41 43/43/43
f 44/44/44 42/42/42 43/43/43
f 45/45/45 42/42/42 44/44/44
f 46/46/46 45/45/45 44/44/44
f 47/47/47 45/45/45 46/46/46
f 48/48/48 47/47/47 46/46/46
f 41/41/41 47/47/47 48/48/48
f 43/43/43 41/41/41 48/48/48
