mtllib ./wallTop_5x05x1.mtl
g pb-Cube-597834
v 0 0.1 0
v -1 0.1 0
v 0 0.1 -0.2
v -1 0.1 -0.2
v 0 0 -0.2
v 0 0.1 -0.2
v -0.5 0 -0.2
v -1 0.1 -0.2
v -1 0 -0.2
v 0 0 0
v 0 0.1 0
v 0 0 -0.1
v 0 0.1 -0.2
v 0 0 -0.2
v -1 0 -0.2
v -1 0.1 -0.2
v -1 0 -0.1
v -1 0.1 0
v -1 0 0
v -1 0 0
v -1 0.1 0
v -0.5 0 0
v 0 0.1 0
v 0 0 0
v 0 0 -0.1
v -0.5 0 -0.1
v 0 0 0
v -0.5 0 0
v -1 0 -0.1
v -1 0 0
v -0.5 0 -0.1
v -0.5 0 -0.2
v -1 0 -0.2
v -1 0 -0.1
v 0 0 -0.2
v 0 0 -0.1

vn 0 1 0
vn 0 1 0
vn 0 1 0
vn 0 1 0
vn 0 0 -1
vn 0 0 -1
vn 0 0 -1
vn 0 0 -1
vn 0 0 -1
vn 1 0 0
vn 1 0 0
vn 1 0 0
vn 1 0 0
vn 1 0 0
vn -1 0 0
vn -1 0 0
vn -1 0 0
vn -1 0 0
vn -1 0 0
vn 0 0 1
vn 0 0 1
vn 0 0 1
vn 0 0 1
vn 0 0 1
vn 0 -1 0
vn 0 -1 0
vn 0 -1 0
vn 0 -1 0
vn 0 -1 0
vn 0 -1 0
vn 0 -1 0
vn 0 -1 0
vn 0 -1 0
vn 0 -1 0
vn 0 -1 0
vn 0 -1 0

vt 1 0.4460937
vt 0 0.4460937
vt 1 0.6460937
vt 0 0.6460938
vt 1 0.7460938
vt 1 0.6460937
vt 0.5 0.7460938
vt 0 0.6460938
vt 0 0.7460938
vt 0.1985205 0.1455007
vt 0.1985205 0.2455007
vt 0.2985205 0.1455007
vt 0.3985205 0.2455007
vt 0.3985205 0.1455007
vt -0.0006982535 0.1450979
vt -0.0006982535 0.2450979
vt 0.09930175 0.1450979
vt 0.1993017 0.2450979
vt 0.1993017 0.1450979
vt 0 0.3460937
vt 0 0.4460937
vt 0.5 0.3460937
vt 1 0.4460937
vt 1 0.3460937
vt 1 0.2460938
vt 0.5 0.2460938
vt 1 0.3460937
vt 0.5 0.3460937
vt 0 0.2460938
vt 0 0.3460937
vt 0.5 0.8460938
vt 0.5 0.7460938
vt 0 0.7460938
vt 0 0.8460938
vt 1 0.7460938
vt 1 0.8460938

g Default_Prototype
usemtl Default_Prototype
usemap Default_Prototype
f 2/2/2 1/1/1 3/3/3
f 4/4/4 2/2/2 3/3/3
f 6/6/6 5/5/5 7/7/7
f 9/9/9 8/8/8 7/7/7
f 8/8/8 6/6/6 7/7/7
f 11/11/11 10/10/10 12/12/12
f 14/14/14 13/13/13 12/12/12
f 13/13/13 11/11/11 12/12/12
f 16/16/16 15/15/15 17/17/17
f 19/19/19 18/18/18 17/17/17
f 18/18/18 16/16/16 17/17/17
f 21/21/21 20/20/20 22/22/22
f 24/24/24 23/23/23 22/22/22
f 23/23/23 21/21/21 22/22/22
f 26/26/26 25/25/25 27/27/27
f 28/28/28 26/26/26 27/27/27
f 29/29/29 26/26/26 30/30/30
f 26/26/26 28/28/28 30/30/30
f 32/32/32 31/31/31 33/33/33
f 31/31/31 34/34/34 33/33/33
f 31/31/31 32/32/32 35/35/35
f 36/36/36 31/31/31 35/35/35
