# 3ds Max Wavefront OBJ Exporter v0.97b - (c)2007 guruware
# File Created: 29.10.2015 16:58:16

mtllib Pillar_Square_A_Base.mtl

#
# object Pillar_Square_A_Base
#

v  49.877506 18.511703 -49.865803
v  49.945152 18.511688 49.956841
v  49.945148 1.060196 49.956844
v  49.877506 1.060196 -49.865803
v  47.660095 38.740799 -47.648399
v  47.727741 38.740784 47.739429
v  43.034599 43.661209 -43.022903
v  43.102245 43.661194 43.113934
v  42.634712 46.316391 -42.623009
v  42.702358 46.316376 42.714046
v  43.831738 49.979721 -43.816288
v  43.895638 49.979721 43.911072
v  43.153252 52.525803 -43.128136
v  43.207481 52.525803 43.232582
v  36.363255 65.418106 -36.287621
v  36.366966 65.418091 36.442589
v  35.783989 69.262039 -35.704605
v  35.783955 69.262039 35.863319
v  -49.945137 18.511688 -49.798149
v  -49.945137 1.060196 -49.798149
v  -47.727734 38.740784 -47.580746
v  -43.102230 43.661194 -42.955250
v  -42.702347 46.316376 -42.555367
v  -43.895626 49.979721 -43.752392
v  -43.207466 52.525803 -43.073906
v  -36.366951 65.418091 -36.283909
v  -35.783932 69.262039 -35.704639
v  -49.877487 18.511673 50.024479
v  -49.877491 1.060196 50.024475
v  -47.660080 38.740768 47.807076
v  -43.034580 43.661179 43.181576
v  -42.634701 46.316360 42.781696
v  -43.831730 49.979721 43.974972
v  -43.153236 52.525803 43.286812
v  -36.363243 65.418076 36.446297
v  -35.783974 69.262039 35.863281
# 36 vertices

vn 0.998613 0.052647 -0.000677
vn 0.998616 0.052582 -0.000690
vn 1.000000 -0.000000 -0.000678
vn 1.000000 0.000000 -0.000678
vn 0.941800 0.336172 -0.000650
vn 0.941967 0.335705 -0.000688
vn 0.869263 0.494350 -0.000649
vn 0.869476 0.493975 -0.000686
vn 0.995651 -0.093156 -0.000786
vn 0.995699 -0.092642 -0.000757
vn 0.999745 -0.022561 -0.000758
vn 0.999804 -0.019779 -0.000678
vn 0.940593 0.339537 -0.000650
vn 0.939545 0.342424 -0.000425
vn 0.940589 0.339547 -0.000324
vn 0.940022 0.341115 -0.000027
vn 0.988830 0.149050 -0.000049
vn 0.988693 0.149955 0.000000
vn -0.000677 0.052646 -0.998613
vn -0.000690 0.052581 -0.998616
vn -0.000678 0.000000 -1.000000
vn -0.000650 0.336172 -0.941800
vn -0.000688 0.335705 -0.941967
vn -0.000649 0.494349 -0.869263
vn -0.000686 0.493975 -0.869476
vn -0.000786 -0.093156 -0.995651
vn -0.000757 -0.092642 -0.995699
vn -0.000758 -0.022561 -0.999745
vn -0.000678 -0.019780 -0.999804
vn -0.000650 0.339537 -0.940593
vn -0.000425 0.342423 -0.939546
vn -0.000324 0.339548 -0.940589
vn -0.000027 0.341115 -0.940022
vn -0.000049 0.149051 -0.988830
vn 0.000000 0.149957 -0.988693
vn -0.998613 0.052647 0.000677
vn -0.998616 0.052582 0.000690
vn -1.000000 0.000000 0.000678
vn -0.941800 0.336172 0.000650
vn -0.941967 0.335705 0.000688
vn -0.869263 0.494349 0.000649
vn -0.869476 0.493974 0.000686
vn -0.995651 -0.093156 0.000786
vn -0.995699 -0.092643 0.000757
vn -0.999745 -0.022560 0.000758
vn -0.999804 -0.019778 0.000678
vn -0.940592 0.339538 0.000650
vn -0.939545 0.342425 0.000425
vn -0.940589 0.339548 0.000324
vn -0.940021 0.341115 0.000027
vn -0.988830 0.149050 0.000049
vn -0.988693 0.149957 -0.000001
vn 0.000677 0.052647 0.998613
vn 0.000690 0.052581 0.998616
vn 0.000678 -0.000000 1.000000
vn 0.000678 0.000000 1.000000
vn 0.000650 0.336172 0.941800
vn 0.000688 0.335705 0.941967
vn 0.000649 0.494350 0.869263
vn 0.000686 0.493973 0.869477
vn 0.000786 -0.093155 0.995651
vn 0.000757 -0.092643 0.995699
vn 0.000758 -0.022560 0.999745
vn 0.000678 -0.019777 0.999804
vn 0.000650 0.339538 0.940592
vn 0.000425 0.342425 0.939545
vn 0.000324 0.339548 0.940589
vn 0.000027 0.341115 0.940022
vn 0.000049 0.149051 0.988830
vn -0.000001 0.149955 0.988693
vn 0.000000 -1.000000 -0.000000
vn 0.000000 1.000000 -0.000000
# 72 vertex normals

vt 0.503362 0.254410 0.000000
vt 0.040866 0.254410 0.000000
vt 0.040868 0.212801 0.000000
vt 0.503364 0.212801 0.000000
vt 0.493091 0.303786 0.000000
vt 0.051142 0.303792 0.470471
vt 0.471669 0.328780 0.000000
vt 0.072581 0.328773 0.000000
vt 0.469807 0.335394 0.000000
vt 0.074425 0.335398 0.000000
vt 0.475320 0.345837 0.000000
vt 0.068864 0.345828 0.000000
vt 0.472126 0.352746 0.000000
vt 0.072002 0.352709 0.000000
vt 0.440439 0.397445 0.000000
vt 0.103468 0.397481 0.000000
vt 0.437736 0.407037 0.000000
vt 0.106150 0.407040 0.000000
vt 0.973799 0.254521 0.000000
vt 0.511304 0.254526 0.000000
vt 0.511304 0.212918 0.000000
vt 0.973799 0.212913 0.000000
vt 0.963533 0.303895 0.500061
vt 0.521585 0.303897 0.978569
vt 0.942118 0.328886 0.000000
vt 0.543031 0.328860 0.000000
vt 0.940267 0.335490 0.000000
vt 0.544886 0.335465 0.000000
vt 0.945791 0.345922 0.000000
vt 0.539336 0.345881 0.000000
vt 0.942605 0.352799 0.000000
vt 0.542481 0.352779 0.000000
vt 0.910930 0.397454 0.000000
vt 0.573959 0.397583 0.000000
vt 0.908233 0.407027 0.000000
vt 0.576647 0.407159 0.000000
vt 0.498857 0.050153 0.000000
vt 0.036363 0.050154 0.000000
vt 0.036364 0.008547 0.000000
vt 0.498857 0.008546 0.000000
vt 0.488590 0.099523 0.022442
vt 0.046644 0.099529 0.504807
vt 0.467176 0.124506 0.000000
vt 0.068090 0.124499 0.000000
vt 0.465325 0.131108 0.000000
vt 0.069945 0.131111 0.000000
vt 0.470850 0.141539 0.000000
vt 0.064395 0.141530 0.000000
vt 0.467665 0.148440 0.000000
vt 0.067542 0.148404 0.000000
vt 0.435985 0.193133 0.000000
vt 0.099014 0.193170 0.000000
vt 0.433284 0.202725 0.000000
vt 0.101699 0.202727 0.000000
vt 0.971391 0.051965 0.000000
vt 0.508896 0.051970 0.000000
vt 0.508895 0.010363 0.000000
vt 0.971391 0.010358 0.000000
vt 0.961125 0.101338 0.500742
vt 0.519177 0.101341 0.022232
vt 0.939709 0.126329 0.000000
vt 0.540623 0.126304 0.000000
vt 0.937858 0.132933 0.000000
vt 0.542477 0.132907 0.000000
vt 0.943382 0.143364 0.000000
vt 0.536926 0.143323 0.000000
vt 0.940196 0.150239 0.000000
vt 0.540073 0.150219 0.000000
vt 0.908522 0.194895 0.000000
vt 0.571551 0.195024 0.000000
vt 0.905825 0.204467 0.000000
vt 0.574238 0.204599 0.000000
vt 0.732353 0.818629 0.000000
vt 0.732305 0.986759 0.000000
vt 0.564175 0.986710 0.000000
vt 0.564223 0.818581 0.000000
vt 0.755055 0.827808 0.000000
vt 0.890465 0.827840 0.000000
vt 0.890433 0.963250 0.000000
vt 0.755023 0.963218 0.000000
# 80 texture coords

g Pillar_Square_A_Base
usemtl 10___Default
s 2
f 1/1/1 2/2/2 3/3/3 4/4/4 
f 5/5/5 6/6/6 2/2/2 1/1/1 
f 7/7/7 8/8/8 6/6/6 5/5/5 
f 9/9/9 10/10/10 8/8/8 7/7/7 
f 11/11/11 12/12/12 10/10/10 9/9/9 
f 13/13/13 14/14/14 12/12/12 11/11/11 
f 15/15/15 16/16/16 14/14/14 13/13/13 
f 17/17/17 18/18/18 16/16/16 15/15/15 
s 1
f 19/19/19 1/20/20 4/21/21 20/22/21 
f 21/23/22 5/24/23 1/20/20 19/19/19 
f 22/25/24 7/26/25 5/24/23 21/23/22 
f 23/27/26 9/28/27 7/26/25 22/25/24 
f 24/29/28 11/30/29 9/28/27 23/27/26 
f 25/31/30 13/32/31 11/30/29 24/29/28 
f 26/33/32 15/34/33 13/32/31 25/31/30 
f 27/35/34 17/36/35 15/34/33 26/33/32 
s 2
f 28/37/36 19/38/37 20/39/38 29/40/38 
f 30/41/39 21/42/40 19/38/37 28/37/36 
f 31/43/41 22/44/42 21/42/40 30/41/39 
f 32/45/43 23/46/44 22/44/42 31/43/41 
f 33/47/45 24/48/46 23/46/44 32/45/43 
f 34/49/47 25/50/48 24/48/46 33/47/45 
f 35/51/49 26/52/50 25/50/48 34/49/47 
f 36/53/51 27/54/52 26/52/50 35/51/49 
s 1
f 2/55/53 28/56/54 29/57/55 3/58/56 
f 6/59/57 30/60/58 28/56/54 2/55/53 
f 8/61/59 31/62/60 30/60/58 6/59/57 
f 10/63/61 32/64/62 31/62/60 8/61/59 
f 12/65/63 33/66/64 32/64/62 10/63/61 
f 14/67/65 34/68/66 33/66/64 12/65/63 
f 16/69/67 35/70/68 34/68/66 14/67/65 
f 18/71/69 36/72/70 35/70/68 16/69/67 
s 4
f 4/73/71 3/74/71 29/75/71 20/76/71 
f 18/77/72 17/78/72 27/79/72 36/80/72 
# 34 polygons

