# 3ds Max Wavefront OBJ Exporter v0.97b - (c)2007 guruware
# File Created: 29.10.2015 16:58:13

mtllib Pillar_Square_B_Base.mtl

#
# object Pillar_Square_B_Base
#

v  49.945763 1.060196 49.942158
v  49.878120 1.060196 -49.880489
v  49.878120 18.511703 -49.880489
v  49.945766 18.511688 49.942154
v  44.094986 29.468185 -44.097363
v  44.162632 29.468170 44.159019
v  41.499615 36.738510 -41.501991
v  41.567261 36.738495 41.563648
v  41.300190 40.795944 -41.302559
v  41.367836 40.795929 41.364223
v  42.004162 42.410202 -42.006531
v  42.071804 42.410187 42.068192
v  43.396996 43.669235 -43.399364
v  43.464638 43.669220 43.461025
v  43.431511 44.484818 -43.432781
v  43.498058 44.484818 43.495544
v  40.771297 46.275772 -40.758881
v  40.824158 46.275757 40.835327
v  40.265064 47.337845 -40.245789
v  40.311066 47.337845 40.329098
v  40.599976 48.974319 -40.573269
v  40.638550 48.974319 40.664013
v  42.166553 51.390366 -42.132202
v  42.197479 51.390350 42.230587
v  42.803043 60.072067 -42.761963
v  42.827236 60.072052 42.867073
v  42.276272 65.171890 -42.228821
v  42.294094 65.171890 42.340298
v  40.974552 67.613297 -40.921333
v  40.986610 67.613281 41.038582
v  39.286217 68.319595 -39.228081
v  39.293354 68.319580 39.350246
v  36.302925 68.220566 -36.238491
v  36.303768 68.220566 36.366955
v  35.784603 69.262039 -35.719292
v  35.784569 69.262039 35.848633
v  -49.944523 1.060196 -49.812836
v  -49.944523 18.511688 -49.812836
v  -44.161396 29.468170 -44.029709
v  -41.566021 36.738495 -41.434341
v  -41.366589 40.795929 -41.234909
v  -42.070564 42.410187 -41.938881
v  -43.463398 43.669220 -43.331718
v  -43.496815 44.484818 -43.366230
v  -40.822910 46.275757 -40.706017
v  -40.309822 47.337845 -40.199795
v  -40.637306 48.974319 -40.534702
v  -42.196236 51.390350 -42.101284
v  -42.825996 60.072052 -42.737766
v  -42.292847 65.171890 -42.210987
v  -40.985363 67.613281 -40.909279
v  -39.292107 68.319580 -39.220936
v  -36.302521 68.220566 -36.237652
v  -35.783318 69.262039 -35.719326
v  -49.876877 1.060196 50.009789
v  -49.876873 18.511673 50.009792
v  -44.093742 29.468155 44.226665
v  -41.498367 36.738480 41.631294
v  -41.298946 40.795914 41.431870
v  -42.002911 42.410172 42.135834
v  -43.395744 43.669205 43.528667
v  -43.430267 44.484818 43.562092
v  -40.770050 46.275742 40.888191
v  -40.263828 47.337845 40.375099
v  -40.598740 48.974319 40.702579
v  -42.165318 51.390335 42.261513
v  -42.801796 60.072037 42.891262
v  -42.275024 65.171890 42.358120
v  -40.973309 67.613266 41.050640
v  -39.284969 68.319565 39.357384
v  -36.301682 68.220566 36.367798
v  -35.783360 69.262039 35.848595
# 72 vertices

vn 1.000000 -0.000000 -0.000678
vn 1.000000 0.000000 -0.000678
vn 0.979465 0.201613 -0.000664
vn 0.979523 0.201333 -0.000694
vn 0.908455 0.417982 -0.000651
vn 0.908662 0.417532 -0.000712
vn 0.977551 0.210698 -0.000772
vn 0.977609 0.210430 -0.000798
vn 0.979481 -0.201533 -0.000800
vn 0.979533 -0.201283 -0.000795
vn 0.772316 -0.635238 -0.000626
vn 0.772702 -0.634769 -0.000610
vn 0.946705 -0.322100 -0.000744
vn 0.947215 -0.320598 -0.000729
vn 0.950103 0.311937 -0.000737
vn 0.949295 0.314385 -0.000701
vn 0.696830 0.717236 -0.000496
vn 0.695419 0.718604 -0.000426
vn 0.990073 0.140552 -0.000604
vn 0.989541 0.144249 -0.000519
vn 0.910418 -0.413689 -0.000470
vn 0.911608 -0.411060 -0.000378
vn 0.963578 -0.267427 -0.000389
vn 0.964074 -0.265634 -0.000304
vn 0.999902 0.013967 -0.000322
vn 0.999888 0.014974 -0.000248
vn 0.966799 0.255538 -0.000246
vn 0.966398 0.257051 -0.000181
vn 0.774953 0.632018 -0.000155
vn 0.773673 0.633585 -0.000107
vn 0.284795 0.958589 -0.000042
vn 0.283852 0.958868 -0.000026
vn 0.315067 0.949069 -0.000001
vn 0.315340 0.948979 0.000000
vn 0.895251 0.445561 -0.000010
vn 0.894955 0.446157 0.000000
vn -0.000678 0.000000 -1.000000
vn -0.000664 0.201613 -0.979465
vn -0.000694 0.201333 -0.979523
vn -0.000651 0.417982 -0.908455
vn -0.000713 0.417532 -0.908662
vn -0.000772 0.210699 -0.977551
vn -0.000798 0.210430 -0.977609
vn -0.000800 -0.201532 -0.979482
vn -0.000795 -0.201283 -0.979533
vn -0.000626 -0.635239 -0.772315
vn -0.000610 -0.634770 -0.772701
vn -0.000744 -0.322097 -0.946706
vn -0.000729 -0.320596 -0.947216
vn -0.000737 0.311941 -0.950101
vn -0.000701 0.314387 -0.949295
vn -0.000496 0.717234 -0.696832
vn -0.000427 0.718604 -0.695419
vn -0.000604 0.140545 -0.990074
vn -0.000518 0.144254 -0.989541
vn -0.000470 -0.413691 -0.910417
vn -0.000378 -0.411059 -0.911609
vn -0.000389 -0.267428 -0.963578
vn -0.000304 -0.265634 -0.964074
vn -0.000322 0.013967 -0.999902
vn -0.000249 0.014974 -0.999888
vn -0.000246 0.255538 -0.966799
vn -0.000181 0.257051 -0.966398
vn -0.000155 0.632018 -0.774953
vn -0.000107 0.633584 -0.773674
vn -0.000042 0.958589 -0.284794
vn -0.000027 0.958868 -0.283852
vn -0.000002 0.949069 -0.315069
vn 0.000000 0.948980 -0.315336
vn -0.000010 0.445564 -0.895250
vn 0.000000 0.446157 -0.894955
vn -1.000000 0.000000 0.000678
vn -0.979465 0.201613 0.000664
vn -0.979523 0.201333 0.000694
vn -0.908455 0.417982 0.000651
vn -0.908662 0.417532 0.000713
vn -0.977551 0.210698 0.000772
vn -0.977609 0.210431 0.000798
vn -0.979482 -0.201531 0.000800
vn -0.979533 -0.201284 0.000795
vn -0.772317 -0.635238 0.000626
vn -0.772701 -0.634770 0.000610
vn -0.946704 -0.322105 0.000744
vn -0.947216 -0.320596 0.000729
vn -0.950103 0.311935 0.000737
vn -0.949295 0.314387 0.000701
vn -0.696831 0.717235 0.000496
vn -0.695420 0.718603 0.000427
vn -0.990075 0.140541 0.000604
vn -0.989542 0.144247 0.000518
vn -0.910416 -0.413693 0.000470
vn -0.911608 -0.411060 0.000378
vn -0.963578 -0.267428 0.000389
vn -0.964074 -0.265634 0.000304
vn -0.999902 0.013967 0.000322
vn -0.999888 0.014974 0.000249
vn -0.966799 0.255539 0.000246
vn -0.966397 0.257052 0.000181
vn -0.774951 0.632021 0.000155
vn -0.773674 0.633584 0.000107
vn -0.284796 0.958588 0.000042
vn -0.283853 0.958868 0.000027
vn -0.315073 0.949067 0.000002
vn -0.315339 0.948979 -0.000000
vn -0.895251 0.445561 0.000010
vn -0.894954 0.446159 -0.000001
vn 0.000678 -0.000000 1.000000
vn 0.000678 0.000000 1.000000
vn 0.000664 0.201613 0.979465
vn 0.000694 0.201333 0.979523
vn 0.000651 0.417982 0.908455
vn 0.000712 0.417532 0.908662
vn 0.000772 0.210698 0.977551
vn 0.000798 0.210430 0.977609
vn 0.000800 -0.201532 0.979482
vn 0.000795 -0.201282 0.979533
vn 0.000626 -0.635238 0.772316
vn 0.000610 -0.634768 0.772702
vn 0.000744 -0.322103 0.946704
vn 0.000729 -0.320600 0.947214
vn 0.000737 0.311936 0.950103
vn 0.000701 0.314385 0.949295
vn 0.000496 0.717236 0.696830
vn 0.000426 0.718604 0.695419
vn 0.000604 0.140546 0.990074
vn 0.000519 0.144247 0.989542
vn 0.000470 -0.413691 0.910417
vn 0.000378 -0.411062 0.911607
vn 0.000389 -0.267428 0.963578
vn 0.000304 -0.265635 0.964074
vn 0.000322 0.013967 0.999902
vn 0.000248 0.014974 0.999888
vn 0.000246 0.255538 0.966799
vn 0.000181 0.257051 0.966398
vn 0.000155 0.632019 0.774953
vn 0.000107 0.633585 0.773673
vn 0.000042 0.958588 0.284796
vn 0.000026 0.958868 0.283854
vn 0.000001 0.949068 0.315071
vn -0.000000 0.948978 0.315343
vn 0.000010 0.445561 0.895251
vn -0.000000 0.446159 0.894954
vn 0.000000 -1.000000 -0.000000
vn 0.000000 1.000000 -0.000000
# 144 vertex normals

vt 0.424071 0.005764 0.000000
vt 0.828532 0.005764 0.000000
vt 0.828530 0.050650 0.000000
vt 0.424070 0.050657 0.502670
vt 0.805110 0.091640 0.000000
vt 0.447513 0.091630 0.000000
vt 0.794593 0.114620 0.000000
vt 0.458029 0.114612 0.000000
vt 0.793774 0.125107 0.000000
vt 0.458826 0.125109 0.000000
vt 0.796609 0.130623 0.000000
vt 0.455956 0.130625 0.000000
vt 0.802230 0.137953 0.000000
vt 0.450290 0.137950 0.000000
vt 0.802343 0.141700 0.000000
vt 0.450128 0.141687 0.000000
vt 0.791492 0.155084 0.000000
vt 0.460889 0.155097 0.000000
vt 0.789386 0.158879 0.000000
vt 0.462913 0.158896 0.000000
vt 0.790686 0.163437 0.000000
vt 0.461530 0.163440 0.000000
vt 0.796977 0.173613 0.000000
vt 0.455157 0.173603 0.000000
vt 0.799509 0.196184 0.000000
vt 0.452558 0.196181 0.000000
vt 0.797334 0.209586 0.000000
vt 0.454678 0.209587 0.000000
vt 0.792025 0.218774 0.000000
vt 0.459941 0.218792 0.000000
vt 0.785157 0.227654 0.000000
vt 0.466774 0.227691 0.000000
vt 0.773041 0.243009 0.000000
vt 0.478859 0.243072 0.000000
vt 0.770937 0.246791 0.000000
vt 0.480958 0.246856 0.000000
vt 0.010180 0.252476 0.000000
vt 0.414635 0.255037 0.000000
vt 0.414459 0.299920 0.504353
vt 0.010003 0.297358 0.000000
vt 0.390880 0.340753 0.000000
vt 0.033288 0.338458 0.000000
vt 0.380276 0.363649 0.000000
vt 0.043717 0.361476 0.924665
vt 0.043706 0.361491 0.000000
vt 0.380755 0.372450 0.000000
vt 0.042671 0.371600 0.000000
vt 0.382907 0.376953 0.000000
vt 0.041200 0.376183 0.000000
vt 0.384471 0.381086 0.000000
vt 0.039366 0.381086 0.000000
vt 0.387957 0.389530 0.000000
vt 0.035747 0.387240 0.000000
vt 0.377061 0.403864 0.000000
vt 0.046463 0.401762 0.000000
vt 0.374955 0.407581 0.000000
vt 0.048486 0.405527 0.000000
vt 0.376251 0.412094 0.000000
vt 0.047099 0.410008 0.000000
vt 0.382514 0.422272 0.000000
vt 0.040698 0.420067 0.000000
vt 0.384965 0.444818 0.000000
vt 0.038019 0.442577 0.000000
vt 0.382744 0.458164 0.000000
vt 0.040093 0.455959 0.000000
vt 0.377406 0.467283 0.000000
vt 0.045326 0.465167 0.000000
vt 0.370507 0.476093 0.000000
vt 0.052128 0.474087 0.000000
vt 0.358333 0.491353 0.000000
vt 0.064155 0.489531 0.000000
vt 0.356214 0.495116 0.000000
vt 0.066239 0.493323 0.000000
vt 0.419723 0.255721 0.000000
vt 0.824184 0.255721 0.000000
vt 0.824183 0.300600 0.000000
vt 0.419722 0.300607 0.408473
vt 0.800763 0.341572 0.000000
vt 0.443167 0.341562 0.000000
vt 0.790249 0.364523 0.000000
vt 0.453684 0.364516 0.000000
vt 0.789431 0.374972 0.000000
vt 0.454483 0.374974 0.000000
vt 0.792270 0.380439 0.000000
vt 0.451617 0.380442 0.000000
vt 0.797895 0.388258 0.000000
vt 0.445954 0.388255 0.000000
vt 0.798013 0.392404 0.000000
vt 0.445797 0.392391 0.000000
vt 0.787167 0.404721 0.000000
vt 0.456564 0.404735 0.000000
vt 0.785067 0.408450 0.000000
vt 0.458595 0.408467 0.000000
vt 0.786374 0.412943 0.000000
vt 0.457218 0.412947 0.000000
vt 0.792670 0.423059 0.000000
vt 0.450851 0.423049 0.000000
vt 0.795207 0.445575 0.000000
vt 0.448257 0.445572 0.000000
vt 0.793036 0.458929 0.000000
vt 0.450380 0.458931 0.000000
vt 0.787730 0.468078 0.000000
vt 0.455647 0.468097 0.000000
vt 0.780865 0.476929 0.000000
vt 0.462482 0.476968 0.000000
vt 0.768750 0.491348 0.000000
vt 0.474569 0.491414 0.000000
vt 0.766646 0.496041 0.000000
vt 0.476668 0.496108 0.000000
vt 0.011223 0.005009 0.000000
vt 0.415683 0.004591 0.000000
vt 0.415712 0.049475 0.000000
vt 0.011252 0.049893 0.000000
vt 0.392319 0.090485 0.000000
vt 0.034723 0.090823 0.000000
vt 0.381818 0.113464 0.000000
vt 0.045254 0.113769 0.000000
vt 0.381006 0.123932 0.000000
vt 0.046058 0.124234 0.000000
vt 0.383845 0.129417 0.000000
vt 0.043193 0.129720 0.000000
vt 0.389472 0.137253 0.000000
vt 0.037532 0.137554 0.000000
vt 0.389588 0.140957 0.000000
vt 0.037373 0.141255 0.000000
vt 0.378746 0.153755 0.000000
vt 0.048143 0.154081 0.000000
vt 0.376644 0.157499 0.000000
vt 0.050171 0.157843 0.000000
vt 0.377949 0.162014 0.000000
vt 0.048793 0.162345 0.000000
vt 0.384249 0.172156 0.000000
vt 0.042428 0.172463 0.000000
vt 0.386795 0.194695 0.000000
vt 0.039844 0.195002 0.000000
vt 0.384629 0.208065 0.000000
vt 0.041972 0.208378 0.000000
vt 0.379327 0.217230 0.000000
vt 0.047242 0.217555 0.000000
vt 0.372465 0.226095 0.000000
vt 0.054082 0.226432 0.000000
vt 0.360359 0.240989 0.000000
vt 0.066177 0.241332 0.000000
vt 0.358257 0.245227 0.000000
vt 0.068279 0.245569 0.000000
vt 0.822365 0.519681 0.000000
vt 0.823395 0.348762 0.000000
vt 0.994314 0.349792 0.000000
vt 0.993284 0.520711 0.000000
vt 0.961894 0.661931 0.000000
vt 0.839352 0.661780 0.000000
vt 0.839503 0.539238 0.000000
vt 0.962046 0.539389 0.000000
# 153 texture coords

g Pillar_Square_B_Base
usemtl 10___Default
s 256
f 1/1/1 2/2/2 3/3/3 4/4/4 
f 4/4/4 3/3/3 5/5/5 6/6/6 
f 6/6/6 5/5/5 7/7/7 8/8/8 
f 8/8/8 7/7/7 9/9/9 10/10/10 
f 10/10/10 9/9/9 11/11/11 12/12/12 
f 12/12/12 11/11/11 13/13/13 14/14/14 
f 14/14/14 13/13/13 15/15/15 16/16/16 
f 16/16/16 15/15/15 17/17/17 18/18/18 
f 18/18/18 17/17/17 19/19/19 20/20/20 
f 20/20/20 19/19/19 21/21/21 22/22/22 
f 22/22/22 21/21/21 23/23/23 24/24/24 
f 24/24/24 23/23/23 25/25/25 26/26/26 
f 26/26/26 25/25/25 27/27/27 28/28/28 
f 28/28/28 27/27/27 29/29/29 30/30/30 
f 30/30/30 29/29/29 31/31/31 32/32/32 
f 32/32/32 31/31/31 33/33/33 34/34/34 
f 34/34/34 33/33/33 35/35/35 36/36/36 
s 512
f 2/37/37 37/38/37 38/39/38 3/40/39 
f 3/40/39 38/39/38 39/41/40 5/42/41 
f 5/42/41 39/41/40 40/43/42 7/44/43 
f 7/45/43 40/43/42 41/46/44 9/47/45 
f 9/47/45 41/46/44 42/48/46 11/49/47 
f 11/49/47 42/48/46 43/50/48 13/51/49 
f 13/51/49 43/50/48 44/52/50 15/53/51 
f 15/53/51 44/52/50 45/54/52 17/55/53 
f 17/55/53 45/54/52 46/56/54 19/57/55 
f 19/57/55 46/56/54 47/58/56 21/59/57 
f 21/59/57 47/58/56 48/60/58 23/61/59 
f 23/61/59 48/60/58 49/62/60 25/63/61 
f 25/63/61 49/62/60 50/64/62 27/65/63 
f 27/65/63 50/64/62 51/66/64 29/67/65 
f 29/67/65 51/66/64 52/68/66 31/69/67 
f 31/69/67 52/68/66 53/70/68 33/71/69 
f 33/71/69 53/70/68 54/72/70 35/73/71 
s 256
f 37/74/72 55/75/72 56/76/73 38/77/74 
f 38/77/74 56/76/73 57/78/75 39/79/76 
f 39/79/76 57/78/75 58/80/77 40/81/78 
f 40/81/78 58/80/77 59/82/79 41/83/80 
f 41/83/80 59/82/79 60/84/81 42/85/82 
f 42/85/82 60/84/81 61/86/83 43/87/84 
f 43/87/84 61/86/83 62/88/85 44/89/86 
f 44/89/86 62/88/85 63/90/87 45/91/88 
f 45/91/88 63/90/87 64/92/89 46/93/90 
f 46/93/90 64/92/89 65/94/91 47/95/92 
f 47/95/92 65/94/91 66/96/93 48/97/94 
f 48/97/94 66/96/93 67/98/95 49/99/96 
f 49/99/96 67/98/95 68/100/97 50/101/98 
f 50/101/98 68/100/97 69/102/99 51/103/100 
f 51/103/100 69/102/99 70/104/101 52/105/102 
f 52/105/102 70/104/101 71/106/103 53/107/104 
f 53/107/104 71/106/103 72/108/105 54/109/106 
s 512
f 55/110/107 1/111/108 4/112/109 56/113/110 
f 56/113/110 4/112/109 6/114/111 57/115/112 
f 57/115/112 6/114/111 8/116/113 58/117/114 
f 58/117/114 8/116/113 10/118/115 59/119/116 
f 59/119/116 10/118/115 12/120/117 60/121/118 
f 60/121/118 12/120/117 14/122/119 61/123/120 
f 61/123/120 14/122/119 16/124/121 62/125/122 
f 62/125/122 16/124/121 18/126/123 63/127/124 
f 63/127/124 18/126/123 20/128/125 64/129/126 
f 64/129/126 20/128/125 22/130/127 65/131/128 
f 65/131/128 22/130/127 24/132/129 66/133/130 
f 66/133/130 24/132/129 26/134/131 67/135/132 
f 67/135/132 26/134/131 28/136/133 68/137/134 
f 68/137/134 28/136/133 30/138/135 69/139/136 
f 69/139/136 30/138/135 32/140/137 70/141/138 
f 70/141/138 32/140/137 34/142/139 71/143/140 
f 71/143/140 34/142/139 36/144/141 72/145/142 
s 2
f 2/146/143 1/147/143 55/148/143 37/149/143 
f 36/150/144 35/151/144 54/152/144 72/153/144 
# 70 polygons

