# 3ds Max Wavefront OBJ Exporter v0.97b - (c)2007 guruware
# File Created: 29.10.2015 16:58:13

mtllib Pillar_05_Round_C_Column.mtl

#
# object Pillar_05_Round_C_Column
#

v  -31.613361 426.062073 18.206242
v  -33.716148 426.062073 10.358553
v  -33.623081 69.262039 10.358492
v  -31.532774 69.262039 18.159641
v  -25.868452 426.062073 23.951145
v  -25.821938 69.262039 23.870483
v  -0.079308 426.062073 36.412411
v  -7.926997 426.062073 34.309631
v  -7.880492 69.262054 34.228989
v  -0.079344 69.262054 36.319305
v  7.768379 426.062073 34.309624
v  7.721809 69.262054 34.229000
v  31.454727 426.062073 18.206213
v  25.709827 426.062073 23.951120
v  25.663265 69.262039 23.870510
v  31.374104 69.262039 18.159676
v  33.557503 426.062073 10.358519
v  33.464420 69.262039 10.358522
v  31.454708 426.062073 -18.206165
v  33.557491 426.062073 -10.358484
v  33.464428 69.262039 -10.358479
v  31.374119 69.262039 -18.159626
v  25.709797 426.062073 -23.951071
v  25.663280 69.262039 -23.870468
v  -0.079344 426.062073 -36.412346
v  7.768341 426.062073 -34.309566
v  7.721838 69.262024 -34.228981
v  -0.079308 69.262024 -36.319294
v  -7.927029 426.062073 -34.309559
v  -7.880455 69.262024 -34.228989
v  -31.613384 426.062073 -18.206127
v  -25.868473 426.062073 -23.951046
v  -25.821911 69.262039 -23.870495
v  -31.532761 69.262039 -18.159651
v  -33.716156 426.062073 -10.358448
v  -33.623070 69.262039 -10.358511
v  -29.538460 69.267929 4.540926
v  -29.631535 426.067963 4.540994
v  -18.787983 426.067963 23.322542
v  -18.741476 69.267929 23.241884
v  -10.922845 426.067963 27.863478
v  -10.876340 69.267929 27.782824
v  10.764229 426.067963 27.863461
v  10.717655 69.267929 27.782843
v  18.629364 426.067963 23.322521
v  18.582794 69.267929 23.241907
v  29.472881 426.067963 4.540955
v  29.379807 69.267929 4.540963
v  29.472878 426.067963 -4.540923
v  29.379807 69.267929 -4.540914
v  18.629326 426.067963 -23.322468
v  18.582821 69.267929 -23.241869
v  10.764187 426.067963 -27.863403
v  10.717686 69.267914 -27.782810
v  -10.922876 426.067963 -27.863390
v  -10.876304 69.267914 -27.782827
v  -18.788012 426.067963 -23.322449
v  -18.741442 69.267929 -23.241892
v  -29.538456 69.267929 -4.540951
v  -29.631536 426.067963 -4.540884
v  -27.814968 69.303818 -0.000011
v  -27.905403 426.034729 0.000054
v  -13.992348 426.034729 24.098141
v  -13.947163 69.303818 24.019766
v  13.833729 426.034729 24.098122
v  13.788479 69.303818 24.019785
v  27.746746 426.034729 0.000016
v  27.656315 69.303818 0.000024
v  13.833691 426.034729 -24.098057
v  13.788509 69.303818 -24.019758
v  -13.992378 426.034729 -24.098042
v  -13.947128 69.303818 -24.019779
# 72 vertices

vn -0.866025 -0.000522 0.500000
vn -0.984690 -0.000514 -0.174315
vn -0.984703 -0.000514 -0.174243
vn -0.866026 -0.000522 0.499999
vn -0.341383 -0.000514 0.939924
vn -0.341453 -0.000514 0.939899
vn 0.000001 -0.000522 1.000000
vn -0.643306 -0.000514 0.765609
vn -0.643250 -0.000514 0.765656
vn -0.000001 -0.000522 1.000000
vn 0.643307 -0.000514 0.765608
vn 0.643250 -0.000514 0.765656
vn 0.866026 -0.000522 0.499999
vn 0.341384 -0.000514 0.939924
vn 0.341453 -0.000514 0.939899
vn 0.866025 -0.000522 0.500000
vn 0.984690 -0.000514 -0.174316
vn 0.984703 -0.000514 -0.174242
vn 0.866025 -0.000522 -0.500000
vn 0.984690 -0.000514 0.174315
vn 0.984703 -0.000514 0.174243
vn 0.341383 -0.000514 -0.939924
vn 0.341453 -0.000514 -0.939899
vn -0.000000 -0.000522 -1.000000
vn 0.643306 -0.000514 -0.765609
vn 0.643250 -0.000514 -0.765656
vn 0.000000 -0.000522 -1.000000
vn -0.643307 -0.000514 -0.765608
vn -0.643249 -0.000514 -0.765657
vn -0.866026 -0.000522 -0.499999
vn -0.341384 -0.000514 -0.939924
vn -0.341453 -0.000514 -0.939899
vn -0.866025 -0.000522 -0.500000
vn -0.984690 -0.000514 0.174316
vn -0.984703 -0.000514 0.174242
vn -0.883461 -0.000454 -0.468505
vn -0.883347 -0.000461 -0.468719
vn -0.035755 -0.000454 0.999361
vn -0.035997 -0.000461 0.999352
vn -0.847596 -0.000461 0.530642
vn -0.847468 -0.000454 0.530847
vn 0.847594 -0.000454 0.530645
vn 0.847465 -0.000461 0.530851
vn 0.035751 -0.000461 0.999361
vn 0.035992 -0.000454 0.999352
vn 0.883349 -0.000454 -0.468716
vn 0.883463 -0.000461 -0.468501
vn 0.883347 -0.000461 0.468719
vn 0.883461 -0.000454 0.468505
vn 0.035754 -0.000454 -0.999361
vn 0.035998 -0.000461 -0.999352
vn 0.847596 -0.000461 -0.530641
vn 0.847468 -0.000454 -0.530847
vn -0.847594 -0.000454 -0.530645
vn -0.847465 -0.000461 -0.530851
vn -0.035751 -0.000461 -0.999361
vn -0.035993 -0.000454 -0.999352
vn -0.883463 -0.000461 0.468501
vn -0.883349 -0.000454 0.468716
vn -1.000000 -0.000514 0.000004
vn -0.499996 -0.000514 0.866027
vn -0.499996 -0.000514 0.866028
vn 0.500004 -0.000514 0.866023
vn 1.000000 -0.000514 -0.000004
vn 1.000000 -0.000514 -0.000005
vn 0.499996 -0.000514 -0.866028
vn 0.499996 -0.000514 -0.866027
vn -0.500004 -0.000514 -0.866023
vn 0.000947 -0.999998 0.001640
vn -0.000947 -0.999998 0.001640
vn -0.001893 -0.999998 -0.000000
vn 0.000947 -0.999998 -0.001640
vn -0.000947 -0.999998 -0.001640
vn 0.001893 -0.999998 -0.000000
vn -0.000877 0.999998 -0.001518
vn -0.001753 0.999998 0.000000
vn -0.000877 0.999998 0.001519
vn 0.001753 0.999998 0.000000
vn 0.000877 0.999998 0.001519
vn 0.000877 0.999998 -0.001518
vn -0.000019 -0.999995 -0.003311
vn -0.000139 -1.000000 -0.000521
vn 0.000000 -1.000000 -0.000399
vn 0.000019 -0.999995 -0.003311
vn 0.000139 -1.000000 -0.000521
vn -0.002877 -0.999995 -0.001639
vn -0.000522 -1.000000 -0.000140
vn -0.000346 -1.000000 -0.000200
vn -0.002858 -0.999995 -0.001672
vn -0.000382 -1.000000 -0.000382
vn -0.002858 -0.999995 0.001672
vn -0.000382 -1.000000 0.000382
vn -0.000346 -1.000000 0.000200
vn -0.002877 -0.999995 0.001639
vn -0.000522 -1.000000 0.000140
vn 0.000019 -0.999995 0.003312
vn 0.000140 -1.000000 0.000522
vn -0.000000 -1.000000 0.000400
vn -0.000019 -0.999995 0.003312
vn -0.000140 -1.000000 0.000522
vn 0.002877 -0.999995 0.001639
vn 0.000522 -1.000000 0.000140
vn 0.000346 -1.000000 0.000200
vn 0.002858 -0.999995 0.001672
vn 0.000382 -1.000000 0.000382
vn 0.002858 -0.999995 -0.001672
vn 0.000382 -1.000000 -0.000382
vn 0.000346 -1.000000 -0.000200
vn 0.002877 -0.999995 -0.001639
vn 0.000522 -1.000000 -0.000140
vn 0.002431 0.999996 0.001382
vn -0.000382 1.000000 -0.000382
vn -0.000346 1.000000 -0.000200
vn 0.002412 0.999996 0.001415
vn -0.000522 1.000000 -0.000140
vn 0.000019 0.999996 0.002796
vn 0.000140 1.000000 -0.000522
vn -0.000000 1.000000 -0.000399
vn -0.000019 0.999996 0.002796
vn -0.000140 1.000000 -0.000522
vn -0.002412 0.999996 0.001415
vn 0.000522 1.000000 -0.000140
vn 0.000346 1.000000 -0.000200
vn -0.002431 0.999996 0.001382
vn 0.000382 1.000000 -0.000382
vn -0.002431 0.999996 -0.001381
vn 0.000382 1.000000 0.000382
vn 0.000346 1.000000 0.000200
vn -0.002412 0.999996 -0.001415
vn 0.000522 1.000000 0.000140
vn -0.000019 0.999996 -0.002796
vn -0.000140 1.000000 0.000522
vn 0.000000 1.000000 0.000400
vn 0.000019 0.999996 -0.002796
vn 0.000140 1.000000 0.000522
vn 0.002412 0.999996 -0.001415
vn -0.000522 1.000000 0.000140
vn -0.000346 1.000000 0.000200
vn 0.002431 0.999996 -0.001381
vn -0.000382 1.000000 0.000382
# 140 vertex normals

vt 0.231939 0.751378 -0.321119
vt 0.197836 0.751355 0.321119
vt 0.198446 0.002518 -0.321119
vt 0.232346 0.002541 -0.321119
vt 0.266041 0.751392 -0.321119
vt 0.266246 0.002555 -0.321119
vt 0.397939 0.751424 -0.321119
vt 0.363836 0.751419 -0.321119
vt 0.364040 0.002581 -0.321119
vt 0.397940 0.002586 -0.321119
vt 0.432041 0.751419 -0.321119
vt 0.431840 0.002582 -0.321119
vt 0.563940 0.751378 -0.321119
vt 0.529837 0.751393 -0.321119
vt 0.529635 0.002556 -0.321119
vt 0.563535 0.002542 -0.321119
vt 0.598043 0.751355 0.321119
vt 0.597436 0.002519 -0.321119
vt 0.729942 0.751244 -0.321119
vt 0.695839 0.751276 -0.321119
vt 0.695231 0.002440 -0.321119
vt 0.729132 0.002408 -0.321119
vt 0.764045 0.751202 -0.321119
vt 0.763033 0.002367 -0.321119
vt 0.895940 0.751019 -0.321119
vt 0.861838 0.751070 -0.321119
vt 0.860827 0.002235 -0.321119
vt 0.894727 0.002185 -0.321119
vt 0.930043 0.750959 -0.321119
vt 0.928627 0.002125 -0.321119
vt 0.065939 0.751243 -0.321119
vt 0.031837 0.751202 -0.321119
vt 0.032850 0.002364 -0.321119
vt 0.066750 0.002406 -0.321119
vt 0.100041 0.751276 -0.321119
vt 0.100651 0.002438 -0.321119
vt 0.168609 0.002497 -0.321119
vt 0.167999 0.751334 -0.321119
vt 0.295878 0.751404 -0.321119
vt 0.296082 0.002566 -0.321119
vt 0.334000 0.751414 -0.321119
vt 0.334203 0.002577 -0.321119
vt 0.461878 0.751415 -0.321119
vt 0.461676 0.002577 -0.321119
vt 0.499999 0.751404 -0.321119
vt 0.499797 0.002567 -0.321119
vt 0.627881 0.751334 -0.321119
vt 0.627273 0.002499 -0.321119
vt 0.666002 0.751303 -0.321119
vt 0.665394 0.002468 -0.321119
vt 0.793881 0.751165 -0.321119
vt 0.792869 0.002330 -0.321119
vt 0.832002 0.751114 -0.321119
vt 0.830990 0.002279 -0.321119
vt 0.959879 0.750906 -0.321119
vt 0.958463 0.002072 -0.321119
vt 0.002000 0.751165 -0.321119
vt 0.003013 0.002327 -0.321119
vt 0.130488 0.002466 -0.321119
vt 0.129878 0.751303 -0.321119
vt 0.149548 0.002481 -0.321119
vt 0.148939 0.751319 -0.321119
vt 0.314939 0.751409 -0.321119
vt 0.315143 0.002571 -0.321119
vt 0.480939 0.751409 -0.321119
vt 0.480737 0.002572 -0.321119
vt 0.646941 0.751319 -0.321119
vt 0.646334 0.002483 -0.321119
vt 0.812942 0.751139 -0.321119
vt 0.811930 0.002304 -0.321119
vt 0.978940 0.750870 -0.321119
vt 0.977523 0.002036 -0.321119
vt 0.996584 0.002000 -0.321119
vt 0.998000 0.750834 -0.321119
vt 0.102886 0.779738 0.000000
vt 0.195938 0.808473 0.000000
vt 0.217578 0.903425 0.000000
vt 0.053115 0.940908 0.000000
vt 0.146167 0.969643 0.000000
vt 0.031475 0.845955 0.000000
vt 0.937809 0.809508 0.000000
vt 0.959593 0.904744 0.000000
vt 0.888008 0.971227 0.000000
vt 0.772856 0.847238 0.000000
vt 0.794639 0.942474 0.000000
vt 0.844441 0.780756 0.000000
vt 0.131531 0.972979 0.000000
vt 0.115780 0.990418 0.000000
vt 0.089100 0.989411 0.000000
vt 0.063322 0.951916 0.000000
vt 0.066498 0.975199 0.000000
vt 0.213149 0.917769 0.000000
vt 0.220376 0.940129 0.000000
vt 0.206164 0.962731 0.000000
vt 0.160803 0.966307 0.000000
vt 0.182555 0.975199 0.000000
vt 0.206145 0.819480 0.000000
vt 0.229123 0.824401 0.000000
vt 0.241591 0.848010 0.000000
vt 0.222008 0.889082 0.000000
vt 0.240584 0.874690 0.357805
vt 0.117522 0.776402 0.000000
vt 0.133273 0.758963 0.000000
vt 0.159953 0.759969 0.000000
vt 0.185730 0.797465 0.000000
vt 0.182555 0.774181 0.000000
vt 0.035904 0.831612 0.000000
vt 0.028677 0.809252 0.000000
vt 0.042888 0.786650 0.000000
vt 0.088249 0.783073 0.000000
vt 0.066498 0.774181 0.000000
vt 0.042908 0.929901 0.000000
vt 0.019930 0.924980 0.000000
vt 0.007462 0.901371 0.000000
vt 0.027045 0.860299 0.000000
vt 0.008469 0.874690 0.642316
vt 0.784424 0.931475 0.000000
vt 0.761442 0.926572 0.000000
vt 0.748881 0.902831 0.000000
vt 0.768438 0.861585 0.000000
vt 0.749873 0.875991 0.357718
vt 0.873374 0.974574 0.000000
vt 0.857637 0.992026 0.000000
vt 0.830797 0.991034 0.000000
vt 0.804855 0.953474 0.000000
vt 0.808048 0.976755 0.000000
vt 0.955175 0.919091 0.000000
vt 0.962419 0.941445 0.000000
vt 0.948140 0.964194 0.000000
vt 0.902642 0.967880 0.000000
vt 0.924400 0.976755 0.000000
vt 0.948025 0.820508 0.000000
vt 0.971007 0.825411 0.000000
vt 0.983568 0.849151 0.000000
vt 0.964011 0.890397 0.000000
vt 0.982576 0.875991 0.642161
vt 0.859075 0.777408 0.000000
vt 0.874812 0.759957 0.000000
vt 0.901652 0.760949 0.000000
vt 0.927594 0.798509 0.000000
vt 0.924400 0.775228 0.000000
vt 0.777274 0.832892 0.000000
vt 0.770029 0.810537 0.000000
vt 0.784308 0.787789 0.000000
vt 0.829807 0.784103 0.000000
vt 0.808048 0.775228 0.000000
# 146 texture coords

g Pillar_05_Round_C_Column
usemtl 02___default
s 1
f 1/1/1 2/2/2 3/3/3 4/4/4 
f 5/5/5 1/1/1 4/4/4 6/6/6 
f 7/7/7 8/8/8 9/9/9 10/10/10 
f 11/11/11 7/7/7 10/10/10 12/12/12 
f 13/13/13 14/14/14 15/15/15 16/16/16 
f 17/17/17 13/13/13 16/16/16 18/18/18 
f 19/19/19 20/20/20 21/21/21 22/22/19 
f 23/23/22 19/19/19 22/22/19 24/24/23 
f 25/25/24 26/26/25 27/27/26 28/28/27 
f 29/29/28 25/25/24 28/28/27 30/30/29 
f 31/31/30 32/32/31 33/33/32 34/34/33 
f 35/35/34 31/31/30 34/34/33 36/36/35 
f 37/37/36 3/3/3 2/2/2 38/38/37 
f 39/39/38 5/5/5 6/6/6 40/40/39 
f 9/9/9 8/8/8 41/41/40 42/42/41 
f 43/43/42 11/11/11 12/12/12 44/44/43 
f 15/15/15 14/14/14 45/45/44 46/46/45 
f 47/47/46 17/17/17 18/18/18 48/48/47 
f 21/21/21 20/20/20 49/49/48 50/50/49 
f 51/51/50 23/23/22 24/24/23 52/52/51 
f 27/27/26 26/26/25 53/53/52 54/54/53 
f 55/55/54 29/29/28 30/30/29 56/56/55 
f 33/33/32 32/32/31 57/57/56 58/58/57 
f 35/35/34 36/36/35 59/59/58 60/60/59 
f 61/61/60 62/62/60 60/60/59 59/59/58 
f 63/63/61 64/64/62 42/42/41 41/41/40 
f 65/65/63 66/66/63 46/46/45 45/45/44 
f 67/67/64 68/68/65 50/50/49 49/49/48 
f 69/69/66 70/70/67 54/54/53 53/53/52 
f 71/71/68 72/72/68 58/73/57 57/74/56 
s 2
f 72/75/69 70/76/70 68/77/71 64/78/72 
f 68/77/71 66/79/73 64/78/72 
f 61/80/74 72/75/69 64/78/72 
f 65/81/75 67/82/76 69/83/77 62/84/78 
f 69/83/77 71/85/79 62/84/78 
f 63/86/80 65/81/75 62/84/78 
s 1
f 37/37/36 38/38/37 62/62/60 61/61/60 
f 39/39/38 40/40/39 64/64/62 63/63/61 
f 43/43/42 44/44/43 66/66/63 65/65/63 
f 47/47/46 48/48/47 68/68/65 67/67/64 
f 51/51/50 52/52/51 70/70/67 69/69/66 
f 55/55/54 56/56/55 72/72/68 71/71/68 
s 2
f 44/87/81 12/88/82 10/89/83 42/90/84 
f 10/89/83 9/91/85 42/90/84 
f 66/79/73 44/87/81 42/90/84 64/78/72 
f 48/92/86 18/93/87 16/94/88 46/95/89 
f 16/94/88 15/96/90 46/95/89 
f 68/77/71 48/92/86 46/95/89 66/79/73 
f 52/97/91 24/98/92 22/99/93 50/100/94 
f 22/99/93 21/101/95 50/100/94 
f 70/76/70 52/97/91 50/100/94 68/77/71 
f 56/102/96 30/103/97 28/104/98 54/105/99 
f 28/104/98 27/106/100 54/105/99 
f 72/75/69 56/102/96 54/105/99 70/76/70 
f 59/107/101 36/108/102 34/109/103 58/110/104 
f 34/109/103 33/111/105 58/110/104 
f 61/80/74 59/107/101 58/110/104 72/75/69 
f 40/112/106 6/113/107 4/114/108 37/115/109 
f 4/114/108 3/116/110 37/115/109 
f 64/78/72 40/112/106 37/115/109 61/80/74 
f 57/117/111 32/118/112 31/119/113 60/120/114 
f 31/119/113 35/121/115 60/120/114 
f 71/85/79 57/117/111 60/120/114 62/84/78 
f 53/122/116 26/123/117 25/124/118 55/125/119 
f 25/124/118 29/126/120 55/125/119 
f 69/83/77 53/122/116 55/125/119 71/85/79 
f 49/127/121 20/128/122 19/129/123 51/130/124 
f 19/129/123 23/131/125 51/130/124 
f 67/82/76 49/127/121 51/130/124 69/83/77 
f 45/132/126 14/133/127 13/134/128 47/135/129 
f 13/134/128 17/136/130 47/135/129 
f 65/81/75 45/132/126 47/135/129 67/82/76 
f 41/137/131 8/138/132 7/139/133 43/140/134 
f 7/139/133 11/141/135 43/140/134 
f 63/86/80 41/137/131 43/140/134 65/81/75 
f 38/142/136 2/143/137 1/144/138 39/145/139 
f 1/144/138 5/146/140 39/145/139 
f 62/84/78 38/142/136 39/145/139 63/86/80 
# 62 polygons - 16 triangles

