# 3ds Max Wavefront OBJ Exporter v0.97b - (c)2007 guruware
# File Created: 29.10.2015 16:58:17

mtllib Pillar_Round_B_Base.mtl

#
# object Pillar_Round_B_Base
#

v  -42.361050 19.647324 24.445559
v  -48.919151 19.647324 0.029614
v  -49.577267 1.060196 -0.000021
v  -42.945812 1.060196 24.748953
v  -42.340744 35.361465 24.449806
v  -48.903687 35.361465 0.043445
v  -43.449371 45.329498 25.069342
v  -50.173553 45.329498 0.025666
v  -44.765182 48.567596 25.714478
v  -51.635651 48.567596 -0.073536
v  -43.736149 53.657349 24.872849
v  -50.323662 53.657349 -0.287891
v  -40.193939 57.208405 23.037687
v  -46.338440 57.208405 -0.106083
v  -33.936264 61.098969 19.621498
v  -39.211037 61.098969 0.064249
v  -34.668163 63.468414 19.430321
v  -39.749294 63.468414 -0.467267
v  -33.347450 66.694397 18.755636
v  -38.268181 66.694397 -0.391202
v  -31.532772 69.262680 18.159637
v  -36.398628 69.262680 -0.000011
v  -24.473593 19.647324 42.311337
v  -24.828316 1.060211 42.866463
v  -24.453884 35.361465 42.304863
v  -25.104218 45.329514 43.395710
v  -25.921175 48.567612 44.612320
v  -25.450821 53.657364 43.368927
v  -23.300758 57.208405 40.008526
v  -19.589544 61.098969 33.921185
v  -20.318979 63.468414 34.121567
v  -19.512548 66.694397 32.876919
v  -18.238991 69.262680 31.453434
v  -0.049715 19.647324 48.839825
v  -0.079348 1.060196 49.497940
v  -0.035885 35.361465 48.824364
v  -0.053665 45.329514 50.094231
v  -0.152866 48.567596 51.556328
v  -0.367222 53.657364 50.244339
v  -0.185415 57.208420 46.259117
v  -0.015083 61.098984 39.131718
v  -0.546600 63.468430 39.669971
v  -0.470535 66.694412 38.188858
v  -0.079344 69.262680 36.319298
v  24.366230 19.647324 42.281727
v  24.669628 1.060211 42.866486
v  24.370480 35.361465 42.261421
v  24.990013 45.329514 43.370049
v  25.635151 48.567612 44.685860
v  24.793518 53.657364 43.656826
v  22.958355 57.208405 40.114616
v  19.542168 61.098969 33.856945
v  19.350986 63.468414 34.588844
v  18.676304 66.694397 33.268127
v  18.080311 69.262680 31.453453
v  42.232006 19.647324 24.394274
v  42.787136 1.060196 24.748995
v  42.225529 35.361465 24.374569
v  43.316380 45.329498 25.024900
v  44.532993 48.567596 25.841860
v  43.289600 53.657349 25.371506
v  39.929195 57.208405 23.221443
v  33.841850 61.098969 19.510227
v  34.042236 63.468414 20.239664
v  32.797588 66.694397 19.433233
v  31.374104 69.262680 18.159672
v  48.760494 19.647324 -0.029611
v  49.418613 1.060196 0.000021
v  48.745037 35.361465 -0.043439
v  50.014904 45.329498 -0.025659
v  51.476994 48.567596 0.073543
v  50.165012 53.657349 0.287899
v  46.179783 57.208405 0.106092
v  39.052383 61.098969 -0.064239
v  39.590641 63.468414 0.467278
v  38.109524 66.694397 0.391213
v  36.239975 69.262680 0.000023
v  42.202396 19.647324 -24.445551
v  42.787159 1.060196 -24.748949
v  42.182087 35.361465 -24.449797
v  43.290714 45.329498 -25.069330
v  44.606525 48.567596 -25.714468
v  43.577496 53.657349 -24.872835
v  40.035282 57.208405 -23.037672
v  33.777607 61.098969 -19.621485
v  34.509510 63.468414 -19.430304
v  33.188793 66.694397 -18.755621
v  31.374119 69.262680 -18.159630
v  24.314938 19.647324 -42.311329
v  24.669659 1.060181 -42.866463
v  24.295231 35.361465 -42.304855
v  24.945560 45.329483 -43.395699
v  25.762520 48.567581 -44.612312
v  25.292164 53.657333 -43.368919
v  23.142101 57.208405 -40.008518
v  19.430889 61.098969 -33.921169
v  20.160324 63.468414 -34.121555
v  19.353893 66.694397 -32.876907
v  18.080338 69.262680 -31.453423
v  -0.108938 19.647324 -48.839821
v  -0.079304 1.060196 -49.497940
v  -0.122766 35.361465 -48.824356
v  -0.104988 45.329483 -50.094223
v  -0.005785 48.567581 -51.556320
v  0.208570 53.657333 -50.244331
v  0.026762 57.208374 -46.259109
v  -0.143570 61.098969 -39.131706
v  0.387947 63.468414 -39.669964
v  0.311882 66.694382 -38.188847
v  -0.079309 69.262680 -36.319302
v  -24.524878 19.647324 -42.281719
v  -24.828272 1.060181 -42.866486
v  -24.529125 35.361465 -42.261414
v  -25.148659 45.329483 -43.370041
v  -25.793795 48.567581 -44.685856
v  -24.952164 53.657333 -43.656822
v  -23.117002 57.208405 -40.114613
v  -19.700813 61.098969 -33.856930
v  -19.509636 63.468414 -34.588833
v  -18.834953 66.694397 -33.268116
v  -18.238956 69.262680 -31.453442
v  -42.390667 19.647324 -24.394251
v  -42.945797 1.060196 -24.748976
v  -42.384193 35.361465 -24.374542
v  -43.475037 45.329498 -25.024874
v  -44.691650 48.567596 -25.841833
v  -43.448257 53.657349 -25.371475
v  -40.087856 57.208405 -23.221416
v  -34.000511 61.098969 -19.510204
v  -34.200897 63.468414 -20.239637
v  -32.956245 66.694397 -19.433207
v  -31.532761 69.262680 -18.159653
# 132 vertices

vn -0.865571 0.018193 0.500456
vn -0.999834 0.018193 0.000622
vn -0.999368 0.035557 -0.000082
vn -0.865519 0.035557 0.499613
vn -0.863772 -0.063593 0.499854
vn -0.997975 -0.063593 0.001000
vn -0.830488 -0.278737 0.482282
vn -0.960364 -0.278737 0.002425
vn -0.863425 -0.081844 0.497794
vn -0.996645 -0.081844 -0.000610
vn -0.753831 0.501064 0.425058
vn -0.865365 0.501064 -0.008804
vn -0.509478 0.808569 0.294361
vn -0.588402 0.808569 0.000185
vn -0.761521 0.454322 0.462252
vn -0.890623 0.454322 0.019561
vn -0.874885 0.096752 0.474569
vn -0.994957 0.096752 -0.026454
vn -0.756079 0.500192 0.422081
vn -0.865824 0.500192 -0.012506
vn -0.694648 0.584946 0.418691
vn -0.810929 0.584945 0.015273
vn -0.499378 0.018193 0.866193
vn -0.499754 0.035557 0.865437
vn -0.498121 -0.063593 0.864772
vn -0.478082 -0.278737 0.832912
vn -0.498851 -0.081844 0.862815
vn -0.440307 0.501065 0.745026
vn -0.294041 0.808569 0.509662
vn -0.428371 0.454322 0.781082
vn -0.520388 0.096753 0.848431
vn -0.443743 0.500192 0.743573
vn -0.392238 0.584945 0.709922
vn 0.000622 0.018193 0.999834
vn -0.000082 0.035557 0.999368
vn 0.001000 -0.063593 0.997975
vn 0.002425 -0.278738 0.960364
vn -0.000610 -0.081845 0.996645
vn -0.008804 0.501064 0.865365
vn 0.000185 0.808569 0.588402
vn 0.019561 0.454322 0.890623
vn -0.026454 0.096753 0.994957
vn -0.012506 0.500194 0.865823
vn 0.015273 0.584949 0.810926
vn 0.500456 0.018193 0.865571
vn 0.499613 0.035557 0.865519
vn 0.499854 -0.063593 0.863772
vn 0.482282 -0.278737 0.830488
vn 0.497794 -0.081844 0.863425
vn 0.425058 0.501065 0.753830
vn 0.294360 0.808569 0.509478
vn 0.462252 0.454322 0.761521
vn 0.474568 0.096753 0.874885
vn 0.422082 0.500192 0.756079
vn 0.418692 0.584945 0.694649
vn 0.866193 0.018193 0.499378
vn 0.865437 0.035557 0.499754
vn 0.864772 -0.063593 0.498121
vn 0.832912 -0.278738 0.478082
vn 0.862815 -0.081844 0.498851
vn 0.745026 0.501064 0.440307
vn 0.509663 0.808569 0.294041
vn 0.781083 0.454322 0.428371
vn 0.848431 0.096752 0.520388
vn 0.743573 0.500192 0.443743
vn 0.709921 0.584945 0.392238
vn 0.999834 0.018193 -0.000622
vn 0.999368 0.035557 0.000082
vn 0.997975 -0.063593 -0.001001
vn 0.960365 -0.278737 -0.002425
vn 0.996645 -0.081844 0.000610
vn 0.865365 0.501064 0.008804
vn 0.588401 0.808569 -0.000185
vn 0.890623 0.454322 -0.019561
vn 0.994957 0.096752 0.026454
vn 0.865824 0.500192 0.012506
vn 0.810930 0.584944 -0.015273
vn 0.865571 0.018193 -0.500456
vn 0.865519 0.035557 -0.499613
vn 0.863772 -0.063593 -0.499854
vn 0.830488 -0.278737 -0.482282
vn 0.863425 -0.081844 -0.497794
vn 0.753831 0.501064 -0.425058
vn 0.509478 0.808569 -0.294361
vn 0.761521 0.454322 -0.462252
vn 0.874885 0.096752 -0.474568
vn 0.756079 0.500192 -0.422081
vn 0.694649 0.584944 -0.418692
vn 0.499378 0.018193 -0.866193
vn 0.499754 0.035557 -0.865437
vn 0.498121 -0.063593 -0.864772
vn 0.478082 -0.278737 -0.832912
vn 0.498851 -0.081844 -0.862815
vn 0.440307 0.501064 -0.745027
vn 0.294041 0.808568 -0.509664
vn 0.428371 0.454322 -0.781083
vn 0.520388 0.096752 -0.848431
vn 0.443743 0.500192 -0.743573
vn 0.392238 0.584945 -0.709922
vn -0.000622 0.018193 -0.999834
vn 0.000082 0.035557 -0.999368
vn -0.001000 -0.063593 -0.997975
vn -0.002425 -0.278738 -0.960364
vn 0.000611 -0.081844 -0.996645
vn 0.008804 0.501065 -0.865365
vn -0.000184 0.808569 -0.588402
vn -0.019561 0.454320 -0.890624
vn 0.026454 0.096753 -0.994957
vn 0.012506 0.500191 -0.865825
vn -0.015273 0.584941 -0.810932
vn -0.500456 0.018193 -0.865571
vn -0.499613 0.035557 -0.865519
vn -0.499854 -0.063593 -0.863772
vn -0.482282 -0.278738 -0.830487
vn -0.497794 -0.081844 -0.863425
vn -0.425058 0.501063 -0.753831
vn -0.294361 0.808568 -0.509479
vn -0.462252 0.454321 -0.761522
vn -0.474569 0.096752 -0.874885
vn -0.422081 0.500192 -0.756079
vn -0.418691 0.584945 -0.694649
vn -0.866193 0.018193 -0.499378
vn -0.865437 0.035557 -0.499754
vn -0.864772 -0.063593 -0.498121
vn -0.832912 -0.278738 -0.478082
vn -0.862815 -0.081844 -0.498851
vn -0.745026 0.501064 -0.440307
vn -0.509663 0.808569 -0.294041
vn -0.781083 0.454322 -0.428371
vn -0.848431 0.096753 -0.520388
vn -0.743573 0.500192 -0.443743
vn -0.709922 0.584945 -0.392238
vn -0.000000 -1.000000 0.000000
vn -0.000001 -1.000000 0.000002
vn 0.000000 -1.000000 0.000000
vn 0.000000 -1.000000 -0.000000
vn 0.000001 -1.000000 0.000002
vn 0.000000 1.000000 -0.000000
# 138 vertex normals

vt 0.657752 0.297066 0.000000
vt 0.735799 0.280578 0.000000
vt 0.748721 0.347495 0.000000
vt 0.666298 0.364105 0.000000
vt 0.650611 0.242892 0.000000
vt 0.724916 0.226621 0.000000
vt 0.646281 0.210077 0.000000
vt 0.718224 0.194041 0.000000
vt 0.645055 0.199053 0.000000
vt 0.716193 0.183123 0.000000
vt 0.643420 0.182790 0.000000
vt 0.713365 0.166988 0.000000
vt 0.640725 0.166038 0.000000
vt 0.709430 0.150481 0.000000
vt 0.636704 0.138100 0.000000
vt 0.703330 0.122944 0.000000
vt 0.637112 0.128742 0.000000
vt 0.703046 0.113588 0.000000
vt 0.635482 0.118382 0.000000
vt 0.700655 0.103434 0.000000
vt 0.633047 0.109869 0.000000
vt 0.697603 0.095204 0.000000
vt 0.579513 0.306823 0.000000
vt 0.583798 0.373962 0.000000
vt 0.575966 0.252483 0.000000
vt 0.573871 0.219519 0.000000
vt 0.573402 0.208447 0.000000
vt 0.572887 0.192131 0.000000
vt 0.571358 0.175228 0.000000
vt 0.569285 0.147061 0.000000
vt 0.570339 0.137770 0.000000
vt 0.569432 0.127296 0.000000
vt 0.567593 0.118588 0.000000
vt 0.501157 0.310041 0.000000
vt 0.501252 0.377226 0.000000
vt 0.501129 0.255638 0.000000
vt 0.501215 0.222625 0.000000
vt 0.501485 0.211553 0.000000
vt 0.502060 0.195253 0.000000
vt 0.501668 0.178278 0.000000
vt 0.501497 0.150027 0.000000
vt 0.503175 0.140857 0.000000
vt 0.502977 0.130334 0.000000
vt 0.501732 0.121490 0.000000
vt 0.422793 0.306787 0.000000
vt 0.418697 0.373955 0.000000
vt 0.426284 0.252429 0.000000
vt 0.428553 0.219471 0.000000
vt 0.429560 0.208444 0.000000
vt 0.431224 0.192225 0.000000
vt 0.431970 0.175251 0.000000
vt 0.433701 0.147050 0.000000
vt 0.435993 0.138052 0.000000
vt 0.436508 0.127540 0.000000
vt 0.435863 0.118610 0.000000
vt 0.344529 0.296992 0.000000
vt 0.336170 0.364090 0.000000
vt 0.351616 0.242780 0.000000
vt 0.356122 0.209978 0.000000
vt 0.357886 0.199044 0.000000
vt 0.360663 0.182978 0.000000
vt 0.362578 0.166082 0.000000
vt 0.366257 0.138071 0.000000
vt 0.369165 0.129304 0.000000
vt 0.370405 0.118867 0.000000
vt 0.370381 0.109906 0.000000
vt 0.266437 0.280463 0.000000
vt 0.253703 0.347470 0.000000
vt 0.277268 0.226445 0.000000
vt 0.284142 0.193879 0.000000
vt 0.286708 0.183100 0.000000
vt 0.290667 0.167269 0.000000
vt 0.293829 0.150540 0.000000
vt 0.299579 0.122886 0.000000
vt 0.303126 0.114434 0.000000
vt 0.305132 0.104159 0.000000
vt 0.305768 0.095239 0.000000
vt 0.188465 0.256936 0.000000
vt 0.171301 0.323921 0.000000
vt 0.203212 0.202978 0.000000
vt 0.212690 0.170605 0.000000
vt 0.216165 0.160061 0.000000
vt 0.221472 0.144545 0.000000
vt 0.226067 0.128079 0.000000
vt 0.234223 0.100970 0.000000
vt 0.238490 0.092979 0.000000
vt 0.241378 0.083006 0.000000
vt 0.242787 0.074239 0.000000
vt 0.110271 0.226334 0.000000
vt 0.088927 0.293479 0.000000
vt 0.128823 0.171839 0.000000
vt 0.141117 0.139022 0.000000
vt 0.145717 0.128699 0.000000
vt 0.152807 0.113392 0.000000
vt 0.159358 0.097158 0.000000
vt 0.171012 0.070863 0.000000
vt 0.176276 0.063594 0.000000
vt 0.180407 0.054137 0.000000
vt 0.182917 0.045700 0.000000
vt 0.031280 0.189603 0.000000
vt 0.006595 0.256857 0.000000
vt 0.052296 0.133727 0.000000
vt 0.065770 0.097937 0.000000
vt 0.071015 0.084323 0.000000
vt 0.081482 0.067147 0.000000
vt 0.093448 0.050943 0.000000
vt 0.112746 0.028509 0.000000
vt 0.118368 0.021203 0.000000
vt 0.124421 0.012807 0.000000
vt 0.129101 0.005479 0.000000
vt 0.891795 0.226517 0.000000
vt 0.970680 0.189767 0.000000
vt 0.995575 0.256857 0.000000
vt 0.913343 0.293508 0.000000
vt 0.873168 0.172146 0.000000
vt 0.949563 0.134004 0.000000
vt 0.861051 0.139366 0.000000
vt 0.936198 0.098252 0.000000
vt 0.857004 0.128808 0.000000
vt 0.931520 0.084430 0.000000
vt 0.851043 0.112906 0.000000
vt 0.922141 0.066445 0.000000
vt 0.843669 0.097119 0.000000
vt 0.909352 0.051007 0.000000
vt 0.831568 0.071170 0.000000
vt 0.889372 0.029470 0.000000
vt 0.829322 0.062173 0.000000
vt 0.886812 0.020283 0.000000
vt 0.824875 0.052984 0.000000
vt 0.880531 0.012215 0.000000
vt 0.820217 0.045907 0.000000
vt 0.874146 0.006939 0.000000
vt 0.813700 0.257093 0.000000
vt 0.831057 0.323953 0.000000
vt 0.798899 0.203225 0.000000
vt 0.789610 0.170847 0.000000
vt 0.786671 0.160111 0.000000
vt 0.782487 0.144172 0.000000
vt 0.777119 0.128015 0.000000
vt 0.768593 0.101088 0.000000
vt 0.767496 0.091839 0.000000
vt 0.764232 0.082045 0.000000
vt 0.760491 0.074248 0.000000
vt 0.438133 0.723783 0.000000
vt 0.503833 0.739825 0.000000
vt 0.552710 0.786566 0.000000
vt 0.326474 0.791618 0.000000
vt 0.571667 0.851484 0.000000
vt 0.555627 0.917183 0.000000
vt 0.443967 0.985018 0.000000
vt 0.508885 0.966060 0.000000
vt 0.378268 0.968977 0.000000
vt 0.329391 0.922235 0.000000
vt 0.310432 0.857317 0.000000
vt 0.373215 0.742741 0.000000
vt 0.940614 0.735758 0.000000
vt 0.976332 0.770207 0.000000
vt 0.990040 0.817900 0.000000
vt 0.844766 0.737492 0.000000
vt 0.978065 0.866056 0.000000
vt 0.943617 0.901774 0.000000
vt 0.847768 0.903507 0.000000
vt 0.895925 0.915482 0.000000
vt 0.812050 0.869058 0.000000
vt 0.798342 0.821367 0.000000
vt 0.810317 0.773209 0.000000
vt 0.892458 0.723783 0.000000
# 167 texture coords

g Pillar_Round_B_Base
usemtl 10___Default
s 1
f 1/1/1 2/2/2 3/3/3 4/4/4 
f 5/5/5 6/6/6 2/2/2 1/1/1 
f 7/7/7 8/8/8 6/6/6 5/5/5 
f 9/9/9 10/10/10 8/8/8 7/7/7 
f 11/11/11 12/12/12 10/10/10 9/9/9 
f 13/13/13 14/14/14 12/12/12 11/11/11 
f 15/15/15 16/16/16 14/14/14 13/13/13 
f 17/17/17 18/18/18 16/16/16 15/15/15 
f 19/19/19 20/20/20 18/18/18 17/17/17 
f 21/21/21 22/22/22 20/20/20 19/19/19 
f 23/23/23 1/1/1 4/4/4 24/24/24 
f 25/25/25 5/5/5 1/1/1 23/23/23 
f 26/26/26 7/7/7 5/5/5 25/25/25 
f 27/27/27 9/9/9 7/7/7 26/26/26 
f 28/28/28 11/11/11 9/9/9 27/27/27 
f 29/29/29 13/13/13 11/11/11 28/28/28 
f 30/30/30 15/15/15 13/13/13 29/29/29 
f 31/31/31 17/17/17 15/15/15 30/30/30 
f 32/32/32 19/19/19 17/17/17 31/31/31 
f 33/33/33 21/21/21 19/19/19 32/32/32 
f 34/34/34 23/23/23 24/24/24 35/35/35 
f 36/36/36 25/25/25 23/23/23 34/34/34 
f 37/37/37 26/26/26 25/25/25 36/36/36 
f 38/38/38 27/27/27 26/26/26 37/37/37 
f 39/39/39 28/28/28 27/27/27 38/38/38 
f 40/40/40 29/29/29 28/28/28 39/39/39 
f 41/41/41 30/30/30 29/29/29 40/40/40 
f 42/42/42 31/31/31 30/30/30 41/41/41 
f 43/43/43 32/32/32 31/31/31 42/42/42 
f 44/44/44 33/33/33 32/32/32 43/43/43 
f 45/45/45 34/34/34 35/35/35 46/46/46 
f 47/47/47 36/36/36 34/34/34 45/45/45 
f 48/48/48 37/37/37 36/36/36 47/47/47 
f 49/49/49 38/38/38 37/37/37 48/48/48 
f 50/50/50 39/39/39 38/38/38 49/49/49 
f 51/51/51 40/40/40 39/39/39 50/50/50 
f 52/52/52 41/41/41 40/40/40 51/51/51 
f 53/53/53 42/42/42 41/41/41 52/52/52 
f 54/54/54 43/43/43 42/42/42 53/53/53 
f 55/55/55 44/44/44 43/43/43 54/54/54 
f 56/56/56 45/45/45 46/46/46 57/57/57 
f 58/58/58 47/47/47 45/45/45 56/56/56 
f 59/59/59 48/48/48 47/47/47 58/58/58 
f 60/60/60 49/49/49 48/48/48 59/59/59 
f 61/61/61 50/50/50 49/49/49 60/60/60 
f 62/62/62 51/51/51 50/50/50 61/61/61 
f 63/63/63 52/52/52 51/51/51 62/62/62 
f 64/64/64 53/53/53 52/52/52 63/63/63 
f 65/65/65 54/54/54 53/53/53 64/64/64 
f 66/66/66 55/55/55 54/54/54 65/65/65 
f 67/67/67 56/56/56 57/57/57 68/68/68 
f 69/69/69 58/58/58 56/56/56 67/67/67 
f 70/70/70 59/59/59 58/58/58 69/69/69 
f 71/71/71 60/60/60 59/59/59 70/70/70 
f 72/72/72 61/61/61 60/60/60 71/71/71 
f 73/73/73 62/62/62 61/61/61 72/72/72 
f 74/74/74 63/63/63 62/62/62 73/73/73 
f 75/75/75 64/64/64 63/63/63 74/74/74 
f 76/76/76 65/65/65 64/64/64 75/75/75 
f 77/77/77 66/66/66 65/65/65 76/76/76 
f 78/78/78 67/67/67 68/68/68 79/79/79 
f 80/80/80 69/69/69 67/67/67 78/78/78 
f 81/81/81 70/70/70 69/69/69 80/80/80 
f 82/82/82 71/71/71 70/70/70 81/81/81 
f 83/83/83 72/72/72 71/71/71 82/82/82 
f 84/84/84 73/73/73 72/72/72 83/83/83 
f 85/85/85 74/74/74 73/73/73 84/84/84 
f 86/86/86 75/75/75 74/74/74 85/85/85 
f 87/87/87 76/76/76 75/75/75 86/86/86 
f 88/88/88 77/77/77 76/76/76 87/87/87 
f 89/89/89 78/78/78 79/79/79 90/90/90 
f 91/91/91 80/80/80 78/78/78 89/89/89 
f 92/92/92 81/81/81 80/80/80 91/91/91 
f 93/93/93 82/82/82 81/81/81 92/92/92 
f 94/94/94 83/83/83 82/82/82 93/93/93 
f 95/95/95 84/84/84 83/83/83 94/94/94 
f 96/96/96 85/85/85 84/84/84 95/95/95 
f 97/97/97 86/86/86 85/85/85 96/96/96 
f 98/98/98 87/87/87 86/86/86 97/97/97 
f 99/99/99 88/88/88 87/87/87 98/98/98 
f 100/100/100 89/89/89 90/90/90 101/101/101 
f 102/102/102 91/91/91 89/89/89 100/100/100 
f 103/103/103 92/92/92 91/91/91 102/102/102 
f 104/104/104 93/93/93 92/92/92 103/103/103 
f 105/105/105 94/94/94 93/93/93 104/104/104 
f 106/106/106 95/95/95 94/94/94 105/105/105 
f 107/107/107 96/96/96 95/95/95 106/106/106 
f 108/108/108 97/97/97 96/96/96 107/107/107 
f 109/109/109 98/98/98 97/97/97 108/108/108 
f 110/110/110 99/99/99 98/98/98 109/109/109 
f 111/111/111 100/112/100 101/113/101 112/114/112 
f 113/115/113 102/116/102 100/112/100 111/111/111 
f 114/117/114 103/118/103 102/116/102 113/115/113 
f 115/119/115 104/120/104 103/118/103 114/117/114 
f 116/121/116 105/122/105 104/120/104 115/119/115 
f 117/123/117 106/124/106 105/122/105 116/121/116 
f 118/125/118 107/126/107 106/124/106 117/123/117 
f 119/127/119 108/128/108 107/126/107 118/125/118 
f 120/129/120 109/130/109 108/128/108 119/127/119 
f 121/131/121 110/132/110 109/130/109 120/129/120 
f 122/133/122 111/111/111 112/114/112 123/134/123 
f 124/135/124 113/115/113 111/111/111 122/133/122 
f 125/136/125 114/117/114 113/115/113 124/135/124 
f 126/137/126 115/119/115 114/117/114 125/136/125 
f 127/138/127 116/121/116 115/119/115 126/137/126 
f 128/139/128 117/123/117 116/121/116 127/138/127 
f 129/140/129 118/125/118 117/123/117 128/139/128 
f 130/141/130 119/127/119 118/125/118 129/140/129 
f 131/142/131 120/129/120 119/127/119 130/141/130 
f 132/143/132 121/131/121 120/129/120 131/142/131 
f 2/2/2 122/133/122 123/134/123 3/3/3 
f 6/6/6 124/135/124 122/133/122 2/2/2 
f 8/8/8 125/136/125 124/135/124 6/6/6 
f 10/10/10 126/137/126 125/136/125 8/8/8 
f 12/12/12 127/138/127 126/137/126 10/10/10 
f 14/14/14 128/139/128 127/138/127 12/12/12 
f 16/16/16 129/140/129 128/139/128 14/14/14 
f 18/18/18 130/141/130 129/140/129 16/16/16 
f 20/20/20 131/142/131 130/141/130 18/18/18 
f 22/22/22 132/143/132 131/142/131 20/20/20 
s 2
f 35/144/133 24/145/134 4/146/133 57/147/135 
f 4/146/133 3/148/136 123/149/135 101/150/133 
f 123/149/135 112/151/137 101/150/133 
f 101/150/133 90/152/134 79/153/133 57/147/135 
f 79/153/133 68/154/136 57/147/135 
f 4/146/133 101/150/133 57/147/135 
f 35/144/133 57/147/135 46/155/137 
f 121/156/138 132/157/138 22/158/138 99/159/138 
f 22/158/138 21/160/138 33/161/138 55/162/138 
f 33/161/138 44/163/138 55/162/138 
f 55/162/138 66/164/138 77/165/138 99/159/138 
f 77/165/138 88/166/138 99/159/138 
f 22/158/138 55/162/138 99/159/138 
f 121/156/138 99/159/138 110/167/138 
# 126 polygons - 8 triangles

