# 3ds Max Wavefront OBJ Exporter v0.97b - (c)2007 guruware
# File Created: 29.10.2015 16:58:12

mtllib Pillar_05_Round_B_Column.mtl

#
# object Pillar_05_Round_B_Column
#

v  -36.398628 67.152710 -0.000011
v  -31.532772 67.152710 18.159641
v  -32.153255 76.197632 18.517881
v  -37.115097 76.197632 -0.000008
v  -33.873161 78.646759 19.510872
v  -39.101074 78.646759 -0.000005
v  -35.082214 83.318420 20.208920
v  -40.497173 83.318420 -0.000003
v  -36.490311 93.445709 21.021887
v  -42.123104 93.445709 -0.000002
v  -38.072174 111.396866 21.935179
v  -43.949677 111.396866 -0.000001
v  -41.076569 171.204712 23.669771
v  -47.418854 171.204712 0.000005
v  -41.460163 225.825867 23.891247
v  -47.861794 225.825867 0.000012
v  -40.010017 275.401245 23.054014
v  -46.187309 275.401215 0.000021
v  -37.513199 320.071655 21.612484
v  -43.304237 320.071655 0.000031
v  -34.756771 359.977997 20.021072
v  -40.121395 359.977997 0.000040
v  -32.527805 395.261230 18.734188
v  -37.547607 395.261230 0.000049
v  -31.613361 426.062073 18.206242
v  -36.491703 426.062073 0.000055
v  -18.238991 67.152710 31.453436
v  -18.597225 76.197632 32.073917
v  -19.590210 78.646759 33.793827
v  -20.288260 83.318420 35.002884
v  -21.101223 93.445709 36.410980
v  -22.014511 111.396866 37.992844
v  -23.749100 171.204712 40.997242
v  -23.970566 225.825867 41.380844
v  -23.133320 275.401245 39.930710
v  -21.691776 320.071655 37.433899
v  -20.100351 359.977997 34.677479
v  -18.813454 395.261230 32.448524
v  -18.285500 426.062073 31.534090
v  -0.079344 67.152710 36.319305
v  -0.079342 76.197632 37.035778
v  -0.079340 78.646759 39.021755
v  -0.079338 83.318420 40.417854
v  -0.079338 93.445709 42.043785
v  -0.079338 111.396881 43.870361
v  -0.079336 171.204712 47.339542
v  -0.079334 225.825867 47.782486
v  -0.079329 275.401245 46.108009
v  -0.079323 320.071655 43.224937
v  -0.079317 359.977997 40.042095
v  -0.079311 395.261230 37.468315
v  -0.079308 426.062073 36.412411
v  18.080311 67.152710 31.453455
v  18.438549 76.197632 32.073933
v  19.431538 78.646759 33.793839
v  20.129589 83.318420 35.002899
v  20.942554 93.445709 36.410992
v  21.855843 111.396866 37.992855
v  23.590431 171.204712 40.997253
v  23.811905 225.825867 41.380856
v  22.974667 275.401245 39.930710
v  21.533134 320.071655 37.433899
v  19.941719 359.977997 34.677471
v  18.654831 395.261230 32.448509
v  18.126881 426.062073 31.534073
v  31.374104 67.152710 18.159676
v  31.994587 76.197632 18.517910
v  33.714493 78.646759 19.510897
v  34.923550 83.318420 20.208946
v  36.331646 93.445709 21.021910
v  37.913509 111.396866 21.935200
v  40.917904 171.204712 23.669794
v  41.301502 225.825867 23.891262
v  39.851357 275.401245 23.054022
v  37.354546 320.071655 21.612482
v  34.598125 359.977997 20.021061
v  32.369167 395.261230 18.734165
v  31.454727 426.062073 18.206213
v  36.239975 67.152710 0.000023
v  36.956448 76.197632 0.000021
v  38.942425 78.646759 0.000018
v  40.338520 83.318420 0.000018
v  41.964451 93.445709 0.000018
v  43.791027 111.396866 0.000019
v  47.260204 171.204712 0.000023
v  47.703144 225.825867 0.000024
v  46.028660 275.401215 0.000023
v  43.145588 320.071655 0.000021
v  39.962742 359.977997 0.000019
v  37.388958 395.261230 0.000017
v  36.333050 426.062073 0.000016
v  31.374119 67.152710 -18.159626
v  31.994602 76.197632 -18.517864
v  33.714504 78.646759 -19.510855
v  34.923561 83.318420 -20.208904
v  36.331654 93.445709 -21.021868
v  37.913517 111.396866 -21.935154
v  40.917912 171.204712 -23.669739
v  41.301510 225.825851 -23.891207
v  39.851360 275.401215 -23.053965
v  37.354542 320.071625 -21.612431
v  34.598118 359.977997 -20.021011
v  32.369148 395.261230 -18.734119
v  31.454708 426.062073 -18.206165
v  18.080338 67.152710 -31.453421
v  18.438572 76.197632 -32.073906
v  19.431557 78.646759 -33.793816
v  20.129604 83.318420 -35.002869
v  20.942570 93.445709 -36.410965
v  21.855854 111.396866 -37.992825
v  23.590443 171.204697 -40.997219
v  23.811909 225.825851 -41.380806
v  22.974667 275.401215 -39.930660
v  21.533123 320.071625 -37.433846
v  19.941696 359.977997 -34.677425
v  18.654800 395.261230 -32.448460
v  18.126842 426.062073 -31.534016
v  -0.079309 67.152710 -36.319294
v  -0.079311 76.197632 -37.035767
v  -0.079313 78.646759 -39.021744
v  -0.079315 83.318420 -40.417839
v  -0.079315 93.445709 -42.043770
v  -0.079315 111.396851 -43.870342
v  -0.079315 171.204697 -47.339516
v  -0.079319 225.825851 -47.782448
v  -0.079325 275.401215 -46.107964
v  -0.079330 320.071625 -43.224884
v  -0.079336 359.977997 -40.042042
v  -0.079342 395.261200 -37.468250
v  -0.079344 426.062073 -36.412346
v  -18.238956 67.152710 -31.453440
v  -18.597195 76.197632 -32.073925
v  -19.590187 78.646759 -33.793827
v  -20.288235 83.318420 -35.002884
v  -21.101200 93.445709 -36.410980
v  -22.014488 111.396866 -37.992836
v  -23.749077 171.204697 -40.997231
v  -23.970551 225.825851 -41.380814
v  -23.133312 275.401215 -39.930664
v  -21.691780 320.071625 -37.433846
v  -20.100365 359.977997 -34.677418
v  -18.813477 395.261230 -32.448444
v  -18.285526 426.062073 -31.533998
v  -31.532761 67.152710 -18.159651
v  -32.153244 76.197632 -18.517883
v  -33.873154 78.646759 -19.510868
v  -35.082207 83.318420 -20.208916
v  -36.490307 93.445709 -21.021879
v  -38.072166 111.396866 -21.935163
v  -41.076561 171.204712 -23.669746
v  -41.460159 225.825851 -23.891209
v  -40.010017 275.401215 -23.053957
v  -37.513206 320.071625 -21.612415
v  -34.756783 359.977997 -20.020985
v  -32.527824 395.261230 -18.734085
v  -31.613384 426.062073 -18.206127
# 156 vertices

vn -0.996877 -0.078965 -0.000001
vn -0.863321 -0.078965 0.498438
vn -0.797776 -0.389107 0.460596
vn -0.921193 -0.389107 -0.000000
vn -0.771535 -0.454215 0.445446
vn -0.890892 -0.454216 -0.000000
vn -0.844692 -0.220591 0.487683
vn -0.975366 -0.220592 -0.000000
vn -0.858753 -0.129320 0.495801
vn -0.991603 -0.129320 -0.000000
vn -0.863298 -0.079305 0.498425
vn -0.996850 -0.079305 -0.000000
vn -0.865557 -0.032884 0.499729
vn -0.999459 -0.032884 -0.000000
vn -0.865955 0.012783 0.499959
vn -0.999918 0.012783 -0.000000
vn -0.864987 0.048964 0.499400
vn -0.998801 0.048964 -0.000000
vn -0.863786 0.071869 0.498707
vn -0.997414 0.071869 0.000000
vn -0.863509 0.076172 0.498548
vn -0.997095 0.076172 0.000000
vn -0.864776 0.053688 0.499279
vn -0.998558 0.053688 0.000000
vn -0.865517 0.034262 0.499707
vn -0.999413 0.034262 0.000001
vn -0.498439 -0.078965 0.863321
vn -0.460597 -0.389107 0.797776
vn -0.445446 -0.454216 0.771535
vn -0.487683 -0.220592 0.844692
vn -0.495802 -0.129320 0.858753
vn -0.498425 -0.079305 0.863298
vn -0.499730 -0.032884 0.865557
vn -0.499959 0.012783 0.865955
vn -0.499400 0.048964 0.864987
vn -0.498707 0.071869 0.863786
vn -0.498547 0.076172 0.863509
vn -0.499278 0.053688 0.864777
vn -0.499706 0.034261 0.865517
vn -0.000000 -0.078965 0.996877
vn -0.000000 -0.389107 0.921193
vn -0.000000 -0.454216 0.890892
vn -0.000000 -0.220592 0.975366
vn -0.000000 -0.129320 0.991603
vn -0.000000 -0.079305 0.996850
vn -0.000000 -0.032884 0.999459
vn -0.000000 0.012783 0.999918
vn -0.000000 0.048964 0.998801
vn -0.000000 0.071869 0.997414
vn 0.000000 0.076172 0.997095
vn 0.000000 0.053688 0.998558
vn 0.000000 0.034261 0.999413
vn 0.498438 -0.078965 0.863321
vn 0.460596 -0.389106 0.797777
vn 0.445446 -0.454216 0.771535
vn 0.487683 -0.220592 0.844692
vn 0.495801 -0.129320 0.858754
vn 0.498425 -0.079305 0.863298
vn 0.499729 -0.032884 0.865557
vn 0.499959 0.012783 0.865955
vn 0.499400 0.048964 0.864987
vn 0.498707 0.071869 0.863786
vn 0.498547 0.076172 0.863509
vn 0.499279 0.053688 0.864776
vn 0.499707 0.034261 0.865517
vn 0.863321 -0.078965 0.498439
vn 0.797776 -0.389106 0.460597
vn 0.771535 -0.454216 0.445446
vn 0.844692 -0.220592 0.487683
vn 0.858753 -0.129320 0.495802
vn 0.863298 -0.079305 0.498425
vn 0.865557 -0.032884 0.499730
vn 0.865955 0.012783 0.499959
vn 0.864987 0.048964 0.499400
vn 0.863786 0.071869 0.498707
vn 0.863509 0.076172 0.498547
vn 0.864777 0.053688 0.499279
vn 0.865517 0.034262 0.499706
vn 0.996877 -0.078965 0.000000
vn 0.921193 -0.389107 0.000000
vn 0.890892 -0.454215 0.000000
vn 0.975366 -0.220591 0.000000
vn 0.991603 -0.129320 0.000000
vn 0.996850 -0.079305 0.000000
vn 0.999459 -0.032884 0.000000
vn 0.999918 0.012783 0.000000
vn 0.998801 0.048964 -0.000000
vn 0.997414 0.071869 -0.000000
vn 0.997095 0.076172 -0.000000
vn 0.998558 0.053688 -0.000001
vn 0.999413 0.034262 -0.000001
vn 0.863321 -0.078965 -0.498438
vn 0.797777 -0.389106 -0.460596
vn 0.771535 -0.454215 -0.445446
vn 0.844692 -0.220592 -0.487683
vn 0.858754 -0.129320 -0.495801
vn 0.863298 -0.079305 -0.498425
vn 0.865557 -0.032884 -0.499729
vn 0.865955 0.012783 -0.499959
vn 0.864987 0.048964 -0.499400
vn 0.863786 0.071869 -0.498707
vn 0.863509 0.076172 -0.498548
vn 0.864776 0.053688 -0.499279
vn 0.865517 0.034262 -0.499707
vn 0.498439 -0.078965 -0.863321
vn 0.460597 -0.389107 -0.797776
vn 0.445446 -0.454215 -0.771535
vn 0.487683 -0.220591 -0.844692
vn 0.495802 -0.129320 -0.858753
vn 0.498425 -0.079305 -0.863298
vn 0.499730 -0.032884 -0.865557
vn 0.499959 0.012783 -0.865955
vn 0.499400 0.048964 -0.864987
vn 0.498707 0.071869 -0.863786
vn 0.498547 0.076172 -0.863509
vn 0.499279 0.053688 -0.864777
vn 0.499706 0.034262 -0.865517
vn 0.000001 -0.078965 -0.996877
vn 0.000000 -0.389107 -0.921193
vn 0.000000 -0.454215 -0.890892
vn 0.000000 -0.220591 -0.975366
vn 0.000000 -0.129320 -0.991603
vn 0.000000 -0.079305 -0.996850
vn 0.000000 -0.032884 -0.999459
vn 0.000000 0.012783 -0.999918
vn 0.000000 0.048964 -0.998801
vn -0.000000 0.071869 -0.997414
vn -0.000000 0.076172 -0.997095
vn -0.000000 0.053688 -0.998558
vn -0.000001 0.034262 -0.999413
vn -0.498438 -0.078966 -0.863321
vn -0.460596 -0.389107 -0.797777
vn -0.445446 -0.454215 -0.771535
vn -0.487683 -0.220592 -0.844692
vn -0.495801 -0.129320 -0.858754
vn -0.498425 -0.079305 -0.863298
vn -0.499729 -0.032884 -0.865557
vn -0.499959 0.012783 -0.865955
vn -0.499400 0.048964 -0.864987
vn -0.498707 0.071869 -0.863786
vn -0.498548 0.076172 -0.863509
vn -0.499279 0.053688 -0.864776
vn -0.499707 0.034262 -0.865517
vn -0.863321 -0.078965 -0.498439
vn -0.797776 -0.389107 -0.460597
vn -0.771535 -0.454215 -0.445446
vn -0.844692 -0.220591 -0.487683
vn -0.858753 -0.129320 -0.495802
vn -0.863298 -0.079305 -0.498425
vn -0.865557 -0.032884 -0.499730
vn -0.865955 0.012783 -0.499959
vn -0.864987 0.048964 -0.499400
vn -0.863786 0.071869 -0.498707
vn -0.863510 0.076172 -0.498547
vn -0.864777 0.053688 -0.499278
vn -0.865517 0.034262 -0.499706
vn 0.000000 -1.000000 -0.000000
vn 0.000000 1.000000 -0.000000
# 158 vertex normals

vt 0.248108 0.003285 0.000000
vt 0.331584 0.003285 0.000000
vt 0.331584 0.020350 0.000000
vt 0.248108 0.020350 0.000000
vt 0.331584 0.029867 0.000000
vt 0.248108 0.029867 0.000000
vt 0.331584 0.047562 0.000000
vt 0.248108 0.047562 0.000000
vt 0.331584 0.080185 0.000000
vt 0.248108 0.080185 0.000000
vt 0.331584 0.168027 0.000000
vt 0.248108 0.168027 0.000000
vt 0.331584 0.296814 0.000000
vt 0.248108 0.296814 0.000000
vt 0.331584 0.414790 0.000000
vt 0.248108 0.414790 0.000000
vt 0.331584 0.522201 0.000000
vt 0.248108 0.522201 0.000000
vt 0.331584 0.619129 0.000000
vt 0.248108 0.619129 0.000000
vt 0.331584 0.705616 0.000000
vt 0.248108 0.705616 0.000000
vt 0.331584 0.781633 0.000000
vt 0.248108 0.781633 0.000000
vt 0.331584 0.852433 0.000000
vt 0.248108 0.852433 0.000000
vt 0.415368 0.003285 0.000000
vt 0.415368 0.020350 0.000000
vt 0.415368 0.029867 0.000000
vt 0.415368 0.047562 0.000000
vt 0.415368 0.080185 0.000000
vt 0.415368 0.168027 0.000000
vt 0.415368 0.296814 0.000000
vt 0.415368 0.414790 0.000000
vt 0.415368 0.522201 0.000000
vt 0.415368 0.619129 0.000000
vt 0.415368 0.705616 0.000000
vt 0.415368 0.781633 0.000000
vt 0.415368 0.852433 0.000000
vt 0.499292 0.003285 0.000000
vt 0.499292 0.020350 0.000000
vt 0.499292 0.029867 0.000000
vt 0.499292 0.047562 0.000000
vt 0.499292 0.080185 0.000000
vt 0.499292 0.168027 0.000000
vt 0.499292 0.296814 0.000000
vt 0.499292 0.414790 0.000000
vt 0.499292 0.522201 0.000000
vt 0.499292 0.619129 0.000000
vt 0.499292 0.705616 0.000000
vt 0.499292 0.781633 0.000000
vt 0.499292 0.852433 0.000000
vt 0.583205 0.003285 0.000000
vt 0.583205 0.020350 0.000000
vt 0.583205 0.029867 0.000000
vt 0.583205 0.047562 0.000000
vt 0.583205 0.080185 0.000000
vt 0.583205 0.168027 0.000000
vt 0.583205 0.296814 0.000000
vt 0.583205 0.414790 0.000000
vt 0.583205 0.522201 0.000000
vt 0.583205 0.619129 0.000000
vt 0.583205 0.705616 0.000000
vt 0.583205 0.781633 0.000000
vt 0.583205 0.852433 0.000000
vt 0.666959 0.003285 0.000000
vt 0.666959 0.020350 0.000000
vt 0.666959 0.029867 0.000000
vt 0.666959 0.047562 0.000000
vt 0.666959 0.080185 0.000000
vt 0.666959 0.168027 0.000000
vt 0.666959 0.296814 0.000000
vt 0.666959 0.414790 0.000000
vt 0.666959 0.522201 0.000000
vt 0.666959 0.619129 0.000000
vt 0.666959 0.705616 0.000000
vt 0.666959 0.781633 0.000000
vt 0.666959 0.852433 0.000000
vt 0.750390 0.003285 0.000000
vt 0.750390 0.020350 0.000000
vt 0.750390 0.029867 0.000000
vt 0.750390 0.047562 0.000000
vt 0.750390 0.080185 0.000000
vt 0.750390 0.168027 0.000000
vt 0.750390 0.296814 0.000000
vt 0.750390 0.414790 0.000000
vt 0.750390 0.522201 0.000000
vt 0.750390 0.619129 0.000000
vt 0.750390 0.705616 0.000000
vt 0.750390 0.781633 0.000000
vt 0.750390 0.852433 0.000000
vt 0.833310 0.003285 0.000000
vt 0.833310 0.020350 0.000000
vt 0.833310 0.029867 0.000000
vt 0.833310 0.047562 0.000000
vt 0.833310 0.080185 0.000000
vt 0.833310 0.168027 0.000000
vt 0.833310 0.296814 0.000000
vt 0.833310 0.414790 0.000000
vt 0.833310 0.522201 0.000000
vt 0.833310 0.619129 0.000000
vt 0.833310 0.705616 0.000000
vt 0.833310 0.781633 0.000000
vt 0.833310 0.852433 0.000000
vt 0.915534 0.003285 0.000000
vt 0.915534 0.020350 0.000000
vt 0.915534 0.029867 0.000000
vt 0.915534 0.047562 0.000000
vt 0.915534 0.080185 0.000000
vt 0.915534 0.168027 0.000000
vt 0.915534 0.296814 0.000000
vt 0.915534 0.414790 0.000000
vt 0.915534 0.522201 0.000000
vt 0.915534 0.619129 0.000000
vt 0.915534 0.705616 0.000000
vt 0.915534 0.781633 0.000000
vt 0.915534 0.852433 0.000000
vt 0.998721 0.003285 0.000000
vt 0.998721 0.020350 0.000000
vt 0.998721 0.029867 0.000000
vt 0.998721 0.047562 0.000000
vt 0.998721 0.080185 0.000000
vt 0.998721 0.168027 0.000000
vt 0.998721 0.296814 0.000000
vt 0.998721 0.414790 0.000000
vt 0.998721 0.522201 0.000000
vt 0.998721 0.619129 0.000000
vt 0.998721 0.705616 0.000000
vt 0.998721 0.781633 0.000000
vt 0.998721 0.852433 0.000000
vt 0.002000 0.003285 0.000000
vt 0.082858 0.003285 0.000000
vt 0.082858 0.020350 0.000000
vt 0.002000 0.020350 0.000000
vt 0.082858 0.029867 0.000000
vt 0.002000 0.029867 0.000000
vt 0.082858 0.047562 0.000000
vt 0.002000 0.047562 0.000000
vt 0.082858 0.080185 0.000000
vt 0.002000 0.080185 0.000000
vt 0.082858 0.168027 0.000000
vt 0.002000 0.168027 0.000000
vt 0.082858 0.296814 0.000000
vt 0.002000 0.296814 0.000000
vt 0.082858 0.414790 0.000000
vt 0.002000 0.414790 0.000000
vt 0.082858 0.522201 0.000000
vt 0.002000 0.522201 0.000000
vt 0.082858 0.619129 0.000000
vt 0.002000 0.619129 0.000000
vt 0.082858 0.705616 0.000000
vt 0.002000 0.705616 0.000000
vt 0.082858 0.781633 0.000000
vt 0.002000 0.781633 0.000000
vt 0.082858 0.852433 0.000000
vt 0.002000 0.852433 0.000000
vt 0.165135 0.003285 0.000000
vt 0.165135 0.020350 0.000000
vt 0.165135 0.029867 0.000000
vt 0.165135 0.047562 0.000000
vt 0.165135 0.080185 0.000000
vt 0.165135 0.168027 0.000000
vt 0.165135 0.296814 0.000000
vt 0.165135 0.414790 0.000000
vt 0.165135 0.522201 0.000000
vt 0.165135 0.619129 0.000000
vt 0.165135 0.705616 0.000000
vt 0.165135 0.781633 0.000000
vt 0.165135 0.852433 0.000000
vt 0.007339 0.906967 0.000000
vt 0.024572 0.877119 0.000000
vt 0.054419 0.859886 0.000000
vt 0.024572 0.971278 0.000000
vt 0.088884 0.859886 0.000000
vt 0.118732 0.877119 0.000000
vt 0.135964 0.941431 0.000000
vt 0.135964 0.906966 0.000000
vt 0.118732 0.971278 0.000000
vt 0.088884 0.988511 0.000000
vt 0.054420 0.988511 0.000000
vt 0.007339 0.941431 0.000000
vt 0.878640 0.879408 0.000000
vt 0.908564 0.862132 0.000000
vt 0.943117 0.862132 0.000000
vt 0.861364 0.943885 0.000000
vt 0.973041 0.879408 0.000000
vt 0.990318 0.909333 0.000000
vt 0.973041 0.973809 0.000000
vt 0.990318 0.943885 0.000000
vt 0.943117 0.991086 0.000000
vt 0.908564 0.991086 0.000000
vt 0.878640 0.973809 0.000000
vt 0.861364 0.909332 0.000000
# 193 texture coords

g Pillar_05_Round_B_Column
usemtl 02___default
s 1
f 1/1/1 2/2/2 3/3/3 4/4/4 
f 4/4/4 3/3/3 5/5/5 6/6/6 
f 6/6/6 5/5/5 7/7/7 8/8/8 
f 8/8/8 7/7/7 9/9/9 10/10/10 
f 10/10/10 9/9/9 11/11/11 12/12/12 
f 12/12/12 11/11/11 13/13/13 14/14/14 
f 14/14/14 13/13/13 15/15/15 16/16/16 
f 16/16/16 15/15/15 17/17/17 18/18/18 
f 18/18/18 17/17/17 19/19/19 20/20/20 
f 20/20/20 19/19/19 21/21/21 22/22/22 
f 22/22/22 21/21/21 23/23/23 24/24/24 
f 24/24/24 23/23/23 25/25/25 26/26/26 
f 2/2/2 27/27/27 28/28/28 3/3/3 
f 3/3/3 28/28/28 29/29/29 5/5/5 
f 5/5/5 29/29/29 30/30/30 7/7/7 
f 7/7/7 30/30/30 31/31/31 9/9/9 
f 9/9/9 31/31/31 32/32/32 11/11/11 
f 11/11/11 32/32/32 33/33/33 13/13/13 
f 13/13/13 33/33/33 34/34/34 15/15/15 
f 15/15/15 34/34/34 35/35/35 17/17/17 
f 17/17/17 35/35/35 36/36/36 19/19/19 
f 19/19/19 36/36/36 37/37/37 21/21/21 
f 21/21/21 37/37/37 38/38/38 23/23/23 
f 23/23/23 38/38/38 39/39/39 25/25/25 
f 27/27/27 40/40/40 41/41/41 28/28/28 
f 28/28/28 41/41/41 42/42/42 29/29/29 
f 29/29/29 42/42/42 43/43/43 30/30/30 
f 30/30/30 43/43/43 44/44/44 31/31/31 
f 31/31/31 44/44/44 45/45/45 32/32/32 
f 32/32/32 45/45/45 46/46/46 33/33/33 
f 33/33/33 46/46/46 47/47/47 34/34/34 
f 34/34/34 47/47/47 48/48/48 35/35/35 
f 35/35/35 48/48/48 49/49/49 36/36/36 
f 36/36/36 49/49/49 50/50/50 37/37/37 
f 37/37/37 50/50/50 51/51/51 38/38/38 
f 38/38/38 51/51/51 52/52/52 39/39/39 
f 40/40/40 53/53/53 54/54/54 41/41/41 
f 41/41/41 54/54/54 55/55/55 42/42/42 
f 42/42/42 55/55/55 56/56/56 43/43/43 
f 43/43/43 56/56/56 57/57/57 44/44/44 
f 44/44/44 57/57/57 58/58/58 45/45/45 
f 45/45/45 58/58/58 59/59/59 46/46/46 
f 46/46/46 59/59/59 60/60/60 47/47/47 
f 47/47/47 60/60/60 61/61/61 48/48/48 
f 48/48/48 61/61/61 62/62/62 49/49/49 
f 49/49/49 62/62/62 63/63/63 50/50/50 
f 50/50/50 63/63/63 64/64/64 51/51/51 
f 51/51/51 64/64/64 65/65/65 52/52/52 
f 53/53/53 66/66/66 67/67/67 54/54/54 
f 54/54/54 67/67/67 68/68/68 55/55/55 
f 55/55/55 68/68/68 69/69/69 56/56/56 
f 56/56/56 69/69/69 70/70/70 57/57/57 
f 57/57/57 70/70/70 71/71/71 58/58/58 
f 58/58/58 71/71/71 72/72/72 59/59/59 
f 59/59/59 72/72/72 73/73/73 60/60/60 
f 60/60/60 73/73/73 74/74/74 61/61/61 
f 61/61/61 74/74/74 75/75/75 62/62/62 
f 62/62/62 75/75/75 76/76/76 63/63/63 
f 63/63/63 76/76/76 77/77/77 64/64/64 
f 64/64/64 77/77/77 78/78/78 65/65/65 
f 66/66/66 79/79/79 80/80/80 67/67/67 
f 67/67/67 80/80/80 81/81/81 68/68/68 
f 68/68/68 81/81/81 82/82/82 69/69/69 
f 69/69/69 82/82/82 83/83/83 70/70/70 
f 70/70/70 83/83/83 84/84/84 71/71/71 
f 71/71/71 84/84/84 85/85/85 72/72/72 
f 72/72/72 85/85/85 86/86/86 73/73/73 
f 73/73/73 86/86/86 87/87/87 74/74/74 
f 74/74/74 87/87/87 88/88/88 75/75/75 
f 75/75/75 88/88/88 89/89/89 76/76/76 
f 76/76/76 89/89/89 90/90/90 77/77/77 
f 77/77/77 90/90/90 91/91/91 78/78/78 
f 79/79/79 92/92/92 93/93/93 80/80/80 
f 80/80/80 93/93/93 94/94/94 81/81/81 
f 81/81/81 94/94/94 95/95/95 82/82/82 
f 82/82/82 95/95/95 96/96/96 83/83/83 
f 83/83/83 96/96/96 97/97/97 84/84/84 
f 84/84/84 97/97/97 98/98/98 85/85/85 
f 85/85/85 98/98/98 99/99/99 86/86/86 
f 86/86/86 99/99/99 100/100/100 87/87/87 
f 87/87/87 100/100/100 101/101/101 88/88/88 
f 88/88/88 101/101/101 102/102/102 89/89/89 
f 89/89/89 102/102/102 103/103/103 90/90/90 
f 90/90/90 103/103/103 104/104/104 91/91/91 
f 92/92/92 105/105/105 106/106/106 93/93/93 
f 93/93/93 106/106/106 107/107/107 94/94/94 
f 94/94/94 107/107/107 108/108/108 95/95/95 
f 95/95/95 108/108/108 109/109/109 96/96/96 
f 96/96/96 109/109/109 110/110/110 97/97/97 
f 97/97/97 110/110/110 111/111/111 98/98/98 
f 98/98/98 111/111/111 112/112/112 99/99/99 
f 99/99/99 112/112/112 113/113/113 100/100/100 
f 100/100/100 113/113/113 114/114/114 101/101/101 
f 101/101/101 114/114/114 115/115/115 102/102/102 
f 102/102/102 115/115/115 116/116/116 103/103/103 
f 103/103/103 116/116/116 117/117/117 104/104/104 
f 105/105/105 118/118/118 119/119/119 106/106/106 
f 106/106/106 119/119/119 120/120/120 107/107/107 
f 107/107/107 120/120/120 121/121/121 108/108/108 
f 108/108/108 121/121/121 122/122/122 109/109/109 
f 109/109/109 122/122/122 123/123/123 110/110/110 
f 110/110/110 123/123/123 124/124/124 111/111/111 
f 111/111/111 124/124/124 125/125/125 112/112/112 
f 112/112/112 125/125/125 126/126/126 113/113/113 
f 113/113/113 126/126/126 127/127/127 114/114/114 
f 114/114/114 127/127/127 128/128/128 115/115/115 
f 115/115/115 128/128/128 129/129/129 116/116/116 
f 116/116/116 129/129/129 130/130/130 117/117/117 
f 118/131/118 131/132/131 132/133/132 119/134/119 
f 119/134/119 132/133/132 133/135/133 120/136/120 
f 120/136/120 133/135/133 134/137/134 121/138/121 
f 121/138/121 134/137/134 135/139/135 122/140/122 
f 122/140/122 135/139/135 136/141/136 123/142/123 
f 123/142/123 136/141/136 137/143/137 124/144/124 
f 124/144/124 137/143/137 138/145/138 125/146/125 
f 125/146/125 138/145/138 139/147/139 126/148/126 
f 126/148/126 139/147/139 140/149/140 127/150/127 
f 127/150/127 140/149/140 141/151/141 128/152/128 
f 128/152/128 141/151/141 142/153/142 129/154/129 
f 129/154/129 142/153/142 143/155/143 130/156/130 
f 131/132/131 144/157/144 145/158/145 132/133/132 
f 132/133/132 145/158/145 146/159/146 133/135/133 
f 133/135/133 146/159/146 147/160/147 134/137/134 
f 134/137/134 147/160/147 148/161/148 135/139/135 
f 135/139/135 148/161/148 149/162/149 136/141/136 
f 136/141/136 149/162/149 150/163/150 137/143/137 
f 137/143/137 150/163/150 151/164/151 138/145/138 
f 138/145/138 151/164/151 152/165/152 139/147/139 
f 139/147/139 152/165/152 153/166/153 140/149/140 
f 140/149/140 153/166/153 154/167/154 141/151/141 
f 141/151/141 154/167/154 155/168/155 142/153/142 
f 142/153/142 155/168/155 156/169/156 143/155/143 
f 144/157/144 1/1/1 4/4/4 145/158/145 
f 145/158/145 4/4/4 6/6/6 146/159/146 
f 146/159/146 6/6/6 8/8/8 147/160/147 
f 147/160/147 8/8/8 10/10/10 148/161/148 
f 148/161/148 10/10/10 12/12/12 149/162/149 
f 149/162/149 12/12/12 14/14/14 150/163/150 
f 150/163/150 14/14/14 16/16/16 151/164/151 
f 151/164/151 16/16/16 18/18/18 152/165/152 
f 152/165/152 18/18/18 20/20/20 153/166/153 
f 153/166/153 20/20/20 22/22/22 154/167/154 
f 154/167/154 22/22/22 24/24/24 155/168/155 
f 155/168/155 24/24/24 26/26/26 156/169/156 
s 2
f 144/170/157 131/171/157 118/172/157 2/173/157 
f 118/172/157 105/174/157 92/175/157 66/176/157 
f 92/175/157 79/177/157 66/176/157 
f 66/176/157 53/178/157 40/179/157 2/173/157 
f 40/179/157 27/180/157 2/173/157 
f 118/172/157 66/176/157 2/173/157 
f 1/181/157 144/170/157 2/173/157 
f 39/182/158 52/183/158 65/184/158 26/185/158 
f 65/184/158 78/186/158 91/187/158 117/188/158 
f 91/187/158 104/189/158 117/188/158 
f 117/188/158 130/190/158 143/191/158 26/185/158 
f 143/191/158 156/192/158 26/185/158 
f 65/184/158 117/188/158 26/185/158 
f 25/193/158 39/182/158 26/185/158 
# 150 polygons - 8 triangles

