# 3ds Max Wavefront OBJ Exporter v0.97b - (c)2007 guruware
# File Created: 29.10.2015 16:58:14

mtllib Pillar_025_Round_B_Top.mtl

#
# object Pillar_025_Round_B_Top
#

v  -28.610493 183.031769 16.472525
v  -33.024292 183.031769 0.000056
v  -36.491703 175.192413 0.000055
v  -31.613361 175.192413 18.206232
v  -31.415026 188.084198 18.091751
v  -36.262684 188.084198 0.000056
v  -35.944466 195.952240 20.678017
v  -41.478428 195.952240 -0.024891
v  -38.197884 203.232147 21.967802
v  -44.074852 203.232147 -0.034592
v  -37.808861 205.744232 21.754404
v  -43.631248 205.744232 -0.024889
v  -34.043968 207.681061 19.538591
v  -39.262848 207.681061 -0.061391
v  -36.014305 209.084747 20.645147
v  -41.522484 209.084747 -0.088251
v  -36.071037 211.225586 20.739397
v  -41.618740 211.225586 -0.034996
v  -34.028347 215.943115 19.607248
v  -39.283646 215.943115 0.005876
v  -34.478878 221.152344 19.829340
v  -39.784866 221.152344 -0.027050
v  -42.944496 231.802582 24.748302
v  -49.575775 231.802582 0.000062
v  -42.929764 250.002045 24.739771
v  -49.558762 250.002045 0.000066
v  -16.551792 183.031769 28.531214
v  -18.285500 175.192413 31.534082
v  -18.170988 188.084198 31.335773
v  -20.800465 195.952240 35.840252
v  -22.107079 203.232147 38.083969
v  -21.876873 205.744232 37.704651
v  -19.724285 207.681061 33.903255
v  -20.877365 209.084747 35.846729
v  -20.879374 211.225586 35.956718
v  -19.676432 215.943115 33.954903
v  -19.955555 221.152344 34.372452
v  -24.827530 231.802582 42.865185
v  -24.819023 250.002045 42.850456
v  -0.079308 183.031769 32.945007
v  -0.079308 175.192413 36.412418
v  -0.079308 188.084198 36.183403
v  -0.104256 195.952240 41.399143
v  -0.113956 203.232147 43.995567
v  -0.104254 205.744232 43.551968
v  -0.140757 207.681091 39.183567
v  -0.167616 209.084747 41.443207
v  -0.114361 211.225616 41.539459
v  -0.073490 215.943146 39.204369
v  -0.106417 221.152344 39.705532
v  -0.079306 231.802582 49.496441
v  -0.079302 250.002045 49.479431
v  16.393173 183.031769 28.531195
v  18.126881 175.192413 31.534063
v  18.012371 188.084198 31.335754
v  20.598637 195.952240 35.865185
v  21.888447 203.232147 38.118599
v  21.675049 205.744232 37.729584
v  19.459236 207.681061 33.964687
v  20.565792 209.084747 35.935020
v  20.660038 211.225586 35.991756
v  19.527889 215.943115 33.949066
v  19.749985 221.152344 34.399544
v  24.668919 231.802582 42.865166
v  24.660412 250.002045 42.850433
v  28.451859 183.031769 16.472494
v  31.454727 175.192413 18.206205
v  31.256390 188.084198 18.091721
v  35.760883 195.952240 20.721199
v  38.004597 203.232147 22.027784
v  37.625278 205.744232 21.797583
v  33.823883 207.681061 19.644995
v  35.767357 209.084747 20.798075
v  35.877346 211.225586 20.800081
v  33.875530 215.943115 19.597139
v  34.293137 221.152344 19.876265
v  42.785862 231.802582 24.748268
v  42.771130 250.002045 24.739737
v  32.865639 183.031769 0.000016
v  36.333050 175.192413 0.000016
v  36.104031 188.084198 0.000016
v  41.319775 195.952240 0.024964
v  43.916195 203.232147 0.034666
v  43.472599 205.744232 0.024964
v  39.104195 207.681061 0.061467
v  41.363834 209.084747 0.088326
v  41.460087 211.225586 0.035072
v  39.124996 215.943115 -0.005799
v  39.626213 221.152344 0.027128
v  49.417118 231.802582 0.000017
v  49.400105 250.002045 0.000016
v  28.451839 183.031769 -16.472467
v  31.454708 175.192413 -18.206175
v  31.256371 188.084198 -18.091637
v  35.785809 195.952240 -20.677906
v  38.039227 203.232147 -21.967741
v  37.650208 205.744232 -21.754343
v  33.885311 207.681061 -19.538530
v  35.855648 209.084747 -20.645086
v  35.912380 211.225586 -20.739332
v  33.869694 215.943115 -19.607183
v  34.320225 221.152344 -19.829275
v  42.785847 231.802582 -24.748184
v  42.771107 250.002045 -24.739702
v  16.393139 183.031769 -28.531157
v  18.126842 175.192413 -31.534025
v  18.012333 188.084198 -31.335659
v  20.641811 195.952240 -35.840164
v  21.948421 203.232147 -38.083881
v  21.718220 205.744232 -37.704559
v  19.565632 207.681061 -33.903164
v  20.718712 209.084747 -35.846634
v  20.720718 211.225586 -35.956623
v  19.517776 215.943115 -33.954811
v  19.796902 221.152344 -34.372471
v  24.668873 231.802582 -42.865200
v  24.660366 250.002045 -42.850464
v  -0.079346 183.031769 -32.944920
v  -0.079344 175.192413 -36.412338
v  -0.079346 188.084198 -36.183315
v  -0.054398 195.952240 -41.399059
v  -0.044697 203.232147 -43.995480
v  -0.054398 205.744232 -43.551876
v  -0.017895 207.681061 -39.183475
v  0.008963 209.084747 -41.443115
v  -0.044292 211.225586 -41.539368
v  -0.085163 215.943115 -39.204277
v  -0.052237 221.152344 -39.705547
v  -0.079348 231.802582 -49.496456
v  -0.079350 250.002045 -49.479439
v  -16.551823 183.031769 -28.531141
v  -18.285526 175.192413 -31.534006
v  -18.171019 188.084198 -31.335644
v  -20.757284 195.952240 -35.865097
v  -22.047092 203.232147 -38.118515
v  -21.833694 205.744232 -37.729492
v  -19.617882 207.681061 -33.964596
v  -20.724442 209.084747 -35.934929
v  -20.818687 211.225586 -35.991661
v  -19.686537 215.943115 -33.948975
v  -19.908630 221.152344 -34.399559
v  -24.827564 231.802582 -42.865177
v  -24.819057 250.002045 -42.850441
v  -28.610516 183.031769 -16.472429
v  -31.613384 175.192413 -18.206137
v  -31.415049 188.084198 -18.091599
v  -35.919540 195.952240 -20.721073
v  -38.163258 203.232147 -22.027712
v  -37.783936 205.744232 -21.797510
v  -33.982544 207.681061 -19.644922
v  -35.926014 209.084747 -20.798002
v  -36.036003 211.225586 -20.800005
v  -34.034187 215.943115 -19.597067
v  -34.451794 221.152344 -19.876188
v  -42.944527 231.802582 -24.748135
v  -42.929794 250.002045 -24.739653
# 156 vertices

vn -0.863005 -0.083439 0.498257
vn -0.996513 -0.083438 0.000001
vn -0.914535 0.404506 0.000001
vn -0.792010 0.404507 0.457268
vn -0.725066 -0.546744 0.418748
vn -0.837300 -0.546744 0.000113
vn -0.778101 -0.439668 0.448610
vn -0.898160 -0.439669 -0.000543
vn -0.863757 -0.080427 0.497449
vn -0.996760 -0.080428 -0.001074
vn -0.704774 0.581131 0.406916
vn -0.813810 0.581131 0.000013
vn -0.863767 0.082028 0.497170
vn -0.996629 0.082029 -0.001322
vn -0.764535 -0.474319 0.436472
vn -0.880343 -0.474319 -0.004271
vn -0.848543 0.197940 0.490708
vn -0.980214 0.197940 0.000694
vn -0.849904 0.189153 0.491816
vn -0.981947 0.189153 0.000973
vn -0.783140 -0.428152 0.450974
vn -0.903706 -0.428152 -0.001016
vn -0.813154 -0.344003 0.469514
vn -0.938969 -0.344003 0.000033
vn -0.866025 0.000935 0.500000
vn -1.000000 0.000935 0.000001
vn -0.498256 -0.083440 0.863006
vn -0.457267 0.404507 0.792011
vn -0.418552 -0.546744 0.725179
vn -0.449550 -0.439668 0.777558
vn -0.499310 -0.080428 0.862682
vn -0.406894 0.581130 0.704787
vn -0.499460 0.082028 0.862445
vn -0.443870 -0.474319 0.760264
vn -0.489506 0.197940 0.849237
vn -0.490131 0.189158 0.850877
vn -0.452734 -0.428148 0.782126
vn -0.469455 -0.344003 0.813188
vn -0.499999 0.000935 0.866026
vn 0.000000 -0.083439 0.996513
vn 0.000001 0.404506 0.914535
vn 0.000113 -0.546744 0.837300
vn -0.000543 -0.439668 0.898160
vn -0.001074 -0.080429 0.996760
vn 0.000013 0.581128 0.813812
vn -0.001321 0.082018 0.996630
vn -0.004270 -0.474322 0.880341
vn 0.000694 0.197941 0.980214
vn 0.000973 0.189157 0.981946
vn -0.001016 -0.428147 0.903708
vn 0.000033 -0.344003 0.938969
vn 0.000000 0.000935 1.000000
vn 0.498257 -0.083440 0.863005
vn 0.457268 0.404507 0.792010
vn 0.418747 -0.546744 0.725066
vn 0.448610 -0.439668 0.778101
vn 0.497450 -0.080429 0.863756
vn 0.406917 0.581130 0.704774
vn 0.497169 0.082029 0.863767
vn 0.436473 -0.474319 0.764534
vn 0.490708 0.197940 0.848543
vn 0.491815 0.189157 0.849904
vn 0.450974 -0.428148 0.783142
vn 0.469513 -0.344003 0.813154
vn 0.500000 0.000935 0.866025
vn 0.863006 -0.083439 0.498256
vn 0.792011 0.404507 0.457267
vn 0.725179 -0.546744 0.418552
vn 0.777558 -0.439668 0.449551
vn 0.862682 -0.080428 0.499310
vn 0.704787 0.581130 0.406894
vn 0.862445 0.082028 0.499459
vn 0.760264 -0.474319 0.443870
vn 0.849237 0.197940 0.489505
vn 0.850878 0.189153 0.490131
vn 0.782125 -0.428152 0.452733
vn 0.813187 -0.344002 0.469456
vn 0.866025 0.000935 0.500000
vn 0.996513 -0.083438 -0.000001
vn 0.914535 0.404506 -0.000001
vn 0.837300 -0.546744 -0.000113
vn 0.898160 -0.439669 0.000543
vn 0.996760 -0.080429 0.001074
vn 0.813811 0.581130 -0.000013
vn 0.996629 0.082028 0.001322
vn 0.880343 -0.474318 0.004271
vn 0.980214 0.197941 -0.000694
vn 0.981947 0.189153 -0.000973
vn 0.903706 -0.428151 0.001016
vn 0.938969 -0.344003 -0.000033
vn 1.000000 0.000935 -0.000001
vn 0.863005 -0.083437 -0.498257
vn 0.792010 0.404507 -0.457268
vn 0.725067 -0.546743 -0.418748
vn 0.778101 -0.439669 -0.448610
vn 0.863756 -0.080429 -0.497450
vn 0.704774 0.581130 -0.406917
vn 0.863767 0.082028 -0.497170
vn 0.764534 -0.474318 -0.436473
vn 0.848543 0.197941 -0.490708
vn 0.849905 0.189153 -0.491816
vn 0.783141 -0.428151 -0.450973
vn 0.813154 -0.344003 -0.469513
vn 0.866025 0.000934 -0.500000
vn 0.498256 -0.083437 -0.863006
vn 0.457267 0.404507 -0.792011
vn 0.418553 -0.546743 -0.725180
vn 0.449550 -0.439669 -0.777558
vn 0.499310 -0.080428 -0.862682
vn 0.406894 0.581131 -0.704787
vn 0.499459 0.082029 -0.862445
vn 0.443870 -0.474319 -0.760264
vn 0.489505 0.197940 -0.849237
vn 0.490132 0.189148 -0.850878
vn 0.452732 -0.428155 -0.782123
vn 0.469456 -0.344003 -0.813187
vn 0.500000 0.000935 -0.866025
vn -0.000001 -0.083438 -0.996513
vn -0.000000 0.404507 -0.914535
vn -0.000113 -0.546744 -0.837300
vn 0.000543 -0.439669 -0.898160
vn 0.001074 -0.080428 -0.996760
vn -0.000013 0.581131 -0.813810
vn 0.001322 0.082028 -0.996629
vn 0.004271 -0.474318 -0.880343
vn -0.000694 0.197941 -0.980214
vn -0.000973 0.189148 -0.981948
vn 0.001016 -0.428156 -0.903704
vn -0.000033 -0.344003 -0.938969
vn -0.000000 0.000935 -1.000000
vn -0.498257 -0.083436 -0.863006
vn -0.457268 0.404506 -0.792011
vn -0.418748 -0.546743 -0.725067
vn -0.448610 -0.439669 -0.778101
vn -0.497449 -0.080428 -0.863757
vn -0.406916 0.581131 -0.704774
vn -0.497169 0.082028 -0.863767
vn -0.436473 -0.474318 -0.764535
vn -0.490708 0.197941 -0.848543
vn -0.491817 0.189149 -0.849905
vn -0.450973 -0.428155 -0.783139
vn -0.469514 -0.344003 -0.813154
vn -0.500001 0.000935 -0.866025
vn -0.863006 -0.083437 -0.498256
vn -0.792011 0.404507 -0.457267
vn -0.725180 -0.546743 -0.418552
vn -0.777558 -0.439669 -0.449550
vn -0.862682 -0.080429 -0.499310
vn -0.704787 0.581131 -0.406894
vn -0.862445 0.082028 -0.499459
vn -0.760264 -0.474318 -0.443870
vn -0.849237 0.197940 -0.489506
vn -0.850878 0.189153 -0.490131
vn -0.782125 -0.428152 -0.452733
vn -0.813188 -0.344003 -0.469455
vn -0.866026 0.000934 -0.499999
vn 0.000000 -1.000000 -0.000000
vn 0.000000 1.000000 -0.000000
# 158 vertex normals

vt 0.342259 0.427913 0.000000
vt 0.262281 0.427391 0.000000
vt 0.262669 0.388098 0.000000
vt 0.342902 0.389395 0.000000
vt 0.341946 0.454829 0.000000
vt 0.262190 0.454633 0.000000
vt 0.341438 0.492395 0.000000
vt 0.262005 0.492438 0.000000
vt 0.341340 0.520614 0.000000
vt 0.262136 0.520735 0.000000
vt 0.341380 0.529782 0.000000
vt 0.262256 0.529947 0.000000
vt 0.341156 0.547359 0.000000
vt 0.262165 0.547557 0.000000
vt 0.341067 0.557479 0.000000
vt 0.262127 0.557699 0.000000
vt 0.341262 0.565615 0.000000
vt 0.262366 0.565864 0.000000
vt 0.341370 0.585860 0.000000
vt 0.262548 0.586076 0.000000
vt 0.341263 0.606592 0.000000
vt 0.262459 0.606773 0.000000
vt 0.340458 0.655811 0.000000
vt 0.261471 0.655900 0.000000
vt 0.340524 0.713199 0.000000
vt 0.261163 0.713339 0.000000
vt 0.421311 0.428543 0.000000
vt 0.421800 0.390467 0.000000
vt 0.421027 0.455250 0.000000
vt 0.420499 0.492620 0.000000
vt 0.420365 0.520732 0.000000
vt 0.420388 0.529852 0.000000
vt 0.420136 0.547367 0.000000
vt 0.420034 0.557447 0.000000
vt 0.420220 0.565545 0.000000
vt 0.420305 0.585753 0.000000
vt 0.420189 0.606450 0.000000
vt 0.419399 0.655616 0.000000
vt 0.419502 0.712872 0.000000
vt 0.499894 0.428777 0.000000
vt 0.500083 0.390845 0.000000
vt 0.499735 0.455416 0.000000
vt 0.499309 0.492717 0.000000
vt 0.499217 0.520785 0.000000
vt 0.499249 0.529886 0.000000
vt 0.499013 0.547375 0.000000
vt 0.498917 0.557437 0.000000
vt 0.499107 0.565520 0.000000
vt 0.499193 0.585707 0.000000
vt 0.499072 0.606387 0.000000
vt 0.498238 0.655525 0.000000
vt 0.498242 0.712730 0.000000
vt 0.578480 0.428477 0.000000
vt 0.578369 0.390409 0.000000
vt 0.578443 0.455193 0.000000
vt 0.578114 0.492572 0.000000
vt 0.578067 0.520683 0.000000
vt 0.578108 0.529801 0.000000
vt 0.577890 0.547315 0.000000
vt 0.577800 0.557394 0.000000
vt 0.577997 0.565492 0.000000
vt 0.578086 0.585701 0.000000
vt 0.577964 0.606401 0.000000
vt 0.577093 0.655588 0.000000
vt 0.577007 0.712877 0.000000
vt 0.657537 0.427784 0.000000
vt 0.657272 0.389289 0.000000
vt 0.657519 0.454712 0.000000
vt 0.657159 0.492285 0.000000
vt 0.657081 0.520497 0.000000
vt 0.657108 0.529661 0.000000
vt 0.656869 0.547234 0.000000
vt 0.656770 0.557352 0.000000
vt 0.656961 0.565488 0.000000
vt 0.657035 0.585736 0.000000
vt 0.656911 0.606472 0.000000
vt 0.656088 0.655728 0.000000
vt 0.656064 0.713191 0.000000
vt 0.737511 0.427206 0.000000
vt 0.737491 0.387972 0.000000
vt 0.737250 0.454449 0.000000
vt 0.736548 0.492233 0.000000
vt 0.736251 0.520506 0.000000
vt 0.736206 0.529711 0.000000
vt 0.735850 0.547310 0.000000
vt 0.735708 0.557449 0.000000
vt 0.735860 0.565613 0.000000
vt 0.735875 0.585831 0.000000
vt 0.735751 0.606534 0.000000
vt 0.735187 0.655700 0.000000
vt 0.735580 0.713278 0.000000
vt 0.818697 0.427902 0.000000
vt 0.819856 0.387672 0.000000
vt 0.817674 0.455450 0.000000
vt 0.816059 0.493260 0.000000
vt 0.815166 0.521370 0.000000
vt 0.814938 0.530507 0.000000
vt 0.814277 0.547942 0.000000
vt 0.814014 0.557968 0.000000
vt 0.814056 0.566056 0.000000
vt 0.813928 0.585972 0.000000
vt 0.813815 0.606374 0.000000
vt 0.814023 0.654955 0.000000
vt 0.815501 0.712356 0.000000
vt 0.900553 0.432122 0.000000
vt 0.905084 0.391265 0.000000
vt 0.898061 0.459528 0.000000
vt 0.895082 0.496914 0.000000
vt 0.893028 0.524562 0.000000
vt 0.892307 0.533155 0.000000
vt 0.890806 0.549910 0.000000
vt 0.890202 0.559397 0.000000
vt 0.889937 0.567038 0.000000
vt 0.889400 0.585913 0.000000
vt 0.889339 0.605256 0.000000
vt 0.891907 0.652234 0.000000
vt 0.895473 0.709064 0.000000
vt 0.977833 0.443699 0.000000
vt 0.992044 0.405965 0.000000
vt 0.975054 0.467745 0.000000
vt 0.974423 0.503913 0.000000
vt 0.972285 0.532091 0.000000
vt 0.969233 0.540865 0.000000
vt 0.961925 0.555925 0.000000
vt 0.961741 0.563685 0.000000
vt 0.960359 0.569512 0.000000
vt 0.957053 0.585209 0.000000
vt 0.957143 0.600314 0.000000
vt 0.969898 0.644075 0.000000
vt 0.974969 0.701757 0.000000
vt 0.099031 0.432380 0.000000
vt 0.021395 0.443861 0.000000
vt 0.006836 0.405965 0.000000
vt 0.094699 0.391297 0.000000
vt 0.101137 0.459975 0.000000
vt 0.023819 0.468226 0.000000
vt 0.103248 0.497550 0.000000
vt 0.023890 0.504617 0.000000
vt 0.105156 0.525240 0.000000
vt 0.025811 0.532825 0.000000
vt 0.105985 0.533842 0.000000
vt 0.028897 0.541599 0.000000
vt 0.107118 0.550626 0.000000
vt 0.035969 0.556727 0.000000
vt 0.107597 0.560132 0.000000
vt 0.035916 0.564497 0.000000
vt 0.108271 0.567768 0.000000
vt 0.037577 0.570338 0.000000
vt 0.109035 0.586619 0.000000
vt 0.041158 0.585943 0.000000
vt 0.108962 0.606006 0.000000
vt 0.040782 0.601137 0.000000
vt 0.105391 0.652979 0.000000
vt 0.028170 0.645034 0.000000
vt 0.101986 0.709386 0.000000
vt 0.023189 0.702210 0.000000
vt 0.181048 0.428133 0.000000
vt 0.180220 0.387776 0.000000
vt 0.181693 0.455727 0.000000
vt 0.182404 0.493629 0.000000
vt 0.183145 0.521788 0.000000
vt 0.183461 0.530934 0.000000
vt 0.183708 0.548388 0.000000
vt 0.183812 0.558424 0.000000
vt 0.184169 0.566512 0.000000
vt 0.184515 0.586414 0.000000
vt 0.184446 0.606817 0.000000
vt 0.182852 0.655371 0.000000
vt 0.181510 0.712523 0.000000
vt 0.705726 0.916806 0.000000
vt 0.654694 0.914237 0.000000
vt 0.611784 0.886496 0.000000
vt 0.778946 0.850605 0.000000
vt 0.588492 0.841016 0.000000
vt 0.591062 0.789985 0.000000
vt 0.664283 0.723783 0.000000
vt 0.618803 0.747074 0.000000
vt 0.715315 0.726353 0.000000
vt 0.758225 0.754094 0.000000
vt 0.781516 0.799574 0.000000
vt 0.751205 0.893515 0.000000
vt 0.092624 0.974207 0.000000
vt 0.043435 0.925203 0.000000
vt 0.025338 0.858169 0.000000
vt 0.226758 0.973955 0.000000
vt 0.043183 0.791068 0.000000
vt 0.092187 0.741880 0.000000
vt 0.226321 0.741627 0.000000
vt 0.159221 0.723783 0.000000
vt 0.275510 0.790632 0.000000
vt 0.293607 0.857665 0.000000
vt 0.275763 0.924766 0.000000
vt 0.159724 0.992051 0.000000
# 193 texture coords

g Pillar_025_Round_B_Top
usemtl 10___Default
s 1
f 1/1/1 2/2/2 3/3/3 4/4/4 
f 5/5/5 6/6/6 2/2/2 1/1/1 
f 7/7/7 8/8/8 6/6/6 5/5/5 
f 9/9/9 10/10/10 8/8/8 7/7/7 
f 11/11/11 12/12/12 10/10/10 9/9/9 
f 13/13/13 14/14/14 12/12/12 11/11/11 
f 15/15/15 16/16/16 14/14/14 13/13/13 
f 17/17/17 18/18/18 16/16/16 15/15/15 
f 19/19/19 20/20/20 18/18/18 17/17/17 
f 21/21/21 22/22/22 20/20/20 19/19/19 
f 23/23/23 24/24/24 22/22/22 21/21/21 
f 25/25/25 26/26/26 24/24/24 23/23/23 
f 27/27/27 1/1/1 4/4/4 28/28/28 
f 29/29/29 5/5/5 1/1/1 27/27/27 
f 30/30/30 7/7/7 5/5/5 29/29/29 
f 31/31/31 9/9/9 7/7/7 30/30/30 
f 32/32/32 11/11/11 9/9/9 31/31/31 
f 33/33/33 13/13/13 11/11/11 32/32/32 
f 34/34/34 15/15/15 13/13/13 33/33/33 
f 35/35/35 17/17/17 15/15/15 34/34/34 
f 36/36/36 19/19/19 17/17/17 35/35/35 
f 37/37/37 21/21/21 19/19/19 36/36/36 
f 38/38/38 23/23/23 21/21/21 37/37/37 
f 39/39/39 25/25/25 23/23/23 38/38/38 
f 40/40/40 27/27/27 28/28/28 41/41/41 
f 42/42/42 29/29/29 27/27/27 40/40/40 
f 43/43/43 30/30/30 29/29/29 42/42/42 
f 44/44/44 31/31/31 30/30/30 43/43/43 
f 45/45/45 32/32/32 31/31/31 44/44/44 
f 46/46/46 33/33/33 32/32/32 45/45/45 
f 47/47/47 34/34/34 33/33/33 46/46/46 
f 48/48/48 35/35/35 34/34/34 47/47/47 
f 49/49/49 36/36/36 35/35/35 48/48/48 
f 50/50/50 37/37/37 36/36/36 49/49/49 
f 51/51/51 38/38/38 37/37/37 50/50/50 
f 52/52/52 39/39/39 38/38/38 51/51/51 
f 53/53/53 40/40/40 41/41/41 54/54/54 
f 55/55/55 42/42/42 40/40/40 53/53/53 
f 56/56/56 43/43/43 42/42/42 55/55/55 
f 57/57/57 44/44/44 43/43/43 56/56/56 
f 58/58/58 45/45/45 44/44/44 57/57/57 
f 59/59/59 46/46/46 45/45/45 58/58/58 
f 60/60/60 47/47/47 46/46/46 59/59/59 
f 61/61/61 48/48/48 47/47/47 60/60/60 
f 62/62/62 49/49/49 48/48/48 61/61/61 
f 63/63/63 50/50/50 49/49/49 62/62/62 
f 64/64/64 51/51/51 50/50/50 63/63/63 
f 65/65/65 52/52/52 51/51/51 64/64/64 
f 66/66/66 53/53/53 54/54/54 67/67/67 
f 68/68/68 55/55/55 53/53/53 66/66/66 
f 69/69/69 56/56/56 55/55/55 68/68/68 
f 70/70/70 57/57/57 56/56/56 69/69/69 
f 71/71/71 58/58/58 57/57/57 70/70/70 
f 72/72/72 59/59/59 58/58/58 71/71/71 
f 73/73/73 60/60/60 59/59/59 72/72/72 
f 74/74/74 61/61/61 60/60/60 73/73/73 
f 75/75/75 62/62/62 61/61/61 74/74/74 
f 76/76/76 63/63/63 62/62/62 75/75/75 
f 77/77/77 64/64/64 63/63/63 76/76/76 
f 78/78/78 65/65/65 64/64/64 77/77/77 
f 79/79/79 66/66/66 67/67/67 80/80/80 
f 81/81/81 68/68/68 66/66/66 79/79/79 
f 82/82/82 69/69/69 68/68/68 81/81/81 
f 83/83/83 70/70/70 69/69/69 82/82/82 
f 84/84/84 71/71/71 70/70/70 83/83/83 
f 85/85/85 72/72/72 71/71/71 84/84/84 
f 86/86/86 73/73/73 72/72/72 85/85/85 
f 87/87/87 74/74/74 73/73/73 86/86/86 
f 88/88/88 75/75/75 74/74/74 87/87/87 
f 89/89/89 76/76/76 75/75/75 88/88/88 
f 90/90/90 77/77/77 76/76/76 89/89/89 
f 91/91/91 78/78/78 77/77/77 90/90/90 
f 92/92/92 79/79/79 80/80/80 93/93/93 
f 94/94/94 81/81/81 79/79/79 92/92/92 
f 95/95/95 82/82/82 81/81/81 94/94/94 
f 96/96/96 83/83/83 82/82/82 95/95/95 
f 97/97/97 84/84/84 83/83/83 96/96/96 
f 98/98/98 85/85/85 84/84/84 97/97/97 
f 99/99/99 86/86/86 85/85/85 98/98/98 
f 100/100/100 87/87/87 86/86/86 99/99/99 
f 101/101/101 88/88/88 87/87/87 100/100/100 
f 102/102/102 89/89/89 88/88/88 101/101/101 
f 103/103/103 90/90/90 89/89/89 102/102/102 
f 104/104/104 91/91/91 90/90/90 103/103/103 
f 105/105/105 92/92/92 93/93/93 106/106/106 
f 107/107/107 94/94/94 92/92/92 105/105/105 
f 108/108/108 95/95/95 94/94/94 107/107/107 
f 109/109/109 96/96/96 95/95/95 108/108/108 
f 110/110/110 97/97/97 96/96/96 109/109/109 
f 111/111/111 98/98/98 97/97/97 110/110/110 
f 112/112/112 99/99/99 98/98/98 111/111/111 
f 113/113/113 100/100/100 99/99/99 112/112/112 
f 114/114/114 101/101/101 100/100/100 113/113/113 
f 115/115/115 102/102/102 101/101/101 114/114/114 
f 116/116/116 103/103/103 102/102/102 115/115/115 
f 117/117/117 104/104/104 103/103/103 116/116/116 
f 118/118/118 105/105/105 106/106/106 119/119/119 
f 120/120/120 107/107/107 105/105/105 118/118/118 
f 121/121/121 108/108/108 107/107/107 120/120/120 
f 122/122/122 109/109/109 108/108/108 121/121/121 
f 123/123/123 110/110/110 109/109/109 122/122/122 
f 124/124/124 111/111/111 110/110/110 123/123/123 
f 125/125/125 112/112/112 111/111/111 124/124/124 
f 126/126/126 113/113/113 112/112/112 125/125/125 
f 127/127/127 114/114/114 113/113/113 126/126/126 
f 128/128/128 115/115/115 114/114/114 127/127/127 
f 129/129/129 116/116/116 115/115/115 128/128/128 
f 130/130/130 117/117/117 116/116/116 129/129/129 
f 131/131/131 118/132/118 119/133/119 132/134/132 
f 133/135/133 120/136/120 118/132/118 131/131/131 
f 134/137/134 121/138/121 120/136/120 133/135/133 
f 135/139/135 122/140/122 121/138/121 134/137/134 
f 136/141/136 123/142/123 122/140/122 135/139/135 
f 137/143/137 124/144/124 123/142/123 136/141/136 
f 138/145/138 125/146/125 124/144/124 137/143/137 
f 139/147/139 126/148/126 125/146/125 138/145/138 
f 140/149/140 127/150/127 126/148/126 139/147/139 
f 141/151/141 128/152/128 127/150/127 140/149/140 
f 142/153/142 129/154/129 128/152/128 141/151/141 
f 143/155/143 130/156/130 129/154/129 142/153/142 
f 144/157/144 131/131/131 132/134/132 145/158/145 
f 146/159/146 133/135/133 131/131/131 144/157/144 
f 147/160/147 134/137/134 133/135/133 146/159/146 
f 148/161/148 135/139/135 134/137/134 147/160/147 
f 149/162/149 136/141/136 135/139/135 148/161/148 
f 150/163/150 137/143/137 136/141/136 149/162/149 
f 151/164/151 138/145/138 137/143/137 150/163/150 
f 152/165/152 139/147/139 138/145/138 151/164/151 
f 153/166/153 140/149/140 139/147/139 152/165/152 
f 154/167/154 141/151/141 140/149/140 153/166/153 
f 155/168/155 142/153/142 141/151/141 154/167/154 
f 156/169/156 143/155/143 142/153/142 155/168/155 
f 2/2/2 144/157/144 145/158/145 3/3/3 
f 6/6/6 146/159/146 144/157/144 2/2/2 
f 8/8/8 147/160/147 146/159/146 6/6/6 
f 10/10/10 148/161/148 147/160/147 8/8/8 
f 12/12/12 149/162/149 148/161/148 10/10/10 
f 14/14/14 150/163/150 149/162/149 12/12/12 
f 16/16/16 151/164/151 150/163/150 14/14/14 
f 18/18/18 152/165/152 151/164/151 16/16/16 
f 20/20/20 153/166/153 152/165/152 18/18/18 
f 22/22/22 154/167/154 153/166/153 20/20/20 
f 24/24/24 155/168/155 154/167/154 22/22/22 
f 26/26/26 156/169/156 155/168/155 24/24/24 
s 2
f 41/170/157 28/171/157 4/172/157 67/173/157 
f 4/172/157 3/174/157 145/175/157 119/176/157 
f 145/175/157 132/177/157 119/176/157 
f 119/176/157 106/178/157 93/179/157 67/173/157 
f 93/179/157 80/180/157 67/173/157 
f 4/172/157 119/176/157 67/173/157 
f 41/170/157 67/173/157 54/181/157 
f 143/182/158 156/183/158 26/184/158 117/185/158 
f 26/184/158 25/186/158 39/187/158 65/188/158 
f 39/187/158 52/189/158 65/188/158 
f 65/188/158 78/190/158 91/191/158 117/185/158 
f 91/191/158 104/192/158 117/185/158 
f 26/184/158 65/188/158 117/185/158 
f 143/182/158 117/185/158 130/193/158 
# 150 polygons - 8 triangles

