# 3ds Max Wavefront OBJ Exporter v0.97b - (c)2007 guruware
# File Created: 29.10.2015 16:58:15

mtllib Pillar_05_Square_B_Column.mtl

#
# object Pillar_05_Square_B_Column
#

v  18.348005 86.716759 -30.843269
v  -18.235786 86.716759 -30.843306
v  -18.295195 408.581635 -30.902660
v  18.407326 408.581635 -30.902670
v  -30.731079 86.716759 -18.348019
v  -30.731115 86.716759 18.235775
v  -30.790474 408.581635 18.295143
v  -30.790491 408.581635 -18.407375
v  -18.235828 86.716759 30.731068
v  18.347961 86.716759 30.731113
v  18.407330 408.581635 30.790424
v  -18.295189 408.581635 30.790440
v  30.843254 86.716751 18.235826
v  30.843292 86.716759 -18.347977
v  30.902611 408.581635 -18.407375
v  30.902626 408.581635 18.295139
v  -35.727848 69.220543 -35.840084
v  35.840073 69.220543 -35.840038
v  35.840023 69.220543 35.727894
v  -35.727894 69.220543 35.727837
v  35.905842 426.076019 -35.905891
v  -35.793713 426.076019 -35.905891
v  -35.793705 426.076019 35.793659
v  35.905846 426.076019 35.793655
v  23.408249 413.580719 -35.903591
v  -23.296116 413.580719 -35.903584
v  23.347086 81.715836 -35.842346
v  -23.234863 81.715836 -35.842384
v  -35.791412 413.580719 -23.408298
v  -35.791397 413.580719 23.296064
v  -35.730156 81.715836 -23.347099
v  -35.730194 81.715836 23.234852
v  -23.296112 413.580719 35.791359
v  23.408251 413.580719 35.791348
v  -23.234909 81.715836 35.730145
v  23.347038 81.715836 35.730194
v  35.903545 413.580719 23.296062
v  35.903534 413.580719 -23.408297
v  35.842331 81.715828 23.234907
v  35.842373 81.715836 -23.347054
# 40 vertices

vn 0.000001 -0.000184 -1.000000
vn -0.000000 -0.000185 -1.000000
vn -1.000000 -0.000184 -0.000001
vn -1.000000 -0.000185 0.000000
vn -0.000001 -0.000184 1.000000
vn 0.000000 -0.000184 1.000000
vn 1.000000 -0.000184 0.000001
vn 1.000000 -0.000184 -0.000000
vn 0.000000 -1.000000 -0.000000
vn 0.000000 1.000000 -0.000000
vn 0.000000 -0.000185 -1.000000
vn 0.000000 -0.000184 -1.000000
vn -1.000000 -0.000185 -0.000000
vn -1.000000 -0.000184 -0.000000
vn -0.000000 -0.000184 1.000000
vn -0.000000 -0.000185 1.000000
vn -0.000001 -0.000185 1.000000
vn 1.000000 -0.000185 0.000000
vn 1.000000 -0.000184 0.000000
vn 0.000000 -0.707237 0.706977
vn 0.000000 -0.707236 0.706977
vn 0.707106 -0.000000 0.707107
vn 0.707107 -0.000000 0.707107
vn -0.000001 0.706977 0.707237
vn -0.000001 0.706976 0.707237
vn -0.707107 0.000000 0.707107
vn -0.706977 -0.707237 0.000000
vn -0.707107 -0.000000 0.707107
vn -0.707237 0.706976 -0.000001
vn -0.707237 0.706977 -0.000001
vn -0.707107 0.000000 -0.707107
vn -0.000000 -0.707237 -0.706977
vn -0.707107 -0.000000 -0.707107
vn 0.000001 0.706976 -0.707237
vn 0.000001 0.706977 -0.707237
vn 0.707107 0.000000 -0.707107
vn 0.706977 -0.707237 -0.000000
vn 0.706977 -0.707236 -0.000000
vn 0.707107 -0.000000 -0.707106
vn 0.707107 -0.000000 -0.707107
vn 0.707237 0.706977 0.000001
vn 0.707237 0.706976 0.000001
vn 0.707107 0.000000 0.707107
# 43 vertex normals

vt 0.547541 0.045312 -0.183071
vt 0.676425 0.045309 0.000000
vt 0.676720 0.827147 0.000000
vt 0.547406 0.827149 0.183071
vt 0.807547 0.045371 0.000000
vt 0.935272 0.045370 0.000000
vt 0.935472 0.827208 0.000000
vt 0.807299 0.827208 0.000000
vt 0.057256 0.045238 0.000000
vt 0.167751 0.045235 0.000000
vt 0.168008 0.827073 0.000000
vt 0.057147 0.827075 0.243344
vt 0.289784 0.045357 0.000000
vt 0.417125 0.045357 0.264015
vt 0.417324 0.827195 -0.264015
vt 0.289536 0.827195 0.000000
vt 0.995165 0.878841 -0.908610
vt 0.995155 0.995223 -0.908610
vt 0.878773 0.995213 -0.908610
vt 0.878783 0.878831 0.908610
vt 0.005512 0.877450 0.000000
vt 0.122108 0.877450 0.000000
vt 0.122108 0.994046 0.000000
vt 0.005512 0.994046 0.000000
vt 0.741217 0.870844 0.000000
vt 0.482911 0.870847 0.183071
vt 0.527081 0.840919 0.183071
vt 0.697045 0.840918 0.000000
vt 0.483066 0.001614 -0.183071
vt 0.527222 0.031540 -0.183071
vt 0.740897 0.001610 0.000000
vt 0.696743 0.031538 0.000000
vt 0.999395 0.870905 0.000000
vt 0.743393 0.870905 0.000000
vt 0.787158 0.840978 0.000000
vt 0.955615 0.840978 0.000000
vt 0.743635 0.001672 0.000000
vt 0.787408 0.031599 0.000000
vt 0.999168 0.001672 0.000000
vt 0.955410 0.031599 0.000000
vt 0.223303 0.870770 0.000000
vt 0.001856 0.870773 0.243344
vt 0.039723 0.840845 0.243344
vt 0.185433 0.840844 0.000000
vt 0.001980 0.001540 0.000000
vt 0.039836 0.031466 0.000000
vt 0.223022 0.001535 0.000000
vt 0.185169 0.031464 0.000000
vt 0.481056 0.870892 -0.264015
vt 0.225822 0.870892 0.000000
vt 0.269456 0.840965 0.000000
vt 0.437407 0.840965 -0.264015
vt 0.226063 0.001659 0.000000
vt 0.269705 0.031586 0.000000
vt 0.480830 0.001659 0.264015
vt 0.437202 0.031586 0.264015
# 56 texture coords

g Pillar_05_Square_B_Column
usemtl 02___default
s 1
f 1/1/1 2/2/1 3/3/2 4/4/2 
f 5/5/3 6/6/3 7/7/4 8/8/4 
f 9/9/5 10/10/5 11/11/6 12/12/6 
f 13/13/7 14/14/7 15/15/8 16/16/8 
s 4
f 17/17/9 18/18/9 19/19/9 20/20/9 
f 21/21/10 22/22/10 23/23/10 24/24/10 
s 1
f 22/25/11 21/26/12 25/27/12 26/28/11 
f 21/26/12 18/29/12 27/30/12 25/27/12 
f 18/29/12 17/31/11 28/32/11 27/30/12 
f 17/31/11 22/25/11 26/28/11 28/32/11 
s 2
f 23/33/13 22/34/14 29/35/14 30/36/4 
f 22/34/14 17/37/14 31/38/14 29/35/14 
f 17/37/14 20/39/13 32/40/13 31/38/14 
f 20/39/13 23/33/13 30/36/4 32/40/13 
s 1
f 24/41/15 23/42/15 33/43/15 34/44/16 
f 23/42/15 20/45/5 35/46/5 33/43/15 
f 20/45/5 19/47/16 36/48/17 35/46/5 
f 19/47/16 24/41/15 34/44/16 36/48/17 
s 2
f 21/49/18 24/50/19 37/51/19 38/52/18 
f 24/50/19 19/53/7 39/54/7 37/51/19 
f 19/53/7 18/55/18 40/56/19 39/54/7 
f 18/55/18 21/49/18 38/52/18 40/56/19 
s 8
f 34/44/20 33/43/21 12/12/21 11/11/20 
s 4
f 33/43/22 35/46/22 9/9/23 12/12/23 
s 8
f 35/46/24 36/48/25 10/10/25 9/9/24 
s 4
f 36/48/26 34/44/26 11/11/26 10/10/26 
s 8
f 30/36/27 29/35/27 8/8/27 7/7/27 
s 4
f 29/35/28 31/38/28 5/5/28 8/8/28 
s 8
f 31/38/29 32/40/29 6/6/29 5/5/30 
s 4
f 32/40/31 30/36/31 7/7/31 6/6/31 
s 8
f 26/28/32 25/27/32 4/4/32 3/3/32 
s 4
f 25/27/33 27/30/33 1/1/33 4/4/33 
s 8
f 27/30/34 28/32/34 2/2/34 1/1/35 
s 4
f 28/32/36 26/28/36 3/3/36 2/2/36 
s 8
f 38/52/37 37/51/38 16/16/38 15/15/37 
s 4
f 37/51/39 39/54/40 13/13/40 16/16/39 
s 8
f 39/54/41 40/56/42 14/14/42 13/13/41 
s 4
f 40/56/43 38/52/43 15/15/43 14/14/43 
# 38 polygons

