# 3ds Max Wavefront OBJ Exporter v0.97b - (c)2007 guruware
# File Created: 29.10.2015 16:58:13

mtllib Pillar_05_Square_A_Top.mtl

#
# object Pillar_05_Square_A_Top
#

v  47.280025 467.133484 -47.231800
v  47.343983 467.133484 47.279972
v  35.905899 426.241028 35.905838
v  35.905888 426.241028 -35.793716
v  49.364532 469.589905 -49.320053
v  49.432232 469.589905 49.364468
v  49.880169 472.561951 -49.835686
v  49.947865 472.561951 49.880104
v  49.923939 501.821228 -49.879459
v  49.991646 501.821228 49.923882
v  -47.231739 467.133484 -47.167835
v  -35.793667 426.241028 -35.793701
v  -49.320000 469.589905 -49.252342
v  -49.835632 472.561951 -49.767975
v  -49.879402 501.821228 -49.811752
v  -47.167778 467.133484 47.343918
v  -35.793652 426.240997 35.905853
v  -49.252281 469.589905 49.432175
v  -49.767918 472.561951 49.947807
v  -49.811695 501.821228 49.991589
# 20 vertices

vn 0.857146 -0.515074 -0.000419
vn 0.856974 -0.515359 -0.000584
vn 0.963172 -0.268887 -0.000484
vn 0.963426 -0.267975 -0.000000
vn 0.934477 -0.356022 -0.000638
vn 0.934497 -0.355970 -0.000637
vn 0.996656 -0.081704 -0.000680
vn 0.996666 -0.081590 -0.000676
vn 0.999999 -0.001497 -0.000679
vn 0.999999 -0.001495 -0.000678
vn -0.000419 -0.515074 -0.857146
vn -0.000584 -0.515359 -0.856974
vn -0.000484 -0.268887 -0.963172
vn -0.000000 -0.267975 -0.963426
vn -0.000639 -0.356021 -0.934478
vn -0.000637 -0.355970 -0.934497
vn -0.000680 -0.081703 -0.996656
vn -0.000676 -0.081589 -0.996666
vn -0.000679 -0.001497 -0.999999
vn -0.000678 -0.001495 -0.999999
vn -0.857146 -0.515074 0.000419
vn -0.856974 -0.515360 0.000584
vn -0.963172 -0.268887 0.000484
vn -0.963426 -0.267974 0.000000
vn -0.934477 -0.356022 0.000639
vn -0.934497 -0.355971 0.000637
vn -0.996656 -0.081704 0.000680
vn -0.996666 -0.081589 0.000677
vn -0.999999 -0.001497 0.000679
vn -0.999999 -0.001495 0.000678
vn 0.000419 -0.515073 0.857146
vn 0.000584 -0.515359 0.856974
vn 0.000484 -0.268887 0.963172
vn 0.000000 -0.267975 0.963426
vn 0.000639 -0.356021 0.934478
vn 0.000637 -0.355970 0.934497
vn 0.000680 -0.081704 0.996656
vn 0.000676 -0.081590 0.996666
vn 0.000679 -0.001497 0.999999
vn 0.000678 -0.001495 0.999999
vn 0.000000 -1.000000 -0.000000
vn -0.000000 -1.000000 -0.000000
vn 0.000000 1.000000 -0.000000
# 43 vertex normals

vt 0.953352 0.726018 1.198216
vt 0.517586 0.726063 0.000000
vt 0.570050 0.620473 0.000000
vt 0.900636 0.620534 0.000000
vt 0.962969 0.736946 0.000000
vt 0.507965 0.736963 0.615898
vt 0.965340 0.744046 0.000000
vt 0.505581 0.744045 0.000000
vt 0.965540 0.809992 0.000000
vt 0.505377 0.809992 0.000000
vt 0.483277 0.524991 0.000000
vt 0.047516 0.526757 0.953783
vt 0.099546 0.420956 0.000000
vt 0.430129 0.419722 0.000000
vt 0.492940 0.535863 0.489592
vt 0.037942 0.537711 0.000000
vt 0.495342 0.542944 0.000000
vt 0.035587 0.544811 0.000000
vt 0.495824 0.608889 0.000000
vt 0.035665 0.610757 0.000000
vt 0.950303 0.527453 0.026316
vt 0.514540 0.526111 0.000000
vt 0.567358 0.420683 0.000000
vt 0.897940 0.421808 0.000000
vt 0.959893 0.538394 0.000000
vt 0.504892 0.536996 0.494291
vt 0.962251 0.545491 0.000000
vt 0.502493 0.544079 0.000000
vt 0.962242 0.611437 0.000000
vt 0.502081 0.610024 0.000000
vt 0.485534 0.724562 0.000000
vt 0.049775 0.722024 0.000000
vt 0.102896 0.616741 0.000000
vt 0.433475 0.618773 0.000000
vt 0.495088 0.735529 0.416965
vt 0.040091 0.732883 0.000000
vt 0.497420 0.742635 0.000000
vt 0.037668 0.739960 0.000000
vt 0.497220 0.808581 0.000000
vt 0.037065 0.805904 0.000000
vt 0.369761 0.827922 0.000000
vt 0.495104 0.828194 0.000000
vt 0.494833 0.953536 0.000000
vt 0.369489 0.953265 0.000000
vt 0.341561 0.814435 0.000000
vt 0.340977 0.991921 0.000000
vt 0.163490 0.991338 0.000000
vt 0.164074 0.813851 0.000000
# 48 texture coords

g Pillar_05_Square_A_Top
usemtl 10___Default
s 2
f 1/1/1 2/2/2 3/3/3 4/4/4 
f 5/5/5 6/6/6 2/2/2 1/1/1 
f 7/7/7 8/8/8 6/6/6 5/5/5 
f 9/9/9 10/10/10 8/8/8 7/7/7 
s 1
f 11/11/11 1/12/12 4/13/13 12/14/14 
f 13/15/15 5/16/16 1/12/12 11/11/11 
f 14/17/17 7/18/18 5/16/16 13/15/15 
f 15/19/19 9/20/20 7/18/18 14/17/17 
s 2
f 16/21/21 11/22/22 12/23/23 17/24/24 
f 18/25/25 13/26/26 11/22/22 16/21/21 
f 19/27/27 14/28/28 13/26/26 18/25/25 
f 20/29/29 15/30/30 14/28/28 19/27/27 
s 1
f 2/31/31 16/32/32 17/33/33 3/34/34 
f 6/35/35 18/36/36 16/32/32 2/31/31 
f 8/37/37 19/38/38 18/36/36 6/35/35 
f 10/39/39 20/40/40 19/38/38 8/37/37 
s 4
f 4/41/41 3/42/41 17/43/41 12/44/42 
f 10/45/43 9/46/43 15/47/43 20/48/43 
# 18 polygons

