# 3ds Max Wavefront OBJ Exporter v0.97b - (c)2007 guruware
# File Created: 21.11.2015 11:44:17

mtllib Pillar_05_Round_A_Column.mtl

#
# object Pillar_05_Round_A_Column
#

v  -36.398628 69.466080 -0.000011
v  -36.491707 425.909119 0.000055
v  -31.532774 69.466080 18.159641
v  -31.613363 425.909119 18.206240
v  -18.238993 69.466095 31.453436
v  -18.285498 425.909119 31.534088
v  -0.079344 69.466095 36.319298
v  -0.079308 425.909119 36.412403
v  18.080311 69.466095 31.453455
v  18.126881 425.909119 31.534071
v  31.374104 69.466080 18.159676
v  31.454727 425.909119 18.206211
v  36.239979 69.466080 0.000023
v  36.333050 425.909119 0.000016
v  31.374119 69.466080 -18.159626
v  31.454708 425.909119 -18.206167
v  18.080338 69.466064 -31.453421
v  18.126842 425.909119 -31.534018
v  -0.079308 69.466064 -36.319302
v  -0.079344 425.909119 -36.412354
v  -18.238958 69.466064 -31.453440
v  -18.285528 425.909119 -31.534000
v  -31.532759 69.466080 -18.159651
v  -31.613384 425.909119 -18.206129
# 24 vertices

vn -1.000000 -0.000261 -0.000000
vn -0.866026 -0.000261 0.500000
vn -0.866025 -0.000261 0.500001
vn -1.000000 -0.000261 0.000001
vn -0.866026 -0.000261 0.500000
vn -0.500000 -0.000261 0.866025
vn -0.499999 -0.000261 0.866026
vn -0.866025 -0.000261 0.500001
vn -0.500000 -0.000261 0.866025
vn -0.000000 -0.000261 1.000000
vn 0.000000 -0.000261 1.000000
vn -0.499999 -0.000261 0.866026
vn -0.000000 -0.000261 1.000000
vn 0.499999 -0.000261 0.866026
vn 0.500000 -0.000261 0.866025
vn 0.000000 -0.000261 1.000000
vn 0.499999 -0.000261 0.866026
vn 0.866025 -0.000261 0.500000
vn 0.866026 -0.000261 0.500000
vn 0.500000 -0.000261 0.866025
vn 0.866025 -0.000261 0.500000
vn 1.000000 -0.000261 0.000000
vn 1.000000 -0.000261 -0.000001
vn 0.866026 -0.000261 0.500000
vn 1.000000 -0.000261 0.000000
vn 0.866026 -0.000261 -0.500000
vn 0.866025 -0.000261 -0.500000
vn 1.000000 -0.000261 -0.000001
vn 0.866026 -0.000261 -0.500000
vn 0.500001 -0.000261 -0.866025
vn 0.500000 -0.000261 -0.866026
vn 0.866025 -0.000261 -0.500000
vn 0.500001 -0.000261 -0.866025
vn 0.000001 -0.000261 -1.000000
vn -0.000000 -0.000261 -1.000000
vn 0.500000 -0.000261 -0.866026
vn 0.000001 -0.000261 -1.000000
vn -0.500000 -0.000261 -0.866026
vn -0.500001 -0.000261 -0.866025
vn -0.000000 -0.000261 -1.000000
vn -0.500000 -0.000261 -0.866026
vn -0.866025 -0.000261 -0.500000
vn -0.866026 -0.000261 -0.499999
vn -0.500001 -0.000261 -0.866025
vn -0.866025 -0.000261 -0.500000
vn -1.000000 -0.000261 -0.000000
vn -1.000000 -0.000261 0.000001
vn -0.866026 -0.000261 -0.499999
vn 0.000000 1.000000 -0.000000
vn 0.000000 1.000000 -0.000000
vn 0.000000 1.000000 -0.000000
vn 0.000000 1.000000 -0.000000
vn 0.000000 1.000000 -0.000000
vn 0.000000 1.000000 -0.000000
vn 0.000000 1.000000 -0.000000
vn 0.000000 1.000000 -0.000000
vn 0.000000 1.000000 -0.000000
vn 0.000000 1.000000 -0.000000
vn 0.000000 1.000000 -0.000000
vn 0.000000 1.000000 -0.000000
vn 0.000000 1.000000 -0.000000
vn 0.000000 1.000000 -0.000000
vn 0.000000 1.000000 -0.000000
vn 0.000000 1.000000 -0.000000
vn 0.000000 1.000000 -0.000000
vn 0.000000 1.000000 -0.000000
vn 0.000000 1.000000 -0.000000
vn 0.000000 1.000000 -0.000000
vn 0.000000 1.000000 -0.000000
vn 0.000000 1.000000 -0.000000
vn 0.000000 1.000000 -0.000000
vn 0.000000 1.000000 -0.000000
vn -0.000000 -1.000000 0.000000
vn -0.000000 -1.000000 0.000000
vn -0.000000 -1.000000 0.000000
vn -0.000000 -1.000000 0.000000
vn 0.000000 -1.000000 0.000000
vn 0.000000 -1.000000 0.000000
vn 0.000000 -1.000000 0.000000
vn 0.000000 -1.000000 0.000000
vn 0.000000 -1.000000 -0.000000
vn 0.000000 -1.000000 -0.000000
vn 0.000000 -1.000000 -0.000000
vn 0.000000 -1.000000 0.000001
vn 0.000000 -1.000000 0.000001
vn 0.000000 -1.000000 0.000001
vn 0.000000 -1.000000 0.000001
vn -0.000000 -1.000000 0.000002
vn -0.000000 -1.000000 0.000002
vn -0.000000 -1.000000 0.000002
vn -0.000000 -1.000000 0.000000
vn -0.000000 -1.000000 0.000000
vn -0.000000 -1.000000 0.000000
vn 0.000000 -1.000000 -0.000000
vn 0.000000 -1.000000 -0.000000
vn 0.000000 -1.000000 -0.000000
# 96 vertex normals

vt 0.250835 0.000824 0.000000
vt 0.250200 0.851405 0.000000
vt 0.333997 0.000839 0.000000
vt 0.333577 0.851420 0.000000
vt 0.417159 0.000848 0.000000
vt 0.416955 0.851429 0.000000
vt 0.500321 0.000852 0.000000
vt 0.500332 0.851431 0.000000
vt 0.583483 0.000849 0.000000
vt 0.583709 0.851428 0.000000
vt 0.666645 0.000839 0.000000
vt 0.667086 0.851418 0.000000
vt 0.749806 0.000824 0.000000
vt 0.750463 0.851403 0.000000
vt 0.832967 0.000802 0.000000
vt 0.833840 0.851381 0.000000
vt 0.916128 0.000775 0.000000
vt 0.917217 0.851353 0.000000
vt 0.999288 0.000741 0.000000
vt 1.000594 0.851319 0.000000
vt 0.084511 0.000774 0.000000
vt 0.083446 0.851356 0.000000
vt 0.167673 0.000802 0.000000
vt 0.166823 0.851383 0.000000
vt 0.001348 0.000741 0.000000
vt 0.000069 0.851323 0.000000
vt 0.859351 0.944530 0.704107
vt 0.859349 0.908106 0.704107
vt 0.877560 0.876560 0.704107
vt 0.909104 0.858346 0.704107
vt 0.945529 0.858345 0.704107
vt 0.977074 0.876556 0.704107
vt 0.995288 0.908099 0.704107
vt 0.995290 0.944524 0.704107
vt 0.977079 0.976069 0.704107
vt 0.945535 0.994283 0.704107
vt 0.909111 0.994285 -0.704107
vt 0.877565 0.976074 0.704107
vt 0.005177 0.943095 0.711297
vt 0.023269 0.974629 0.711297
vt 0.054703 0.992893 0.711297
vt 0.091059 0.992993 0.711297
vt 0.122593 0.974902 0.711297
vt 0.140857 0.943467 0.711297
vt 0.140957 0.907112 0.711297
vt 0.122866 0.875577 0.711297
vt 0.091431 0.857313 0.711297
vt 0.023541 0.875305 0.711297
vt 0.005277 0.906740 0.711297
vt 0.055075 0.857213 -0.711297
# 50 texture coords

g Pillar_05_Round_A_Column
usemtl wire_115115115
s 1
f 1/1/1 3/3/2 4/4/3 2/2/4 
f 3/3/5 5/5/6 6/6/7 4/4/8 
f 5/5/9 7/7/10 8/8/11 6/6/12 
f 7/7/13 9/9/14 10/10/15 8/8/16 
f 9/9/17 11/11/18 12/12/19 10/10/20 
f 11/11/21 13/13/22 14/14/23 12/12/24 
f 13/13/25 15/15/26 16/16/27 14/14/28 
f 15/15/29 17/17/30 18/18/31 16/16/32 
f 17/17/33 19/19/34 20/20/35 18/18/36 
f 19/25/37 21/21/38 22/22/39 20/26/40 
f 21/21/41 23/23/42 24/24/43 22/22/44 
f 23/23/45 1/1/46 2/2/47 24/24/48 
s off
f 6/29/49 8/30/50 10/31/51 2/27/52 
f 10/31/53 12/32/54 14/33/55 18/35/56 
f 14/33/57 16/34/58 18/35/59 
f 18/35/60 20/36/61 22/37/62 2/27/63 
f 22/37/64 24/38/65 2/27/66 
f 10/31/67 18/35/68 2/27/69 
f 4/28/70 6/29/71 2/27/72 
f 23/49/73 21/48/74 19/50/75 3/40/76 
f 19/50/77 17/47/78 15/46/79 11/44/80 
f 15/46/81 13/45/82 11/44/83 
f 11/44/84 9/43/85 7/42/86 3/40/87 
f 7/42/88 5/41/89 3/40/90 
f 19/50/91 11/44/92 3/40/93 
f 1/39/94 23/49/95 3/40/96 
# 18 polygons - 8 triangles

