# 3ds Max Wavefront OBJ Exporter v0.97b - (c)2007 guruware
# File Created: 29.10.2015 16:58:10

mtllib Pillar_05_Square_B_Top.mtl

#
# object Pillar_05_Square_B_Top
#

v  35.850426 426.062073 35.914402
v  35.850414 426.062073 -35.785152
v  36.227551 427.525024 -36.162567
v  36.227844 427.525024 36.291538
v  39.227310 432.240295 -39.166142
v  39.231419 432.240265 39.291298
v  39.743835 433.863647 -39.684795
v  39.750072 433.863647 39.807823
v  39.465572 435.484253 -39.409019
v  39.474297 435.484253 39.529560
v  37.723000 438.144043 -37.671192
v  37.736469 438.144043 37.786987
v  48.937557 444.297363 -48.896805
v  48.962078 444.297363 49.001541
v  49.738640 445.650452 -49.700275
v  49.765549 445.650452 49.802624
v  49.877060 470.827209 -49.879490
v  49.944767 470.827179 49.941040
v  47.737156 472.821411 -47.739586
v  47.804855 472.821411 47.801128
v  49.878426 475.347046 -49.880856
v  49.946129 475.347046 49.942406
v  49.865032 502.129761 -49.867458
v  49.932735 502.129761 49.929008
v  -35.849140 426.062073 -35.785137
v  -36.226559 427.525024 -36.162277
v  -39.230133 432.240265 -39.162037
v  -39.748783 433.863647 -39.678558
v  -39.473011 435.484253 -39.400299
v  -37.735180 438.144043 -37.657719
v  -48.960785 444.297363 -48.872272
v  -49.764259 445.650452 -49.673359
v  -49.943470 470.827179 -49.811775
v  -47.803570 472.821411 -47.671875
v  -49.944839 475.347046 -49.813145
v  -49.931438 502.129761 -49.799744
v  -35.849125 426.062073 35.914417
v  -36.226265 427.525024 36.291832
v  -39.226021 432.240234 39.295410
v  -39.742550 433.863647 39.814056
v  -39.464287 435.484253 39.538284
v  -37.721710 438.144043 37.800453
v  -48.936264 444.297363 49.026058
v  -49.737347 445.650452 49.829529
v  -49.875755 470.827148 50.008739
v  -47.735851 472.821411 47.868835
v  -49.877129 475.347046 50.010109
v  -49.863728 502.129761 49.996708
# 48 vertices

vn 0.968297 -0.249802 -0.000004
vn 0.968341 -0.249630 -0.000000
vn 0.903070 -0.429493 -0.000002
vn 0.902916 -0.429818 -0.000028
vn 0.920069 -0.391757 -0.000034
vn 0.919683 -0.392661 -0.000064
vn 0.998362 -0.057220 -0.000066
vn 0.998270 -0.058789 -0.000095
vn 0.947414 0.320010 -0.000085
vn 0.947948 0.318424 -0.000126
vn 0.955626 -0.294581 -0.000132
vn 0.955580 -0.294732 -0.000196
vn 0.771535 -0.636187 -0.000185
vn 0.770932 -0.636918 -0.000205
vn 0.975548 -0.219788 -0.000257
vn 0.975212 -0.221273 -0.000473
vn 0.955719 0.294282 -0.000415
vn 0.956171 0.292808 -0.000657
vn 0.997457 0.071263 -0.000692
vn 0.997458 0.071257 -0.000691
vn 0.963847 -0.266457 -0.000663
vn 0.963953 -0.266073 -0.000654
vn 1.000000 0.000500 -0.000678
vn -0.000004 -0.249800 -0.968297
vn -0.000000 -0.249632 -0.968341
vn -0.000002 -0.429496 -0.903069
vn -0.000028 -0.429815 -0.902917
vn -0.000034 -0.391754 -0.920070
vn -0.000064 -0.392663 -0.919682
vn -0.000066 -0.057218 -0.998362
vn -0.000095 -0.058791 -0.998270
vn -0.000085 0.320009 -0.947414
vn -0.000126 0.318424 -0.947948
vn -0.000132 -0.294580 -0.955627
vn -0.000196 -0.294732 -0.955580
vn -0.000185 -0.636188 -0.771534
vn -0.000206 -0.636918 -0.770932
vn -0.000257 -0.219789 -0.975547
vn -0.000473 -0.221273 -0.975212
vn -0.000416 0.294280 -0.955719
vn -0.000657 0.292810 -0.956170
vn -0.000693 0.071257 -0.997458
vn -0.000691 0.071263 -0.997457
vn -0.000663 -0.266458 -0.963846
vn -0.000654 -0.266073 -0.963953
vn -0.000678 0.000501 -1.000000
vn -0.000679 0.000500 -1.000000
vn -0.968297 -0.249802 0.000004
vn -0.968341 -0.249632 0.000000
vn -0.903068 -0.429497 0.000002
vn -0.902916 -0.429818 0.000028
vn -0.920070 -0.391754 0.000034
vn -0.919684 -0.392660 0.000064
vn -0.998362 -0.057217 0.000066
vn -0.998270 -0.058789 0.000095
vn -0.947414 0.320010 0.000085
vn -0.947949 0.318423 0.000126
vn -0.955627 -0.294581 0.000132
vn -0.955580 -0.294731 0.000196
vn -0.771535 -0.636187 0.000185
vn -0.770931 -0.636919 0.000206
vn -0.975547 -0.219789 0.000257
vn -0.975212 -0.221274 0.000473
vn -0.955720 0.294278 0.000416
vn -0.956171 0.292807 0.000657
vn -0.997458 0.071253 0.000693
vn -0.997458 0.071257 0.000691
vn -0.963846 -0.266458 0.000663
vn -0.963953 -0.266073 0.000654
vn -1.000000 0.000501 0.000678
vn -1.000000 0.000500 0.000678
vn 0.000004 -0.249800 0.968297
vn 0.000000 -0.249630 0.968341
vn 0.000002 -0.429495 0.903069
vn 0.000028 -0.429819 0.902915
vn 0.000034 -0.391755 0.920070
vn 0.000064 -0.392657 0.919685
vn 0.000066 -0.057218 0.998362
vn 0.000095 -0.058785 0.998271
vn 0.000085 0.320010 0.947414
vn 0.000126 0.318423 0.947949
vn 0.000132 -0.294581 0.955626
vn 0.000196 -0.294731 0.955580
vn 0.000185 -0.636187 0.771535
vn 0.000205 -0.636918 0.770932
vn 0.000257 -0.219788 0.975548
vn 0.000473 -0.221273 0.975212
vn 0.000415 0.294280 0.955719
vn 0.000657 0.292806 0.956172
vn 0.000692 0.071259 0.997458
vn 0.000691 0.071252 0.997458
vn 0.000663 -0.266458 0.963846
vn 0.000654 -0.266073 0.963953
vn 0.000678 0.000500 1.000000
vn 0.000000 -1.000000 -0.000000
vn 0.000000 1.000000 -0.000000
# 96 vertex normals

vt 0.471521 0.766671 0.000000
vt 0.754585 0.766672 0.000000
vt 0.756075 0.770157 0.000000
vt 0.470032 0.770154 0.000000
vt 0.767933 0.786312 0.000000
vt 0.458190 0.786313 0.000000
vt 0.769983 0.790390 0.000000
vt 0.456153 0.790392 0.000000
vt 0.768898 0.794022 0.000000
vt 0.457255 0.794020 0.000000
vt 0.762043 0.803309 0.000000
vt 0.464141 0.803289 0.000000
vt 0.806356 0.852548 0.000000
vt 0.419862 0.852548 0.000000
vt 0.809533 0.856997 0.000000
vt 0.416704 0.856998 0.000000
vt 0.810245 0.910283 0.000000
vt 0.416161 0.910287 0.525012
vt 0.801806 0.920280 0.000000
vt 0.424619 0.920281 0.000000
vt 0.810255 0.930807 0.000000
vt 0.416161 0.930803 0.000000
vt 0.810203 0.987481 0.000000
vt 0.416215 0.987481 0.000000
vt 0.068948 0.530798 0.000000
vt 0.351995 0.534151 0.000000
vt 0.353448 0.537651 0.000000
vt 0.067423 0.534263 0.000000
vt 0.365137 0.553937 0.000000
vt 0.055413 0.550281 0.000000
vt 0.367139 0.558031 0.000000
vt 0.053328 0.554331 0.000000
vt 0.366009 0.561641 0.000000
vt 0.054385 0.557963 0.000000
vt 0.359048 0.570834 0.000000
vt 0.061164 0.567301 0.000000
vt 0.402842 0.620579 0.000000
vt 0.016371 0.616023 0.000000
vt 0.405962 0.625051 0.000000
vt 0.013157 0.620428 0.000000
vt 0.406120 0.678335 0.409563
vt 0.012061 0.673697 0.000000
vt 0.397574 0.688229 0.000000
vt 0.020410 0.683781 0.000000
vt 0.405912 0.698853 0.000000
vt 0.011842 0.694194 0.000000
vt 0.405277 0.755525 0.000000
vt 0.011313 0.750867 0.000000
vt 0.469922 0.537090 0.000000
vt 0.752985 0.537090 0.000000
vt 0.754475 0.540574 0.000000
vt 0.468432 0.540571 0.000000
vt 0.766330 0.556725 0.000000
vt 0.456586 0.556726 0.000000
vt 0.768373 0.560796 0.000000
vt 0.454543 0.560798 0.000000
vt 0.767279 0.564421 0.000000
vt 0.455636 0.564416 0.000000
vt 0.760411 0.573697 0.000000
vt 0.462508 0.573670 0.000000
vt 0.804707 0.622922 0.000000
vt 0.418213 0.622914 0.000000
vt 0.807871 0.627354 0.000000
vt 0.415042 0.627352 0.000000
vt 0.808572 0.680626 0.000014
vt 0.414489 0.680630 0.526264
vt 0.800126 0.690615 0.000000
vt 0.422939 0.690615 0.000000
vt 0.808571 0.701135 0.000000
vt 0.414477 0.701131 0.000000
vt 0.808517 0.757808 0.000000
vt 0.414529 0.757808 0.000000
vt 0.073575 0.765208 0.000000
vt 0.356638 0.765844 0.000000
vt 0.358120 0.769330 0.000000
vt 0.072078 0.768688 0.000000
vt 0.369945 0.785502 0.000000
vt 0.060202 0.784818 0.000000
vt 0.371981 0.789574 0.000000
vt 0.058152 0.788886 0.000000
vt 0.370880 0.793192 0.000000
vt 0.059238 0.792506 0.000000
vt 0.363996 0.802448 0.000000
vt 0.066094 0.801774 0.000000
vt 0.408202 0.851766 0.000000
vt 0.021709 0.850920 0.000000
vt 0.411359 0.856204 0.000000
vt 0.018531 0.855350 0.000000
vt 0.411961 0.909480 0.585468
vt 0.017879 0.908625 0.000016
vt 0.403497 0.919455 0.000000
vt 0.026311 0.918625 0.000000
vt 0.411923 0.929998 0.000000
vt 0.017830 0.929120 0.000000
vt 0.411760 0.986672 0.000000
vt 0.017773 0.985795 0.000000
vt 0.967617 0.797549 0.000000
vt 0.842419 0.796802 0.000000
vt 0.843207 0.678205 0.000000
vt 0.968406 0.678951 0.000000
vt 0.822870 0.990524 0.000000
vt 0.823840 0.820919 0.000000
vt 0.993444 0.821889 0.000000
vt 0.992475 0.991494 0.000000
# 104 texture coords

g Pillar_05_Square_B_Top
usemtl 10___Default
s 32
f 1/1/1 2/2/2 3/3/3 4/4/4 
f 4/4/4 3/3/3 5/5/5 6/6/6 
f 6/6/6 5/5/5 7/7/7 8/8/8 
f 8/8/8 7/7/7 9/9/9 10/10/10 
f 10/10/10 9/9/9 11/11/11 12/12/12 
f 12/12/12 11/11/11 13/13/13 14/14/14 
f 14/14/14 13/13/13 15/15/15 16/16/16 
f 16/16/16 15/15/15 17/17/17 18/18/18 
f 18/18/18 17/17/17 19/19/19 20/20/20 
f 20/20/20 19/19/19 21/21/21 22/22/22 
f 22/22/22 21/21/21 23/23/23 24/24/23 
s 16
f 2/25/24 25/26/25 26/27/26 3/28/27 
f 3/28/27 26/27/26 27/29/28 5/30/29 
f 5/30/29 27/29/28 28/31/30 7/32/31 
f 7/32/31 28/31/30 29/33/32 9/34/33 
f 9/34/33 29/33/32 30/35/34 11/36/35 
f 11/36/35 30/35/34 31/37/36 13/38/37 
f 13/38/37 31/37/36 32/39/38 15/40/39 
f 15/40/39 32/39/38 33/41/40 17/42/41 
f 17/42/41 33/41/40 34/43/42 19/44/43 
f 19/44/43 34/43/42 35/45/44 21/46/45 
f 21/46/45 35/45/44 36/47/46 23/48/47 
s 32
f 25/49/48 37/50/49 38/51/50 26/52/51 
f 26/52/51 38/51/50 39/53/52 27/54/53 
f 27/54/53 39/53/52 40/55/54 28/56/55 
f 28/56/55 40/55/54 41/57/56 29/58/57 
f 29/58/57 41/57/56 42/59/58 30/60/59 
f 30/60/59 42/59/58 43/61/60 31/62/61 
f 31/62/61 43/61/60 44/63/62 32/64/63 
f 32/64/63 44/63/62 45/65/64 33/66/65 
f 33/66/65 45/65/64 46/67/66 34/68/67 
f 34/68/67 46/67/66 47/69/68 35/70/69 
f 35/70/69 47/69/68 48/71/70 36/72/71 
s 16
f 37/73/72 1/74/73 4/75/74 38/76/75 
f 38/76/75 4/75/74 6/77/76 39/78/77 
f 39/78/77 6/77/76 8/79/78 40/80/79 
f 40/80/79 8/79/78 10/81/80 41/82/81 
f 41/82/81 10/81/80 12/83/82 42/84/83 
f 42/84/83 12/83/82 14/85/84 43/86/85 
f 43/86/85 14/85/84 16/87/86 44/88/87 
f 44/88/87 16/87/86 18/89/88 45/90/89 
f 45/90/89 18/89/88 20/91/90 46/92/91 
f 46/92/91 20/91/90 22/93/92 47/94/93 
f 47/94/93 22/93/92 24/95/94 48/96/94 
s 2
f 2/97/95 1/98/95 37/99/95 25/100/95 
f 24/101/96 23/102/96 36/103/96 48/104/96 
# 46 polygons

