# 3ds Max Wavefront OBJ Exporter v0.97b - (c)2007 guruware
# File Created: 29.10.2015 16:58:15

mtllib Pillar_05_Square_A_Column.mtl

#
# object Pillar_05_Square_A_Column
#

v  35.840073 69.220543 -35.840038
v  -35.727848 69.220543 -35.840084
v  -35.793713 426.076019 -35.905891
v  35.905842 426.076019 -35.905891
v  -35.727894 69.220543 35.727837
v  -35.793705 426.076019 35.793659
v  35.840023 69.220543 35.727894
v  35.905846 426.076019 35.793655
# 8 vertices

vn 0.000001 -0.000184 -1.000000
vn 0.000000 -0.000185 -1.000000
vn -1.000000 -0.000184 -0.000001
vn -1.000000 -0.000185 0.000000
vn -0.000001 -0.000184 1.000000
vn -0.000000 -0.000184 1.000000
vn 0.000000 -0.000184 1.000000
vn 1.000000 -0.000184 0.000001
vn 1.000000 -0.000184 0.000000
vn 1.000000 -0.000184 -0.000000
vn 0.000000 -1.000000 -0.000000
vn 0.000000 1.000000 -0.000000
# 12 vertex normals

vt 0.502043 0.002514 -0.183071
vt 0.749010 0.002514 0.000000
vt 0.749237 0.847207 0.000000
vt 0.501815 0.847207 0.183071
vt 0.751235 0.002574 0.000000
vt 0.998201 0.002577 0.000000
vt 0.998407 0.847271 0.000000
vt 0.750986 0.847268 0.000000
vt 0.002254 0.002435 0.000000
vt 0.249221 0.002440 0.000000
vt 0.249412 0.847134 0.000000
vt 0.001991 0.847129 0.243344
vt 0.251009 0.002562 0.000000
vt 0.497977 0.002562 0.264015
vt 0.498204 0.847256 -0.264015
vt 0.250782 0.847256 0.000000
vt 0.993598 0.855608 -0.908610
vt 0.993586 0.995223 -0.908610
vt 0.853971 0.995211 -0.908610
vt 0.853982 0.855596 0.908610
vt 0.005512 0.853939 0.000000
vt 0.145384 0.853939 0.000000
vt 0.145384 0.993811 0.000000
vt 0.005512 0.993811 0.000000
# 24 texture coords

g Pillar_05_Square_A_Column
usemtl 02___default
s 1
f 1/1/1 2/2/1 3/3/2 4/4/2 
s 4
f 2/5/3 5/6/3 6/7/4 3/8/4 
s 1
f 5/9/5 7/10/5 8/11/6 6/12/7 
s 4
f 7/13/8 1/14/8 4/15/9 8/16/10 
s off
f 2/17/11 1/18/11 7/19/11 5/20/11 
f 4/21/12 3/22/12 6/23/12 8/24/12 
# 6 polygons

