mtllib ./TunnelMouldingCornerOut.mtl
g pb-Cube-1962402
v 0 0 0.1999998
v -0.2 0 0.1999998
v 0 0.2 0.1999998
v -0.2 0.2 0.1999998
v -0.2 0 0
v -0.2 0.2 0
v -0.2 0 0.1999998
v -0.2 0.2 0.1999998
v -0.2 0.2 0
v 0 0.2 0
v -0.2 0.2 0.1999998
v 0 0.2 0.1999998
v 0 0 0.1999998
v -0.2 0 0.1999998
v 0 0.2 0.1999998
v -0.2 0.2 0.1999998
v -0.2 0 0
v -0.2 0.2 0
v 0 0.2 0
v -0.2 0 0
v -0.2 0 -3
v -0.2 0.2 0
v -0.2 0.2 -3
v 0 0.2 0
v -0.2 0.2 0
v 0 0.2 -3
v -0.2 0.2 -3
v 0 0.2 0.1999998
v 0 0.2 0
v 3 0.2 0.1999998
v 3 0.2 0
v 0 0 0.1999998
v 0 0.2 0.1999998
v 3 0 0.1999998
v 3 0.2 0.1999998

vn 0 0 1
vn 0 0 1
vn 0 0 1
vn 0 0 1
vn -1 0 0
vn -1 0 0
vn -1 0 0
vn -1 0 0
vn 0 1 0
vn 0 1 0
vn 0 1 0
vn 0 1 0
vn 0 0 0
vn 0 0 0
vn 0 0 0
vn 0 0 0
vn 0 0 0
vn 0 0 0
vn 0 0 0
vn -1 0 0
vn -1 0 0
vn -1 0 0
vn -1 0 0
vn 0 1 0
vn 0 1 0
vn 0 1 0
vn 0 1 0
vn 0 1 0
vn 0 1 0
vn 0 1 0
vn 0 1 0
vn 0 0 1
vn 0 0 1
vn 0 0 1
vn 0 0 1

vt 1.133333 0.1333333
vt 1.133333 0.0666666
vt 1.066666 0.1333333
vt 1.066666 0.0666666
vt 0.9999998 0
vt 0.9999998 0.06666666
vt 1.066666 0
vt 1.066666 0.06666666
vt 0.9999999 0.06666654
vt 0.9999999 0.1333333
vt 1.066666 0.06666654
vt 1.066666 0.1333333
vt 0 0
vt 0 0
vt 0 0
vt 0 0
vt 0 0
vt 0 0
vt 0 0
vt 0.9999998 0
vt 0 0
vt 0.9999998 0.06666666
vt 0 0.06666666
vt 0.9999999 0.1333333
vt 0.9999999 0.06666663
vt -2.980232E-08 0.1333333
vt -2.980232E-08 0.06666668
vt 0 0.0666667
vt 0 0.1333333
vt 1 0.06666661
vt 1 0.1333332
vt 0 0
vt 0 0.06666666
vt 1 0
vt 1 0.06666666

g Default_Prototype 2
usemtl Default_Prototype 2
usemap Default_Prototype 2
f 2/2/2 1/1/1 3/3/3
f 4/4/4 2/2/2 3/3/3
f 6/6/6 5/5/5 7/7/7
f 8/8/8 6/6/6 7/7/7
f 10/10/10 9/9/9 11/11/11
f 12/12/12 10/10/10 11/11/11
f 14/14/14 13/13/13 13/13/13
f 14/14/14 14/14/14 13/13/13
f 13/13/13 15/15/15 15/15/15
f 13/13/13 13/13/13 15/15/15
f 16/16/16 14/14/14 14/14/14
f 16/16/16 16/16/16 14/14/14
f 15/15/15 16/16/16 16/16/16
f 15/15/15 15/15/15 16/16/16
f 18/18/18 17/17/17 17/17/17
f 18/18/18 18/18/18 17/17/17
f 17/17/17 14/14/14 14/14/14
f 17/17/17 17/17/17 14/14/14
f 16/16/16 18/18/18 18/18/18
f 16/16/16 16/16/16 18/18/18
f 14/14/14 16/16/16 16/16/16
f 14/14/14 14/14/14 16/16/16
f 19/19/19 18/18/18 18/18/18
f 19/19/19 19/19/19 18/18/18
f 18/18/18 16/16/16 16/16/16
f 18/18/18 18/18/18 16/16/16
f 15/15/15 19/19/19 19/19/19
f 15/15/15 15/15/15 19/19/19
f 16/16/16 15/15/15 15/15/15
f 16/16/16 16/16/16 15/15/15

g Default_Prototype
usemtl Default_Prototype
usemap Default_Prototype
f 21/21/21 20/20/20 22/22/22
f 23/23/23 21/21/21 22/22/22
f 25/25/25 24/24/24 26/26/26
f 27/27/27 25/25/25 26/26/26
f 29/29/29 28/28/28 30/30/30
f 31/31/31 29/29/29 30/30/30
f 33/33/33 32/32/32 34/34/34
f 35/35/35 33/33/33 34/34/34
