mtllib ./TunnelCorner.mtl
g pb-Cube-917266
v 1.5 3 1.5
v -1.5 3 1.5
v -1.5 0 1.5
v 1.5 0 1.5
v -1.5 3 -1.5
v -1.5 3 -4.5
v -1.5 0 -4.5
v -1.5 0 -1.5
v 1.5 3 -4.5
v 1.5 3 -1.5
v 1.5 0 -1.5
v 1.5 0 -4.5
v -1.5 0 1.5
v -1.5 3 1.5
v -1.5 3 -1.5
v -1.5 0 -1.5
v 4.5 3 -1.5
v 4.5 0 -1.5
v 1.5 0 -1.5
v 1.5 3 -1.5
v 4.5 0 1.5
v 4.5 3 1.5
v 1.5 3 1.5
v 1.5 0 1.5
v 1.5 3 -4.5
v -1.5 3 -4.5
v -1.5 3 -1.5
v 1.5 3 -1.5
v -1.5 3 1.5
v 1.5 3 1.5
v 1.5 3 -1.5
v -1.5 3 -1.5
v 4.5 3 1.5
v 4.5 3 -1.5
v 1.5 3 -1.5
v 1.5 3 1.5
v 1.5 0 -1.5
v -1.5 0 -1.5
v -1.5 0 -4.5
v 1.5 0 -4.5
v 1.5 0 1.5
v -1.5 0 1.5
v -1.5 0 -1.5
v 1.5 0 -1.5
v 4.5 0 -1.5
v 4.5 0 1.5
v 1.5 0 1.5
v 1.5 0 -1.5
v 4.5 0 1.5
v 4.5 0 2
v 4.5 3 2
v 4.5 3 1.5
v 4.5 3 -2
v 4.5 0 -1.5
v 4.5 3 -1.5
v 4.5 0 -2
v 4.5 3.5 1.5
v 4.5 3 1.5
v 4.5 3.5 -1.5
v 4.5 3.5 -1.5
v 4.5 3.5 -2
v 4.5 3.5 2
v 4.5 3.5 1.5
v 4.5 -0.5 -1.5
v 4.5 -0.5 1.5
v 4.5 -0.5 -2
v 4.5 0 -1.5
v 4.5 0 -2
v 4.5 -0.5 -1.5
v 4.5 -0.5 1.5
v 4.5 -0.5 2
v 2 0 -4.5
v 1.5 3 -4.5
v 1.5 0 -4.5
v 2 3 -4.5
v -2 3 -4.5
v -1.5 0 -4.5
v -1.5 3 -4.5
v -2 0 -4.5
v 1.5 3.5 -4.5
v -1.5 3.5 -4.5
v -1.5 3.5 -4.5
v -2 3.5 -4.5
v 2 3.5 -4.5
v 1.5 3.5 -4.5
v 1.5 -0.5 -4.5
v 2 0 -4.5
v 2 -0.5 -4.5
v -1.5 -0.5 -4.5
v 1.5 -0.5 -4.5
v -2 -0.5 -4.5

vn 0 0 -1
vn 0 0 -1
vn 0 0 -1
vn 0 0 -1
vn 1 0 0
vn 1 0 0
vn 1 0 0
vn 1 0 0
vn -1 0 0
vn -1 0 0
vn -1 0 0
vn -1 0 0
vn 1 0 0
vn 1 0 0
vn 1 0 0
vn 1 0 0
vn 0 0 1
vn 0 0 1
vn 0 0 1
vn 0 0 1
vn 0 0 -1
vn 0 0 -1
vn 0 0 -1
vn 0 0 -1
vn 0 -1 0
vn 0 -1 0
vn 0 -1 0
vn 0 -1 0
vn 0 -1 0
vn 0 -1 0
vn 0 -1 0
vn 0 -1 0
vn 0 -1 0
vn 0 -1 0
vn 0 -1 0
vn 0 -1 0
vn 0 1 0
vn 0 1 0
vn 0 1 0
vn 0 1 0
vn 0 1 0
vn 0 1 0
vn 0 1 0
vn 0 1 0
vn 0 1 0
vn 0 1 0
vn 0 1 0
vn 0 1 0
vn 1 0 0
vn 1 0 0
vn 1 0 0
vn 1 0 0
vn 1 0 0
vn 1 0 0
vn 1 0 0
vn 1 0 0
vn 1 0 0
vn 1 0 0
vn 1 0 0
vn 1 0 0
vn 1 0 0
vn 1 0 0
vn 1 0 0
vn 1 0 0
vn 1 0 0
vn 1 0 0
vn 1 0 0
vn 1 0 0
vn 1 0 0
vn 1 0 0
vn 1 0 0
vn 0 0 -1
vn 0 0 -1
vn 0 0 -1
vn 0 0 -1
vn 0 0 -1
vn 0 0 -1
vn 0 0 -1
vn 0 0 -1
vn 0 0 -1
vn 0 0 -1
vn 0 0 -1
vn 0 0 -1
vn 0 0 -1
vn 0 0 -1
vn 0 0 -1
vn 0 0 -1
vn 0 0 -1
vn 0 0 -1
vn 0 0 -1
vn 0 0 -1

vt 0 1
vt 1 1
vt 1 0
vt 0 0
vt 0 1
vt 1 1
vt 1 0
vt 0 0
vt 0 1
vt 1 1
vt 1 0
vt 0 0
vt 0 0
vt 0 1
vt 1 1
vt 1 0
vt 0.9999999 1.000271
vt 1 0
vt 0 0
vt 0 1
vt 0 0
vt 0 1
vt 1 1
vt 1 0
vt 1 0
vt 0 0
vt 0 1
vt 1 1
vt 0 1
vt 1 1
vt 1 0
vt 0 0
vt 1 1
vt 1 0
vt 0 0
vt 0 1
vt 0 1
vt 1 1
vt 1 0
vt 0 0
vt 0 1
vt 1 1
vt 1 0
vt 0 0
vt 0 0
vt 0 1
vt 1 1
vt 1 0
vt 0.0004075021 0
vt -0.1662592 0
vt -0.1662592 1
vt 0.0004075021 1
vt 1.166667 1
vt 1 0
vt 1 1.000135
vt 1.166667 0
vt -1.192093E-07 1.167751
vt -1.192093E-07 1.001084
vt 0.9999999 1.167209
vt 1.000141 1.166805
vt 1.166807 1.166664
vt -0.1662592 1.166667
vt 0.0004075766 1.166667
vt 1 -0.1680274
vt 0 -0.1680274
vt 1.165235 -0.1666666
vt 0.998568 0
vt 1.165235 0
vt 0.998568 -0.1666666
vt 0.0004075766 -0.1666667
vt -0.1662592 -0.1666667
vt -0.1666667 0
vt 0 1
vt 0 0
vt -0.1666667 1
vt 1.166667 1
vt 1 0
vt 1 1
vt 1.166667 0
vt 0 1.166548
vt 1 1.166548
vt 1 1.166667
vt 1.166667 1.166667
vt -0.1666667 1.166667
vt 0 1.166667
vt 9.611249E-05 -0.167668
vt -0.1678726 0.0003007948
vt -0.1678726 -0.167668
vt 1 -0.1666667
vt 0 -0.1666667
vt 1.166667 -0.1666667

g Default_Prototype
usemtl Default_Prototype
usemap Default_Prototype
f 2/2/2 1/1/1 3/3/3
f 3/3/3 1/1/1 4/4/4
f 6/6/6 5/5/5 7/7/7
f 7/7/7 5/5/5 8/8/8
f 10/10/10 9/9/9 11/11/11
f 11/11/11 9/9/9 12/12/12
f 14/14/14 13/13/13 15/15/15
f 15/15/15 13/13/13 16/16/16
f 18/18/18 17/17/17 19/19/19
f 19/19/19 17/17/17 20/20/20
f 22/22/22 21/21/21 23/23/23
f 23/23/23 21/21/21 24/24/24

g Default_Prototype 2
usemtl Default_Prototype 2
usemap Default_Prototype 2
f 26/26/26 25/25/25 27/27/27
f 27/27/27 25/25/25 28/28/28
f 30/30/30 29/29/29 31/31/31
f 31/31/31 29/29/29 32/32/32
f 34/34/34 33/33/33 35/35/35
f 35/35/35 33/33/33 36/36/36

g Default_Prototype 4
usemtl Default_Prototype 4
usemap Default_Prototype 4
f 38/38/38 37/37/37 39/39/39
f 39/39/39 37/37/37 40/40/40
f 42/42/42 41/41/41 43/43/43
f 43/43/43 41/41/41 44/44/44
f 46/46/46 45/45/45 47/47/47
f 47/47/47 45/45/45 48/48/48

g Default_Prototype 3
usemtl Default_Prototype 3
usemap Default_Prototype 3
f 50/50/50 49/49/49 51/51/51
f 49/49/49 52/52/52 51/51/51
f 54/54/54 53/53/53 55/55/55
f 56/56/56 53/53/53 54/54/54
f 55/55/55 57/57/57 58/58/58
f 59/59/59 57/57/57 55/55/55
f 53/53/53 60/60/60 55/55/55
f 61/61/61 60/60/60 53/53/53
f 52/52/52 62/62/62 51/51/51
f 63/63/63 62/62/62 52/52/52
f 49/49/49 64/64/64 54/54/54
f 65/65/65 64/64/64 49/49/49
f 67/67/67 66/66/66 68/68/68
f 69/69/69 66/66/66 67/67/67
f 50/50/50 70/70/70 49/49/49
f 71/71/71 70/70/70 50/50/50
f 73/73/73 72/72/72 74/74/74
f 75/75/75 72/72/72 73/73/73
f 77/77/77 76/76/76 78/78/78
f 79/79/79 76/76/76 77/77/77
f 78/78/78 80/80/80 73/73/73
f 81/81/81 80/80/80 78/78/78
f 76/76/76 82/82/82 78/78/78
f 83/83/83 82/82/82 76/76/76
f 73/73/73 84/84/84 75/75/75
f 85/85/85 84/84/84 73/73/73
f 87/87/87 86/86/86 74/74/74
f 88/88/88 86/86/86 87/87/87
f 74/74/74 89/89/89 77/77/77
f 90/90/90 89/89/89 74/74/74
f 77/77/77 91/91/91 79/79/79
f 89/89/89 91/91/91 77/77/77
