mtllib ./TunnelCrossIntersection.mtl
g pb-Cube-263202
v 1.5 3 -1.5
v -1.5 3 -1.5
v -1.5 3 1.5
v 1.5 3 1.5
v -4.5 3 -1.5
v -4.5 3 1.5
v -1.5 3 1.5
v -1.5 3 -1.5
v 1.5 3 -4.5
v -1.5 3 -4.5
v -1.5 3 -1.5
v 1.5 3 -1.5
v 4.5 3 1.5
v 4.5 3 -1.5
v 1.5 3 -1.5
v 1.5 3 1.5
v -1.5 3 4.5
v 1.5 3 4.5
v 1.5 3 1.5
v -1.5 3 1.5
v 1.5 0 1.5
v -1.5 0 1.5
v -1.5 0 -1.5
v 1.5 0 -1.5
v -4.5 0 1.5
v -4.5 0 -1.5
v -1.5 0 -1.5
v -1.5 0 1.5
v -1.5 0 -4.5
v 1.5 0 -4.5
v 1.5 0 -1.5
v -1.5 0 -1.5
v 4.5 0 -1.5
v 4.5 0 1.5
v 1.5 0 1.5
v 1.5 0 -1.5
v 1.5 0 4.5
v -1.5 0 4.5
v -1.5 0 1.5
v 1.5 0 1.5
v -4.5 3 1.5
v -4.5 0 1.5
v -1.5 0 1.5
v -1.5 3 1.5
v -4.5 0 -1.5
v -4.5 3 -1.5
v -1.5 3 -1.5
v -1.5 0 -1.5
v -1.5 3 -4.5
v -1.5 0 -4.5
v -1.5 0 -1.5
v -1.5 3 -1.5
v 1.5 0 -4.5
v 1.5 3 -4.5
v 1.5 3 -1.5
v 1.5 0 -1.5
v 4.5 3 -1.5
v 4.5 0 -1.5
v 1.5 0 -1.5
v 1.5 3 -1.5
v 4.5 0 1.5
v 4.5 3 1.5
v 1.5 3 1.5
v 1.5 0 1.5
v 1.5 3 4.5
v 1.5 0 4.5
v 1.5 0 1.5
v 1.5 3 1.5
v -1.5 0 4.5
v -1.5 3 4.5
v -1.5 3 1.5
v -1.5 0 1.5
v -1.5 3.5 4.5
v 1.5 3 4.5
v -1.5 3 4.5
v 1.5 3.5 4.5
v 4.5 3.5 1.5
v 4.5 3 -1.5
v 4.5 3 1.5
v 4.5 3.5 -1.5
v 1.5 3.5 -4.5
v -1.5 3 -4.5
v 1.5 3 -4.5
v -1.5 3.5 -4.5
v -4.5 3.5 -1.5
v -4.5 3 1.5
v -4.5 3 -1.5
v -4.5 3.5 1.5
v -4.5 -0.5 1.5
v -4.5 0 -1.5
v -4.5 0 1.5
v -4.5 -0.5 -1.5
v 1.5 -0.5 4.5
v -1.5 0 4.5
v 1.5 0 4.5
v -1.5 -0.5 4.5
v 4.5 -0.5 -1.5
v 4.5 0 1.5
v 4.5 0 -1.5
v 4.5 -0.5 1.5
v -1.5 -0.5 -4.5
v 1.5 0 -4.5
v -1.5 0 -4.5
v 1.5 -0.5 -4.5
v -2 0 4.5
v -1.5 0 4.5
v -2 3 4.5
v -2 3.5 4.5
v -2 -0.5 4.5
v -2 0 4.5
v 2 3.5 4.5
v 2 3 4.5
v 2 3 4.5
v 1.5 0 4.5
v 1.5 3 4.5
v 2 0 4.5
v 2 0 4.5
v 2 -0.5 4.5
v 4.5 3 2
v 4.5 3.5 2
v 4.5 0 2
v 4.5 3 1.5
v 4.5 0 1.5
v 4.5 3 2
v 4.5 -0.5 2
v 4.5 0 2
v 4.5 3.5 -2
v 4.5 3 -2
v 4.5 3 -2
v 4.5 0 -1.5
v 4.5 3 -1.5
v 4.5 0 -2
v 4.5 0 -2
v 4.5 -0.5 -2
v -2.25 0 -4.5
v -2.25 -0.5 -4.5
v -2.25 3.5 -4.5
v -2.25 3 -4.5
v -2.25 3 -4.5
v -1.5 3 -4.5
v 2 0 -4.5
v 1.5 3 -4.5
v 2 3 -4.5
v 2 3 -4.5
v 2 3.5 -4.5
v 2 -0.5 -4.5
v -4.5 0 -2
v -4.5 0 -1.5
v -4.5 3 -2
v -4.5 3.5 -2
v -4.5 -0.5 -2
v -4.5 0 -2
v -4.5 3.5 2
v -4.5 3 2
v -4.5 0 1.5
v -4.5 0 2
v -4.5 0 2
v -4.5 -0.5 1.5
v -4.5 0 1.5
v -4.5 -0.5 2

vn 0 -1 0
vn 0 -1 0
vn 0 -1 0
vn 0 -1 0
vn 0 -1 0
vn 0 -1 0
vn 0 -1 0
vn 0 -1 0
vn 0 -1 0
vn 0 -1 0
vn 0 -1 0
vn 0 -1 0
vn 0 -1 0
vn 0 -1 0
vn 0 -1 0
vn 0 -1 0
vn 0 -1 0
vn 0 -1 0
vn 0 -1 0
vn 0 -1 0
vn 0 1 0
vn 0 1 0
vn 0 1 0
vn 0 1 0
vn 0 1 0
vn 0 1 0
vn 0 1 0
vn 0 1 0
vn 0 1 0
vn 0 1 0
vn 0 1 0
vn 0 1 0
vn 0 1 0
vn 0 1 0
vn 0 1 0
vn 0 1 0
vn 0 1 0
vn 0 1 0
vn 0 1 0
vn 0 1 0
vn 0 0 -1
vn 0 0 -1
vn 0 0 -1
vn 0 0 -1
vn 0 0 1
vn 0 0 1
vn 0 0 1
vn 0 0 1
vn 1 0 0
vn 1 0 0
vn 1 0 0
vn 1 0 0
vn -1 0 0
vn -1 0 0
vn -1 0 0
vn -1 0 0
vn 0 0 1
vn 0 0 1
vn 0 0 1
vn 0 0 1
vn 0 0 -1
vn 0 0 -1
vn 0 0 -1
vn 0 0 -1
vn -1 0 0
vn -1 0 0
vn -1 0 0
vn -1 0 0
vn 1 0 0
vn 1 0 0
vn 1 0 0
vn 1 0 0
vn 0 0 1
vn 0 0 1
vn 0 0 1
vn 0 0 1
vn 1 0 0
vn 1 0 0
vn 1 0 0
vn 1 0 0
vn 0 0 -1
vn 0 0 -1
vn 0 0 -1
vn 0 0 -1
vn -1 0 0
vn -1 0 0
vn -1 0 0
vn -1 0 0
vn -1 0 0
vn -1 0 0
vn -1 0 0
vn -1 0 0
vn 0 0 1
vn 0 0 1
vn 0 0 1
vn 0 0 1
vn 1 0 0
vn 1 0 0
vn 1 0 0
vn 1 0 0
vn 0 0 -1
vn 0 0 -1
vn 0 0 -1
vn 0 0 -1
vn 0 0 1
vn 0 0 1
vn 0 0 1
vn 0 0 1
vn 0 0 1
vn 0 0 1
vn 0 0 1
vn 0 0 1
vn 0 0 1
vn 0 0 1
vn 0 0 1
vn 0 0 1
vn 0 0 1
vn 0 0 1
vn 1 0 0
vn 1 0 0
vn 1 0 0
vn 1 0 0
vn 1 0 0
vn 1 0 0
vn 1 0 0
vn 1 0 0
vn 1 0 0
vn 1 0 0
vn 1 0 0
vn 1 0 0
vn 1 0 0
vn 1 0 0
vn 1 0 0
vn 1 0 0
vn 0 0 -1
vn 0 0 -1
vn 0 0 -1
vn 0 0 -1
vn 0 0 -1
vn 0 0 -1
vn 0 0 -1
vn 0 0 -1
vn 0 0 -1
vn 0 0 -1
vn 0 0 -1
vn 0 0 -1
vn -1 0 0
vn -1 0 0
vn -1 0 0
vn -1 0 0
vn -1 0 0
vn -1 0 0
vn -1 0 0
vn -1 0 0
vn -1 0 0
vn -1 0 0
vn -1 0 0
vn -1 0 0
vn -1 0 0
vn -1 0 0

vt 1 0
vt 0 0
vt 0 1
vt 1 1
vt 0 0
vt 0 1
vt 1 1
vt 1 0
vt 1 0
vt 0 0
vt 0 1
vt 1 1
vt 1 1
vt 1 0
vt 0 0
vt 0 1
vt 0 1
vt 1 1
vt 1 0
vt 0 0
vt 0 1
vt 1 1
vt 1 0
vt 0 0
vt 1 1
vt 1 0
vt 0 0
vt 0 1
vt 1 0
vt 0 0
vt 0 1
vt 1 1
vt 0 0
vt 0 1
vt 1 1
vt 1 0
vt 0 1
vt 1 1
vt 1 0
vt 0 0
vt 1 1
vt 1 0
vt 0 0
vt 0 1
vt 0 0
vt 0 1
vt 1 1
vt 1 0
vt 1 1
vt 1 0
vt 0 0
vt 0 1
vt 0 0
vt 0 1
vt 1 1
vt 1 0
vt 1 1
vt 1 0
vt 0 0
vt 0 1
vt 0 0
vt 0 1
vt 1 1
vt 1 0
vt 1 1
vt 1 0
vt 0 0
vt 0 1
vt 0 0
vt 0 1
vt 1 1
vt 1 0
vt 2.384186E-07 1.166667
vt 1 1
vt 2.384186E-07 1
vt 1 1.166667
vt 0 1.167403
vt 1 1.000736
vt 0 1.000736
vt 1 1.167403
vt -5.960464E-08 1.167228
vt 0.9999999 1.000561
vt -5.960464E-08 1.000561
vt 0.9999999 1.167228
vt 0 1.166667
vt 1 1
vt 0 1
vt 1 1.166667
vt 1.001426 -0.1676857
vt 0.001425982 -0.001018941
vt 1.001426 -0.001018941
vt 0.001425982 -0.1676857
vt 1 -0.167102
vt 0 -0.0004352853
vt 1 -0.0004352853
vt 0 -0.167102
vt 1 -0.1658241
vt 0 0.0008425936
vt 1 0.0008425936
vt 0 -0.1658241
vt 1 -0.1666667
vt 0 0
vt 1 0
vt 0 -0.1666667
vt -0.1666667 0
vt 0 0
vt -0.1666667 1
vt -0.1666664 1.166667
vt -0.1666667 -0.167102
vt -0.1666667 -0.0004352927
vt 1.166667 1.166667
vt 1.166667 1
vt 1.167678 1
vt 1.001011 0
vt 1.001011 1
vt 1.167678 0
vt 1.166667 -0.0004352927
vt 1.166667 -0.167102
vt -0.1666666 1.000736
vt -0.1666666 1.167403
vt -0.1666667 0
vt 0 1
vt 0 0
vt -0.1666667 1
vt -0.1666667 -0.1658241
vt -0.1666667 0.0008425862
vt 1.166667 1.167403
vt 1.166667 1.000736
vt 1.167101 0.9999999
vt 1.000435 -5.960464E-08
vt 1.000435 0.9999999
vt 1.167101 -5.960464E-08
vt 1.166667 0.0008425862
vt 1.166667 -0.1658241
vt 1.25 0
vt 1.25 -0.1666667
vt 1.25 1.167228
vt 1.25 1.000561
vt 1.25 1
vt 1 1
vt -0.1666667 0
vt 0 1
vt -0.1666667 1
vt -0.1666667 1.000561
vt -0.1666667 1.167228
vt -0.1666667 -0.1666667
vt -0.1666667 0
vt 0 0
vt -0.1666667 1
vt -0.1666666 1.166667
vt -0.1652407 -0.1676857
vt -0.1652407 -0.001018941
vt 1.166667 1.166667
vt 1.166667 1
vt 1 0
vt 1.166667 0
vt 1.166667 -0.0009843111
vt 1 -0.1676511
vt 1 -0.0009843111
vt 1.166667 -0.1676511

g Default_Prototype 2
usemtl Default_Prototype 2
usemap Default_Prototype 2
f 2/2/2 1/1/1 3/3/3
f 3/3/3 1/1/1 4/4/4
f 6/6/6 5/5/5 7/7/7
f 7/7/7 5/5/5 8/8/8
f 10/10/10 9/9/9 11/11/11
f 11/11/11 9/9/9 12/12/12
f 14/14/14 13/13/13 15/15/15
f 15/15/15 13/13/13 16/16/16
f 18/18/18 17/17/17 19/19/19
f 19/19/19 17/17/17 20/20/20

g Default_Prototype 4
usemtl Default_Prototype 4
usemap Default_Prototype 4
f 22/22/22 21/21/21 23/23/23
f 23/23/23 21/21/21 24/24/24
f 26/26/26 25/25/25 27/27/27
f 27/27/27 25/25/25 28/28/28
f 30/30/30 29/29/29 31/31/31
f 31/31/31 29/29/29 32/32/32
f 34/34/34 33/33/33 35/35/35
f 35/35/35 33/33/33 36/36/36
f 38/38/38 37/37/37 39/39/39
f 39/39/39 37/37/37 40/40/40

g Default_Prototype
usemtl Default_Prototype
usemap Default_Prototype
f 42/42/42 41/41/41 43/43/43
f 43/43/43 41/41/41 44/44/44
f 46/46/46 45/45/45 47/47/47
f 47/47/47 45/45/45 48/48/48
f 50/50/50 49/49/49 51/51/51
f 51/51/51 49/49/49 52/52/52
f 54/54/54 53/53/53 55/55/55
f 55/55/55 53/53/53 56/56/56
f 58/58/58 57/57/57 59/59/59
f 59/59/59 57/57/57 60/60/60
f 62/62/62 61/61/61 63/63/63
f 63/63/63 61/61/61 64/64/64
f 66/66/66 65/65/65 67/67/67
f 67/67/67 65/65/65 68/68/68
f 70/70/70 69/69/69 71/71/71
f 71/71/71 69/69/69 72/72/72

g Default_Prototype 3
usemtl Default_Prototype 3
usemap Default_Prototype 3
f 74/74/74 73/73/73 75/75/75
f 76/76/76 73/73/73 74/74/74
f 78/78/78 77/77/77 79/79/79
f 80/80/80 77/77/77 78/78/78
f 82/82/82 81/81/81 83/83/83
f 84/84/84 81/81/81 82/82/82
f 86/86/86 85/85/85 87/87/87
f 88/88/88 85/85/85 86/86/86
f 90/90/90 89/89/89 91/91/91
f 92/92/92 89/89/89 90/90/90
f 94/94/94 93/93/93 95/95/95
f 96/96/96 93/93/93 94/94/94
f 98/98/98 97/97/97 99/99/99
f 100/100/100 97/97/97 98/98/98
f 102/102/102 101/101/101 103/103/103
f 104/104/104 101/101/101 102/102/102
f 75/75/75 105/105/105 106/106/106
f 107/107/107 105/105/105 75/75/75
f 73/73/73 107/107/107 75/75/75
f 108/108/108 107/107/107 73/73/73
f 94/94/94 109/109/109 96/96/96
f 110/110/110 109/109/109 94/94/94
f 74/74/74 111/111/111 76/76/76
f 112/112/112 111/111/111 74/74/74
f 114/114/114 113/113/113 115/115/115
f 116/116/116 113/113/113 114/114/114
f 93/93/93 117/117/117 95/95/95
f 118/118/118 117/117/117 93/93/93
f 77/77/77 119/119/119 79/79/79
f 120/120/120 119/119/119 77/77/77
f 122/122/122 121/121/121 123/123/123
f 124/124/124 121/121/121 122/122/122
f 98/98/98 125/125/125 100/100/100
f 126/126/126 125/125/125 98/98/98
f 78/78/78 127/127/127 80/80/80
f 128/128/128 127/127/127 78/78/78
f 130/130/130 129/129/129 131/131/131
f 132/132/132 129/129/129 130/130/130
f 97/97/97 133/133/133 99/99/99
f 134/134/134 133/133/133 97/97/97
f 101/101/101 135/135/135 103/103/103
f 136/136/136 135/135/135 101/101/101
f 82/82/82 137/137/137 84/84/84
f 138/138/138 137/137/137 82/82/82
f 103/103/103 139/139/139 140/140/140
f 135/135/135 139/139/139 103/103/103
f 142/142/142 141/141/141 102/102/102
f 143/143/143 141/141/141 142/142/142
f 81/81/81 144/144/144 83/83/83
f 145/145/145 144/144/144 81/81/81
f 102/102/102 146/146/146 104/104/104
f 141/141/141 146/146/146 102/102/102
f 87/87/87 147/147/147 148/148/148
f 149/149/149 147/147/147 87/87/87
f 85/85/85 149/149/149 87/87/87
f 150/150/150 149/149/149 85/85/85
f 90/90/90 151/151/151 92/92/92
f 152/152/152 151/151/151 90/90/90
f 86/86/86 153/153/153 88/88/88
f 154/154/154 153/153/153 86/86/86
f 155/155/155 154/154/154 86/86/86
f 156/156/156 154/154/154 155/155/155
f 158/158/158 157/157/157 159/159/159
f 160/160/160 157/157/157 158/158/158
