mtllib ./TunnelMouldingStraight3x.mtl
g pb-Cube-2167914
v -0.2 0 0
v -0.2 0 -3
v -0.2 0.2 0
v -0.2 0.2 -3
v 0 0.2 0
v -0.2 0.2 0
v 0 0.2 -3
v -0.2 0.2 -3
v 0 0.2 3
v -0.2 0.2 3
v -0.2 0.2 3
v -0.2 0 3
v 0 0.2 6
v -0.2 0.2 6
v -0.2 0.2 6
v -0.2 0 6

vn -1 0 0
vn -1 0 0
vn -1 0 0
vn -1 0 0
vn 0 1 0
vn 0 1 0
vn 0 1 0
vn 0 1 0
vn 0 1 0
vn 0 1 0
vn -1 0 0
vn -1 0 0
vn 0 1 0
vn 0 1 0
vn -1 0 0
vn -1 0 0

vt 1 0
vt 0 0
vt 1 0.06666667
vt 0 0.06666667
vt 1 0.1333333
vt 1 0.06666665
vt 0 0.1333334
vt 0 0.06666669
vt 2 0.1333332
vt 2 0.06666663
vt 2 0.06666667
vt 2 0
vt 2.999999 0.1333332
vt 2.999999 0.06666659
vt 3 0.06666667
vt 3 0

g Default_Prototype
usemtl Default_Prototype
usemap Default_Prototype
f 2/2/2 1/1/1 3/3/3
f 4/4/4 2/2/2 3/3/3
f 6/6/6 5/5/5 7/7/7
f 8/8/8 6/6/6 7/7/7
f 6/6/6 9/9/9 5/5/5
f 10/10/10 9/9/9 6/6/6
f 1/1/1 11/11/11 3/3/3
f 12/12/12 11/11/11 1/1/1
f 10/10/10 13/13/13 9/9/9
f 14/14/14 13/13/13 10/10/10
f 12/12/12 15/15/15 11/11/11
f 16/16/16 15/15/15 12/12/12
