mtllib ./TunnelMouldingCornerIn.mtl
g pb-Cube-2239704
v 0 0.2 0
v -0.2 0.2 0
v 0 0.2 -0.2000003
v -0.2 0.2 -3
v 0 0.2 -3
v 0 0.1 -3
v 0 0.1 -0.2000003
v 0 0.2 -3
v 0 0.2 -0.2000003
v 0 0 -0.2000003
v 0 0 -3
v 0 0.2 0
v 0 0.2 -0.2000003
v 2.8 0.2 0
v 2.8 0.2 -0.2000003
v 0 0.1 -0.2000003
v 0 0 -0.2000003
v 2.8 0.1 -0.2000003
v 2.8 0 -0.2000003
v 0 0.2 -0.2000003
v 2.8 0.2 -0.2000003

vn 0 1 0
vn 0 1 0
vn 0 1 0
vn 0 1 0
vn 0 1 0
vn 1 0 0
vn 1 0 0
vn 1 0 0
vn 1 0 0
vn 1 0 0
vn 1 0 0
vn 0 1 0
vn 0 1 0
vn 0 1 0
vn 0 1 0
vn 0 0 -1
vn 0 0 -0.9999999
vn 0 0 -1
vn 0 0 -0.9999999
vn 0 0 -0.9999999
vn 0 0 -0.9999999

vt -0.0005883574 0.06666668
vt -0.0005883574 0.1333333
vt 0.06607842 0.06666668
vt 0.9994116 0.1333333
vt 0.9994116 0.06666666
vt 0.9994116 0.03333334
vt 0.06607842 0.03333334
vt 0.9994116 0.06666667
vt 0.06607842 0.06666667
vt 0.06607842 0
vt 0.9994116 0
vt 0.9333334 0.1333334
vt 0.9333334 0.06666668
vt 0 0.1333334
vt 0 0.06666668
vt 0.9333334 0.03333334
vt 0.9333334 0
vt 0 0.03333334
vt 0 0
vt 0.9333334 0.06666667
vt 0 0.06666667

g Default_Prototype
usemtl Default_Prototype
usemap Default_Prototype
f 2/2/2 1/1/1 3/3/3
f 4/4/4 2/2/2 3/3/3
f 5/5/5 4/4/4 3/3/3
f 7/7/7 6/6/6 8/8/8
f 9/9/9 7/7/7 8/8/8
f 7/7/7 10/10/10 11/11/11
f 6/6/6 7/7/7 11/11/11
f 13/13/13 12/12/12 14/14/14
f 15/15/15 13/13/13 14/14/14
f 17/17/17 16/16/16 18/18/18
f 19/19/19 17/17/17 18/18/18
f 16/16/16 20/20/20 21/21/21
f 18/18/18 16/16/16 21/21/21
