mtllib ./TunnelRoom1.mtl
g pb-Cube-2353958
v 1.5 3 4.5
v -1.5 3 4.5
v -1.5 0 4.5
v 1.5 0 4.5
v -1.5 3 1.5
v -1.5 3 -1.5
v -1.5 0 -1.5
v -1.5 0 1.5
v 4.5 3 -1.5
v 4.5 3 1.5
v 4.5 0 1.5
v 4.5 0 -1.5
v 4.5 3 -1.5
v 4.5 0 -1.5
v 1.5 0 -1.5
v 1.5 3 -1.5
v 4.5 0 4.5
v 4.5 3 4.5
v 1.5 3 4.5
v 1.5 0 4.5
v -1.5 0 4.5
v -1.5 3 4.5
v -1.5 3 1.5
v -1.5 0 1.5
v 4.5 3 4.5
v 4.5 0 4.5
v 4.5 0 1.5
v 4.5 3 1.5
v 1.5 3 -1.5
v -1.5 3 -1.5
v -1.5 3 1.5
v 1.5 3 1.5
v 4.5 3 1.5
v 4.5 3 -1.5
v 1.5 3 -1.5
v 1.5 3 1.5
v -1.5 3 4.5
v 1.5 3 4.5
v 1.5 3 1.5
v -1.5 3 1.5
v 1.5 3 4.5
v 4.5 3 4.5
v 4.5 3 1.5
v 1.5 3 1.5
v 1.5 0 1.5
v -1.5 0 1.5
v -1.5 0 -1.5
v 1.5 0 -1.5
v 4.5 0 -1.5
v 4.5 0 1.5
v 1.5 0 1.5
v 1.5 0 -1.5
v 1.5 0 4.5
v -1.5 0 4.5
v -1.5 0 1.5
v 1.5 0 1.5
v 4.5 0 4.5
v 1.5 0 4.5
v 1.5 0 1.5
v 4.5 0 1.5
v 1.5 3.5 -1.5
v -1.5 3 -1.5
v 1.5 3 -1.5
v -1.5 3.5 -1.5
v -1.5 -0.5 -1.5
v 1.5 0 -1.5
v -1.5 0 -1.5
v 1.5 -0.5 -1.5
v -2 3 -1.5
v -2 0 -1.5
v 2 0 -1.5
v 1.5 3 -1.5
v 1.5 0 -1.5
v 2 3 -1.5
v -2 3.5 -1.5
v 2 3.5 -1.5
v 1.5 3.5 -1.5
v -2 -0.5 -1.5
v 1.5 -0.5 -1.5
v 2 -0.5 -1.5

vn 0 0 -1
vn 0 0 -1
vn 0 0 -1
vn 0 0 -1
vn 1 0 0
vn 1 0 0
vn 1 0 0
vn 1 0 0
vn -1 0 0
vn -1 0 0
vn -1 0 0
vn -1 0 0
vn 0 0 1
vn 0 0 1
vn 0 0 1
vn 0 0 1
vn 0 0 -1
vn 0 0 -1
vn 0 0 -1
vn 0 0 -1
vn 1 0 0
vn 1 0 0
vn 1 0 0
vn 1 0 0
vn -1 0 0
vn -1 0 0
vn -1 0 0
vn -1 0 0
vn 0 -1 0
vn 0 -1 0
vn 0 -1 0
vn 0 -1 0
vn 0 -1 0
vn 0 -1 0
vn 0 -1 0
vn 0 -1 0
vn 0 -1 0
vn 0 -1 0
vn 0 -1 0
vn 0 -1 0
vn 0 -1 0
vn 0 -1 0
vn 0 -1 0
vn 0 -1 0
vn 0 1 0
vn 0 1 0
vn 0 1 0
vn 0 1 0
vn 0 1 0
vn 0 1 0
vn 0 1 0
vn 0 1 0
vn 0 1 0
vn 0 1 0
vn 0 1 0
vn 0 1 0
vn 0 1 0
vn 0 1 0
vn 0 1 0
vn 0 1 0
vn 0 0 -1
vn 0 0 -1
vn 0 0 -1
vn 0 0 -1
vn 0 0 -1
vn 0 0 -1
vn 0 0 -1
vn 0 0 -1
vn 0 0 -1
vn 0 0 -1
vn 0 0 -1
vn 0 0 -1
vn 0 0 -1
vn 0 0 -1
vn 0 0 -1
vn 0 0 -1
vn 0 0 -1
vn 0 0 -1
vn 0 0 -1
vn 0 0 -1

vt 0 1
vt 1 1
vt 1 0
vt 0 0
vt 0 1
vt 1 1
vt 1 0
vt 0 0
vt 0 1
vt 1 1
vt 1 0
vt 0 0
vt 1 1
vt 1 0
vt 0 0
vt 0 1
vt 0 0
vt 0 1
vt 1 1
vt 1 0
vt 0 0
vt 0 1
vt 1 1
vt 1 0
vt 1 1
vt 1 0
vt 0 0
vt 0 1
vt 1 0
vt 0 0
vt 0 1
vt 1 1
vt 1 1
vt 1 0
vt 0 0
vt 0 1
vt 0 1
vt 1 1
vt 1 0
vt 0 0
vt 0 1
vt 1 1
vt 1 0
vt 0 0
vt 0 1
vt 1 1
vt 1 0
vt 0 0
vt 0 0
vt 0 1
vt 1 1
vt 1 0
vt 0 1
vt 1 1
vt 1 0
vt 0 0
vt 0 1
vt 1 1
vt 1 0
vt 0 0
vt 0 1.166667
vt 1 1
vt 0 1
vt 1 1.166667
vt 1 -0.1666667
vt 0 0
vt 1 0
vt 0 -0.1666667
vt 1.166667 1
vt 1.166667 0
vt -0.1654752 -0.001711667
vt 0.001191512 0.9982883
vt 0.001191512 -0.001711667
vt -0.1654752 0.9982883
vt 1.166667 1.166667
vt -0.1654752 1.164955
vt 0.001191512 1.164955
vt 1.166667 -0.1666667
vt 0.001191512 -0.1683784
vt -0.1654752 -0.1683784

g Default_Prototype
usemtl Default_Prototype
usemap Default_Prototype
f 2/2/2 1/1/1 3/3/3
f 3/3/3 1/1/1 4/4/4
f 6/6/6 5/5/5 7/7/7
f 7/7/7 5/5/5 8/8/8
f 10/10/10 9/9/9 11/11/11
f 11/11/11 9/9/9 12/12/12
f 14/14/14 13/13/13 15/15/15
f 15/15/15 13/13/13 16/16/16
f 18/18/18 17/17/17 19/19/19
f 19/19/19 17/17/17 20/20/20
f 22/22/22 21/21/21 23/23/23
f 23/23/23 21/21/21 24/24/24
f 26/26/26 25/25/25 27/27/27
f 27/27/27 25/25/25 28/28/28

g Default_Prototype 2
usemtl Default_Prototype 2
usemap Default_Prototype 2
f 30/30/30 29/29/29 31/31/31
f 31/31/31 29/29/29 32/32/32
f 34/34/34 33/33/33 35/35/35
f 35/35/35 33/33/33 36/36/36
f 38/38/38 37/37/37 39/39/39
f 39/39/39 37/37/37 40/40/40
f 42/42/42 41/41/41 43/43/43
f 43/43/43 41/41/41 44/44/44

g Default_Prototype 4
usemtl Default_Prototype 4
usemap Default_Prototype 4
f 46/46/46 45/45/45 47/47/47
f 47/47/47 45/45/45 48/48/48
f 50/50/50 49/49/49 51/51/51
f 51/51/51 49/49/49 52/52/52
f 54/54/54 53/53/53 55/55/55
f 55/55/55 53/53/53 56/56/56
f 58/58/58 57/57/57 59/59/59
f 59/59/59 57/57/57 60/60/60

g Default_Prototype 3
usemtl Default_Prototype 3
usemap Default_Prototype 3
f 62/62/62 61/61/61 63/63/63
f 64/64/64 61/61/61 62/62/62
f 66/66/66 65/65/65 67/67/67
f 68/68/68 65/65/65 66/66/66
f 67/67/67 69/69/69 62/62/62
f 70/70/70 69/69/69 67/67/67
f 72/72/72 71/71/71 73/73/73
f 74/74/74 71/71/71 72/72/72
f 69/69/69 64/64/64 62/62/62
f 75/75/75 64/64/64 69/69/69
f 72/72/72 76/76/76 74/74/74
f 77/77/77 76/76/76 72/72/72
f 67/67/67 78/78/78 70/70/70
f 65/65/65 78/78/78 67/67/67
f 71/71/71 79/79/79 73/73/73
f 80/80/80 79/79/79 71/71/71
