mtllib ./TunnelTSection.mtl
g pb-Cube-1814814
v 1.5 3 1.5
v -1.5 3 1.5
v -1.5 0 1.5
v 1.5 0 1.5
v -1.5 3 -1.5
v -1.5 3 -4.5
v -1.5 0 -4.5
v -1.5 0 -1.5
v 1.5 3 -4.5
v 1.5 3 -1.5
v 1.5 0 -1.5
v 1.5 0 -4.5
v 4.5 3 -1.5
v 4.5 0 -1.5
v 1.5 0 -1.5
v 1.5 3 -1.5
v 4.5 0 1.5
v 4.5 3 1.5
v 1.5 3 1.5
v 1.5 0 1.5
v -4.5 0 -1.5
v -4.5 3 -1.5
v -1.5 3 -1.5
v -1.5 0 -1.5
v -4.5 3 1.5
v -4.5 0 1.5
v -1.5 0 1.5
v -1.5 3 1.5
v 4.5 3 -1.5
v 4.5 3 -2
v 1.5 3 -4.5
v -1.5 3 -4.5
v -1.5 3 -1.5
v 1.5 3 -1.5
v -1.5 3 1.5
v 1.5 3 1.5
v 1.5 3 -1.5
v -1.5 3 -1.5
v 4.5 3 1.5
v 4.5 3 -1.5
v 1.5 3 -1.5
v 1.5 3 1.5
v -4.5 3 -1.5
v -4.5 3 1.5
v -1.5 3 1.5
v -1.5 3 -1.5
v 1.5 0 -1.5
v -1.5 0 -1.5
v -1.5 0 -4.5
v 1.5 0 -4.5
v 1.5 0 1.5
v -1.5 0 1.5
v -1.5 0 -1.5
v 1.5 0 -1.5
v 4.5 0 -1.5
v 4.5 0 1.5
v 1.5 0 1.5
v 1.5 0 -1.5
v -4.5 0 1.5
v -4.5 0 -1.5
v -1.5 0 -1.5
v -1.5 0 1.5
v 4.5 3 1.5
v 4.5 3.5 1.5
v 4.5 3.5 -1.5
v 4.5 3 -1.5
v -4.5 3 -1.5
v -4.5 3.5 -1.5
v -4.5 3.5 1.5
v -4.5 3 1.5
v 1.5 3 -4.5
v 1.5 3.5 -4.5
v -1.5 3.5 -4.5
v -1.5 3 -4.5
v 4.5 -0.5 -1.5
v 4.5 0 1.5
v 4.5 0 -1.5
v 4.5 -0.5 1.5
v -1.5 -0.5 -4.5
v 1.5 0 -4.5
v -1.5 0 -4.5
v 1.5 -0.5 -4.5
v -4.5 -0.5 1.5
v -4.5 0 -1.5
v -4.5 0 1.5
v -4.5 -0.5 -1.5
v 4.5 3 -2
v 4.5 0 -1.5
v 4.5 3 -1.5
v 4.5 0 -2
v 4.5 0 2
v 4.5 3 1.5
v 4.5 0 1.5
v 4.5 3 2
v 4.5 3.5 2
v 4.5 3.5 1.5
v 4.5 3.5 -1.5
v 4.5 3.5 -2
v 4.5 -0.5 -2
v 4.5 -0.5 -1.5
v 4.5 -0.5 1.5
v 4.5 -0.5 2
v -2 3 -4.5
v -1.5 3 -4.5
v -2 0 -4.5
v 2 0 -4.5
v 1.5 3 -4.5
v 2 3 -4.5
v -1.5 3.5 -4.5
v -2 3.5 -4.5
v 2 3.5 -4.5
v 1.5 3.5 -4.5
v 2 -0.5 -4.5
v -2 -0.5 -4.5
v -4.5 0 -2
v -4.5 3 -1.5
v -4.5 0 -1.5
v -4.5 3 -2
v -4.5 3.5 -2
v -4.5 3.5 -1.5
v -4.5 -0.5 -1.5
v -4.5 -0.5 -2
v -4.5 3 2
v -4.5 0 1.5
v -4.5 3 1.5
v -4.5 0 2
v -4.5 -0.5 2
v -4.5 -0.5 1.5
v -4.5 3.5 1.5
v -4.5 3.5 2

vn 0 0 -1
vn 0 0 -1
vn 0 0 -1
vn 0 0 -1
vn 1 0 0
vn 1 0 0
vn 1 0 0
vn 1 0 0
vn -1 0 0
vn -1 0 0
vn -1 0 0
vn -1 0 0
vn 0 0 1
vn 0 0 1
vn 0 0 1
vn 0 0 1
vn 0 0 -1
vn 0 0 -1
vn 0 0 -1
vn 0 0 -1
vn 0 0 1
vn 0 0 1
vn 0 0 1
vn 0 0 1
vn 0 0 -1
vn 0 0 -1
vn 0 0 -1
vn 0 0 -1
vn 0 0 0
vn 0 0 0
vn 0 -1 0
vn 0 -1 0
vn 0 -1 0
vn 0 -1 0
vn 0 -1 0
vn 0 -1 0
vn 0 -1 0
vn 0 -1 0
vn 0 -1 0
vn 0 -1 0
vn 0 -1 0
vn 0 -1 0
vn 0 -1 0
vn 0 -1 0
vn 0 -1 0
vn 0 -1 0
vn 0 1 0
vn 0 1 0
vn 0 1 0
vn 0 1 0
vn 0 1 0
vn 0 1 0
vn 0 1 0
vn 0 1 0
vn 0 1 0
vn 0 1 0
vn 0 1 0
vn 0 1 0
vn 0 1 0
vn 0 1 0
vn 0 1 0
vn 0 1 0
vn 1 0 0
vn 1 0 0
vn 1 0 0
vn 1 0 0
vn -1 0 0
vn -1 0 0
vn -1 0 0
vn -1 0 0
vn 0 0 -1
vn 0 0 -1
vn 0 0 -1
vn 0 0 -1
vn 1 0 0
vn 1 0 0
vn 1 0 0
vn 1 0 0
vn 0 0 -1
vn 0 0 -1
vn 0 0 -1
vn 0 0 -1
vn -1 0 0
vn -1 0 0
vn -1 0 0
vn -1 0 0
vn 1 0 0
vn 1 0 0
vn 1 0 0
vn 1 0 0
vn 1 0 0
vn 1 0 0
vn 1 0 0
vn 1 0 0
vn 1 0 0
vn 1 0 0
vn 1 0 0
vn 1 0 0
vn 1 0 0
vn 1 0 0
vn 1 0 0
vn 1 0 0
vn 0 0 -1
vn 0 0 -1
vn 0 0 -1
vn 0 0 -1
vn 0 0 -1
vn 0 0 -1
vn 0 0 -1
vn 0 0 -1
vn 0 0 -1
vn 0 0 -1
vn 0 0 -1
vn 0 0 -1
vn -1 0 0
vn -1 0 0
vn -1 0 0
vn -1 0 0
vn -1 0 0
vn -1 0 0
vn -1 0 0
vn -1 0 0
vn -1 0 0
vn -1 0 0
vn -1 0 0
vn -1 0 0
vn -1 0 0
vn -1 0 0
vn -1 0 0
vn -1 0 0

vt 0 1
vt 1 1
vt 1 0
vt 0 0
vt 0 1
vt 1 1
vt 1 0
vt 0 0
vt 0 1
vt 1 1
vt 1 0
vt 0 0
vt 1 1
vt 1 0
vt 0 0
vt 0 1
vt 0 0
vt 0 1
vt 1 1
vt 1 0
vt 0 0
vt 0 1
vt 1 1
vt 1 0
vt 1 1
vt 1 0
vt 0 0
vt 0 1
vt 0 0
vt 0 0
vt 1 0
vt 0 0
vt 0 1
vt 1 1
vt 0 1
vt 1 1
vt 1 0
vt 0 0
vt 1 1
vt 1 0
vt 0 0
vt 0 1
vt 0 0
vt 0 1
vt 1 1
vt 1 0
vt 0 1
vt 1 1
vt 1 0
vt 0 0
vt 0 1
vt 1 1
vt 1 0
vt 0 0
vt 0 0
vt 0 1
vt 1 1
vt 1 0
vt 1 1
vt 1 0
vt 0 0
vt 0 1
vt 0.00142616 1.001019
vt 0.00142616 1.167686
vt 1.001426 1.167686
vt 1.001426 1.001019
vt -0.001426399 1.001019
vt -0.001426399 1.167686
vt 0.998574 1.167686
vt 0.998574 1.001019
vt 0 1.001506
vt 0 1.168173
vt 1 1.168173
vt 1 1.001506
vt 0.9985738 -0.1676854
vt -0.00142622 -0.001018733
vt 0.9985738 -0.001018733
vt -0.00142622 -0.1676854
vt 1 -0.1666667
vt 0 0
vt 1 0
vt 0 -0.1666667
vt 1.001426 -0.1676854
vt 0.001425982 -0.001018733
vt 1.001426 -0.001018733
vt 0.001425982 -0.1676854
vt 1.166667 1
vt 1 0
vt 1 1
vt 1.166667 0
vt -0.1666667 0
vt 0 1
vt 0 0
vt -0.1666667 1
vt -0.1666667 1.166667
vt 0 1.166667
vt 1 1.166667
vt 1.166667 1.166667
vt 1.166667 -0.1666666
vt 0.9999999 -0.1666666
vt 0 -0.1666667
vt -0.1666667 -0.1666667
vt 1.166667 1
vt 1 1
vt 1.166667 0
vt -0.1666667 0
vt 0 1
vt -0.1666667 1
vt 1 1.166667
vt 1.166667 1.166667
vt -0.1666667 1.166667
vt 0 1.166667
vt -0.1666667 -0.1666667
vt 1.166667 -0.1666667
vt -0.1666667 0
vt 0 1
vt 0 0
vt -0.1666667 1
vt -0.1666667 1.166667
vt 0 1.166667
vt 0 -0.1666667
vt -0.1666667 -0.1666667
vt 1.166667 1
vt 1 0
vt 1 1
vt 1.166667 0
vt 1.166667 -0.1666667
vt 1 -0.1666667
vt 1 1.166667
vt 1.166667 1.166667

g Default_Prototype
usemtl Default_Prototype
usemap Default_Prototype
f 2/2/2 1/1/1 3/3/3
f 3/3/3 1/1/1 4/4/4
f 6/6/6 5/5/5 7/7/7
f 7/7/7 5/5/5 8/8/8
f 10/10/10 9/9/9 11/11/11
f 11/11/11 9/9/9 12/12/12
f 14/14/14 13/13/13 15/15/15
f 15/15/15 13/13/13 16/16/16
f 18/18/18 17/17/17 19/19/19
f 19/19/19 17/17/17 20/20/20
f 22/22/22 21/21/21 23/23/23
f 23/23/23 21/21/21 24/24/24
f 26/26/26 25/25/25 27/27/27
f 27/27/27 25/25/25 28/28/28
f 30/30/30 29/29/29 29/29/29
f 30/30/30 29/29/29 30/30/30

g Default_Prototype 2
usemtl Default_Prototype 2
usemap Default_Prototype 2
f 32/32/32 31/31/31 33/33/33
f 33/33/33 31/31/31 34/34/34
f 36/36/36 35/35/35 37/37/37
f 37/37/37 35/35/35 38/38/38
f 40/40/40 39/39/39 41/41/41
f 41/41/41 39/39/39 42/42/42
f 44/44/44 43/43/43 45/45/45
f 45/45/45 43/43/43 46/46/46

g Default_Prototype 4
usemtl Default_Prototype 4
usemap Default_Prototype 4
f 48/48/48 47/47/47 49/49/49
f 49/49/49 47/47/47 50/50/50
f 52/52/52 51/51/51 53/53/53
f 53/53/53 51/51/51 54/54/54
f 56/56/56 55/55/55 57/57/57
f 57/57/57 55/55/55 58/58/58
f 60/60/60 59/59/59 61/61/61
f 61/61/61 59/59/59 62/62/62

g Default_Prototype 3
usemtl Default_Prototype 3
usemap Default_Prototype 3
f 64/64/64 63/63/63 65/65/65
f 63/63/63 66/66/66 65/65/65
f 68/68/68 67/67/67 69/69/69
f 67/67/67 70/70/70 69/69/69
f 72/72/72 71/71/71 73/73/73
f 71/71/71 74/74/74 73/73/73
f 76/76/76 75/75/75 77/77/77
f 78/78/78 75/75/75 76/76/76
f 80/80/80 79/79/79 81/81/81
f 82/82/82 79/79/79 80/80/80
f 84/84/84 83/83/83 85/85/85
f 86/86/86 83/83/83 84/84/84
f 88/88/88 87/87/87 89/89/89
f 90/90/90 87/87/87 88/88/88
f 92/92/92 91/91/91 93/93/93
f 94/94/94 91/91/91 92/92/92
f 92/92/92 95/95/95 94/94/94
f 96/96/96 95/95/95 92/92/92
f 87/87/87 97/97/97 89/89/89
f 98/98/98 97/97/97 87/87/87
f 88/88/88 99/99/99 90/90/90
f 100/100/100 99/99/99 88/88/88
f 91/91/91 101/101/101 93/93/93
f 102/102/102 101/101/101 91/91/91
f 81/81/81 103/103/103 104/104/104
f 105/105/105 103/103/103 81/81/81
f 107/107/107 106/106/106 80/80/80
f 108/108/108 106/106/106 107/107/107
f 103/103/103 109/109/109 104/104/104
f 110/110/110 109/109/109 103/103/103
f 107/107/107 111/111/111 108/108/108
f 112/112/112 111/111/111 107/107/107
f 106/106/106 82/82/82 80/80/80
f 113/113/113 82/82/82 106/106/106
f 81/81/81 114/114/114 105/105/105
f 79/79/79 114/114/114 81/81/81
f 116/116/116 115/115/115 117/117/117
f 118/118/118 115/115/115 116/116/116
f 116/116/116 119/119/119 118/118/118
f 120/120/120 119/119/119 116/116/116
f 115/115/115 121/121/121 117/117/117
f 122/122/122 121/121/121 115/115/115
f 124/124/124 123/123/123 125/125/125
f 126/126/126 123/123/123 124/124/124
f 124/124/124 127/127/127 126/126/126
f 128/128/128 127/127/127 124/124/124
f 123/123/123 129/129/129 125/125/125
f 130/130/130 129/129/129 123/123/123
