mtllib ./TunnelStraight3x3.mtl
g pb-Cube-1688982
v -1.5 3 1.5
v -1.5 3 -1.5
v -1.5 0 -1.5
v -1.5 0 1.5
v 1.5 3 -1.5
v 1.5 3 1.5
v 1.5 0 1.5
v 1.5 0 -1.5
v -1.5 0 1.5
v -1.5 3 1.5
v 1.5 3 -1.5
v -1.5 3 -1.5
v -1.5 3 1.5
v 1.5 3 1.5
v 1.5 0 1.5
v -1.5 0 1.5
v -1.5 0 -1.5
v 1.5 0 -1.5
v 1.5 0 1.5
v 1.5 -0.5 1.5
v -1.5 -0.5 1.5
v -1.5 0 1.5
v -1.5 3.5 1.5
v 1.5 3 1.5
v -1.5 3 1.5
v 1.5 3.5 1.5
v 2 3 1.5
v 2 0 1.5
v -2 0 1.5
v -1.5 3 1.5
v -1.5 0 1.5
v -2 3 1.5
v -2 3.5 1.5
v -1.5 3.5 1.5
v -1.5 -0.5 1.5
v -2 -0.5 1.5
v 2 -0.5 1.5
v 1.5 -0.5 1.5
v 2 3.5 1.5
v -2 3 -1.5
v -1.5 0 -1.5
v -1.5 3 -1.5
v -2 0 -1.5
v 2 0 -1.5
v 1.5 3 -1.5
v 1.5 0 -1.5
v 2 3 -1.5
v 1.5 3.5 -1.5
v -1.5 3.5 -1.5
v -1.5 -0.5 -1.5
v 1.5 -0.5 -1.5
v 2 -0.5 -1.5
v 2 3.5 -1.5
v 1.5 3.5 -1.5
v -1.5 3.5 -1.5
v -2 3.5 -1.5
v -2 -0.5 -1.5

vn 1 0 0
vn 1 0 0
vn 1 0 0
vn 1 0 0
vn -1 0 0
vn -1 0 0
vn -1 0 0
vn -1 0 0
vn 0 0 0
vn 0 0 0
vn 0 -1 0
vn 0 -1 0
vn 0 -1 0
vn 0 -1 0
vn 0 1 0
vn 0 1 0
vn 0 1 0
vn 0 1 0
vn 0 0 1
vn 0 0 1
vn 0 0 1
vn 0 0 1
vn 0 0 1
vn 0 0 1
vn 0 0 1
vn 0 0 1
vn 0 0 1
vn 0 0 1
vn 0 0 1
vn 0 0 1
vn 0 0 1
vn 0 0 1
vn 0 0 1
vn 0 0 1
vn 0 0 1
vn 0 0 1
vn 0 0 1
vn 0 0 1
vn 0 0 1
vn 0 0 -1
vn 0 0 -1
vn 0 0 -1
vn 0 0 -1
vn 0 0 -1
vn 0 0 -1
vn 0 0 -1
vn 0 0 -1
vn 0 0 -1
vn 0 0 -1
vn 0 0 -1
vn 0 0 -1
vn 0 0 -1
vn 0 0 -1
vn 0 0 -1
vn 0 0 -1
vn 0 0 -1
vn 0 0 -1

vt 0 1
vt 1 1
vt 1 0
vt 0 0
vt 0 1
vt 1 1
vt 1 0
vt 0 0
vt 0 0
vt 0 0
vt 1 0
vt 0 0
vt 0 1
vt 1 1
vt 0 1
vt 1 1
vt 1 0
vt 0 0
vt 1 0.0004075766
vt 1 -0.1662592
vt 0 -0.1662592
vt 0 0.0004075766
vt 0 1.166667
vt 1 1
vt 0 1
vt 1 1.166667
vt 1.166667 1
vt 1.166667 0
vt -0.1662592 0
vt 0.0004075021 1
vt 0.0004075021 0
vt -0.1662592 1
vt -0.1662592 1.166667
vt 0.0004075766 1.166667
vt 0.0004075766 -0.1666667
vt -0.1662592 -0.1666667
vt 1.166667 -0.1666666
vt 0.9999999 -0.1666666
vt 1.166667 1.166667
vt 1.166667 1
vt 1 0
vt 1 1
vt 1.166667 0
vt -0.1666667 0
vt 0 1
vt 0 0
vt -0.1666667 1
vt 0 1.166259
vt 1 1.166259
vt 1 -0.1666667
vt 0 -0.1666667
vt -0.1666667 -0.1666667
vt -0.1666667 1.166667
vt 0 1.166667
vt 1 1.166667
vt 1.166667 1.166667
vt 1.166667 -0.1666667

g Default_Prototype
usemtl Default_Prototype
usemap Default_Prototype
f 2/2/2 1/1/1 3/3/3
f 3/3/3 1/1/1 4/4/4
f 6/6/6 5/5/5 7/7/7
f 7/7/7 5/5/5 8/8/8
f 10/10/10 9/9/9 9/9/9
f 10/10/10 9/9/9 10/10/10

g Default_Prototype 2
usemtl Default_Prototype 2
usemap Default_Prototype 2
f 12/12/12 11/11/11 13/13/13
f 13/13/13 11/11/11 14/14/14

g Default_Prototype 4
usemtl Default_Prototype 4
usemap Default_Prototype 4
f 16/16/16 15/15/15 17/17/17
f 17/17/17 15/15/15 18/18/18

g Default_Prototype 3
usemtl Default_Prototype 3
usemap Default_Prototype 3
f 20/20/20 19/19/19 21/21/21
f 19/19/19 22/22/22 21/21/21
f 24/24/24 23/23/23 25/25/25
f 26/26/26 23/23/23 24/24/24
f 19/19/19 27/27/27 24/24/24
f 28/28/28 27/27/27 19/19/19
f 30/30/30 29/29/29 31/31/31
f 32/32/32 29/29/29 30/30/30
f 30/30/30 33/33/33 32/32/32
f 34/34/34 33/33/33 30/30/30
f 29/29/29 35/35/35 31/31/31
f 36/36/36 35/35/35 29/29/29
f 19/19/19 37/37/37 28/28/28
f 38/38/38 37/37/37 19/19/19
f 27/27/27 26/26/26 24/24/24
f 39/39/39 26/26/26 27/27/27
f 41/41/41 40/40/40 42/42/42
f 43/43/43 40/40/40 41/41/41
f 45/45/45 44/44/44 46/46/46
f 47/47/47 44/44/44 45/45/45
f 42/42/42 48/48/48 45/45/45
f 49/49/49 48/48/48 42/42/42
f 46/46/46 50/50/50 41/41/41
f 51/51/51 50/50/50 46/46/46
f 44/44/44 51/51/51 46/46/46
f 52/52/52 51/51/51 44/44/44
f 45/45/45 53/53/53 47/47/47
f 54/54/54 53/53/53 45/45/45
f 40/40/40 55/55/55 42/42/42
f 56/56/56 55/55/55 40/40/40
f 41/41/41 57/57/57 43/43/43
f 50/50/50 57/57/57 41/41/41
