mtllib ./TunnelStraight3x6.mtl
g pb-Cube-2486
v 1.5 0 -3
v 1.5 1.5 -3
v 1.5 1.5 0
v 1.5 0 0
v 1.5 3 -3
v 1.5 3 0
v 1.5 0 3
v 1.5 1.5 0
v 1.5 1.5 3
v 1.5 0 0
v 1.5 3 3
v 1.5 3 0
v -1.5 0 3
v -1.5 1.5 3
v -1.5 1.5 0
v -1.5 0 0
v -1.5 3 3
v -1.5 3 0
v -1.5 0 -3
v -1.5 1.5 0
v -1.5 1.5 -3
v -1.5 0 0
v -1.5 3 -3
v -1.5 3 0
v 1.5 0 -3
v 1.5 0 0
v 0 0 0
v 0 0 -3
v -1.5 0 -3
v -1.5 0 0
v 1.5 0 3
v 0 0 3
v 0 0 0
v 1.5 0 0
v -1.5 0 3
v -1.5 0 0
v -1.5 3 3
v 0 3 0
v -1.5 3 0
v 0 3 3
v 1.5 3 3
v 1.5 3 0
v -1.5 3 -3
v 0 3 0
v 0 3 -3
v -1.5 3 0
v 1.5 3 -3
v 1.5 3 0
v 2 0 3
v 1.5 -0.5 3
v 1.5 0 3
v 2 -0.5 3
v 2 3.5 3
v 1.5 3 3
v 1.5 3.5 3
v 2 3 3
v -2 3 3
v -1.5 3.5 3
v -1.5 3 3
v -2 3.5 3
v -2 -0.5 3
v -1.5 0 3
v -1.5 -0.5 3
v -2 0 3
v -2 3.5 -3
v -1.5 3 -3
v -1.5 3.5 -3
v -2 3 -3
v -2 0 -3
v -1.5 -0.5 -3
v -1.5 0 -3
v -2 -0.5 -3
v 2 3 -3
v 1.5 3.5 -3
v 1.5 3 -3
v 2 3.5 -3
v 2 -0.5 -3
v 1.5 0 -3
v 1.5 -0.5 -3
v 2 0 -3
v 1.5 3.5 -3
v 0 3 -3
v 1.5 3 -3
v 0 3.5 -3
v -1.5 3 -3
v -1.5 3.5 -3
v 2 1.5 -3
v 1.5 3 -3
v 1.5 1.5 -3
v 2 3 -3
v 2 0 -3
v 1.5 0 -3
v -2 3 -3
v -1.5 1.5 -3
v -1.5 3 -3
v -2 1.5 -3
v -1.5 0 -3
v -2 0 -3
v 0 -0.5 -3
v 1.5 0 -3
v 0 0 -3
v 1.5 -0.5 -3
v -1.5 -0.5 -3
v -1.5 0 -3
v -1.5 3.5 3
v 0 3 3
v -1.5 3 3
v 0 3.5 3
v 1.5 3 3
v 1.5 3.5 3
v -2 1.5 3
v -1.5 3 3
v -1.5 1.5 3
v -2 3 3
v -2 0 3
v -1.5 0 3
v 2 3 3
v 1.5 1.5 3
v 1.5 3 3
v 2 1.5 3
v 1.5 0 3
v 2 0 3
v 0 -0.5 3
v -1.5 0 3
v 0 0 3
v -1.5 -0.5 3
v 1.5 -0.5 3
v 1.5 0 3

vn -1 0 0
vn -1 0 0
vn -1 0 0
vn -1 0 0
vn -1 0 0
vn -1 0 0
vn -1 0 0
vn -1 0 0
vn -1 0 0
vn -1 0 0
vn -1 0 0
vn -1 0 0
vn 1 0 0
vn 1 0 0
vn 1 0 0
vn 1 0 0
vn 1 0 0
vn 1 0 0
vn 1 0 0
vn 1 0 0
vn 1 0 0
vn 1 0 0
vn 1 0 0
vn 1 0 0
vn 0 1 0
vn 0 1 0
vn 0 1 0
vn 0 1 0
vn 0 1 0
vn 0 1 0
vn 0 1 0
vn 0 1 0
vn 0 1 0
vn 0 1 0
vn 0 1 0
vn 0 1 0
vn 0 -1 0
vn 0 -1 0
vn 0 -1 0
vn 0 -1 0
vn 0 -1 0
vn 0 -1 0
vn 0 -1 0
vn 0 -1 0
vn 0 -1 0
vn 0 -1 0
vn 0 -1 0
vn 0 -1 0
vn 0 0 1
vn 0 0 1
vn 0 0 1
vn 0 0 1
vn 0 0 1
vn 0 0 1
vn 0 0 1
vn 0 0 1
vn 0 0 1
vn 0 0 1
vn 0 0 1
vn 0 0 1
vn 0 0 1
vn 0 0 1
vn 0 0 1
vn 0 0 1
vn 0 0 -1
vn 0 0 -1
vn 0 0 -1
vn 0 0 -1
vn 0 0 -1
vn 0 0 -1
vn 0 0 -1
vn 0 0 -1
vn 0 0 -1
vn 0 0 -1
vn 0 0 -1
vn 0 0 -1
vn 0 0 -1
vn 0 0 -1
vn 0 0 -1
vn 0 0 -1
vn 0 0 -1
vn 0 0 -1
vn 0 0 -1
vn 0 0 -1
vn 0 0 -1
vn 0 0 -1
vn 0 0 -1
vn 0 0 -1
vn 0 0 -1
vn 0 0 -1
vn 0 0 -1
vn 0 0 -1
vn 0 0 -1
vn 0 0 -1
vn 0 0 -1
vn 0 0 -1
vn 0 0 -1
vn 0 0 -1
vn 0 0 -1
vn 0 0 -1
vn 0 0 -1
vn 0 0 -1
vn 0 0 -1
vn 0 0 -1
vn 0 0 1
vn 0 0 1
vn 0 0 1
vn 0 0 1
vn 0 0 1
vn 0 0 1
vn 0 0 1
vn 0 0 1
vn 0 0 1
vn 0 0 1
vn 0 0 1
vn 0 0 1
vn 0 0 1
vn 0 0 1
vn 0 0 1
vn 0 0 1
vn 0 0 1
vn 0 0 1
vn 0 0 1
vn 0 0 1
vn 0 0 1
vn 0 0 1
vn 0 0 1
vn 0 0 1

vt 0 0
vt 0 0.5
vt 1 0.5
vt 1 0
vt 0 1
vt 1 1
vt 1 0
vt 0 0.5
vt 1 0.5
vt 0 0
vt 1 1
vt 0 1
vt 0 0
vt 0 0.5
vt 1 0.5
vt 1 0
vt 0 1
vt 1 1
vt 1 0
vt 0 0.5
vt 1 0.5
vt 0 0
vt 1 1
vt 0 1
vt 0 0
vt 0 1
vt 0.5 1
vt 0.5 0
vt 1 0
vt 1 1
vt 0 1
vt 0.5 1
vt 0.5 0
vt 0 0
vt 1 1
vt 1 0
vt 0 1
vt 0.5 0
vt 0 0
vt 0.5 1
vt 1 1
vt 1 0
vt 0 0
vt 0.5 1
vt 0.5 0
vt 0 1
vt 1 0
vt 1 1
vt 0.1697817 0.9991753
vt 0.001812883 0.8312065
vt 0.001812883 0.9991753
vt 0.1697817 0.8312065
vt 0.1697817 0.1693902
vt 0.00181292 0.001421407
vt 0.00181292 0.1693902
vt 0.1697817 0.001421407
vt 0.8315172 0.001421429
vt 0.999486 0.1693902
vt 0.999486 0.001421429
vt 0.8315172 0.1693902
vt 0.8315979 0.8339272
vt 0.9995667 1.001896
vt 0.9995667 0.8339272
vt 0.8315979 1.001896
vt 0.1678966 0.1678966
vt 0.001880988 0.001880988
vt 0.001880988 0.1678966
vt 0.1678966 0.001880988
vt 0.1678966 0.9999667
vt 0.001880988 0.8339511
vt 0.001880988 0.9999667
vt 0.1678966 0.8339511
vt 0.8312647 0.001880996
vt 0.9985773 0.1678966
vt 0.9985773 0.001880996
vt 0.8312647 0.1678966
vt 0.8306271 0.8306225
vt 0.9992367 0.9992321
vt 0.9992367 0.8306225
vt 0.8306271 0.9992321
vt 0 0.1666667
vt 0.5 0
vt 0 0
vt 0.5 0.1666667
vt 1 0
vt 1 0.1666667
vt 0.8316074 0.5
vt 0.9982741 1
vt 0.9982741 0.5
vt 0.8316074 1
vt 0.8316074 -2.980232E-08
vt 0.9982741 -2.980232E-08
vt 0.1666667 1
vt 0 0.5
vt 0 1
vt 0.1666667 0.5
vt 0 0
vt 0.1666667 0
vt 0.5 0.8338073
vt 0 1.000474
vt 0.5 1.000474
vt 0 0.8338073
vt 1 0.8338073
vt 1 1.000474
vt 0 0.1666667
vt 0.5 0
vt 0 0
vt 0.5 0.1666667
vt 1 0
vt 1 0.1666667
vt 0.8337408 0.5
vt 1.000407 1
vt 1.000407 0.5
vt 0.8337408 1
vt 0.8337408 0
vt 1.000407 0
vt 0.1666667 1
vt 0 0.5
vt 0 1
vt 0.1666667 0.5
vt 0 0
vt 0.1666667 0
vt 0.5 0.8331648
vt 0 0.9998315
vt 0.5 0.9998315
vt 0 0.8331648
vt 1 0.8331648
vt 1 0.9998315

g Default_Prototype
usemtl Default_Prototype
usemap Default_Prototype
f 2/2/2 1/1/1 3/3/3
f 3/3/3 1/1/1 4/4/4
f 6/6/6 5/5/5 3/3/3
f 3/3/3 5/5/5 2/2/2
f 8/8/8 7/7/7 9/9/9
f 10/10/10 7/7/7 8/8/8
f 8/8/8 11/11/11 12/12/12
f 9/9/9 11/11/11 8/8/8
f 14/14/14 13/13/13 15/15/15
f 15/15/15 13/13/13 16/16/16
f 18/18/18 17/17/17 15/15/15
f 15/15/15 17/17/17 14/14/14
f 20/20/20 19/19/19 21/21/21
f 22/22/22 19/19/19 20/20/20
f 20/20/20 23/23/23 24/24/24
f 21/21/21 23/23/23 20/20/20

g Default_Prototype 4
usemtl Default_Prototype 4
usemap Default_Prototype 4
f 26/26/26 25/25/25 27/27/27
f 27/27/27 25/25/25 28/28/28
f 27/27/27 29/29/29 30/30/30
f 28/28/28 29/29/29 27/27/27
f 32/32/32 31/31/31 33/33/33
f 33/33/33 31/31/31 34/34/34
f 33/33/33 35/35/35 32/32/32
f 36/36/36 35/35/35 33/33/33

g Default_Prototype 2
usemtl Default_Prototype 2
usemap Default_Prototype 2
f 38/38/38 37/37/37 39/39/39
f 40/40/40 37/37/37 38/38/38
f 42/42/42 41/41/41 38/38/38
f 38/38/38 41/41/41 40/40/40
f 44/44/44 43/43/43 45/45/45
f 46/46/46 43/43/43 44/44/44
f 45/45/45 47/47/47 44/44/44
f 44/44/44 47/47/47 48/48/48

g Default_Prototype 3
usemtl Default_Prototype 3
usemap Default_Prototype 3
f 50/50/50 49/49/49 51/51/51
f 52/52/52 49/49/49 50/50/50
f 54/54/54 53/53/53 55/55/55
f 56/56/56 53/53/53 54/54/54
f 58/58/58 57/57/57 59/59/59
f 60/60/60 57/57/57 58/58/58
f 62/62/62 61/61/61 63/63/63
f 64/64/64 61/61/61 62/62/62
f 66/66/66 65/65/65 67/67/67
f 68/68/68 65/65/65 66/66/66
f 70/70/70 69/69/69 71/71/71
f 72/72/72 69/69/69 70/70/70
f 74/74/74 73/73/73 75/75/75
f 76/76/76 73/73/73 74/74/74
f 78/78/78 77/77/77 79/79/79
f 80/80/80 77/77/77 78/78/78
f 82/82/82 81/81/81 83/83/83
f 84/84/84 81/81/81 82/82/82
f 85/85/85 84/84/84 82/82/82
f 86/86/86 84/84/84 85/85/85
f 88/88/88 87/87/87 89/89/89
f 90/90/90 87/87/87 88/88/88
f 89/89/89 91/91/91 92/92/92
f 87/87/87 91/91/91 89/89/89
f 94/94/94 93/93/93 95/95/95
f 96/96/96 93/93/93 94/94/94
f 97/97/97 96/96/96 94/94/94
f 98/98/98 96/96/96 97/97/97
f 100/100/100 99/99/99 101/101/101
f 102/102/102 99/99/99 100/100/100
f 101/101/101 103/103/103 104/104/104
f 99/99/99 103/103/103 101/101/101
f 106/106/106 105/105/105 107/107/107
f 108/108/108 105/105/105 106/106/106
f 109/109/109 108/108/108 106/106/106
f 110/110/110 108/108/108 109/109/109
f 112/112/112 111/111/111 113/113/113
f 114/114/114 111/111/111 112/112/112
f 113/113/113 115/115/115 116/116/116
f 111/111/111 115/115/115 113/113/113
f 118/118/118 117/117/117 119/119/119
f 120/120/120 117/117/117 118/118/118
f 121/121/121 120/120/120 118/118/118
f 122/122/122 120/120/120 121/121/121
f 124/124/124 123/123/123 125/125/125
f 126/126/126 123/123/123 124/124/124
f 125/125/125 127/127/127 128/128/128
f 123/123/123 127/127/127 125/125/125
