mtllib ./TunnelMouldingVertical.mtl
g pb-Cube-318504
v 0 0 0
v -0.2 0 0
v 0 3 0
v -0.2 3 0
v -0.2 0 0
v -0.2 0 -0.2
v -0.2 3 0
v -0.2 3 -0.2
v -0.2 0 -0.2
v 0 0 -0.2
v -0.2 3 -0.2
v 0 3 -0.2
v 0 0 -0.2
v 0 0 0
v 0 3 -0.2
v 0 3 0

vn 0 0 1
vn 0 0 1
vn 0 0 1
vn 0 0 1
vn -1 0 0
vn -1 0 0
vn -1 0 0
vn -1 0 0
vn 0 0 -1
vn 0 0 -1
vn 0 0 -1
vn 0 0 -1
vn 1 0 0
vn 1 0 0
vn 1 0 0
vn 1 0 0

vt 0.2 0
vt 0.1333334 0
vt 0.2 1
vt 0.1333334 1
vt 0.1333333 0
vt 0.06666667 0
vt 0.1333333 1
vt 0.06666667 1
vt 0.06666667 0
vt 0 0
vt 0.06666667 1
vt 0 1
vt 0.2666667 0
vt 0.2 0
vt 0.2666667 1
vt 0.2 1

g Default_Prototype
usemtl Default_Prototype
usemap Default_Prototype
f 2/2/2 1/1/1 3/3/3
f 4/4/4 2/2/2 3/3/3
f 6/6/6 5/5/5 7/7/7
f 8/8/8 6/6/6 7/7/7
f 10/10/10 9/9/9 11/11/11
f 12/12/12 10/10/10 11/11/11
f 14/14/14 13/13/13 15/15/15
f 16/16/16 14/14/14 15/15/15
