mtllib ./WallArch_1.mtl
g WallArch_1
v -0.7493579 2.493333 0.5059681
v -2.5 2.495058 0.5
v -2.499999 5.000001 0.5
v -0.7414597 4.998005 0.5068264
v -2.500001 -8.389393E-07 0.5
v -0.7499991 1.09991E-07 0.5068245
v -0.6446102 2.70144 0.5059681
v -0.6276807 4.997983 0.5068264
v -0.5222508 2.848768 0.5059681
v -0.5139018 4.998006 0.5068264
v -0.3478988 2.975196 0.5059681
v -0.3397878 4.998006 0.5068264
v -0.1735467 3.054551 0.5059681
v -0.1655101 4.998006 0.5068264
v 0.0008053815 3.07956 0.5059681
v 0.008945351 4.998006 0.5068264
v 0.1835925 4.998006 0.5068264
v 0.1751575 3.054551 0.5059681
v 0.3584451 4.998006 0.5068264
v 0.3495096 2.975196 0.5059681
v 0.5335173 4.998006 0.5068264
v 0.5238617 2.848768 0.5059681
v 0.6482032 4.997983 0.5068264
v 0.646224 2.701439 0.5059681
v 0.7628892 4.998005 0.5068264
v 0.7509682 2.493333 0.5059681
v 2.5 2.495058 0.5
v 2.500001 5 0.5000019
v 0.7500007 -5.00009E-07 0.5068245
v 2.499999 2.105029E-07 0.5
v -2.5 2.495055 -0.5
v -0.7493574 2.493334 -0.50597
v -0.7414595 4.998005 -0.5068264
v -2.499999 5 -0.5
v -2.500001 -3.103508E-07 -0.5
v -0.749999 5.399584E-07 -0.5068264
v -0.6446099 2.70144 -0.50597
v -0.6276806 4.997983 -0.5068264
v -0.5222508 2.848768 -0.50597
v -0.5139017 4.998006 -0.5068264
v -0.3478988 2.975196 -0.50597
v -0.3397878 4.998006 -0.5068264
v -0.1735467 3.054551 -0.50597
v -0.16551 4.998006 -0.5068264
v 0.0008054716 3.07956 -0.50597
v 0.008945431 4.998006 -0.5068264
v 0.1835926 4.998006 -0.5068264
v 0.1751575 3.054551 -0.50597
v 0.3584452 4.998006 -0.5068264
v 0.3495096 2.975196 -0.50597
v 0.5335173 4.998006 -0.5068264
v 0.5238617 2.848768 -0.50597
v 0.6482034 4.997983 -0.5068264
v 0.6462243 2.701439 -0.50597
v 0.7628893 4.998005 -0.5068264
v 0.7509691 2.493334 -0.50597
v 2.500002 5 -0.5
v 2.5 2.495058 -0.5
v 0.7500009 -8.004163E-08 -0.5068264
v 2.499999 1.192093E-07 -0.5
v 0.7509691 2.493334 -0.005970001
v 0.7500009 -8.004163E-08 -0.006826401
v 0.7509691 2.493334 -0.50597
v 0.7500009 -8.004163E-08 -0.5068264
v 0.7509691 2.493334 0.3440304
v 0.7500009 -8.004163E-08 0.343174
v 0.7509682 2.493333 0.5059681
v 0.7500007 -5.00009E-07 0.5068245
v -0.7493574 2.493334 0.3440304
v -0.749999 5.399584E-07 0.343174
v -0.7499991 1.09991E-07 0.5068245
v -0.7493579 2.493333 0.5059681
v -0.749999 5.399584E-07 -0.006826401
v -0.7493574 2.493334 -0.005970001
v -0.749999 5.399584E-07 -0.5068264
v -0.7493574 2.493334 -0.50597
v -0.6446099 2.70144 0.3440304
v -0.7493574 2.493334 0.3440304
v -0.7493579 2.493333 0.5059681
v -0.6446102 2.70144 0.5059681
v -0.5222508 2.848768 0.3440304
v -0.5222508 2.848768 0.5059681
v -0.3478988 2.975196 0.5059681
v -0.3478988 2.975196 0.3440304
v -0.1735467 3.054551 0.5059681
v -0.1735467 3.054551 0.3440304
v 0.0008053815 3.07956 0.5059681
v 0.0008054716 3.07956 0.3440304
v 0.1751575 3.054551 0.5059681
v 0.1751575 3.054551 0.3440304
v 0.3495096 2.975196 0.5059681
v 0.3495096 2.975196 0.3440304
v 0.5238617 2.848768 0.5059681
v 0.5238617 2.848768 0.3440304
v 0.6462243 2.701439 0.3440304
v 0.646224 2.701439 0.5059681
v 0.7509691 2.493334 0.3440304
v 0.7509682 2.493333 0.5059681
v -0.1735467 3.054551 -0.005970001
v 0.0008054716 3.07956 -0.005970001
v 0.1751575 3.054551 -0.005970001
v 0.3495096 2.975196 -0.005970001
v 0.5238617 2.848768 -0.005970001
v 0.6462243 2.701439 -0.005970001
v 0.7509691 2.493334 -0.005970001
v -0.3478988 2.975196 -0.005970001
v -0.5222508 2.848768 -0.005970001
v -0.6446099 2.70144 -0.005970001
v -0.7493574 2.493334 -0.005970001
v -0.3478988 2.975196 -0.50597
v -0.1735467 3.054551 -0.50597
v -0.5222508 2.848768 -0.50597
v -0.6446099 2.70144 -0.50597
v -0.7493574 2.493334 -0.50597
v 0.6462243 2.701439 -0.50597
v 0.7509691 2.493334 -0.50597
v 0.5238617 2.848768 -0.50597
v 0.3495096 2.975196 -0.50597
v 0.1751575 3.054551 -0.50597
v 0.0008054716 3.07956 -0.50597

vn -0.003586624 -2.376885E-06 0.9999936
vn -0.003409069 1.48956E-09 0.9999942
vn -0.003646157 -0.0001655813 0.9999934
vn -0.003434606 -0.0003334967 0.999994
vn -0.003654243 0.0001721478 0.9999934
vn -0.003899676 0.0003444761 0.9999924
vn 0.0003810681 -0.000365492 0.9999998
vn 0.0001612225 -0.0003829132 0.9999999
vn 0.0002620527 -0.0003929079 0.9999998
vn 0.0001118433 -0.0004088475 0.9999999
vn 0.000163859 -0.0004163058 0.9999999
vn 6.530662E-05 -0.0004302025 0.9999999
vn 8.701956E-05 -0.000436066 0.9999999
vn 2.121056E-05 -0.0004436313 0.9999999
vn -2.159942E-11 -0.000444498 0.9999999
vn 0 -0.0004473969 0.9999999
vn -2.11709E-05 -0.0004434501 0.9999999
vn -8.67766E-05 -0.0004353265 0.9999999
vn -6.503172E-05 -0.0004296481 0.9999999
vn -0.0001630169 -0.0004149257 0.9999999
vn -0.0001111377 -0.000407906 0.9999998
vn -0.0002600188 -0.0003907206 0.9999998
vn -0.0001598327 -0.000381581 0.9999999
vn -0.0003768352 -0.0003623936 0.9999998
vn 0.003441113 -0.0001904903 0.999994
vn 0.00329205 -1.889277E-05 0.9999946
vn 0.003662826 -4.787253E-06 0.9999933
vn 0.003928613 -7.629241E-07 0.9999923
vn 0.003655928 0.0001709675 0.9999933
vn 0.003899684 -1.706352E-09 0.9999924
vn -0.003568176 -0.0001103587 -0.9999937
vn -0.003490509 -2.894496E-06 -0.999994
vn -0.003423135 -0.0001760366 -0.9999941
vn -0.00388183 1.847346E-09 -0.9999924
vn -0.003655334 0.0001721483 -0.9999934
vn -0.003900767 0.0003444769 -0.9999923
vn 0.0003802209 -0.0003646798 -0.9999998
vn 0.0001608641 -0.0003820622 -0.9999999
vn 0.0002614703 -0.0003920347 -0.9999999
vn 0.0001115948 -0.0004079389 -0.9999998
vn 0.0001634949 -0.0004153807 -0.9999999
vn 6.516148E-05 -0.0004292465 -0.9999999
vn 8.682616E-05 -0.0004350969 -0.9999999
vn 2.116345E-05 -0.0004426454 -0.9999999
vn 0 -0.0004435101 -0.9999999
vn 0 -0.0004464027 -0.9999999
vn -2.112386E-05 -0.0004424647 -0.9999999
vn -8.658378E-05 -0.0004343591 -0.9999999
vn -6.48872E-05 -0.0004286933 -0.9999999
vn -0.0001626547 -0.0004140037 -0.9999999
vn -0.0001108907 -0.0004069996 -0.9999999
vn -0.0002594404 -0.0003898523 -0.9999999
vn -0.0001594772 -0.0003807332 -0.9999999
vn -0.0003759963 -0.0003615884 -0.9999999
vn 0.003468129 -0.000360097 -0.9999939
vn 0.003500515 -1.247656E-05 -0.9999939
vn 0.003670814 -0.0001796861 -0.9999932
vn 0.003575563 0.0001138241 -0.9999936
vn 0.003657021 0.0001709668 -0.9999933
vn 0.003900775 -1.493058E-09 -0.9999923
vn -0.9999999 0.0003883225 0
vn -0.9999999 0.0003883225 0
vn -0.9999999 0.0003883225 0
vn -0.9999999 0.0003883225 0
vn -0.9999999 0.0003882535 -1.763676E-06
vn -0.9999999 0.0003883226 -2.758238E-07
vn -0.9999999 0.0003880337 -5.886857E-06
vn -0.9999999 0.0003881791 -3.659591E-06
vn 1 -0.0002572972 5.80851E-07
vn 0.9999999 -0.00025732 2.317939E-07
vn 0.9999999 -0.0002572482 1.829656E-06
vn 1 -0.0002571755 2.943436E-06
vn 0.9999999 -0.0002573199 0
vn 0.9999999 -0.0002573199 0
vn 1 -0.0002573199 0
vn 1 -0.0002573199 0
vn 0.8616939 -0.5074285 2.923497E-07
vn 0.8932316 -0.4495968 2.030184E-07
vn 0.8932318 -0.4495966 9.762563E-07
vn 0.8211216 -0.5707532 7.429477E-07
vn 0.6971001 -0.7169738 7.151182E-08
vn 0.6781049 -0.7349651 0
vn 0.5361357 -0.8441318 0
vn 0.5186795 -0.8549687 -3.775527E-09
vn 0.3313935 -0.9434927 -1.835845E-08
vn 0.3033711 -0.9528725 2.154124E-09
vn 0.04775939 -0.9988589 -8.823594E-10
vn 0.01756195 -0.9998458 4.24241E-09
vn -0.240106 -0.9707466 1.921563E-08
vn -0.2698151 -0.9629122 1.272738E-08
vn -0.478637 -0.878013 2.896182E-08
vn -0.497561 -0.867429 0
vn -0.6781022 -0.7349676 -6.260908E-07
vn -0.6546533 -0.7559292 0
vn -0.8211189 -0.5707572 -5.761038E-07
vn -0.8616958 -0.5074253 -4.522324E-06
vn -0.8932357 -0.4495885 -1.664603E-06
vn -0.8932372 -0.4495858 -7.908076E-06
vn 0.294755 -0.9555729 0
vn 0.008437435 -0.9999644 0
vn -0.2786342 -0.9603974 0
vn -0.5031361 -0.8642073 0
vn -0.672682 -0.7399316 0
vn -0.8390588 -0.5440409 0
vn -0.8932356 -0.449589 0
vn 0.5132808 -0.8582208 0
vn 0.6835261 -0.7299261 0
vn 0.8462037 -0.5328595 0
vn 0.8932316 -0.4495968 0
vn 0.4786371 -0.8780128 0
vn 0.2401059 -0.9707466 0
vn 0.647442 -0.7621147 0
vn 0.8211216 -0.5707533 0
vn 0.8932316 -0.4495968 0
vn -0.8616948 -0.507427 0
vn -0.8932355 -0.449589 0
vn -0.7087959 -0.7054135 0
vn -0.5361356 -0.8441319 0
vn -0.3313935 -0.9434927 0
vn -0.04775941 -0.9988589 0

vt 0.350127 0.497712
vt -1E-06 0.498058
vt -1E-06 0.999046
vt 0.351707 0.998647
vt -1E-06 -0.000954
vt 0.349999 -0.000954
vt 0.371078 0.539334
vt 0.374463 0.998642
vt 0.395549 0.568799
vt 0.397218 0.998647
vt 0.430419 0.594085
vt 0.432041 0.998647
vt 0.465289 0.609956
vt 0.466897 0.998647
vt 0.50016 0.614958
vt 0.501788 0.998647
vt 0.536717 0.998647
vt 0.53503 0.609956
vt 0.571688 0.998647
vt 0.569901 0.594085
vt 0.606702 0.998647
vt 0.604771 0.568799
vt 0.629639 0.998642
vt 0.629245 0.539334
vt 0.652576 0.998647
vt 0.650192 0.497712
vt 0.999999 0.498057
vt 0.999999 0.999045
vt 0.649999 -0.000954
vt 0.999999 -0.000954
vt 1 0.499012
vt 0.649872 0.498667
vt 0.648292 0.999601
vt 1 1.000001
vt 1 1E-06
vt 0.65 1E-06
vt 0.628923 0.540287
vt 0.625536 0.999597
vt 0.60445 0.569754
vt 0.602781 0.999602
vt 0.56958 0.59504
vt 0.567958 0.999602
vt 0.53471 0.610911
vt 0.533102 0.999602
vt 0.499839 0.615912
vt 0.498211 0.999602
vt 0.463282 0.999602
vt 0.464969 0.610911
vt 0.428311 0.999601
vt 0.430098 0.59504
vt 0.393297 0.999601
vt 0.395228 0.569754
vt 0.37036 0.999597
vt 0.370756 0.540287
vt 0.347422 0.999601
vt 0.349806 0.498667
vt 0 1
vt 0 0.499012
vt 0.35 1E-06
vt 0 1E-06
vt 0.4498163 0.498736
vt 0.4499893 7.003546E-05
vt 0.3498165 0.498667
vt 0.3499894 1.013279E-06
vt 0.5198163 0.4987844
vt 0.5199892 0.0001183599
vt 0.5522038 0.4988065
vt 0.5527192 0.0001408756
vt 0.4799366 0.4987257
vt 0.4799357 5.969405E-05
vt 0.4472057 7.089972E-05
vt 0.4475491 0.4987367
vt 0.5499357 3.552437E-05
vt 0.5499365 0.4987015
vt 0.6499355 9.983778E-07
vt 0.6499364 0.498667
vt 0.566328 0.9301413
vt 0.5662798 0.9999254
vt 0.6741647 1
vt 0.6742129 0.930216
vt 0.5663843 0.8486243
vt 0.6742691 0.8486986
vt 0.6743492 0.7325435
vt 0.5664645 0.732469
vt 0.6744295 0.616388
vt 0.5665447 0.6163135
vt 0.6745097 0.5002327
vt 0.5666249 0.5001583
vt 0.6745899 0.3840774
vt 0.5667051 0.3840028
vt 0.6746699 0.2679221
vt 0.5667851 0.2678477
vt 0.6747501 0.1517666
vt 0.5668653 0.1516922
vt 0.5669215 0.07017282
vt 0.6748064 0.07024767
vt 0.5669698 0.0003908395
vt 0.6748546 0.0004658902
vt 0.3333704 0.6161527
vt 0.3334506 0.4999972
vt 0.3335308 0.3838419
vt 0.333611 0.2676867
vt 0.3336912 0.1515314
vt 0.3337475 0.070012
vt 0.3337956 0.0002299173
vt 0.3332903 0.732308
vt 0.3332101 0.8484632
vt 0.3331539 0.9299805
vt 0.3331058 0.9997645
vt 0.0001846486 0.7320781
vt 0.000264663 0.6159228
vt 0.0001044357 0.8482333
vt 4.814762E-05 0.9297506
vt 0 0.9995346
vt 0.0006417035 0.06978208
vt 0.0006898511 0
vt 0.0005854155 0.1513015
vt 0.0005053018 0.2674567
vt 0.0004249896 0.383612
vt 0.0003448759 0.4997673

g Stone Brick Wall
usemtl Stone Brick Wall
usemap Stone Brick Wall
f 2/2/2 1/1/1 3/3/3
f 3/3/3 1/1/1 4/4/4
f 5/5/5 1/1/1 2/2/2
f 6/6/6 1/1/1 5/5/5
f 7/7/7 4/4/4 1/1/1
f 8/8/8 4/4/4 7/7/7
f 7/7/7 9/9/9 8/8/8
f 8/8/8 9/9/9 10/10/10
f 11/11/11 10/10/10 9/9/9
f 12/12/12 10/10/10 11/11/11
f 13/13/13 12/12/12 11/11/11
f 14/14/14 12/12/12 13/13/13
f 15/15/15 14/14/14 13/13/13
f 16/16/16 14/14/14 15/15/15
f 16/16/16 15/15/15 17/17/17
f 17/17/17 15/15/15 18/18/18
f 17/17/17 18/18/18 19/19/19
f 19/19/19 18/18/18 20/20/20
f 19/19/19 20/20/20 21/21/21
f 21/21/21 20/20/20 22/22/22
f 22/22/22 23/23/23 21/21/21
f 24/24/24 23/23/23 22/22/22
f 24/24/24 25/25/25 23/23/23
f 26/26/26 25/25/25 24/24/24
f 26/26/26 27/27/27 25/25/25
f 25/25/25 27/27/27 28/28/28
f 26/26/26 29/29/29 27/27/27
f 27/27/27 29/29/29 30/30/30
f 32/32/32 31/31/31 33/33/33
f 33/33/33 31/31/31 34/34/34
f 31/31/31 32/32/32 35/35/35
f 35/35/35 32/32/32 36/36/36
f 33/33/33 37/37/37 32/32/32
f 38/38/38 37/37/37 33/33/33
f 38/38/38 39/39/39 37/37/37
f 40/40/40 39/39/39 38/38/38
f 40/40/40 41/41/41 39/39/39
f 42/42/42 41/41/41 40/40/40
f 42/42/42 43/43/43 41/41/41
f 44/44/44 43/43/43 42/42/42
f 44/44/44 45/45/45 43/43/43
f 46/46/46 45/45/45 44/44/44
f 47/47/47 45/45/45 46/46/46
f 48/48/48 45/45/45 47/47/47
f 49/49/49 48/48/48 47/47/47
f 50/50/50 48/48/48 49/49/49
f 51/51/51 50/50/50 49/49/49
f 52/52/52 50/50/50 51/51/51
f 53/53/53 52/52/52 51/51/51
f 54/54/54 52/52/52 53/53/53
f 55/55/55 54/54/54 53/53/53
f 56/56/56 54/54/54 55/55/55
f 57/57/57 56/56/56 55/55/55
f 58/58/58 56/56/56 57/57/57
f 58/58/58 59/59/59 56/56/56
f 60/60/60 59/59/59 58/58/58

g Default-Material
usemtl Default-Material
usemap Default-Material
f 62/62/62 61/61/61 63/63/63
f 64/64/64 62/62/62 63/63/63
f 66/66/66 65/65/65 61/61/61
f 62/62/62 66/66/66 61/61/61
f 67/67/67 65/65/65 68/68/68
f 68/68/68 65/65/65 66/66/66
f 70/70/70 69/69/69 71/71/71
f 71/71/71 69/69/69 72/72/72
f 69/69/69 70/70/70 73/73/73
f 74/74/74 69/69/69 73/73/73
f 74/74/74 73/73/73 75/75/75
f 76/76/76 74/74/74 75/75/75

g Default_Prototype 1
usemtl Default_Prototype 1
usemap Default_Prototype 1
f 78/78/78 77/77/77 79/79/79
f 79/79/79 77/77/77 80/80/80
f 77/77/77 81/81/81 80/80/80
f 80/80/80 81/81/81 82/82/82
f 81/81/81 83/83/83 82/82/82
f 84/84/84 83/83/83 81/81/81
f 84/84/84 85/85/85 83/83/83
f 86/86/86 85/85/85 84/84/84
f 86/86/86 87/87/87 85/85/85
f 88/88/88 87/87/87 86/86/86
f 88/88/88 89/89/89 87/87/87
f 90/90/90 89/89/89 88/88/88
f 90/90/90 91/91/91 89/89/89
f 92/92/92 91/91/91 90/90/90
f 92/92/92 93/93/93 91/91/91
f 94/94/94 93/93/93 92/92/92
f 94/94/94 95/95/95 93/93/93
f 93/93/93 95/95/95 96/96/96
f 95/95/95 97/97/97 96/96/96
f 96/96/96 97/97/97 98/98/98
f 88/88/88 86/86/86 99/99/99
f 100/100/100 88/88/88 99/99/99
f 90/90/90 88/88/88 100/100/100
f 101/101/101 90/90/90 100/100/100
f 92/92/92 90/90/90 101/101/101
f 102/102/102 92/92/92 101/101/101
f 94/94/94 92/92/92 102/102/102
f 103/103/103 94/94/94 102/102/102
f 95/95/95 94/94/94 103/103/103
f 104/104/104 95/95/95 103/103/103
f 97/97/97 95/95/95 104/104/104
f 105/105/105 97/97/97 104/104/104
f 86/86/86 84/84/84 106/106/106
f 99/99/99 86/86/86 106/106/106
f 84/84/84 81/81/81 107/107/107
f 106/106/106 84/84/84 107/107/107
f 81/81/81 77/77/77 108/108/108
f 107/107/107 81/81/81 108/108/108
f 77/77/77 78/78/78 109/109/109
f 108/108/108 77/77/77 109/109/109
f 99/99/99 106/106/106 110/110/110
f 111/111/111 99/99/99 110/110/110
f 106/106/106 107/107/107 112/112/112
f 110/110/110 106/106/106 112/112/112
f 107/107/107 108/108/108 113/113/113
f 112/112/112 107/107/107 113/113/113
f 108/108/108 109/109/109 114/114/114
f 113/113/113 108/108/108 114/114/114
f 105/105/105 104/104/104 115/115/115
f 116/116/116 105/105/105 115/115/115
f 104/104/104 103/103/103 117/117/117
f 115/115/115 104/104/104 117/117/117
f 103/103/103 102/102/102 118/118/118
f 117/117/117 103/103/103 118/118/118
f 102/102/102 101/101/101 119/119/119
f 118/118/118 102/102/102 119/119/119
f 101/101/101 100/100/100 120/120/120
f 119/119/119 101/101/101 120/120/120
f 100/100/100 99/99/99 111/111/111
f 120/120/120 100/100/100 111/111/111
