mtllib ./WallDoubleArch_5.mtl
g WallDoubleArch_5
v -1.499103 -2.498288 2.493333
v -2.5 -2.500001 2.495058
v -2.499998 -2.500004 5
v -1.483305 -2.500003 4.998004
v -2.500002 -2.499998 -6.256968E-07
v -1.500386 -2.499997 3.883148E-07
v -1.289607 -2.498288 2.701439
v -1.255747 -2.500003 4.997982
v -1.044888 -2.498288 2.848768
v -1.028189 -2.500003 4.998005
v -0.6961844 -2.498288 2.975196
v -0.6799616 -2.500003 4.998005
v -0.3474801 -2.498288 3.05455
v -0.3314061 -2.500003 4.998005
v 0.001224039 -2.498288 3.07956
v 0.01750482 -2.500003 4.998005
v 0.3667991 -2.500003 4.998005
v 0.3499283 -2.498288 3.05455
v 0.7165043 -2.500003 4.998005
v 0.6986324 -2.498288 2.975196
v 1.066649 -2.500003 4.998005
v 1.047337 -2.498288 2.848768
v 1.296021 -2.500003 4.997982
v 1.292061 -2.498288 2.701438
v 1.525393 -2.500003 4.998004
v 1.501549 -2.498288 2.493332
v 2.5 -2.500001 2.495057
v 2.500002 -2.500004 4.999999
v 1.499613 -2.499997 -1.057702E-06
v 2.499998 -2.499998 3.964266E-08
v -2.5 2.500001 2.495054
v -1.499102 2.49828 2.493334
v -1.483305 2.499991 4.998006
v -2.499998 2.499999 4.999999
v -2.500002 2.500003 -9.536743E-07
v -1.500386 2.499995 1.040396E-06
v -1.289607 2.49828 2.70144
v -1.255747 2.499991 4.997983
v -1.044888 2.49828 2.848768
v -1.028189 2.499991 4.998006
v -0.6961842 2.49828 2.975196
v -0.6799613 2.499991 4.998006
v -0.3474802 2.49828 3.05455
v -0.331406 2.499991 4.998006
v 0.001224176 2.49828 3.07956
v 0.01750495 2.499991 4.998006
v 0.3667992 2.499991 4.998006
v 0.3499282 2.49828 3.05455
v 0.7165046 2.499991 4.998006
v 0.6986325 2.49828 2.975196
v 1.066649 2.499991 4.998006
v 1.047337 2.49828 2.848768
v 1.296021 2.499991 4.997983
v 1.292061 2.49828 2.701439
v 1.525393 2.499991 4.998005
v 1.501551 2.49828 2.493333
v 2.500002 2.500002 5
v 2.5 2.500004 2.495059
v 1.499613 2.499995 -1.004448E-07
v 2.499998 2.500006 1.192093E-06
v -1.483305 -2.00001 4.998005
v -2.499499 -2.000004 5
v -2.499501 -2.000002 2.495055
v -2.499503 -2 -5.026167E-07
v -1.500386 -2.000006 5.039541E-07
v -1.499102 -2.00172 2.493334
v -1.289607 -2.00172 2.70144
v -1.255747 -2.00001 4.997983
v -1.044888 -2.00172 2.848768
v -1.028189 -2.00001 4.998005
v -0.6961842 -2.001721 2.975196
v -0.6799613 -2.00001 4.998005
v -0.3474802 -2.001721 3.05455
v -0.331406 -2.00001 4.998005
v 0.001224176 -2.001721 3.07956
v 0.01750495 -2.00001 4.998005
v 0.3667992 -2.00001 4.998005
v 0.3499282 -2.001721 3.05455
v 0.7165046 -2.00001 4.998005
v 0.6986325 -2.001721 2.975196
v 1.066649 -2.000009 4.998005
v 1.047337 -2.00172 2.848768
v 1.296021 -2.000009 4.997982
v 1.292061 -2.00172 2.701439
v 1.525393 -2.000009 4.998004
v 1.501551 -2.00172 2.493333
v 2.500501 -2 4.999999
v 2.500499 -1.999998 2.495058
v 1.499613 -2.000005 -6.368866E-07
v 2.500497 -1.999996 -1.635787E-08
v -2.499501 -2.500003 2.495057
v -2.499499 -2.500006 5
v -2.5 -2.500001 2.495058
v -2.499998 -2.500004 5
v -2.499499 -2.500006 5
v -1.483305 -2.500003 4.998004
v -2.499998 -2.500004 5
v -1.483305 -2.500003 4.998004
v -2.499503 -2.5 -8.641156E-07
v -2.499501 -2.500003 2.495057
v -2.500002 -2.499998 -6.256968E-07
v -2.5 -2.500001 2.495058
v -1.499103 -2.498288 2.493333
v -1.500386 -2.499997 3.883148E-07
v -2.499503 -2.5 -8.641156E-07
v -1.500386 -2.499997 3.883148E-07
v -2.500002 -2.499998 -6.256968E-07
v -1.289607 -2.498288 2.701439
v -1.255747 -2.500003 4.997982
v -1.044888 -2.498288 2.848768
v -1.028189 -2.500003 4.998005
v -0.6961844 -2.498288 2.975196
v -0.6799616 -2.500003 4.998005
v -0.3474801 -2.498288 3.05455
v -0.3314061 -2.500003 4.998005
v 0.001224039 -2.498288 3.07956
v 0.01750482 -2.500003 4.998005
v 0.3667991 -2.500003 4.998005
v 0.3499283 -2.498288 3.05455
v 0.7165043 -2.500003 4.998005
v 0.6986324 -2.498288 2.975196
v 1.066649 -2.500003 4.998005
v 1.047337 -2.498288 2.848768
v 1.296021 -2.500003 4.997982
v 1.292061 -2.498288 2.701438
v 1.525393 -2.500003 4.998004
v 1.501549 -2.498288 2.493332
v 2.500501 -2.500006 4.999999
v 1.525393 -2.500003 4.998004
v 2.500002 -2.500004 4.999999
v 2.500501 -2.500006 4.999999
v 2.500499 -2.500003 2.495058
v 2.500002 -2.500004 4.999999
v 2.5 -2.500001 2.495057
v 1.499613 -2.499997 -1.057702E-06
v 2.500499 -2.500003 2.495058
v 2.500497 -2.5 3.964243E-08
v 2.5 -2.500001 2.495057
v 2.499998 -2.499998 3.964266E-08
v 2.500497 -2.5 3.964243E-08
v 1.499613 -2.499997 -1.057702E-06
v 2.499998 -2.499998 3.964266E-08
v 1.501551 -2.00172 2.493333
v 1.499613 -2.000005 -6.368866E-07
v 1.501551 -1.50172 2.493333
v 1.499613 -1.500005 -5.772819E-07
v 1.501551 -2.35172 2.493333
v 1.501549 -2.498288 2.493332
v 1.499613 -2.499997 -1.057702E-06
v 1.499613 -2.350006 -6.786099E-07
v 1.501551 2.49828 2.493333
v 1.499613 2.499995 -1.004448E-07
v -1.500386 -1.500006 5.635587E-07
v -1.499102 -1.50172 2.493334
v -1.500386 2.499995 1.040396E-06
v -1.499102 2.49828 2.493334
v -1.500386 -2.350006 4.622308E-07
v -1.499102 -2.351721 2.493334
v -1.500386 -2.000006 5.039541E-07
v -1.499102 -2.00172 2.493334
v -1.500386 -2.499997 3.883148E-07
v -1.499103 -2.498288 2.493333
v -1.499102 -1.50172 2.493334
v -1.289607 -1.50172 2.70144
v -1.499102 2.49828 2.493334
v -1.289607 2.49828 2.70144
v -1.044888 -1.50172 2.848768
v -1.044888 2.49828 2.848768
v -0.6961842 -1.501721 2.975196
v -0.6961842 2.49828 2.975196
v -0.3474802 -1.501721 3.05455
v -0.3474802 2.49828 3.05455
v 0.001224176 -1.501721 3.07956
v 0.001224176 2.49828 3.07956
v 0.3499282 -1.501721 3.05455
v 0.3499282 2.49828 3.05455
v 0.6986325 -1.501721 2.975196
v 0.6986325 2.49828 2.975196
v 1.047337 -1.50172 2.848768
v 1.047337 2.49828 2.848768
v 1.292061 -1.50172 2.701439
v 1.292061 2.49828 2.701439
v 1.501551 -1.50172 2.493333
v 1.501551 2.49828 2.493333
v 1.292061 -2.351721 2.701439
v 1.501551 -2.35172 2.493333
v 1.292061 -2.00172 2.701439
v 1.501551 -2.00172 2.493333
v -1.289607 -2.351721 2.70144
v -1.499102 -2.351721 2.493334
v -1.499103 -2.498288 2.493333
v -1.289607 -2.498288 2.701439
v -1.044888 -2.351721 2.848768
v -1.044888 -2.498288 2.848768
v -0.6961844 -2.498288 2.975196
v -0.6961842 -2.351721 2.975196
v -0.3474801 -2.498288 3.05455
v -0.3474802 -2.351721 3.05455
v 0.001224039 -2.498288 3.07956
v 0.001224176 -2.351721 3.07956
v 0.3499283 -2.498288 3.05455
v 0.3499282 -2.351721 3.05455
v 0.6986324 -2.498288 2.975196
v 0.6986325 -2.351721 2.975196
v 1.047337 -2.498288 2.848768
v 1.047337 -2.351721 2.848768
v 1.292061 -2.498288 2.701438
v 1.501549 -2.498288 2.493332
v 1.047337 -2.00172 2.848768
v 0.6986325 -2.001721 2.975196
v 0.001224176 -2.001721 3.07956
v 0.3499282 -2.001721 3.05455
v -0.3474802 -2.001721 3.05455
v -0.6961842 -2.001721 2.975196
v -1.499102 -2.00172 2.493334
v -1.289607 -2.00172 2.70144
v -1.044888 -2.00172 2.848768
v -1.289607 -2.00172 2.70144
v -1.044888 -2.00172 2.848768
v -0.6961842 -2.001721 2.975196
v -0.3474802 -2.001721 3.05455
v 0.001224176 -2.001721 3.07956
v 0.3499282 -2.001721 3.05455
v 0.6986325 -2.001721 2.975196
v 1.047337 -2.00172 2.848768
v 1.292061 -2.00172 2.701439

vn 0.0008451522 -0.9999996 -3.798784E-05
vn 0.001712211 -0.9999986 -1.240943E-06
vn 0.0008493586 -0.9999995 -0.0003456757
vn 9.929273E-05 -0.9999997 -0.000694549
vn 0.0008576657 -0.9999996 0.0003417021
vn 1.430217E-06 -0.9999998 0.0006854209
vn 0.0003801188 -0.9999996 -0.0007304665
vn 0.0001604124 -0.9999998 -0.0007652152
vn 0.000261227 -0.9999997 -0.0007851081
vn 0.0001119835 -0.9999996 -0.0008168594
vn 0.0001639144 -0.9999996 -0.0008317269
vn 6.546505E-05 -0.9999996 -0.0008594508
vn 8.692264E-05 -0.9999997 -0.000871163
vn 2.0961E-05 -0.9999995 -0.0008863157
vn -1.719719E-07 -0.9999996 -0.0008880992
vn -3.414734E-07 -0.9999995 -0.0008939208
vn -2.115032E-05 -0.9999995 -0.000886038
vn -8.669204E-05 -0.9999995 -0.0008698065
vn -6.496831E-05 -0.9999997 -0.0008584609
vn -0.0001626357 -0.9999997 -0.0008290852
vn -0.0001110455 -0.9999996 -0.0008150896
vn -0.0002595386 -0.9999997 -0.0007808552
vn -0.0001597224 -0.9999997 -0.0007626667
vn -0.0003762883 -0.9999996 -0.0007243851
vn -0.0007744959 -0.9999995 -0.0004047857
vn -0.001615758 -0.9999987 -5.823301E-05
vn -0.0008626615 -0.9999996 3.20824E-06
vn -4.867271E-07 -1 -1.23733E-06
vn -0.0008575518 -0.9999995 0.0003423995
vn -4.766523E-07 -1 -1.242232E-06
vn 0.001141443 0.9999993 -0.0002298082
vn 0.001119335 0.9999993 -4.764074E-05
vn 0.0007678889 0.9999996 -0.0004074842
vn 7.974629E-06 1 7.614273E-07
vn 0.0008643403 0.9999995 0.0003438033
vn 8.107975E-06 0.9999998 0.000687521
vn 0.0003803739 0.9999996 -0.0007283545
vn 0.0001613367 0.9999997 -0.0007631403
vn 0.00026175 0.9999996 -0.0007831404
vn 0.0001114705 0.9999996 -0.0008149693
vn 0.0001633126 0.9999997 -0.0008298362
vn 6.508874E-05 0.9999996 -0.0008575368
vn 8.67293E-05 0.9999997 -0.0008692247
vn 2.113988E-05 0.9999995 -0.0008843047
vn 0 0.9999996 -0.0008860323
vn 0 0.9999996 -0.0008918109
vn -2.110033E-05 0.9999995 -0.0008839436
vn -8.648713E-05 0.9999996 -0.0008677506
vn -6.481472E-05 0.9999996 -0.0008564317
vn -0.0001624733 0.9999996 -0.0008270852
vn -0.0001107673 0.9999996 -0.0008130926
vn -0.0002597188 0.9999996 -0.0007787707
vn -0.0001599474 0.9999996 -0.0007604741
vn -0.0003761495 0.9999996 -0.0007221688
vn -0.0001088113 0.9999998 -0.000691175
vn -0.001130258 0.9999994 -3.865471E-05
vn -0.000878575 0.9999995 -0.000336864
vn -0.001154658 0.9999993 0.000229639
vn -0.0008679313 0.9999995 0.000344459
vn -1.072471E-05 1 7.64459E-07
vn 0 0 0
vn 0 0 0
vn 0 0 0
vn 0 0 0
vn 0 0 0
vn 0 0 0
vn 0 0 0
vn 0 0 0
vn 0 0 0
vn 0 0 0
vn 0 0 0
vn 0 0 0
vn 0 0 0
vn 0 0 0
vn 0 0 0
vn 0 0 0
vn 0 0 0
vn 0 0 0
vn 0 0 0
vn 0 0 0
vn 0 0 0
vn 0 0 0
vn 0 0 0
vn 0 0 0
vn 0 0 0
vn 0 0 0
vn 0 0 0
vn 0 0 0
vn 0 0 0
vn 0 0 0
vn 0.003822237 0.9999927 1.139233E-06
vn 0.003822237 0.9999927 1.139233E-06
vn 0.003822237 0.9999927 1.139233E-06
vn 0.003822237 0.9999926 1.139233E-06
vn -0.001745281 -0.4566092 -0.8896656
vn -0.001745281 -0.4566092 -0.8896656
vn -0.001745281 -0.4566092 -0.8896656
vn 0 0 0
vn 0.003822237 0.9999927 1.335587E-06
vn 0.003822237 0.9999927 1.335587E-06
vn 0.003822237 0.9999927 1.335587E-06
vn 0.003822237 0.9999927 1.335587E-06
vn 0 0 0
vn 0 0 0
vn -8.287342E-07 -0.1242483 0.9922512
vn -8.287342E-07 -0.1242483 0.9922512
vn -8.287342E-07 -0.1242483 0.9922512
vn 0 0 0
vn 0 0 0
vn 0 0 0
vn 0 0 0
vn 0 0 0
vn 0 0 0
vn 0 0 0
vn 0 0 0
vn 0 0 0
vn 0 0 0
vn 0 0 0
vn 0 0 0
vn 0 0 0
vn 0 0 0
vn 0 0 0
vn 0 0 0
vn 0 0 0
vn 0 0 0
vn 0 0 0
vn 0 0 0
vn 0.001804736 0.472164 -0.8815088
vn 0.001804736 0.472164 -0.8815088
vn 0.001804736 0.472164 -0.8815088
vn -0.003822237 -0.9999927 -1.234411E-06
vn -0.003822237 -0.9999927 -1.234411E-06
vn -0.003822237 -0.9999927 -1.234411E-06
vn -0.003822236 -0.9999927 -1.234411E-06
vn 0 0 0
vn -0.003822236 -0.9999927 -1.240032E-06
vn -0.003822236 -0.9999927 -1.240032E-06
vn -0.003822236 -0.9999927 -1.240032E-06
vn -0.003822237 -0.9999927 -1.240032E-06
vn -1.097059E-06 -0.0002871372 0.9999999
vn -1.097059E-06 -0.0002871372 0.9999999
vn -1.097059E-06 -0.0002871372 0.9999999
vn -0.9999997 0 0.0007770752
vn -0.9999997 -4.631729E-11 0.0007770752
vn -0.9999998 -9.263459E-12 0.0007770753
vn -0.9999998 -4.904185E-11 0.0007770754
vn -0.9999997 2.395152E-06 0.0007769326
vn -0.9999997 1.056712E-05 0.0007764467
vn -0.9999996 5.221927E-06 0.0007767645
vn -0.9999996 -2.578666E-10 0.0007770751
vn -0.9999997 -4.631729E-11 0.0007770753
vn -0.9999998 -9.26346E-11 0.0007770755
vn 0.9999998 5.525589E-11 -0.0005150223
vn 0.9999998 2.889197E-11 -0.0005150223
vn 0.9999999 3.069773E-11 -0.0005150224
vn 0.9999999 0 -0.0005150224
vn 0.9999999 4.297766E-11 -0.0005150223
vn 0.9999999 -5.975905E-07 -0.0005149868
vn 0.9999998 3.069774E-11 -0.0005150223
vn 0.9999998 0 -0.0005150223
vn 0.9999999 -2.008228E-06 -0.0005149029
vn 0.9999998 -4.063364E-06 -0.0005147806
vn 0.7047505 0 -0.7094553
vn 0.6404795 0 -0.7679753
vn 0.7047505 0 -0.7094553
vn 0.583946 0 -0.8117924
vn 0.4420665 0 -0.8969823
vn 0.3909582 0 -0.9204084
vn 0.2983326 0 -0.9544619
vn 0.2629744 0 -0.9648029
vn 0.1674499 0 -0.9858806
vn 0.1227355 0 -0.9924394
vn 0.0185911 0 -0.9998271
vn -0.02390016 0 -0.9997144
vn -0.1283718 0 -0.9917262
vn -0.172973 0 -0.9849266
vn -0.2674558 0 -0.9635702
vn -0.3026706 0 -0.9530953
vn -0.3969895 0 -0.9178231
vn -0.4489271 0 -0.8935685
vn -0.5912378 0 -0.8064973
vn -0.6472431 0 -0.7622837
vn -0.7047591 0 -0.7094466
vn -0.7047592 0 -0.7094466
vn -0.5839442 9.949238E-07 -0.8117937
vn -0.7047596 2.637268E-06 -0.7094462
vn -0.6472431 0 -0.7622837
vn -0.7047592 0 -0.7094467
vn 0.64724 5.30641E-07 -0.7622864
vn 0.7047505 5.081156E-07 -0.7094552
vn 0.7047506 1.445427E-06 -0.7094551
vn 0.5839465 1.088473E-06 -0.8117921
vn 0.4379178 8.055405E-08 -0.899015
vn 0.4188929 -3.40703E-07 -0.9080356
vn 0.3026707 -3.965482E-07 -0.9530952
vn 0.2911061 -7.257833E-08 -0.9566908
vn 0.172973 -4.255748E-08 -0.9849266
vn 0.1582665 1.628845E-08 -0.9873964
vn 0.02390015 1.75498E-08 -0.9997143
vn 0.009793716 -7.7288E-09 -0.9999521
vn -0.1227356 -6.310641E-08 -0.9924394
vn -0.1376803 -7.382568E-09 -0.9904767
vn -0.2629743 9.391426E-08 -0.9648028
vn -0.2748413 1.002956E-07 -0.9614896
vn -0.4188907 1.404552E-06 -0.9080366
vn -0.3968807 1.476948E-07 -0.9178702
vn -0.6472447 7.525483E-06 -0.7622824
vn -0.7047622 1.322196E-05 -0.7094436
vn -0.4489271 0 -0.8935685
vn -0.3026706 0 -0.9530953
vn -0.02390016 0 -0.9997144
vn -0.1729729 0 -0.9849266
vn 0.1227355 0 -0.9924394
vn 0.2629744 0 -0.9648028
vn 0.7047505 0 -0.7094553
vn 0.583946 0 -0.8117925
vn 0.3909582 0 -0.9204084
vn 0.64724 0 -0.7622864
vn 0.44893 0 -0.8935669
vn 0.3026707 0 -0.9530952
vn 0.172973 0 -0.9849266
vn 0.02390014 0 -0.9997143
vn -0.1227356 0 -0.9924394
vn -0.2629742 0 -0.9648029
vn -0.3909571 0 -0.9204089
vn -0.5839441 0 -0.8117939

vt 0.1995475 0.4986665
vt 2.384186E-07 0.4990119
vt 7.152557E-07 0.9999999
vt 0.2027071 0.9996006
vt 0 5.960464E-07
vt 0.1992908 4.768372E-07
vt 0.2414465 0.5402879
vt 0.2482185 0.9995961
vt 0.2903903 0.5697536
vt 0.29373 0.9996008
vt 0.360131 0.5950391
vt 0.3633754 0.9996008
vt 0.4298718 0.61091
vt 0.4330866 0.9996008
vt 0.4996126 0.6159118
vt 0.5028689 0.9996008
vt 0.5727277 0.9996007
vt 0.5693533 0.61091
vt 0.6426685 0.9996007
vt 0.6390944 0.5950391
vt 0.7126973 0.9996007
vt 0.7088351 0.5697536
vt 0.7585719 0.9995961
vt 0.7577798 0.5402877
vt 0.8044462 0.9996006
vt 0.7996776 0.4986665
vt 0.9999998 0.4990113
vt 1 0.9999992
vt 0.7992904 2.384186E-07
vt 0.9999993 0
vt 0.9999998 0.4990115
vt 0.8004525 0.4986668
vt 0.7972929 0.9996007
vt 0.9999993 0.9999999
vt 1 7.152557E-07
vt 0.8007092 3.576279E-07
vt 0.7585533 0.5402879
vt 0.7517815 0.9995961
vt 0.7096097 0.5697535
vt 0.70627 0.9996008
vt 0.639869 0.595039
vt 0.6366243 0.9996008
vt 0.5701282 0.6109099
vt 0.5669134 0.9996008
vt 0.5003874 0.6159118
vt 0.4971311 0.9996008
vt 0.4272723 0.9996008
vt 0.4306467 0.6109099
vt 0.3573313 0.9996008
vt 0.3609056 0.595039
vt 0.2873025 0.9996008
vt 0.2911649 0.5697535
vt 0.2414281 0.9995961
vt 0.2422199 0.5402877
vt 0.1955538 0.9996006
vt 0.2003222 0.4986666
vt 0 0.9999992
vt 2.384186E-07 0.4990113
vt 0.2007096 2.384186E-07
vt 4.768372E-07 0
vt 0 0
vt 0 0
vt 0 0
vt 0 0
vt 0 0
vt 0 0
vt 0 0
vt 0 0
vt 0 0
vt 0 0
vt 0 0
vt 0 0
vt 0 0
vt 0 0
vt 0 0
vt 0 0
vt 0 0
vt 0 0
vt 0 0
vt 0 0
vt 0 0
vt 0 0
vt 0 0
vt 0 0
vt 0 0
vt 0 0
vt 0 0
vt 0 0
vt 0 0
vt 0 0
vt 1.66893E-06 -2.384186E-07
vt -2.384186E-07 2.504942
vt 0.000500679 0
vt 0.0004987717 2.504942
vt 0 0
vt 0 0
vt 0 0
vt 0 0
vt 1.66893E-06 1.192093E-07
vt 2.384186E-07 2.495058
vt 0.000500679 3.576279E-07
vt 0.0004992485 2.495059
vt 0 0
vt 0 0
vt 0 0
vt 0 0
vt 0 0
vt 0 0
vt 0 0
vt 0 0
vt 0 0
vt 0 0
vt 0 0
vt 0 0
vt 0 0
vt 0 0
vt 0 0
vt 0 0
vt 0 0
vt 0 0
vt 0 0
vt 0 0
vt 0 0
vt 0 0
vt 0 0
vt 0 0
vt 0 0
vt 0 0
vt 0 0
vt 0 0
vt 0.0005009174 2.504941
vt 0.0004990101 2.384186E-07
vt 1.907349E-06 2.504941
vt 0 0
vt 0 0
vt 0.0005004406 2.495058
vt 0.0004990101 0
vt 1.430511E-06 2.495057
vt 0 0
vt 0 0
vt 0 0
vt 0 0
vt 0.8996528 0.4997928
vt 0.9000402 0.001317725
vt 0.7996914 0.4996463
vt 0.8000787 0.001171318
vt 0.9696259 0.4998952
vt 0.9989281 0.4999379
vt 1 0.001464073
vt 0.9700133 0.001420221
vt 0 0.498475
vt 0.0003873708 0
vt 0.1999985 0.0001380298
vt 0.1997418 0.4988057
vt 1 0
vt 0.9997432 0.4986677
vt 0.02999814 0.0001672511
vt 0.02974136 0.4988351
vt 0.09999837 0.0001551662
vt 0.09974153 0.498823
vt 0 0.0001724218
vt 0.0004278432 0.4988399
vt 0.1994297 0.0001381246
vt 0.199437 0.04206163
vt 0.9998964 0
vt 0.9999037 0.04192351
vt 0.1994454 0.09103385
vt 0.999912 0.09089573
vt 0.1994574 0.1608154
vt 0.999924 0.1606772
vt 0.1994694 0.2305968
vt 0.999936 0.2304587
vt 0.1994815 0.3003784
vt 0.999948 0.3002402
vt 0.1994935 0.3701599
vt 0.9999601 0.3700217
vt 0.1995056 0.4399414
vt 0.9999722 0.4398032
vt 0.1995176 0.5097229
vt 0.9999842 0.5095847
vt 0.1995261 0.5586964
vt 0.9999928 0.5585583
vt 0.1995333 0.6006187
vt 1 0.6004806
vt 0.02942687 0.5587258
vt 0.02943408 0.600648
vt 0.09946774 0.5587137
vt 0.09947502 0.6006359
vt 0.02933771 0.04209097
vt 0.02933049 0.0001674672
vt 0 0.0001724172
vt 7.216356E-06 0.04209593
vt 0.02934618 0.09106319
vt 1.556586E-05 0.0910682
vt 2.7613E-05 0.1608497
vt 0.02935816 0.1608447
vt 3.966014E-05 0.2306312
vt 0.02937021 0.2306261
vt 5.170728E-05 0.3004128
vt 0.02938226 0.3004077
vt 6.369477E-05 0.3701943
vt 0.02939424 0.3701892
vt 7.574192E-05 0.4399758
vt 0.02940629 0.4399707
vt 8.790833E-05 0.5097572
vt 0.0294184 0.5097522
vt 9.637712E-05 0.5587308
vt 0.0001035935 0.6006528
vt 0.09945931 0.5097402
vt 0.09944726 0.4399586
vt 0.09942316 0.3003956
vt 0.09943521 0.3701771
vt 0.09941112 0.230614
vt 0.0993991 0.1608326
vt 0.09937137 0.0001553902
vt 0.09937862 0.04207887
vt 0.09938705 0.09105109
vt 0.09937862 0.04207887
vt 0.09938705 0.09105109
vt 0.0993991 0.1608326
vt 0.09941112 0.230614
vt 0.09942316 0.3003956
vt 0.09943521 0.3701771
vt 0.09944726 0.4399586
vt 0.09945931 0.5097402
vt 0.09946774 0.5587137

g Stone Brick Wall
usemtl Stone Brick Wall
usemap Stone Brick Wall
f 2/2/2 1/1/1 3/3/3
f 3/3/3 1/1/1 4/4/4
f 5/5/5 1/1/1 2/2/2
f 6/6/6 1/1/1 5/5/5
f 7/7/7 4/4/4 1/1/1
f 8/8/8 4/4/4 7/7/7
f 7/7/7 9/9/9 8/8/8
f 8/8/8 9/9/9 10/10/10
f 11/11/11 10/10/10 9/9/9
f 12/12/12 10/10/10 11/11/11
f 13/13/13 12/12/12 11/11/11
f 14/14/14 12/12/12 13/13/13
f 15/15/15 14/14/14 13/13/13
f 16/16/16 14/14/14 15/15/15
f 16/16/16 15/15/15 17/17/17
f 17/17/17 15/15/15 18/18/18
f 17/17/17 18/18/18 19/19/19
f 19/19/19 18/18/18 20/20/20
f 19/19/19 20/20/20 21/21/21
f 21/21/21 20/20/20 22/22/22
f 22/22/22 23/23/23 21/21/21
f 24/24/24 23/23/23 22/22/22
f 24/24/24 25/25/25 23/23/23
f 26/26/26 25/25/25 24/24/24
f 26/26/26 27/27/27 25/25/25
f 25/25/25 27/27/27 28/28/28
f 26/26/26 29/29/29 27/27/27
f 27/27/27 29/29/29 30/30/30
f 32/32/32 31/31/31 33/33/33
f 33/33/33 31/31/31 34/34/34
f 32/32/32 35/35/35 31/31/31
f 36/36/36 35/35/35 32/32/32
f 33/33/33 37/37/37 32/32/32
f 38/38/38 37/37/37 33/33/33
f 38/38/38 39/39/39 37/37/37
f 40/40/40 39/39/39 38/38/38
f 40/40/40 41/41/41 39/39/39
f 42/42/42 41/41/41 40/40/40
f 42/42/42 43/43/43 41/41/41
f 44/44/44 43/43/43 42/42/42
f 44/44/44 45/45/45 43/43/43
f 46/46/46 45/45/45 44/44/44
f 47/47/47 45/45/45 46/46/46
f 48/48/48 45/45/45 47/47/47
f 49/49/49 48/48/48 47/47/47
f 50/50/50 48/48/48 49/49/49
f 51/51/51 50/50/50 49/49/49
f 52/52/52 50/50/50 51/51/51
f 53/53/53 52/52/52 51/51/51
f 54/54/54 52/52/52 53/53/53
f 55/55/55 54/54/54 53/53/53
f 56/56/56 54/54/54 55/55/55
f 57/57/57 56/56/56 55/55/55
f 58/58/58 56/56/56 57/57/57
f 56/56/56 58/58/58 59/59/59
f 59/59/59 58/58/58 60/60/60
f 62/62/62 61/61/61 61/61/61
f 62/62/62 62/62/62 61/61/61
f 63/63/63 62/62/62 62/62/62
f 63/63/63 63/63/63 62/62/62
f 64/64/64 63/63/63 63/63/63
f 64/64/64 64/64/64 63/63/63
f 65/65/65 64/64/64 64/64/64
f 65/65/65 65/65/65 64/64/64
f 66/66/66 65/65/65 65/65/65
f 66/66/66 66/66/66 65/65/65
f 67/67/67 66/66/66 66/66/66
f 67/67/67 67/67/67 66/66/66
f 61/61/61 68/68/68 68/68/68
f 61/61/61 61/61/61 68/68/68
f 69/69/69 67/67/67 67/67/67
f 69/69/69 69/69/69 67/67/67
f 68/68/68 70/70/70 70/70/70
f 68/68/68 68/68/68 70/70/70
f 71/71/71 69/69/69 69/69/69
f 71/71/71 71/71/71 69/69/69
f 70/70/70 72/72/72 72/72/72
f 70/70/70 70/70/70 72/72/72
f 73/73/73 71/71/71 71/71/71
f 73/73/73 73/73/73 71/71/71
f 72/72/72 74/74/74 74/74/74
f 72/72/72 72/72/72 74/74/74
f 75/75/75 73/73/73 73/73/73
f 75/75/75 75/75/75 73/73/73
f 74/74/74 76/76/76 76/76/76
f 74/74/74 74/74/74 76/76/76
f 76/76/76 77/77/77 77/77/77
f 76/76/76 76/76/76 77/77/77
f 78/78/78 75/75/75 75/75/75
f 78/78/78 78/78/78 75/75/75
f 77/77/77 79/79/79 79/79/79
f 77/77/77 77/77/77 79/79/79
f 80/80/80 78/78/78 78/78/78
f 80/80/80 80/80/80 78/78/78
f 79/79/79 81/81/81 81/81/81
f 79/79/79 79/79/79 81/81/81
f 82/82/82 80/80/80 80/80/80
f 82/82/82 82/82/82 80/80/80
f 81/81/81 83/83/83 83/83/83
f 81/81/81 81/81/81 83/83/83
f 84/84/84 82/82/82 82/82/82
f 84/84/84 84/84/84 82/82/82
f 83/83/83 85/85/85 85/85/85
f 83/83/83 83/83/83 85/85/85
f 86/86/86 84/84/84 84/84/84
f 86/86/86 86/86/86 84/84/84
f 85/85/85 87/87/87 87/87/87
f 85/85/85 85/85/85 87/87/87
f 87/87/87 88/88/88 88/88/88
f 87/87/87 87/87/87 88/88/88
f 89/89/89 86/86/86 86/86/86
f 89/89/89 89/89/89 86/86/86
f 90/90/90 89/89/89 89/89/89
f 90/90/90 90/90/90 89/89/89
f 88/88/88 90/90/90 90/90/90
f 88/88/88 88/88/88 90/90/90
f 62/62/62 61/61/61 61/61/61
f 62/62/62 62/62/62 61/61/61
f 63/63/63 62/62/62 62/62/62
f 63/63/63 63/63/63 62/62/62
f 64/64/64 63/63/63 63/63/63
f 64/64/64 64/64/64 63/63/63
f 65/65/65 64/64/64 64/64/64
f 65/65/65 65/65/65 64/64/64
f 66/66/66 65/65/65 65/65/65
f 66/66/66 66/66/66 65/65/65
f 67/67/67 66/66/66 66/66/66
f 67/67/67 67/67/67 66/66/66
f 61/61/61 68/68/68 68/68/68
f 61/61/61 61/61/61 68/68/68
f 69/69/69 67/67/67 67/67/67
f 69/69/69 69/69/69 67/67/67
f 68/68/68 70/70/70 70/70/70
f 68/68/68 68/68/68 70/70/70
f 71/71/71 69/69/69 69/69/69
f 71/71/71 71/71/71 69/69/69
f 70/70/70 72/72/72 72/72/72
f 70/70/70 70/70/70 72/72/72
f 73/73/73 71/71/71 71/71/71
f 73/73/73 73/73/73 71/71/71
f 72/72/72 74/74/74 74/74/74
f 72/72/72 72/72/72 74/74/74
f 75/75/75 73/73/73 73/73/73
f 75/75/75 75/75/75 73/73/73
f 74/74/74 76/76/76 76/76/76
f 74/74/74 74/74/74 76/76/76
f 76/76/76 77/77/77 77/77/77
f 76/76/76 76/76/76 77/77/77
f 78/78/78 75/75/75 75/75/75
f 78/78/78 78/78/78 75/75/75
f 77/77/77 79/79/79 79/79/79
f 77/77/77 77/77/77 79/79/79
f 80/80/80 78/78/78 78/78/78
f 80/80/80 80/80/80 78/78/78
f 79/79/79 81/81/81 81/81/81
f 79/79/79 79/79/79 81/81/81
f 82/82/82 80/80/80 80/80/80
f 82/82/82 82/82/82 80/80/80
f 81/81/81 83/83/83 83/83/83
f 81/81/81 81/81/81 83/83/83
f 84/84/84 82/82/82 82/82/82
f 84/84/84 84/84/84 82/82/82
f 83/83/83 85/85/85 85/85/85
f 83/83/83 83/83/83 85/85/85
f 86/86/86 84/84/84 84/84/84
f 86/86/86 86/86/86 84/84/84
f 85/85/85 87/87/87 87/87/87
f 85/85/85 85/85/85 87/87/87
f 87/87/87 88/88/88 88/88/88
f 87/87/87 87/87/87 88/88/88
f 89/89/89 86/86/86 86/86/86
f 89/89/89 89/89/89 86/86/86
f 90/90/90 89/89/89 89/89/89
f 90/90/90 90/90/90 89/89/89
f 88/88/88 90/90/90 90/90/90
f 88/88/88 88/88/88 90/90/90
f 92/92/92 91/91/91 93/93/93
f 94/94/94 92/92/92 93/93/93
f 96/96/96 95/95/95 97/97/97
f 98/98/98 96/96/96 97/97/97
f 100/100/100 99/99/99 101/101/101
f 102/102/102 100/100/100 101/101/101
f 104/104/104 103/103/103 103/103/103
f 104/104/104 104/104/104 103/103/103
f 105/105/105 104/104/104 106/106/106
f 107/107/107 105/105/105 106/106/106
f 103/103/103 108/108/108 108/108/108
f 103/103/103 103/103/103 108/108/108
f 109/109/109 98/98/98 98/98/98
f 109/109/109 109/109/109 98/98/98
f 108/108/108 110/110/110 110/110/110
f 108/108/108 108/108/108 110/110/110
f 111/111/111 109/109/109 109/109/109
f 111/111/111 111/111/111 109/109/109
f 110/110/110 112/112/112 112/112/112
f 110/110/110 110/110/110 112/112/112
f 113/113/113 111/111/111 111/111/111
f 113/113/113 113/113/113 111/111/111
f 112/112/112 114/114/114 114/114/114
f 112/112/112 112/112/112 114/114/114
f 115/115/115 113/113/113 113/113/113
f 115/115/115 115/115/115 113/113/113
f 114/114/114 116/116/116 116/116/116
f 114/114/114 114/114/114 116/116/116
f 117/117/117 115/115/115 115/115/115
f 117/117/117 117/117/117 115/115/115
f 118/118/118 117/117/117 117/117/117
f 118/118/118 118/118/118 117/117/117
f 116/116/116 119/119/119 119/119/119
f 116/116/116 116/116/116 119/119/119
f 120/120/120 118/118/118 118/118/118
f 120/120/120 120/120/120 118/118/118
f 119/119/119 121/121/121 121/121/121
f 119/119/119 119/119/119 121/121/121
f 122/122/122 120/120/120 120/120/120
f 122/122/122 122/122/122 120/120/120
f 121/121/121 123/123/123 123/123/123
f 121/121/121 121/121/121 123/123/123
f 124/124/124 122/122/122 122/122/122
f 124/124/124 124/124/124 122/122/122
f 123/123/123 125/125/125 125/125/125
f 123/123/123 123/123/123 125/125/125
f 126/126/126 124/124/124 124/124/124
f 126/126/126 126/126/126 124/124/124
f 125/125/125 127/127/127 127/127/127
f 125/125/125 125/125/125 127/127/127
f 128/128/128 126/126/126 129/129/129
f 130/130/130 128/128/128 129/129/129
f 132/132/132 131/131/131 133/133/133
f 134/134/134 132/132/132 133/133/133
f 127/127/127 135/135/135 135/135/135
f 127/127/127 127/127/127 135/135/135
f 137/137/137 136/136/136 138/138/138
f 139/139/139 137/137/137 138/138/138
f 141/141/141 140/140/140 142/142/142
f 135/135/135 141/141/141 142/142/142

g Default-Material
usemtl Default-Material
usemap Default-Material
f 144/144/144 143/143/143 145/145/145
f 146/146/146 144/144/144 145/145/145
f 148/148/148 147/147/147 149/149/149
f 149/149/149 147/147/147 150/150/150
f 150/150/150 147/147/147 143/143/143
f 144/144/144 150/150/150 143/143/143
f 146/146/146 145/145/145 151/151/151
f 152/152/152 146/146/146 151/151/151
f 154/154/154 153/153/153 155/155/155
f 156/156/156 154/154/154 155/155/155
f 158/158/158 157/157/157 159/159/159
f 160/160/160 158/158/158 159/159/159
f 157/157/157 158/158/158 161/161/161
f 161/161/161 158/158/158 162/162/162
f 160/160/160 159/159/159 153/153/153
f 154/154/154 160/160/160 153/153/153

g Default_Prototype 1
usemtl Default_Prototype 1
usemap Default_Prototype 1
f 164/164/164 163/163/163 165/165/165
f 166/166/166 164/164/164 165/165/165
f 167/167/167 164/164/164 166/166/166
f 168/168/168 167/167/167 166/166/166
f 169/169/169 167/167/167 168/168/168
f 170/170/170 169/169/169 168/168/168
f 171/171/171 169/169/169 170/170/170
f 172/172/172 171/171/171 170/170/170
f 173/173/173 171/171/171 172/172/172
f 174/174/174 173/173/173 172/172/172
f 175/175/175 173/173/173 174/174/174
f 176/176/176 175/175/175 174/174/174
f 177/177/177 175/175/175 176/176/176
f 178/178/178 177/177/177 176/176/176
f 179/179/179 177/177/177 178/178/178
f 180/180/180 179/179/179 178/178/178
f 181/181/181 179/179/179 180/180/180
f 182/182/182 181/181/181 180/180/180
f 183/183/183 181/181/181 182/182/182
f 184/184/184 183/183/183 182/182/182
f 186/186/186 185/185/185 187/187/187
f 188/188/188 186/186/186 187/187/187
f 190/190/190 189/189/189 191/191/191
f 191/191/191 189/189/189 192/192/192
f 189/189/189 193/193/193 192/192/192
f 192/192/192 193/193/193 194/194/194
f 194/194/194 193/193/193 195/195/195
f 195/195/195 193/193/193 196/196/196
f 195/195/195 196/196/196 197/197/197
f 197/197/197 196/196/196 198/198/198
f 197/197/197 198/198/198 199/199/199
f 199/199/199 198/198/198 200/200/200
f 199/199/199 200/200/200 201/201/201
f 201/201/201 200/200/200 202/202/202
f 201/201/201 202/202/202 203/203/203
f 203/203/203 202/202/202 204/204/204
f 203/203/203 204/204/204 205/205/205
f 205/205/205 204/204/204 206/206/206
f 206/206/206 185/185/185 205/205/205
f 205/205/205 185/185/185 207/207/207
f 185/185/185 186/186/186 207/207/207
f 207/207/207 186/186/186 208/208/208
f 185/185/185 206/206/206 209/209/209
f 187/187/187 185/185/185 209/209/209
f 206/206/206 204/204/204 210/210/210
f 209/209/209 206/206/206 210/210/210
f 202/202/202 200/200/200 211/211/211
f 212/212/212 202/202/202 211/211/211
f 204/204/204 202/202/202 212/212/212
f 210/210/210 204/204/204 212/212/212
f 200/200/200 198/198/198 213/213/213
f 211/211/211 200/200/200 213/213/213
f 198/198/198 196/196/196 214/214/214
f 213/213/213 198/198/198 214/214/214
f 189/189/189 190/190/190 215/215/215
f 216/216/216 189/189/189 215/215/215
f 193/193/193 189/189/189 216/216/216
f 217/217/217 193/193/193 216/216/216
f 196/196/196 193/193/193 217/217/217
f 214/214/214 196/196/196 217/217/217
f 219/219/219 218/218/218 164/164/164
f 167/167/167 219/219/219 164/164/164
f 218/218/218 215/215/215 163/163/163
f 164/164/164 218/218/218 163/163/163
f 220/220/220 219/219/219 167/167/167
f 169/169/169 220/220/220 167/167/167
f 221/221/221 220/220/220 169/169/169
f 171/171/171 221/221/221 169/169/169
f 222/222/222 221/221/221 171/171/171
f 173/173/173 222/222/222 171/171/171
f 223/223/223 222/222/222 173/173/173
f 175/175/175 223/223/223 173/173/173
f 224/224/224 223/223/223 175/175/175
f 177/177/177 224/224/224 175/175/175
f 225/225/225 224/224/224 177/177/177
f 179/179/179 225/225/225 177/177/177
f 226/226/226 225/225/225 179/179/179
f 181/181/181 226/226/226 179/179/179
f 188/188/188 226/226/226 181/181/181
f 183/183/183 188/188/188 181/181/181
