mtllib ./WallSquare_05.mtl
g WallSquare_05
v -0.7493592 2.500319 -0.2499999
v -0.7499998 1.827706E-07 -0.2499996
v -0.7499999 3.782834E-08 0.2499992
v -0.7493593 2.500319 0.2500002
v 0.7509668 2.500319 -0.25
v 0.7509667 2.500319 0.2500005
v 0.7499998 -1.827708E-07 0.2499996
v 0.75 -3.782844E-08 -0.2499998
v 0.7509668 2.500319 -0.25
v -0.7493592 2.500319 -0.2499999
v -0.7493593 2.500319 0.2500002
v 0.7509667 2.500319 0.2500005
v -0.7493593 2.500319 0.2500002
v -2.499999 2.502044 0.2500001
v -2.499999 5.000001 0.2500009
v -0.7414619 5 0.250001
v 0.7628869 5 0.2500014
v 0.7509667 2.500319 0.2500005
v 2.5 2.502043 0.2500001
v 2.5 5 0.2500009
v -2.5 2.95194E-07 0.2499991
v -0.7499999 3.782834E-08 0.2499992
v 0.7499998 -1.827708E-07 0.2499996
v 2.5 -4.401363E-07 0.2499991
v -2.499999 2.502044 -0.2499999
v -0.7493592 2.500319 -0.2499999
v -0.7414618 5 -0.2500001
v -2.499999 5.000001 -0.2500002
v 0.7628871 5 -0.2500002
v 0.7509668 2.500319 -0.25
v 2.5 5 -0.2500002
v 2.5 2.502043 -0.25
v -2.5 4.401361E-07 -0.2499998
v -0.7499998 1.827706E-07 -0.2499996
v 0.75 -3.782844E-08 -0.2499998
v 2.5 -2.951939E-07 -0.2499998

vn 1 -0.0002562196 2.38296E-07
vn 0.9999999 -0.0002562196 2.382956E-07
vn 1 -0.0002562196 2.38296E-07
vn 1 -0.0002562196 2.382964E-07
vn -0.9999999 0.0003867013 -2.979073E-07
vn -0.9999999 0.0003867132 -2.384183E-07
vn -0.9999999 0.0003867013 -2.979073E-07
vn -0.9999999 0.0003866894 -3.573965E-07
vn -7.945557E-08 -1 -2.384185E-07
vn -1.589112E-07 -1 -4.768372E-07
vn -7.945557E-08 -1 -2.384185E-07
vn 0 -0.9999999 0
vn -1.08736E-07 -3.454921E-07 1
vn -5.141767E-08 -3.516674E-07 1
vn -5.110862E-08 -3.100099E-07 1
vn -1.552735E-07 -3.094931E-07 1
vn 2.758867E-08 -3.218431E-07 1
vn 1.075851E-07 -3.526912E-07 1
vn 2.710994E-07 -3.595381E-07 1
vn 2.916559E-07 -3.101977E-07 1
vn -3.850854E-08 -4.021364E-07 1
vn -2.554492E-08 -4.112131E-07 1
vn 2.684902E-07 -3.962356E-07 1
vn 2.809932E-07 -4.049806E-07 1
vn 3.959847E-08 -9.345023E-08 -1
vn 1.621649E-08 -9.188569E-08 -1
vn 2.076315E-08 -9.988781E-08 -1
vn 6.778882E-08 -1.193068E-07 -1
vn -2.514017E-08 -8.931871E-08 -1
vn -2.208629E-08 -8.009481E-08 -1
vn -1.278339E-08 -8.047382E-08 -1
vn -1.414102E-08 -7.946911E-08 -0.9999999
vn 5.954675E-08 -9.533002E-08 -1
vn 9.366443E-08 -1.192181E-07 -1
vn -8.476206E-09 -8.340546E-08 -1
vn 8.514943E-09 -9.528956E-08 -1

vt 0.6499354 0.4998903
vt 0.6499352 -0.0001739264
vt 0.5499354 -0.0001739264
vt 0.5499353 0.4998902
vt 0.3499031 0.4998904
vt 0.4499031 0.4998904
vt 0.4499028 -0.0001731068
vt 0.3499031 -0.0001730472
vt 0 0
vt 9.931952E-08 0.9999998
vt 0.333261 1
vt 0.3332612 0
vt 0.3501281 0.4998906
vt 0 0.5002352
vt -3.576279E-07 0.9998268
vt 0.3517073 0.9998269
vt 0.6525773 0.9998269
vt 0.6501932 0.4998906
vt 1 0.5002353
vt 1 0.9998268
vt 5.066395E-07 -0.0001735662
vt 0.3500005 -0.0001732681
vt 0.6499997 -0.0001731787
vt 0.9999996 -0.000173447
vt 1 0.5002352
vt 0.6498715 0.4998903
vt 0.6482923 0.9998266
vt 1 0.9998268
vt 0.3474226 0.9998266
vt 0.3498064 0.4998904
vt 0 0.9998266
vt 0 0.5002353
vt 0.9999995 -0.0001742814
vt 0.6499991 -0.0001739238
vt 0.3499997 -0.0001730595
vt 0 -0.0001730595

g Default-Material
usemtl Default-Material
usemap Default-Material
f 2/2/2 1/1/1 3/3/3
f 3/3/3 1/1/1 4/4/4
f 6/6/6 5/5/5 7/7/7
f 7/7/7 5/5/5 8/8/8

g Default_Prototype 1
usemtl Default_Prototype 1
usemap Default_Prototype 1
f 10/10/10 9/9/9 11/11/11
f 11/11/11 9/9/9 12/12/12

g Stone Brick Wall
usemtl Stone Brick Wall
usemap Stone Brick Wall
f 14/14/14 13/13/13 15/15/15
f 15/15/15 13/13/13 16/16/16
f 13/13/13 17/17/17 16/16/16
f 18/18/18 17/17/17 13/13/13
f 18/18/18 19/19/19 17/17/17
f 17/17/17 19/19/19 20/20/20
f 21/21/21 13/13/13 14/14/14
f 22/22/22 13/13/13 21/21/21
f 18/18/18 23/23/23 19/19/19
f 19/19/19 23/23/23 24/24/24
f 26/26/26 25/25/25 27/27/27
f 27/27/27 25/25/25 28/28/28
f 29/29/29 26/26/26 27/27/27
f 30/30/30 26/26/26 29/29/29
f 31/31/31 30/30/30 29/29/29
f 32/32/32 30/30/30 31/31/31
f 26/26/26 33/33/33 25/25/25
f 34/34/34 33/33/33 26/26/26
f 30/30/30 32/32/32 35/35/35
f 35/35/35 32/32/32 36/36/36
