mtllib ./WallDoubleArch_05.mtl
g WallDoubleArch_05
v -1.499602 -0.2482855 2.493333
v -2.5 -0.250001 2.495058
v -2.499998 -0.2500041 5
v -1.483804 -0.2500009 4.998005
v -2.500002 -0.2499978 -5.958944E-07
v -1.500885 -0.2499946 6.565359E-07
v -1.290106 -0.2482856 2.70144
v -1.256246 -0.2500009 4.997983
v -1.045388 -0.2482859 2.848768
v -1.028688 -0.2500009 4.998006
v -0.6966834 -0.2482859 2.975196
v -0.6804606 -0.2500008 4.998006
v -0.3479791 -0.2482859 3.054551
v -0.3319051 -0.2500008 4.998006
v 0.0007250291 -0.2482859 3.07956
v 0.0170058 -0.2500009 4.998006
v 0.3663 -0.2500009 4.998006
v 0.3494293 -0.2482859 3.054551
v 0.7160053 -0.2500009 4.998006
v 0.6981333 -0.248286 2.975196
v 1.06615 -0.250001 4.998006
v 1.046838 -0.2482858 2.848768
v 1.295522 -0.250001 4.997982
v 1.291562 -0.2482856 2.701438
v 1.524894 -0.2500012 4.998004
v 1.50105 -0.2482854 2.493332
v 2.5 -0.2500005 2.495058
v 2.500002 -0.2500036 5
v 1.499114 -0.2499948 -7.894805E-07
v 2.499998 -0.2499973 3.078636E-07
v -2.5 0.2500001 2.495055
v -1.499601 0.248282 2.493334
v -1.483804 0.2499925 4.998006
v -2.499998 0.2499981 5
v -2.500002 0.2500021 -2.343955E-07
v -1.500885 0.2499964 7.721752E-07
v -1.290106 0.248282 2.70144
v -1.256246 0.2499925 4.997983
v -1.045387 0.2482817 2.848768
v -1.028688 0.2499925 4.998006
v -0.6966832 0.2482816 2.975196
v -0.6804603 0.2499927 4.998006
v -0.3479792 0.2482816 3.054551
v -0.331905 0.2499926 4.998006
v 0.0007251663 0.2482816 3.07956
v 0.01700594 0.2499927 4.998006
v 0.3663002 0.2499927 4.998006
v 0.3494292 0.2482816 3.054551
v 0.7160056 0.2499927 4.998006
v 0.6981335 0.2482815 2.975196
v 1.06615 0.2499928 4.998006
v 1.046838 0.2482817 2.848768
v 1.295522 0.2499928 4.997983
v 1.291562 0.248282 2.701439
v 1.524894 0.2499928 4.998005
v 1.501052 0.2482821 2.493334
v 2.500002 0.2500019 4.999999
v 2.5 0.2500038 2.495058
v 1.499114 0.2499968 -3.686654E-07
v 2.499998 0.2500057 2.518633E-07
v 1.501052 -0.1017183 2.493334
v 1.50105 -0.2482854 2.493332
v 1.499114 -0.2499948 -7.894805E-07
v 1.499114 -0.1000036 -4.103887E-07
v 1.501052 0.2482821 2.493334
v 1.499114 0.2499968 -3.686654E-07
v -1.500885 -0.100004 7.304519E-07
v -1.499601 -0.1017184 2.493334
v -1.500885 0.2499964 7.721752E-07
v -1.499601 0.248282 2.493334
v -1.500885 -0.2499946 6.565359E-07
v -1.499602 -0.2482855 2.493333
v 1.291562 -0.1017185 2.701439
v 1.501052 -0.1017183 2.493334
v 1.291562 0.248282 2.701439
v 1.501052 0.2482821 2.493334
v -1.290106 -0.1017185 2.70144
v -1.499601 -0.1017184 2.493334
v -1.499602 -0.2482855 2.493333
v -1.290106 -0.2482856 2.70144
v -1.045387 -0.1017188 2.848768
v -1.045388 -0.2482859 2.848768
v -0.6966834 -0.2482859 2.975196
v -0.6966832 -0.1017188 2.975196
v -0.3479791 -0.2482859 3.054551
v -0.3479792 -0.1017188 3.054551
v 0.0007250291 -0.2482859 3.07956
v 0.0007251663 -0.1017188 3.07956
v 0.3494293 -0.2482859 3.054551
v 0.3494292 -0.1017188 3.054551
v 0.6981333 -0.248286 2.975196
v 0.6981335 -0.1017189 2.975196
v 1.046838 -0.2482858 2.848768
v 1.046838 -0.1017187 2.848768
v 1.291562 -0.2482856 2.701438
v 1.50105 -0.2482854 2.493332
v 1.046838 0.2482817 2.848768
v 0.6981335 0.2482815 2.975196
v 0.0007251663 0.2482816 3.07956
v 0.3494292 0.2482816 3.054551
v -0.3479792 0.2482816 3.054551
v -0.6966832 0.2482816 2.975196
v -1.499601 0.248282 2.493334
v -1.290106 0.248282 2.70144
v -1.045387 0.2482817 2.848768

vn 0.0008472868 -0.9999996 -3.800834E-05
vn 0.001714853 -0.9999985 -1.264742E-06
vn 0.0008516706 -0.9999995 -0.0003457305
vn 0.0001007382 -0.9999998 -0.0006945539
vn 0.0008598823 -0.9999995 0.0003417493
vn 3.220764E-06 -0.9999997 0.0006854677
vn 0.0003803566 -0.9999996 -0.0007304358
vn 0.0001607503 -0.9999997 -0.000765193
vn 0.0002613789 -0.9999996 -0.0007851137
vn 0.000111735 -0.9999996 -0.000816907
vn 0.0001636973 -0.9999996 -0.0008317925
vn 6.529845E-05 -0.9999997 -0.000859539
vn 8.693166E-05 -0.9999996 -0.0008712536
vn 2.113267E-05 -0.9999995 -0.0008863786
vn -4.303549E-08 -0.9999996 -0.0008881234
vn -8.536835E-08 -0.9999996 -0.0008939229
vn -2.120738E-05 -0.9999995 -0.0008860374
vn -8.680647E-05 -0.9999995 -0.0008698053
vn -6.513868E-05 -0.9999996 -0.0008584593
vn -0.0001628061 -0.9999996 -0.0008290836
vn -0.000110976 -0.9999996 -0.0008150901
vn -0.0002593823 -0.9999997 -0.0007808321
vn -0.0001596359 -0.9999997 -0.0007626151
vn -0.0003761799 -0.9999996 -0.0007243505
vn -0.0007758403 -0.9999996 -0.0004047695
vn -0.00161684 -0.9999987 -5.822435E-05
vn -0.0008642681 -0.9999996 3.187439E-06
vn -2.503642E-06 -1 -1.237329E-06
vn -0.0008591505 -0.9999995 0.0003423762
vn -2.441631E-06 -1 -1.29001E-06
vn 0.001139638 0.9999993 -0.0002297844
vn 0.001117676 0.9999993 -4.763401E-05
vn 0.0007662235 0.9999996 -0.0004075039
vn 5.515137E-06 1 8.090188E-07
vn 0.0008624023 0.9999995 0.0003438576
vn 5.696583E-06 0.9999998 0.0006875938
vn 0.0003801493 0.9999996 -0.0007284107
vn 0.0001610861 0.9999997 -0.0007631811
vn 0.0002616744 0.9999997 -0.0007831434
vn 0.0001114122 0.9999996 -0.0008149833
vn 0.0001632073 0.9999996 -0.0008298836
vn 6.497767E-05 0.9999997 -0.0008576157
vn 8.679397E-05 0.9999996 -0.0008692959
vn 2.108568E-05 0.9999995 -0.0008843865
vn -8.594814E-08 0.9999996 -0.0008861398
vn -1.706942E-07 0.9999996 -0.0008919338
vn -2.104621E-05 0.9999995 -0.0008840674
vn -8.638475E-05 0.9999995 -0.0008678726
vn -6.482611E-05 0.9999996 -0.0008565512
vn -0.0001627255 0.9999997 -0.0008271888
vn -0.000111099 0.9999996 -0.0008131855
vn -0.0002596749 0.9999996 -0.000778883
vn -0.0001596398 0.9999996 -0.0007606256
vn -0.0003761564 0.9999997 -0.0007223198
vn -0.0001074 0.9999998 -0.0006912934
vn -0.001127945 0.9999993 -3.868539E-05
vn -0.000876108 0.9999995 -0.0003369234
vn -0.001152223 0.9999993 0.0002296304
vn -0.0008656501 0.9999995 0.0003444461
vn -8.903027E-06 1 7.644575E-07
vn -0.9999997 2.395154E-06 0.0007769327
vn -0.9999996 1.056714E-05 0.0007764467
vn -0.9999996 5.221932E-06 0.0007767646
vn -0.9999997 -2.578666E-10 0.0007770751
vn -0.9999997 -4.631728E-11 0.0007770751
vn -0.9999997 -9.263457E-11 0.0007770751
vn 0.9999999 4.297762E-11 -0.0005150223
vn 0.9999999 -5.975903E-07 -0.0005149867
vn 0.9999999 3.069772E-11 -0.0005150223
vn 0.9999999 0 -0.0005150223
vn 0.9999999 -2.008228E-06 -0.0005149029
vn 0.9999998 -4.063364E-06 -0.0005147806
vn -0.5839442 9.949238E-07 -0.8117937
vn -0.7047596 2.637268E-06 -0.7094462
vn -0.647243 0 -0.7622837
vn -0.7047591 0 -0.7094466
vn 0.64724 5.30641E-07 -0.7622863
vn 0.7047505 5.081156E-07 -0.7094553
vn 0.7047506 1.445427E-06 -0.7094551
vn 0.5839466 1.088474E-06 -0.8117923
vn 0.4379178 8.055407E-08 -0.899015
vn 0.4188929 -3.407035E-07 -0.9080357
vn 0.3026707 -3.965484E-07 -0.9530953
vn 0.2911061 -7.257832E-08 -0.9566908
vn 0.172973 -4.255748E-08 -0.9849266
vn 0.1582665 1.628844E-08 -0.9873964
vn 0.02390015 1.753081E-08 -0.9997143
vn 0.009793717 -7.734403E-09 -0.999952
vn -0.1227356 -6.312526E-08 -0.9924394
vn -0.1376803 -7.382567E-09 -0.9904767
vn -0.2629743 9.391426E-08 -0.9648028
vn -0.2748413 1.002956E-07 -0.9614896
vn -0.4188907 1.404552E-06 -0.9080366
vn -0.3968807 1.476948E-07 -0.9178702
vn -0.6472446 7.525487E-06 -0.7622823
vn -0.7047622 1.322198E-05 -0.7094436
vn -0.448927 0 -0.8935683
vn -0.3026706 0 -0.9530953
vn -0.02390015 0 -0.9997143
vn -0.1729729 0 -0.9849266
vn 0.1227355 0 -0.9924394
vn 0.2629744 0 -0.9648029
vn 0.7047505 0 -0.7094553
vn 0.583946 0 -0.8117925
vn 0.3909582 0 -0.9204084

vt 0.1995475 0.4986665
vt 2.384186E-07 0.4990119
vt 7.152557E-07 0.9999999
vt 0.2027071 0.9996006
vt 0 5.960464E-07
vt 0.1992908 4.768372E-07
vt 0.2414465 0.5402879
vt 0.2482185 0.9995961
vt 0.2903903 0.5697536
vt 0.29373 0.9996008
vt 0.360131 0.5950391
vt 0.3633754 0.9996008
vt 0.4298718 0.61091
vt 0.4330866 0.9996008
vt 0.4996126 0.6159118
vt 0.5028689 0.9996008
vt 0.5727277 0.9996007
vt 0.5693533 0.61091
vt 0.6426685 0.9996007
vt 0.6390944 0.5950391
vt 0.7126973 0.9996007
vt 0.7088351 0.5697536
vt 0.7585719 0.9995961
vt 0.7577798 0.5402877
vt 0.8044462 0.9996006
vt 0.7996776 0.4986665
vt 0.9999998 0.4990113
vt 1 0.9999992
vt 0.7992904 2.384186E-07
vt 0.9999993 0
vt 0.9999998 0.4990115
vt 0.8004525 0.4986668
vt 0.7972929 0.9996007
vt 0.9999993 0.9999999
vt 1 7.152557E-07
vt 0.8007092 3.576279E-07
vt 0.7585533 0.5402879
vt 0.7517815 0.9995961
vt 0.7096097 0.5697535
vt 0.70627 0.9996008
vt 0.639869 0.595039
vt 0.6366243 0.9996008
vt 0.5701282 0.6109099
vt 0.5669134 0.9996008
vt 0.5003874 0.6159118
vt 0.4971311 0.9996008
vt 0.4272723 0.9996008
vt 0.4306467 0.6109099
vt 0.3573313 0.9996008
vt 0.3609056 0.595039
vt 0.2873025 0.9996008
vt 0.2911649 0.5697535
vt 0.2414281 0.9995961
vt 0.2422199 0.5402877
vt 0.1955538 0.9996006
vt 0.2003222 0.4986666
vt 0 0.9999992
vt 2.384186E-07 0.4990113
vt 0.2007096 2.384186E-07
vt 4.768372E-07 0
vt 0.7703642 0.4987096
vt 0.7996776 0.4986665
vt 0.7992904 1.937151E-07
vt 0.7692922 4.416704E-05
vt 0.7003643 0.498812
vt 0.6992923 0.0001465082
vt 0.2292888 5.617738E-06
vt 0.2288609 0.4986717
vt 0.2992888 1.756847E-05
vt 0.2988609 0.4986836
vt 0.1992907 5.066395E-07
vt 0.1995475 0.4986665
vt 0.04885557 0.9301676
vt 0.04884368 0.9999802
vt 0.1654937 0.9301875
vt 0.1654817 1
vt 0.04900209 0.06982315
vt 0.04901394 8.54124E-06
vt 0.0001702537 0
vt 0.0001584102 0.06981471
vt 0.04898816 0.1513758
vt 0.000144481 0.1513675
vt 0.0001246673 0.2675735
vt 0.04896837 0.267582
vt 0.000104953 0.3837797
vt 0.04894858 0.383788
vt 8.513928E-05 0.4999858
vt 0.04892882 0.4999942
vt 6.537525E-05 0.616192
vt 0.048909 0.6162003
vt 4.55119E-05 0.7323981
vt 0.04888919 0.7324064
vt 2.574787E-05 0.8486043
vt 0.0488694 0.8486127
vt 1.189318E-05 0.9301589
vt 0 0.9999712
vt 0.1655076 0.8486325
vt 0.1655272 0.7324263
vt 0.1655669 0.5000141
vt 0.1655471 0.6162201
vt 0.1655867 0.3838079
vt 0.1656065 0.2676018
vt 0.1656521 2.840459E-05
vt 0.1656402 0.06984302
vt 0.1656262 0.1513957

g Stone Brick Wall
usemtl Stone Brick Wall
usemap Stone Brick Wall
f 2/2/2 1/1/1 3/3/3
f 3/3/3 1/1/1 4/4/4
f 5/5/5 1/1/1 2/2/2
f 6/6/6 1/1/1 5/5/5
f 7/7/7 4/4/4 1/1/1
f 8/8/8 4/4/4 7/7/7
f 7/7/7 9/9/9 8/8/8
f 8/8/8 9/9/9 10/10/10
f 11/11/11 10/10/10 9/9/9
f 12/12/12 10/10/10 11/11/11
f 13/13/13 12/12/12 11/11/11
f 14/14/14 12/12/12 13/13/13
f 15/15/15 14/14/14 13/13/13
f 16/16/16 14/14/14 15/15/15
f 16/16/16 15/15/15 17/17/17
f 17/17/17 15/15/15 18/18/18
f 17/17/17 18/18/18 19/19/19
f 19/19/19 18/18/18 20/20/20
f 19/19/19 20/20/20 21/21/21
f 21/21/21 20/20/20 22/22/22
f 22/22/22 23/23/23 21/21/21
f 24/24/24 23/23/23 22/22/22
f 24/24/24 25/25/25 23/23/23
f 26/26/26 25/25/25 24/24/24
f 26/26/26 27/27/27 25/25/25
f 25/25/25 27/27/27 28/28/28
f 26/26/26 29/29/29 27/27/27
f 27/27/27 29/29/29 30/30/30
f 32/32/32 31/31/31 33/33/33
f 33/33/33 31/31/31 34/34/34
f 32/32/32 35/35/35 31/31/31
f 36/36/36 35/35/35 32/32/32
f 33/33/33 37/37/37 32/32/32
f 38/38/38 37/37/37 33/33/33
f 38/38/38 39/39/39 37/37/37
f 40/40/40 39/39/39 38/38/38
f 40/40/40 41/41/41 39/39/39
f 42/42/42 41/41/41 40/40/40
f 42/42/42 43/43/43 41/41/41
f 44/44/44 43/43/43 42/42/42
f 44/44/44 45/45/45 43/43/43
f 46/46/46 45/45/45 44/44/44
f 47/47/47 45/45/45 46/46/46
f 48/48/48 45/45/45 47/47/47
f 49/49/49 48/48/48 47/47/47
f 50/50/50 48/48/48 49/49/49
f 51/51/51 50/50/50 49/49/49
f 52/52/52 50/50/50 51/51/51
f 53/53/53 52/52/52 51/51/51
f 54/54/54 52/52/52 53/53/53
f 55/55/55 54/54/54 53/53/53
f 56/56/56 54/54/54 55/55/55
f 57/57/57 56/56/56 55/55/55
f 58/58/58 56/56/56 57/57/57
f 56/56/56 58/58/58 59/59/59
f 59/59/59 58/58/58 60/60/60

g Default-Material
usemtl Default-Material
usemap Default-Material
f 62/62/62 61/61/61 63/63/63
f 63/63/63 61/61/61 64/64/64
f 64/64/64 61/61/61 65/65/65
f 66/66/66 64/64/64 65/65/65
f 68/68/68 67/67/67 69/69/69
f 70/70/70 68/68/68 69/69/69
f 67/67/67 68/68/68 71/71/71
f 71/71/71 68/68/68 72/72/72

g Default_Prototype 1
usemtl Default_Prototype 1
usemap Default_Prototype 1
f 74/74/74 73/73/73 75/75/75
f 76/76/76 74/74/74 75/75/75
f 78/78/78 77/77/77 79/79/79
f 79/79/79 77/77/77 80/80/80
f 77/77/77 81/81/81 80/80/80
f 80/80/80 81/81/81 82/82/82
f 82/82/82 81/81/81 83/83/83
f 83/83/83 81/81/81 84/84/84
f 83/83/83 84/84/84 85/85/85
f 85/85/85 84/84/84 86/86/86
f 85/85/85 86/86/86 87/87/87
f 87/87/87 86/86/86 88/88/88
f 87/87/87 88/88/88 89/89/89
f 89/89/89 88/88/88 90/90/90
f 89/89/89 90/90/90 91/91/91
f 91/91/91 90/90/90 92/92/92
f 91/91/91 92/92/92 93/93/93
f 93/93/93 92/92/92 94/94/94
f 94/94/94 73/73/73 93/93/93
f 93/93/93 73/73/73 95/95/95
f 73/73/73 74/74/74 95/95/95
f 95/95/95 74/74/74 96/96/96
f 73/73/73 94/94/94 97/97/97
f 75/75/75 73/73/73 97/97/97
f 94/94/94 92/92/92 98/98/98
f 97/97/97 94/94/94 98/98/98
f 90/90/90 88/88/88 99/99/99
f 100/100/100 90/90/90 99/99/99
f 92/92/92 90/90/90 100/100/100
f 98/98/98 92/92/92 100/100/100
f 88/88/88 86/86/86 101/101/101
f 99/99/99 88/88/88 101/101/101
f 86/86/86 84/84/84 102/102/102
f 101/101/101 86/86/86 102/102/102
f 77/77/77 78/78/78 103/103/103
f 104/104/104 77/77/77 103/103/103
f 81/81/81 77/77/77 104/104/104
f 105/105/105 81/81/81 104/104/104
f 84/84/84 81/81/81 105/105/105
f 102/102/102 84/84/84 105/105/105
