mtllib ./WallDoubleArch_015.mtl
g WallDoubleArch_015
v -1.500488 0.07328087 2.493334
v -1.501772 0.07499528 6.395212E-07
v -1.501772 -0.07499534 5.656052E-07
v -1.500489 -0.07328624 2.493333
v 1.500165 0.07328099 2.493334
v 1.500163 -0.07328612 2.493332
v 1.498227 -0.07499558 -8.804112E-07
v 1.498227 0.07499564 -5.013194E-07
v -1.290993 0.07328081 2.70144
v -1.500488 0.07328087 2.493334
v -1.500489 -0.07328624 2.493333
v -1.290993 -0.07328629 2.70144
v -1.046275 0.07328051 2.848768
v -1.290993 0.07328081 2.70144
v -1.290993 -0.07328629 2.70144
v -1.046275 -0.07328659 2.848768
v -0.6975706 -0.07328665 2.975196
v -0.6975703 0.07328045 2.975196
v -0.3488663 -0.07328665 3.054551
v -0.3488664 0.07328045 3.054551
v -0.0001621264 -0.07328665 3.07956
v -0.0001619892 0.07328045 3.07956
v 0.3485421 -0.07328665 3.054551
v 0.348542 0.07328045 3.054551
v 0.6972462 -0.07328671 2.975196
v 0.6972463 0.07328039 2.975196
v 1.04595 -0.07328653 2.848768
v 1.045951 0.07328057 2.848768
v 1.290675 0.07328081 2.701439
v 1.290675 -0.07328629 2.701438
v 1.500165 0.07328099 2.493334
v 1.290675 0.07328081 2.701439
v 1.290675 -0.07328629 2.701438
v 1.500163 -0.07328612 2.493332
v -1.500489 -0.07328624 2.493333
v -2.5 -0.07500178 2.495058
v -2.499998 -0.07500488 5
v -1.484691 -0.07500166 4.998005
v -2.500002 -0.07499856 -6.868252E-07
v -1.501772 -0.07499534 5.656052E-07
v -1.290993 -0.07328629 2.70144
v -1.257133 -0.0750016 4.997983
v -1.046275 -0.07328659 2.848768
v -1.029576 -0.0750016 4.998006
v -0.6975706 -0.07328665 2.975196
v -0.6813477 -0.07500154 4.998006
v -0.3488663 -0.07328665 3.054551
v -0.3327922 -0.07500154 4.998006
v -0.0001621264 -0.07328665 3.07956
v 0.01611865 -0.0750016 4.998006
v 0.3654129 -0.0750016 4.998006
v 0.3485421 -0.07328665 3.054551
v 0.7151182 -0.07500166 4.998006
v 0.6972462 -0.07328671 2.975196
v 1.065262 -0.07500172 4.998006
v 1.04595 -0.07328653 2.848768
v 1.294634 -0.07500178 4.997982
v 1.290675 -0.07328629 2.701438
v 1.524006 -0.0750019 4.998004
v 1.500163 -0.07328612 2.493332
v 2.5 -0.07500124 2.495058
v 2.500002 -0.07500434 5
v 1.498227 -0.07499558 -8.804112E-07
v 2.499998 -0.07499802 2.169329E-07
v -2.5 0.07499897 2.495055
v -1.500488 0.07328087 2.493334
v -1.484691 0.07499135 4.998006
v -2.499998 0.07499695 5
v -2.500002 0.075001 -3.670496E-07
v -1.501772 0.07499528 6.395212E-07
v -1.290993 0.07328081 2.70144
v -1.257133 0.07499141 4.997983
v -1.046275 0.07328051 2.848768
v -1.029575 0.07499135 4.998006
v -0.6975703 0.07328045 2.975196
v -0.6813475 0.07499152 4.998006
v -0.3488664 0.07328045 3.054551
v -0.3327922 0.07499146 4.998006
v -0.0001619892 0.07328045 3.07956
v 0.01611878 0.07499158 4.998006
v 0.365413 0.07499158 4.998006
v 0.348542 0.07328045 3.054551
v 0.7151184 0.07499152 4.998006
v 0.6972463 0.07328039 2.975196
v 1.065263 0.07499164 4.998006
v 1.045951 0.07328057 2.848768
v 1.294634 0.07499164 4.997983
v 1.290675 0.07328081 2.701439
v 1.524006 0.07499164 4.998005
v 1.500165 0.07328099 2.493334
v 2.500002 0.07500076 4.999999
v 2.5 0.07500267 2.495058
v 1.498227 0.07499564 -5.013194E-07
v 2.499998 0.07500458 1.192093E-07

vn 0.9999999 -2.007913E-06 -0.0005149029
vn 0.9999999 6.225807E-10 -0.0005150223
vn 0.9999999 -2.007913E-06 -0.0005149029
vn 0.9999999 -4.063364E-06 -0.0005147806
vn -0.9999996 5.221303E-06 0.0007767645
vn -0.9999998 1.056714E-05 0.0007764467
vn -0.9999996 5.221303E-06 0.0007767645
vn -0.9999997 -2.490312E-09 0.0007770751
vn 0.6472401 1.797805E-06 -0.7622862
vn 0.7047505 1.721489E-06 -0.7094552
vn 0.7047506 1.445427E-06 -0.7094551
vn 0.5839466 1.088474E-06 -0.8117923
vn 0.4188926 2.185701E-07 -0.9080359
vn 0.6472401 1.797805E-06 -0.7622862
vn 0.5839466 1.088474E-06 -0.8117923
vn 0.4188929 -3.407035E-07 -0.9080357
vn 0.3026707 -3.965484E-07 -0.9530953
vn 0.2629743 -2.479795E-07 -0.9648028
vn 0.172973 -4.255748E-08 -0.9849266
vn 0.1227355 5.54669E-08 -0.9924394
vn 0.02390015 1.753081E-08 -0.9997143
vn -0.02390015 -2.619784E-08 -0.9997144
vn -0.1227356 -6.312526E-08 -0.9924394
vn -0.172973 -2.487189E-08 -0.9849266
vn -0.2629743 9.391426E-08 -0.9648028
vn -0.3026706 3.368337E-07 -0.9530953
vn -0.4188907 1.404552E-06 -0.9080366
vn -0.4188903 7.000529E-07 -0.9080369
vn -0.5839446 3.370789E-06 -0.8117936
vn -0.6472446 7.525487E-06 -0.7622823
vn -0.7047607 8.935035E-06 -0.7094451
vn -0.5839446 3.370789E-06 -0.8117936
vn -0.6472446 7.525487E-06 -0.7622823
vn -0.7047622 1.322198E-05 -0.7094436
vn 0.0008479991 -0.9999997 -3.803926E-05
vn 0.001716374 -0.9999985 -1.264863E-06
vn 0.0008524205 -0.9999995 -0.0003457329
vn 0.0001008006 -0.9999998 -0.0006945599
vn 0.0008606459 -0.9999995 0.0003417491
vn 3.223626E-06 -0.9999997 0.0006854677
vn 0.0003803566 -0.9999996 -0.0007304358
vn 0.0001607503 -0.9999997 -0.000765193
vn 0.0002613789 -0.9999996 -0.0007851137
vn 0.000111735 -0.9999996 -0.000816907
vn 0.0001636973 -0.9999996 -0.0008317925
vn 6.529845E-05 -0.9999997 -0.000859539
vn 8.693166E-05 -0.9999996 -0.0008712536
vn 2.113267E-05 -0.9999995 -0.0008863786
vn -4.303549E-08 -0.9999996 -0.0008881234
vn -8.536835E-08 -0.9999996 -0.0008939229
vn -2.120738E-05 -0.9999995 -0.0008860374
vn -8.680647E-05 -0.9999995 -0.0008698053
vn -6.513868E-05 -0.9999996 -0.0008584593
vn -0.0001628061 -0.9999996 -0.0008290836
vn -0.000110976 -0.9999996 -0.0008150901
vn -0.0002593823 -0.9999997 -0.0007808321
vn -0.0001596359 -0.9999997 -0.0007626151
vn -0.0003761799 -0.9999996 -0.0007243505
vn -0.0007752661 -0.9999996 -0.0004047239
vn -0.001615543 -0.9999987 -5.817867E-05
vn -0.0008634971 -0.9999996 3.183453E-06
vn -2.501367E-06 -1 -1.237329E-06
vn -0.0008583891 -0.9999995 0.0003423759
vn -2.439469E-06 -1 -1.290009E-06
vn 0.001140644 0.9999993 -0.0002297826
vn 0.001118613 0.9999993 -4.76705E-05
vn 0.0007667824 0.9999996 -0.0004075524
vn 5.519956E-06 1 8.090183E-07
vn 0.0008631829 0.9999995 0.0003438634
vn 5.7315E-06 0.9999998 0.0006875937
vn 0.0003801493 0.9999996 -0.0007284107
vn 0.0001610861 0.9999997 -0.0007631811
vn 0.0002616744 0.9999997 -0.0007831434
vn 0.0001114122 0.9999996 -0.0008149833
vn 0.0001632073 0.9999996 -0.0008298836
vn 6.497767E-05 0.9999997 -0.0008576157
vn 8.679397E-05 0.9999996 -0.0008692959
vn 2.108568E-05 0.9999995 -0.0008843865
vn -8.594814E-08 0.9999996 -0.0008861398
vn -1.706942E-07 0.9999996 -0.0008919338
vn -2.104621E-05 0.9999995 -0.0008840674
vn -8.638475E-05 0.9999995 -0.0008678726
vn -6.482611E-05 0.9999996 -0.0008565512
vn -0.0001627255 0.9999997 -0.0008271888
vn -0.000111099 0.9999996 -0.0008131855
vn -0.0002596749 0.9999996 -0.000778883
vn -0.0001596398 0.9999996 -0.0007606256
vn -0.0003761564 0.9999997 -0.0007223198
vn -0.0001073531 0.9999998 -0.0006912879
vn -0.001127032 0.9999994 -3.86523E-05
vn -0.0008753513 0.9999995 -0.000336927
vn -0.001151231 0.9999993 0.0002296302
vn -0.0008649125 0.9999995 0.0003444458
vn -8.924892E-06 1 7.644574E-07

vt 0.2288609 0.4986717
vt 0.2292889 5.617738E-06
vt 0.1992908 4.917383E-07
vt 0.1995475 0.4986665
vt 0.7703642 0.4987096
vt 0.7996776 0.4986665
vt 0.7992904 2.235174E-07
vt 0.7692922 4.413724E-05
vt 0.04900728 0.06982467
vt 0.0490194 8.740051E-06
vt 0.0001747762 0
vt 0.0001626593 0.06981602
vt 0.04899303 0.151379
vt 0.04900728 0.06982467
vt 0.0001626593 0.06981602
vt 0.0001484071 0.1513704
vt 0.000128146 0.2675788
vt 0.04897282 0.2675874
vt 0.0001078353 0.3837873
vt 0.0489525 0.3837957
vt 8.754949E-05 0.4999956
vt 0.04893217 0.5000042
vt 6.718914E-05 0.6162041
vt 0.04891186 0.6162126
vt 4.68288E-05 0.7324125
vt 0.04889145 0.732421
vt 2.649328E-05 0.848621
vt 0.04887111 0.8486297
vt 0.04885686 0.930186
vt 1.224104E-05 0.9301773
vt 0.04884467 1
vt 0.04885686 0.930186
vt 1.224104E-05 0.9301773
vt 0 0.9999911
vt 0.1995475 0.4986665
vt 2.682209E-07 0.4990119
vt 5.960464E-07 0.9999999
vt 0.202707 0.9996006
vt 0 6.258488E-07
vt 0.1992908 4.768372E-07
vt 0.2414465 0.5402879
vt 0.2482185 0.9995961
vt 0.2903903 0.5697536
vt 0.29373 0.9996008
vt 0.3601311 0.5950391
vt 0.3633755 0.9996008
vt 0.4298719 0.61091
vt 0.4330866 0.9996008
vt 0.4996127 0.6159118
vt 0.5028688 0.9996008
vt 0.5727276 0.9996007
vt 0.5693535 0.61091
vt 0.6426686 0.9996007
vt 0.6390943 0.5950391
vt 0.7126974 0.9996007
vt 0.7088351 0.5697536
vt 0.7585719 0.9995961
vt 0.75778 0.5402877
vt 0.8044462 0.9996006
vt 0.7996776 0.4986665
vt 0.9999998 0.4990112
vt 1 0.9999992
vt 0.7992904 2.384186E-07
vt 0.9999994 5.960464E-08
vt 0.9999998 0.4990115
vt 0.8004524 0.4986667
vt 0.7972931 0.9996007
vt 0.9999994 0.9999999
vt 1 6.556511E-07
vt 0.8007092 3.874302E-07
vt 0.7585534 0.5402879
vt 0.7517815 0.9995961
vt 0.7096097 0.5697535
vt 0.7062699 0.9996008
vt 0.6398689 0.595039
vt 0.6366243 0.9996008
vt 0.5701281 0.6109099
vt 0.5669133 0.9996008
vt 0.5003873 0.6159118
vt 0.4971312 0.9996008
vt 0.4272724 0.9996008
vt 0.4306465 0.6109099
vt 0.3573313 0.9996008
vt 0.3609057 0.595039
vt 0.2873025 0.9996008
vt 0.2911649 0.5697535
vt 0.2414282 0.9995961
vt 0.24222 0.5402877
vt 0.1955538 0.9996006
vt 0.2003221 0.4986666
vt 0 0.9999992
vt 2.682209E-07 0.4990113
vt 0.2007096 2.086163E-07
vt 5.662441E-07 2.980232E-08

g Default-Material
usemtl Default-Material
usemap Default-Material
f 2/2/2 1/1/1 3/3/3
f 3/3/3 1/1/1 4/4/4
f 6/6/6 5/5/5 7/7/7
f 7/7/7 5/5/5 8/8/8

g Default_Prototype 1
usemtl Default_Prototype 1
usemap Default_Prototype 1
f 10/10/10 9/9/9 11/11/11
f 11/11/11 9/9/9 12/12/12
f 14/14/14 13/13/13 15/15/15
f 15/15/15 13/13/13 16/16/16
f 16/16/16 13/13/13 17/17/17
f 17/17/17 13/13/13 18/18/18
f 17/17/17 18/18/18 19/19/19
f 19/19/19 18/18/18 20/20/20
f 19/19/19 20/20/20 21/21/21
f 21/21/21 20/20/20 22/22/22
f 21/21/21 22/22/22 23/23/23
f 23/23/23 22/22/22 24/24/24
f 23/23/23 24/24/24 25/25/25
f 25/25/25 24/24/24 26/26/26
f 25/25/25 26/26/26 27/27/27
f 27/27/27 26/26/26 28/28/28
f 28/28/28 29/29/29 27/27/27
f 27/27/27 29/29/29 30/30/30
f 32/32/32 31/31/31 33/33/33
f 33/33/33 31/31/31 34/34/34

g Stone Brick Wall
usemtl Stone Brick Wall
usemap Stone Brick Wall
f 36/36/36 35/35/35 37/37/37
f 37/37/37 35/35/35 38/38/38
f 39/39/39 35/35/35 36/36/36
f 40/40/40 35/35/35 39/39/39
f 41/41/41 38/38/38 35/35/35
f 42/42/42 38/38/38 41/41/41
f 41/41/41 43/43/43 42/42/42
f 42/42/42 43/43/43 44/44/44
f 45/45/45 44/44/44 43/43/43
f 46/46/46 44/44/44 45/45/45
f 47/47/47 46/46/46 45/45/45
f 48/48/48 46/46/46 47/47/47
f 49/49/49 48/48/48 47/47/47
f 50/50/50 48/48/48 49/49/49
f 50/50/50 49/49/49 51/51/51
f 51/51/51 49/49/49 52/52/52
f 51/51/51 52/52/52 53/53/53
f 53/53/53 52/52/52 54/54/54
f 53/53/53 54/54/54 55/55/55
f 55/55/55 54/54/54 56/56/56
f 56/56/56 57/57/57 55/55/55
f 58/58/58 57/57/57 56/56/56
f 58/58/58 59/59/59 57/57/57
f 60/60/60 59/59/59 58/58/58
f 60/60/60 61/61/61 59/59/59
f 59/59/59 61/61/61 62/62/62
f 60/60/60 63/63/63 61/61/61
f 61/61/61 63/63/63 64/64/64
f 66/66/66 65/65/65 67/67/67
f 67/67/67 65/65/65 68/68/68
f 66/66/66 69/69/69 65/65/65
f 70/70/70 69/69/69 66/66/66
f 67/67/67 71/71/71 66/66/66
f 72/72/72 71/71/71 67/67/67
f 72/72/72 73/73/73 71/71/71
f 74/74/74 73/73/73 72/72/72
f 74/74/74 75/75/75 73/73/73
f 76/76/76 75/75/75 74/74/74
f 76/76/76 77/77/77 75/75/75
f 78/78/78 77/77/77 76/76/76
f 78/78/78 79/79/79 77/77/77
f 80/80/80 79/79/79 78/78/78
f 81/81/81 79/79/79 80/80/80
f 82/82/82 79/79/79 81/81/81
f 83/83/83 82/82/82 81/81/81
f 84/84/84 82/82/82 83/83/83
f 85/85/85 84/84/84 83/83/83
f 86/86/86 84/84/84 85/85/85
f 87/87/87 86/86/86 85/85/85
f 88/88/88 86/86/86 87/87/87
f 89/89/89 88/88/88 87/87/87
f 90/90/90 88/88/88 89/89/89
f 91/91/91 90/90/90 89/89/89
f 92/92/92 90/90/90 91/91/91
f 90/90/90 92/92/92 93/93/93
f 93/93/93 92/92/92 94/94/94
