mtllib ./WallSquare_5.mtl
g WallSquare_5
v -0.7493592 2.500319 -2.5
v -0.7499998 6.356129E-08 -2.499999
v -0.7499999 -8.138095E-08 2.5
v -0.7493593 2.500319 2.500001
v 0.7509668 2.500319 -2.5
v 0.7509667 2.500319 2.500001
v 0.7499998 -3.019801E-07 2.5
v 0.75 -1.570377E-07 -2.499999
v 0.7509668 2.500319 -2.5
v -0.7493592 2.500319 -2.5
v -0.7493593 2.500319 2.500001
v 0.7509667 2.500319 2.500001
v -0.7493593 2.500319 2.500001
v -2.5 2.502044 2.5
v -2.5 5.000001 2.500001
v -0.7414619 5 2.500002
v 0.7628869 5 2.500002
v 0.7509667 2.500319 2.500001
v 2.5 2.502043 2.5
v 2.5 5 2.500001
v -2.5 1.759847E-07 2.499999
v -0.7499999 -8.138095E-08 2.5
v 0.7499998 -3.019801E-07 2.5
v 2.5 -8.250845E-08 2.499999
v -2.499999 2.502044 -2.5
v -0.7493592 2.500319 -2.5
v -0.7414618 5 -2.5
v -2.499999 5.000001 -2.5
v 0.7628871 5 -2.5
v 0.7509668 2.500319 -2.5
v 2.5 5 -2.5
v 2.5 2.502043 -2.5
v -2.5 3.209268E-07 -2.5
v -0.7499998 6.356129E-08 -2.499999
v 0.75 -1.570377E-07 -2.499999
v 2.5 6.243397E-08 -2.5

vn 0.9999999 -0.0002562196 2.383278E-08
vn 1 -0.0002562196 2.384814E-08
vn 0.9999999 -0.0002562196 2.383278E-08
vn 0.9999999 -0.0002562196 2.381742E-08
vn -0.9999999 0.0003867013 -2.980004E-08
vn -0.9999999 0.0003867133 -2.384185E-08
vn -0.9999999 0.0003867013 -2.980004E-08
vn -0.9999999 0.0003866894 -3.575823E-08
vn -1.589112E-07 -1 -4.768371E-08
vn -3.178224E-07 -0.9999999 -9.536743E-08
vn -1.589112E-07 -1 -4.768371E-08
vn 0 -1 0
vn -4.524794E-07 -3.354953E-07 1
vn -5.451334E-07 -3.814696E-07 1
vn -4.757539E-07 -3.331919E-07 1
vn -3.653493E-07 -2.849845E-07 1
vn 2.571187E-07 -3.121914E-07 1
vn 4.772521E-07 -3.205064E-07 1
vn 7.852299E-07 -3.586461E-07 1
vn 6.862493E-07 -3.817818E-07 1
vn -5.45045E-07 -3.812197E-07 1
vn -5.449567E-07 -3.812815E-07 1
vn 8.178491E-07 -3.814478E-07 1
vn 8.174351E-07 -3.811583E-07 1
vn 2.719698E-07 -2.864179E-10 -1
vn 2.888088E-07 -8.107596E-08 -1
vn 1.902005E-07 -3.00568E-10 -1
vn 2.711555E-07 -2.588056E-14 -1
vn -1.005606E-07 4.795451E-10 -0.9999999
vn -2.12328E-07 -4.91757E-08 -1
vn -2.735615E-07 6.525068E-10 -1
vn -3.63446E-07 -6.35287E-08 -0.9999999
vn 5.447631E-07 -1.907146E-07 -1
vn 8.174351E-07 -3.816305E-07 -1
vn -4.087836E-07 -9.524336E-08 -1
vn -5.449568E-07 1.038574E-13 -1

vt 1 0.5000637
vt 0.9999996 0
vt 2.384184E-07 1.490115E-07
vt 0 0.5000638
vt 0 0.500064
vt 1 0.5000638
vt 0.9999996 0
vt 2.980234E-08 2.086163E-07
vt 0.3000652 0
vt 0 0
vt 0 1
vt 0.3000652 1
vt 0.3501281 0.4998906
vt 0 0.5002352
vt -3.576279E-07 0.9998268
vt 0.3517073 0.9998269
vt 0.6525773 0.9998269
vt 0.6501932 0.4998906
vt 1 0.5002353
vt 1 0.9998268
vt 5.066395E-07 -0.0001735662
vt 0.3500005 -0.0001732681
vt 0.6499997 -0.0001731787
vt 0.9999996 -0.000173447
vt 1 0.5002352
vt 0.6498715 0.4998903
vt 0.6482923 0.9998266
vt 1 0.9998268
vt 0.3474226 0.9998266
vt 0.3498064 0.4998904
vt 0 0.9998266
vt 0 0.5002353
vt 0.9999995 -0.0001742814
vt 0.6499991 -0.0001739238
vt 0.3499997 -0.0001730595
vt 0 -0.0001730595

g Default-Material
usemtl Default-Material
usemap Default-Material
f 2/2/2 1/1/1 3/3/3
f 3/3/3 1/1/1 4/4/4
f 6/6/6 5/5/5 7/7/7
f 7/7/7 5/5/5 8/8/8

g Default_Prototype 1
usemtl Default_Prototype 1
usemap Default_Prototype 1
f 10/10/10 9/9/9 11/11/11
f 11/11/11 9/9/9 12/12/12

g Stone Brick Wall
usemtl Stone Brick Wall
usemap Stone Brick Wall
f 14/14/14 13/13/13 15/15/15
f 15/15/15 13/13/13 16/16/16
f 13/13/13 17/17/17 16/16/16
f 18/18/18 17/17/17 13/13/13
f 18/18/18 19/19/19 17/17/17
f 17/17/17 19/19/19 20/20/20
f 21/21/21 13/13/13 14/14/14
f 22/22/22 13/13/13 21/21/21
f 18/18/18 23/23/23 19/19/19
f 19/19/19 23/23/23 24/24/24
f 26/26/26 25/25/25 27/27/27
f 27/27/27 25/25/25 28/28/28
f 29/29/29 26/26/26 27/27/27
f 30/30/30 26/26/26 29/29/29
f 31/31/31 30/30/30 29/29/29
f 32/32/32 30/30/30 31/31/31
f 26/26/26 33/33/33 25/25/25
f 34/34/34 33/33/33 26/26/26
f 30/30/30 32/32/32 35/35/35
f 35/35/35 32/32/32 36/36/36
