mtllib ./WallSquare_1.mtl
g WallSquare_1
v -0.7493592 2.500319 -0.4999996
v -0.7499998 1.827706E-07 -0.4999992
v -0.7499999 3.782834E-08 0.4999995
v -0.7493593 2.500319 0.5000005
v 0.7509668 2.500319 -0.4999996
v 0.7509667 2.500319 0.5000008
v 0.7499998 -1.827708E-07 0.4999999
v 0.75 -3.782843E-08 -0.4999995
v 0.7509668 2.500319 -0.4999996
v -0.7493592 2.500319 -0.4999996
v -0.7493593 2.500319 0.5000005
v 0.7509667 2.500319 0.5000008
v -0.7493593 2.500319 0.5000005
v -2.499999 2.502044 0.5000001
v -2.499999 5.000001 0.5000009
v -0.7414619 5 0.5000013
v 0.7628869 5 0.5000017
v 0.7509667 2.500319 0.5000008
v 2.5 2.502043 0.5000001
v 2.5 5 0.5000009
v -2.5 2.95194E-07 0.4999991
v -0.7499999 3.782834E-08 0.4999995
v 0.7499998 -1.827708E-07 0.4999999
v 2.5 -4.401363E-07 0.4999991
v -2.499999 2.502044 -0.4999999
v -0.7493592 2.500319 -0.4999996
v -0.7414618 5 -0.4999998
v -2.499999 5.000001 -0.5000002
v 0.7628871 5 -0.4999998
v 0.7509668 2.500319 -0.4999996
v 2.5 5 -0.5000002
v 2.5 2.502043 -0.5000001
v -2.5 4.401361E-07 -0.4999998
v -0.7499998 1.827706E-07 -0.4999992
v 0.75 -3.782843E-08 -0.4999995
v 2.5 1.816433E-07 -0.4999998

vn 1 -0.0002562196 1.19148E-07
vn 0.9999999 -0.0002562196 1.191477E-07
vn 1 -0.0002562196 1.19148E-07
vn 0.9999999 -0.0002562196 1.191482E-07
vn -0.9999999 0.0003867013 -1.489537E-07
vn -0.9999999 0.0003867132 -1.192092E-07
vn -0.9999999 0.0003867013 -1.489537E-07
vn -0.9999999 0.0003866894 -1.786981E-07
vn -7.945557E-08 -0.9999999 -1.192093E-07
vn -1.589112E-07 -1 -2.384186E-07
vn -7.945557E-08 -0.9999999 -1.192093E-07
vn 0 -1 0
vn -2.322441E-07 -3.464419E-07 1
vn -2.38684E-07 -3.576278E-07 1
vn -2.20968E-07 -3.21668E-07 1
vn -2.374771E-07 -3.092334E-07 1
vn 1.194064E-07 -3.284667E-07 1
vn 2.387607E-07 -3.509435E-07 1
vn 4.438932E-07 -3.582436E-07 1
vn 4.460619E-07 -3.340591E-07 1
vn -2.215421E-07 -3.931764E-07 1
vn -2.043588E-07 -4.052075E-07 1
vn 4.430875E-07 -3.813752E-07 1
vn 4.427773E-07 -3.811582E-07 1
vn 1.925808E-07 -9.562211E-08 -1
vn 1.371581E-07 -9.548224E-08 -1
vn 1.426093E-07 -1.123221E-07 -1
vn 2.37261E-07 -1.431682E-07 -1
vn -7.542047E-08 -9.501994E-08 -1
vn -1.946518E-07 -7.033938E-08 -1
vn -2.393309E-07 -7.098852E-08 -1
vn -2.498149E-07 -6.354627E-08 -0.9999999
vn 2.38328E-07 -9.535293E-08 -1
vn 3.065381E-07 -1.431114E-07 -1
vn -2.384492E-07 -7.144569E-08 -1
vn -2.043588E-07 -9.528951E-08 -1

vt 0.6499354 0.4998903
vt 0.6499352 -0.0001739264
vt 0.4499353 -0.0001739264
vt 0.4499352 0.4998902
vt 0.3499031 0.4998904
vt 0.5499031 0.4998904
vt 0.5499028 -0.0001731068
vt 0.3499031 -0.0001730472
vt 0.666522 1
vt 0.666522 0
vt 1.986388E-07 0
vt 0 1
vt 0.3501281 0.4998906
vt 0 0.5002352
vt -3.576279E-07 0.9998268
vt 0.3517073 0.9998269
vt 0.6525773 0.9998269
vt 0.6501932 0.4998906
vt 1 0.5002353
vt 1 0.9998268
vt 5.066395E-07 -0.0001735662
vt 0.3500005 -0.0001732681
vt 0.6499997 -0.0001731787
vt 0.9999996 -0.000173447
vt 1 0.5002352
vt 0.6498715 0.4998903
vt 0.6482923 0.9998266
vt 1 0.9998268
vt 0.3474226 0.9998266
vt 0.3498064 0.4998904
vt 0 0.9998266
vt 0 0.5002353
vt 0.9999995 -0.0001742814
vt 0.6499991 -0.0001739238
vt 0.3499997 -0.0001730595
vt 0 -0.0001730595

g Default-Material
usemtl Default-Material
usemap Default-Material
f 2/2/2 1/1/1 3/3/3
f 3/3/3 1/1/1 4/4/4
f 6/6/6 5/5/5 7/7/7
f 7/7/7 5/5/5 8/8/8

g Default_Prototype 1
usemtl Default_Prototype 1
usemap Default_Prototype 1
f 10/10/10 9/9/9 11/11/11
f 11/11/11 9/9/9 12/12/12

g Stone Brick Wall
usemtl Stone Brick Wall
usemap Stone Brick Wall
f 14/14/14 13/13/13 15/15/15
f 15/15/15 13/13/13 16/16/16
f 13/13/13 17/17/17 16/16/16
f 18/18/18 17/17/17 13/13/13
f 18/18/18 19/19/19 17/17/17
f 17/17/17 19/19/19 20/20/20
f 21/21/21 13/13/13 14/14/14
f 22/22/22 13/13/13 21/21/21
f 18/18/18 23/23/23 19/19/19
f 19/19/19 23/23/23 24/24/24
f 26/26/26 25/25/25 27/27/27
f 27/27/27 25/25/25 28/28/28
f 29/29/29 26/26/26 27/27/27
f 30/30/30 26/26/26 29/29/29
f 31/31/31 30/30/30 29/29/29
f 32/32/32 30/30/30 31/31/31
f 26/26/26 33/33/33 25/25/25
f 34/34/34 33/33/33 26/26/26
f 30/30/30 32/32/32 35/35/35
f 35/35/35 32/32/32 36/36/36
