mtllib ./WallDoublePointed_05.mtl
g WallDoublePointed_05
v -1.499611 2.502739 -0.2441973
v -1.500893 3.851383E-07 -0.2499993
v -1.500893 3.282466E-07 0.2499994
v -1.499611 2.502739 0.2442002
v 1.501041 2.502738 -0.2441973
v 1.501041 2.502738 0.2442002
v 1.499106 -5.074186E-07 0.2499996
v 1.499106 -1.453508E-07 -0.2499997
v -1.3554 2.747 -0.2441973
v -1.499611 2.502739 -0.2441973
v -1.499611 2.502739 0.2442002
v -1.3554 2.747 0.2442001
v -1.198535 2.943294 -0.2441974
v -1.198535 2.943294 0.2442001
v -1.000573 3.113498 -0.2441974
v -1.000574 3.113498 0.2442001
v -0.7208912 3.303135 -0.2441974
v -0.7208914 3.303135 0.2442001
v -0.3900412 3.472207 -0.2441974
v -0.3900413 3.472207 0.2442001
v 0.0007156889 3.646803 -0.2441974
v 0.0007155567 3.646803 0.2442
v 0.391471 3.472207 -0.2441974
v 0.3914709 3.472207 0.2442001
v 0.7223224 3.303135 -0.2441974
v 0.7223222 3.303135 0.2442001
v 1.002013 3.113497 -0.2441974
v 1.002013 3.113497 0.2442001
v 1.199983 2.943293 -0.2441974
v 1.199983 2.943293 0.2442001
v 1.356852 2.747 -0.2441973
v 1.356852 2.746999 0.2442001
v 1.501041 2.502738 -0.2441973
v 1.501041 2.502738 0.2442002
v -1.499611 2.502739 0.2442002
v -2.5 2.504464 0.2500001
v -2.499999 5 0.2500017
v -1.483815 5 0.250003
v -2.500001 -4.757332E-07 0.2499982
v -1.500893 3.282466E-07 0.2499994
v -1.3554 2.747 0.2442001
v -1.296296 5 0.2500029
v -1.198535 2.943294 0.2442001
v -1.108777 5 0.2500029
v -1.000574 3.113498 0.2442001
v -0.9212587 5.000001 0.2500029
v -0.7208914 3.303135 0.2442001
v -0.7337399 5.000001 0.2500028
v -0.3900413 3.472207 0.2442001
v -0.3587728 5.000001 0.2500028
v 0.0007155567 3.646803 0.2442
v 0.01619412 5.000001 0.2500028
v 0.3926703 5.000001 0.2500028
v 0.3914709 3.472207 0.2442001
v 0.7691463 5.000001 0.250003
v 0.7223222 3.303135 0.2442001
v 0.9580804 5.000001 0.250003
v 1.002013 3.113497 0.2442001
v 1.147014 5.000001 0.2500031
v 1.199983 2.943293 0.2442001
v 1.335949 5 0.2500032
v 1.356852 2.746999 0.2442001
v 1.524883 5 0.2500032
v 1.501041 2.502738 0.2442002
v 2.5 2.504462 0.2500001
v 2.500001 4.999999 0.2500018
v 1.499106 -5.074186E-07 0.2499996
v 2.499999 -1.111736E-06 0.2499982
v -2.5 2.504465 -0.2499999
v -1.499611 2.502739 -0.2441973
v -1.483815 5.000001 -0.2499981
v -2.499999 5.000002 -0.2499994
v -2.500001 1.319847E-06 -0.2500006
v -1.500893 3.851383E-07 -0.2499993
v -1.3554 2.747 -0.2441973
v -1.296296 5.000001 -0.2499982
v -1.198535 2.943294 -0.2441974
v -1.108777 5 -0.2499983
v -1.000573 3.113498 -0.2441974
v -0.9212584 5.000001 -0.2499983
v -0.7208912 3.303135 -0.2441974
v -0.7337396 5.000001 -0.2499983
v -0.3900412 3.472207 -0.2441974
v -0.3587728 5.000001 -0.2499983
v 0.0007156889 3.646803 -0.2441974
v 0.01619425 5.000001 -0.2499983
v 0.3926703 5.000001 -0.2499983
v 0.391471 3.472207 -0.2441974
v 0.7691466 5.000001 -0.2499983
v 0.7223224 3.303135 -0.2441974
v 0.9580807 5.000001 -0.2499984
v 1.002013 3.113497 -0.2441974
v 1.147015 5.000001 -0.2499983
v 1.199983 2.943293 -0.2441974
v 1.335949 5 -0.2499984
v 1.356852 2.747 -0.2441973
v 1.524883 5 -0.2499984
v 1.501041 2.502738 -0.2441973
v 2.500001 5 -0.2499994
v 2.5 2.504463 -0.2499999
v 1.499106 -1.453508E-07 -0.2499997
v 2.499999 2.070072E-07 -0.2500006

vn 0.9999999 -0.0005123724 -9.412251E-11
vn 0.9999999 -0.0005123723 -1.860611E-10
vn 0.9999999 -0.0005123724 -9.412251E-11
vn 0.9999999 -0.0005123723 0
vn -0.9999997 0.0007730596 1.882449E-10
vn -0.9999997 0.0007730595 0
vn -0.9999997 0.0007730596 1.882449E-10
vn -0.9999997 0.0007730596 3.721218E-10
vn 0.8383558 -0.5451235 -1.842289E-07
vn 0.8611199 -0.508402 0
vn 0.8611197 -0.5084022 -1.240921E-07
vn 0.8118905 -0.5838097 6.447697E-08
vn 0.7398986 -0.6727183 4.699103E-07
vn 0.6965904 -0.7174691 6.757E-07
vn 0.6172544 -0.7867637 4.875904E-07
vn 0.5872599 -0.8093984 2.937167E-07
vn 0.5244598 -0.8514352 2.636292E-07
vn 0.4890313 -0.8722662 2.017584E-07
vn 0.4379723 -0.8989885 1.460105E-07
vn 0.4223241 -0.906445 1.094297E-07
vn 0.1473136 -0.9890898 2.700056E-08
vn -0.1473144 -0.9890897 -2.959201E-08
vn -0.4223248 -0.9064445 -7.951933E-08
vn -0.4379718 -0.8989888 -8.410617E-08
vn -0.4890271 -0.8722686 -1.350983E-07
vn -0.5244529 -0.8514395 -2.134011E-07
vn -0.5872483 -0.8094069 -2.619748E-07
vn -0.6172407 -0.7867745 -3.022652E-07
vn -0.6965766 -0.7174824 -3.404815E-07
vn -0.739888 -0.6727301 -4.359312E-07
vn -0.8118992 -0.5837976 -5.015655E-07
vn -0.8383783 -0.5450889 -3.649213E-07
vn -0.8611535 -0.508345 -2.554681E-07
vn -0.8611533 -0.5083454 0
vn 0.00292514 -9.070259E-05 0.9999958
vn 0.005797581 -7.05563E-07 0.9999832
vn 0.002874498 -0.001171645 0.9999952
vn 0.0004265266 -0.002358448 0.9999971
vn 0.002901077 0.001157048 0.9999951
vn -1.209726E-06 0.002317149 0.9999974
vn 0.002281625 -0.002530147 0.9999943
vn 0.0009907325 -0.002683999 0.9999958
vn 0.00190003 -0.002811508 0.9999943
vn 0.0008731304 -0.002939061 0.9999952
vn 0.001659637 -0.003067655 0.9999939
vn 0.0009291681 -0.003207307 0.9999945
vn 0.001492944 -0.003321144 0.9999934
vn 0.0006745091 -0.003563585 0.9999934
vn 0.00115411 -0.003682363 0.9999925
vn 0.00060606 -0.003959233 0.999992
vn -6.333779E-10 -0.004033073 0.9999918
vn 0 -0.00428817 0.9999908
vn -0.0006026149 -0.003946065 0.999992
vn -0.001145195 -0.003658419 0.9999927
vn -0.0006698343 -0.003549809 0.9999934
vn -0.001477155 -0.003292047 0.9999935
vn -0.0009201285 -0.003189527 0.9999945
vn -0.001639443 -0.003036514 0.9999941
vn -0.0008643074 -0.002923082 0.9999954
vn -0.001872185 -0.002777589 0.9999945
vn -0.0009790751 -0.002666851 0.9999959
vn -0.002240942 -0.002492272 0.9999943
vn -0.002777808 -0.001327585 0.9999953
vn -0.005674107 -0.0001288589 0.9999839
vn -0.00291828 1.433995E-05 0.9999958
vn 1.43645E-06 -6.44882E-07 1
vn -0.002900504 0.001158949 0.9999952
vn 1.354796E-06 -7.615803E-07 0.9999999
vn 0.003848452 -0.0007816728 -0.9999923
vn 0.003871642 -0.0001187954 -0.9999925
vn 0.002735353 -0.001345027 -0.9999955
vn 1.246427E-06 1.910755E-07 -1
vn 0.002903674 0.001158119 -0.9999952
vn 1.329553E-06 0.002318243 -0.9999973
vn 0.002280372 -0.002529303 -0.9999943
vn 0.0009898351 -0.002683113 -0.9999958
vn 0.001899071 -0.002810598 -0.9999942
vn 0.0008726357 -0.002938123 -0.9999953
vn 0.001659027 -0.003066682 -0.9999939
vn 0.0009286107 -0.003206301 -0.9999945
vn 0.001492182 -0.003320115 -0.9999933
vn 0.0006740945 -0.003562481 -0.9999934
vn 0.001153641 -0.00368121 -0.9999925
vn 0.0006058142 -0.003957969 -0.9999921
vn -6.333779E-10 -0.004031778 -0.9999918
vn 0 -0.004286772 -0.9999908
vn -0.0006021539 -0.003944806 -0.9999921
vn -0.001144496 -0.003657231 -0.9999927
vn -0.0006694223 -0.003548623 -0.9999935
vn -0.001476658 -0.003290937 -0.9999935
vn -0.0009196305 -0.003188478 -0.9999945
vn -0.001638548 -0.003035519 -0.9999941
vn -0.00086371 -0.002922091 -0.9999953
vn -0.001871425 -0.002776633 -0.9999945
vn -0.0009786267 -0.002665944 -0.999996
vn -0.002239953 -0.002491442 -0.9999944
vn -0.0004399372 -0.002351994 -0.9999971
vn -0.003904565 -8.789239E-05 -0.9999924
vn -0.002938926 -0.001147742 -0.9999949
vn -0.003868825 0.0007745215 -0.9999923
vn -0.002902979 0.001160057 -0.9999952
vn -9.081602E-07 2.617934E-07 -0.9999999

vt 0.8004471 0.5005487
vt 0.8007264 1.221895E-06
vt 0.700727 0.0001772344
vt 0.7027681 0.5007206
vt 0.2003389 0.5005484
vt 0.2980176 0.5008463
vt 0.3007037 0.0003058016
vt 0.2007047 9.536743E-07
vt 0.0001275391 0.9514679
vt 0 0.999504
vt 0.141656 1
vt 0.1417835 0.951964
vt 0.0002662325 0.8992167
vt 0.1419223 0.8997129
vt 0.0004412995 0.8332765
vt 0.1420973 0.8337726
vt 0.000688642 0.7401158
vt 0.1423446 0.7406119
vt 0.0009812607 0.629911
vt 0.1426372 0.6304071
vt 0.001326854 0.4997516
vt 0.1429828 0.5002477
vt 0.001672439 0.3695928
vt 0.1433284 0.3700889
vt 0.001965042 0.2593876
vt 0.143621 0.2598838
vt 0.002212385 0.166224
vt 0.1438684 0.1667201
vt 0.002387475 0.100281
vt 0.1440435 0.1007771
vt 0.002526258 0.0480286
vt 0.1441822 0.04852466
vt 0.002653774 0
vt 0.1443097 0.0004959719
vt 0.19954 0.500548
vt -9.536743E-07 0.5008929
vt -8.34465E-07 0.9999997
vt 0.2026992 0.9999998
vt -1.192093E-06 4.768372E-07
vt 0.1992836 5.960464E-07
vt 0.2283849 0.5493991
vt 0.2402029 0.9999998
vt 0.2597577 0.5886579
vt 0.2777066 0.9999999
vt 0.2993487 0.6226992
vt 0.3152103 1
vt 0.3552838 0.6606273
vt 0.3527141 1
vt 0.4214535 0.6944417
vt 0.4277075 1
vt 0.4996051 0.729361
vt 0.5027009 1
vt 0.5779961 1
vt 0.5777559 0.6944419
vt 0.6532912 1
vt 0.6439264 0.6606276
vt 0.6910781 1
vt 0.6998658 0.6226995
vt 0.7288648 1
vt 0.7394611 0.5886583
vt 0.7666517 1
vt 0.7708352 0.5493996
vt 0.8044385 1
vt 0.7996702 0.5005486
vt 0.9999986 0.5008936
vt 0.9999986 1
vt 0.7992833 1.221895E-06
vt 0.9999983 1.341105E-06
vt 0.9999996 0.500894
vt 0.8004586 0.5005487
vt 0.7972994 1.000001
vt 0.9999994 1.000001
vt 0.9999998 1.430511E-06
vt 0.800715 1.221895E-06
vt 0.7716169 0.5493991
vt 0.7597957 1
vt 0.7402439 0.588658
vt 0.7222919 1
vt 0.7006513 0.6226995
vt 0.6847882 1.000001
vt 0.6447147 0.6606278
vt 0.6472844 1.000001
vt 0.5785447 0.6944423
vt 0.572291 1.000001
vt 0.5003933 0.7293613
vt 0.4972977 1.000001
vt 0.4220025 1
vt 0.4222423 0.6944422
vt 0.3467073 1
vt 0.3560721 0.6606277
vt 0.3089204 1
vt 0.3001342 0.6226993
vt 0.2711337 1
vt 0.2605404 0.5886576
vt 0.2333468 1
vt 0.2291666 0.5493988
vt 0.19556 1
vt 0.2003283 0.5005484
vt -1.788139E-07 1
vt -5.960464E-08 0.5008931
vt 0.2007152 9.536743E-07
vt 1.490116E-07 8.046627E-07

g Default-Material
usemtl Default-Material
usemap Default-Material
f 2/2/2 1/1/1 3/3/3
f 3/3/3 1/1/1 4/4/4
f 6/6/6 5/5/5 7/7/7
f 7/7/7 5/5/5 8/8/8

g Default_Prototype 1
usemtl Default_Prototype 1
usemap Default_Prototype 1
f 10/10/10 9/9/9 11/11/11
f 11/11/11 9/9/9 12/12/12
f 9/9/9 13/13/13 12/12/12
f 12/12/12 13/13/13 14/14/14
f 13/13/13 15/15/15 14/14/14
f 14/14/14 15/15/15 16/16/16
f 15/15/15 17/17/17 16/16/16
f 16/16/16 17/17/17 18/18/18
f 17/17/17 19/19/19 18/18/18
f 18/18/18 19/19/19 20/20/20
f 19/19/19 21/21/21 20/20/20
f 20/20/20 21/21/21 22/22/22
f 21/21/21 23/23/23 22/22/22
f 22/22/22 23/23/23 24/24/24
f 23/23/23 25/25/25 24/24/24
f 24/24/24 25/25/25 26/26/26
f 25/25/25 27/27/27 26/26/26
f 26/26/26 27/27/27 28/28/28
f 27/27/27 29/29/29 28/28/28
f 28/28/28 29/29/29 30/30/30
f 29/29/29 31/31/31 30/30/30
f 30/30/30 31/31/31 32/32/32
f 31/31/31 33/33/33 32/32/32
f 32/32/32 33/33/33 34/34/34

g Stone Brick Wall
usemtl Stone Brick Wall
usemap Stone Brick Wall
f 36/36/36 35/35/35 37/37/37
f 37/37/37 35/35/35 38/38/38
f 39/39/39 35/35/35 36/36/36
f 40/40/40 35/35/35 39/39/39
f 41/41/41 38/38/38 35/35/35
f 42/42/42 38/38/38 41/41/41
f 41/41/41 43/43/43 42/42/42
f 42/42/42 43/43/43 44/44/44
f 43/43/43 45/45/45 44/44/44
f 44/44/44 45/45/45 46/46/46
f 45/45/45 47/47/47 46/46/46
f 46/46/46 47/47/47 48/48/48
f 49/49/49 48/48/48 47/47/47
f 50/50/50 48/48/48 49/49/49
f 49/49/49 51/51/51 50/50/50
f 50/50/50 51/51/51 52/52/52
f 52/52/52 51/51/51 53/53/53
f 53/53/53 51/51/51 54/54/54
f 53/53/53 54/54/54 55/55/55
f 55/55/55 54/54/54 56/56/56
f 56/56/56 57/57/57 55/55/55
f 58/58/58 57/57/57 56/56/56
f 58/58/58 59/59/59 57/57/57
f 60/60/60 59/59/59 58/58/58
f 60/60/60 61/61/61 59/59/59
f 62/62/62 61/61/61 60/60/60
f 62/62/62 63/63/63 61/61/61
f 64/64/64 63/63/63 62/62/62
f 64/64/64 65/65/65 63/63/63
f 63/63/63 65/65/65 66/66/66
f 64/64/64 67/67/67 65/65/65
f 65/65/65 67/67/67 68/68/68
f 70/70/70 69/69/69 71/71/71
f 71/71/71 69/69/69 72/72/72
f 70/70/70 73/73/73 69/69/69
f 74/74/74 73/73/73 70/70/70
f 71/71/71 75/75/75 70/70/70
f 76/76/76 75/75/75 71/71/71
f 76/76/76 77/77/77 75/75/75
f 78/78/78 77/77/77 76/76/76
f 78/78/78 79/79/79 77/77/77
f 80/80/80 79/79/79 78/78/78
f 80/80/80 81/81/81 79/79/79
f 82/82/82 81/81/81 80/80/80
f 82/82/82 83/83/83 81/81/81
f 84/84/84 83/83/83 82/82/82
f 84/84/84 85/85/85 83/83/83
f 86/86/86 85/85/85 84/84/84
f 87/87/87 85/85/85 86/86/86
f 88/88/88 85/85/85 87/87/87
f 89/89/89 88/88/88 87/87/87
f 90/90/90 88/88/88 89/89/89
f 91/91/91 90/90/90 89/89/89
f 92/92/92 90/90/90 91/91/91
f 93/93/93 92/92/92 91/91/91
f 94/94/94 92/92/92 93/93/93
f 95/95/95 94/94/94 93/93/93
f 96/96/96 94/94/94 95/95/95
f 97/97/97 96/96/96 95/95/95
f 98/98/98 96/96/96 97/97/97
f 99/99/99 98/98/98 97/97/97
f 100/100/100 98/98/98 99/99/99
f 98/98/98 100/100/100 101/101/101
f 101/101/101 100/100/100 102/102/102
