mtllib ./WallPointed_5.mtl
g WallPointed_5
v -0.7493586 2.502739 -2.494422
v -0.7499995 2.923631E-07 -2.499998
v -0.7499996 5.937015E-08 2.499999
v -0.7493587 2.502739 2.494424
v 0.7509674 2.502739 -2.494422
v 0.7509673 2.502739 2.494424
v 0.7500002 -2.923632E-07 2.499999
v 0.7500004 -5.937003E-08 -2.499998
v -0.6772532 2.747 -2.494422
v -0.7493586 2.502739 -2.494422
v -0.7493587 2.502739 2.494424
v -0.6772534 2.747 2.494424
v -0.5988207 2.943294 -2.494422
v -0.5988207 2.943294 2.494424
v -0.4998401 3.113498 -2.494422
v -0.4998401 3.113498 2.494424
v -0.359999 3.303135 -2.494422
v -0.359999 3.303135 2.494424
v -0.1945739 3.472207 -2.494422
v -0.194574 3.472207 2.494424
v 0.0008044913 3.646803 -2.494422
v 0.0008043721 3.646803 2.494424
v 0.1961821 3.472207 -2.494422
v 0.1961821 3.472207 2.494424
v 0.3616078 3.303135 -2.494422
v 0.3616077 3.303135 2.494424
v 0.5014531 3.113497 -2.494422
v 0.5014531 3.113497 2.494424
v 0.6004383 2.943293 -2.494422
v 0.6004382 2.943293 2.494424
v 0.6788729 2.747 -2.494422
v 0.6788728 2.747 2.494424
v 0.7509674 2.502739 -2.494422
v 0.7509673 2.502739 2.494424
v -0.7493587 2.502739 2.494424
v -2.499999 2.504464 2.5
v -2.499999 5 2.500001
v -0.7414611 5 2.5
v -2.5 -7.11146E-09 2.499999
v -0.7499996 5.937015E-08 2.499999
v -0.6772534 2.747 2.494424
v -0.6477016 5 2.500001
v -0.5988207 2.943294 2.494424
v -0.5539423 5 2.5
v -0.4998401 3.113498 2.494424
v -0.4601829 5.000001 2.5
v -0.359999 3.303135 2.494424
v -0.3664235 5.000001 2.5
v -0.194574 3.472207 2.494424
v -0.17894 5.000001 2.5
v 0.0008043721 3.646803 2.494424
v 0.008543499 5.000001 2.5
v 0.1967816 5.000001 2.5
v 0.1961821 3.472207 2.494424
v 0.3850196 5.000001 2.500001
v 0.3616077 3.303135 2.494424
v 0.4794866 5.000001 2.500001
v 0.5014531 3.113497 2.494424
v 0.5739537 5 2.500001
v 0.6004382 2.943293 2.494424
v 0.6684209 5 2.500001
v 0.6788728 2.747 2.494424
v 0.7628878 5 2.500001
v 0.7509673 2.502739 2.494424
v 2.5 2.504463 2.5
v 2.5 5 2.500001
v 0.7500002 -2.923632E-07 2.499999
v 2.499999 1.253721E-08 2.499999
v -2.5 2.504464 -2.5
v -0.7493586 2.502739 -2.494422
v -0.7414609 5 -2.499998
v -2.499999 5 -2.5
v -2.5 -1.253722E-08 -2.5
v -0.7499995 2.923631E-07 -2.499998
v -0.6772532 2.747 -2.494422
v -0.6477014 5 -2.499998
v -0.5988207 2.943294 -2.494422
v -0.5539421 5 -2.499998
v -0.4998401 3.113498 -2.494422
v -0.4601828 5.000001 -2.499998
v -0.359999 3.303135 -2.494422
v -0.3664234 5.000001 -2.499998
v -0.1945739 3.472207 -2.494422
v -0.1789399 5.000001 -2.499998
v 0.0008044913 3.646803 -2.494422
v 0.008543558 5.000001 -2.499998
v 0.1967816 5.000001 -2.499998
v 0.1961821 3.472207 -2.494422
v 0.3850197 5.000001 -2.499998
v 0.3616078 3.303135 -2.494422
v 0.4794868 5.000001 -2.499998
v 0.5014531 3.113497 -2.494422
v 0.5739538 5 -2.499998
v 0.6004383 2.943293 -2.494422
v 0.668421 5 -2.499998
v 0.6788729 2.747 -2.494422
v 0.762888 5 -2.499998
v 0.7509674 2.502739 -2.494422
v 2.500001 5 -2.5
v 2.5 2.504463 -2.5
v 0.7500004 -5.937003E-08 -2.499998
v 2.5 7.111467E-09 -2.5

vn 0.9999999 -0.0002560671 2.386009E-08
vn 0.9999999 -0.0002560672 2.382509E-08
vn 0.9999999 -0.0002560671 2.386009E-08
vn 1 -0.0002560671 2.389516E-08
vn -0.9999998 0.0003864107 -3.579523E-08
vn -0.9999999 0.0003864345 -2.389516E-08
vn -0.9999998 0.0003864107 -3.579523E-08
vn -0.9999999 0.0003863871 -4.766877E-08
vn 0.9510023 -0.3091837 4.743887E-08
vn 0.9590845 -0.28312 2.345593E-08
vn 0.9590846 -0.2831196 4.141064E-08
vn 0.9410264 -0.338333 4.164978E-08
vn 0.9103474 -0.4138448 2.113768E-08
vn 0.8890342 -0.4578407 0
vn 0.8433001 -0.537443 0
vn 0.8234144 -0.5674405 3.39525E-09
vn 0.776408 -0.6302305 5.851264E-09
vn 0.7463181 -0.6655895 8.700079E-09
vn 0.6978676 -0.7162266 7.322831E-09
vn 0.6817284 -0.7316054 1.01095E-08
vn 0.2854809 -0.9583845 3.158731E-09
vn -0.2854822 -0.958384 -2.694012E-09
vn -0.6817291 -0.7316048 -1.011079E-08
vn -0.6978672 -0.7162274 -1.087866E-08
vn -0.7463144 -0.6655936 -1.468805E-08
vn -0.7764024 -0.6302375 -1.206389E-08
vn -0.8234061 -0.5674526 -6.713876E-09
vn -0.8432912 -0.537457 -6.470586E-09
vn -0.8890269 -0.4578549 -1.446769E-08
vn -0.9103421 -0.4138567 -2.171485E-08
vn -0.9410294 -0.3383249 -2.265405E-08
vn -0.9510101 -0.3091597 -2.291498E-08
vn -0.959096 -0.2830808 -2.318698E-08
vn -0.959096 -0.2830808 -2.291776E-08
vn 0.00165202 -2.578141E-05 0.9999987
vn 0.00318518 -3.821794E-07 0.9999949
vn 0.001588596 -0.001119633 0.9999982
vn 0.0002850506 -0.002244687 0.9999974
vn 0.001593571 0.00111294 0.9999981
vn 2.72392E-07 0.002227436 0.9999975
vn 0.004383993 -0.002431565 0.9999874
vn 0.001903798 -0.002579457 0.9999948
vn 0.00365269 -0.002701974 0.9999897
vn 0.00167887 -0.002824542 0.9999946
vn 0.003189744 -0.002948098 0.9999906
vn 0.001785571 -0.003082317 0.9999937
vn 0.00286923 -0.003191711 0.9999909
vn 0.001296315 -0.003424716 0.9999933
vn 0.002218168 -0.00353886 0.9999913
vn 0.001164781 -0.003804933 0.9999921
vn -1.213975E-09 -0.003875891 0.9999925
vn 0 -0.004121027 0.9999916
vn -0.00115828 -0.00379228 0.9999921
vn -0.002201162 -0.003515863 0.9999914
vn -0.001287616 -0.003411501 0.9999933
vn -0.002839072 -0.0031638 0.999991
vn -0.001768795 -0.003065295 0.9999938
vn -0.003151404 -0.002918263 0.9999908
vn -0.001661523 -0.002809278 0.9999946
vn -0.003598362 -0.002669447 0.9999899
vn -0.001881694 -0.00256302 0.999995
vn -0.004307124 -0.002395227 0.9999879
vn -0.001679127 -0.001167061 0.9999979
vn -0.003275367 -3.740628E-05 0.9999947
vn -0.001596591 3.709771E-06 0.9999987
vn 0 -3.82152E-07 1
vn -0.001594236 0.0011135 0.9999982
vn -1.362392E-07 -3.807898E-07 1
vn 0.002121953 -0.0007460536 -0.9999974
vn 0.00219716 -3.377561E-05 -0.9999976
vn 0.001670633 -0.001172887 -0.9999979
vn 1.084622E-06 -1.910764E-07 -1
vn 0.001594252 0.001113416 -0.9999981
vn 8.170446E-07 0.002228007 -0.9999975
vn 0.004384497 -0.002431296 -0.9999875
vn 0.00190364 -0.002579158 -0.9999948
vn 0.003651424 -0.00270169 -0.9999896
vn 0.001677861 -0.002824282 -0.9999946
vn 0.003189471 -0.002947847 -0.9999906
vn 0.001785418 -0.003082054 -0.9999937
vn 0.002868985 -0.003191439 -0.9999909
vn 0.001296205 -0.003424423 -0.9999933
vn 0.002217136 -0.003538549 -0.9999914
vn 0.00116381 -0.003804492 -0.9999921
vn -1.213975E-09 -0.003875391 -0.9999925
vn 0 -0.004120322 -0.9999916
vn -0.001156881 -0.00379185 -0.9999922
vn -0.002199672 -0.003515517 -0.9999914
vn -0.001286954 -0.003411125 -0.9999934
vn -0.002838709 -0.003163394 -0.999991
vn -0.001767816 -0.003064892 -0.9999937
vn -0.003150229 -0.002917842 -0.9999907
vn -0.00166045 -0.002808828 -0.9999947
vn -0.003597745 -0.002668991 -0.99999
vn -0.00188137 -0.002562582 -0.999995
vn -0.004306384 -0.002394817 -0.9999878
vn -0.0002887299 -0.0022424 -0.9999974
vn -0.002205705 -2.495309E-05 -0.9999976
vn -0.001599916 -0.001113109 -0.9999981
vn -0.002125061 0.0007434218 -0.9999975
vn -0.001594985 0.001113929 -0.9999982
vn -8.174355E-07 2.334534E-13 -1

vt 0.9979069 0.5024993
vt 1 0.00195348
vt 0 0
vt 0.000137182 0.5005503
vt 0 0.5004619
vt 0.9975922 0.5030394
vt 1 0.002583305
vt 0.0001780686 0
vt 0.9994412 0.01902133
vt 0.999413 0.001190901
vt 0 0.003600329
vt 2.82228E-05 0.02143076
vt 0.9994718 0.03841633
vt 5.888939E-05 0.04082581
vt 0.9995106 0.06289245
vt 9.760261E-05 0.06530195
vt 0.9995654 0.09747271
vt 0.0001523197 0.09988214
vt 0.9996301 0.1383793
vt 0.0002170801 0.1407888
vt 0.9997066 0.186693
vt 0.0002934933 0.1891024
vt 0.9997829 0.2350062
vt 0.000369966 0.2374156
vt 0.9998478 0.2759129
vt 0.0004346967 0.2783223
vt 0.9999024 0.3104939
vt 0.0004894137 0.3129035
vt 0.9999411 0.3349711
vt 0.000528127 0.3373806
vt 0.9999718 0.3543666
vt 0.0005588233 0.356776
vt 1 0.3721941
vt 0.0005870461 0.3746036
vt 0.3501186 0.5005485
vt -9.417534E-06 0.5008906
vt -9.417534E-06 0.9999933
vt 0.3516981 0.9999964
vt -9.596348E-06 1.996756E-06
vt 0.3499904 5.125999E-06
vt 0.3645609 0.5493958
vt 0.37045 0.9999965
vt 0.3802459 0.5886547
vt 0.3892018 0.9999968
vt 0.4000322 0.6226975
vt 0.4079537 0.999997
vt 0.4279905 0.6606271
vt 0.4267056 0.9999971
vt 0.4610732 0.6944419
vt 0.4642023 0.9999975
vt 0.5001512 0.7293608
vt 0.501699 0.9999979
vt 0.5393466 0.9999982
vt 0.5392244 0.6944426
vt 0.5769942 0.9999986
vt 0.5723118 0.6606284
vt 0.5958876 0.9999987
vt 0.6002908 0.6226992
vt 0.614781 0.9999988
vt 0.6200976 0.5886567
vt 0.6336744 0.9999989
vt 0.6357862 0.5493981
vt 0.6525679 0.9999992
vt 0.6501837 0.5005513
vt 0.9999905 0.5008993
vt 0.9999905 1.000002
vt 0.6499903 7.808208E-06
vt 0.9999903 1.093745E-05
vt 0.9999984 0.5008973
vt 0.6498703 0.5005513
vt 0.6482908 1.000002
vt 0.9999983 1.000003
vt 0.9999985 5.781651E-06
vt 0.6499985 4.917383E-06
vt 0.6354527 0.5493962
vt 0.6295389 1.000002
vt 0.619766 0.5886554
vt 0.610787 1.000002
vt 0.5999683 0.6226993
vt 0.5920352 1.000002
vt 0.5719984 0.66063
vt 0.5732833 1.000002
vt 0.538913 0.694445
vt 0.5357866 1.000002
vt 0.4998377 0.7293632
vt 0.4982899 1.000002
vt 0.4606423 1.000002
vt 0.4607618 0.6944447
vt 0.4229947 1.000002
vt 0.4276771 0.6606297
vt 0.4041013 1.000002
vt 0.3997096 0.6226987
vt 0.3852079 1.000002
vt 0.3799142 0.5886546
vt 0.3663145 1.000002
vt 0.3642275 0.5493954
vt 0.3474211 1.000002
vt 0.3498051 0.5005506
vt -1.549721E-06 1.000001
vt -1.490116E-06 0.5008946
vt 0.3499986 4.142523E-06
vt -1.370907E-06 3.278255E-06

g Default-Material
usemtl Default-Material
usemap Default-Material
f 2/2/2 1/1/1 3/3/3
f 3/3/3 1/1/1 4/4/4
f 6/6/6 5/5/5 7/7/7
f 7/7/7 5/5/5 8/8/8

g Default_Prototype 1
usemtl Default_Prototype 1
usemap Default_Prototype 1
f 10/10/10 9/9/9 11/11/11
f 11/11/11 9/9/9 12/12/12
f 9/9/9 13/13/13 12/12/12
f 12/12/12 13/13/13 14/14/14
f 13/13/13 15/15/15 14/14/14
f 14/14/14 15/15/15 16/16/16
f 15/15/15 17/17/17 16/16/16
f 16/16/16 17/17/17 18/18/18
f 17/17/17 19/19/19 18/18/18
f 18/18/18 19/19/19 20/20/20
f 19/19/19 21/21/21 20/20/20
f 20/20/20 21/21/21 22/22/22
f 21/21/21 23/23/23 22/22/22
f 22/22/22 23/23/23 24/24/24
f 23/23/23 25/25/25 24/24/24
f 24/24/24 25/25/25 26/26/26
f 25/25/25 27/27/27 26/26/26
f 26/26/26 27/27/27 28/28/28
f 27/27/27 29/29/29 28/28/28
f 28/28/28 29/29/29 30/30/30
f 29/29/29 31/31/31 30/30/30
f 30/30/30 31/31/31 32/32/32
f 31/31/31 33/33/33 32/32/32
f 32/32/32 33/33/33 34/34/34

g Stone Brick Wall
usemtl Stone Brick Wall
usemap Stone Brick Wall
f 36/36/36 35/35/35 37/37/37
f 37/37/37 35/35/35 38/38/38
f 39/39/39 35/35/35 36/36/36
f 40/40/40 35/35/35 39/39/39
f 41/41/41 38/38/38 35/35/35
f 42/42/42 38/38/38 41/41/41
f 41/41/41 43/43/43 42/42/42
f 42/42/42 43/43/43 44/44/44
f 43/43/43 45/45/45 44/44/44
f 44/44/44 45/45/45 46/46/46
f 45/45/45 47/47/47 46/46/46
f 46/46/46 47/47/47 48/48/48
f 49/49/49 48/48/48 47/47/47
f 50/50/50 48/48/48 49/49/49
f 49/49/49 51/51/51 50/50/50
f 50/50/50 51/51/51 52/52/52
f 52/52/52 51/51/51 53/53/53
f 53/53/53 51/51/51 54/54/54
f 53/53/53 54/54/54 55/55/55
f 55/55/55 54/54/54 56/56/56
f 56/56/56 57/57/57 55/55/55
f 58/58/58 57/57/57 56/56/56
f 58/58/58 59/59/59 57/57/57
f 60/60/60 59/59/59 58/58/58
f 60/60/60 61/61/61 59/59/59
f 62/62/62 61/61/61 60/60/60
f 62/62/62 63/63/63 61/61/61
f 64/64/64 63/63/63 62/62/62
f 64/64/64 65/65/65 63/63/63
f 63/63/63 65/65/65 66/66/66
f 64/64/64 67/67/67 65/65/65
f 65/65/65 67/67/67 68/68/68
f 70/70/70 69/69/69 71/71/71
f 71/71/71 69/69/69 72/72/72
f 70/70/70 73/73/73 69/69/69
f 74/74/74 73/73/73 70/70/70
f 71/71/71 75/75/75 70/70/70
f 76/76/76 75/75/75 71/71/71
f 76/76/76 77/77/77 75/75/75
f 78/78/78 77/77/77 76/76/76
f 78/78/78 79/79/79 77/77/77
f 80/80/80 79/79/79 78/78/78
f 80/80/80 81/81/81 79/79/79
f 82/82/82 81/81/81 80/80/80
f 82/82/82 83/83/83 81/81/81
f 84/84/84 83/83/83 82/82/82
f 84/84/84 85/85/85 83/83/83
f 86/86/86 85/85/85 84/84/84
f 87/87/87 85/85/85 86/86/86
f 88/88/88 85/85/85 87/87/87
f 89/89/89 88/88/88 87/87/87
f 90/90/90 88/88/88 89/89/89
f 91/91/91 90/90/90 89/89/89
f 92/92/92 90/90/90 91/91/91
f 93/93/93 92/92/92 91/91/91
f 94/94/94 92/92/92 93/93/93
f 95/95/95 94/94/94 93/93/93
f 96/96/96 94/94/94 95/95/95
f 97/97/97 96/96/96 95/95/95
f 98/98/98 96/96/96 97/97/97
f 99/99/99 98/98/98 97/97/97
f 100/100/100 98/98/98 99/99/99
f 98/98/98 100/100/100 101/101/101
f 101/101/101 100/100/100 102/102/102
