mtllib ./WallDoublePointed_1.mtl
g WallDoublePointed_1
v -1.499164 2.502739 -0.4941967
v -1.500446 3.636808E-07 -0.4999988
v -1.500446 3.06789E-07 0.4999999
v -1.499164 2.502739 0.4942007
v 1.501488 2.502738 -0.4941967
v 1.501488 2.502738 0.4942007
v 1.499554 -5.288762E-07 0.5000001
v 1.499554 -1.668084E-07 -0.4999991
v -1.354953 2.747 -0.4941967
v -1.499164 2.502739 -0.4941967
v -1.499164 2.502739 0.4942007
v -1.354953 2.747 0.4942006
v -1.198088 2.943294 -0.4941969
v -1.198088 2.943294 0.4942006
v -1.000126 3.113498 -0.4941969
v -1.000126 3.113498 0.4942006
v -0.7204438 3.303135 -0.4941969
v -0.7204441 3.303135 0.4942006
v -0.3895939 3.472207 -0.4941969
v -0.389594 3.472207 0.4942006
v 0.001162992 3.646803 -0.4941969
v 0.00116286 3.646803 0.4942005
v 0.3919183 3.472207 -0.4941969
v 0.3919182 3.472207 0.4942006
v 0.7227697 3.303135 -0.4941969
v 0.7227695 3.303135 0.4942006
v 1.00246 3.113497 -0.4941969
v 1.00246 3.113497 0.4942006
v 1.20043 2.943293 -0.4941969
v 1.20043 2.943293 0.4942006
v 1.357299 2.747 -0.4941967
v 1.357299 2.746999 0.4942006
v 1.501488 2.502738 -0.4941967
v 1.501488 2.502738 0.4942007
v -1.499164 2.502739 0.4942007
v -2.5 2.504464 0.5000001
v -2.499999 5 0.5000018
v -1.483368 5 0.5000035
v -2.500001 -4.971907E-07 0.4999982
v -1.500446 3.06789E-07 0.4999999
v -1.354953 2.747 0.4942006
v -1.295849 5 0.5000035
v -1.198088 2.943294 0.4942006
v -1.10833 5 0.5000033
v -1.000126 3.113498 0.4942006
v -0.9208114 5.000001 0.5000033
v -0.7204441 3.303135 0.4942006
v -0.7332926 5.000001 0.5000033
v -0.389594 3.472207 0.4942006
v -0.3583255 5.000001 0.5000033
v 0.00116286 3.646803 0.4942005
v 0.01664142 5.000001 0.5000033
v 0.3931176 5.000001 0.5000033
v 0.3919182 3.472207 0.4942006
v 0.7695936 5.000001 0.5000035
v 0.7227695 3.303135 0.4942006
v 0.9585277 5.000001 0.5000035
v 1.00246 3.113497 0.4942006
v 1.147462 5.000001 0.5000036
v 1.20043 2.943293 0.4942006
v 1.336396 5 0.5000037
v 1.357299 2.746999 0.4942006
v 1.52533 5 0.5000037
v 1.501488 2.502738 0.4942007
v 2.5 2.504462 0.5000002
v 2.500001 4.999999 0.5000018
v 1.499554 -5.288762E-07 0.5000001
v 2.499999 -1.133194E-06 0.4999983
v -2.5 2.504464 -0.4999999
v -1.499164 2.502739 -0.4941967
v -1.483368 5.000001 -0.4999976
v -2.499999 5 -0.4999994
v -2.500001 -3.705411E-07 -0.5000006
v -1.500446 3.636808E-07 -0.4999988
v -1.354953 2.747 -0.4941967
v -1.295849 5.000001 -0.4999977
v -1.198088 2.943294 -0.4941969
v -1.10833 5 -0.4999977
v -1.000126 3.113498 -0.4941969
v -0.9208111 5.000001 -0.4999977
v -0.7204438 3.303135 -0.4941969
v -0.7332922 5.000001 -0.4999978
v -0.3895939 3.472207 -0.4941969
v -0.3583255 5.000001 -0.4999978
v 0.001162992 3.646803 -0.4941969
v 0.01664156 5.000001 -0.4999978
v 0.3931176 5.000001 -0.4999978
v 0.3919183 3.472207 -0.4941969
v 0.769594 5.000001 -0.4999977
v 0.7227697 3.303135 -0.4941969
v 0.958528 5.000001 -0.4999978
v 1.00246 3.113497 -0.4941969
v 1.147462 5.000001 -0.4999978
v 1.20043 2.943293 -0.4941969
v 1.336396 5 -0.4999978
v 1.357299 2.747 -0.4941967
v 1.52533 5 -0.4999978
v 1.501488 2.502738 -0.4941967
v 2.500001 5 -0.4999994
v 2.5 2.504463 -0.4999999
v 1.499554 -1.668084E-07 -0.4999991
v 2.499999 1.855496E-07 -0.5000006

vn 0.9999999 -0.0005123723 -4.678661E-11
vn 0.9999999 -0.0005123724 -9.303045E-11
vn 0.9999999 -0.0005123723 -4.678661E-11
vn 0.9999999 -0.0005123723 0
vn -0.9999997 0.0007730596 9.357319E-11
vn -0.9999997 0.0007730596 0
vn -0.9999997 0.0007730596 9.357319E-11
vn -0.9999997 0.0007730597 1.860608E-10
vn 0.8383558 -0.5451235 -9.103313E-08
vn 0.8611199 -0.508402 0
vn 0.8611197 -0.5084022 -6.131771E-08
vn 0.8118906 -0.5838097 3.186005E-08
vn 0.7398986 -0.6727183 2.321971E-07
vn 0.6965904 -0.7174691 3.338841E-07
vn 0.6172543 -0.7867637 2.409334E-07
vn 0.5872599 -0.8093985 1.451344E-07
vn 0.5244598 -0.8514353 1.266624E-07
vn 0.4890313 -0.8722662 9.62027E-08
vn 0.4379723 -0.8989884 6.892883E-08
vn 0.422324 -0.9064449 5.406421E-08
vn 0.1473137 -0.9890898 1.333313E-08
vn -0.1473144 -0.9890897 -1.4631E-08
vn -0.4223248 -0.9064445 -4.236425E-08
vn -0.4379718 -0.8989887 -5.348785E-08
vn -0.4890271 -0.8722686 -9.017238E-08
vn -0.5244529 -0.8514394 -1.260138E-07
vn -0.5872483 -0.8094069 -1.41534E-07
vn -0.6172406 -0.7867744 -1.493585E-07
vn -0.6965765 -0.7174824 -1.682423E-07
vn -0.739888 -0.6727301 -2.15407E-07
vn -0.8118992 -0.5837976 -2.478389E-07
vn -0.8383783 -0.5450889 -1.803188E-07
vn -0.8611535 -0.5083449 -1.262346E-07
vn -0.8611533 -0.5083454 0
vn 0.002923405 -9.066395E-05 0.9999957
vn 0.005794469 -7.175307E-07 0.9999833
vn 0.002872757 -0.001171642 0.9999952
vn 0.0004260248 -0.002358419 0.9999971
vn 0.002899258 0.001157049 0.9999951
vn -1.730758E-06 0.002317149 0.9999973
vn 0.002281498 -0.002530142 0.9999943
vn 0.0009907251 -0.002683997 0.9999958
vn 0.001900136 -0.0028115 0.9999943
vn 0.0008732324 -0.002939043 0.9999952
vn 0.001659624 -0.003067632 0.9999939
vn 0.0009290752 -0.003207292 0.9999945
vn 0.001492868 -0.003321141 0.9999934
vn 0.0006744419 -0.003563594 0.9999934
vn 0.001154114 -0.003682372 0.9999925
vn 0.0006060617 -0.003959244 0.999992
vn -6.333779E-10 -0.004033084 0.9999918
vn 0 -0.004288181 0.9999908
vn -0.0006025617 -0.003946076 0.999992
vn -0.001145139 -0.003658417 0.9999926
vn -0.0006697663 -0.003549797 0.9999935
vn -0.001477143 -0.003292022 0.9999935
vn -0.0009201216 -0.003189503 0.9999945
vn -0.001639431 -0.003036491 0.9999941
vn -0.0008644081 -0.002923062 0.9999954
vn -0.001872289 -0.002777579 0.9999945
vn -0.0009791837 -0.002666851 0.9999959
vn -0.002240948 -0.002492279 0.9999943
vn -0.002778457 -0.001327655 0.9999952
vn -0.005676017 -0.0001289179 0.9999839
vn -0.002919096 1.434401E-05 0.9999958
vn 1.956915E-06 -6.448822E-07 1
vn -0.002901309 0.001158949 0.9999952
vn 1.846921E-06 -7.615805E-07 0.9999999
vn 0.00384729 -0.0007816703 -0.9999923
vn 0.003870496 -0.0001187382 -0.9999926
vn 0.002734754 -0.001344959 -0.9999954
vn 1.788201E-06 1.910754E-07 -1
vn 0.002902894 0.001158131 -0.9999951
vn 1.817043E-06 0.002318267 -0.9999973
vn 0.002280143 -0.002529315 -0.9999943
vn 0.000989718 -0.00268312 -0.9999958
vn 0.001899061 -0.002810587 -0.9999942
vn 0.0008727345 -0.002938097 -0.9999952
vn 0.00165901 -0.003066651 -0.9999939
vn 0.0009285152 -0.003206278 -0.9999945
vn 0.001492173 -0.003320103 -0.9999933
vn 0.0006740944 -0.003562497 -0.9999934
vn 0.001153706 -0.003681236 -0.9999925
vn 0.0006058205 -0.003958009 -0.999992
vn -5.805965E-10 -0.00403182 -0.9999918
vn 0 -0.004286817 -0.9999908
vn -0.0006021059 -0.003944847 -0.9999921
vn -0.001144502 -0.003657243 -0.9999927
vn -0.0006694227 -0.003548615 -0.9999935
vn -0.001476716 -0.003290901 -0.9999935
vn -0.0009197163 -0.003188447 -0.9999945
vn -0.001638628 -0.003035499 -0.9999941
vn -0.000863702 -0.002922081 -0.9999954
vn -0.0018712 -0.00277663 -0.9999945
vn -0.0009784065 -0.00266594 -0.999996
vn -0.002239835 -0.00249144 -0.9999944
vn -0.0004405166 -0.002352 -0.9999972
vn -0.003906737 -8.793619E-05 -0.9999923
vn -0.002940786 -0.001147745 -0.9999949
vn -0.003871068 0.0007745221 -0.9999922
vn -0.0029048 0.00116007 -0.9999952
vn -1.459664E-06 2.85593E-07 -0.9999999

vt 0.8004472 0.5005487
vt 0.8007264 1.192093E-06
vt 0.6007276 0.0003532916
vt 0.6027687 0.5008967
vt 0.2003389 0.5005484
vt 0.3980168 0.5011512
vt 0.400703 0.0006107241
vt 0.2007047 9.536743E-07
vt 0.0001464 0.950985
vt 0 0.9989967
vt 0.3290637 1
vt 0.3292101 0.9519883
vt 0.0003055995 0.8987604
vt 0.3293693 0.8997638
vt 0.0005065709 0.8328537
vt 0.3295704 0.8338572
vt 0.0007905402 0.7397402
vt 0.3298542 0.7407436
vt 0.001126402 0.6295914
vt 0.33019 0.6305949
vt 0.001523086 0.4994981
vt 0.3305868 0.5005015
vt 0.001919795 0.3694053
vt 0.3309834 0.3704087
vt 0.002255681 0.2592561
vt 0.3313193 0.2602596
vt 0.002539626 0.1661398
vt 0.3316034 0.1671432
vt 0.002740622 0.1002303
vt 0.3318043 0.1012338
vt 0.002899921 0.04800442
vt 0.3319636 0.04900784
vt 0.003046296 0
vt 0.33211 0.001003517
vt 0.19954 0.500548
vt -9.536743E-07 0.5008929
vt -8.34465E-07 0.9999997
vt 0.2026992 0.9999998
vt -1.192093E-06 4.768372E-07
vt 0.1992836 5.960464E-07
vt 0.2283849 0.5493991
vt 0.2402029 0.9999998
vt 0.2597577 0.5886579
vt 0.2777066 0.9999999
vt 0.2993487 0.6226992
vt 0.3152103 1
vt 0.3552838 0.6606273
vt 0.3527141 1
vt 0.4214535 0.6944417
vt 0.4277075 1
vt 0.4996051 0.729361
vt 0.5027009 1
vt 0.5779961 1
vt 0.5777559 0.6944419
vt 0.6532912 1
vt 0.6439264 0.6606276
vt 0.6910781 1
vt 0.6998658 0.6226995
vt 0.7288648 1
vt 0.7394611 0.5886583
vt 0.7666517 1
vt 0.7708352 0.5493996
vt 0.8044385 1
vt 0.7996702 0.5005486
vt 0.9999986 0.5008936
vt 0.9999986 1
vt 0.7992833 1.221895E-06
vt 0.9999983 1.341105E-06
vt 0.9999996 0.500894
vt 0.8004586 0.5005487
vt 0.7972994 1.000001
vt 0.9999994 1.000001
vt 0.9999998 1.430511E-06
vt 0.800715 1.221895E-06
vt 0.7716169 0.5493991
vt 0.7597957 1
vt 0.7402439 0.588658
vt 0.7222919 1
vt 0.7006513 0.6226995
vt 0.6847882 1.000001
vt 0.6447147 0.6606278
vt 0.6472844 1.000001
vt 0.5785447 0.6944423
vt 0.572291 1.000001
vt 0.5003933 0.7293613
vt 0.4972977 1.000001
vt 0.4220025 1
vt 0.4222423 0.6944422
vt 0.3467073 1
vt 0.3560721 0.6606277
vt 0.3089204 1
vt 0.3001342 0.6226993
vt 0.2711337 1
vt 0.2605404 0.5886576
vt 0.2333468 1
vt 0.2291666 0.5493988
vt 0.19556 1
vt 0.2003283 0.5005484
vt -1.788139E-07 1
vt -5.960464E-08 0.5008931
vt 0.2007152 9.536743E-07
vt 1.490116E-07 8.046627E-07

g Default-Material
usemtl Default-Material
usemap Default-Material
f 2/2/2 1/1/1 3/3/3
f 3/3/3 1/1/1 4/4/4
f 6/6/6 5/5/5 7/7/7
f 7/7/7 5/5/5 8/8/8

g Default_Prototype 1
usemtl Default_Prototype 1
usemap Default_Prototype 1
f 10/10/10 9/9/9 11/11/11
f 11/11/11 9/9/9 12/12/12
f 9/9/9 13/13/13 12/12/12
f 12/12/12 13/13/13 14/14/14
f 13/13/13 15/15/15 14/14/14
f 14/14/14 15/15/15 16/16/16
f 15/15/15 17/17/17 16/16/16
f 16/16/16 17/17/17 18/18/18
f 17/17/17 19/19/19 18/18/18
f 18/18/18 19/19/19 20/20/20
f 19/19/19 21/21/21 20/20/20
f 20/20/20 21/21/21 22/22/22
f 21/21/21 23/23/23 22/22/22
f 22/22/22 23/23/23 24/24/24
f 23/23/23 25/25/25 24/24/24
f 24/24/24 25/25/25 26/26/26
f 25/25/25 27/27/27 26/26/26
f 26/26/26 27/27/27 28/28/28
f 27/27/27 29/29/29 28/28/28
f 28/28/28 29/29/29 30/30/30
f 29/29/29 31/31/31 30/30/30
f 30/30/30 31/31/31 32/32/32
f 31/31/31 33/33/33 32/32/32
f 32/32/32 33/33/33 34/34/34

g Stone Brick Wall
usemtl Stone Brick Wall
usemap Stone Brick Wall
f 36/36/36 35/35/35 37/37/37
f 37/37/37 35/35/35 38/38/38
f 39/39/39 35/35/35 36/36/36
f 40/40/40 35/35/35 39/39/39
f 41/41/41 38/38/38 35/35/35
f 42/42/42 38/38/38 41/41/41
f 41/41/41 43/43/43 42/42/42
f 42/42/42 43/43/43 44/44/44
f 43/43/43 45/45/45 44/44/44
f 44/44/44 45/45/45 46/46/46
f 45/45/45 47/47/47 46/46/46
f 46/46/46 47/47/47 48/48/48
f 49/49/49 48/48/48 47/47/47
f 50/50/50 48/48/48 49/49/49
f 49/49/49 51/51/51 50/50/50
f 50/50/50 51/51/51 52/52/52
f 52/52/52 51/51/51 53/53/53
f 53/53/53 51/51/51 54/54/54
f 53/53/53 54/54/54 55/55/55
f 55/55/55 54/54/54 56/56/56
f 56/56/56 57/57/57 55/55/55
f 58/58/58 57/57/57 56/56/56
f 58/58/58 59/59/59 57/57/57
f 60/60/60 59/59/59 58/58/58
f 60/60/60 61/61/61 59/59/59
f 62/62/62 61/61/61 60/60/60
f 62/62/62 63/63/63 61/61/61
f 64/64/64 63/63/63 62/62/62
f 64/64/64 65/65/65 63/63/63
f 63/63/63 65/65/65 66/66/66
f 64/64/64 67/67/67 65/65/65
f 65/65/65 67/67/67 68/68/68
f 70/70/70 69/69/69 71/71/71
f 71/71/71 69/69/69 72/72/72
f 70/70/70 73/73/73 69/69/69
f 74/74/74 73/73/73 70/70/70
f 71/71/71 75/75/75 70/70/70
f 76/76/76 75/75/75 71/71/71
f 76/76/76 77/77/77 75/75/75
f 78/78/78 77/77/77 76/76/76
f 78/78/78 79/79/79 77/77/77
f 80/80/80 79/79/79 78/78/78
f 80/80/80 81/81/81 79/79/79
f 82/82/82 81/81/81 80/80/80
f 82/82/82 83/83/83 81/81/81
f 84/84/84 83/83/83 82/82/82
f 84/84/84 85/85/85 83/83/83
f 86/86/86 85/85/85 84/84/84
f 87/87/87 85/85/85 86/86/86
f 88/88/88 85/85/85 87/87/87
f 89/89/89 88/88/88 87/87/87
f 90/90/90 88/88/88 89/89/89
f 91/91/91 90/90/90 89/89/89
f 92/92/92 90/90/90 91/91/91
f 93/93/93 92/92/92 91/91/91
f 94/94/94 92/92/92 93/93/93
f 95/95/95 94/94/94 93/93/93
f 96/96/96 94/94/94 95/95/95
f 97/97/97 96/96/96 95/95/95
f 98/98/98 96/96/96 97/97/97
f 99/99/99 98/98/98 97/97/97
f 100/100/100 98/98/98 99/99/99
f 98/98/98 100/100/100 101/101/101
f 101/101/101 100/100/100 102/102/102
