mtllib ./WallArch_015.mtl
g WallArch_015
v -0.7493583 2.493334 -0.08096886
v -0.7499999 5.224837E-07 -0.08182526
v -0.75 9.251632E-08 0.08182526
v -0.7493588 2.493333 0.08096886
v 0.7509682 2.493334 -0.08096886
v 0.7509673 2.493333 0.08096886
v 0.7499998 -5.174837E-07 0.08182526
v 0.75 -9.751629E-08 -0.08182526
v -0.6446108 2.70144 -0.08096886
v -0.7493583 2.493334 -0.08096886
v -0.7493588 2.493333 0.08096886
v -0.6446111 2.70144 0.08096886
v -0.5222517 2.848768 -0.08096886
v -0.5222517 2.848768 0.08096886
v -0.3478996 2.975196 0.08096886
v -0.3478996 2.975196 -0.08096886
v -0.1735476 3.054551 0.08096886
v -0.1735476 3.054551 -0.08096886
v 0.0008045321 3.07956 0.08096886
v 0.0008046222 3.07956 -0.08096886
v 0.1751567 3.054551 0.08096886
v 0.1751566 3.054551 -0.08096886
v 0.3495088 2.975196 0.08096886
v 0.3495088 2.975196 -0.08096886
v 0.5238608 2.848768 0.08096886
v 0.5238608 2.848768 -0.08096886
v 0.6462234 2.701439 -0.08096886
v 0.5238608 2.848768 -0.08096886
v 0.5238608 2.848768 0.08096886
v 0.6462231 2.701439 0.08096886
v 0.7509682 2.493334 -0.08096886
v 0.7509673 2.493333 0.08096886
v -0.7493588 2.493333 0.08096886
v -2.5 2.495058 0.07500076
v -2.499999 5 0.07500076
v -0.7414606 4.998005 0.08182716
v -2.500001 -6.179954E-07 0.07500076
v -0.75 9.251632E-08 0.08182526
v -0.6446111 2.70144 0.08096886
v -0.6276816 4.997983 0.08182716
v -0.5222517 2.848768 0.08096886
v -0.5139027 4.998006 0.08182716
v -0.3478996 2.975196 0.08096886
v -0.3397887 4.998006 0.08182716
v -0.1735476 3.054551 0.08096886
v -0.1655109 4.998006 0.08182716
v 0.0008045321 3.07956 0.08096886
v 0.008944501 4.998006 0.08182716
v 0.1835916 4.998006 0.08182716
v 0.1751567 3.054551 0.08096886
v 0.3584443 4.998006 0.08182716
v 0.3495088 2.975196 0.08096886
v 0.5335164 4.998006 0.08182716
v 0.5238608 2.848768 0.08096886
v 0.6482023 4.997983 0.08182716
v 0.6462231 2.701439 0.08096886
v 0.7628883 4.998005 0.08182716
v 0.7509673 2.493333 0.08096886
v 2.5 2.495058 0.07500076
v 2.500001 5 0.07500267
v 0.7499998 -5.174837E-07 0.08182526
v 2.499999 1.930282E-07 0.07500076
v -2.499999 2.495057 -0.07499886
v -0.7493583 2.493334 -0.08096886
v -0.7414604 4.998005 -0.08182526
v -2.499998 5.000002 -0.07499886
v -2.5 1.242484E-06 -0.07499886
v -0.7499999 5.224837E-07 -0.08182526
v -0.6446108 2.70144 -0.08096886
v -0.6276815 4.997983 -0.08182526
v -0.5222517 2.848768 -0.08096886
v -0.5139025 4.998006 -0.08182526
v -0.3478996 2.975196 -0.08096886
v -0.3397886 4.998006 -0.08182526
v -0.1735476 3.054551 -0.08096886
v -0.1655109 4.998006 -0.08182526
v 0.0008046222 3.07956 -0.08096886
v 0.008944581 4.998006 -0.08182526
v 0.1835917 4.998006 -0.08182526
v 0.1751566 3.054551 -0.08096886
v 0.3584443 4.998006 -0.08182526
v 0.3495088 2.975196 -0.08096886
v 0.5335164 4.998006 -0.08182526
v 0.5238608 2.848768 -0.08096886
v 0.6482025 4.997983 -0.08182526
v 0.6462234 2.701439 -0.08096886
v 0.7628884 4.998005 -0.08182526
v 0.7509682 2.493334 -0.08096886
v 2.500001 5 -0.07499886
v 2.5 2.495059 -0.07499886
v 0.75 -9.751629E-08 -0.08182526
v 2.499999 3.745768E-07 -0.07499886

vn 0.9999999 -0.0002572482 1.829656E-06
vn 0.9999999 -0.0002573201 7.275328E-07
vn 0.9999999 -0.0002572482 1.829656E-06
vn 1 -0.0002571755 2.943436E-06
vn -0.9999999 0.0003881791 -3.659591E-06
vn -0.9999999 0.0003880337 -5.886857E-06
vn -0.9999999 0.0003881791 -3.659591E-06
vn -0.9999999 0.0003883231 -1.455636E-06
vn 0.861694 -0.5074284 9.242127E-07
vn 0.8932317 -0.4495968 6.418077E-07
vn 0.8932318 -0.4495966 9.762563E-07
vn 0.8211216 -0.5707532 7.429477E-07
vn 0.6781049 -0.7349652 1.851945E-07
vn 0.6781048 -0.7349652 0
vn 0.5361356 -0.8441319 0
vn 0.478637 -0.8780128 -1.225738E-08
vn 0.3313935 -0.9434926 -1.835845E-08
vn 0.240106 -0.9707466 6.937634E-09
vn 0.04775939 -0.9988589 -8.823594E-10
vn -0.0477594 -0.9988588 1.339841E-08
vn -0.240106 -0.9707466 8.542063E-09
vn -0.3313935 -0.9434927 2.905005E-08
vn -0.478637 -0.8780128 1.930788E-08
vn -0.5361356 -0.8441318 0
vn -0.6781023 -0.7349676 -6.260909E-07
vn -0.6781018 -0.7349679 0
vn -0.8211191 -0.5707568 -1.821252E-06
vn -0.6781018 -0.7349679 0
vn -0.6781023 -0.7349676 -6.260909E-07
vn -0.8616958 -0.5074253 -4.522324E-06
vn -0.8932363 -0.4495874 -5.262352E-06
vn -0.8932372 -0.4495858 -7.908076E-06
vn -0.003586625 -2.376887E-06 0.9999936
vn -0.00340907 1.489561E-09 0.9999942
vn -0.003646158 -0.0001655813 0.9999934
vn -0.003434607 -0.0003334967 0.999994
vn -0.003654245 0.0001721478 0.9999933
vn -0.003899678 0.0003444761 0.9999923
vn 0.0003810681 -0.000365492 0.9999998
vn 0.0001612225 -0.0003829132 0.9999999
vn 0.0002620526 -0.0003929079 0.9999999
vn 0.0001118433 -0.0004088475 0.9999998
vn 0.000163859 -0.0004163058 0.9999999
vn 6.530662E-05 -0.0004302025 0.9999999
vn 8.701957E-05 -0.000436066 0.9999999
vn 2.121056E-05 -0.0004436313 0.9999999
vn -2.159942E-11 -0.000444498 0.9999999
vn 0 -0.0004473969 0.9999999
vn -2.11709E-05 -0.0004434502 0.9999999
vn -8.67766E-05 -0.0004353265 0.9999999
vn -6.503172E-05 -0.0004296481 0.9999999
vn -0.000163017 -0.0004149258 0.9999999
vn -0.0001111377 -0.000407906 0.9999999
vn -0.0002600188 -0.0003907206 0.9999999
vn -0.0001598327 -0.000381581 0.9999999
vn -0.0003768352 -0.0003623936 0.9999998
vn 0.003441112 -0.0001904904 0.999994
vn 0.003292049 -1.889282E-05 0.9999946
vn 0.003662825 -4.787331E-06 0.9999933
vn 0.003928612 -7.629241E-07 0.9999923
vn 0.003655928 0.0001709674 0.9999933
vn 0.003899683 -1.919645E-09 0.9999924
vn -0.003568179 -0.0001103587 -0.9999936
vn -0.003490512 -2.894472E-06 -0.9999939
vn -0.003423138 -0.0001760366 -0.999994
vn -0.003881834 1.847349E-09 -0.9999925
vn -0.003655337 0.0001721483 -0.9999934
vn -0.003900771 0.0003444769 -0.9999924
vn 0.0003802209 -0.0003646798 -0.9999998
vn 0.0001608641 -0.0003820622 -0.9999999
vn 0.0002614703 -0.0003920347 -0.9999999
vn 0.0001115948 -0.0004079389 -0.9999998
vn 0.0001634948 -0.0004153807 -0.9999999
vn 6.516147E-05 -0.0004292465 -0.9999999
vn 8.682616E-05 -0.0004350969 -0.9999999
vn 2.116345E-05 -0.0004426454 -0.9999999
vn 0 -0.0004435101 -0.9999999
vn 0 -0.0004464027 -0.9999999
vn -2.112386E-05 -0.0004424647 -0.9999999
vn -8.658378E-05 -0.0004343591 -0.9999999
vn -6.488722E-05 -0.0004286934 -0.9999999
vn -0.0001626547 -0.0004140037 -0.9999999
vn -0.0001108907 -0.0004069996 -0.9999999
vn -0.0002594405 -0.0003898523 -0.9999999
vn -0.0001594772 -0.0003807332 -0.9999999
vn -0.0003759963 -0.0003615884 -0.9999999
vn 0.003468129 -0.000360097 -0.9999939
vn 0.003500514 -1.247617E-05 -0.9999939
vn 0.003670813 -0.0001796856 -0.9999933
vn 0.003575561 0.0001138244 -0.9999936
vn 0.003657019 0.0001709668 -0.9999933
vn 0.003900773 -1.493057E-09 -0.9999924

vt 0.6499364 0.498667
vt 0.6499355 9.983778E-07
vt 0.6172055 1.221895E-05
vt 0.6175489 0.498678
vt 0.3498165 0.498667
vt 0.382204 0.4986891
vt 0.3827195 2.352893E-05
vt 0.3499894 1.013279E-06
vt 4.717339E-05 0.9301153
vt 0 0.9999267
vt 0.1079271 1
vt 0.1079742 0.9301885
vt 0.0001022918 0.8485663
vt 0.1080294 0.8486394
vt 0.1081079 0.7324385
vt 0.0001809472 0.7323654
vt 0.1081867 0.6162376
vt 0.0002596026 0.6161645
vt 0.1082653 0.5000367
vt 0.000338258 0.4999635
vt 0.1083441 0.3838357
vt 0.0004170128 0.3837626
vt 0.1084227 0.2676348
vt 0.0004957675 0.2675617
vt 0.1085017 0.1514339
vt 0.0005745222 0.1513608
vt 0.0006298393 0.06980967
vt 0.0005745222 0.1513608
vt 0.1085017 0.1514339
vt 0.1085569 0.06988296
vt 0.0006772113 0
vt 0.1086044 7.378912E-05
vt 0.350127 0.497712
vt -1E-06 0.498058
vt -1E-06 0.999046
vt 0.351707 0.998647
vt -1E-06 -0.000954
vt 0.349999 -0.000954
vt 0.371078 0.539334
vt 0.374463 0.998642
vt 0.395549 0.568799
vt 0.397218 0.998647
vt 0.430419 0.594085
vt 0.432041 0.998647
vt 0.465289 0.609956
vt 0.466897 0.998647
vt 0.50016 0.614958
vt 0.501788 0.998647
vt 0.536717 0.998647
vt 0.53503 0.609956
vt 0.571688 0.998647
vt 0.569901 0.594085
vt 0.606702 0.998647
vt 0.604771 0.568799
vt 0.629639 0.998642
vt 0.629245 0.539334
vt 0.652576 0.998647
vt 0.650192 0.497712
vt 0.999999 0.498057
vt 0.999999 0.999045
vt 0.649999 -0.000954
vt 0.999999 -0.000954
vt 1 0.499012
vt 0.649872 0.498667
vt 0.648292 0.999601
vt 1 1.000001
vt 1 1E-06
vt 0.65 1E-06
vt 0.628923 0.540287
vt 0.625536 0.999597
vt 0.60445 0.569754
vt 0.602781 0.999602
vt 0.56958 0.59504
vt 0.567958 0.999602
vt 0.53471 0.610911
vt 0.533102 0.999602
vt 0.499839 0.615912
vt 0.498211 0.999602
vt 0.463282 0.999602
vt 0.464969 0.610911
vt 0.428311 0.999601
vt 0.430098 0.59504
vt 0.393297 0.999601
vt 0.395228 0.569754
vt 0.37036 0.999597
vt 0.370756 0.540287
vt 0.347422 0.999601
vt 0.349806 0.498667
vt 0 1
vt 0 0.499012
vt 0.35 1E-06
vt 0 1E-06

g Default-Material
usemtl Default-Material
usemap Default-Material
f 2/2/2 1/1/1 3/3/3
f 3/3/3 1/1/1 4/4/4
f 6/6/6 5/5/5 7/7/7
f 7/7/7 5/5/5 8/8/8

g Default_Prototype 1
usemtl Default_Prototype 1
usemap Default_Prototype 1
f 10/10/10 9/9/9 11/11/11
f 11/11/11 9/9/9 12/12/12
f 9/9/9 13/13/13 12/12/12
f 12/12/12 13/13/13 14/14/14
f 13/13/13 15/15/15 14/14/14
f 16/16/16 15/15/15 13/13/13
f 16/16/16 17/17/17 15/15/15
f 18/18/18 17/17/17 16/16/16
f 18/18/18 19/19/19 17/17/17
f 20/20/20 19/19/19 18/18/18
f 20/20/20 21/21/21 19/19/19
f 22/22/22 21/21/21 20/20/20
f 22/22/22 23/23/23 21/21/21
f 24/24/24 23/23/23 22/22/22
f 24/24/24 25/25/25 23/23/23
f 26/26/26 25/25/25 24/24/24
f 28/28/28 27/27/27 29/29/29
f 29/29/29 27/27/27 30/30/30
f 27/27/27 31/31/31 30/30/30
f 30/30/30 31/31/31 32/32/32

g Stone Brick Wall
usemtl Stone Brick Wall
usemap Stone Brick Wall
f 34/34/34 33/33/33 35/35/35
f 35/35/35 33/33/33 36/36/36
f 37/37/37 33/33/33 34/34/34
f 38/38/38 33/33/33 37/37/37
f 39/39/39 36/36/36 33/33/33
f 40/40/40 36/36/36 39/39/39
f 39/39/39 41/41/41 40/40/40
f 40/40/40 41/41/41 42/42/42
f 43/43/43 42/42/42 41/41/41
f 44/44/44 42/42/42 43/43/43
f 45/45/45 44/44/44 43/43/43
f 46/46/46 44/44/44 45/45/45
f 47/47/47 46/46/46 45/45/45
f 48/48/48 46/46/46 47/47/47
f 48/48/48 47/47/47 49/49/49
f 49/49/49 47/47/47 50/50/50
f 49/49/49 50/50/50 51/51/51
f 51/51/51 50/50/50 52/52/52
f 51/51/51 52/52/52 53/53/53
f 53/53/53 52/52/52 54/54/54
f 54/54/54 55/55/55 53/53/53
f 56/56/56 55/55/55 54/54/54
f 56/56/56 57/57/57 55/55/55
f 58/58/58 57/57/57 56/56/56
f 58/58/58 59/59/59 57/57/57
f 57/57/57 59/59/59 60/60/60
f 58/58/58 61/61/61 59/59/59
f 59/59/59 61/61/61 62/62/62
f 64/64/64 63/63/63 65/65/65
f 65/65/65 63/63/63 66/66/66
f 63/63/63 64/64/64 67/67/67
f 67/67/67 64/64/64 68/68/68
f 65/65/65 69/69/69 64/64/64
f 70/70/70 69/69/69 65/65/65
f 70/70/70 71/71/71 69/69/69
f 72/72/72 71/71/71 70/70/70
f 72/72/72 73/73/73 71/71/71
f 74/74/74 73/73/73 72/72/72
f 74/74/74 75/75/75 73/73/73
f 76/76/76 75/75/75 74/74/74
f 76/76/76 77/77/77 75/75/75
f 78/78/78 77/77/77 76/76/76
f 79/79/79 77/77/77 78/78/78
f 80/80/80 77/77/77 79/79/79
f 81/81/81 80/80/80 79/79/79
f 82/82/82 80/80/80 81/81/81
f 83/83/83 82/82/82 81/81/81
f 84/84/84 82/82/82 83/83/83
f 85/85/85 84/84/84 83/83/83
f 86/86/86 84/84/84 85/85/85
f 87/87/87 86/86/86 85/85/85
f 88/88/88 86/86/86 87/87/87
f 89/89/89 88/88/88 87/87/87
f 90/90/90 88/88/88 89/89/89
f 90/90/90 91/91/91 88/88/88
f 92/92/92 91/91/91 90/90/90
