mtllib ./WallPointed_05.mtl
g WallPointed_05
v -0.7493587 2.502739 -0.2444228
v -0.7499996 2.625608E-07 -0.2499988
v -0.7499997 2.956783E-08 0.249998
v -0.7493588 2.502739 0.2444234
v 0.7509673 2.502739 -0.2444228
v 0.7509672 2.502739 0.2444234
v 0.7500001 -3.221655E-07 0.2499984
v 0.7500003 -8.917236E-08 -0.249999
v -0.6772533 2.747 -0.2444228
v -0.7493587 2.502739 -0.2444228
v -0.7493588 2.502739 0.2444234
v -0.6772535 2.747 0.2444234
v -0.5988209 2.943294 -0.2444229
v -0.5988209 2.943294 0.2444234
v -0.4998402 3.113498 -0.2444229
v -0.4998402 3.113498 0.2444234
v -0.3599991 3.303135 -0.2444229
v -0.3599992 3.303135 0.2444233
v -0.1945741 3.472207 -0.2444229
v -0.1945741 3.472207 0.2444233
v 0.0008043456 3.646803 -0.244423
v 0.0008042573 3.646803 0.2444233
v 0.196182 3.472207 -0.2444229
v 0.196182 3.472207 0.2444233
v 0.3616077 3.303135 -0.2444229
v 0.3616076 3.303135 0.2444233
v 0.501453 3.113497 -0.2444229
v 0.501453 3.113497 0.2444234
v 0.6004382 2.943293 -0.2444229
v 0.6004381 2.943293 0.2444234
v 0.6788728 2.747 -0.2444228
v 0.6788726 2.747 0.2444234
v 0.7509673 2.502739 -0.2444228
v 0.7509672 2.502739 0.2444234
v -0.7493588 2.502739 0.2444234
v -2.5 2.504464 0.2500001
v -2.499999 5 0.250001
v -0.7414612 5 0.2500002
v -2.5 -2.753324E-07 0.2499989
v -0.7499997 2.956783E-08 0.249998
v -0.6772535 2.747 0.2444234
v -0.6477017 5 0.2500002
v -0.5988209 2.943294 0.2444234
v -0.5539424 5 0.2500002
v -0.4998402 3.113498 0.2444234
v -0.460183 5.000001 0.2500002
v -0.3599992 3.303135 0.2444233
v -0.3664236 5.000001 0.2500001
v -0.1945741 3.472207 0.2444233
v -0.1789401 5.000001 0.2500001
v 0.0008042573 3.646803 0.2444233
v 0.008543357 5.000001 0.2500001
v 0.1967814 5.000001 0.2500002
v 0.196182 3.472207 0.2444233
v 0.3850195 5.000001 0.2500003
v 0.3616076 3.303135 0.2444233
v 0.4794866 5.000001 0.2500003
v 0.501453 3.113497 0.2444234
v 0.5739536 5 0.2500004
v 0.6004381 2.943293 0.2444234
v 0.6684207 5 0.2500005
v 0.6788726 2.747 0.2444234
v 0.7628877 5 0.2500005
v 0.7509672 2.502739 0.2444234
v 2.5 2.504463 0.2500001
v 2.500001 5 0.250001
v 0.7500001 -3.221655E-07 0.2499984
v 2.5 -1.726511E-08 0.249999
v -2.499999 2.504465 -0.2499999
v -0.7493587 2.502739 -0.2444228
v -0.741461 5 -0.249999
v -2.499998 5.000001 -0.2500001
v -2.5 6.729162E-07 -0.25
v -0.7499996 2.625608E-07 -0.2499988
v -0.6772533 2.747 -0.2444228
v -0.6477016 5 -0.249999
v -0.5988209 2.943294 -0.2444229
v -0.5539423 5 -0.249999
v -0.4998402 3.113498 -0.2444229
v -0.4601829 5.000001 -0.249999
v -0.3599991 3.303135 -0.2444229
v -0.3664235 5.000001 -0.2499991
v -0.1945741 3.472207 -0.2444229
v -0.17894 5.000001 -0.2499991
v 0.0008043456 3.646803 -0.244423
v 0.008543446 5.000001 -0.2499991
v 0.1967815 5.000001 -0.2499991
v 0.196182 3.472207 -0.2444229
v 0.3850196 5.000001 -0.249999
v 0.3616077 3.303135 -0.2444229
v 0.4794866 5.000001 -0.2499991
v 0.501453 3.113497 -0.2444229
v 0.5739537 5 -0.2499991
v 0.6004382 2.943293 -0.2444229
v 0.6684209 5 -0.249999
v 0.6788728 2.747 -0.2444228
v 0.7628879 5 -0.2499991
v 0.7509673 2.502739 -0.2444228
v 2.500001 5 -0.2500001
v 2.5 2.504463 -0.2499999
v 0.7500003 -8.917236E-08 -0.249999
v 2.5 -2.269086E-08 -0.2499999

vn 1 -0.0002560671 2.410237E-07
vn 0.9999999 -0.0002560677 2.382522E-07
vn 1 -0.0002560671 2.410237E-07
vn 1 -0.0002560666 2.438585E-07
vn -0.9999999 0.0003864108 -3.61587E-07
vn -0.9999999 0.000386434 -2.438584E-07
vn -0.9999999 0.0003864108 -3.61587E-07
vn -0.9999999 0.000386388 -4.766899E-07
vn 0.9510023 -0.3091837 4.841301E-07
vn 0.9590845 -0.28312 2.39376E-07
vn 0.9590846 -0.2831197 4.2261E-07
vn 0.9410264 -0.3383329 4.250504E-07
vn 0.9103475 -0.4138449 2.157174E-07
vn 0.8890343 -0.4578407 0
vn 0.8433002 -0.537443 0
vn 0.8234144 -0.5674406 3.464971E-08
vn 0.776408 -0.6302305 5.971419E-08
vn 0.7463181 -0.6655894 8.878732E-08
vn 0.6978676 -0.7162266 8.510408E-08
vn 0.6817284 -0.7316054 9.864672E-08
vn 0.2854808 -0.9583845 3.907255E-08
vn -0.2854822 -0.958384 -3.311708E-08
vn -0.681729 -0.7316047 -9.316E-08
vn -0.6978671 -0.7162273 -8.296264E-08
vn -0.7463144 -0.6655936 -8.841828E-08
vn -0.7764024 -0.6302376 -6.15581E-08
vn -0.823406 -0.5674525 -3.425871E-08
vn -0.8432912 -0.537457 -6.603458E-08
vn -0.8890269 -0.4578549 -1.476478E-07
vn -0.910342 -0.4138567 -2.216076E-07
vn -0.9410294 -0.3383249 -2.311924E-07
vn -0.9510102 -0.3091597 -2.338554E-07
vn -0.9590961 -0.2830808 -2.366313E-07
vn -0.9590961 -0.2830808 -2.338837E-07
vn 0.001652294 -2.5825E-05 0.9999987
vn 0.003185494 -4.180353E-07 0.9999949
vn 0.001588855 -0.001119648 0.9999982
vn 0.0002853441 -0.00224474 0.9999974
vn 0.001593852 0.001112868 0.9999981
vn 5.190547E-07 0.002227388 0.9999975
vn 0.004385016 -0.002431589 0.9999874
vn 0.00190397 -0.002579481 0.9999948
vn 0.003652206 -0.002702026 0.9999897
vn 0.001678276 -0.002824626 0.9999946
vn 0.003189942 -0.002948203 0.9999906
vn 0.001785897 -0.003082421 0.9999937
vn 0.002869621 -0.003191812 0.9999909
vn 0.001296562 -0.003424823 0.9999933
vn 0.002218351 -0.003538978 0.9999914
vn 0.001164876 -0.003805073 0.9999921
vn -8.365873E-08 -0.003876047 0.9999925
vn -1.584475E-07 -0.004121191 0.9999916
vn -0.001158266 -0.003792445 0.9999921
vn -0.002201134 -0.003515993 0.9999914
vn -0.001287461 -0.003411602 0.9999933
vn -0.002839269 -0.003163853 0.999991
vn -0.00176835 -0.003065335 0.9999937
vn -0.003150959 -0.002918269 0.9999908
vn -0.001661331 -0.002809254 0.9999947
vn -0.003598874 -0.002669415 0.9999899
vn -0.001882455 -0.002563006 0.999995
vn -0.004307606 -0.002395225 0.9999879
vn -0.001679448 -0.001167052 0.9999979
vn -0.0032757 -3.739657E-05 0.9999947
vn -0.00159687 3.696757E-06 0.9999988
vn -2.91656E-07 -3.582675E-07 1
vn -0.001594483 0.001113465 0.9999982
vn -2.980232E-07 -4.759872E-07 1
vn 0.002121628 -0.0007460054 -0.9999975
vn 0.002196952 -3.37951E-05 -0.9999975
vn 0.001670277 -0.00117283 -0.9999979
vn 6.016264E-07 -4.776918E-08 -1
vn 0.001594066 0.001113398 -0.9999982
vn 6.902316E-07 0.002227947 -0.9999975
vn 0.00438428 -0.002431311 -0.9999875
vn 0.001903534 -0.002579165 -0.9999948
vn 0.003651314 -0.002701693 -0.9999896
vn 0.001677861 -0.002824282 -0.9999946
vn 0.003189382 -0.002947845 -0.9999906
vn 0.001785152 -0.003082057 -0.9999937
vn 0.002868694 -0.00319145 -0.9999909
vn 0.001296002 -0.003424435 -0.9999933
vn 0.002217874 -0.003538563 -0.9999913
vn 0.001164627 -0.003804601 -0.9999921
vn -1.161194E-09 -0.00387555 -0.9999925
vn 0 -0.004120653 -0.9999916
vn -0.001157585 -0.003791949 -0.9999921
vn -0.002200288 -0.003515512 -0.9999914
vn -0.001286892 -0.003411114 -0.9999933
vn -0.00283871 -0.003163393 -0.999991
vn -0.001767913 -0.003064908 -0.9999937
vn -0.003150176 -0.002917873 -0.9999907
vn -0.001660255 -0.002808855 -0.9999947
vn -0.003597438 -0.002669012 -0.99999
vn -0.001881284 -0.002562598 -0.999995
vn -0.004306432 -0.002394842 -0.9999878
vn -0.000288269 -0.002242449 -0.9999974
vn -0.002205368 -2.491903E-05 -0.9999976
vn -0.001599532 -0.001113062 -0.9999981
vn -0.002124808 0.0007434735 -0.9999975
vn -0.00159473 0.001113935 -0.9999982
vn -5.534719E-07 1.580674E-13 -1

vt 0.6498656 0.5005513
vt 0.6500032 4.887581E-06
vt 0.5500045 0.0002001524
vt 0.5520971 0.5007423
vt 0.3498128 0.5005506
vt 0.4475813 0.5008032
vt 0.4499896 0.0002625287
vt 0.3499909 4.202127E-06
vt 7.769067E-05 0.9511394
vt 0 0.9991589
vt 0.2038701 1
vt 0.2039478 0.9519805
vt 0.0001621367 0.8989063
vt 0.2040323 0.8997469
vt 0.0002687801 0.8329889
vt 0.2041389 0.8338295
vt 0.0004194199 0.7398599
vt 0.2042896 0.7407008
vt 0.0005975847 0.6296932
vt 0.2044678 0.6305342
vt 0.0008080687 0.4995784
vt 0.2046783 0.5004194
vt 0.001018493 0.3694647
vt 0.2048887 0.3703057
vt 0.001196792 0.2592978
vt 0.2050669 0.2601387
vt 0.001347425 0.1661662
vt 0.2052176 0.1670072
vt 0.001454076 0.1002462
vt 0.2053242 0.1010871
vt 0.001538589 0.04801201
vt 0.2054087 0.04885307
vt 0.001616273 0
vt 0.2054864 0.0008411543
vt 0.3501186 0.5005485
vt -9.417534E-06 0.5008906
vt -9.417534E-06 0.9999933
vt 0.3516981 0.9999964
vt -9.596348E-06 1.996756E-06
vt 0.3499904 5.125999E-06
vt 0.3645609 0.5493958
vt 0.37045 0.9999965
vt 0.3802459 0.5886547
vt 0.3892018 0.9999968
vt 0.4000322 0.6226975
vt 0.4079537 0.999997
vt 0.4279905 0.6606271
vt 0.4267056 0.9999971
vt 0.4610732 0.6944419
vt 0.4642023 0.9999975
vt 0.5001512 0.7293608
vt 0.501699 0.9999979
vt 0.5393466 0.9999982
vt 0.5392244 0.6944426
vt 0.5769942 0.9999986
vt 0.5723118 0.6606284
vt 0.5958876 0.9999987
vt 0.6002908 0.6226992
vt 0.614781 0.9999988
vt 0.6200976 0.5886567
vt 0.6336744 0.9999989
vt 0.6357862 0.5493981
vt 0.6525679 0.9999992
vt 0.6501837 0.5005513
vt 0.9999905 0.5008993
vt 0.9999905 1.000002
vt 0.6499903 7.808208E-06
vt 0.9999903 1.093745E-05
vt 0.9999984 0.5008973
vt 0.6498703 0.5005513
vt 0.6482908 1.000002
vt 0.9999983 1.000003
vt 0.9999985 5.781651E-06
vt 0.6499985 4.917383E-06
vt 0.6354527 0.5493962
vt 0.6295389 1.000002
vt 0.619766 0.5886554
vt 0.610787 1.000002
vt 0.5999683 0.6226993
vt 0.5920352 1.000002
vt 0.5719984 0.66063
vt 0.5732833 1.000002
vt 0.538913 0.694445
vt 0.5357866 1.000002
vt 0.4998377 0.7293632
vt 0.4982899 1.000002
vt 0.4606423 1.000002
vt 0.4607618 0.6944447
vt 0.4229947 1.000002
vt 0.4276771 0.6606297
vt 0.4041013 1.000002
vt 0.3997096 0.6226987
vt 0.3852079 1.000002
vt 0.3799142 0.5886546
vt 0.3663145 1.000002
vt 0.3642275 0.5493954
vt 0.3474211 1.000002
vt 0.3498051 0.5005506
vt -1.549721E-06 1.000001
vt -1.490116E-06 0.5008946
vt 0.3499986 4.142523E-06
vt -1.370907E-06 3.278255E-06

g Default-Material
usemtl Default-Material
usemap Default-Material
f 2/2/2 1/1/1 3/3/3
f 3/3/3 1/1/1 4/4/4
f 6/6/6 5/5/5 7/7/7
f 7/7/7 5/5/5 8/8/8

g Default_Prototype 1
usemtl Default_Prototype 1
usemap Default_Prototype 1
f 10/10/10 9/9/9 11/11/11
f 11/11/11 9/9/9 12/12/12
f 9/9/9 13/13/13 12/12/12
f 12/12/12 13/13/13 14/14/14
f 13/13/13 15/15/15 14/14/14
f 14/14/14 15/15/15 16/16/16
f 15/15/15 17/17/17 16/16/16
f 16/16/16 17/17/17 18/18/18
f 17/17/17 19/19/19 18/18/18
f 18/18/18 19/19/19 20/20/20
f 19/19/19 21/21/21 20/20/20
f 20/20/20 21/21/21 22/22/22
f 21/21/21 23/23/23 22/22/22
f 22/22/22 23/23/23 24/24/24
f 23/23/23 25/25/25 24/24/24
f 24/24/24 25/25/25 26/26/26
f 25/25/25 27/27/27 26/26/26
f 26/26/26 27/27/27 28/28/28
f 27/27/27 29/29/29 28/28/28
f 28/28/28 29/29/29 30/30/30
f 29/29/29 31/31/31 30/30/30
f 30/30/30 31/31/31 32/32/32
f 31/31/31 33/33/33 32/32/32
f 32/32/32 33/33/33 34/34/34

g Stone Brick Wall
usemtl Stone Brick Wall
usemap Stone Brick Wall
f 36/36/36 35/35/35 37/37/37
f 37/37/37 35/35/35 38/38/38
f 39/39/39 35/35/35 36/36/36
f 40/40/40 35/35/35 39/39/39
f 41/41/41 38/38/38 35/35/35
f 42/42/42 38/38/38 41/41/41
f 41/41/41 43/43/43 42/42/42
f 42/42/42 43/43/43 44/44/44
f 43/43/43 45/45/45 44/44/44
f 44/44/44 45/45/45 46/46/46
f 45/45/45 47/47/47 46/46/46
f 46/46/46 47/47/47 48/48/48
f 49/49/49 48/48/48 47/47/47
f 50/50/50 48/48/48 49/49/49
f 49/49/49 51/51/51 50/50/50
f 50/50/50 51/51/51 52/52/52
f 52/52/52 51/51/51 53/53/53
f 53/53/53 51/51/51 54/54/54
f 53/53/53 54/54/54 55/55/55
f 55/55/55 54/54/54 56/56/56
f 56/56/56 57/57/57 55/55/55
f 58/58/58 57/57/57 56/56/56
f 58/58/58 59/59/59 57/57/57
f 60/60/60 59/59/59 58/58/58
f 60/60/60 61/61/61 59/59/59
f 62/62/62 61/61/61 60/60/60
f 62/62/62 63/63/63 61/61/61
f 64/64/64 63/63/63 62/62/62
f 64/64/64 65/65/65 63/63/63
f 63/63/63 65/65/65 66/66/66
f 64/64/64 67/67/67 65/65/65
f 65/65/65 67/67/67 68/68/68
f 70/70/70 69/69/69 71/71/71
f 71/71/71 69/69/69 72/72/72
f 70/70/70 73/73/73 69/69/69
f 74/74/74 73/73/73 70/70/70
f 71/71/71 75/75/75 70/70/70
f 76/76/76 75/75/75 71/71/71
f 76/76/76 77/77/77 75/75/75
f 78/78/78 77/77/77 76/76/76
f 78/78/78 79/79/79 77/77/77
f 80/80/80 79/79/79 78/78/78
f 80/80/80 81/81/81 79/79/79
f 82/82/82 81/81/81 80/80/80
f 82/82/82 83/83/83 81/81/81
f 84/84/84 83/83/83 82/82/82
f 84/84/84 85/85/85 83/83/83
f 86/86/86 85/85/85 84/84/84
f 87/87/87 85/85/85 86/86/86
f 88/88/88 85/85/85 87/87/87
f 89/89/89 88/88/88 87/87/87
f 90/90/90 88/88/88 89/89/89
f 91/91/91 90/90/90 89/89/89
f 92/92/92 90/90/90 91/91/91
f 93/93/93 92/92/92 91/91/91
f 94/94/94 92/92/92 93/93/93
f 95/95/95 94/94/94 93/93/93
f 96/96/96 94/94/94 95/95/95
f 97/97/97 96/96/96 95/95/95
f 98/98/98 96/96/96 97/97/97
f 99/99/99 98/98/98 97/97/97
f 100/100/100 98/98/98 99/99/99
f 98/98/98 100/100/100 101/101/101
f 101/101/101 100/100/100 102/102/102
