mtllib ./WallDoubleSquare_015.mtl
g WallDoubleSquare_015
v -1.50003 2.500319 -0.07499865
v -1.501312 4.397904E-07 -0.074999
v -1.501312 7.772285E-08 0.07499972
v -1.50003 2.500319 0.07500136
v 1.500622 2.500319 -0.074999
v 1.500622 2.500319 0.07500154
v 1.498687 -4.527665E-07 0.0749999
v 1.498687 -9.069879E-08 -0.07499942
v 0.0002958295 2.500319 -0.07499883
v -1.50003 2.500319 -0.07499865
v -1.50003 2.500319 0.07500136
v 0.0002957415 2.500319 0.07500148
v 1.500622 2.500319 -0.074999
v 1.500622 2.500319 0.07500154
v -1.50003 2.500319 0.07500136
v -2.5 2.502044 0.07500087
v -2.499999 5 0.0750023
v -1.484235 5 0.07500291
v -2.500001 -2.709954E-07 0.07499923
v -1.501312 7.772285E-08 0.07499972
v 0.0002957415 2.500319 0.07500148
v 0.02011415 5 0.07500297
v 1.500622 2.500319 0.07500154
v 1.524463 5 0.07500309
v 2.5 2.502043 0.07500164
v 2.500001 4.999999 0.07500307
v 1.498687 -4.527665E-07 0.0749999
v 2.499999 -9.467212E-07 0.07499997
v -2.5 2.502045 -0.07499918
v -1.50003 2.500319 -0.07499865
v -1.484235 5.000001 -0.07499823
v -2.499999 5.000001 -0.07499883
v -2.500001 9.596968E-07 -0.07499966
v -1.501312 4.397904E-07 -0.074999
v 0.0002958295 2.500319 -0.07499883
v 0.02011423 5 -0.07499835
v 1.500622 2.500319 -0.074999
v 1.524463 5 -0.07499853
v 2.500001 4.999999 -0.0749981
v 2.5 2.502043 -0.07499845
v 1.498687 -9.069879E-08 -0.07499942
v 2.499999 -6.69703E-07 -0.07499887

vn 0.9999999 -0.0005126775 -1.338649E-09
vn 0.9999998 -0.0005126776 -1.862423E-09
vn 0.9999999 -0.0005126775 -1.338649E-09
vn 0.9999999 -0.0005126775 -8.148789E-10
vn -0.9999997 0.0007736171 1.856421E-09
vn -0.9999997 0.000773617 1.229627E-09
vn -0.9999997 0.0007736171 1.856421E-09
vn -0.9999996 0.0007736172 2.483221E-09
vn -1.589113E-07 -1 -1.589455E-06
vn -1.589113E-07 -0.9999999 -1.589457E-06
vn -1.589112E-07 -1 -1.589456E-06
vn -1.589112E-07 -0.9999999 -1.589453E-06
vn -1.589112E-07 -0.9999999 -1.589453E-06
vn -1.589111E-07 -1 -1.589451E-06
vn -4.002991E-07 -6.233427E-07 1
vn -4.92812E-07 -6.139276E-07 1
vn -5.475481E-07 -5.945975E-07 1
vn -1.964367E-07 -6.097801E-07 1
vn -4.926337E-07 -6.55215E-07 1
vn -4.923838E-07 -6.55315E-07 1
vn -5.292317E-08 -6.036866E-07 0.9999999
vn -5.287595E-08 -6.036161E-07 1
vn -7.699508E-08 -6.193953E-07 1
vn -5.966757E-08 -6.061032E-07 1
vn -6.6932E-08 -6.289164E-07 1
vn 1.527463E-08 -5.726727E-07 1
vn -8.880649E-08 -6.612647E-07 0.9999999
vn -7.440853E-08 -6.670268E-07 0.9999999
vn 5.536027E-07 1.656512E-07 -1
vn 3.446567E-07 1.662992E-07 -1
vn 1.662129E-07 1.689961E-07 -1
vn 5.867959E-07 1.431679E-07 -1
vn 5.965906E-07 1.666612E-07 -1
vn 6.565121E-07 1.426963E-07 -1
vn -1.058461E-07 1.835933E-07 -0.9999999
vn -1.057517E-07 1.916614E-07 -1
vn 1.967736E-07 1.785769E-07 -1
vn 1.021498E-07 1.897849E-07 -1
vn 4.978405E-07 1.645968E-07 -1
vn 5.511524E-07 1.588018E-07 -1
vn 5.510094E-07 1.666011E-07 -1
vn 5.506209E-07 1.667566E-07 -1

vt 0.800275 0.5000058
vt 0.8005193 0.0001267642
vt 0.7705307 0.0001120418
vt 0.7702861 0.4999912
vt 0.2001388 0.5000058
vt 0.2301279 0.5000288
vt 0.2305134 0.0001490116
vt 0.2005246 0.0001259297
vt 0.05023263 0.5000123
vt 0.05047714 2.444101E-05
vt 0.0004892175 0
vt 0.0002446088 0.4999879
vt 0.04998812 1
vt 0 0.9999757
vt 0.199732 0.4999016
vt 1.341105E-06 0.5002465
vt 1.2815E-06 0.999653
vt 0.202891 0.999653
vt 1.370907E-06 2.253969E-05
vt 0.1994759 2.250989E-05
vt 0.4997967 0.4999014
vt 0.5037601 0.9996534
vt 0.7998613 0.4999013
vt 0.8046293 0.9996534
vt 0.9999998 0.5002463
vt 0.9999993 0.9996536
vt 0.7994751 1.985845E-05
vt 1.000001 2.015638E-05
vt 0.9999995 0.5003512
vt 0.8002685 0.5000058
vt 0.7971094 0.9997578
vt 0.9999992 0.9997581
vt 1 0.0001272192
vt 0.8005258 0.0001267723
vt 0.5002036 0.5000058
vt 0.4962401 0.9997578
vt 0.2001387 0.5000058
vt 0.1953708 0.999758
vt 9.536743E-07 0.999758
vt 5.066395E-07 0.5003508
vt 0.2005247 0.0001259679
vt -1.192093E-07 0.0001262062

g Default-Material
usemtl Default-Material
usemap Default-Material
f 2/2/2 1/1/1 3/3/3
f 3/3/3 1/1/1 4/4/4
f 6/6/6 5/5/5 7/7/7
f 7/7/7 5/5/5 8/8/8

g Default_Prototype 1
usemtl Default_Prototype 1
usemap Default_Prototype 1
f 10/10/10 9/9/9 11/11/11
f 11/11/11 9/9/9 12/12/12
f 9/9/9 13/13/13 12/12/12
f 12/12/12 13/13/13 14/14/14

g Stone Brick Wall
usemtl Stone Brick Wall
usemap Stone Brick Wall
f 16/16/16 15/15/15 17/17/17
f 17/17/17 15/15/15 18/18/18
f 19/19/19 15/15/15 16/16/16
f 20/20/20 15/15/15 19/19/19
f 21/21/21 18/18/18 15/15/15
f 22/22/22 18/18/18 21/21/21
f 21/21/21 23/23/23 22/22/22
f 22/22/22 23/23/23 24/24/24
f 23/23/23 25/25/25 24/24/24
f 24/24/24 25/25/25 26/26/26
f 23/23/23 27/27/27 25/25/25
f 25/25/25 27/27/27 28/28/28
f 30/30/30 29/29/29 31/31/31
f 31/31/31 29/29/29 32/32/32
f 30/30/30 33/33/33 29/29/29
f 34/34/34 33/33/33 30/30/30
f 31/31/31 35/35/35 30/30/30
f 36/36/36 35/35/35 31/31/31
f 36/36/36 37/37/37 35/35/35
f 38/38/38 37/37/37 36/36/36
f 39/39/39 37/37/37 38/38/38
f 40/40/40 37/37/37 39/39/39
f 37/37/37 40/40/40 41/41/41
f 41/41/41 40/40/40 42/42/42
