mtllib ./WallDoublePointed_5.mtl
g WallDoublePointed_5
v -1.49894 2.50274 -2.494196
v -1.500222 7.809133E-07 -2.499998
v -1.500222 7.240215E-07 2.5
v -1.49894 2.50274 2.494201
v 1.501712 2.502739 -2.494196
v 1.501712 2.502739 2.494201
v 1.499777 -1.116437E-07 2.5
v 1.499777 2.504241E-07 -2.499999
v -1.354729 2.747001 -2.494196
v -1.49894 2.50274 -2.494196
v -1.49894 2.50274 2.494201
v -1.354729 2.747001 2.494201
v -1.197864 2.943294 -2.494196
v -1.197864 2.943295 2.494201
v -0.9999024 3.113498 -2.494196
v -0.9999026 3.113498 2.494201
v -0.7202202 3.303136 -2.494196
v -0.7202204 3.303136 2.494201
v -0.3893702 3.472208 -2.494196
v -0.3893703 3.472208 2.494201
v 0.001386658 3.646804 -2.494196
v 0.001386526 3.646804 2.494201
v 0.3921419 3.472207 -2.494196
v 0.3921419 3.472207 2.494201
v 0.7229934 3.303136 -2.494196
v 0.7229931 3.303136 2.494201
v 1.002684 3.113498 -2.494196
v 1.002684 3.113498 2.494201
v 1.200654 2.943294 -2.494196
v 1.200654 2.943294 2.494201
v 1.357523 2.747 -2.494196
v 1.357523 2.747 2.494201
v 1.501712 2.502739 -2.494196
v 1.501712 2.502739 2.494201
v -1.49894 2.50274 2.494201
v -2.5 2.504464 2.5
v -2.499999 5 2.500002
v -1.483144 5 2.500004
v -2.500001 -5.567954E-07 2.499998
v -1.500222 7.240215E-07 2.5
v -1.354729 2.747001 2.494201
v -1.295625 5 2.500004
v -1.197864 2.943295 2.494201
v -1.108106 5.000001 2.500004
v -0.9999026 3.113498 2.494201
v -0.9205878 5.000001 2.500004
v -0.7202204 3.303136 2.494201
v -0.7330689 5.000001 2.500004
v -0.3893703 3.472208 2.494201
v -0.3581018 5.000001 2.500004
v 0.001386526 3.646804 2.494201
v 0.01686509 5.000001 2.500004
v 0.3933412 5.000001 2.500004
v 0.3921419 3.472207 2.494201
v 0.7698172 5.000001 2.500004
v 0.7229931 3.303136 2.494201
v 0.9587513 5.000001 2.500004
v 1.002684 3.113498 2.494201
v 1.147685 5.000001 2.500004
v 1.200654 2.943294 2.494201
v 1.33662 5 2.500004
v 1.357523 2.747 2.494201
v 1.525554 5 2.500004
v 1.501712 2.502739 2.494201
v 2.5 2.504462 2.5
v 2.500001 4.999999 2.500002
v 1.499777 -1.116437E-07 2.5
v 2.499999 -7.159611E-07 2.499998
v -2.5 2.504464 -2.499999
v -1.49894 2.50274 -2.494196
v -1.483144 5.000001 -2.499997
v -2.499999 5 -2.499999
v -2.500001 -1.917272E-07 -2.500001
v -1.500222 7.809133E-07 -2.499998
v -1.354729 2.747001 -2.494196
v -1.295625 5.000001 -2.499997
v -1.197864 2.943294 -2.494196
v -1.108106 5 -2.499997
v -0.9999024 3.113498 -2.494196
v -0.9205874 5.000001 -2.499997
v -0.7202202 3.303136 -2.494196
v -0.7330686 5.000001 -2.499997
v -0.3893702 3.472208 -2.494196
v -0.3581018 5.000001 -2.499997
v 0.001386658 3.646804 -2.494196
v 0.01686522 5.000001 -2.499997
v 0.3933413 5.000001 -2.499997
v 0.3921419 3.472207 -2.494196
v 0.7698176 5.000001 -2.499997
v 0.7229934 3.303136 -2.494196
v 0.9587517 5.000001 -2.499997
v 1.002684 3.113498 -2.494196
v 1.147686 5.000001 -2.499997
v 1.200654 2.943294 -2.494196
v 1.33662 5 -2.499997
v 1.357523 2.747 -2.494196
v 1.525554 5 -2.499997
v 1.501712 2.502739 -2.494196
v 2.500001 5 -2.499999
v 2.5 2.504464 -2.499999
v 1.499777 2.504241E-07 -2.499999
v 2.499999 6.027822E-07 -2.5

vn 0.9999998 -0.0005123722 0
vn 0.9999998 -0.0005123722 0
vn 0.9999998 -0.0005123722 0
vn 0.9999998 -0.0005123722 0
vn -0.9999996 0.0007730596 1.862768E-11
vn -0.9999997 0.0007730596 0
vn -0.9999996 0.0007730596 1.862768E-11
vn -0.9999996 0.0007730596 3.721213E-11
vn 0.8383558 -0.5451235 -1.803724E-08
vn 0.8611198 -0.5084019 0
vn 0.8611197 -0.5084022 -1.214945E-08
vn 0.8118905 -0.5838096 6.312727E-09
vn 0.7398986 -0.6727184 4.600736E-08
vn 0.6965903 -0.7174691 6.615554E-08
vn 0.6172543 -0.7867637 4.773836E-08
vn 0.5872598 -0.8093984 2.875682E-08
vn 0.5244597 -0.8514352 2.581105E-08
vn 0.4890313 -0.8722663 1.975349E-08
vn 0.4379723 -0.8989885 1.42954E-08
vn 0.4223241 -0.9064448 1.071224E-08
vn 0.1473136 -0.9890898 2.641816E-09
vn -0.1473144 -0.9890898 -2.898975E-09
vn -0.4223247 -0.9064445 -7.785474E-09
vn -0.4379718 -0.8989887 -9.960151E-09
vn -0.4890271 -0.8722686 -1.717473E-08
vn -0.5244529 -0.8514395 -2.496829E-08
vn -0.5872483 -0.8094069 -2.804345E-08
vn -0.6172407 -0.7867744 -2.959379E-08
vn -0.6965766 -0.7174825 -3.333541E-08
vn -0.739888 -0.6727301 -4.268057E-08
vn -0.8118992 -0.5837976 -4.910661E-08
vn -0.8383783 -0.5450889 -3.572824E-08
vn -0.8611535 -0.5083449 -2.501204E-08
vn -0.8611532 -0.5083453 0
vn 0.002922258 -9.06479E-05 0.9999956
vn 0.005792579 -7.651888E-07 0.9999833
vn 0.002871708 -0.001171663 0.9999952
vn 0.0004257215 -0.00235836 0.9999971
vn 0.002897984 0.001157061 0.9999951
vn -2.387308E-06 0.002317174 0.9999973
vn 0.002281308 -0.002530071 0.9999943
vn 0.0009904817 -0.002683925 0.9999958
vn 0.001899877 -0.002811444 0.9999943
vn 0.0008730069 -0.002939004 0.9999952
vn 0.001659517 -0.003067596 0.9999939
vn 0.0009289707 -0.003207246 0.9999945
vn 0.001492764 -0.003321081 0.9999934
vn 0.000674427 -0.003563521 0.9999934
vn 0.001154247 -0.0036823 0.9999925
vn 0.0006062124 -0.003959205 0.9999919
vn -6.333779E-10 -0.004033064 0.9999918
vn 0 -0.004288225 0.9999907
vn -0.0006026037 -0.003946035 0.999992
vn -0.001145157 -0.003658319 0.9999927
vn -0.0006696148 -0.003549682 0.9999935
vn -0.001477011 -0.003291896 0.9999935
vn -0.0009201873 -0.003189397 0.9999945
vn -0.001639485 -0.003036418 0.9999941
vn -0.0008648104 -0.002923022 0.9999954
vn -0.001872506 -0.002777572 0.9999945
vn -0.000979404 -0.002666865 0.9999959
vn -0.002240852 -0.002492313 0.9999943
vn -0.002778589 -0.001327725 0.9999953
vn -0.00567679 -0.0001289945 0.9999839
vn -0.002919348 1.431651E-05 0.9999958
vn 2.446705E-06 -6.68767E-07 1
vn -0.002901601 0.001158926 0.9999952
vn 2.145291E-06 -7.615807E-07 1
vn 0.003846682 -0.0007816858 -0.9999923
vn 0.00387007 -0.0001186593 -0.9999926
vn 0.002734522 -0.001345087 -0.9999955
vn 2.1102E-06 -8.064173E-13 -1
vn 0.002902751 0.001158298 -0.9999951
vn 2.620923E-06 0.002318314 -0.9999973
vn 0.002279783 -0.002529422 -0.9999943
vn 0.0009892914 -0.00268316 -0.9999958
vn 0.001898365 -0.002810561 -0.9999942
vn 0.0008727166 -0.002938037 -0.9999952
vn 0.001658976 -0.003066587 -0.9999939
vn 0.0009286675 -0.003206192 -0.9999945
vn 0.001492274 -0.003319989 -0.9999933
vn 0.0006742061 -0.003562349 -0.9999934
vn 0.001153658 -0.003681085 -0.9999925
vn 0.0006057955 -0.003957847 -0.9999921
vn -6.333779E-10 -0.004031654 -0.9999918
vn 0 -0.00428664 -0.9999908
vn -0.0006021891 -0.003944684 -0.9999921
vn -0.001144571 -0.003657116 -0.9999927
vn -0.0006693943 -0.003548516 -0.9999935
vn -0.001476525 -0.003290814 -0.9999935
vn -0.0009195087 -0.00318834 -0.9999945
vn -0.00163856 -0.003035374 -0.9999941
vn -0.0008636665 -0.002921961 -0.9999954
vn -0.001870475 -0.002776559 -0.9999945
vn -0.0009777342 -0.00266593 -0.999996
vn -0.002239175 -0.002491485 -0.9999944
vn -0.0004408555 -0.002352051 -0.9999972
vn -0.003907667 -8.800175E-05 -0.9999923
vn -0.002941604 -0.001147861 -0.9999949
vn -0.003872064 0.0007745861 -0.9999921
vn -0.00290566 0.001160261 -0.9999952
vn -1.906926E-06 5.711856E-07 -1

vt 0.9997208 0.5005501
vt 1 0
vt 0 0.001760492
vt 0.002041052 0.5023065
vt 0 0.5003685
vt 0.9973149 0.5034096
vt 1 0.00304803
vt 0.0003656033 0
vt 0.998993 0.02887868
vt 0.9989421 0
vt 0 0.001758661
vt 5.084768E-05 0.03063734
vt 0.9990484 0.0602915
vt 0.0001061415 0.06205004
vt 0.9991181 0.09993389
vt 0.0001759377 0.1016925
vt 0.9992167 0.1559411
vt 0.0002745297 0.1576997
vt 0.9993334 0.2221949
vt 0.000391175 0.2239535
vt 0.9994712 0.3004452
vt 0.0005289173 0.3022038
vt 0.9996089 0.3786951
vt 0.0006666894 0.3804538
vt 0.9997256 0.4449492
vt 0.0007833347 0.4467078
vt 0.9998242 0.5009581
vt 0.0008819267 0.5027167
vt 0.999894 0.5406021
vt 0.0009517229 0.5423608
vt 0.9999492 0.5720157
vt 0.001007017 0.5737744
vt 1 0.60089
vt 0.001057864 0.6026487
vt 0.19954 0.500548
vt -9.536743E-07 0.5008929
vt -8.34465E-07 0.9999997
vt 0.2026992 0.9999998
vt -1.192093E-06 4.768372E-07
vt 0.1992836 5.960464E-07
vt 0.2283849 0.5493991
vt 0.2402029 0.9999998
vt 0.2597577 0.5886579
vt 0.2777066 0.9999999
vt 0.2993487 0.6226992
vt 0.3152103 1
vt 0.3552838 0.6606273
vt 0.3527141 1
vt 0.4214535 0.6944417
vt 0.4277075 1
vt 0.4996051 0.729361
vt 0.5027009 1
vt 0.5779961 1
vt 0.5777559 0.6944419
vt 0.6532912 1
vt 0.6439264 0.6606276
vt 0.6910781 1
vt 0.6998658 0.6226995
vt 0.7288648 1
vt 0.7394611 0.5886583
vt 0.7666517 1
vt 0.7708352 0.5493996
vt 0.8044385 1
vt 0.7996702 0.5005486
vt 0.9999986 0.5008936
vt 0.9999986 1
vt 0.7992833 1.221895E-06
vt 0.9999983 1.341105E-06
vt 0.9999996 0.500894
vt 0.8004586 0.5005487
vt 0.7972994 1.000001
vt 0.9999994 1.000001
vt 0.9999998 1.430511E-06
vt 0.800715 1.221895E-06
vt 0.7716169 0.5493991
vt 0.7597957 1
vt 0.7402439 0.588658
vt 0.7222919 1
vt 0.7006513 0.6226995
vt 0.6847882 1.000001
vt 0.6447147 0.6606278
vt 0.6472844 1.000001
vt 0.5785447 0.6944423
vt 0.572291 1.000001
vt 0.5003933 0.7293613
vt 0.4972977 1.000001
vt 0.4220025 1
vt 0.4222423 0.6944422
vt 0.3467073 1
vt 0.3560721 0.6606277
vt 0.3089204 1
vt 0.3001342 0.6226993
vt 0.2711337 1
vt 0.2605404 0.5886576
vt 0.2333468 1
vt 0.2291666 0.5493988
vt 0.19556 1
vt 0.2003283 0.5005484
vt -1.788139E-07 1
vt -5.960464E-08 0.5008931
vt 0.2007152 9.536743E-07
vt 1.490116E-07 8.046627E-07

g Default-Material
usemtl Default-Material
usemap Default-Material
f 2/2/2 1/1/1 3/3/3
f 3/3/3 1/1/1 4/4/4
f 6/6/6 5/5/5 7/7/7
f 7/7/7 5/5/5 8/8/8

g Default_Prototype 1
usemtl Default_Prototype 1
usemap Default_Prototype 1
f 10/10/10 9/9/9 11/11/11
f 11/11/11 9/9/9 12/12/12
f 9/9/9 13/13/13 12/12/12
f 12/12/12 13/13/13 14/14/14
f 13/13/13 15/15/15 14/14/14
f 14/14/14 15/15/15 16/16/16
f 15/15/15 17/17/17 16/16/16
f 16/16/16 17/17/17 18/18/18
f 17/17/17 19/19/19 18/18/18
f 18/18/18 19/19/19 20/20/20
f 19/19/19 21/21/21 20/20/20
f 20/20/20 21/21/21 22/22/22
f 21/21/21 23/23/23 22/22/22
f 22/22/22 23/23/23 24/24/24
f 23/23/23 25/25/25 24/24/24
f 24/24/24 25/25/25 26/26/26
f 25/25/25 27/27/27 26/26/26
f 26/26/26 27/27/27 28/28/28
f 27/27/27 29/29/29 28/28/28
f 28/28/28 29/29/29 30/30/30
f 29/29/29 31/31/31 30/30/30
f 30/30/30 31/31/31 32/32/32
f 31/31/31 33/33/33 32/32/32
f 32/32/32 33/33/33 34/34/34

g Stone Brick Wall
usemtl Stone Brick Wall
usemap Stone Brick Wall
f 36/36/36 35/35/35 37/37/37
f 37/37/37 35/35/35 38/38/38
f 39/39/39 35/35/35 36/36/36
f 40/40/40 35/35/35 39/39/39
f 41/41/41 38/38/38 35/35/35
f 42/42/42 38/38/38 41/41/41
f 41/41/41 43/43/43 42/42/42
f 42/42/42 43/43/43 44/44/44
f 43/43/43 45/45/45 44/44/44
f 44/44/44 45/45/45 46/46/46
f 45/45/45 47/47/47 46/46/46
f 46/46/46 47/47/47 48/48/48
f 49/49/49 48/48/48 47/47/47
f 50/50/50 48/48/48 49/49/49
f 49/49/49 51/51/51 50/50/50
f 50/50/50 51/51/51 52/52/52
f 52/52/52 51/51/51 53/53/53
f 53/53/53 51/51/51 54/54/54
f 53/53/53 54/54/54 55/55/55
f 55/55/55 54/54/54 56/56/56
f 56/56/56 57/57/57 55/55/55
f 58/58/58 57/57/57 56/56/56
f 58/58/58 59/59/59 57/57/57
f 60/60/60 59/59/59 58/58/58
f 60/60/60 61/61/61 59/59/59
f 62/62/62 61/61/61 60/60/60
f 62/62/62 63/63/63 61/61/61
f 64/64/64 63/63/63 62/62/62
f 64/64/64 65/65/65 63/63/63
f 63/63/63 65/65/65 66/66/66
f 64/64/64 67/67/67 65/65/65
f 65/65/65 67/67/67 68/68/68
f 70/70/70 69/69/69 71/71/71
f 71/71/71 69/69/69 72/72/72
f 70/70/70 73/73/73 69/69/69
f 74/74/74 73/73/73 70/70/70
f 71/71/71 75/75/75 70/70/70
f 76/76/76 75/75/75 71/71/71
f 76/76/76 77/77/77 75/75/75
f 78/78/78 77/77/77 76/76/76
f 78/78/78 79/79/79 77/77/77
f 80/80/80 79/79/79 78/78/78
f 80/80/80 81/81/81 79/79/79
f 82/82/82 81/81/81 80/80/80
f 82/82/82 83/83/83 81/81/81
f 84/84/84 83/83/83 82/82/82
f 84/84/84 85/85/85 83/83/83
f 86/86/86 85/85/85 84/84/84
f 87/87/87 85/85/85 86/86/86
f 88/88/88 85/85/85 87/87/87
f 89/89/89 88/88/88 87/87/87
f 90/90/90 88/88/88 89/89/89
f 91/91/91 90/90/90 89/89/89
f 92/92/92 90/90/90 91/91/91
f 93/93/93 92/92/92 91/91/91
f 94/94/94 92/92/92 93/93/93
f 95/95/95 94/94/94 93/93/93
f 96/96/96 94/94/94 95/95/95
f 97/97/97 96/96/96 95/95/95
f 98/98/98 96/96/96 97/97/97
f 99/99/99 98/98/98 97/97/97
f 100/100/100 98/98/98 99/99/99
f 98/98/98 100/100/100 101/101/101
f 101/101/101 100/100/100 102/102/102
