mtllib ./WallDoublePointed_015.mtl
g WallDoublePointed_015
v -1.500505 2.502739 -0.06919733
v -1.501788 3.255337E-07 -0.0749993
v -1.501788 2.686419E-07 0.07499939
v -1.500505 2.502739 0.06920016
v 1.500147 2.502738 -0.06919733
v 1.500147 2.502738 0.06920016
v 1.498212 -5.670232E-07 0.07499957
v 1.498212 -2.049555E-07 -0.07499972
v -1.356295 2.747 -0.06919736
v -1.500505 2.502739 -0.06919733
v -1.500505 2.502739 0.06920016
v -1.356295 2.747 0.0692001
v -1.199429 2.943294 -0.06919739
v -1.19943 2.943294 0.0692001
v -1.001468 3.113498 -0.06919739
v -1.001468 3.113498 0.0692001
v -0.7217856 3.303135 -0.06919742
v -0.7217858 3.303135 0.06920004
v -0.3909356 3.472207 -0.06919745
v -0.3909357 3.472207 0.06920004
v -0.0001787384 3.646803 -0.06919748
v -0.0001788706 3.646803 0.06919998
v 0.3905765 3.472207 -0.06919745
v 0.3905765 3.472207 0.06920004
v 0.721428 3.303135 -0.06919742
v 0.7214278 3.303135 0.06920004
v 1.001119 3.113497 -0.06919739
v 1.001118 3.113497 0.0692001
v 1.199089 2.943293 -0.06919739
v 1.199088 2.943293 0.0692001
v 1.355958 2.747 -0.06919736
v 1.355958 2.746999 0.0692001
v 1.500147 2.502738 -0.06919733
v 1.500147 2.502738 0.06920016
v -1.500505 2.502739 0.06920016
v -2.5 2.504464 0.07500091
v -2.499999 5 0.07500252
v -1.484709 5 0.07500297
v -2.500001 -5.353378E-07 0.074999
v -1.501788 2.686419E-07 0.07499939
v -1.356295 2.747 0.0692001
v -1.297191 5 0.07500291
v -1.19943 2.943294 0.0692001
v -1.109672 5 0.07500285
v -1.001468 3.113498 0.0692001
v -0.9221531 5.000001 0.07500285
v -0.7217858 3.303135 0.06920004
v -0.7346343 5.000001 0.07500279
v -0.3909357 3.472207 0.06920004
v -0.3596672 5.000001 0.07500279
v -0.0001788706 3.646803 0.06919998
v 0.01529969 5.000001 0.07500279
v 0.3917758 5.000001 0.07500279
v 0.3905765 3.472207 0.06920004
v 0.7682519 5.000001 0.07500297
v 0.7214278 3.303135 0.06920004
v 0.957186 5.000001 0.07500297
v 1.001118 3.113497 0.0692001
v 1.14612 5.000001 0.07500309
v 1.199088 2.943293 0.0692001
v 1.335054 5 0.07500315
v 1.355958 2.746999 0.0692001
v 1.523988 5 0.07500315
v 1.500147 2.502738 0.06920016
v 2.5 2.504462 0.07500167
v 2.500001 4.999999 0.07500328
v 1.498212 -5.670232E-07 0.07499957
v 2.499999 -1.171341E-06 0.07499976
v -2.5 2.504465 -0.07499914
v -1.500505 2.502739 -0.06919733
v -1.484709 5.000001 -0.0749982
v -2.499999 5.000002 -0.07499863
v -2.500001 1.260242E-06 -0.07499985
v -1.501788 3.255337E-07 -0.0749993
v -1.356295 2.747 -0.06919736
v -1.297191 5.000001 -0.07499826
v -1.199429 2.943294 -0.06919739
v -1.109672 5 -0.07499832
v -1.001468 3.113498 -0.06919739
v -0.9221528 5.000001 -0.07499832
v -0.7217856 3.303135 -0.06919742
v -0.734634 5.000001 -0.07499838
v -0.3909356 3.472207 -0.06919745
v -0.3596672 5.000001 -0.07499838
v -0.0001787384 3.646803 -0.06919748
v 0.01529982 5.000001 -0.07499838
v 0.3917759 5.000001 -0.07499838
v 0.3905765 3.472207 -0.06919745
v 0.7682522 5.000001 -0.07499832
v 0.721428 3.303135 -0.06919742
v 0.9571863 5.000001 -0.07499844
v 1.001119 3.113497 -0.06919739
v 1.14612 5.000001 -0.07499838
v 1.199089 2.943293 -0.06919739
v 1.335054 5 -0.07499844
v 1.355958 2.747 -0.06919736
v 1.523988 5 -0.07499844
v 1.500147 2.502738 -0.06919733
v 2.500001 5 -0.07499789
v 2.5 2.504463 -0.07499842
v 1.498212 -2.049555E-07 -0.07499972
v 2.499999 1.474026E-07 -0.07499908

vn 0.9999999 -0.0005123723 0
vn 0.9999999 -0.0005123723 0
vn 0.9999999 -0.0005123723 0
vn 0.9999998 -0.0005123722 0
vn -0.9999997 0.0007730596 6.45155E-10
vn -0.9999996 0.0007730594 0
vn -0.9999997 0.0007730596 6.45155E-10
vn -0.9999996 0.0007730596 1.24041E-09
vn 0.8383558 -0.5451235 -6.50134E-07
vn 0.8611199 -0.508402 0
vn 0.8611197 -0.5084022 -4.379145E-07
vn 0.8118905 -0.5838097 2.275359E-07
vn 0.7398986 -0.6727183 1.658289E-06
vn 0.6965903 -0.717469 2.38451E-06
vn 0.6172544 -0.7867637 1.720681E-06
vn 0.5872599 -0.8093985 1.036511E-06
vn 0.5244598 -0.8514352 9.303337E-07
vn 0.4890313 -0.8722664 7.119949E-07
vn 0.4379723 -0.8989884 5.152634E-07
vn 0.4223241 -0.9064449 3.861718E-07
vn 0.1473137 -0.9890898 9.528357E-08
vn -0.1473144 -0.9890897 -1.044287E-07
vn -0.4223248 -0.9064445 -2.806196E-07
vn -0.4379718 -0.8989887 -2.968063E-07
vn -0.4890271 -0.8722686 -4.767549E-07
vn -0.5244528 -0.8514395 -7.530815E-07
vn -0.5872481 -0.8094069 -9.244955E-07
vn -0.6172405 -0.7867744 -1.066678E-06
vn -0.6965766 -0.7174824 -1.201541E-06
vn -0.7398879 -0.6727301 -1.538378E-06
vn -0.8118992 -0.5837975 -1.769998E-06
vn -0.8383783 -0.5450889 -1.287788E-06
vn -0.8611536 -0.508345 -9.015338E-07
vn -0.8611533 -0.5083453 0
vn 0.002928445 -9.078311E-05 0.9999956
vn 0.00580359 -7.058218E-07 0.9999833
vn 0.002877857 -0.001171659 0.9999952
vn 0.0004274217 -0.002358482 0.9999971
vn 0.002904496 0.001157047 0.9999952
vn -3.899346E-07 0.002317149 0.9999973
vn 0.002281631 -0.002530153 0.9999943
vn 0.000990735 -0.002684005 0.9999958
vn 0.001900035 -0.002811515 0.9999943
vn 0.0008731327 -0.002939069 0.9999952
vn 0.001659641 -0.003067662 0.9999939
vn 0.0009291697 -0.003207315 0.9999945
vn 0.001492948 -0.003321152 0.9999934
vn 0.000674511 -0.003563594 0.9999934
vn 0.001154114 -0.003682372 0.9999925
vn 0.0006060617 -0.003959244 0.999992
vn -6.333779E-10 -0.004033084 0.9999918
vn 0 -0.004288181 0.9999908
vn -0.0006026159 -0.003946076 0.999992
vn -0.001145197 -0.003658428 0.9999927
vn -0.0006698353 -0.003549818 0.9999934
vn -0.001477159 -0.003292055 0.9999935
vn -0.0009201309 -0.003189535 0.9999945
vn -0.001639447 -0.003036522 0.9999941
vn -0.000864309 -0.002923089 0.9999954
vn -0.00187219 -0.002777596 0.9999945
vn -0.0009790784 -0.002666858 0.9999959
vn -0.002240948 -0.002492279 0.9999943
vn -0.002776986 -0.001327453 0.9999952
vn -0.005670822 -0.0001287477 0.9999839
vn -0.002917209 1.432898E-05 0.9999958
vn -1.374072E-07 -6.448815E-07 1
vn -0.002899459 0.001158949 0.9999951
vn -1.9337E-07 -7.615798E-07 1
vn 0.003851087 -0.0007816782 -0.9999923
vn 0.003874202 -0.0001188997 -0.9999925
vn 0.002736753 -0.001345166 -0.9999953
vn 4.256263E-07 2.03018E-07 -1
vn 0.002905497 0.001158118 -0.9999951
vn 5.544992E-07 0.002318244 -0.9999973
vn 0.002280372 -0.002529308 -0.9999943
vn 0.0009898926 -0.00268312 -0.9999958
vn 0.001899134 -0.00281061 -0.9999942
vn 0.0008726394 -0.002938138 -0.9999953
vn 0.001658991 -0.003066696 -0.9999939
vn 0.000928568 -0.003206311 -0.9999945
vn 0.001492182 -0.003320119 -0.9999933
vn 0.0006741293 -0.003562489 -0.9999934
vn 0.001153647 -0.003681223 -0.9999925
vn 0.0006057901 -0.003957982 -0.9999921
vn -6.333779E-10 -0.004031789 -0.9999918
vn 0 -0.004286772 -0.9999908
vn -0.00060213 -0.003944819 -0.9999921
vn -0.001144502 -0.003657243 -0.9999927
vn -0.0006694568 -0.00354863 -0.9999935
vn -0.001476658 -0.003290941 -0.9999935
vn -0.0009195883 -0.003188489 -0.9999945
vn -0.001638512 -0.003035533 -0.9999941
vn -0.0008637145 -0.002922106 -0.9999953
vn -0.001871489 -0.002776644 -0.9999945
vn -0.0009786843 -0.002665949 -0.999996
vn -0.002239953 -0.002491446 -0.9999944
vn -0.0004383905 -0.002351996 -0.9999971
vn -0.003899702 -8.782629E-05 -0.9999924
vn -0.002934681 -0.001147768 -0.9999951
vn -0.003863817 0.0007745204 -0.9999923
vn -0.002898837 0.001160055 -0.9999951
vn 6.396068E-07 2.617928E-07 -1

vt 0.8004472 0.5005487
vt 0.8007264 1.192093E-06
vt 0.7707268 5.400181E-05
vt 0.7727678 0.5005975
vt 0.2003389 0.5005484
vt 0.2280182 0.5006328
vt 0.2307043 9.23574E-05
vt 0.2007047 9.536743E-07
vt 0.0001122695 0.9518062
vt 0 0.9998594
vt 0.03534639 1
vt 0.03545862 0.9519469
vt 0.0002344154 0.8995365
vt 0.03558078 0.8996772
vt 0.0003885866 0.8335732
vt 0.03573495 0.8337137
vt 0.0006063898 0.740379
vt 0.03595275 0.7405198
vt 0.0008640189 0.6301351
vt 0.03621041 0.6302758
vt 0.001168327 0.4999294
vt 0.03651471 0.5000701
vt 0.001472616 0.3697243
vt 0.03681902 0.3698649
vt 0.001730322 0.2594799
vt 0.03707667 0.2596206
vt 0.001948125 0.1662831
vt 0.03729449 0.1664239
vt 0.002102297 0.1003168
vt 0.03744866 0.1004575
vt 0.002224461 0.04804577
vt 0.03757083 0.04818639
vt 0.002336788 0
vt 0.03768319 0.0001406184
vt 0.19954 0.500548
vt -9.536743E-07 0.5008929
vt -8.34465E-07 0.9999997
vt 0.2026992 0.9999998
vt -1.192093E-06 4.768372E-07
vt 0.1992836 5.960464E-07
vt 0.2283849 0.5493991
vt 0.2402029 0.9999998
vt 0.2597577 0.5886579
vt 0.2777066 0.9999999
vt 0.2993487 0.6226992
vt 0.3152103 1
vt 0.3552838 0.6606273
vt 0.3527141 1
vt 0.4214535 0.6944417
vt 0.4277075 1
vt 0.4996051 0.729361
vt 0.5027009 1
vt 0.5779961 1
vt 0.5777559 0.6944419
vt 0.6532912 1
vt 0.6439264 0.6606276
vt 0.6910781 1
vt 0.6998658 0.6226995
vt 0.7288648 1
vt 0.7394611 0.5886583
vt 0.7666517 1
vt 0.7708352 0.5493996
vt 0.8044385 1
vt 0.7996702 0.5005486
vt 0.9999986 0.5008936
vt 0.9999986 1
vt 0.7992833 1.221895E-06
vt 0.9999983 1.341105E-06
vt 0.9999996 0.500894
vt 0.8004586 0.5005487
vt 0.7972994 1.000001
vt 0.9999994 1.000001
vt 0.9999998 1.430511E-06
vt 0.800715 1.221895E-06
vt 0.7716169 0.5493991
vt 0.7597957 1
vt 0.7402439 0.588658
vt 0.7222919 1
vt 0.7006513 0.6226995
vt 0.6847882 1.000001
vt 0.6447147 0.6606278
vt 0.6472844 1.000001
vt 0.5785447 0.6944423
vt 0.572291 1.000001
vt 0.5003933 0.7293613
vt 0.4972977 1.000001
vt 0.4220025 1
vt 0.4222423 0.6944422
vt 0.3467073 1
vt 0.3560721 0.6606277
vt 0.3089204 1
vt 0.3001342 0.6226993
vt 0.2711337 1
vt 0.2605404 0.5886576
vt 0.2333468 1
vt 0.2291666 0.5493988
vt 0.19556 1
vt 0.2003283 0.5005484
vt -1.788139E-07 1
vt -5.960464E-08 0.5008931
vt 0.2007152 9.536743E-07
vt 1.490116E-07 8.046627E-07

g Default-Material
usemtl Default-Material
usemap Default-Material
f 2/2/2 1/1/1 3/3/3
f 3/3/3 1/1/1 4/4/4
f 6/6/6 5/5/5 7/7/7
f 7/7/7 5/5/5 8/8/8

g Default_Prototype 1
usemtl Default_Prototype 1
usemap Default_Prototype 1
f 10/10/10 9/9/9 11/11/11
f 11/11/11 9/9/9 12/12/12
f 9/9/9 13/13/13 12/12/12
f 12/12/12 13/13/13 14/14/14
f 13/13/13 15/15/15 14/14/14
f 14/14/14 15/15/15 16/16/16
f 15/15/15 17/17/17 16/16/16
f 16/16/16 17/17/17 18/18/18
f 17/17/17 19/19/19 18/18/18
f 18/18/18 19/19/19 20/20/20
f 19/19/19 21/21/21 20/20/20
f 20/20/20 21/21/21 22/22/22
f 21/21/21 23/23/23 22/22/22
f 22/22/22 23/23/23 24/24/24
f 23/23/23 25/25/25 24/24/24
f 24/24/24 25/25/25 26/26/26
f 25/25/25 27/27/27 26/26/26
f 26/26/26 27/27/27 28/28/28
f 27/27/27 29/29/29 28/28/28
f 28/28/28 29/29/29 30/30/30
f 29/29/29 31/31/31 30/30/30
f 30/30/30 31/31/31 32/32/32
f 31/31/31 33/33/33 32/32/32
f 32/32/32 33/33/33 34/34/34

g Stone Brick Wall
usemtl Stone Brick Wall
usemap Stone Brick Wall
f 36/36/36 35/35/35 37/37/37
f 37/37/37 35/35/35 38/38/38
f 39/39/39 35/35/35 36/36/36
f 40/40/40 35/35/35 39/39/39
f 41/41/41 38/38/38 35/35/35
f 42/42/42 38/38/38 41/41/41
f 41/41/41 43/43/43 42/42/42
f 42/42/42 43/43/43 44/44/44
f 43/43/43 45/45/45 44/44/44
f 44/44/44 45/45/45 46/46/46
f 45/45/45 47/47/47 46/46/46
f 46/46/46 47/47/47 48/48/48
f 49/49/49 48/48/48 47/47/47
f 50/50/50 48/48/48 49/49/49
f 49/49/49 51/51/51 50/50/50
f 50/50/50 51/51/51 52/52/52
f 52/52/52 51/51/51 53/53/53
f 53/53/53 51/51/51 54/54/54
f 53/53/53 54/54/54 55/55/55
f 55/55/55 54/54/54 56/56/56
f 56/56/56 57/57/57 55/55/55
f 58/58/58 57/57/57 56/56/56
f 58/58/58 59/59/59 57/57/57
f 60/60/60 59/59/59 58/58/58
f 60/60/60 61/61/61 59/59/59
f 62/62/62 61/61/61 60/60/60
f 62/62/62 63/63/63 61/61/61
f 64/64/64 63/63/63 62/62/62
f 64/64/64 65/65/65 63/63/63
f 63/63/63 65/65/65 66/66/66
f 64/64/64 67/67/67 65/65/65
f 65/65/65 67/67/67 68/68/68
f 70/70/70 69/69/69 71/71/71
f 71/71/71 69/69/69 72/72/72
f 70/70/70 73/73/73 69/69/69
f 74/74/74 73/73/73 70/70/70
f 71/71/71 75/75/75 70/70/70
f 76/76/76 75/75/75 71/71/71
f 76/76/76 77/77/77 75/75/75
f 78/78/78 77/77/77 76/76/76
f 78/78/78 79/79/79 77/77/77
f 80/80/80 79/79/79 78/78/78
f 80/80/80 81/81/81 79/79/79
f 82/82/82 81/81/81 80/80/80
f 82/82/82 83/83/83 81/81/81
f 84/84/84 83/83/83 82/82/82
f 84/84/84 85/85/85 83/83/83
f 86/86/86 85/85/85 84/84/84
f 87/87/87 85/85/85 86/86/86
f 88/88/88 85/85/85 87/87/87
f 89/89/89 88/88/88 87/87/87
f 90/90/90 88/88/88 89/89/89
f 91/91/91 90/90/90 89/89/89
f 92/92/92 90/90/90 91/91/91
f 93/93/93 92/92/92 91/91/91
f 94/94/94 92/92/92 93/93/93
f 95/95/95 94/94/94 93/93/93
f 96/96/96 94/94/94 95/95/95
f 97/97/97 96/96/96 95/95/95
f 98/98/98 96/96/96 97/97/97
f 99/99/99 98/98/98 97/97/97
f 100/100/100 98/98/98 99/99/99
f 98/98/98 100/100/100 101/101/101
f 101/101/101 100/100/100 102/102/102
