mtllib ./WallSquare_015.mtl
g WallSquare_015
v -0.7493592 2.500319 -0.07499942
v -0.7499998 1.827706E-07 -0.07499912
v -0.7499999 3.782833E-08 0.07499963
v -0.7493593 2.500319 0.07500067
v 0.7509668 2.500319 -0.07499948
v 0.7509667 2.500319 0.07500103
v 0.7499998 -1.827708E-07 0.07500005
v 0.75 -3.782844E-08 -0.0749993
v 0.7509668 2.500319 -0.07499948
v -0.7493592 2.500319 -0.07499942
v -0.7493593 2.500319 0.07500067
v 0.7509667 2.500319 0.07500103
v -0.7493593 2.500319 0.07500067
v -2.499999 2.502044 0.07500087
v -2.499999 5.000001 0.07500164
v -0.7414619 5 0.07500145
v 0.7628869 5 0.07500187
v 0.7509667 2.500319 0.07500103
v 2.5 2.502043 0.07500164
v 2.5 5 0.07500242
v -2.5 2.95194E-07 0.07499988
v -0.7499999 3.782833E-08 0.07499963
v 0.7499998 -1.827708E-07 0.07500005
v 2.5 -4.401363E-07 0.07500063
v -2.499999 2.502044 -0.07499918
v -0.7493592 2.500319 -0.07499942
v -0.7414618 5 -0.07499966
v -2.499999 5.000001 -0.07499948
v 0.7628871 5 -0.07499972
v 0.7509668 2.500319 -0.07499948
v 2.5 5 -0.07499869
v 2.5 2.502043 -0.07499851
v -2.5 4.401361E-07 -0.074999
v -0.7499998 1.827706E-07 -0.07499912
v 0.75 -3.782844E-08 -0.0749993
v 2.5 -2.951939E-07 -0.07499827

vn 0.9999999 -0.0002562196 7.943221E-07
vn 0.9999999 -0.0002562196 7.943235E-07
vn 0.9999999 -0.0002562196 7.943221E-07
vn 0.9999999 -0.0002562196 7.943207E-07
vn -0.9999999 0.0003867013 -9.930246E-07
vn -0.9999999 0.0003867132 -7.947258E-07
vn -0.9999999 0.0003867013 -9.930246E-07
vn -0.9999999 0.0003866894 -1.191325E-06
vn -7.945551E-08 -1 -7.94727E-07
vn -1.589112E-07 -1 -1.589456E-06
vn -7.945551E-08 -1 -7.94727E-07
vn 0 -1 0
vn 5.841452E-09 -3.466307E-07 1
vn 1.103072E-07 -3.516674E-07 1
vn 1.102522E-07 -3.102649E-07 1
vn -6.850308E-08 -3.097672E-07 1
vn -2.983529E-07 -3.210657E-07 1
vn -3.157589E-07 -3.536858E-07 1
vn -3.36878E-07 -3.602498E-07 1
vn -3.173904E-07 -3.101977E-07 1
vn 1.275012E-07 -4.051365E-07 1
vn 1.447541E-07 -4.172164E-07 1
vn -3.404953E-07 -3.990966E-07 1
vn -3.320831E-07 -4.049805E-07 1
vn -1.247164E-07 -9.526409E-08 -1
vn -8.667889E-08 -9.520128E-08 -1
vn -9.51413E-08 -1.035806E-07 -1
vn -1.016834E-07 -1.193068E-07 -1
vn 1.916937E-07 -9.631397E-08 -1
vn 4.314271E-07 -8.374663E-08 -1
vn 5.728106E-07 -8.485222E-08 -1
vn 5.650888E-07 -7.954382E-08 -0.9999999
vn -1.022077E-07 -9.530928E-08 -1
vn -6.811961E-08 -1.191766E-07 -1
vn 5.707004E-07 -8.351745E-08 -1
vn 5.875316E-07 -9.528966E-08 -1

vt 0.6499354 0.4998903
vt 0.6499352 -0.0001739264
vt 0.6199355 -0.0001739562
vt 0.6199353 0.4998902
vt 0.3499031 0.4998904
vt 0.3799032 0.4998904
vt 0.3799029 -0.000173077
vt 0.3499031 -0.0001730472
vt 0 0
vt 1.986391E-06 1
vt 0.09998039 0.9999998
vt 0.0999786 0
vt 0.3501281 0.4998906
vt 0 0.5002352
vt -3.576279E-07 0.9998268
vt 0.3517073 0.9998269
vt 0.6525773 0.9998269
vt 0.6501932 0.4998906
vt 1 0.5002353
vt 1 0.9998268
vt 5.066395E-07 -0.0001735662
vt 0.3500005 -0.0001732681
vt 0.6499997 -0.0001731787
vt 0.9999996 -0.000173447
vt 1 0.5002352
vt 0.6498715 0.4998903
vt 0.6482923 0.9998266
vt 1 0.9998268
vt 0.3474226 0.9998266
vt 0.3498064 0.4998904
vt 0 0.9998266
vt 0 0.5002353
vt 0.9999995 -0.0001742814
vt 0.6499991 -0.0001739238
vt 0.3499997 -0.0001730595
vt 0 -0.0001730595

g Default-Material
usemtl Default-Material
usemap Default-Material
f 2/2/2 1/1/1 3/3/3
f 3/3/3 1/1/1 4/4/4
f 6/6/6 5/5/5 7/7/7
f 7/7/7 5/5/5 8/8/8

g Default_Prototype 1
usemtl Default_Prototype 1
usemap Default_Prototype 1
f 10/10/10 9/9/9 11/11/11
f 11/11/11 9/9/9 12/12/12

g Stone Brick Wall
usemtl Stone Brick Wall
usemap Stone Brick Wall
f 14/14/14 13/13/13 15/15/15
f 15/15/15 13/13/13 16/16/16
f 13/13/13 17/17/17 16/16/16
f 18/18/18 17/17/17 13/13/13
f 18/18/18 19/19/19 17/17/17
f 17/17/17 19/19/19 20/20/20
f 21/21/21 13/13/13 14/14/14
f 22/22/22 13/13/13 21/21/21
f 18/18/18 23/23/23 19/19/19
f 19/19/19 23/23/23 24/24/24
f 26/26/26 25/25/25 27/27/27
f 27/27/27 25/25/25 28/28/28
f 29/29/29 26/26/26 27/27/27
f 30/30/30 26/26/26 29/29/29
f 31/31/31 30/30/30 29/29/29
f 32/32/32 30/30/30 31/31/31
f 26/26/26 33/33/33 25/25/25
f 34/34/34 33/33/33 26/26/26
f 30/30/30 32/32/32 35/35/35
f 35/35/35 32/32/32 36/36/36
