mtllib ./WallDoubleArch_1.mtl
g WallDoubleArch_1
v -1.499158 -0.4982874 2.493333
v -2.5 -0.4999992 2.495058
v -2.499998 -0.5000023 5
v -1.483361 -0.5000029 4.998005
v -2.500002 -0.4999959 -6.256965E-07
v -1.500442 -0.4999965 6.267334E-07
v -1.289663 -0.4982875 2.70144
v -1.255803 -0.5000028 4.997983
v -1.044944 -0.4982878 2.848768
v -1.028245 -0.5000028 4.998006
v -0.6962398 -0.4982879 2.975196
v -0.680017 -0.5000027 4.998006
v -0.3475356 -0.4982879 3.054551
v -0.3314615 -0.5000027 4.998006
v 0.001168607 -0.4982879 3.07956
v 0.01744938 -0.5000028 4.998006
v 0.3667436 -0.5000028 4.998006
v 0.3498729 -0.4982879 3.054551
v 0.7164489 -0.5000029 4.998006
v 0.6985769 -0.4982879 2.975196
v 1.066593 -0.5000029 4.998006
v 1.047281 -0.4982877 2.848768
v 1.295965 -0.500003 4.997982
v 1.292006 -0.4982875 2.701438
v 1.525337 -0.5000031 4.998004
v 1.501494 -0.4982873 2.493332
v 2.5 -0.5000005 2.495057
v 2.500002 -0.5000036 5
v 1.499558 -0.4999968 -8.192831E-07
v 2.499998 -0.4999973 3.964266E-08
v -2.499557 0.4999982 2.495055
v -1.499158 0.4982801 2.493334
v -1.483361 0.4999906 4.998006
v -2.499555 0.4999962 5
v -2.499558 0.5000002 -2.045935E-07
v -1.500442 0.4999945 8.019773E-07
v -1.289662 0.4982801 2.70144
v -1.255803 0.4999907 4.997983
v -1.044944 0.4982798 2.848768
v -1.028244 0.4999906 4.998006
v -0.6962396 0.4982797 2.975196
v -0.6800168 0.4999908 4.998006
v -0.3475357 0.4982797 3.054551
v -0.3314614 0.4999907 4.998006
v 0.001168744 0.4982797 3.07956
v 0.01744951 0.4999909 4.998006
v 0.3667437 0.4999909 4.998006
v 0.3498727 0.4982797 3.054551
v 0.7164491 0.4999908 4.998006
v 0.698577 0.4982797 2.975196
v 1.066593 0.4999909 4.998006
v 1.047281 0.4982798 2.848768
v 1.295965 0.4999909 4.997983
v 1.292006 0.4982801 2.701439
v 1.525337 0.4999909 4.998005
v 1.501495 0.4982803 2.493334
v 2.500002 0.5 4.999999
v 2.5 0.5000019 2.495058
v 1.499558 0.4999949 -3.388633E-07
v 2.499998 0.5000038 2.816654E-07
v -1.483361 -9.447336E-06 4.998006
v -2.499555 -3.8445E-06 5
v -2.499557 -1.817942E-06 2.495055
v -2.499558 1.788139E-07 -2.641981E-07
v -1.500442 -5.51343E-06 7.423727E-07
v -1.499158 -0.001719922 2.493334
v -1.289662 -0.001719981 2.70144
v -1.255803 -9.387732E-06 4.997983
v -1.044944 -0.001720279 2.848768
v -1.028244 -9.447336E-06 4.998006
v -0.6962396 -0.001720339 2.975196
v -0.6800168 -9.268522E-06 4.998006
v -0.3475357 -0.001720339 3.054551
v -0.3314614 -9.328127E-06 4.998006
v 0.001168744 -0.001720339 3.07956
v 0.01744951 -9.208918E-06 4.998006
v 0.3667437 -9.208918E-06 4.998006
v 0.3498727 -0.001720339 3.054551
v 0.7164491 -9.268522E-06 4.998006
v 0.698577 -0.001720399 2.975196
v 1.066593 -9.149313E-06 4.998006
v 1.047281 -0.00172022 2.848768
v 1.295965 -9.149313E-06 4.997983
v 1.292006 -0.001719981 2.701439
v 1.525337 -9.149313E-06 4.998005
v 1.501495 -0.001719803 2.493334
v 2.500445 -5.960464E-08 4.999999
v 2.500443 1.847744E-06 2.495058
v 1.499558 -5.155802E-06 -3.98468E-07
v 2.500442 3.755093E-06 2.220607E-07
v -2.499557 -0.500003 2.495058
v -2.499555 -0.5000061 5
v -2.5 -0.4999992 2.495058
v -2.499998 -0.5000023 5
v -2.499555 -0.5000061 5
v -1.483361 -0.5000029 4.998005
v -2.499998 -0.5000023 5
v -1.483361 -0.5000029 4.998005
v -2.499558 -0.4999998 -6.25697E-07
v -2.499557 -0.500003 2.495058
v -2.500002 -0.4999959 -6.256965E-07
v -2.5 -0.4999992 2.495058
v -1.499158 -0.4982874 2.493333
v -1.500442 -0.4999965 6.267334E-07
v -2.499558 -0.4999998 -6.25697E-07
v -1.500442 -0.4999965 6.267334E-07
v -2.500002 -0.4999959 -6.256965E-07
v -1.289663 -0.4982875 2.70144
v -1.255803 -0.5000028 4.997983
v -1.044944 -0.4982878 2.848768
v -1.028245 -0.5000028 4.998006
v -0.6962398 -0.4982879 2.975196
v -0.680017 -0.5000027 4.998006
v -0.3475356 -0.4982879 3.054551
v -0.3314615 -0.5000027 4.998006
v 0.001168607 -0.4982879 3.07956
v 0.01744938 -0.5000028 4.998006
v 0.3667436 -0.5000028 4.998006
v 0.3498729 -0.4982879 3.054551
v 0.7164489 -0.5000029 4.998006
v 0.6985769 -0.4982879 2.975196
v 1.066593 -0.5000029 4.998006
v 1.047281 -0.4982877 2.848768
v 1.295965 -0.500003 4.997982
v 1.292006 -0.4982875 2.701438
v 1.525337 -0.5000031 4.998004
v 1.501494 -0.4982873 2.493332
v 2.500445 -0.5000055 5
v 1.525337 -0.5000031 4.998004
v 2.500002 -0.5000036 5
v 2.500445 -0.5000055 5
v 2.500443 -0.5000024 2.495058
v 2.500002 -0.5000036 5
v 2.5 -0.5000005 2.495057
v 1.499558 -0.4999968 -8.192831E-07
v 2.500443 -0.5000024 2.495058
v 2.500442 -0.4999992 2.78061E-07
v 2.5 -0.5000005 2.495057
v 2.499998 -0.4999973 3.964266E-08
v 2.500442 -0.4999992 2.78061E-07
v 1.499558 -0.4999968 -8.192831E-07
v 2.499998 -0.4999973 3.964266E-08
v 1.501495 -0.001719803 2.493334
v 1.499558 -5.155802E-06 -3.98468E-07
v 1.501495 0.4982803 2.493334
v 1.499558 0.4999949 -3.388633E-07
v 1.501495 -0.3517202 2.493334
v 1.501494 -0.4982873 2.493332
v 1.499558 -0.4999968 -8.192831E-07
v 1.499558 -0.3500056 -4.401913E-07
v -1.500442 -0.3500059 7.006494E-07
v -1.499158 -0.3517203 2.493334
v -1.500442 -5.51343E-06 7.423727E-07
v -1.499158 -0.001719922 2.493334
v -1.500442 -0.4999965 6.267334E-07
v -1.499158 -0.4982874 2.493333
v -1.500442 0.4999945 8.019773E-07
v -1.499158 0.4982801 2.493334
v 1.292006 -0.3517204 2.701439
v 1.501495 -0.3517202 2.493334
v 1.292006 -0.001719981 2.701439
v 1.501495 -0.001719803 2.493334
v -1.289662 -0.3517204 2.70144
v -1.499158 -0.3517203 2.493334
v -1.499158 -0.4982874 2.493333
v -1.289663 -0.4982875 2.70144
v -1.044944 -0.3517207 2.848768
v -1.044944 -0.4982878 2.848768
v -0.6962398 -0.4982879 2.975196
v -0.6962396 -0.3517208 2.975196
v -0.3475356 -0.4982879 3.054551
v -0.3475357 -0.3517208 3.054551
v 0.001168607 -0.4982879 3.07956
v 0.001168744 -0.3517208 3.07956
v 0.3498729 -0.4982879 3.054551
v 0.3498727 -0.3517208 3.054551
v 0.6985769 -0.4982879 2.975196
v 0.698577 -0.3517208 2.975196
v 1.047281 -0.4982877 2.848768
v 1.047281 -0.3517206 2.848768
v 1.292006 -0.4982875 2.701438
v 1.501494 -0.4982873 2.493332
v 1.047281 -0.00172022 2.848768
v 0.698577 -0.001720399 2.975196
v 0.001168744 -0.001720339 3.07956
v 0.3498727 -0.001720339 3.054551
v -0.3475357 -0.001720339 3.054551
v -0.6962396 -0.001720339 2.975196
v -1.499158 -0.001719922 2.493334
v -1.289662 -0.001719981 2.70144
v -1.044944 -0.001720279 2.848768
v -1.289662 -0.001719981 2.70144
v -1.044944 -0.001720279 2.848768
v -1.289662 0.4982801 2.70144
v -1.044944 0.4982798 2.848768
v -1.499158 0.4982801 2.493334
v -0.6962396 -0.001720339 2.975196
v -0.6962396 0.4982797 2.975196
v -0.3475357 -0.001720339 3.054551
v -0.3475357 0.4982797 3.054551
v 0.001168744 -0.001720339 3.07956
v 0.001168744 0.4982797 3.07956
v 0.3498727 -0.001720339 3.054551
v 0.3498727 0.4982797 3.054551
v 0.698577 -0.001720399 2.975196
v 0.698577 0.4982797 2.975196
v 1.047281 -0.00172022 2.848768
v 1.047281 0.4982798 2.848768
v 1.292006 -0.001719981 2.701439
v 1.292006 0.4982801 2.701439
v 1.501495 0.4982803 2.493334

vn 0.000843321 -0.9999996 -3.798676E-05
vn 0.001710281 -0.9999986 -1.26474E-06
vn 0.0008475144 -0.9999995 -0.0003457174
vn 9.804577E-05 -0.9999997 -0.0006945342
vn 0.000855687 -0.9999995 0.0003417504
vn -5.973428E-07 -0.9999998 0.0006854698
vn 0.0003803566 -0.9999996 -0.0007304358
vn 0.0001607503 -0.9999997 -0.000765193
vn 0.0002613789 -0.9999996 -0.0007851137
vn 0.000111735 -0.9999996 -0.000816907
vn 0.0001636973 -0.9999996 -0.0008317925
vn 6.529845E-05 -0.9999997 -0.000859539
vn 8.693166E-05 -0.9999996 -0.0008712536
vn 2.113267E-05 -0.9999995 -0.0008863786
vn -4.303549E-08 -0.9999996 -0.0008881234
vn -8.536835E-08 -0.9999996 -0.0008939229
vn -2.120738E-05 -0.9999995 -0.0008860374
vn -8.680647E-05 -0.9999995 -0.0008698053
vn -6.513868E-05 -0.9999996 -0.0008584593
vn -0.0001628061 -0.9999996 -0.0008290836
vn -0.000110976 -0.9999996 -0.0008150901
vn -0.0002593823 -0.9999997 -0.0007808321
vn -0.0001596359 -0.9999997 -0.0007626151
vn -0.0003761799 -0.9999996 -0.0007243505
vn -0.0007745349 -0.9999996 -0.0004047999
vn -0.001615762 -0.9999987 -5.825613E-05
vn -0.0008627333 -0.9999996 3.184469E-06
vn -5.478532E-07 -1 -1.23733E-06
vn -0.0008576233 -0.9999995 0.0003423757
vn -5.362046E-07 -1 -1.290011E-06
vn 0.001139599 0.9999993 -0.0002297844
vn 0.001117639 0.9999993 -4.762647E-05
vn 0.000766199 0.9999996 -0.0004075136
vn 5.515091E-06 1 7.852241E-07
vn 0.0008623726 0.9999995 0.0003438696
vn 5.696585E-06 0.9999998 0.0006875938
vn 0.0003801493 0.9999996 -0.0007284107
vn 0.0001610861 0.9999997 -0.0007631811
vn 0.0002616744 0.9999997 -0.0007831434
vn 0.0001114122 0.9999996 -0.0008149833
vn 0.0001632073 0.9999996 -0.0008298836
vn 6.497767E-05 0.9999997 -0.0008576157
vn 8.679397E-05 0.9999996 -0.0008692959
vn 2.108568E-05 0.9999995 -0.0008843865
vn -8.594814E-08 0.9999996 -0.0008861398
vn -1.706942E-07 0.9999996 -0.0008919338
vn -2.104621E-05 0.9999995 -0.0008840674
vn -8.638475E-05 0.9999995 -0.0008678726
vn -6.482611E-05 0.9999996 -0.0008565512
vn -0.0001627255 0.9999997 -0.0008271888
vn -0.000111099 0.9999996 -0.0008131855
vn -0.0002596749 0.9999996 -0.000778883
vn -0.0001596398 0.9999996 -0.0007606256
vn -0.0003761564 0.9999997 -0.0007223198
vn -0.0001074128 0.9999998 -0.0006912962
vn -0.001128407 0.9999993 -3.869824E-05
vn -0.0008764868 0.9999995 -0.0003369156
vn -0.001152735 0.9999993 0.0002296345
vn -0.0008660342 0.9999995 0.0003444463
vn -8.906974E-06 1 7.644575E-07
vn 0 0 0
vn 0 0 0
vn 0 0 0
vn 0 0 0
vn 0 0 0
vn 0 0 0
vn 0 0 0
vn 0 0 0
vn 0 0 0
vn 0 0 0
vn 0 0 0
vn 0 0 0
vn 0 0 0
vn 0 0 0
vn 0 0 0
vn 0 0 0
vn 0 0 0
vn 0 0 0
vn 0 0 0
vn 0 0 0
vn 0 0 0
vn 0 0 0
vn 0 0 0
vn 0 0 0
vn 0 0 0
vn 0 0 0
vn 0 0 0
vn 0 0 0
vn 0 0 0
vn 0 0 0
vn 0.00859721 0.999963 1.230738E-06
vn 0.00859721 0.999963 1.230738E-06
vn 0.00859721 0.999963 1.230738E-06
vn 0.00859721 0.999963 1.230738E-06
vn -0.001913349 -0.2225464 -0.9749202
vn -0.001913349 -0.2225464 -0.9749202
vn -0.001913349 -0.2225464 -0.9749202
vn 0 0 0
vn 0.00859721 0.999963 1.285033E-06
vn 0.00859721 0.999963 1.285033E-06
vn 0.00859721 0.999963 1.285033E-06
vn 0.00859721 0.999963 1.285033E-06
vn 0 0 0
vn 0 0 0
vn -1.253068E-06 -0.0001458667 1
vn -1.253068E-06 -0.0001458667 1
vn -1.253068E-06 -0.0001458667 1
vn 0 0 0
vn 0 0 0
vn 0 0 0
vn 0 0 0
vn 0 0 0
vn 0 0 0
vn 0 0 0
vn 0 0 0
vn 0 0 0
vn 0 0 0
vn 0 0 0
vn 0 0 0
vn 0 0 0
vn 0 0 0
vn 0 0 0
vn 0 0 0
vn 0 0 0
vn 0 0 0
vn 0 0 0
vn 0 0 0
vn 0.001848311 0.4299634 -0.9028444
vn 0.001848311 0.4299634 -0.9028444
vn 0.001848311 0.4299634 -0.9028444
vn -0.004298725 -0.9999908 -1.234046E-06
vn -0.004298724 -0.9999908 -1.234046E-06
vn -0.004298724 -0.9999908 -1.234046E-06
vn -0.004298723 -0.9999908 -1.234046E-06
vn 0 0 0
vn -0.004298723 -0.9999907 -1.287534E-06
vn -0.004298723 -0.9999908 -1.287534E-06
vn -0.004298723 -0.9999908 -1.287534E-06
vn -0.004298723 -0.9999908 -1.287534E-06
vn -7.855256E-07 0.1238547 0.9923004
vn -7.855256E-07 0.1238547 0.9923004
vn -7.855256E-07 0.1238547 0.9923004
vn -0.9999997 0 0.0007770752
vn -0.9999997 -4.631729E-11 0.0007770752
vn -0.9999997 -4.631729E-11 0.0007770752
vn -0.9999997 -9.263457E-11 0.0007770752
vn -0.9999997 2.395154E-06 0.0007769327
vn -0.9999996 1.056714E-05 0.0007764467
vn -0.9999996 5.221932E-06 0.0007767646
vn -0.9999997 -2.578666E-10 0.0007770751
vn 0.9999999 4.297762E-11 -0.0005150223
vn 0.9999999 -5.975903E-07 -0.0005149867
vn 0.9999999 3.069772E-11 -0.0005150223
vn 0.9999999 0 -0.0005150223
vn 0.9999999 -2.008228E-06 -0.0005149029
vn 0.9999998 -4.063364E-06 -0.0005147806
vn 0.9999999 3.069772E-11 -0.0005150223
vn 0.9999999 0 -0.0005150223
vn -0.5839442 9.949238E-07 -0.8117937
vn -0.7047596 2.637268E-06 -0.7094462
vn -0.647243 0 -0.7622837
vn -0.7047591 0 -0.7094466
vn 0.64724 5.30641E-07 -0.7622863
vn 0.7047505 5.081156E-07 -0.7094553
vn 0.7047506 1.445427E-06 -0.7094551
vn 0.5839466 1.088474E-06 -0.8117923
vn 0.4379178 8.055407E-08 -0.899015
vn 0.4188929 -3.407035E-07 -0.9080357
vn 0.3026707 -3.965484E-07 -0.9530953
vn 0.2911061 -7.257832E-08 -0.9566908
vn 0.172973 -4.255748E-08 -0.9849266
vn 0.1582665 1.628844E-08 -0.9873964
vn 0.02390015 1.75498E-08 -0.9997143
vn 0.009793717 -7.728799E-09 -0.999952
vn -0.1227356 -6.310641E-08 -0.9924394
vn -0.1376803 -7.382567E-09 -0.9904767
vn -0.2629743 9.391426E-08 -0.9648028
vn -0.2748413 1.002956E-07 -0.9614896
vn -0.4188907 1.404552E-06 -0.9080366
vn -0.3968807 1.476948E-07 -0.9178702
vn -0.6472446 7.525487E-06 -0.7622823
vn -0.7047622 1.322198E-05 -0.7094436
vn -0.448927 0 -0.8935683
vn -0.3026706 0 -0.9530953
vn -0.02390015 0 -0.9997143
vn -0.1729729 0 -0.9849266
vn 0.1227355 0 -0.9924394
vn 0.2629744 0 -0.9648029
vn 0.7047505 0 -0.7094553
vn 0.583946 0 -0.8117925
vn 0.3909582 0 -0.9204084
vn 0.64724 0 -0.7622863
vn 0.44893 0 -0.8935669
vn 0.583946 0 -0.8117925
vn 0.3909582 0 -0.9204084
vn 0.7047505 0 -0.7094553
vn 0.3026707 0 -0.9530952
vn 0.2629744 0 -0.9648029
vn 0.172973 0 -0.9849266
vn 0.1227355 0 -0.9924394
vn 0.02390015 0 -0.9997143
vn -0.02390016 0 -0.9997144
vn -0.1227356 0 -0.9924394
vn -0.172973 0 -0.9849266
vn -0.2629742 0 -0.9648029
vn -0.3026706 0 -0.9530953
vn -0.3909571 0 -0.9204089
vn -0.4489271 0 -0.8935684
vn -0.583944 0 -0.8117939
vn -0.6472431 0 -0.7622837
vn -0.7047591 0 -0.7094466

vt 0.1995475 0.4986665
vt 2.384186E-07 0.4990119
vt 7.152557E-07 0.9999999
vt 0.2027071 0.9996006
vt 0 5.960464E-07
vt 0.1992908 4.768372E-07
vt 0.2414465 0.5402879
vt 0.2482185 0.9995961
vt 0.2903903 0.5697536
vt 0.29373 0.9996008
vt 0.360131 0.5950391
vt 0.3633754 0.9996008
vt 0.4298718 0.61091
vt 0.4330866 0.9996008
vt 0.4996126 0.6159118
vt 0.5028689 0.9996008
vt 0.5727277 0.9996007
vt 0.5693533 0.61091
vt 0.6426685 0.9996007
vt 0.6390944 0.5950391
vt 0.7126973 0.9996007
vt 0.7088351 0.5697536
vt 0.7585719 0.9995961
vt 0.7577798 0.5402877
vt 0.8044462 0.9996006
vt 0.7996776 0.4986665
vt 0.9999998 0.4990113
vt 1 0.9999992
vt 0.7992904 2.384186E-07
vt 0.9999993 0
vt 0.9999998 0.4990115
vt 0.8004525 0.4986668
vt 0.7972929 0.9996007
vt 0.9999993 0.9999999
vt 1 7.152557E-07
vt 0.8007092 3.576279E-07
vt 0.7585533 0.5402879
vt 0.7517815 0.9995961
vt 0.7096097 0.5697535
vt 0.70627 0.9996008
vt 0.639869 0.595039
vt 0.6366243 0.9996008
vt 0.5701282 0.6109099
vt 0.5669134 0.9996008
vt 0.5003874 0.6159118
vt 0.4971311 0.9996008
vt 0.4272723 0.9996008
vt 0.4306467 0.6109099
vt 0.3573313 0.9996008
vt 0.3609056 0.595039
vt 0.2873025 0.9996008
vt 0.2911649 0.5697535
vt 0.2414281 0.9995961
vt 0.2422199 0.5402877
vt 0.1955538 0.9996006
vt 0.2003222 0.4986666
vt 0 0.9999992
vt 2.384186E-07 0.4990113
vt 0.2007096 2.384186E-07
vt 4.768372E-07 0
vt 0 0
vt 0 0
vt 0 0
vt 0 0
vt 0 0
vt 0 0
vt 0 0
vt 0 0
vt 0 0
vt 0 0
vt 0 0
vt 0 0
vt 0 0
vt 0 0
vt 0 0
vt 0 0
vt 0 0
vt 0 0
vt 0 0
vt 0 0
vt 0 0
vt 0 0
vt 0 0
vt 0 0
vt 0 0
vt 0 0
vt 0 0
vt 0 0
vt 0 0
vt 0 0
vt 1.66893E-06 -2.384186E-07
vt -2.384186E-07 2.504942
vt 0.0004453659 -2.384186E-07
vt 0.0004434586 2.504942
vt 0 0
vt 0 0
vt 0 0
vt 0 0
vt 1.66893E-06 0
vt 2.384186E-07 2.495058
vt 0.0004453659 0
vt 0.0004439354 2.495058
vt 0 0
vt 0 0
vt 0 0
vt 0 0
vt 0 0
vt 0 0
vt 0 0
vt 0 0
vt 0 0
vt 0 0
vt 0 0
vt 0 0
vt 0 0
vt 0 0
vt 0 0
vt 0 0
vt 0 0
vt 0 0
vt 0 0
vt 0 0
vt 0 0
vt 0 0
vt 0 0
vt 0 0
vt 0 0
vt 0 0
vt 0 0
vt 0 0
vt 0.0004453659 2.504942
vt 0.0004434586 4.768372E-07
vt 1.66893E-06 2.504942
vt -2.384186E-07 0
vt 0 0
vt 0.0004453659 2.495058
vt 0.0004439354 2.384186E-07
vt 1.66893E-06 2.495057
vt 2.384186E-07 0
vt 0 0
vt 0 0
vt 0 0
vt 0.3003219 0.4988131
vt 0.3007094 0.0001467019
vt 0.2003221 0.4986666
vt 0.2007096 2.384186E-07
vt 0.3703218 0.4989156
vt 0.3996352 0.4989583
vt 0.4007075 0.0002931207
vt 0.3707094 0.0002492517
vt 0.6307093 2.974272E-05
vt 0.6304525 0.4986961
vt 0.7007093 1.765788E-05
vt 0.7004526 0.498684
vt 0.6007112 3.491342E-05
vt 0.6011391 0.498701
vt 0.8007092 3.874302E-07
vt 0.8004525 0.4986667
vt 0.2844959 0.07019541
vt 0.2845981 0.0004147557
vt 0.1679112 0.07002467
vt 0.1680134 0.000244009
vt 0.2832362 0.9301457
vt 0.283134 0.9999281
vt 0.3319553 1
vt 0.3320575 0.9302172
vt 0.2833557 0.8486302
vt 0.332177 0.8487017
vt 0.3323471 0.732549
vt 0.2835258 0.7324774
vt 0.3325172 0.6163961
vt 0.2836959 0.6163246
vt 0.3326874 0.5002432
vt 0.283866 0.5001716
vt 0.3328575 0.3840902
vt 0.2840362 0.3840187
vt 0.3330278 0.2679374
vt 0.2842064 0.2678658
vt 0.3331978 0.1517846
vt 0.2843764 0.1517129
vt 0.3333172 0.07026709
vt 0.3334194 0.0004868267
vt 0.1677918 0.1515421
vt 0.1676217 0.2676951
vt 0.1672814 0.5000008
vt 0.1674515 0.383848
vt 0.1671113 0.6161538
vt 0.1669412 0.7323066
vt 0.1665493 0.9997574
vt 0.1666515 0.929975
vt 0.166771 0.8484595
vt 0.1666515 0.929975
vt 0.166771 0.8484595
vt 0.0001022247 0.929731
vt 0.0002216233 0.8482155
vt 0 0.9995134
vt 0.1669412 0.7323066
vt 0.0003917744 0.7320627
vt 0.1671113 0.6161538
vt 0.0005619007 0.6159099
vt 0.1672814 0.5000008
vt 0.0007320517 0.4997569
vt 0.1674515 0.383848
vt 0.0009022029 0.383604
vt 0.1676217 0.2676951
vt 0.001072354 0.267451
vt 0.1677918 0.1515421
vt 0.001242505 0.1512982
vt 0.1679112 0.07002467
vt 0.001361904 0.06978066
vt 0.001464128 0

g Stone Brick Wall
usemtl Stone Brick Wall
usemap Stone Brick Wall
f 2/2/2 1/1/1 3/3/3
f 3/3/3 1/1/1 4/4/4
f 5/5/5 1/1/1 2/2/2
f 6/6/6 1/1/1 5/5/5
f 7/7/7 4/4/4 1/1/1
f 8/8/8 4/4/4 7/7/7
f 7/7/7 9/9/9 8/8/8
f 8/8/8 9/9/9 10/10/10
f 11/11/11 10/10/10 9/9/9
f 12/12/12 10/10/10 11/11/11
f 13/13/13 12/12/12 11/11/11
f 14/14/14 12/12/12 13/13/13
f 15/15/15 14/14/14 13/13/13
f 16/16/16 14/14/14 15/15/15
f 16/16/16 15/15/15 17/17/17
f 17/17/17 15/15/15 18/18/18
f 17/17/17 18/18/18 19/19/19
f 19/19/19 18/18/18 20/20/20
f 19/19/19 20/20/20 21/21/21
f 21/21/21 20/20/20 22/22/22
f 22/22/22 23/23/23 21/21/21
f 24/24/24 23/23/23 22/22/22
f 24/24/24 25/25/25 23/23/23
f 26/26/26 25/25/25 24/24/24
f 26/26/26 27/27/27 25/25/25
f 25/25/25 27/27/27 28/28/28
f 26/26/26 29/29/29 27/27/27
f 27/27/27 29/29/29 30/30/30
f 32/32/32 31/31/31 33/33/33
f 33/33/33 31/31/31 34/34/34
f 32/32/32 35/35/35 31/31/31
f 36/36/36 35/35/35 32/32/32
f 33/33/33 37/37/37 32/32/32
f 38/38/38 37/37/37 33/33/33
f 38/38/38 39/39/39 37/37/37
f 40/40/40 39/39/39 38/38/38
f 40/40/40 41/41/41 39/39/39
f 42/42/42 41/41/41 40/40/40
f 42/42/42 43/43/43 41/41/41
f 44/44/44 43/43/43 42/42/42
f 44/44/44 45/45/45 43/43/43
f 46/46/46 45/45/45 44/44/44
f 47/47/47 45/45/45 46/46/46
f 48/48/48 45/45/45 47/47/47
f 49/49/49 48/48/48 47/47/47
f 50/50/50 48/48/48 49/49/49
f 51/51/51 50/50/50 49/49/49
f 52/52/52 50/50/50 51/51/51
f 53/53/53 52/52/52 51/51/51
f 54/54/54 52/52/52 53/53/53
f 55/55/55 54/54/54 53/53/53
f 56/56/56 54/54/54 55/55/55
f 57/57/57 56/56/56 55/55/55
f 58/58/58 56/56/56 57/57/57
f 56/56/56 58/58/58 59/59/59
f 59/59/59 58/58/58 60/60/60
f 62/62/62 61/61/61 61/61/61
f 62/62/62 62/62/62 61/61/61
f 63/63/63 62/62/62 62/62/62
f 63/63/63 63/63/63 62/62/62
f 64/64/64 63/63/63 63/63/63
f 64/64/64 64/64/64 63/63/63
f 65/65/65 64/64/64 64/64/64
f 65/65/65 65/65/65 64/64/64
f 66/66/66 65/65/65 65/65/65
f 66/66/66 66/66/66 65/65/65
f 67/67/67 66/66/66 66/66/66
f 67/67/67 67/67/67 66/66/66
f 61/61/61 68/68/68 68/68/68
f 61/61/61 61/61/61 68/68/68
f 69/69/69 67/67/67 67/67/67
f 69/69/69 69/69/69 67/67/67
f 68/68/68 70/70/70 70/70/70
f 68/68/68 68/68/68 70/70/70
f 71/71/71 69/69/69 69/69/69
f 71/71/71 71/71/71 69/69/69
f 70/70/70 72/72/72 72/72/72
f 70/70/70 70/70/70 72/72/72
f 73/73/73 71/71/71 71/71/71
f 73/73/73 73/73/73 71/71/71
f 72/72/72 74/74/74 74/74/74
f 72/72/72 72/72/72 74/74/74
f 75/75/75 73/73/73 73/73/73
f 75/75/75 75/75/75 73/73/73
f 74/74/74 76/76/76 76/76/76
f 74/74/74 74/74/74 76/76/76
f 76/76/76 77/77/77 77/77/77
f 76/76/76 76/76/76 77/77/77
f 78/78/78 75/75/75 75/75/75
f 78/78/78 78/78/78 75/75/75
f 77/77/77 79/79/79 79/79/79
f 77/77/77 77/77/77 79/79/79
f 80/80/80 78/78/78 78/78/78
f 80/80/80 80/80/80 78/78/78
f 79/79/79 81/81/81 81/81/81
f 79/79/79 79/79/79 81/81/81
f 82/82/82 80/80/80 80/80/80
f 82/82/82 82/82/82 80/80/80
f 81/81/81 83/83/83 83/83/83
f 81/81/81 81/81/81 83/83/83
f 84/84/84 82/82/82 82/82/82
f 84/84/84 84/84/84 82/82/82
f 83/83/83 85/85/85 85/85/85
f 83/83/83 83/83/83 85/85/85
f 86/86/86 84/84/84 84/84/84
f 86/86/86 86/86/86 84/84/84
f 85/85/85 87/87/87 87/87/87
f 85/85/85 85/85/85 87/87/87
f 87/87/87 88/88/88 88/88/88
f 87/87/87 87/87/87 88/88/88
f 89/89/89 86/86/86 86/86/86
f 89/89/89 89/89/89 86/86/86
f 90/90/90 89/89/89 89/89/89
f 90/90/90 90/90/90 89/89/89
f 88/88/88 90/90/90 90/90/90
f 88/88/88 88/88/88 90/90/90
f 62/62/62 61/61/61 61/61/61
f 62/62/62 62/62/62 61/61/61
f 63/63/63 62/62/62 62/62/62
f 63/63/63 63/63/63 62/62/62
f 64/64/64 63/63/63 63/63/63
f 64/64/64 64/64/64 63/63/63
f 65/65/65 64/64/64 64/64/64
f 65/65/65 65/65/65 64/64/64
f 66/66/66 65/65/65 65/65/65
f 66/66/66 66/66/66 65/65/65
f 67/67/67 66/66/66 66/66/66
f 67/67/67 67/67/67 66/66/66
f 61/61/61 68/68/68 68/68/68
f 61/61/61 61/61/61 68/68/68
f 69/69/69 67/67/67 67/67/67
f 69/69/69 69/69/69 67/67/67
f 68/68/68 70/70/70 70/70/70
f 68/68/68 68/68/68 70/70/70
f 71/71/71 69/69/69 69/69/69
f 71/71/71 71/71/71 69/69/69
f 70/70/70 72/72/72 72/72/72
f 70/70/70 70/70/70 72/72/72
f 73/73/73 71/71/71 71/71/71
f 73/73/73 73/73/73 71/71/71
f 72/72/72 74/74/74 74/74/74
f 72/72/72 72/72/72 74/74/74
f 75/75/75 73/73/73 73/73/73
f 75/75/75 75/75/75 73/73/73
f 74/74/74 76/76/76 76/76/76
f 74/74/74 74/74/74 76/76/76
f 76/76/76 77/77/77 77/77/77
f 76/76/76 76/76/76 77/77/77
f 78/78/78 75/75/75 75/75/75
f 78/78/78 78/78/78 75/75/75
f 77/77/77 79/79/79 79/79/79
f 77/77/77 77/77/77 79/79/79
f 80/80/80 78/78/78 78/78/78
f 80/80/80 80/80/80 78/78/78
f 79/79/79 81/81/81 81/81/81
f 79/79/79 79/79/79 81/81/81
f 82/82/82 80/80/80 80/80/80
f 82/82/82 82/82/82 80/80/80
f 81/81/81 83/83/83 83/83/83
f 81/81/81 81/81/81 83/83/83
f 84/84/84 82/82/82 82/82/82
f 84/84/84 84/84/84 82/82/82
f 83/83/83 85/85/85 85/85/85
f 83/83/83 83/83/83 85/85/85
f 86/86/86 84/84/84 84/84/84
f 86/86/86 86/86/86 84/84/84
f 85/85/85 87/87/87 87/87/87
f 85/85/85 85/85/85 87/87/87
f 87/87/87 88/88/88 88/88/88
f 87/87/87 87/87/87 88/88/88
f 89/89/89 86/86/86 86/86/86
f 89/89/89 89/89/89 86/86/86
f 90/90/90 89/89/89 89/89/89
f 90/90/90 90/90/90 89/89/89
f 88/88/88 90/90/90 90/90/90
f 88/88/88 88/88/88 90/90/90
f 92/92/92 91/91/91 93/93/93
f 94/94/94 92/92/92 93/93/93
f 96/96/96 95/95/95 97/97/97
f 98/98/98 96/96/96 97/97/97
f 100/100/100 99/99/99 101/101/101
f 102/102/102 100/100/100 101/101/101
f 104/104/104 103/103/103 103/103/103
f 104/104/104 104/104/104 103/103/103
f 105/105/105 104/104/104 106/106/106
f 107/107/107 105/105/105 106/106/106
f 103/103/103 108/108/108 108/108/108
f 103/103/103 103/103/103 108/108/108
f 109/109/109 98/98/98 98/98/98
f 109/109/109 109/109/109 98/98/98
f 108/108/108 110/110/110 110/110/110
f 108/108/108 108/108/108 110/110/110
f 111/111/111 109/109/109 109/109/109
f 111/111/111 111/111/111 109/109/109
f 110/110/110 112/112/112 112/112/112
f 110/110/110 110/110/110 112/112/112
f 113/113/113 111/111/111 111/111/111
f 113/113/113 113/113/113 111/111/111
f 112/112/112 114/114/114 114/114/114
f 112/112/112 112/112/112 114/114/114
f 115/115/115 113/113/113 113/113/113
f 115/115/115 115/115/115 113/113/113
f 114/114/114 116/116/116 116/116/116
f 114/114/114 114/114/114 116/116/116
f 117/117/117 115/115/115 115/115/115
f 117/117/117 117/117/117 115/115/115
f 118/118/118 117/117/117 117/117/117
f 118/118/118 118/118/118 117/117/117
f 116/116/116 119/119/119 119/119/119
f 116/116/116 116/116/116 119/119/119
f 120/120/120 118/118/118 118/118/118
f 120/120/120 120/120/120 118/118/118
f 119/119/119 121/121/121 121/121/121
f 119/119/119 119/119/119 121/121/121
f 122/122/122 120/120/120 120/120/120
f 122/122/122 122/122/122 120/120/120
f 121/121/121 123/123/123 123/123/123
f 121/121/121 121/121/121 123/123/123
f 124/124/124 122/122/122 122/122/122
f 124/124/124 124/124/124 122/122/122
f 123/123/123 125/125/125 125/125/125
f 123/123/123 123/123/123 125/125/125
f 126/126/126 124/124/124 124/124/124
f 126/126/126 126/126/126 124/124/124
f 125/125/125 127/127/127 127/127/127
f 125/125/125 125/125/125 127/127/127
f 128/128/128 126/126/126 129/129/129
f 130/130/130 128/128/128 129/129/129
f 132/132/132 131/131/131 133/133/133
f 134/134/134 132/132/132 133/133/133
f 127/127/127 135/135/135 135/135/135
f 127/127/127 127/127/127 135/135/135
f 137/137/137 136/136/136 138/138/138
f 139/139/139 137/137/137 138/138/138
f 141/141/141 140/140/140 142/142/142
f 135/135/135 141/141/141 142/142/142

g Default-Material
usemtl Default-Material
usemap Default-Material
f 144/144/144 143/143/143 145/145/145
f 146/146/146 144/144/144 145/145/145
f 148/148/148 147/147/147 149/149/149
f 149/149/149 147/147/147 150/150/150
f 150/150/150 147/147/147 143/143/143
f 144/144/144 150/150/150 143/143/143
f 152/152/152 151/151/151 153/153/153
f 154/154/154 152/152/152 153/153/153
f 151/151/151 152/152/152 155/155/155
f 155/155/155 152/152/152 156/156/156
f 154/154/154 153/153/153 157/157/157
f 158/158/158 154/154/154 157/157/157

g Default_Prototype 1
usemtl Default_Prototype 1
usemap Default_Prototype 1
f 160/160/160 159/159/159 161/161/161
f 162/162/162 160/160/160 161/161/161
f 164/164/164 163/163/163 165/165/165
f 165/165/165 163/163/163 166/166/166
f 163/163/163 167/167/167 166/166/166
f 166/166/166 167/167/167 168/168/168
f 168/168/168 167/167/167 169/169/169
f 169/169/169 167/167/167 170/170/170
f 169/169/169 170/170/170 171/171/171
f 171/171/171 170/170/170 172/172/172
f 171/171/171 172/172/172 173/173/173
f 173/173/173 172/172/172 174/174/174
f 173/173/173 174/174/174 175/175/175
f 175/175/175 174/174/174 176/176/176
f 175/175/175 176/176/176 177/177/177
f 177/177/177 176/176/176 178/178/178
f 177/177/177 178/178/178 179/179/179
f 179/179/179 178/178/178 180/180/180
f 180/180/180 159/159/159 179/179/179
f 179/179/179 159/159/159 181/181/181
f 159/159/159 160/160/160 181/181/181
f 181/181/181 160/160/160 182/182/182
f 159/159/159 180/180/180 183/183/183
f 161/161/161 159/159/159 183/183/183
f 180/180/180 178/178/178 184/184/184
f 183/183/183 180/180/180 184/184/184
f 176/176/176 174/174/174 185/185/185
f 186/186/186 176/176/176 185/185/185
f 178/178/178 176/176/176 186/186/186
f 184/184/184 178/178/178 186/186/186
f 174/174/174 172/172/172 187/187/187
f 185/185/185 174/174/174 187/187/187
f 172/172/172 170/170/170 188/188/188
f 187/187/187 172/172/172 188/188/188
f 163/163/163 164/164/164 189/189/189
f 190/190/190 163/163/163 189/189/189
f 167/167/167 163/163/163 190/190/190
f 191/191/191 167/167/167 190/190/190
f 170/170/170 167/167/167 191/191/191
f 188/188/188 170/170/170 191/191/191
f 193/193/193 192/192/192 194/194/194
f 195/195/195 193/193/193 194/194/194
f 192/192/192 189/189/189 196/196/196
f 194/194/194 192/192/192 196/196/196
f 197/197/197 193/193/193 195/195/195
f 198/198/198 197/197/197 195/195/195
f 199/199/199 197/197/197 198/198/198
f 200/200/200 199/199/199 198/198/198
f 201/201/201 199/199/199 200/200/200
f 202/202/202 201/201/201 200/200/200
f 203/203/203 201/201/201 202/202/202
f 204/204/204 203/203/203 202/202/202
f 205/205/205 203/203/203 204/204/204
f 206/206/206 205/205/205 204/204/204
f 207/207/207 205/205/205 206/206/206
f 208/208/208 207/207/207 206/206/206
f 209/209/209 207/207/207 208/208/208
f 210/210/210 209/209/209 208/208/208
f 162/162/162 209/209/209 210/210/210
f 211/211/211 162/162/162 210/210/210
