mtllib ./WallArch_05.mtl
g WallArch_05
v -0.7493583 2.493333 0.25597
v -2.5 2.495058 0.25
v -2.499999 5.000001 0.25
v -0.7414601 4.998005 0.2568283
v -2.500001 -5.285885E-07 0.25
v -0.7499995 -5.649536E-08 0.2568264
v -0.6446106 2.701439 0.25597
v -0.6276811 4.997983 0.2568283
v -0.5222512 2.848768 0.25597
v -0.5139022 4.998006 0.2568283
v -0.3478992 2.975196 0.25597
v -0.3397882 4.998006 0.2568283
v -0.1735471 3.054551 0.25597
v -0.1655105 4.998006 0.2568283
v 0.0008049791 3.07956 0.25597
v 0.008944948 4.998006 0.2568283
v 0.1835921 4.998006 0.2568283
v 0.1751571 3.054551 0.25597
v 0.3584447 4.998006 0.2568283
v 0.3495092 2.975196 0.25597
v 0.5335169 4.998006 0.2568283
v 0.5238613 2.848768 0.25597
v 0.6482028 4.997983 0.2568283
v 0.6462235 2.701438 0.25597
v 0.7628888 4.998005 0.2568283
v 0.7509677 2.493333 0.25597
v 2.5 2.495058 0.2499981
v 2.500001 5 0.25
v 0.7500002 -6.664954E-07 0.2568264
v 2.499999 4.401652E-08 0.2499981
v -2.5 2.495055 -0.25
v -0.7493578 2.493334 -0.2559681
v -0.74146 4.998005 -0.2568245
v -2.499999 5 -0.25
v -2.500001 -4.768372E-07 -0.25
v -0.7499994 3.734721E-07 -0.2568245
v -0.6446103 2.70144 -0.2559681
v -0.627681 4.997983 -0.2568245
v -0.5222512 2.848768 -0.2559681
v -0.5139021 4.998006 -0.2568245
v -0.3478992 2.975196 -0.2559681
v -0.3397882 4.998006 -0.2568245
v -0.1735471 3.054551 -0.2559681
v -0.1655104 4.998006 -0.2568245
v 0.0008050692 3.07956 -0.2559681
v 0.008945028 4.998006 -0.2568245
v 0.1835922 4.998006 -0.2568245
v 0.1751571 3.054551 -0.2559681
v 0.3584448 4.998006 -0.2568245
v 0.3495092 2.975196 -0.2559681
v 0.5335169 4.998006 -0.2568245
v 0.5238613 2.848768 -0.2559681
v 0.648203 4.997983 -0.2568245
v 0.6462239 2.701439 -0.2559681
v 0.7628889 4.998005 -0.2568245
v 0.7509687 2.493334 -0.2559681
v 2.500001 5 -0.25
v 2.5 2.495058 -0.25
v 0.7500005 -2.46528E-07 -0.2568245
v 2.499999 2.255651E-07 -0.25
v 0.7509687 2.493334 0.09403229
v 0.7500005 -2.46528E-07 0.09317589
v 0.7509687 2.493334 -0.2559681
v 0.7500005 -2.46528E-07 -0.2568245
v 0.7509677 2.493333 0.25597
v 0.7500002 -6.664954E-07 0.2568264
v -0.7493578 2.493334 0.09403229
v -0.7499994 3.734721E-07 0.09317589
v -0.7499995 -5.649536E-08 0.2568264
v -0.7493583 2.493333 0.25597
v -0.7499994 3.734721E-07 -0.2568245
v -0.7493578 2.493334 -0.2559681
v -0.6446103 2.70144 0.09403229
v -0.7493578 2.493334 0.09403229
v -0.7493583 2.493333 0.25597
v -0.6446106 2.701439 0.25597
v -0.5222512 2.848768 0.09403229
v -0.5222512 2.848768 0.25597
v -0.3478992 2.975196 0.25597
v -0.3478992 2.975196 0.09403229
v -0.1735471 3.054551 0.25597
v -0.1735471 3.054551 0.09403229
v 0.0008049791 3.07956 0.25597
v 0.0008050692 3.07956 0.09403229
v 0.1751571 3.054551 0.25597
v 0.1751571 3.054551 0.09403229
v 0.3495092 2.975196 0.25597
v 0.3495092 2.975196 0.09403229
v 0.5238613 2.848768 0.25597
v 0.5238613 2.848768 0.09403229
v 0.6462239 2.701439 0.09403229
v 0.6462235 2.701438 0.25597
v 0.7509687 2.493334 0.09403229
v 0.7509677 2.493333 0.25597
v -0.1735471 3.054551 -0.2559681
v 0.0008050692 3.07956 -0.2559681
v 0.1751571 3.054551 -0.2559681
v 0.3495092 2.975196 -0.2559681
v 0.5238613 2.848768 -0.2559681
v 0.6462239 2.701439 -0.2559681
v 0.7509687 2.493334 -0.2559681
v -0.3478992 2.975196 -0.2559681
v -0.5222512 2.848768 -0.2559681
v -0.6446103 2.70144 -0.2559681
v -0.7493578 2.493334 -0.2559681

vn -0.003587696 -2.375976E-06 0.9999935
vn -0.003410158 1.489561E-09 0.9999941
vn -0.003647244 -0.0001655795 0.9999933
vn -0.003435576 -0.0003334936 0.999994
vn -0.003655333 0.0001721479 0.9999932
vn -0.003900767 0.0003444764 0.9999924
vn 0.000381068 -0.000365492 0.9999999
vn 0.0001612224 -0.0003829131 0.9999999
vn 0.0002620526 -0.0003929078 1
vn 0.0001118433 -0.0004088475 0.9999999
vn 0.000163859 -0.0004163058 0.9999999
vn 6.530661E-05 -0.0004302024 0.9999999
vn 8.701955E-05 -0.0004360659 0.9999999
vn 2.121056E-05 -0.0004436312 0.9999999
vn -2.159942E-11 -0.0004444979 0.9999999
vn 0 -0.0004473968 0.9999999
vn -2.11709E-05 -0.0004434501 0.9999999
vn -8.677659E-05 -0.0004353265 0.9999999
vn -6.503171E-05 -0.0004296481 0.9999999
vn -0.0001630169 -0.0004149257 0.9999999
vn -0.0001111377 -0.000407906 0.9999999
vn -0.0002600189 -0.0003907206 0.9999999
vn -0.0001598328 -0.000381581 0.9999999
vn -0.0003768356 -0.0003623936 0.9999998
vn 0.003443177 -0.0001904954 0.999994
vn 0.003294167 -1.889836E-05 0.9999946
vn 0.00366501 -4.790132E-06 0.9999932
vn 0.00393081 -7.629249E-07 0.9999923
vn 0.003658109 0.0001709671 0.9999933
vn 0.003901864 -1.706352E-09 0.9999924
vn -0.003567088 -0.0001103597 -0.9999936
vn -0.00348944 -2.895626E-06 -0.9999939
vn -0.003422109 -0.0001760381 -0.9999942
vn -0.003880745 1.84683E-09 -0.9999925
vn -0.003654243 0.0001721481 -0.9999933
vn -0.003899677 0.0003444766 -0.9999923
vn 0.0003802209 -0.0003646798 -0.9999999
vn 0.0001608641 -0.0003820622 -0.9999999
vn 0.0002614703 -0.0003920347 -0.9999999
vn 0.0001115948 -0.0004079389 -0.9999999
vn 0.0001634948 -0.0004153806 -0.9999999
vn 6.516147E-05 -0.0004292464 -0.9999999
vn 8.682616E-05 -0.0004350969 -0.9999999
vn 2.116345E-05 -0.0004426453 -0.9999999
vn 0 -0.0004435101 -0.9999999
vn 0 -0.0004464026 -0.9999999
vn -2.112386E-05 -0.0004424647 -0.9999999
vn -8.658376E-05 -0.000434359 -0.9999999
vn -6.48872E-05 -0.0004286933 -0.9999999
vn -0.0001626547 -0.0004140036 -0.9999999
vn -0.0001108907 -0.0004069995 -0.9999998
vn -0.0002594404 -0.0003898523 -0.9999999
vn -0.0001594772 -0.0003807331 -0.9999999
vn -0.0003759962 -0.0003615884 -0.9999998
vn 0.00346715 -0.0003600924 -0.9999939
vn 0.003499444 -1.247433E-05 -0.9999939
vn 0.00366972 -0.000179683 -0.9999932
vn 0.003574471 0.0001138245 -0.9999936
vn 0.003655929 0.000170967 -0.9999932
vn 0.003899684 -1.493058E-09 -0.9999924
vn -0.9999999 0.0003882535 -1.763676E-06
vn -0.9999999 0.0003883226 -2.758238E-07
vn -0.9999999 0.0003883226 0
vn -0.9999999 0.0003883226 0
vn -0.9999999 0.0003880337 -5.886857E-06
vn -0.9999999 0.0003881791 -3.659591E-06
vn 1 -0.0002572972 5.808965E-07
vn 0.9999999 -0.00025732 2.318848E-07
vn 0.9999999 -0.0002572483 1.829799E-06
vn 0.9999999 -0.0002571755 2.943435E-06
vn 0.9999999 -0.0002573199 0
vn 0.9999999 -0.0002573199 0
vn 0.8616939 -0.5074285 2.923497E-07
vn 0.8932316 -0.4495968 2.030184E-07
vn 0.8932318 -0.4495966 9.762563E-07
vn 0.8211216 -0.5707532 7.429477E-07
vn 0.6971 -0.7169738 7.151181E-08
vn 0.6781049 -0.7349653 0
vn 0.5361356 -0.8441318 0
vn 0.5186795 -0.8549687 -3.775527E-09
vn 0.3313935 -0.9434926 -1.835845E-08
vn 0.3033711 -0.9528725 2.154125E-09
vn 0.04775939 -0.9988589 -8.823594E-10
vn 0.01756195 -0.9998458 4.24241E-09
vn -0.240106 -0.9707466 8.542063E-09
vn -0.2698151 -0.9629122 9.378334E-09
vn -0.478637 -0.8780128 1.930788E-08
vn -0.4975611 -0.8674289 0
vn -0.6781023 -0.7349676 -6.260909E-07
vn -0.6546534 -0.7559291 0
vn -0.8211189 -0.5707572 -5.761038E-07
vn -0.8616958 -0.5074253 -4.522324E-06
vn -0.8932357 -0.4495885 -1.664603E-06
vn -0.8932372 -0.4495858 -7.908076E-06
vn 0.2401059 -0.9707467 0
vn -0.0477594 -0.9988589 0
vn -0.3313935 -0.9434927 0
vn -0.5361356 -0.8441319 0
vn -0.708796 -0.7054136 0
vn -0.8616948 -0.507427 0
vn -0.8932355 -0.449589 0
vn 0.4786371 -0.8780128 0
vn 0.6474419 -0.7621148 0
vn 0.8211216 -0.5707533 0
vn 0.8932316 -0.4495968 0

vt 0.350127 0.497712
vt -1E-06 0.498058
vt -1E-06 0.999046
vt 0.351707 0.998647
vt -1E-06 -0.000954
vt 0.349999 -0.000954
vt 0.371078 0.539334
vt 0.374463 0.998642
vt 0.395549 0.568799
vt 0.397218 0.998647
vt 0.430419 0.594085
vt 0.432041 0.998647
vt 0.465289 0.609956
vt 0.466897 0.998647
vt 0.50016 0.614958
vt 0.501788 0.998647
vt 0.536717 0.998647
vt 0.53503 0.609956
vt 0.571688 0.998647
vt 0.569901 0.594085
vt 0.606702 0.998647
vt 0.604771 0.568799
vt 0.629639 0.998642
vt 0.629245 0.539334
vt 0.652576 0.998647
vt 0.650192 0.497712
vt 0.999999 0.498057
vt 0.999999 0.999045
vt 0.649999 -0.000954
vt 0.999999 -0.000954
vt 1 0.499012
vt 0.649872 0.498667
vt 0.648292 0.999601
vt 1 1.000001
vt 1 1E-06
vt 0.65 1E-06
vt 0.628923 0.540287
vt 0.625536 0.999597
vt 0.60445 0.569754
vt 0.602781 0.999602
vt 0.56958 0.59504
vt 0.567958 0.999602
vt 0.53471 0.610911
vt 0.533102 0.999602
vt 0.499839 0.615912
vt 0.498211 0.999602
vt 0.463282 0.999602
vt 0.464969 0.610911
vt 0.428311 0.999601
vt 0.430098 0.59504
vt 0.393297 0.999601
vt 0.395228 0.569754
vt 0.37036 0.999597
vt 0.370756 0.540287
vt 0.347422 0.999601
vt 0.349806 0.498667
vt 0 1
vt 0 0.499012
vt 0.35 1E-06
vt 0 1E-06
vt 0.4198165 0.4987153
vt 0.4199894 4.936755E-05
vt 0.3498165 0.498667
vt 0.3499895 1.043081E-06
vt 0.4522039 0.4987375
vt 0.4527194 7.18683E-05
vt 0.5799364 0.4986912
vt 0.5799356 2.516806E-05
vt 0.5472054 3.637373E-05
vt 0.5475489 0.4987022
vt 0.6499355 9.983778E-07
vt 0.6499364 0.498667
vt 0.2332757 0.9301251
vt 0.2332278 0.9999251
vt 0.3411372 1
vt 0.3411853 0.9301999
vt 0.2333321 0.8485894
vt 0.3412416 0.8486638
vt 0.3413219 0.7324818
vt 0.2334124 0.7324074
vt 0.3414021 0.6162999
vt 0.2334925 0.6162252
vt 0.3414823 0.5001178
vt 0.2335727 0.5000433
vt 0.3415625 0.3839358
vt 0.233653 0.3838613
vt 0.3416428 0.2677537
vt 0.2337332 0.2676792
vt 0.341723 0.1515717
vt 0.2338134 0.1514972
vt 0.2338697 0.06995916
vt 0.3417793 0.07003403
vt 0.2339182 0.0001610585
vt 0.3418276 0.0002362257
vt 0.0002647238 0.6160642
vt 0.0003449551 0.4998822
vt 0.0004251864 0.3837001
vt 0.0005055171 0.2675181
vt 0.0005857485 0.1513362
vt 0.0006420494 0.0697981
vt 0.0006903074 0
vt 0.0001845917 0.7322463
vt 0.0001043603 0.8484283
vt 4.805937E-05 0.929964
vt 0 0.9997641

g Stone Brick Wall
usemtl Stone Brick Wall
usemap Stone Brick Wall
f 2/2/2 1/1/1 3/3/3
f 3/3/3 1/1/1 4/4/4
f 5/5/5 1/1/1 2/2/2
f 6/6/6 1/1/1 5/5/5
f 7/7/7 4/4/4 1/1/1
f 8/8/8 4/4/4 7/7/7
f 7/7/7 9/9/9 8/8/8
f 8/8/8 9/9/9 10/10/10
f 11/11/11 10/10/10 9/9/9
f 12/12/12 10/10/10 11/11/11
f 13/13/13 12/12/12 11/11/11
f 14/14/14 12/12/12 13/13/13
f 15/15/15 14/14/14 13/13/13
f 16/16/16 14/14/14 15/15/15
f 16/16/16 15/15/15 17/17/17
f 17/17/17 15/15/15 18/18/18
f 17/17/17 18/18/18 19/19/19
f 19/19/19 18/18/18 20/20/20
f 19/19/19 20/20/20 21/21/21
f 21/21/21 20/20/20 22/22/22
f 22/22/22 23/23/23 21/21/21
f 24/24/24 23/23/23 22/22/22
f 24/24/24 25/25/25 23/23/23
f 26/26/26 25/25/25 24/24/24
f 26/26/26 27/27/27 25/25/25
f 25/25/25 27/27/27 28/28/28
f 26/26/26 29/29/29 27/27/27
f 27/27/27 29/29/29 30/30/30
f 32/32/32 31/31/31 33/33/33
f 33/33/33 31/31/31 34/34/34
f 31/31/31 32/32/32 35/35/35
f 35/35/35 32/32/32 36/36/36
f 33/33/33 37/37/37 32/32/32
f 38/38/38 37/37/37 33/33/33
f 38/38/38 39/39/39 37/37/37
f 40/40/40 39/39/39 38/38/38
f 40/40/40 41/41/41 39/39/39
f 42/42/42 41/41/41 40/40/40
f 42/42/42 43/43/43 41/41/41
f 44/44/44 43/43/43 42/42/42
f 44/44/44 45/45/45 43/43/43
f 46/46/46 45/45/45 44/44/44
f 47/47/47 45/45/45 46/46/46
f 48/48/48 45/45/45 47/47/47
f 49/49/49 48/48/48 47/47/47
f 50/50/50 48/48/48 49/49/49
f 51/51/51 50/50/50 49/49/49
f 52/52/52 50/50/50 51/51/51
f 53/53/53 52/52/52 51/51/51
f 54/54/54 52/52/52 53/53/53
f 55/55/55 54/54/54 53/53/53
f 56/56/56 54/54/54 55/55/55
f 57/57/57 56/56/56 55/55/55
f 58/58/58 56/56/56 57/57/57
f 58/58/58 59/59/59 56/56/56
f 60/60/60 59/59/59 58/58/58

g Default-Material
usemtl Default-Material
usemap Default-Material
f 62/62/62 61/61/61 63/63/63
f 64/64/64 62/62/62 63/63/63
f 65/65/65 61/61/61 66/66/66
f 66/66/66 61/61/61 62/62/62
f 68/68/68 67/67/67 69/69/69
f 69/69/69 67/67/67 70/70/70
f 67/67/67 68/68/68 71/71/71
f 72/72/72 67/67/67 71/71/71

g Default_Prototype 1
usemtl Default_Prototype 1
usemap Default_Prototype 1
f 74/74/74 73/73/73 75/75/75
f 75/75/75 73/73/73 76/76/76
f 73/73/73 77/77/77 76/76/76
f 76/76/76 77/77/77 78/78/78
f 77/77/77 79/79/79 78/78/78
f 80/80/80 79/79/79 77/77/77
f 80/80/80 81/81/81 79/79/79
f 82/82/82 81/81/81 80/80/80
f 82/82/82 83/83/83 81/81/81
f 84/84/84 83/83/83 82/82/82
f 84/84/84 85/85/85 83/83/83
f 86/86/86 85/85/85 84/84/84
f 86/86/86 87/87/87 85/85/85
f 88/88/88 87/87/87 86/86/86
f 88/88/88 89/89/89 87/87/87
f 90/90/90 89/89/89 88/88/88
f 90/90/90 91/91/91 89/89/89
f 89/89/89 91/91/91 92/92/92
f 91/91/91 93/93/93 92/92/92
f 92/92/92 93/93/93 94/94/94
f 84/84/84 82/82/82 95/95/95
f 96/96/96 84/84/84 95/95/95
f 86/86/86 84/84/84 96/96/96
f 97/97/97 86/86/86 96/96/96
f 88/88/88 86/86/86 97/97/97
f 98/98/98 88/88/88 97/97/97
f 90/90/90 88/88/88 98/98/98
f 99/99/99 90/90/90 98/98/98
f 91/91/91 90/90/90 99/99/99
f 100/100/100 91/91/91 99/99/99
f 93/93/93 91/91/91 100/100/100
f 101/101/101 93/93/93 100/100/100
f 82/82/82 80/80/80 102/102/102
f 95/95/95 82/82/82 102/102/102
f 80/80/80 77/77/77 103/103/103
f 102/102/102 80/80/80 103/103/103
f 77/77/77 73/73/73 104/104/104
f 103/103/103 77/77/77 104/104/104
f 73/73/73 74/74/74 105/105/105
f 104/104/104 73/73/73 105/105/105
