mtllib ./WallDoubleSquare_05.mtl
g WallDoubleSquare_05
v -1.499374 2.500319 -0.2499988
v -1.500656 6.78209E-07 -0.2499992
v -1.500656 3.161414E-07 0.2499996
v -1.499374 2.500319 0.2500012
v 1.501278 2.500319 -0.2499992
v 1.501278 2.500319 0.2500014
v 1.499344 -2.143479E-07 0.2499997
v 1.499344 1.477198E-07 -0.2499996
v 0.0009525535 2.500319 -0.249999
v -1.499374 2.500319 -0.2499988
v -1.499374 2.500319 0.2500012
v 0.0009524655 2.500319 0.2500013
v 1.501278 2.500319 -0.2499992
v 1.501278 2.500319 0.2500014
v -1.499374 2.500319 0.2500012
v -2.5 2.502044 0.2500001
v -2.499999 5.000001 0.2500015
v -1.483578 5 0.2500027
v -2.500001 -3.257679E-08 0.2499985
v -1.500656 3.161414E-07 0.2499996
v 0.0009524655 2.500319 0.2500013
v 0.02077087 5 0.2500028
v 1.501278 2.500319 0.2500014
v 1.52512 5 0.2500029
v 2.5 2.502044 0.2500001
v 2.500001 5 0.2500015
v 1.499344 -2.143479E-07 0.2499997
v 2.499999 0 0.2499985
v -2.5 2.502045 -0.2499999
v -1.499374 2.500319 -0.2499988
v -1.483578 5.000001 -0.2499984
v -2.499999 5.000002 -0.2499996
v -2.500001 1.198115E-06 -0.2500004
v -1.500656 6.78209E-07 -0.2499992
v 0.0009525535 2.500319 -0.249999
v 0.02077096 5 -0.2499985
v 1.501278 2.500319 -0.2499992
v 1.52512 5 -0.2499987
v 2.500001 4.999999 -0.2499996
v 2.5 2.502043 -0.25
v 1.499344 1.477198E-07 -0.2499996
v 2.499999 -4.312844E-07 -0.2500004

vn 0.9999999 -0.0005126775 -4.015935E-10
vn 0.9999999 -0.0005126775 -5.587236E-10
vn 0.9999999 -0.0005126775 -4.015935E-10
vn 0.9999999 -0.0005126775 -2.444637E-10
vn -0.9999997 0.0007736171 5.569262E-10
vn -0.9999997 0.000773617 3.688889E-10
vn -0.9999997 0.0007736171 5.569262E-10
vn -0.9999998 0.0007736171 7.449639E-10
vn -1.589112E-07 -1 -4.76837E-07
vn -1.589112E-07 -1 -4.768372E-07
vn -1.589112E-07 -1 -4.768371E-07
vn -1.589112E-07 -0.9999999 -4.768368E-07
vn -1.589112E-07 -1 -4.768368E-07
vn -1.589112E-07 -1 -4.768366E-07
vn -8.268519E-07 -6.247835E-07 1
vn -1.07328E-06 -6.198877E-07 0.9999999
vn -1.123424E-06 -5.927773E-07 1
vn -3.409288E-07 -6.088686E-07 1
vn -1.08837E-06 -6.6102E-07 1
vn -1.103408E-06 -6.550018E-07 1
vn -5.292314E-08 -6.036867E-07 0.9999999
vn -5.287593E-08 -6.036161E-07 1
vn 4.65201E-07 -6.221857E-07 1
vn 7.199682E-07 -6.098265E-07 1
vn 1.298251E-06 -6.324356E-07 1
vn 1.40623E-06 -5.726733E-07 1
vn 1.267565E-06 -6.617894E-07 0.9999999
vn 1.280661E-06 -6.670272E-07 1
vn 1.145797E-06 1.644038E-07 -1
vn 7.418406E-07 1.653949E-07 -1
vn 4.035074E-07 1.682423E-07 -1
vn 1.172834E-06 1.431677E-07 -0.9999999
vn 1.192253E-06 1.665084E-07 -1
vn 1.252518E-06 1.423908E-07 -1
vn -1.058461E-07 1.835933E-07 -0.9999999
vn -1.057517E-07 1.916615E-07 -1
vn -4.837244E-07 1.809204E-07 -0.9999999
vn -4.447695E-07 1.950013E-07 -1
vn -8.759764E-07 1.711509E-07 -1
vn -8.053513E-07 1.59152E-07 -1
vn -8.050576E-07 1.671256E-07 -1
vn -8.041359E-07 1.66757E-07 -1

vt 0.800275 0.5000058
vt 0.8005193 0.0001267791
vt 0.7005565 7.785857E-05
vt 0.7003119 0.499957
vt 0.2001388 0.5000058
vt 0.3001021 0.5000829
vt 0.3004876 0.0002030581
vt 0.2005245 0.0001259595
vt 0.4999999 5.960964E-08
vt 0 1.192193E-07
vt 0 0.1666309
vt 0.4999999 0.1666309
vt 1 0
vt 1 0.166631
vt 0.199732 0.4999016
vt 1.341105E-06 0.5002465
vt 1.2815E-06 0.999653
vt 0.202891 0.999653
vt 1.370907E-06 2.253969E-05
vt 0.1994759 2.250989E-05
vt 0.4997967 0.4999014
vt 0.5037601 0.9996534
vt 0.7998613 0.4999013
vt 0.8046293 0.9996534
vt 0.9999998 0.5002463
vt 0.9999993 0.9996536
vt 0.7994751 1.985845E-05
vt 1.000001 2.015638E-05
vt 0.9999995 0.5003512
vt 0.8002685 0.5000058
vt 0.7971094 0.9997578
vt 0.9999992 0.9997581
vt 1 0.0001272192
vt 0.8005258 0.0001267723
vt 0.5002036 0.5000058
vt 0.4962401 0.9997578
vt 0.2001387 0.5000058
vt 0.1953708 0.999758
vt 9.536743E-07 0.999758
vt 5.066395E-07 0.5003508
vt 0.2005247 0.0001259679
vt -1.192093E-07 0.0001262062

g Default-Material
usemtl Default-Material
usemap Default-Material
f 2/2/2 1/1/1 3/3/3
f 3/3/3 1/1/1 4/4/4
f 6/6/6 5/5/5 7/7/7
f 7/7/7 5/5/5 8/8/8

g Default_Prototype 1
usemtl Default_Prototype 1
usemap Default_Prototype 1
f 10/10/10 9/9/9 11/11/11
f 11/11/11 9/9/9 12/12/12
f 9/9/9 13/13/13 12/12/12
f 12/12/12 13/13/13 14/14/14

g Stone Brick Wall
usemtl Stone Brick Wall
usemap Stone Brick Wall
f 16/16/16 15/15/15 17/17/17
f 17/17/17 15/15/15 18/18/18
f 19/19/19 15/15/15 16/16/16
f 20/20/20 15/15/15 19/19/19
f 21/21/21 18/18/18 15/15/15
f 22/22/22 18/18/18 21/21/21
f 21/21/21 23/23/23 22/22/22
f 22/22/22 23/23/23 24/24/24
f 23/23/23 25/25/25 24/24/24
f 24/24/24 25/25/25 26/26/26
f 23/23/23 27/27/27 25/25/25
f 25/25/25 27/27/27 28/28/28
f 30/30/30 29/29/29 31/31/31
f 31/31/31 29/29/29 32/32/32
f 30/30/30 33/33/33 29/29/29
f 34/34/34 33/33/33 30/30/30
f 31/31/31 35/35/35 30/30/30
f 36/36/36 35/35/35 31/31/31
f 36/36/36 37/37/37 35/35/35
f 38/38/38 37/37/37 36/36/36
f 39/39/39 37/37/37 38/38/38
f 40/40/40 37/37/37 39/39/39
f 37/37/37 40/40/40 41/41/41
f 41/41/41 40/40/40 42/42/42
