mtllib ./WallPointed_1.mtl
g WallPointed_1
v -0.7493587 2.502739 -0.4944223
v -0.7499996 2.327585E-07 -0.4999984
v -0.7499997 -2.344862E-10 0.4999985
v -0.7493588 2.502739 0.4944239
v 0.7509673 2.502739 -0.4944223
v 0.7509672 2.502739 0.4944239
v 0.7500001 -3.519679E-07 0.4999989
v 0.7500003 -1.189747E-07 -0.4999986
v -0.6772533 2.747 -0.4944225
v -0.7493587 2.502739 -0.4944223
v -0.7493588 2.502739 0.4944239
v -0.6772535 2.747 0.4944239
v -0.5988209 2.943294 -0.4944225
v -0.5988209 2.943294 0.4944238
v -0.4998402 3.113498 -0.4944225
v -0.4998402 3.113498 0.4944238
v -0.3599991 3.303135 -0.4944225
v -0.3599992 3.303135 0.4944238
v -0.1945741 3.472207 -0.4944225
v -0.1945741 3.472207 0.4944237
v 0.0008043647 3.646803 -0.4944226
v 0.0008042455 3.646803 0.4944237
v 0.196182 3.472207 -0.4944225
v 0.196182 3.472207 0.4944237
v 0.3616077 3.303135 -0.4944225
v 0.3616076 3.303135 0.4944238
v 0.501453 3.113497 -0.4944225
v 0.501453 3.113497 0.4944238
v 0.6004382 2.943293 -0.4944225
v 0.6004381 2.943293 0.4944238
v 0.6788728 2.747 -0.4944225
v 0.6788726 2.747 0.4944239
v 0.7509673 2.502739 -0.4944223
v 0.7509672 2.502739 0.4944239
v -0.7493588 2.502739 0.4944239
v -2.5 2.504464 0.5000001
v -2.499999 5 0.500001
v -0.7414612 5 0.5000006
v -2.5 -6.67161E-08 0.4999989
v -0.7499997 -2.344862E-10 0.4999985
v -0.6772535 2.747 0.4944239
v -0.6477017 5 0.5000007
v -0.5988209 2.943294 0.4944238
v -0.5539424 5 0.5000006
v -0.4998402 3.113498 0.4944238
v -0.460183 5.000001 0.5000006
v -0.3599992 3.303135 0.4944238
v -0.3664236 5.000001 0.5000006
v -0.1945741 3.472207 0.4944237
v -0.1789401 5.000001 0.5000006
v 0.0008042455 3.646803 0.4944237
v 0.008543372 5.000001 0.5000006
v 0.1967815 5.000001 0.5000006
v 0.196182 3.472207 0.4944237
v 0.3850195 5.000001 0.5000007
v 0.3616076 3.303135 0.4944238
v 0.4794865 5.000001 0.5000007
v 0.501453 3.113497 0.4944238
v 0.5739536 5 0.5000008
v 0.6004381 2.943293 0.4944238
v 0.6684207 5 0.500001
v 0.6788726 2.747 0.4944239
v 0.7628877 5 0.500001
v 0.7509672 2.502739 0.4944239
v 2.5 2.504463 0.5000001
v 2.500001 5 0.500001
v 0.7500001 -3.519679E-07 0.4999989
v 2.5 -4.706742E-08 0.4999989
v -2.5 2.504464 -0.4999999
v -0.7493587 2.502739 -0.4944223
v -0.741461 5 -0.4999986
v -2.499999 5 -0.5
v -2.5 -7.214186E-08 -0.4999999
v -0.7499996 2.327585E-07 -0.4999984
v -0.6772533 2.747 -0.4944225
v -0.6477016 5 -0.4999986
v -0.5988209 2.943294 -0.4944225
v -0.5539423 5 -0.4999986
v -0.4998402 3.113498 -0.4944225
v -0.4601829 5.000001 -0.4999986
v -0.3599991 3.303135 -0.4944225
v -0.3664235 5.000001 -0.4999986
v -0.1945741 3.472207 -0.4944225
v -0.17894 5.000001 -0.4999986
v 0.0008043647 3.646803 -0.4944226
v 0.008543432 5.000001 -0.4999986
v 0.1967815 5.000001 -0.4999986
v 0.196182 3.472207 -0.4944225
v 0.3850196 5.000001 -0.4999986
v 0.3616077 3.303135 -0.4944225
v 0.4794866 5.000001 -0.4999986
v 0.501453 3.113497 -0.4944225
v 0.5739537 5 -0.4999986
v 0.6004382 2.943293 -0.4944225
v 0.6684209 5 -0.4999986
v 0.6788728 2.747 -0.4944225
v 0.7628879 5 -0.4999986
v 0.7509673 2.502739 -0.4944223
v 2.500001 5 -0.5
v 2.5 2.504463 -0.4999999
v 0.7500003 -1.189747E-07 -0.4999986
v 2.5 -5.249317E-08 -0.4999999

vn 1 -0.0002560671 1.198358E-07
vn 1 -0.0002560674 1.191257E-07
vn 1 -0.0002560671 1.198358E-07
vn 1 -0.0002560668 1.205539E-07
vn -0.9999999 0.0003864108 -1.797793E-07
vn -0.9999999 0.0003864343 -1.205539E-07
vn -0.9999999 0.0003864108 -1.797793E-07
vn -0.9999999 0.0003863875 -2.383443E-07
vn 0.9510022 -0.3091837 2.393347E-07
vn 0.9590845 -0.28312 1.18338E-07
vn 0.9590846 -0.2831196 2.089216E-07
vn 0.9410265 -0.3383329 2.10128E-07
vn 0.9103474 -0.4138448 1.066421E-07
vn 0.8890342 -0.4578407 0
vn 0.8433001 -0.537443 0
vn 0.8234143 -0.5674405 1.712944E-08
vn 0.7764081 -0.6302306 2.952032E-08
vn 0.7463182 -0.6655894 4.389292E-08
vn 0.6978677 -0.7162267 3.694455E-08
vn 0.6817285 -0.7316054 5.100361E-08
vn 0.2854808 -0.9583844 1.593617E-08
vn -0.2854822 -0.958384 -1.359161E-08
vn -0.6817291 -0.7316048 -5.101015E-08
vn -0.6978671 -0.7162272 -5.48841E-08
vn -0.7463144 -0.6655936 -7.410294E-08
vn -0.7764024 -0.6302375 -6.086374E-08
vn -0.8234061 -0.5674526 -3.387229E-08
vn -0.8432912 -0.537457 -3.264486E-08
vn -0.8890269 -0.4578549 -7.299118E-08
vn -0.910342 -0.4138567 -1.09554E-07
vn -0.9410294 -0.3383249 -1.142923E-07
vn -0.9510102 -0.3091597 -1.156088E-07
vn -0.9590961 -0.2830808 -1.169811E-07
vn -0.9590961 -0.2830808 -1.156228E-07
vn 0.001652039 -2.581725E-05 0.9999987
vn 0.003185248 -4.060124E-07 0.9999949
vn 0.001588596 -0.001119633 0.9999982
vn 0.0002850505 -0.002244733 0.9999974
vn 0.001593605 0.001112869 0.9999981
vn 2.726047E-07 0.002227388 0.9999975
vn 0.004384762 -0.002431589 0.9999874
vn 0.001904072 -0.002579486 0.9999948
vn 0.003652546 -0.002702029 0.9999897
vn 0.001678491 -0.002824623 0.9999946
vn 0.003189846 -0.002948193 0.9999906
vn 0.001785628 -0.003082416 0.9999937
vn 0.002869467 -0.003191814 0.9999909
vn 0.001296496 -0.003424841 0.9999933
vn 0.002218369 -0.003538999 0.9999913
vn 0.001164831 -0.003805096 0.9999921
vn -1.213975E-09 -0.003876058 0.9999925
vn 0 -0.004121203 0.9999916
vn -0.001158112 -0.003792442 0.9999921
vn -0.002201128 -0.003515978 0.9999914
vn -0.001287519 -0.003411581 0.9999933
vn -0.002839247 -0.003163831 0.999991
vn -0.00176844 -0.003065323 0.9999938
vn -0.003151054 -0.002918271 0.9999908
vn -0.001661541 -0.002809269 0.9999946
vn -0.003599012 -0.002669433 0.9999899
vn -0.001882346 -0.002563017 0.999995
vn -0.004307359 -0.002395228 0.9999879
vn -0.001679176 -0.001167049 0.9999979
vn -0.003275432 -3.739428E-05 0.9999947
vn -0.001596607 3.697931E-06 0.9999988
vn -3.431248E-08 -3.582675E-07 1
vn -0.001594219 0.001113465 0.9999982
vn -3.405972E-08 -4.759873E-07 1
vn 0.002121845 -0.0007460215 -0.9999974
vn 0.002197145 -3.380731E-05 -0.9999976
vn 0.001670457 -0.001172842 -0.9999979
vn 7.965191E-07 -4.776924E-08 -1
vn 0.001594269 0.001113392 -0.9999982
vn 8.68134E-07 0.002227959 -0.9999975
vn 0.004384018 -0.00243131 -0.9999875
vn 0.00190364 -0.002579158 -0.9999948
vn 0.003651424 -0.00270169 -0.9999896
vn 0.001677861 -0.002824282 -0.9999946
vn 0.003189471 -0.002947847 -0.9999906
vn 0.001785418 -0.003082054 -0.9999937
vn 0.002868985 -0.003191439 -0.9999909
vn 0.001296205 -0.003424423 -0.9999933
vn 0.002217768 -0.003538555 -0.9999914
vn 0.001164463 -0.003804579 -0.9999921
vn -1.213975E-09 -0.003875518 -0.9999925
vn 0 -0.004120586 -0.9999916
vn -0.001157531 -0.003791929 -0.9999922
vn -0.0022003 -0.003515517 -0.9999914
vn -0.001286954 -0.003411125 -0.9999934
vn -0.002838709 -0.003163394 -0.999991
vn -0.001767816 -0.003064892 -0.9999937
vn -0.003150229 -0.002917842 -0.9999907
vn -0.00166045 -0.002808828 -0.9999947
vn -0.003597745 -0.002668991 -0.99999
vn -0.00188137 -0.002562582 -0.999995
vn -0.004305914 -0.002394835 -0.9999878
vn -0.0002884058 -0.002242447 -0.9999974
vn -0.002205579 -2.490702E-05 -0.9999976
vn -0.001599762 -0.001113061 -0.9999981
vn -0.002125021 0.0007434854 -0.9999975
vn -0.001594934 0.001113953 -0.9999982
vn -7.32286E-07 2.091353E-13 -1

vt 0.6498656 0.5005513
vt 0.6500032 4.917383E-06
vt 0.4500053 0.0003954917
vt 0.4520978 0.5009376
vt 0.3498128 0.5005506
vt 0.5475804 0.5010616
vt 0.5499887 0.000520885
vt 0.3499909 4.202127E-06
vt -2.82377E-05 0.9503216
vt -9.11206E-05 0.9983
vt 0.3340327 1
vt 0.3340957 0.9520217
vt 4.023314E-05 0.8981332
vt 0.3341641 0.8998335
vt 0.000126645 0.8322725
vt 0.3342506 0.8339727
vt 0.0002487898 0.7392238
vt 0.3343727 0.7409238
vt 0.0003931969 0.6291516
vt 0.3345171 0.6308518
vt 0.0005636811 0.4991489
vt 0.3346877 0.500849
vt 0.0007343143 0.3691471
vt 0.3348582 0.3708471
vt 0.0008787662 0.2590749
vt 0.3350027 0.2607749
vt 0.001000822 0.1660236
vt 0.3351247 0.1677237
vt 0.001087263 0.1001601
vt 0.3352112 0.1018601
vt 0.001155749 0.04797071
vt 0.3352796 0.04967096
vt 0.001218736 5.960464E-08
vt 0.3353425 0.001700312
vt 0.3501186 0.5005485
vt -9.417534E-06 0.5008906
vt -9.417534E-06 0.9999933
vt 0.3516981 0.9999964
vt -9.596348E-06 1.996756E-06
vt 0.3499904 5.125999E-06
vt 0.3645609 0.5493958
vt 0.37045 0.9999965
vt 0.3802459 0.5886547
vt 0.3892018 0.9999968
vt 0.4000322 0.6226975
vt 0.4079537 0.999997
vt 0.4279905 0.6606271
vt 0.4267056 0.9999971
vt 0.4610732 0.6944419
vt 0.4642023 0.9999975
vt 0.5001512 0.7293608
vt 0.501699 0.9999979
vt 0.5393466 0.9999982
vt 0.5392244 0.6944426
vt 0.5769942 0.9999986
vt 0.5723118 0.6606284
vt 0.5958876 0.9999987
vt 0.6002908 0.6226992
vt 0.614781 0.9999988
vt 0.6200976 0.5886567
vt 0.6336744 0.9999989
vt 0.6357862 0.5493981
vt 0.6525679 0.9999992
vt 0.6501837 0.5005513
vt 0.9999905 0.5008993
vt 0.9999905 1.000002
vt 0.6499903 7.808208E-06
vt 0.9999903 1.093745E-05
vt 0.9999984 0.5008973
vt 0.6498703 0.5005513
vt 0.6482908 1.000002
vt 0.9999983 1.000003
vt 0.9999985 5.781651E-06
vt 0.6499985 4.917383E-06
vt 0.6354527 0.5493962
vt 0.6295389 1.000002
vt 0.619766 0.5886554
vt 0.610787 1.000002
vt 0.5999683 0.6226993
vt 0.5920352 1.000002
vt 0.5719984 0.66063
vt 0.5732833 1.000002
vt 0.538913 0.694445
vt 0.5357866 1.000002
vt 0.4998377 0.7293632
vt 0.4982899 1.000002
vt 0.4606423 1.000002
vt 0.4607618 0.6944447
vt 0.4229947 1.000002
vt 0.4276771 0.6606297
vt 0.4041013 1.000002
vt 0.3997096 0.6226987
vt 0.3852079 1.000002
vt 0.3799142 0.5886546
vt 0.3663145 1.000002
vt 0.3642275 0.5493954
vt 0.3474211 1.000002
vt 0.3498051 0.5005506
vt -1.549721E-06 1.000001
vt -1.490116E-06 0.5008946
vt 0.3499986 4.142523E-06
vt -1.370907E-06 3.278255E-06

g Default-Material
usemtl Default-Material
usemap Default-Material
f 2/2/2 1/1/1 3/3/3
f 3/3/3 1/1/1 4/4/4
f 6/6/6 5/5/5 7/7/7
f 7/7/7 5/5/5 8/8/8

g Default_Prototype 1
usemtl Default_Prototype 1
usemap Default_Prototype 1
f 10/10/10 9/9/9 11/11/11
f 11/11/11 9/9/9 12/12/12
f 9/9/9 13/13/13 12/12/12
f 12/12/12 13/13/13 14/14/14
f 13/13/13 15/15/15 14/14/14
f 14/14/14 15/15/15 16/16/16
f 15/15/15 17/17/17 16/16/16
f 16/16/16 17/17/17 18/18/18
f 17/17/17 19/19/19 18/18/18
f 18/18/18 19/19/19 20/20/20
f 19/19/19 21/21/21 20/20/20
f 20/20/20 21/21/21 22/22/22
f 21/21/21 23/23/23 22/22/22
f 22/22/22 23/23/23 24/24/24
f 23/23/23 25/25/25 24/24/24
f 24/24/24 25/25/25 26/26/26
f 25/25/25 27/27/27 26/26/26
f 26/26/26 27/27/27 28/28/28
f 27/27/27 29/29/29 28/28/28
f 28/28/28 29/29/29 30/30/30
f 29/29/29 31/31/31 30/30/30
f 30/30/30 31/31/31 32/32/32
f 31/31/31 33/33/33 32/32/32
f 32/32/32 33/33/33 34/34/34

g Stone Brick Wall
usemtl Stone Brick Wall
usemap Stone Brick Wall
f 36/36/36 35/35/35 37/37/37
f 37/37/37 35/35/35 38/38/38
f 39/39/39 35/35/35 36/36/36
f 40/40/40 35/35/35 39/39/39
f 41/41/41 38/38/38 35/35/35
f 42/42/42 38/38/38 41/41/41
f 41/41/41 43/43/43 42/42/42
f 42/42/42 43/43/43 44/44/44
f 43/43/43 45/45/45 44/44/44
f 44/44/44 45/45/45 46/46/46
f 45/45/45 47/47/47 46/46/46
f 46/46/46 47/47/47 48/48/48
f 49/49/49 48/48/48 47/47/47
f 50/50/50 48/48/48 49/49/49
f 49/49/49 51/51/51 50/50/50
f 50/50/50 51/51/51 52/52/52
f 52/52/52 51/51/51 53/53/53
f 53/53/53 51/51/51 54/54/54
f 53/53/53 54/54/54 55/55/55
f 55/55/55 54/54/54 56/56/56
f 56/56/56 57/57/57 55/55/55
f 58/58/58 57/57/57 56/56/56
f 58/58/58 59/59/59 57/57/57
f 60/60/60 59/59/59 58/58/58
f 60/60/60 61/61/61 59/59/59
f 62/62/62 61/61/61 60/60/60
f 62/62/62 63/63/63 61/61/61
f 64/64/64 63/63/63 62/62/62
f 64/64/64 65/65/65 63/63/63
f 63/63/63 65/65/65 66/66/66
f 64/64/64 67/67/67 65/65/65
f 65/65/65 67/67/67 68/68/68
f 70/70/70 69/69/69 71/71/71
f 71/71/71 69/69/69 72/72/72
f 70/70/70 73/73/73 69/69/69
f 74/74/74 73/73/73 70/70/70
f 71/71/71 75/75/75 70/70/70
f 76/76/76 75/75/75 71/71/71
f 76/76/76 77/77/77 75/75/75
f 78/78/78 77/77/77 76/76/76
f 78/78/78 79/79/79 77/77/77
f 80/80/80 79/79/79 78/78/78
f 80/80/80 81/81/81 79/79/79
f 82/82/82 81/81/81 80/80/80
f 82/82/82 83/83/83 81/81/81
f 84/84/84 83/83/83 82/82/82
f 84/84/84 85/85/85 83/83/83
f 86/86/86 85/85/85 84/84/84
f 87/87/87 85/85/85 86/86/86
f 88/88/88 85/85/85 87/87/87
f 89/89/89 88/88/88 87/87/87
f 90/90/90 88/88/88 89/89/89
f 91/91/91 90/90/90 89/89/89
f 92/92/92 90/90/90 91/91/91
f 93/93/93 92/92/92 91/91/91
f 94/94/94 92/92/92 93/93/93
f 95/95/95 94/94/94 93/93/93
f 96/96/96 94/94/94 95/95/95
f 97/97/97 96/96/96 95/95/95
f 98/98/98 96/96/96 97/97/97
f 99/99/99 98/98/98 97/97/97
f 100/100/100 98/98/98 99/99/99
f 98/98/98 100/100/100 101/101/101
f 101/101/101 100/100/100 102/102/102
