mtllib ./WallPointed_015.mtl
g WallPointed_015
v -0.749359 2.502739 -0.06942251
v -0.7499998 2.923631E-07 -0.0749985
v -0.7499999 5.937017E-08 0.07499832
v -0.7493591 2.502739 0.06942374
v 0.7509671 2.502739 -0.06942251
v 0.750967 2.502739 0.06942374
v 0.7499998 -2.923632E-07 0.07499874
v 0.7500001 -5.937002E-08 -0.07499868
v -0.6772535 2.747 -0.06942254
v -0.749359 2.502739 -0.06942251
v -0.7493591 2.502739 0.06942374
v -0.6772538 2.747 0.06942371
v -0.5988211 2.943294 -0.06942257
v -0.5988211 2.943294 0.06942368
v -0.4998404 3.113498 -0.06942257
v -0.4998404 3.113498 0.06942368
v -0.3599993 3.303135 -0.0694226
v -0.3599994 3.303135 0.06942365
v -0.1945743 3.472207 -0.06942263
v -0.1945743 3.472207 0.06942362
v 0.0008041295 3.646803 -0.06942266
v 0.0008040413 3.646803 0.06942359
v 0.1961818 3.472207 -0.06942263
v 0.0008041295 3.646803 -0.06942266
v 0.0008040413 3.646803 0.06942359
v 0.1961817 3.472207 0.06942362
v 0.3616075 3.303135 -0.0694226
v 0.3616074 3.303135 0.06942365
v 0.5014527 3.113497 -0.06942257
v 0.5014527 3.113497 0.06942368
v 0.6004379 2.943293 -0.06942257
v 0.6004378 2.943293 0.06942368
v 0.6788725 2.747 -0.06942254
v 0.6788724 2.747 0.06942371
v 0.7509671 2.502739 -0.06942251
v 0.750967 2.502739 0.06942374
v -0.7493591 2.502739 0.06942374
v -2.5 2.504464 0.07500091
v -2.5 5 0.07500181
v -0.7414615 5 0.07500046
v -2.500001 -2.4553E-07 0.07499972
v -0.7499999 5.937017E-08 0.07499832
v -0.6772538 2.747 0.06942371
v -0.6477019 5 0.07500052
v -0.5988211 2.943294 0.06942368
v -0.5539426 5 0.07500046
v -0.4998404 3.113498 0.06942368
v -0.4601832 5.000001 0.07500046
v -0.3599994 3.303135 0.06942365
v -0.3664238 5.000001 0.07500041
v -0.1945743 3.472207 0.06942362
v -0.1789403 5.000001 0.07500041
v 0.0008040413 3.646803 0.06942359
v 0.008543141 5.000001 0.07500041
v 0.1967812 5.000001 0.07500046
v 0.1961817 3.472207 0.06942362
v 0.3850193 5.000001 0.07500058
v 0.3616074 3.303135 0.06942365
v 0.4794863 5.000001 0.07500061
v 0.5014527 3.113497 0.06942368
v 0.5739533 5 0.07500067
v 0.6004378 2.943293 0.06942368
v 0.6684205 5 0.07500079
v 0.6788724 2.747 0.06942371
v 0.7628874 5 0.07500085
v 0.750967 2.502739 0.06942374
v 2.5 2.504463 0.07500166
v 2.5 5 0.07500255
v 0.7499998 -2.923632E-07 0.07499874
v 2.499999 -2.258814E-07 0.07500049
v -2.499999 2.504465 -0.07499918
v -0.749359 2.502739 -0.06942251
v -0.7414612 5 -0.07499871
v -2.499999 5.000001 -0.0749993
v -2.5 7.027185E-07 -0.07499921
v -0.7499998 2.923631E-07 -0.0749985
v -0.6772535 2.747 -0.06942254
v -0.6477018 5 -0.07499871
v -0.5988211 2.943294 -0.06942257
v -0.5539425 5 -0.07499871
v -0.4998404 3.113498 -0.06942257
v -0.4601831 5.000001 -0.07499871
v -0.3599993 3.303135 -0.0694226
v -0.3664237 5.000001 -0.07499877
v -0.1945743 3.472207 -0.06942263
v -0.1789402 5.000001 -0.07499877
v 0.0008041295 3.646803 -0.06942266
v 0.00854323 5.000001 -0.07499877
v 0.1967813 5.000001 -0.07499877
v 0.1961818 3.472207 -0.06942263
v 0.3850194 5.000001 -0.07499871
v 0.3616075 3.303135 -0.0694226
v 0.4794864 5.000001 -0.07499877
v 0.5014527 3.113497 -0.06942257
v 0.5739534 5 -0.07499877
v 0.6004379 2.943293 -0.06942257
v 0.6684206 5 -0.07499871
v 0.6788725 2.747 -0.06942254
v 0.7628877 5 -0.07499877
v 0.7509671 2.502739 -0.06942251
v 2.5 5 -0.07499853
v 2.5 2.504463 -0.07499844
v 0.7500001 -5.937002E-08 -0.07499868
v 2.499999 7.111481E-09 -0.07499844

vn 0.9999999 -0.0002560671 8.251354E-07
vn 0.9999999 -0.0002560689 7.941858E-07
vn 0.9999999 -0.0002560671 8.251354E-07
vn 1 -0.0002560652 8.585705E-07
vn -0.9999999 0.0003864107 -1.237877E-06
vn -0.9999999 0.0003864327 -8.585704E-07
vn -0.9999999 0.0003864107 -1.237877E-06
vn -1 0.0003863906 -1.588986E-06
vn 0.9510024 -0.3091837 1.704513E-06
vn 0.9590845 -0.28312 8.427886E-07
vn 0.9590846 -0.2831196 1.487914E-06
vn 0.9410264 -0.3383329 1.496507E-06
vn 0.9103474 -0.4138448 7.59492E-07
vn 0.8890342 -0.4578408 0
vn 0.8433 -0.537443 0
vn 0.8234144 -0.5674406 1.219938E-07
vn 0.776408 -0.6302305 2.102401E-07
vn 0.7463182 -0.6655894 3.382584E-07
vn 0.6978678 -0.7162268 3.608462E-07
vn 0.6817284 -0.7316054 4.064736E-07
vn 0.2854809 -0.9583844 1.814357E-07
vn -0.2854822 -0.958384 -1.165978E-07
vn -0.681729 -0.7316047 -3.279953E-07
vn 0.2854809 -0.9583844 1.814357E-07
vn -0.2854822 -0.958384 -1.165978E-07
vn -0.6978671 -0.7162272 -2.920927E-07
vn -0.7463143 -0.6655936 -3.113007E-07
vn -0.7764024 -0.6302376 -2.167321E-07
vn -0.8234061 -0.5674525 -1.206172E-07
vn -0.8432912 -0.5374569 -2.324928E-07
vn -0.8890269 -0.4578549 -5.198344E-07
vn -0.910342 -0.4138568 -7.802303E-07
vn -0.9410294 -0.3383249 -8.139762E-07
vn -0.9510102 -0.3091597 -8.233519E-07
vn -0.9590961 -0.2830808 -8.331252E-07
vn -0.9590961 -0.2830808 -8.234516E-07
vn 0.001652573 -2.582363E-05 0.9999987
vn 0.003185775 -4.179289E-07 0.9999949
vn 0.00158914 -0.001119646 0.9999982
vn 0.0002856078 -0.002244734 0.9999974
vn 0.001594133 0.001112868 0.9999981
vn 8.00165E-07 0.002227388 0.9999975
vn 0.004385004 -0.002431582 0.9999874
vn 0.001903965 -0.002579474 0.9999948
vn 0.003652196 -0.002702019 0.9999897
vn 0.001678273 -0.002824618 0.9999946
vn 0.003189935 -0.002948195 0.9999905
vn 0.001785894 -0.003082412 0.9999936
vn 0.002869613 -0.003191804 0.9999909
vn 0.001296559 -0.003424815 0.9999933
vn 0.002218345 -0.003538968 0.9999913
vn 0.001164873 -0.003805063 0.9999921
vn -8.413376E-08 -0.003876036 0.9999925
vn -1.593633E-07 -0.00412118 0.9999916
vn -0.001158263 -0.003792435 0.9999922
vn -0.002201127 -0.003515984 0.9999914
vn -0.001287526 -0.003411592 0.9999933
vn -0.002839341 -0.003163849 0.999991
vn -0.00176844 -0.003065337 0.9999937
vn -0.003150968 -0.002918277 0.9999908
vn -0.001661336 -0.002809261 0.9999946
vn -0.003598885 -0.002669422 0.9999899
vn -0.001882461 -0.002563012 0.999995
vn -0.004307619 -0.002395232 0.9999879
vn -0.001680107 -0.001167053 0.9999979
vn -0.003276376 -3.739793E-05 0.9999947
vn -0.001597563 3.699157E-06 0.9999987
vn -9.779056E-07 -3.582674E-07 1
vn -0.001595181 0.001113471 0.9999982
vn -1.004764E-06 -4.640873E-07 1
vn 0.002121365 -0.0007460092 -0.9999975
vn 0.002196686 -3.379873E-05 -0.9999975
vn 0.001670024 -0.00117283 -0.9999979
vn 3.389444E-07 -4.776911E-08 -1
vn 0.001593794 0.001113393 -0.9999982
vn 4.09239E-07 0.002227948 -0.9999975
vn 0.00438428 -0.002431311 -0.9999875
vn 0.001903534 -0.002579165 -0.9999948
vn 0.003651314 -0.002701693 -0.9999897
vn 0.001677861 -0.002824282 -0.9999946
vn 0.003189381 -0.002947844 -0.9999906
vn 0.001785152 -0.003082057 -0.9999936
vn 0.002868694 -0.00319145 -0.9999909
vn 0.001296002 -0.003424435 -0.9999933
vn 0.002217874 -0.003538563 -0.9999913
vn 0.001164627 -0.0038046 -0.9999921
vn -1.161194E-09 -0.00387555 -0.9999925
vn 0 -0.004120653 -0.9999916
vn -0.001157585 -0.00379195 -0.9999921
vn -0.002200288 -0.003515512 -0.9999914
vn -0.001286892 -0.003411114 -0.9999933
vn -0.00283871 -0.003163392 -0.999991
vn -0.001767913 -0.003064908 -0.9999937
vn -0.003150176 -0.002917873 -0.9999907
vn -0.001660255 -0.002808855 -0.9999947
vn -0.003597438 -0.002669012 -0.99999
vn -0.001881284 -0.002562598 -0.999995
vn -0.004306432 -0.002394842 -0.9999878
vn -0.0002876167 -0.002242452 -0.9999974
vn -0.00220468 -2.491629E-05 -0.9999976
vn -0.001598831 -0.001113058 -0.9999981
vn -0.002124118 0.0007434774 -0.9999975
vn -0.00159404 0.001113935 -0.9999982
vn 1.362393E-07 -3.89089E-14 -1

vt 0.6498656 0.5005513
vt 0.6500032 4.857779E-06
vt 0.6200041 6.344914E-05
vt 0.6220966 0.5006056
vt 0.3498128 0.5005506
vt 0.3775818 0.5006224
vt 0.3799901 8.168817E-05
vt 0.3499909 4.202127E-06
vt 0.09262128 0.04805161
vt 0.09252754 0
vt 0 0.0001807303
vt 9.394001E-05 0.04823214
vt 0.09272336 0.1003192
vt 0.0001960228 0.1004999
vt 0.09285226 0.1662802
vt 0.0003249173 0.1664609
vt 0.09303418 0.2594707
vt 0.0005068391 0.2596514
vt 0.09324947 0.3697102
vt 0.0007221266 0.3698909
vt 0.09350388 0.4999108
vt 0.0009765392 0.5000916
vt 0.09375809 0.6301107
vt 0.09350388 0.4999108
vt 0.0009765392 0.5000916
vt 0.001230753 0.6302914
vt 0.09397338 0.7403504
vt 0.001446041 0.7405311
vt 0.0941555 0.8335435
vt 0.001628161 0.8337242
vt 0.09428439 0.8995072
vt 0.001756857 0.8996879
vt 0.09438648 0.9517758
vt 0.00185894 0.9519565
vt 0.09448022 0.9998197
vt 0.00195288 1
vt 0.3501186 0.5005485
vt -9.417534E-06 0.5008906
vt -9.417534E-06 0.9999933
vt 0.3516981 0.9999964
vt -9.596348E-06 1.996756E-06
vt 0.3499904 5.125999E-06
vt 0.3645609 0.5493958
vt 0.37045 0.9999965
vt 0.3802459 0.5886547
vt 0.3892018 0.9999968
vt 0.4000322 0.6226975
vt 0.4079537 0.999997
vt 0.4279905 0.6606271
vt 0.4267056 0.9999971
vt 0.4610732 0.6944419
vt 0.4642023 0.9999975
vt 0.5001512 0.7293608
vt 0.501699 0.9999979
vt 0.5393466 0.9999982
vt 0.5392244 0.6944426
vt 0.5769942 0.9999986
vt 0.5723118 0.6606284
vt 0.5958876 0.9999987
vt 0.6002908 0.6226992
vt 0.614781 0.9999988
vt 0.6200976 0.5886567
vt 0.6336744 0.9999989
vt 0.6357862 0.5493981
vt 0.6525679 0.9999992
vt 0.6501837 0.5005513
vt 0.9999905 0.5008993
vt 0.9999905 1.000002
vt 0.6499903 7.808208E-06
vt 0.9999903 1.093745E-05
vt 0.9999984 0.5008973
vt 0.6498703 0.5005513
vt 0.6482908 1.000002
vt 0.9999983 1.000003
vt 0.9999985 5.781651E-06
vt 0.6499985 4.917383E-06
vt 0.6354527 0.5493962
vt 0.6295389 1.000002
vt 0.619766 0.5886554
vt 0.610787 1.000002
vt 0.5999683 0.6226993
vt 0.5920352 1.000002
vt 0.5719984 0.66063
vt 0.5732833 1.000002
vt 0.538913 0.694445
vt 0.5357866 1.000002
vt 0.4998377 0.7293632
vt 0.4982899 1.000002
vt 0.4606423 1.000002
vt 0.4607618 0.6944447
vt 0.4229947 1.000002
vt 0.4276771 0.6606297
vt 0.4041013 1.000002
vt 0.3997096 0.6226987
vt 0.3852079 1.000002
vt 0.3799142 0.5886546
vt 0.3663145 1.000002
vt 0.3642275 0.5493954
vt 0.3474211 1.000002
vt 0.3498051 0.5005506
vt -1.549721E-06 1.000001
vt -1.490116E-06 0.5008946
vt 0.3499986 4.142523E-06
vt -1.370907E-06 3.278255E-06

g Default-Material
usemtl Default-Material
usemap Default-Material
f 2/2/2 1/1/1 3/3/3
f 3/3/3 1/1/1 4/4/4
f 6/6/6 5/5/5 7/7/7
f 7/7/7 5/5/5 8/8/8

g Default_Prototype 1
usemtl Default_Prototype 1
usemap Default_Prototype 1
f 10/10/10 9/9/9 11/11/11
f 11/11/11 9/9/9 12/12/12
f 9/9/9 13/13/13 12/12/12
f 12/12/12 13/13/13 14/14/14
f 13/13/13 15/15/15 14/14/14
f 14/14/14 15/15/15 16/16/16
f 15/15/15 17/17/17 16/16/16
f 16/16/16 17/17/17 18/18/18
f 17/17/17 19/19/19 18/18/18
f 18/18/18 19/19/19 20/20/20
f 19/19/19 21/21/21 20/20/20
f 20/20/20 21/21/21 22/22/22
f 24/24/24 23/23/23 25/25/25
f 25/25/25 23/23/23 26/26/26
f 23/23/23 27/27/27 26/26/26
f 26/26/26 27/27/27 28/28/28
f 27/27/27 29/29/29 28/28/28
f 28/28/28 29/29/29 30/30/30
f 29/29/29 31/31/31 30/30/30
f 30/30/30 31/31/31 32/32/32
f 31/31/31 33/33/33 32/32/32
f 32/32/32 33/33/33 34/34/34
f 33/33/33 35/35/35 34/34/34
f 34/34/34 35/35/35 36/36/36

g Stone Brick Wall
usemtl Stone Brick Wall
usemap Stone Brick Wall
f 38/38/38 37/37/37 39/39/39
f 39/39/39 37/37/37 40/40/40
f 41/41/41 37/37/37 38/38/38
f 42/42/42 37/37/37 41/41/41
f 43/43/43 40/40/40 37/37/37
f 44/44/44 40/40/40 43/43/43
f 43/43/43 45/45/45 44/44/44
f 44/44/44 45/45/45 46/46/46
f 45/45/45 47/47/47 46/46/46
f 46/46/46 47/47/47 48/48/48
f 47/47/47 49/49/49 48/48/48
f 48/48/48 49/49/49 50/50/50
f 51/51/51 50/50/50 49/49/49
f 52/52/52 50/50/50 51/51/51
f 51/51/51 53/53/53 52/52/52
f 52/52/52 53/53/53 54/54/54
f 54/54/54 53/53/53 55/55/55
f 55/55/55 53/53/53 56/56/56
f 55/55/55 56/56/56 57/57/57
f 57/57/57 56/56/56 58/58/58
f 58/58/58 59/59/59 57/57/57
f 60/60/60 59/59/59 58/58/58
f 60/60/60 61/61/61 59/59/59
f 62/62/62 61/61/61 60/60/60
f 62/62/62 63/63/63 61/61/61
f 64/64/64 63/63/63 62/62/62
f 64/64/64 65/65/65 63/63/63
f 66/66/66 65/65/65 64/64/64
f 66/66/66 67/67/67 65/65/65
f 65/65/65 67/67/67 68/68/68
f 66/66/66 69/69/69 67/67/67
f 67/67/67 69/69/69 70/70/70
f 72/72/72 71/71/71 73/73/73
f 73/73/73 71/71/71 74/74/74
f 72/72/72 75/75/75 71/71/71
f 76/76/76 75/75/75 72/72/72
f 73/73/73 77/77/77 72/72/72
f 78/78/78 77/77/77 73/73/73
f 78/78/78 79/79/79 77/77/77
f 80/80/80 79/79/79 78/78/78
f 80/80/80 81/81/81 79/79/79
f 82/82/82 81/81/81 80/80/80
f 82/82/82 83/83/83 81/81/81
f 84/84/84 83/83/83 82/82/82
f 84/84/84 85/85/85 83/83/83
f 86/86/86 85/85/85 84/84/84
f 86/86/86 87/87/87 85/85/85
f 88/88/88 87/87/87 86/86/86
f 89/89/89 87/87/87 88/88/88
f 90/90/90 87/87/87 89/89/89
f 91/91/91 90/90/90 89/89/89
f 92/92/92 90/90/90 91/91/91
f 93/93/93 92/92/92 91/91/91
f 94/94/94 92/92/92 93/93/93
f 95/95/95 94/94/94 93/93/93
f 96/96/96 94/94/94 95/95/95
f 97/97/97 96/96/96 95/95/95
f 98/98/98 96/96/96 97/97/97
f 99/99/99 98/98/98 97/97/97
f 100/100/100 98/98/98 99/99/99
f 101/101/101 100/100/100 99/99/99
f 102/102/102 100/100/100 101/101/101
f 100/100/100 102/102/102 103/103/103
f 103/103/103 102/102/102 104/104/104
