mtllib ./WallDoubleSquare_5.mtl
g WallDoubleSquare_5
v -1.498881 2.500319 -2.499998
v -1.500163 6.186044E-07 -2.499999
v -1.500163 2.565368E-07 2.5
v -1.498881 2.500319 2.500002
v 1.501771 2.500319 -2.499999
v 1.501771 2.500319 2.500002
v 1.499837 -2.739525E-07 2.500001
v 1.499837 8.811514E-08 -2.499999
v 0.001445007 2.500319 -2.499999
v -1.498881 2.500319 -2.499998
v -1.498881 2.500319 2.500002
v 0.001444919 2.500319 2.500002
v 1.501771 2.500319 -2.499999
v 1.501771 2.500319 2.500002
v -1.498881 2.500319 2.500002
v -2.5 2.502043 2.5
v -2.499999 5 2.500001
v -1.483086 5 2.500004
v -2.500001 -5.690186E-07 2.499999
v -1.500163 2.565368E-07 2.5
v 0.001444919 2.500319 2.500002
v 0.02126333 5 2.500004
v 1.501771 2.500319 2.500002
v 1.525612 5 2.500004
v 2.5 2.502044 2.5
v 2.500001 5 2.500001
v 1.499837 -2.739525E-07 2.500001
v 2.499999 -5.960464E-08 2.499999
v -2.5 2.502044 -2.5
v -1.498881 2.500319 -2.499998
v -1.483086 5.000001 -2.499998
v -2.499999 5 -2.5
v -2.500001 -4.768372E-07 -2.5
v -1.500163 6.186044E-07 -2.499999
v 0.001445007 2.500319 -2.499999
v 0.02126341 5 -2.499998
v 1.501771 2.500319 -2.499999
v 1.525612 5 -2.499998
v 2.500001 5 -2.5
v 2.5 2.502044 -2.5
v 1.499837 8.811514E-08 -2.499999
v 2.499999 2.243667E-07 -2.5

vn 0.9999999 -0.0005126775 -4.01593E-11
vn 0.9999999 -0.0005126776 -5.587223E-11
vn 0.9999999 -0.0005126775 -4.01593E-11
vn 0.9999998 -0.0005126775 -2.444637E-11
vn -0.9999996 0.000773617 3.706854E-11
vn -0.9999997 0.000773617 3.688893E-11
vn -0.9999996 0.000773617 3.706854E-11
vn -0.9999997 0.000773617 3.724815E-11
vn -1.589112E-07 -1 -4.768371E-08
vn -1.589112E-07 -1 -4.768372E-08
vn -1.589112E-07 -1 -4.768371E-08
vn -1.589112E-07 -1 -4.768371E-08
vn -1.589112E-07 -0.9999999 -4.768371E-08
vn -1.589112E-07 -1 -4.768371E-08
vn -1.598691E-06 -6.29818E-07 1
vn -2.144355E-06 -5.722036E-07 1
vn -2.245261E-06 -6.130844E-07 1
vn -6.521315E-07 -6.278579E-07 1
vn -2.026122E-06 -6.190759E-07 1
vn -1.907657E-06 -6.665088E-07 1
vn -5.292313E-08 -6.03708E-07 0.9999999
vn -3.025968E-14 -5.722775E-07 1
vn 9.539623E-07 -5.96203E-07 0.9999999
vn 1.3715E-06 -5.789327E-07 1
vn 2.342039E-06 -6.023682E-07 0.9999999
vn 2.446853E-06 -5.726737E-07 1
vn 2.267335E-06 -6.204726E-07 1
vn 2.145419E-06 -5.71738E-07 1
vn 2.132266E-06 5.875713E-08 -1
vn 1.112345E-06 1.252415E-07 -1
vn 6.643505E-07 1.12784E-07 -1
vn 2.110078E-06 -8.055896E-13 -1
vn 1.906683E-06 2.854782E-07 -1
vn 1.6692E-06 3.805653E-07 -0.9999999
vn -2.116923E-07 2.557969E-07 -0.9999999
vn 1.008656E-13 3.815184E-07 -1
vn -7.580534E-07 2.576489E-07 -1
vn -8.656694E-07 3.89775E-07 -1
vn -1.692271E-06 1.988984E-07 -1
vn -1.352685E-06 6.396576E-08 -0.9999999
vn -1.431746E-06 9.58763E-08 -1
vn -1.668659E-06 1.905797E-07 -1

vt 0.9997554 0.5004301
vt 1 0.0004885361
vt 0.0002446481 0
vt 0 0.4999416
vt 0 0.4998711
vt 0.9996147 0.5006427
vt 1 0.0007714495
vt 0.0003858141 0
vt 0.3000649 0
vt 0 2.385064E-07
vt 0 1
vt 0.3000649 1
vt 0.6001297 0
vt 0.6001297 1
vt 0.199732 0.4999016
vt 1.341105E-06 0.5002465
vt 1.2815E-06 0.999653
vt 0.202891 0.999653
vt 1.370907E-06 2.253969E-05
vt 0.1994759 2.250989E-05
vt 0.4997967 0.4999014
vt 0.5037601 0.9996534
vt 0.7998613 0.4999013
vt 0.8046293 0.9996534
vt 0.9999998 0.5002463
vt 0.9999993 0.9996536
vt 0.7994751 1.985845E-05
vt 1.000001 2.015638E-05
vt 0.9999995 0.5003512
vt 0.8002685 0.5000058
vt 0.7971094 0.9997578
vt 0.9999992 0.9997581
vt 1 0.0001272192
vt 0.8005258 0.0001267723
vt 0.5002036 0.5000058
vt 0.4962401 0.9997578
vt 0.2001387 0.5000058
vt 0.1953708 0.999758
vt 9.536743E-07 0.999758
vt 5.066395E-07 0.5003508
vt 0.2005247 0.0001259679
vt -1.192093E-07 0.0001262062

g Default-Material
usemtl Default-Material
usemap Default-Material
f 2/2/2 1/1/1 3/3/3
f 3/3/3 1/1/1 4/4/4
f 6/6/6 5/5/5 7/7/7
f 7/7/7 5/5/5 8/8/8

g Default_Prototype 1
usemtl Default_Prototype 1
usemap Default_Prototype 1
f 10/10/10 9/9/9 11/11/11
f 11/11/11 9/9/9 12/12/12
f 9/9/9 13/13/13 12/12/12
f 12/12/12 13/13/13 14/14/14

g Stone Brick Wall
usemtl Stone Brick Wall
usemap Stone Brick Wall
f 16/16/16 15/15/15 17/17/17
f 17/17/17 15/15/15 18/18/18
f 19/19/19 15/15/15 16/16/16
f 20/20/20 15/15/15 19/19/19
f 21/21/21 18/18/18 15/15/15
f 22/22/22 18/18/18 21/21/21
f 21/21/21 23/23/23 22/22/22
f 22/22/22 23/23/23 24/24/24
f 23/23/23 25/25/25 24/24/24
f 24/24/24 25/25/25 26/26/26
f 23/23/23 27/27/27 25/25/25
f 25/25/25 27/27/27 28/28/28
f 30/30/30 29/29/29 31/31/31
f 31/31/31 29/29/29 32/32/32
f 30/30/30 33/33/33 29/29/29
f 34/34/34 33/33/33 30/30/30
f 31/31/31 35/35/35 30/30/30
f 36/36/36 35/35/35 31/31/31
f 36/36/36 37/37/37 35/35/35
f 38/38/38 37/37/37 36/36/36
f 39/39/39 37/37/37 38/38/38
f 40/40/40 37/37/37 39/39/39
f 37/37/37 40/40/40 41/41/41
f 41/41/41 40/40/40 42/42/42
