mtllib ./WallArch_5.mtl
g WallArch_5
v -0.7493578 2.493333 2.505968
v -2.5 2.495058 2.5
v -2.499999 5.000001 2.5
v -0.7414596 4.998005 2.506826
v -2.500001 -7.452294E-07 2.5
v -0.749999 2.037009E-07 2.506824
v -0.6446102 2.70144 2.505968
v -0.6276807 4.997983 2.506826
v -0.5222508 2.848768 2.505968
v -0.5139017 4.998006 2.506826
v -0.3478987 2.975196 2.505968
v -0.3397878 4.998006 2.506826
v -0.1735466 3.054551 2.505968
v -0.16551 4.998006 2.506826
v 0.0008054336 3.07956 2.505968
v 0.008945403 4.998006 2.506826
v 0.1835925 4.998006 2.506826
v 0.1751576 3.054551 2.505968
v 0.3584452 4.998006 2.506826
v 0.3495097 2.975196 2.505968
v 0.5335174 4.998006 2.506826
v 0.5238618 2.848768 2.505968
v 0.6482033 4.997983 2.506826
v 0.646224 2.701439 2.505968
v 0.7628893 4.998005 2.506826
v 0.7509682 2.493333 2.505968
v 2.5 2.495058 2.5
v 2.500001 5 2.500002
v 0.7500007 -4.062991E-07 2.506824
v 2.499999 3.042128E-07 2.5
v -2.5 2.495055 -2.5
v -0.7493573 2.493334 -2.50597
v -0.7414595 4.998005 -2.506826
v -2.499999 5 -2.5
v -2.500001 -4.768372E-07 -2.5
v -0.7499989 6.336683E-07 -2.506826
v -0.6446098 2.70144 -2.50597
v -0.6276805 4.997983 -2.506826
v -0.5222508 2.848768 -2.50597
v -0.5139016 4.998006 -2.506826
v -0.3478987 2.975196 -2.50597
v -0.3397877 4.998006 -2.506826
v -0.1735467 3.054551 -2.50597
v -0.16551 4.998006 -2.506826
v 0.0008055237 3.07956 -2.50597
v 0.008945483 4.998006 -2.506826
v 0.1835926 4.998006 -2.506826
v 0.1751575 3.054551 -2.50597
v 0.3584452 4.998006 -2.506826
v 0.3495097 2.975196 -2.50597
v 0.5335174 4.998006 -2.506826
v 0.5238618 2.848768 -2.50597
v 0.6482035 4.997983 -2.506826
v 0.6462244 2.701439 -2.50597
v 0.7628894 4.998005 -2.506826
v 0.7509692 2.493334 -2.50597
v 2.500001 5 -2.5
v 2.5 2.495058 -2.5
v 0.750001 1.366826E-08 -2.506826
v 2.499999 0 -2.5
v 0.7509692 2.493334 1.99403
v 0.750001 1.366826E-08 1.993174
v 0.7509692 2.493334 1.49403
v 0.750001 1.366826E-08 1.493174
v 0.7509692 2.493334 2.34403
v 0.750001 1.366826E-08 2.343174
v 0.7509682 2.493333 2.505968
v 0.7500007 -4.062991E-07 2.506824
v 0.7509692 2.493334 -2.50597
v 0.750001 1.366826E-08 -2.506826
v -0.7493573 2.493334 2.34403
v -0.7499989 6.336683E-07 2.343174
v -0.749999 2.037009E-07 2.506824
v -0.7493578 2.493333 2.505968
v -0.7499989 6.336683E-07 1.993174
v -0.7493573 2.493334 1.99403
v -0.7499989 6.336683E-07 1.493174
v -0.7493573 2.493334 1.49403
v -0.7499989 6.336683E-07 -2.506826
v -0.7493573 2.493334 -2.50597
v -0.6446098 2.70144 2.34403
v -0.7493573 2.493334 2.34403
v -0.7493578 2.493333 2.505968
v -0.6446102 2.70144 2.505968
v -0.5222508 2.848768 2.34403
v -0.5222508 2.848768 2.505968
v -0.3478987 2.975196 2.505968
v -0.3478987 2.975196 2.34403
v -0.1735466 3.054551 2.505968
v -0.1735467 3.054551 2.34403
v 0.0008054336 3.07956 2.505968
v 0.0008055237 3.07956 2.34403
v 0.1751576 3.054551 2.505968
v 0.1751575 3.054551 2.34403
v 0.3495097 2.975196 2.505968
v 0.3495097 2.975196 2.34403
v 0.5238618 2.848768 2.505968
v 0.5238618 2.848768 2.34403
v 0.6462244 2.701439 2.34403
v 0.646224 2.701439 2.505968
v 0.7509692 2.493334 2.34403
v 0.7509682 2.493333 2.505968
v -0.1735467 3.054551 1.99403
v 0.0008055237 3.07956 1.99403
v 0.1751575 3.054551 1.99403
v 0.3495097 2.975196 1.99403
v 0.5238618 2.848768 1.99403
v 0.6462244 2.701439 1.99403
v 0.7509692 2.493334 1.99403
v -0.3478987 2.975196 1.99403
v -0.5222508 2.848768 1.99403
v -0.6446098 2.70144 1.99403
v -0.7493573 2.493334 1.99403
v -0.3478987 2.975196 1.49403
v -0.1735467 3.054551 1.49403
v -0.5222508 2.848768 1.49403
v -0.6446098 2.70144 1.49403
v -0.7493573 2.493334 1.49403
v 0.6462244 2.701439 1.49403
v 0.7509692 2.493334 1.49403
v 0.5238618 2.848768 1.49403
v 0.3495097 2.975196 1.49403
v 0.1751575 3.054551 1.49403
v 0.0008055237 3.07956 1.49403
v 0.0008055237 3.07956 -2.50597
v 0.1751575 3.054551 -2.50597
v 0.3495097 2.975196 -2.50597
v 0.5238618 2.848768 -2.50597
v 0.6462244 2.701439 -2.50597
v 0.7509692 2.493334 -2.50597
v -0.1735467 3.054551 -2.50597
v -0.3478987 2.975196 -2.50597
v -0.5222508 2.848768 -2.50597
v -0.6446098 2.70144 -2.50597
v -0.7493573 2.493334 -2.50597

vn -0.003586623 -2.376885E-06 0.9999936
vn -0.003409069 1.48956E-09 0.9999942
vn -0.003646157 -0.0001655813 0.9999934
vn -0.003434605 -0.0003334967 0.999994
vn -0.003654243 0.0001721478 0.9999934
vn -0.003899676 0.0003444761 0.9999924
vn 0.0003810681 -0.000365492 0.9999998
vn 0.0001612225 -0.0003829132 0.9999999
vn 0.0002620527 -0.0003929079 0.9999998
vn 0.0001118433 -0.0004088475 0.9999999
vn 0.000163859 -0.0004163058 0.9999999
vn 6.530662E-05 -0.0004302025 0.9999999
vn 8.701956E-05 -0.000436066 0.9999999
vn 2.121056E-05 -0.0004436313 0.9999999
vn -2.159942E-11 -0.000444498 0.9999999
vn 0 -0.0004473969 0.9999999
vn -2.11709E-05 -0.0004434501 0.9999999
vn -8.67766E-05 -0.0004353265 0.9999999
vn -6.503172E-05 -0.0004296481 0.9999999
vn -0.0001630169 -0.0004149257 0.9999999
vn -0.0001111377 -0.000407906 0.9999998
vn -0.0002600188 -0.0003907206 0.9999998
vn -0.0001598327 -0.000381581 0.9999999
vn -0.0003768352 -0.0003623936 0.9999998
vn 0.003441114 -0.0001904905 0.999994
vn 0.00329205 -1.889288E-05 0.9999946
vn 0.003662826 -4.787306E-06 0.9999933
vn 0.003928614 -7.629241E-07 0.9999923
vn 0.003655928 0.0001709675 0.9999933
vn 0.003899684 -1.706352E-09 0.9999924
vn -0.003568175 -0.0001103586 -0.9999936
vn -0.003490508 -2.89446E-06 -0.9999939
vn -0.003423134 -0.0001760366 -0.9999942
vn -0.003881829 1.847346E-09 -0.9999924
vn -0.003655332 0.0001721483 -0.9999934
vn -0.003900766 0.0003444769 -0.9999924
vn 0.0003802209 -0.0003646798 -0.9999998
vn 0.0001608641 -0.0003820622 -0.9999999
vn 0.0002614703 -0.0003920347 -0.9999999
vn 0.0001115948 -0.0004079389 -0.9999998
vn 0.0001634949 -0.0004153807 -0.9999999
vn 6.516148E-05 -0.0004292465 -0.9999999
vn 8.682616E-05 -0.0004350969 -0.9999999
vn 2.116345E-05 -0.0004426454 -0.9999999
vn 0 -0.0004435101 -0.9999999
vn 0 -0.0004464027 -0.9999999
vn -2.112387E-05 -0.0004424647 -0.9999999
vn -8.658378E-05 -0.0004343591 -0.9999999
vn -6.48872E-05 -0.0004286933 -0.9999999
vn -0.0001626547 -0.0004140037 -0.9999999
vn -0.0001108907 -0.0004069996 -0.9999999
vn -0.0002594404 -0.0003898523 -0.9999999
vn -0.0001594772 -0.0003807332 -0.9999999
vn -0.0003759963 -0.0003615884 -0.9999999
vn 0.003468129 -0.000360097 -0.9999939
vn 0.003500516 -1.247658E-05 -0.9999939
vn 0.003670815 -0.0001796861 -0.9999933
vn 0.003575563 0.000113824 -0.9999936
vn 0.003657022 0.0001709668 -0.9999934
vn 0.003900776 -1.493058E-09 -0.9999924
vn -0.9999999 0.0003883225 0
vn -0.9999999 0.0003883225 0
vn -0.9999999 0.0003883226 0
vn -0.9999999 0.0003883226 0
vn -0.9999999 0.0003882535 -1.763676E-06
vn -0.9999999 0.0003883226 -2.758238E-07
vn -0.9999999 0.0003880337 -5.886857E-06
vn -0.9999999 0.0003881791 -3.659591E-06
vn -0.9999999 0.0003883225 0
vn -0.9999999 0.0003883225 0
vn 1 -0.0002572972 5.808965E-07
vn 0.9999999 -0.00025732 2.318848E-07
vn 0.9999999 -0.0002572483 1.829799E-06
vn 0.9999999 -0.0002571755 2.943435E-06
vn 0.9999999 -0.00025732 0
vn 0.9999999 -0.0002573199 0
vn 0.9999999 -0.0002573199 0
vn 1 -0.0002573199 0
vn 0.9999999 -0.0002573199 0
vn 0.9999999 -0.0002573199 0
vn 0.8616939 -0.5074285 2.923497E-07
vn 0.8932316 -0.4495968 2.030184E-07
vn 0.8932318 -0.4495966 9.762563E-07
vn 0.8211216 -0.5707532 7.429477E-07
vn 0.6971001 -0.7169738 7.151182E-08
vn 0.6781049 -0.7349651 0
vn 0.5361357 -0.8441318 0
vn 0.5186795 -0.8549687 -7.551053E-09
vn 0.3313935 -0.9434926 -3.671691E-08
vn 0.3033711 -0.9528725 -3.710806E-09
vn 0.04775939 -0.9988589 -6.373691E-09
vn 0.01756195 -0.9998457 4.24241E-09
vn -0.240106 -0.9707466 1.921563E-08
vn -0.2698151 -0.9629122 1.272738E-08
vn -0.478637 -0.878013 2.896182E-08
vn -0.497561 -0.867429 0
vn -0.6781022 -0.7349676 -6.260908E-07
vn -0.6546533 -0.7559292 0
vn -0.8211189 -0.5707572 -5.761038E-07
vn -0.8616958 -0.5074253 -4.522324E-06
vn -0.8932357 -0.4495885 -1.664603E-06
vn -0.8932372 -0.4495858 -7.908076E-06
vn 0.294755 -0.9555729 0
vn 0.008437435 -0.9999644 0
vn -0.2786342 -0.9603974 0
vn -0.5031361 -0.8642073 0
vn -0.672682 -0.7399316 0
vn -0.8390588 -0.5440409 0
vn -0.8932356 -0.449589 0
vn 0.5132808 -0.8582208 0
vn 0.6835261 -0.7299261 0
vn 0.8462037 -0.5328595 0
vn 0.8932316 -0.4495968 0
vn 0.5300801 -0.8479476 0
vn 0.3216454 -0.9468603 0
vn 0.7019885 -0.7121883 0
vn 0.8576707 -0.5141994 0
vn 0.8932316 -0.4495968 0
vn -0.826141 -0.5634636 0
vn -0.8932355 -0.449589 0
vn -0.6542394 -0.7562875 0
vn -0.4853627 -0.8743129 0
vn -0.2506236 -0.9680846 0
vn 0.03716294 -0.9993092 0
vn -0.04775941 -0.9988589 0
vn -0.3313935 -0.9434927 0
vn -0.5361356 -0.8441319 0
vn -0.7087959 -0.7054135 0
vn -0.8616948 -0.507427 0
vn -0.8932355 -0.449589 0
vn 0.2401059 -0.9707466 0
vn 0.4786371 -0.8780128 0
vn 0.647442 -0.7621147 0
vn 0.8211216 -0.5707533 0
vn 0.8932316 -0.4495968 0

vt 0.350127 0.497712
vt -1E-06 0.498058
vt -1E-06 0.999046
vt 0.351707 0.998647
vt -1E-06 -0.000954
vt 0.349999 -0.000954
vt 0.371078 0.539334
vt 0.374463 0.998642
vt 0.395549 0.568799
vt 0.397218 0.998647
vt 0.430419 0.594085
vt 0.432041 0.998647
vt 0.465289 0.609956
vt 0.466897 0.998647
vt 0.50016 0.614958
vt 0.501788 0.998647
vt 0.536717 0.998647
vt 0.53503 0.609956
vt 0.571688 0.998647
vt 0.569901 0.594085
vt 0.606702 0.998647
vt 0.604771 0.568799
vt 0.629639 0.998642
vt 0.629245 0.539334
vt 0.652576 0.998647
vt 0.650192 0.497712
vt 0.999999 0.498057
vt 0.999999 0.999045
vt 0.649999 -0.000954
vt 0.999999 -0.000954
vt 1 0.499012
vt 0.649872 0.498667
vt 0.648292 0.999601
vt 1 1.000001
vt 1 1E-06
vt 0.65 1E-06
vt 0.628923 0.540287
vt 0.625536 0.999597
vt 0.60445 0.569754
vt 0.602781 0.999602
vt 0.56958 0.59504
vt 0.567958 0.999602
vt 0.53471 0.610911
vt 0.533102 0.999602
vt 0.499839 0.615912
vt 0.498211 0.999602
vt 0.463282 0.999602
vt 0.464969 0.610911
vt 0.428311 0.999601
vt 0.430098 0.59504
vt 0.393297 0.999601
vt 0.395228 0.569754
vt 0.37036 0.999597
vt 0.370756 0.540287
vt 0.347422 0.999601
vt 0.349806 0.498667
vt 0 1
vt 0 0.499012
vt 0.35 1E-06
vt 0 1E-06
vt 0.8973947 0.4978429
vt 0.8975672 0.0006194621
vt 0.7976841 0.4977741
vt 0.7978566 0.0005506247
vt 0.9671921 0.497891
vt 0.9673645 0.0006676319
vt 0.9994859 0.4979131
vt 1 0.0006900824
vt 0 0.4972234
vt 0.0001724129 0
vt 0.0326419 0.4976425
vt 0.032641 0.0003339919
vt 0 0.0003451968
vt 0.000342507 0.4976535
vt 0.1024504 0.000309888
vt 0.1024513 0.4976184
vt 0.202178 0.000275456
vt 0.2021789 0.497584
vt 0.999999 0
vt 1 0.4973085
vt 0.9675041 0.2790611
vt 0.9674898 0.2999565
vt 0.9997934 0.2999789
vt 0.9998078 0.2790836
vt 0.9675209 0.2546527
vt 0.9998246 0.254675
vt 0.9998487 0.2198949
vt 0.9675449 0.2198726
vt 0.9998727 0.1851147
vt 0.9675689 0.1850924
vt 0.9998966 0.1503345
vt 0.967593 0.1503122
vt 0.9999207 0.1155543
vt 0.967617 0.115532
vt 0.9999447 0.08077416
vt 0.967641 0.08075187
vt 0.9999687 0.04599398
vt 0.967665 0.04597169
vt 0.9676819 0.02156241
vt 0.9999855 0.02158482
vt 0.9676963 0.0006677474
vt 1 0.0006902791
vt 0.89775 0.1850442
vt 0.897774 0.150264
vt 0.897798 0.1154838
vt 0.897822 0.08070371
vt 0.897846 0.04592353
vt 0.897863 0.02151425
vt 0.8978773 0.0006195628
vt 0.8977261 0.2198243
vt 0.8977021 0.2546045
vt 0.8976852 0.279013
vt 0.8976708 0.2999083
vt 0.7979848 0.2197555
vt 0.7980088 0.1849753
vt 0.7979609 0.2545357
vt 0.797944 0.2789441
vt 0.7979296 0.2998395
vt 0.7981218 0.02144541
vt 0.7981361 0.0005507192
vt 0.7981049 0.04585469
vt 0.7980809 0.08063487
vt 0.7980568 0.115415
vt 0.7980328 0.1501952
vt 0.0001032654 0.1496445
vt 0.0001272834 0.1148643
vt 0.0001513014 0.08008412
vt 0.0001752599 0.04530394
vt 0.0001921438 0.02089472
vt 0.0002065309 0
vt 7.924745E-05 0.1844246
vt 5.528891E-05 0.2192048
vt 3.127093E-05 0.2539849
vt 1.438701E-05 0.2783934
vt 0 0.2992888

g Stone Brick Wall
usemtl Stone Brick Wall
usemap Stone Brick Wall
f 2/2/2 1/1/1 3/3/3
f 3/3/3 1/1/1 4/4/4
f 5/5/5 1/1/1 2/2/2
f 6/6/6 1/1/1 5/5/5
f 7/7/7 4/4/4 1/1/1
f 8/8/8 4/4/4 7/7/7
f 7/7/7 9/9/9 8/8/8
f 8/8/8 9/9/9 10/10/10
f 11/11/11 10/10/10 9/9/9
f 12/12/12 10/10/10 11/11/11
f 13/13/13 12/12/12 11/11/11
f 14/14/14 12/12/12 13/13/13
f 15/15/15 14/14/14 13/13/13
f 16/16/16 14/14/14 15/15/15
f 16/16/16 15/15/15 17/17/17
f 17/17/17 15/15/15 18/18/18
f 17/17/17 18/18/18 19/19/19
f 19/19/19 18/18/18 20/20/20
f 19/19/19 20/20/20 21/21/21
f 21/21/21 20/20/20 22/22/22
f 22/22/22 23/23/23 21/21/21
f 24/24/24 23/23/23 22/22/22
f 24/24/24 25/25/25 23/23/23
f 26/26/26 25/25/25 24/24/24
f 26/26/26 27/27/27 25/25/25
f 25/25/25 27/27/27 28/28/28
f 26/26/26 29/29/29 27/27/27
f 27/27/27 29/29/29 30/30/30
f 32/32/32 31/31/31 33/33/33
f 33/33/33 31/31/31 34/34/34
f 31/31/31 32/32/32 35/35/35
f 35/35/35 32/32/32 36/36/36
f 33/33/33 37/37/37 32/32/32
f 38/38/38 37/37/37 33/33/33
f 38/38/38 39/39/39 37/37/37
f 40/40/40 39/39/39 38/38/38
f 40/40/40 41/41/41 39/39/39
f 42/42/42 41/41/41 40/40/40
f 42/42/42 43/43/43 41/41/41
f 44/44/44 43/43/43 42/42/42
f 44/44/44 45/45/45 43/43/43
f 46/46/46 45/45/45 44/44/44
f 47/47/47 45/45/45 46/46/46
f 48/48/48 45/45/45 47/47/47
f 49/49/49 48/48/48 47/47/47
f 50/50/50 48/48/48 49/49/49
f 51/51/51 50/50/50 49/49/49
f 52/52/52 50/50/50 51/51/51
f 53/53/53 52/52/52 51/51/51
f 54/54/54 52/52/52 53/53/53
f 55/55/55 54/54/54 53/53/53
f 56/56/56 54/54/54 55/55/55
f 57/57/57 56/56/56 55/55/55
f 58/58/58 56/56/56 57/57/57
f 58/58/58 59/59/59 56/56/56
f 60/60/60 59/59/59 58/58/58

g Default-Material
usemtl Default-Material
usemap Default-Material
f 62/62/62 61/61/61 63/63/63
f 64/64/64 62/62/62 63/63/63
f 66/66/66 65/65/65 61/61/61
f 62/62/62 66/66/66 61/61/61
f 67/67/67 65/65/65 68/68/68
f 68/68/68 65/65/65 66/66/66
f 64/64/64 63/63/63 69/69/69
f 70/70/70 64/64/64 69/69/69
f 72/72/72 71/71/71 73/73/73
f 73/73/73 71/71/71 74/74/74
f 71/71/71 72/72/72 75/75/75
f 76/76/76 71/71/71 75/75/75
f 76/76/76 75/75/75 77/77/77
f 78/78/78 76/76/76 77/77/77
f 78/78/78 77/77/77 79/79/79
f 80/80/80 78/78/78 79/79/79

g Default_Prototype 1
usemtl Default_Prototype 1
usemap Default_Prototype 1
f 82/82/82 81/81/81 83/83/83
f 83/83/83 81/81/81 84/84/84
f 81/81/81 85/85/85 84/84/84
f 84/84/84 85/85/85 86/86/86
f 85/85/85 87/87/87 86/86/86
f 88/88/88 87/87/87 85/85/85
f 88/88/88 89/89/89 87/87/87
f 90/90/90 89/89/89 88/88/88
f 90/90/90 91/91/91 89/89/89
f 92/92/92 91/91/91 90/90/90
f 92/92/92 93/93/93 91/91/91
f 94/94/94 93/93/93 92/92/92
f 94/94/94 95/95/95 93/93/93
f 96/96/96 95/95/95 94/94/94
f 96/96/96 97/97/97 95/95/95
f 98/98/98 97/97/97 96/96/96
f 98/98/98 99/99/99 97/97/97
f 97/97/97 99/99/99 100/100/100
f 99/99/99 101/101/101 100/100/100
f 100/100/100 101/101/101 102/102/102
f 92/92/92 90/90/90 103/103/103
f 104/104/104 92/92/92 103/103/103
f 94/94/94 92/92/92 104/104/104
f 105/105/105 94/94/94 104/104/104
f 96/96/96 94/94/94 105/105/105
f 106/106/106 96/96/96 105/105/105
f 98/98/98 96/96/96 106/106/106
f 107/107/107 98/98/98 106/106/106
f 99/99/99 98/98/98 107/107/107
f 108/108/108 99/99/99 107/107/107
f 101/101/101 99/99/99 108/108/108
f 109/109/109 101/101/101 108/108/108
f 90/90/90 88/88/88 110/110/110
f 103/103/103 90/90/90 110/110/110
f 88/88/88 85/85/85 111/111/111
f 110/110/110 88/88/88 111/111/111
f 85/85/85 81/81/81 112/112/112
f 111/111/111 85/85/85 112/112/112
f 81/81/81 82/82/82 113/113/113
f 112/112/112 81/81/81 113/113/113
f 103/103/103 110/110/110 114/114/114
f 115/115/115 103/103/103 114/114/114
f 110/110/110 111/111/111 116/116/116
f 114/114/114 110/110/110 116/116/116
f 111/111/111 112/112/112 117/117/117
f 116/116/116 111/111/111 117/117/117
f 112/112/112 113/113/113 118/118/118
f 117/117/117 112/112/112 118/118/118
f 109/109/109 108/108/108 119/119/119
f 120/120/120 109/109/109 119/119/119
f 108/108/108 107/107/107 121/121/121
f 119/119/119 108/108/108 121/121/121
f 107/107/107 106/106/106 122/122/122
f 121/121/121 107/107/107 122/122/122
f 106/106/106 105/105/105 123/123/123
f 122/122/122 106/106/106 123/123/123
f 105/105/105 104/104/104 124/124/124
f 123/123/123 105/105/105 124/124/124
f 104/104/104 103/103/103 115/115/115
f 124/124/124 104/104/104 115/115/115
f 123/123/123 124/124/124 125/125/125
f 126/126/126 123/123/123 125/125/125
f 122/122/122 123/123/123 126/126/126
f 127/127/127 122/122/122 126/126/126
f 121/121/121 122/122/122 127/127/127
f 128/128/128 121/121/121 127/127/127
f 119/119/119 121/121/121 128/128/128
f 129/129/129 119/119/119 128/128/128
f 120/120/120 119/119/119 129/129/129
f 130/130/130 120/120/120 129/129/129
f 124/124/124 115/115/115 131/131/131
f 125/125/125 124/124/124 131/131/131
f 115/115/115 114/114/114 132/132/132
f 131/131/131 115/115/115 132/132/132
f 114/114/114 116/116/116 133/133/133
f 132/132/132 114/114/114 133/133/133
f 116/116/116 117/117/117 134/134/134
f 133/133/133 116/116/116 134/134/134
f 117/117/117 118/118/118 135/135/135
f 134/134/134 117/117/117 135/135/135
