mtllib ./WallDoubleSquare_1.mtl
g WallDoubleSquare_1
v -1.499045 2.500319 -0.4999983
v -1.500327 6.78209E-07 -0.4999987
v -1.500327 3.161414E-07 0.5000001
v -1.499045 2.500319 0.5000017
v 1.501607 2.500319 -0.4999987
v 1.501607 2.500319 0.5000019
v 1.499672 -2.143479E-07 0.5000002
v 1.499672 1.477198E-07 -0.4999991
v 0.001280856 2.500319 -0.4999985
v -1.499045 2.500319 -0.4999983
v -1.499045 2.500319 0.5000017
v 0.001280768 2.500319 0.5000018
v 1.501607 2.500319 -0.4999987
v 1.501607 2.500319 0.5000019
v -1.499045 2.500319 0.5000017
v -2.5 2.502043 0.5000001
v -2.499999 5 0.5000015
v -1.48325 5 0.5000032
v -2.500001 -5.09414E-07 0.4999985
v -1.500327 3.161414E-07 0.5000001
v 0.001280768 2.500319 0.5000018
v 0.02109917 5 0.5000033
v 1.501607 2.500319 0.5000019
v 1.525448 5 0.5000035
v 2.5 2.502044 0.5000001
v 2.500001 5 0.5000015
v 1.499672 -2.143479E-07 0.5000002
v 2.499999 0 0.4999985
v -2.5 2.502045 -0.4999999
v -1.499045 2.500319 -0.4999983
v -1.48325 5.000001 -0.4999979
v -2.499999 5.000002 -0.4999995
v -2.500001 1.198115E-06 -0.5000004
v -1.500327 6.78209E-07 -0.4999987
v 0.001280856 2.500319 -0.4999985
v 0.02109926 5 -0.499998
v 1.501607 2.500319 -0.4999987
v 1.525448 5 -0.4999982
v 2.500001 5 -0.4999996
v 2.5 2.502044 -0.5
v 1.499672 1.477198E-07 -0.4999991
v 2.499999 2.839713E-07 -0.5000004

vn 0.9999999 -0.0005126776 -2.007966E-10
vn 0.9999999 -0.0005126776 -2.793615E-10
vn 0.9999999 -0.0005126776 -2.007966E-10
vn 0.9999999 -0.0005126775 -1.222318E-10
vn -0.9999997 0.0007736171 2.784631E-10
vn -0.9999997 0.0007736171 1.844446E-10
vn -0.9999997 0.0007736171 2.784631E-10
vn -0.9999997 0.0007736171 3.724817E-10
vn -1.589112E-07 -1 -2.384186E-07
vn -1.589112E-07 -1 -2.384186E-07
vn -1.589111E-07 -0.9999999 -2.384186E-07
vn -1.589112E-07 -1 -2.384185E-07
vn -1.589112E-07 -1 -2.384185E-07
vn -1.589112E-07 -1 -2.384184E-07
vn -1.177686E-06 -6.22032E-07 1
vn -1.549311E-06 -6.198876E-07 1
vn -1.59571E-06 -5.912844E-07 1
vn -4.742969E-07 -6.169226E-07 1
vn -1.579591E-06 -6.549363E-07 1
vn -1.60985E-06 -6.428227E-07 1
vn -7.938469E-08 -6.193806E-07 0.9999999
vn -7.931386E-08 -6.192959E-07 1
vn 6.678806E-07 -6.327276E-07 0.9999999
vn 1.028598E-06 -6.113008E-07 1
vn 1.831444E-06 -6.368261E-07 1
vn 1.957153E-06 -5.726735E-07 1
vn 1.789861E-06 -6.679492E-07 1
vn 1.787556E-06 -6.670274E-07 1
vn 1.589695E-06 1.634688E-07 -0.9999999
vn 1.039614E-06 1.64717E-07 -1
vn 5.81435E-07 1.67678E-07 -1
vn 1.612126E-06 1.431676E-07 -1
vn 1.638756E-06 1.663939E-07 -1
vn 1.699287E-06 1.421617E-07 -1
vn -1.058461E-07 1.835933E-07 -0.9999999
vn -1.057517E-07 1.916615E-07 -1
vn -7.530822E-07 1.818484E-07 -1
vn -6.612314E-07 1.970659E-07 -1
vn -1.420068E-06 1.737466E-07 -1
vn -1.322672E-06 1.513334E-07 -1
vn -1.312276E-06 1.554066E-07 -1
vn -1.281081E-06 1.429348E-07 -1

vt 0.800275 0.5000058
vt 0.8005193 0.0001267642
vt 0.6005934 2.899766E-05
vt 0.6003489 0.4999081
vt 0.2001388 0.5000058
vt 0.4000653 0.50016
vt 0.4004508 0.0002801865
vt 0.2005246 0.0001259595
vt 0.5 5.961993E-08
vt 0 1.192399E-07
vt 0 0.3332609
vt 0.5 0.333261
vt 1 0
vt 1 0.333261
vt 0.199732 0.4999016
vt 1.341105E-06 0.5002465
vt 1.2815E-06 0.999653
vt 0.202891 0.999653
vt 1.370907E-06 2.253969E-05
vt 0.1994759 2.250989E-05
vt 0.4997967 0.4999014
vt 0.5037601 0.9996534
vt 0.7998613 0.4999013
vt 0.8046293 0.9996534
vt 0.9999998 0.5002463
vt 0.9999993 0.9996536
vt 0.7994751 1.985845E-05
vt 1.000001 2.015638E-05
vt 0.9999995 0.5003512
vt 0.8002685 0.5000058
vt 0.7971094 0.9997578
vt 0.9999992 0.9997581
vt 1 0.0001272192
vt 0.8005258 0.0001267723
vt 0.5002036 0.5000058
vt 0.4962401 0.9997578
vt 0.2001387 0.5000058
vt 0.1953708 0.999758
vt 9.536743E-07 0.999758
vt 5.066395E-07 0.5003508
vt 0.2005247 0.0001259679
vt -1.192093E-07 0.0001262062

g Default-Material
usemtl Default-Material
usemap Default-Material
f 2/2/2 1/1/1 3/3/3
f 3/3/3 1/1/1 4/4/4
f 6/6/6 5/5/5 7/7/7
f 7/7/7 5/5/5 8/8/8

g Default_Prototype 1
usemtl Default_Prototype 1
usemap Default_Prototype 1
f 10/10/10 9/9/9 11/11/11
f 11/11/11 9/9/9 12/12/12
f 9/9/9 13/13/13 12/12/12
f 12/12/12 13/13/13 14/14/14

g Stone Brick Wall
usemtl Stone Brick Wall
usemap Stone Brick Wall
f 16/16/16 15/15/15 17/17/17
f 17/17/17 15/15/15 18/18/18
f 19/19/19 15/15/15 16/16/16
f 20/20/20 15/15/15 19/19/19
f 21/21/21 18/18/18 15/15/15
f 22/22/22 18/18/18 21/21/21
f 21/21/21 23/23/23 22/22/22
f 22/22/22 23/23/23 24/24/24
f 23/23/23 25/25/25 24/24/24
f 24/24/24 25/25/25 26/26/26
f 23/23/23 27/27/27 25/25/25
f 25/25/25 27/27/27 28/28/28
f 30/30/30 29/29/29 31/31/31
f 31/31/31 29/29/29 32/32/32
f 30/30/30 33/33/33 29/29/29
f 34/34/34 33/33/33 30/30/30
f 31/31/31 35/35/35 30/30/30
f 36/36/36 35/35/35 31/31/31
f 36/36/36 37/37/37 35/35/35
f 38/38/38 37/37/37 36/36/36
f 39/39/39 37/37/37 38/38/38
f 40/40/40 37/37/37 39/39/39
f 37/37/37 40/40/40 41/41/41
f 41/41/41 40/40/40 42/42/42
