#Dungeon_WallDoubleThin_4x4.obj
#Saturday, 13 May 2017
#21:25:30
#-------

#Dungeon_WallDoubleThin_4x4
#-------
g Dungeon_WallDoubleThin_4x4
v 2 0 0.07499981
v -2 4 0.07499981
v -2 0 0.07499981
v 2 4 0.07499981
v -2 0 -0.0750002
v 2 4 -0.0750002
v 2 0 -0.0750002
v -2 4 -0.0750002

vn 0 0 1
vn 0 0 1
vn 0 0 1
vn 0 0 1
vn 0 0 -1
vn 0 0 -1
vn 0 0 -1
vn 0 0 -1

vt 0 0.001425385
vt 0.8000002 0.8014255
vt 0.8000002 0.001425385
vt 0 0.8014255
vt 0 0.001425385
vt 0.8000002 0.8014255
vt 0.8000002 0.001425385
vt 0 0.8014255

usemtl Default_PrototypeMat
usemap Default_PrototypeMat
f 1/1/1 2/2/2 3/3/3
f 4/4/4 2/2/2 1/1/1
f 5/5/5 6/6/6 7/7/7
f 8/8/8 6/6/6 5/5/5
