#Dungeon_DoubleWall_3x3.obj
#Saturday, 13 May 2017
#21:25:00
#-------

#Dungeon_DoubleWall_3x3
#-------
g Dungeon_DoubleWall_3x3
v 0.3 -0.3 0.05000001
v -0.3 0.3 0.05000001
v -0.3 -0.3 0.05000001
v 0.3 0.3 0.05000001
v -0.3 -0.3 -0.04999999
v 0.3 0.3 -0.04999999
v 0.3 -0.3 -0.04999999
v -0.3 0.3 -0.04999999

vn 0 0 1
vn 0 0 1
vn 0 0 1
vn 0 0 1
vn 0 0 -1
vn 0 0 -1
vn 0 0 -1
vn 0 0 -1

vt 0 0
vt 0.6 0.6
vt 0.6 0
vt 0 0.6
vt 0 0
vt 0.6 0.6
vt 0.6 0
vt 0 0.6

usemtl Default_PrototypeMat
usemap Default_PrototypeMat
f 1/1/1 2/2/2 3/3/3
f 4/4/4 2/2/2 1/1/1
f 5/5/5 6/6/6 7/7/7
f 8/8/8 6/6/6 5/5/5
