#Dungeon_WallDoubleThin_5x4.obj
#Saturday, 13 May 2017
#21:28:43
#-------

#Dungeon_WallDoubleThin_5x4
#-------
g Dungeon_WallDoubleThin_5x4
v 2.5 0 0.07499981
v -2.5 4 0.07499981
v -2.5 0 0.07499981
v 2.5 4 0.07499981
v -2.5 0 -0.0750002
v 2.5 4 -0.0750002
v 2.5 0 -0.0750002
v -2.5 4 -0.0750002

vn 0 0 1
vn 0 0 1
vn 0 0 1
vn 0 0 1
vn 0 0 -1
vn 0 0 -1
vn 0 0 -1
vn 0 0 -1

vt 0 0.0005168915
vt 1 0.800517
vt 1 0.0005168915
vt 0 0.800517
vt 0 0.0005168915
vt 1 0.800517
vt 1 0.0005168915
vt 0 0.800517

usemtl Default_PrototypeMat
usemap Default_PrototypeMat
f 1/1/1 2/2/2 3/3/3
f 4/4/4 2/2/2 1/1/1
f 5/5/5 6/6/6 7/7/7
f 8/8/8 6/6/6 5/5/5
