#Dungeon_WallDoubleThin_2x3.obj
#Saturday, 13 May 2017
#21:24:31
#-------

#Dungeon_WallDoubleThin_2x3
#-------
g Dungeon_WallDoubleThin_2x3
v 1 0 0.07499981
v -1 3 0.07499981
v -1 0 0.07499981
v 1 3 0.07499981
v -1 0 -0.0750002
v 1 3 -0.0750002
v 1 0 -0.0750002
v -1 3 -0.0750002

vn 0 0 1
vn 0 0 1
vn 0 0 1
vn 0 0 1
vn 0 0 -1
vn 0 0 -1
vn 0 0 -1
vn 0 0 -1

vt 0 0.000993371
vt 0.4000001 0.6009933
vt 0.4000001 0.000993371
vt 0 0.6009933
vt 0 0.000993371
vt 0.4000001 0.6009933
vt 0.4000001 0.000993371
vt 0 0.6009933

usemtl Default_PrototypeMat
usemap Default_PrototypeMat
f 1/1/1 2/2/2 3/3/3
f 4/4/4 2/2/2 1/1/1
f 5/5/5 6/6/6 7/7/7
f 8/8/8 6/6/6 5/5/5
