#Dungeon_WallDoubleThin_2x1.obj
#Saturday, 13 May 2017
#21:28:27
#-------

#Dungeon_WallDoubleThin_2x1
#-------
g Dungeon_WallDoubleThin_2x1
v 1 0 0.07499981
v -1 1 0.07499981
v -1 0 0.07499981
v 1 1 0.07499981
v -1 0 -0.0750002
v 1 1 -0.0750002
v 1 0 -0.0750002
v -1 1 -0.0750002

vn 0 0 1
vn 0 0 1
vn 0 0 1
vn 0 0 1
vn 0 0 -1
vn 0 0 -1
vn 0 0 -1
vn 0 0 -1

vt 0 0.0005789399
vt 0.4000001 0.200579
vt 0.4000001 0.0005789399
vt 0 0.200579
vt 0 0.0005789399
vt 0.4000001 0.200579
vt 0.4000001 0.0005789399
vt 0 0.200579

usemtl Default_PrototypeMat
usemap Default_PrototypeMat
f 1/1/1 2/2/2 3/3/3
f 4/4/4 2/2/2 1/1/1
f 5/5/5 6/6/6 7/7/7
f 8/8/8 6/6/6 5/5/5
