#Dungeon_WallDoubleThin_4x25.obj
#Saturday, 13 May 2017
#21:29:07
#-------

#Dungeon_WallDoubleThin_4x25
#-------
g Dungeon_WallDoubleThin_4x25
v 2 0 0.07499981
v -2 2.5 0.07499981
v -2 0 0.07499981
v 2 2.5 0.07499981
v -2 0 -0.0750002
v 2 2.5 -0.0750002
v 2 0 -0.0750002
v -2 2.5 -0.0750002

vn 0 0 1
vn 0 0 1
vn 0 0 1
vn 0 0 1
vn 0 0 -1
vn 0 0 -1
vn 0 0 -1
vn 0 0 -1

vt 0 -0.1992186
vt 0.8000002 0.3007814
vt 0.8000002 -0.1992186
vt 0 0.3007814
vt 0 -0.1992186
vt 0.8000002 0.3007814
vt 0.8000002 -0.1992186
vt 0 0.3007814

usemtl Default_PrototypeMat
usemap Default_PrototypeMat
f 1/1/1 2/2/2 3/3/3
f 4/4/4 2/2/2 1/1/1
f 5/5/5 6/6/6 7/7/7
f 8/8/8 6/6/6 5/5/5
