#Dungeon_WallDoubleThin_1x25.obj
#Saturday, 13 May 2017
#21:27:17
#-------

#Dungeon_WallDoubleThin_1x25
#-------
g Dungeon_WallDoubleThin_1x25
v 0.5 0 0.07499981
v -0.5 2.5 0.07499981
v -0.5 0 0.07499981
v 0.5 2.5 0.07499981
v -0.5 0 -0.0750002
v 0.5 2.5 -0.0750002
v 0.5 0 -0.0750002
v -0.5 2.5 -0.0750002

vn 0 0 1
vn 0 0 1
vn 0 0 1
vn 0 0 1
vn 0 0 -1
vn 0 0 -1
vn 0 0 -1
vn 0 0 -1

vt 0 0.001251817
vt 0.2 0.5012518
vt 0.2 0.001251817
vt 0 0.5012518
vt 0 0.001251817
vt 0.2 0.5012518
vt 0.2 0.001251817
vt 0 0.5012518

usemtl Default_PrototypeMat
usemap Default_PrototypeMat
f 1/1/1 2/2/2 3/3/3
f 4/4/4 2/2/2 1/1/1
f 5/5/5 6/6/6 7/7/7
f 8/8/8 6/6/6 5/5/5
