# 3ds Max Wavefront OBJ Exporter v0.97b - (c)2007 guruware
# File Created: 24.05.2015 12:00:33

#
# object Archway_Overlay_105x205_Pointed_A
#

v  -91.747154 278.431946 54.568848
v  -91.747154 278.431946 43.524864
v  -98.559303 251.475296 43.524864
v  -98.559303 251.475296 54.568848
v  -65.922424 269.738647 43.524864
v  -70.796776 251.763641 43.524864
v  -64.370277 269.216125 44.980881
v  -64.370277 269.216125 54.568848
v  -69.130974 251.780655 54.568848
v  -69.130974 251.780655 44.980881
v  -70.796776 251.763641 56.024864
v  -65.922424 269.738647 56.024864
v  -90.195000 277.909424 56.024864
v  -96.895050 251.492645 56.024864
v  -80.912201 302.096436 54.568848
v  -80.912201 302.096436 43.524864
v  -56.628429 290.437836 43.524864
v  -55.170322 289.737793 44.980881
v  -55.170322 289.737793 54.568848
v  -56.628429 290.437836 56.024864
v  -79.454094 301.396423 56.024864
v  -68.688179 322.791840 54.568848
v  -68.688179 322.791840 43.524864
v  -46.124012 308.192810 43.524864
v  -44.786617 307.327515 44.980881
v  -44.786617 307.327515 54.568848
v  -46.124012 308.192810 56.024864
v  -67.350784 321.926544 56.024864
v  -51.652164 345.512634 54.568848
v  -51.652164 345.512634 43.524864
v  -31.053879 328.246704 43.524864
v  -29.852676 327.239807 44.980881
v  -29.852676 327.239807 54.568848
v  -31.053879 328.246704 56.024864
v  -50.450954 344.505737 56.024864
v  -31.774157 365.602142 54.568848
v  -31.774157 365.602142 43.524864
v  -13.111864 346.364197 43.524864
v  -12.035336 345.254456 44.980881
v  -12.035336 345.254456 54.568848
v  -13.111864 346.364197 56.024864
v  -30.697630 364.492401 56.024864
v  0.372502 392.795898 54.568848
v  0.372502 392.795898 43.524864
v  0.372493 356.525635 43.524864
v  0.372493 355.069641 44.980881
v  0.372493 355.069641 54.568848
v  0.372493 356.525635 56.024864
v  0.372502 391.339874 56.024864
v  32.519089 365.602112 54.568848
v  32.519089 365.602112 43.524864
v  13.856785 346.364136 43.524864
v  12.780258 345.254395 44.980881
v  12.780258 345.254395 54.568848
v  13.856785 346.364136 56.024864
v  31.442564 364.492371 56.024864
v  52.396976 345.512817 54.568848
v  52.396976 345.512817 43.524864
v  31.799047 328.246521 43.524864
v  30.597864 327.239624 44.980881
v  30.597864 327.239624 54.568848
v  31.799047 328.246521 56.024864
v  51.195793 344.505920 56.024864
v  69.433495 322.792053 54.568848
v  69.433495 322.792053 43.524864
v  46.869656 308.192535 43.524864
v  45.532284 307.327209 44.980881
v  45.532284 307.327209 54.568848
v  46.869656 308.192535 56.024864
v  68.096115 321.926697 56.024864
v  81.658127 302.096405 54.568848
v  81.658127 302.096405 43.524864
v  57.374432 290.437622 43.524864
v  55.916332 289.737579 44.980881
v  55.916332 289.737579 54.568848
v  57.374432 290.437622 56.024864
v  80.200020 301.396362 56.024864
v  92.493317 278.431854 54.568848
v  92.493317 278.431854 43.524864
v  66.668556 269.738586 43.524864
v  65.116386 269.216064 44.980881
v  65.116386 269.216064 54.568848
v  66.668556 269.738586 56.024864
v  90.941162 277.909363 56.024864
v  99.304512 251.474701 54.568848
v  99.304512 251.474701 43.524864
v  71.541664 251.764130 43.524864
v  69.875870 251.781189 44.980881
v  69.875870 251.781189 54.568848
v  71.541664 251.764130 56.024864
v  97.640282 251.492111 56.024864
v  -96.935631 248.878525 45.328873
v  -72.114861 249.141510 45.328873
v  -71.658905 249.146347 45.728127
v  -96.935631 248.878525 53.821602
v  -71.658905 249.146347 53.821602
v  -72.114861 249.141510 54.220856
v  -96.479683 248.883362 54.220856
v  97.680794 248.877991 45.328873
v  97.680794 248.877991 53.821602
v  97.224823 248.882843 54.220856
v  72.859642 249.141937 45.328873
v  72.859642 249.141937 54.220856
v  72.403702 249.146790 53.821602
v  72.403702 249.146790 45.728127
# 105 vertices

vn -0.864216 0.303909 0.400962
vn -0.685230 0.241194 -0.687230
vn -0.712633 -0.235874 -0.660694
vn -0.902530 -0.169793 0.395739
vn 0.320044 -0.114485 -0.940460
vn 0.312337 -0.355124 -0.881097
vn 0.855421 -0.306855 -0.417247
vn 0.855609 -0.306480 0.417138
vn 0.803901 -0.460971 0.375830
vn 0.803967 -0.460633 -0.376104
vn 0.312107 -0.355366 0.881082
vn 0.320050 -0.114112 0.940503
vn -0.351892 0.124028 0.927787
vn -0.360538 -0.236537 0.902254
vn -0.811884 0.423688 0.401663
vn -0.636783 0.332689 -0.695576
vn 0.308341 -0.159385 -0.937829
vn 0.809079 -0.419044 -0.412060
vn 0.809050 -0.418947 0.412214
vn 0.308503 -0.159406 0.937772
vn -0.326664 0.170840 0.929572
vn -0.763199 0.508966 0.398098
vn -0.598108 0.399125 -0.694957
vn 0.291662 -0.194663 -0.936504
vn 0.759090 -0.506860 -0.408504
vn 0.759020 -0.506810 0.408696
vn 0.291823 -0.194773 0.936431
vn -0.310028 0.206848 0.927953
vn -0.696361 0.600316 0.393320
vn -0.546605 0.471478 -0.692049
vn 0.266319 -0.229650 -0.936128
vn 0.691834 -0.597081 -0.406030
vn 0.691743 -0.597077 0.406191
vn 0.266408 -0.229797 0.936066
vn -0.287104 0.247719 0.925314
vn -0.626299 0.674202 0.391410
vn -0.486712 0.526227 -0.697277
vn 0.233531 -0.266270 -0.935181
vn 0.607810 -0.686289 -0.399466
vn 0.610232 -0.682619 0.402055
vn 0.237713 -0.265712 0.934286
vn -0.257131 0.275280 0.926339
vn 0.001327 0.941385 0.337331
vn 0.000001 0.809864 -0.586617
vn 0.001924 -0.232108 -0.972688
vn 0.007427 -0.891211 -0.453528
vn -0.007433 -0.891211 0.453528
vn -0.001925 -0.232108 0.972688
vn 0.003993 0.507723 0.861511
vn 0.624724 0.675038 0.392484
vn 0.486712 0.526227 -0.697278
vn -0.237714 -0.265713 -0.934285
vn -0.610233 -0.682618 -0.402054
vn -0.607811 -0.686289 0.399466
vn -0.233532 -0.266271 0.935181
vn 0.256532 0.277385 0.925877
vn 0.696343 0.600248 0.393458
vn 0.546600 0.471482 -0.692051
vn -0.266409 -0.229801 -0.936065
vn -0.691739 -0.597083 -0.406188
vn -0.691830 -0.597087 0.406027
vn -0.266319 -0.229654 0.936127
vn 0.287243 0.247778 0.925256
vn 0.763129 0.508940 0.398264
vn 0.598102 0.399134 -0.694958
vn -0.291821 -0.194777 -0.936431
vn -0.759013 -0.506821 -0.408695
vn -0.759082 -0.506871 0.408504
vn -0.291660 -0.194668 0.936503
vn 0.310156 0.206949 0.927887
vn 0.811803 0.423726 0.401786
vn 0.636780 0.332697 -0.695575
vn -0.308502 -0.159409 -0.937771
vn -0.809046 -0.418957 -0.412214
vn -0.809074 -0.419054 0.412059
vn -0.308339 -0.159389 0.937829
vn 0.326740 0.170967 0.929522
vn 0.864168 0.304103 0.400918
vn 0.685238 0.241185 -0.687225
vn -0.320044 -0.114101 -0.940507
vn -0.855614 -0.306457 -0.417144
vn -0.855426 -0.306833 0.417253
vn -0.320038 -0.114474 0.940463
vn 0.351783 0.124242 0.927800
vn 0.902540 -0.169955 0.395647
vn 0.712609 -0.235918 -0.660705
vn -0.312123 -0.355350 -0.881082
vn -0.803922 -0.460934 -0.375831
vn -0.803988 -0.460596 0.376104
vn -0.312352 -0.355108 0.881099
vn 0.360457 -0.236724 0.902238
vn -0.386081 -0.845545 -0.368775
vn 0.161213 -0.863134 -0.478550
vn 0.423241 -0.882212 -0.206324
vn -0.498715 -0.836017 0.228821
vn 0.423284 -0.882151 0.206497
vn 0.161306 -0.863082 0.478612
vn -0.192137 -0.844985 0.499084
vn 0.386023 -0.845551 -0.368821
vn 0.498692 -0.836014 0.228881
vn 0.192187 -0.844982 0.499068
vn -0.161343 -0.863075 -0.478613
vn -0.161248 -0.863126 0.478553
vn -0.423274 -0.882197 0.206319
vn -0.423316 -0.882136 -0.206495
# 105 vertex normals

vt 0.100486 0.489182 0.000000
vt 0.066474 0.515811 0.000000
vt 0.014831 0.405919 0.000000
vt 0.050417 0.383217 0.000000
vt 0.844614 0.165882 0.000000
vt 0.748027 0.127685 0.000000
vt 0.766116 0.048223 0.000000
vt 0.869882 0.046714 2.247352
vt 0.222386 0.390762 0.000000
vt 0.193969 0.416970 0.000000
vt 0.155623 0.350531 0.000000
vt 0.183299 0.326056 0.000000
vt 0.149593 0.352724 0.000000
vt 0.187041 0.422906 0.000000
vt 0.106796 0.484379 0.000000
vt 0.056669 0.380595 0.000000
vt 0.159132 0.578714 0.000000
vt 0.127378 0.609931 0.000000
vt 0.804280 0.270539 0.000000
vt 0.713436 0.219215 0.000000
vt 0.273517 0.468831 0.000000
vt 0.246467 0.496661 0.000000
vt 0.240115 0.503111 0.000000
vt 0.165711 0.572721 0.000000
vt 0.218899 0.656043 0.000000
vt 0.189483 0.690341 0.000000
vt 0.758720 0.362084 0.000000
vt 0.674295 0.297735 0.000000
vt 0.324630 0.534469 0.000000
vt 0.299096 0.564763 0.000000
vt 0.293353 0.571872 0.000000
vt 0.224839 0.649257 0.000000
vt 0.295195 0.741032 0.000000
vt 0.268558 0.778293 0.000000
vt 0.695163 0.462598 0.000000
vt 0.618088 0.386426 0.000000
vt 0.389485 0.611144 0.000000
vt 0.367351 0.643070 0.000000
vt 0.362946 0.649964 0.000000
vt 0.300429 0.733624 0.000000
vt 0.377507 0.816437 0.000000
vt 0.354493 0.857566 0.000000
vt 0.620940 0.551476 0.000000
vt 0.551116 0.466552 0.000000
vt 0.462865 0.677698 0.000000
vt 0.444251 0.713532 0.000000
vt 0.441365 0.720807 0.000000
vt 0.382074 0.807529 0.000000
vt 0.500800 0.921270 0.000000
vt 0.500772 0.959087 0.000000
vt 0.500856 0.671750 0.000000
vt 0.500759 0.511489 0.000000
vt 0.501192 0.718066 0.000000
vt 0.500914 0.751840 0.000000
vt 0.500913 0.760847 0.000000
vt 0.500801 0.915909 0.000000
vt 0.624258 0.816710 0.000000
vt 0.647212 0.857885 0.000000
vt 0.380630 0.551678 0.000000
vt 0.450345 0.466628 0.000000
vt 0.539087 0.677807 0.000000
vt 0.557644 0.713682 0.000000
vt 0.560525 0.720957 0.000000
vt 0.619698 0.807794 0.000000
vt 0.706677 0.741468 0.000000
vt 0.733267 0.778775 0.000000
vt 0.306294 0.462949 0.000000
vt 0.383255 0.386617 0.000000
vt 0.612581 0.611457 0.000000
vt 0.634660 0.643400 0.000000
vt 0.639044 0.650287 0.000000
vt 0.701451 0.734051 0.000000
vt 0.783064 0.656591 0.000000
vt 0.812443 0.690934 0.000000
vt 0.242581 0.362583 0.000000
vt 0.326898 0.298036 0.000000
vt 0.677452 0.534817 0.000000
vt 0.702966 0.565163 0.000000
vt 0.708705 0.572293 0.000000
vt 0.777134 0.649792 0.000000
vt 0.842911 0.579343 0.000000
vt 0.874632 0.610606 0.000000
vt 0.196860 0.271157 0.000000
vt 0.287610 0.219604 0.000000
vt 0.728649 0.469278 0.000000
vt 0.755669 0.497151 0.000000
vt 0.762013 0.503614 0.000000
vt 0.836340 0.573338 0.000000
vt 0.901649 0.489893 0.000000
vt 0.935633 0.516571 0.000000
vt 0.156330 0.166611 0.000000
vt 0.252845 0.128159 0.000000
vt 0.779858 0.391288 0.000000
vt 0.808247 0.417538 0.000000
vt 0.815167 0.423486 0.000000
vt 0.895346 0.485080 0.000000
vt 0.951824 0.383996 0.000000
vt 0.987386 0.406749 0.000000
vt 0.130837 0.047510 2.247348
vt 0.234607 0.048746 0.000000
vt 0.819006 0.326640 0.000000
vt 0.846656 0.351156 0.000000
vt 0.852683 0.353359 0.000000
vt 0.945577 0.381366 0.000000
vt 0.179562 0.906388 0.000000
vt 0.069884 0.906388 1.571084
vt 0.067869 0.904624 0.000000
vt 0.179562 0.868863 0.000000
vt 0.067869 0.868863 0.000000
vt 0.069884 0.867099 1.571084
vt 0.177547 0.867099 0.000000
vt 0.820630 0.907301 0.000000
vt 0.821591 0.869788 0.000000
vt 0.823650 0.868076 3.844522
vt 0.930273 0.910111 3.847626
vt 0.931280 0.870834 0.000000
vt 0.933249 0.872649 0.000000
vt 0.932333 0.908399 0.000000
vt 0.228604 0.384394 0.000000
vt 0.187410 0.317993 0.000000
vt 0.279415 0.462323 0.000000
vt 0.330387 0.527376 0.000000
vt 0.394063 0.604125 0.000000
vt 0.467400 0.669417 0.000000
vt 0.501188 0.705189 0.000000
vt 0.534564 0.669517 0.000000
vt 0.608022 0.604443 0.000000
vt 0.671694 0.527707 0.000000
vt 0.722759 0.462761 0.000000
vt 0.773648 0.384910 0.000000
vt 0.814904 0.318571 0.000000
vt 0.015989 0.389212 2.229309
vt 0.046209 0.371245 0.000000
vt 0.770997 0.034138 0.000000
vt 0.863768 0.032770 0.000000
vt 0.147749 0.337282 0.000000
vt 0.173371 0.314807 0.000000
vt 0.052067 0.368201 0.000000
vt 0.143339 0.339589 0.000000
vt 0.956044 0.372031 0.000000
vt 0.986245 0.390041 2.229305
vt 0.136924 0.033550 0.000000
vt 0.229699 0.034674 0.000000
vt 0.828946 0.315405 0.000000
vt 0.854543 0.337919 0.000000
vt 0.858950 0.340232 0.000000
vt 0.950191 0.368979 0.000000
vt 0.174730 0.312237 0.000000
vt 0.827590 0.312833 0.000000
# 149 texture coords

g Archway_Overlay_105x205_Pointed_A
s 1
f 1/1/1 2/2/2 3/3/3 4/4/4 
f 2/5/2 5/6/5 6/7/6 3/8/3 
f 7/9/7 8/10/8 9/11/9 10/12/10 
f 11/13/11 12/14/12 13/15/13 14/16/14 
f 15/17/15 16/18/16 2/2/2 1/1/1 
f 16/19/16 17/20/17 5/6/5 2/5/2 
f 18/21/18 19/22/19 8/10/8 7/9/7 
f 20/23/20 21/24/21 13/15/13 12/14/12 
f 22/25/22 23/26/23 16/18/16 15/17/15 
f 23/27/23 24/28/24 17/20/17 16/19/16 
f 25/29/25 26/30/26 19/22/19 18/21/18 
f 27/31/27 28/32/28 21/24/21 20/23/20 
f 29/33/29 30/34/30 23/26/23 22/25/22 
f 30/35/30 31/36/31 24/28/24 23/27/23 
f 32/37/32 33/38/33 26/30/26 25/29/25 
f 34/39/34 35/40/35 28/32/28 27/31/27 
f 36/41/36 37/42/37 30/34/30 29/33/29 
f 37/43/37 38/44/38 31/36/31 30/35/30 
f 39/45/39 40/46/40 33/38/33 32/37/32 
f 41/47/41 42/48/42 35/40/35 34/39/34 
f 43/49/43 44/50/44 37/42/37 36/41/36 
f 44/51/44 45/52/45 38/44/38 37/43/37 
f 46/53/46 47/54/47 40/46/40 39/45/39 
f 48/55/48 49/56/49 42/48/42 41/47/41 
f 50/57/50 51/58/51 44/50/44 43/49/43 
f 51/59/51 52/60/52 45/52/45 44/51/44 
f 53/61/53 54/62/54 47/54/47 46/53/46 
f 55/63/55 56/64/56 49/56/49 48/55/48 
f 57/65/57 58/66/58 51/58/51 50/57/50 
f 58/67/58 59/68/59 52/60/52 51/59/51 
f 60/69/60 61/70/61 54/62/54 53/61/53 
f 62/71/62 63/72/63 56/64/56 55/63/55 
f 64/73/64 65/74/65 58/66/58 57/65/57 
f 65/75/65 66/76/66 59/68/59 58/67/58 
f 67/77/67 68/78/68 61/70/61 60/69/60 
f 69/79/69 70/80/70 63/72/63 62/71/62 
f 71/81/71 72/82/72 65/74/65 64/73/64 
f 72/83/72 73/84/73 66/76/66 65/75/65 
f 74/85/74 75/86/75 68/78/68 67/77/67 
f 76/87/76 77/88/77 70/80/70 69/79/69 
f 78/89/78 79/90/79 72/82/72 71/81/71 
f 79/91/79 80/92/80 73/84/73 72/83/72 
f 81/93/81 82/94/82 75/86/75 74/85/74 
f 83/95/83 84/96/84 77/88/77 76/87/76 
f 85/97/85 86/98/86 79/90/79 78/89/78 
f 79/91/79 86/99/86 87/100/87 80/92/80 
f 88/101/88 89/102/89 82/94/82 81/93/81 
f 90/103/90 91/104/91 84/96/84 83/95/83 
f 92/105/92 93/106/93 94/107/94 95/108/95 
f 94/107/94 96/109/96 97/110/97 95/108/95 
f 97/110/97 98/111/98 95/108/95 
f 99/112/99 100/113/100 101/114/101 102/115/102 
f 101/114/101 103/116/103 104/117/104 102/115/102 
f 105/118/105 102/115/102 104/117/104 
f 4/4/4 14/16/14 13/15/13 1/1/1 
f 5/119/5 7/9/7 10/12/10 6/120/6 
f 8/10/8 12/14/12 11/13/11 9/11/9 
f 1/1/1 13/15/13 21/24/21 15/17/15 
f 17/121/17 18/21/18 7/9/7 5/119/5 
f 19/22/19 20/23/20 12/14/12 8/10/8 
f 15/17/15 21/24/21 28/32/28 22/25/22 
f 24/122/24 25/29/25 18/21/18 17/121/17 
f 26/30/26 27/31/27 20/23/20 19/22/19 
f 22/25/22 28/32/28 35/40/35 29/33/29 
f 31/123/31 32/37/32 25/29/25 24/122/24 
f 33/38/33 34/39/34 27/31/27 26/30/26 
f 29/33/29 35/40/35 42/48/42 36/41/36 
f 38/124/38 39/45/39 32/37/32 31/123/31 
f 40/46/40 41/47/41 34/39/34 33/38/33 
f 36/41/36 42/48/42 49/56/49 43/49/43 
f 45/125/45 46/53/46 39/45/39 38/124/38 
f 47/54/47 48/55/48 41/47/41 40/46/40 
f 43/49/43 49/56/49 56/64/56 50/57/50 
f 52/126/52 53/61/53 46/53/46 45/125/45 
f 54/62/54 55/63/55 48/55/48 47/54/47 
f 50/57/50 56/64/56 63/72/63 57/65/57 
f 59/127/59 60/69/60 53/61/53 52/126/52 
f 61/70/61 62/71/62 55/63/55 54/62/54 
f 57/65/57 63/72/63 70/80/70 64/73/64 
f 66/128/66 67/77/67 60/69/60 59/127/59 
f 68/78/68 69/79/69 62/71/62 61/70/61 
f 64/73/64 70/80/70 77/88/77 71/81/71 
f 73/129/73 74/85/74 67/77/67 66/128/66 
f 75/86/75 76/87/76 69/79/69 68/78/68 
f 71/81/71 77/88/77 84/96/84 78/89/78 
f 80/130/80 81/93/81 74/85/74 73/129/73 
f 82/94/82 83/95/83 76/87/76 75/86/75 
f 78/89/78 84/96/84 91/104/91 85/97/85 
f 87/131/87 88/101/88 81/93/81 80/130/80 
f 89/102/89 90/103/90 83/95/83 82/94/82 
f 3/3/3 92/132/92 95/133/95 4/4/4 
f 6/7/6 93/134/93 92/135/92 3/8/3 
f 9/11/9 96/136/96 94/137/94 10/12/10 
f 14/16/14 98/138/98 97/139/97 11/13/11 
f 85/97/85 100/140/100 99/141/99 86/98/86 
f 86/99/86 99/142/99 102/143/102 87/100/87 
f 88/101/88 105/144/105 104/145/104 89/102/89 
f 90/103/90 103/146/103 101/147/101 91/104/91 
f 4/4/4 95/133/95 98/138/98 14/16/14 
f 10/12/10 94/137/94 93/148/93 6/120/6 
f 11/13/11 97/139/97 96/136/96 9/11/9 
f 91/104/91 101/147/101 100/140/100 85/97/85 
f 87/131/87 102/149/102 105/144/105 88/101/88 
f 89/102/89 104/145/104 103/146/103 90/103/90 
# 102 polygons - 2 triangles

