# 3ds Max Wavefront OBJ Exporter v0.97b - (c)2007 guruware
# File Created: 24.05.2015 12:00:35

#
# object Archway_Overlay_105x205_Pointed_B
#

v  -105.528008 284.120422 56.024864
v  -105.528008 284.120422 43.524868
v  -113.702690 249.838623 43.524868
v  -113.702675 249.838623 56.024864
v  -83.805702 276.685059 43.524864
v  -90.357574 249.931183 43.524864
v  -62.083401 269.249695 43.524864
v  -62.083401 269.249695 56.024864
v  -67.012451 250.023743 56.024864
v  -67.012451 250.023743 43.524864
v  -92.947701 311.682068 55.880447
v  -92.997284 311.698914 43.730701
v  -73.283775 300.507202 43.811256
v  -53.559189 289.320068 43.724152
v  -53.559189 289.320068 55.825577
v  -78.988281 337.001312 56.024864
v  -78.988297 337.001312 43.524868
v  -61.085972 322.184265 43.524864
v  -43.183647 307.367188 43.524864
v  -43.183647 307.367188 56.024864
v  -58.940655 363.763794 55.733341
v  -59.034424 363.815063 43.937004
v  -44.085556 345.648071 44.090424
v  -29.108589 327.489990 43.918770
v  -29.108589 327.489990 55.630959
v  -36.574322 388.026947 56.024864
v  -36.574322 388.026947 43.524868
v  -24.093269 366.657623 43.524864
v  -11.612210 345.288300 43.524864
v  -11.612210 345.288300 56.024864
v  0.372575 420.474060 55.561256
v  0.372576 420.566681 44.058815
v  0.372590 388.006531 44.022190
v  0.372603 355.667969 43.836212
v  0.372603 355.667969 55.713516
v  37.319382 388.026886 56.024864
v  37.319378 388.026886 43.524868
v  24.838360 366.657562 43.524864
v  12.357344 345.288239 43.524864
v  12.357344 345.288239 56.024864
v  60.069332 364.028137 56.024864
v  60.076515 364.016479 43.524868
v  44.768333 345.598755 43.524868
v  29.445230 327.205414 43.524864
v  29.445230 327.205414 56.024864
v  79.733803 337.001556 56.024864
v  79.733788 337.001556 43.524868
v  61.831646 322.184204 43.524864
v  43.929504 307.366882 43.524864
v  43.929504 307.366882 56.024864
v  93.669044 312.278625 56.024864
v  93.670654 312.274841 43.524868
v  73.752846 300.994568 43.524864
v  53.830441 289.721863 43.524864
v  53.830441 289.721863 56.024864
v  106.274529 284.120300 56.024864
v  106.274521 284.120300 43.524868
v  84.552132 276.684967 43.524864
v  62.829746 269.249634 43.524864
v  62.829746 269.249634 56.024864
v  114.448006 249.837860 56.024864
v  114.448006 249.837860 43.524868
v  91.102737 249.931061 43.524864
v  67.757477 250.024261 43.524864
v  67.757477 250.024261 56.024864
v  -90.357567 249.931183 56.024864
v  -96.644524 281.635895 61.045250
v  -102.208130 250.410675 61.045250
v  -97.790382 250.428192 61.045250
v  -92.682800 279.177826 61.045250
v  -84.708565 308.213501 60.773743
v  -81.796005 304.018860 60.777012
v  -69.093552 326.436005 61.045250
v  -70.980698 332.749573 61.045250
v  -51.617569 350.787231 60.541023
v  -51.886494 358.837555 60.531990
v  -30.878218 372.395020 61.045250
v  -29.789371 382.289520 61.045250
v  0.372612 400.060059 60.580780
v  0.372565 408.805908 60.510483
v  30.534439 382.289459 61.045250
v  31.623312 372.394989 61.045250
v  52.693375 358.867126 61.045250
v  52.179546 350.648376 61.045250
v  71.726280 332.749725 61.045250
v  69.839172 326.436035 61.045250
v  85.247246 308.741150 61.045250
v  82.187309 304.482483 61.045250
v  97.390999 281.635895 61.045250
v  93.429306 279.177612 61.045250
v  102.953789 250.410278 61.045250
v  98.535912 250.427887 61.045250
v  91.102737 249.931061 56.024864
v  -83.805702 276.685059 56.024864
v  -73.357002 300.543854 55.750290
v  -61.085968 322.184265 56.024864
v  -44.210518 345.748169 55.480480
v  -24.093266 366.657623 56.024864
v  0.372589 388.119720 55.560394
v  24.838366 366.657562 56.024864
v  44.760826 345.610870 56.024864
v  61.831650 322.184204 56.024864
v  73.751167 300.998596 56.024864
v  84.552139 276.684967 56.024864
# 104 vertices

vn -0.820111 0.282261 0.497741
vn -0.686202 0.238825 -0.687088
vn -0.646092 -0.512225 -0.565854
vn -0.727302 -0.532347 0.433173
vn 0.001787 0.005221 -0.999985
vn 0.002803 -0.707101 -0.707107
vn 0.653034 -0.216903 -0.725603
vn 0.653046 -0.217010 0.725560
vn 0.495361 -0.635773 0.591954
vn 0.495361 -0.635773 -0.591954
vn -0.771594 0.387553 0.504426
vn -0.642011 0.321188 -0.696175
vn -0.000613 -0.000706 -1.000000
vn 0.621177 -0.308991 -0.720183
vn 0.621356 -0.309080 0.719991
vn -0.727606 0.470098 0.499597
vn -0.601684 0.393374 -0.695149
vn 0.003536 0.003254 -0.999988
vn 0.586378 -0.370362 -0.720412
vn 0.586452 -0.370459 0.720301
vn -0.666516 0.552847 0.500116
vn -0.558181 0.459709 -0.690725
vn -0.001003 -0.000397 -0.999999
vn 0.530310 -0.438907 -0.725350
vn 0.530589 -0.439144 0.725002
vn -0.605066 0.620338 0.499075
vn -0.497514 0.513526 -0.699121
vn -0.000085 -0.001318 -0.999999
vn 0.473091 -0.507128 -0.720421
vn 0.473212 -0.507260 0.720249
vn -0.000450 0.884420 0.466691
vn -0.000528 0.815730 -0.578432
vn -0.000000 0.004312 -0.999991
vn -0.000001 -0.461787 -0.886991
vn -0.000001 -0.462516 0.886611
vn 0.600038 0.625723 0.498422
vn 0.492224 0.518133 -0.699467
vn -0.006732 0.003932 -0.999970
vn -0.484079 -0.497734 -0.719672
vn -0.483989 -0.497916 0.719607
vn 0.667673 0.554368 0.496880
vn 0.554381 0.461072 -0.692874
vn 0.000000 0.000000 -1.000000
vn -0.532218 -0.442744 -0.721611
vn -0.532218 -0.442744 0.721611
vn 0.729312 0.467896 0.499177
vn 0.605445 0.389055 -0.694314
vn -0.583207 -0.374636 -0.720775
vn -0.583207 -0.374636 0.720775
vn 0.772348 0.388930 0.502207
vn 0.640377 0.322934 -0.696872
vn -0.622651 -0.310627 -0.718204
vn -0.622651 -0.310627 0.718204
vn 0.821256 0.272132 0.501480
vn 0.688310 0.233826 -0.686698
vn -0.650094 -0.224517 -0.725927
vn -0.650094 -0.224517 0.725927
vn 0.726267 -0.529226 0.438698
vn 0.646075 -0.512246 -0.565855
vn -0.002823 -0.707101 -0.707107
vn -0.495389 -0.635754 -0.591952
vn -0.495389 -0.635754 0.591952
vn 0.192967 -0.801160 0.566486
vn -0.244753 0.087618 0.965618
vn -0.165743 -0.608491 0.776059
vn 0.184574 -0.628846 0.755305
vn 0.220965 -0.062287 0.973291
vn -0.229878 0.114295 0.966485
vn 0.218050 -0.106565 0.970102
vn 0.203186 -0.130037 0.970467
vn -0.211981 0.144099 0.966592
vn 0.196254 -0.154022 0.968381
vn -0.208214 0.168526 0.963455
vn 0.163221 -0.179992 0.970032
vn -0.176823 0.188369 0.966049
vn -0.001229 -0.102204 0.994763
vn -0.000138 0.286169 0.958179
vn 0.173166 0.191451 0.966106
vn -0.176683 -0.176397 0.968332
vn 0.200972 0.168245 0.965041
vn -0.187808 -0.155172 0.969871
vn 0.217961 0.141036 0.965713
vn -0.203899 -0.130309 0.970281
vn 0.228354 0.115646 0.966685
vn -0.216723 -0.108291 0.970208
vn 0.252729 0.078381 0.964357
vn -0.221632 -0.073181 0.972380
vn 0.172258 -0.603525 0.778514
vn -0.193271 -0.624681 0.756585
vn -0.189563 -0.795555 0.575463
vn 0.253858 -0.074037 0.964404
vn 0.228042 -0.115350 0.966794
vn 0.220836 -0.137023 0.965638
vn 0.200716 -0.169435 0.964886
vn 0.180557 -0.190961 0.964849
vn 0.000248 -0.278100 0.960552
vn -0.187728 -0.184985 0.964644
vn -0.201663 -0.168998 0.964765
vn -0.218069 -0.141038 0.965688
vn -0.228902 -0.115493 0.966574
vn -0.245909 -0.084797 0.965577
# 101 vertex normals

vt 0.104569 0.529781 0.000000
vt 0.070434 0.552827 0.000000
vt 0.015019 0.442800 0.000000
vt 0.051027 0.421309 1.963365
vt 0.842715 0.137081 0.000000
vt 0.771992 0.111162 0.000000
vt 0.793085 0.017157 0.000000
vt 0.869025 0.016626 1.963365
vt 0.274050 0.419584 0.000000
vt 0.239195 0.442623 0.000000
vt 0.208334 0.380426 0.000000
vt 0.243364 0.359385 0.000000
vt 0.160435 0.615850 0.000000
vt 0.128847 0.641686 0.000000
vt 0.802174 0.234045 0.000000
vt 0.737959 0.194913 0.000000
vt 0.311804 0.481839 0.000000
vt 0.280239 0.507344 0.000000
vt 0.219239 0.693658 0.000000
vt 0.189274 0.722981 0.000000
vt 0.698449 0.271142 0.000000
vt 0.756791 0.323033 0.000000
vt 0.354419 0.536035 0.000000
vt 0.324342 0.565082 0.000000
vt 0.295029 0.776269 0.000000
vt 0.269067 0.806988 0.000000
vt 0.692039 0.417373 0.000000
vt 0.643304 0.353677 0.000000
vt 0.406753 0.597725 0.000000
vt 0.381564 0.628214 0.000000
vt 0.376483 0.849553 0.000000
vt 0.352906 0.885488 0.000000
vt 0.578373 0.427576 0.000000
vt 0.619062 0.502555 0.000000
vt 0.467081 0.648657 0.000000
vt 0.448031 0.684591 0.000000
vt 0.500611 0.949107 0.000000
vt 0.500506 0.980431 0.000000
vt 0.498923 0.616961 0.000000
vt 0.498846 0.502632 0.000000
vt 0.500983 0.671376 0.000000
vt 0.501021 0.712766 0.000000
vt 0.625384 0.850394 0.000000
vt 0.648684 0.886666 0.000000
vt 0.378635 0.502741 0.000000
vt 0.419219 0.427696 0.000000
vt 0.534683 0.648701 0.000000
vt 0.554132 0.684530 0.000000
vt 0.707563 0.777831 0.000000
vt 0.734779 0.810376 0.000000
vt 0.304585 0.418396 0.000000
vt 0.354395 0.353737 0.000000
vt 0.593231 0.595420 0.000000
vt 0.619926 0.627895 0.000000
vt 0.783240 0.695268 0.000000
vt 0.813278 0.724753 0.000000
vt 0.240665 0.323481 0.000000
vt 0.298924 0.271482 0.000000
vt 0.647970 0.536039 0.000000
vt 0.677911 0.565608 0.000000
vt 0.841340 0.619237 0.000000
vt 0.873680 0.645848 0.000000
vt 0.195373 0.236609 0.000000
vt 0.260189 0.197043 0.000000
vt 0.688753 0.482992 0.000000
vt 0.721023 0.509529 0.000000
vt 0.898287 0.531669 0.000000
vt 0.932455 0.554759 0.000000
vt 0.154435 0.137708 0.000000
vt 0.225114 0.111651 0.000000
vt 0.729100 0.420179 0.000000
vt 0.763753 0.443736 0.000000
vt 0.952108 0.423325 1.963361
vt 0.988061 0.444890 0.000000
vt 0.127924 0.017303 1.963361
vt 0.203866 0.017687 0.000000
vt 0.760245 0.360361 0.000000
vt 0.795052 0.381715 0.000000
vt 0.126302 0.937314 1.963903
vt 0.124535 0.892587 0.000000
vt 0.208068 0.889277 0.000000
vt 0.209839 0.934005 0.000000
vt 0.134040 0.512300 0.000000
vt 0.091530 0.411013 0.000000
vt 0.106282 0.407444 0.000000
vt 0.144722 0.501151 0.000000
vt 0.188102 0.595710 0.000000
vt 0.195056 0.579206 0.000000
vt 0.248318 0.648698 0.000000
vt 0.245656 0.671511 0.000000
vt 0.316277 0.723766 0.000000
vt 0.318545 0.752123 0.000000
vt 0.392437 0.788591 0.000000
vt 0.398780 0.822644 0.000000
vt 0.500770 0.876518 0.000000
vt 0.500719 0.907458 0.000000
vt 0.603085 0.823255 0.000000
vt 0.609442 0.789055 0.000000
vt 0.683306 0.752710 0.000000
vt 0.685168 0.723893 0.000000
vt 0.756713 0.672812 0.000000
vt 0.753966 0.649827 0.000000
vt 0.813233 0.598689 0.000000
vt 0.806032 0.581923 0.000000
vt 0.868806 0.514020 0.000000
vt 0.858104 0.502789 0.000000
vt 0.911655 0.412901 0.000000
vt 0.896935 0.409260 0.000000
vt 0.775779 0.916636 0.000000
vt 0.777550 0.871908 0.000000
vt 0.861083 0.875218 0.000000
vt 0.859317 0.919945 1.963911
vt 0.150407 0.873472 1.966814
vt 0.166215 0.872845 0.000000
vt 0.174895 0.484134 0.000000
vt 0.134551 0.397851 0.000000
vt 0.223481 0.558941 0.000000
vt 0.274954 0.626470 0.000000
vt 0.341248 0.699034 0.000000
vt 0.415731 0.762240 0.000000
vt 0.500835 0.830023 0.000000
vt 0.586101 0.762577 0.000000
vt 0.660423 0.699269 0.000000
vt 0.727334 0.627345 0.000000
vt 0.777778 0.561549 0.000000
vt 0.827995 0.485549 0.000000
vt 0.868710 0.399521 0.000000
vt 0.819402 0.855476 0.000000
vt 0.835210 0.856103 1.966821
vt 0.944616 0.878504 0.000000
vt 0.942856 0.923232 0.000000
vt 0.717144 0.017689 0.000000
vt 0.701269 0.085245 0.000000
vt 0.673707 0.155800 0.000000
vt 0.640106 0.219254 0.000000
vt 0.594476 0.290014 0.000000
vt 0.537684 0.352598 0.000000
vt 0.498770 0.389080 0.000000
vt 0.459803 0.352653 0.000000
vt 0.404255 0.289163 0.000000
vt 0.357184 0.219486 0.000000
vt 0.325020 0.157505 0.000000
vt 0.295794 0.085594 0.000000
vt 0.279808 0.018072 0.000000
vt 0.042765 0.940605 0.000000
vt 0.041002 0.895878 0.000000
# 146 texture coords

g Archway_Overlay_105x205_Pointed_B
s 1
f 1/1/1 2/2/2 3/3/3 4/4/4 
f 2/5/2 5/6/5 6/7/6 3/8/3 
f 7/9/7 8/10/8 9/11/9 10/12/10 
f 11/13/11 12/14/12 2/2/2 1/1/1 
f 2/5/2 12/15/12 13/16/13 5/6/5 
f 14/17/14 15/18/15 8/10/8 7/9/7 
f 16/19/16 17/20/17 12/14/12 11/13/11 
f 18/21/18 13/16/13 12/15/12 17/22/17 
f 19/23/19 20/24/20 15/18/15 14/17/14 
f 21/25/21 22/26/22 17/20/17 16/19/16 
f 17/22/17 22/27/22 23/28/23 18/21/18 
f 24/29/24 25/30/25 20/24/20 19/23/19 
f 26/31/26 27/32/27 22/26/22 21/25/21 
f 28/33/28 23/28/23 22/27/22 27/34/27 
f 29/35/29 30/36/30 25/30/25 24/29/24 
f 31/37/31 32/38/32 27/32/27 26/31/26 
f 27/34/27 32/39/32 33/40/33 28/33/28 
f 34/41/34 35/42/35 30/36/30 29/35/29 
f 36/43/36 37/44/37 32/38/32 31/37/31 
f 37/45/37 38/46/38 33/40/33 32/39/32 
f 39/47/39 40/48/40 35/42/35 34/41/34 
f 41/49/41 42/50/42 37/44/37 36/43/36 
f 37/45/37 42/51/42 43/52/43 38/46/38 
f 44/53/44 45/54/45 40/48/40 39/47/39 
f 46/55/46 47/56/47 42/50/42 41/49/41 
f 47/57/47 48/58/43 43/52/43 42/51/42 
f 49/59/48 50/60/49 45/54/45 44/53/44 
f 51/61/50 52/62/51 47/56/47 46/55/46 
f 47/57/47 52/63/51 53/64/43 48/58/43 
f 54/65/52 55/66/53 50/60/49 49/59/48 
f 56/67/54 57/68/55 52/62/51 51/61/50 
f 57/69/55 58/70/43 53/64/43 52/63/51 
f 59/71/56 60/72/57 55/66/53 54/65/52 
f 61/73/58 62/74/59 57/68/55 56/67/54 
f 57/69/55 62/75/59 63/76/60 58/70/43 
f 64/77/61 65/78/62 60/72/57 59/71/56 
f 6/79/6 66/80/63 4/81/4 3/82/3 
f 67/83/64 68/84/65 69/85/66 70/86/67 
f 71/87/68 67/83/64 70/86/67 72/88/69 
f 73/89/70 74/90/71 71/87/68 72/88/69 
f 73/89/70 75/91/72 76/92/73 74/90/71 
f 77/93/74 78/94/75 76/92/73 75/91/72 
f 77/93/74 79/95/76 80/96/77 78/94/75 
f 81/97/78 80/96/77 79/95/76 82/98/79 
f 83/99/80 81/97/78 82/98/79 84/100/81 
f 85/101/82 83/99/80 84/100/81 86/102/83 
f 87/103/84 85/101/82 86/102/83 88/104/85 
f 89/105/86 87/103/84 88/104/85 90/106/87 
f 91/107/88 89/105/86 90/106/87 92/108/89 
f 62/109/59 61/110/58 93/111/90 63/112/60 
f 4/4/4 68/84/65 67/83/64 1/1/1 
f 66/80/63 69/113/66 68/114/65 4/81/4 
f 94/115/91 70/86/67 69/85/66 66/116/63 
f 94/115/91 95/117/92 72/88/69 70/86/67 
f 73/89/70 72/88/69 95/117/92 96/118/93 
f 96/118/93 97/119/94 75/91/72 73/89/70 
f 77/93/74 75/91/72 97/119/94 98/120/95 
f 98/120/95 99/121/96 79/95/76 77/93/74 
f 82/98/79 79/95/76 99/121/96 100/122/97 
f 100/122/97 101/123/98 84/100/81 82/98/79 
f 102/124/99 86/102/83 84/100/81 101/123/98 
f 102/124/99 103/125/100 88/104/85 86/102/83 
f 104/126/101 90/106/87 88/104/85 103/125/100 
f 93/127/90 92/108/89 90/106/87 104/126/101 
f 61/110/58 91/128/88 92/129/89 93/111/90 
f 56/67/54 89/105/86 91/107/88 61/73/58 
f 56/67/54 51/61/50 87/103/84 89/105/86 
f 51/61/50 46/55/46 85/101/82 87/103/84 
f 46/55/46 41/49/41 83/99/80 85/101/82 
f 36/43/36 81/97/78 83/99/80 41/49/41 
f 36/43/36 31/37/31 80/96/77 81/97/78 
f 26/31/26 78/94/75 80/96/77 31/37/31 
f 26/31/26 21/25/21 76/92/73 78/94/75 
f 16/19/16 74/90/71 76/92/73 21/25/21 
f 16/19/16 11/13/11 71/87/68 74/90/71 
f 11/13/11 1/1/1 67/83/64 71/87/68 
f 66/116/63 9/11/9 8/10/8 94/115/91 
f 95/117/92 94/115/91 8/10/8 15/18/15 
f 95/117/92 15/18/15 20/24/20 96/118/93 
f 20/24/20 25/30/25 97/119/94 96/118/93 
f 97/119/94 25/30/25 30/36/30 98/120/95 
f 30/36/30 35/42/35 99/121/96 98/120/95 
f 99/121/96 35/42/35 40/48/40 100/122/97 
f 101/123/98 100/122/97 40/48/40 45/54/45 
f 101/123/98 45/54/45 50/60/49 102/124/99 
f 103/125/100 102/124/99 50/60/49 55/66/53 
f 103/125/100 55/66/53 60/72/57 104/126/101 
f 104/126/101 60/72/57 65/78/62 93/127/90 
f 63/112/60 93/111/90 65/130/62 64/131/61 
f 10/132/10 6/7/6 5/6/5 7/133/7 
f 7/133/7 5/6/5 13/16/13 14/134/14 
f 19/135/19 14/134/14 13/16/13 18/21/18 
f 19/135/19 18/21/18 23/28/23 24/136/24 
f 29/137/29 24/136/24 23/28/23 28/33/28 
f 29/137/29 28/33/28 33/40/33 34/138/34 
f 39/139/39 34/138/34 33/40/33 38/46/38 
f 39/139/39 38/46/38 43/52/43 44/140/44 
f 49/141/48 44/140/44 43/52/43 48/58/43 
f 49/141/48 48/58/43 53/64/43 54/142/52 
f 59/143/56 54/142/52 53/64/43 58/70/43 
f 59/143/56 58/70/43 63/76/60 64/144/61 
f 10/145/10 9/146/9 66/80/63 6/79/6 
# 102 polygons

