# 3ds Max Wavefront OBJ Exporter v0.97b - (c)2007 guruware
# File Created: 24.05.2015 12:00:34

#
# object Archway_Overlay_105x205_Square_A
#

v  -4.407978 277.121613 61.398048
v  -4.407964 277.121582 37.859142
v  -34.455097 277.121613 37.859135
v  -34.455112 277.121613 61.398041
v  -4.407948 247.121582 37.859142
v  -34.455082 247.121597 37.859135
v  -4.407963 247.121582 61.398048
v  -34.455097 247.121597 61.398041
v  -4.407965 248.582672 62.859142
v  -4.407978 275.660522 62.859142
v  -34.455112 275.660522 62.859135
v  -34.455097 248.582687 62.859135
v  -106.706940 248.936478 37.859123
v  -106.706955 248.936478 61.398033
v  -106.706970 276.014313 61.398033
v  -106.706955 276.014313 37.859123
v  102.754044 276.014282 61.398071
v  102.754059 248.936462 61.398071
v  102.754074 248.936462 37.859161
v  102.754059 276.014282 37.859161
v  101.292953 277.475372 61.398067
v  101.292969 277.475372 37.859161
v  70.275406 277.475372 37.859154
v  70.275391 277.475372 61.398064
v  65.412354 278.761292 61.398064
v  65.412369 278.761292 37.859154
v  35.365231 278.761292 37.859150
v  35.365215 278.761292 61.398056
v  30.502184 277.475372 61.398056
v  30.502199 277.475372 37.859150
v  0.455068 277.475372 37.859142
v  0.455053 277.475403 61.398048
v  -105.245865 277.475403 37.859123
v  -105.245880 277.475403 61.398033
v  -74.228317 277.475403 61.398041
v  -74.228302 277.475403 37.859131
v  -69.365265 277.999023 37.859131
v  -69.365280 277.999023 61.398041
v  -39.318142 277.999023 61.398041
v  -39.318127 277.999023 37.859135
v  70.275421 247.475372 37.859154
v  101.292984 247.475372 37.859161
v  65.412384 248.761292 37.859154
v  35.365246 248.761292 37.859150
v  30.502214 247.475372 37.859150
v  0.455083 247.475372 37.859142
v  -74.228287 247.475388 37.859131
v  -105.245850 247.475388 37.859123
v  -69.365250 247.999008 37.859131
v  -39.318111 247.999008 37.859135
v  101.292969 247.475372 61.398067
v  70.275406 247.475372 61.398064
v  65.412369 248.761292 61.398064
v  35.365231 248.761292 61.398056
v  30.502199 247.475372 61.398056
v  0.455069 247.475372 61.398048
v  -105.245865 247.475388 61.398033
v  -74.228302 247.475388 61.398041
v  -69.365265 247.999008 61.398041
v  -39.318127 247.999008 61.398041
v  101.292969 248.936462 62.859161
v  101.292953 276.014282 62.859161
v  70.275391 276.014282 62.859154
v  70.275406 248.936462 62.859154
v  65.412369 250.222382 62.859154
v  65.412354 277.300201 62.859154
v  35.365215 277.300201 62.859150
v  35.365231 250.222382 62.859150
v  30.502199 248.936462 62.859150
v  30.502184 276.014282 62.859150
v  0.455053 276.014313 62.859142
v  0.455067 248.936462 62.859142
v  -105.245880 276.014313 62.859123
v  -105.245865 248.936478 62.859123
v  -74.228302 248.936478 62.859131
v  -74.228317 276.014313 62.859131
v  -69.365280 276.537933 62.859131
v  -69.365265 249.460098 62.859131
v  -39.318127 249.460098 62.859135
v  -39.318142 276.537933 62.859135
v  -1.976462 276.700134 60.799690
v  -1.976448 276.700134 38.457500
v  -36.886612 276.961975 38.457493
v  -36.886627 276.961975 60.799683
v  -1.976433 247.896835 38.457500
v  -36.886597 248.158661 38.457493
v  -1.976447 247.896835 60.799690
v  -36.886612 248.158661 60.799683
v  -1.976448 249.357925 62.260784
v  -1.976463 275.239075 62.260784
v  -36.886627 275.500854 62.260777
v  -36.886612 249.619751 62.260777
v  67.843887 277.519958 38.457512
v  67.843872 277.519958 60.799706
v  32.933716 277.519958 38.457508
v  32.933701 277.519958 60.799698
v  -71.796799 277.138855 60.799683
v  -71.796783 277.138855 38.457489
v  67.843903 248.716690 38.457512
v  32.933731 248.716690 38.457508
v  -71.796768 248.335556 38.457489
v  67.843887 248.716690 60.799706
v  32.933716 248.716690 60.799698
v  -71.796783 248.335556 60.799683
v  67.843872 276.058899 62.260796
v  67.843887 250.177780 62.260796
v  32.933701 276.058899 62.260792
v  32.933716 250.177780 62.260792
v  -71.796783 249.796646 62.260773
v  -71.796799 275.677765 62.260773
# 110 vertices

vn 0.123041 0.910455 0.394883
vn 0.135610 0.694523 -0.706575
vn -0.105998 0.686784 -0.719091
vn -0.079612 0.912263 0.401795
vn 0.175087 -0.701510 -0.690817
vn -0.203067 -0.704308 -0.680231
vn 0.177525 -0.905492 0.385446
vn -0.214228 -0.900383 0.378704
vn 0.164168 -0.394714 0.904018
vn 0.138074 0.385070 0.912500
vn -0.119922 0.376730 0.918528
vn -0.184115 -0.400485 0.897616
vn -0.717283 -0.297109 -0.630263
vn -0.875579 -0.341586 0.341586
vn -0.875579 0.341586 0.341586
vn -0.717284 0.297108 -0.630263
vn 0.875578 0.341586 0.341586
vn 0.875579 -0.341586 0.341586
vn 0.717284 -0.297108 -0.630262
vn 0.717284 0.297109 -0.630262
vn 0.341586 0.875579 0.341585
vn 0.297109 0.717284 -0.630262
vn -0.083198 0.679239 -0.729186
vn -0.044337 0.912386 0.406922
vn 0.240597 0.895799 0.373707
vn 0.223824 0.705283 -0.672665
vn -0.223824 0.705283 -0.672665
vn -0.240596 0.895800 0.373706
vn 0.044338 0.912386 0.406923
vn 0.083199 0.679239 -0.729186
vn -0.175085 0.701509 -0.690818
vn -0.177526 0.905493 0.385445
vn -0.297108 0.717283 -0.630263
vn -0.341586 0.875579 0.341586
vn 0.109211 0.911233 0.397150
vn 0.126001 0.692257 -0.710566
vn -0.184309 0.702624 -0.687277
vn -0.189782 0.903947 0.383226
vn 0.214226 0.900384 0.378704
vn 0.203065 0.704308 -0.680232
vn -0.223823 -0.705283 -0.672666
vn 0.297109 -0.717284 -0.630262
vn 0.083197 -0.679238 -0.729187
vn -0.083197 -0.679238 -0.729187
vn 0.223823 -0.705283 -0.672666
vn -0.135611 -0.694524 -0.706574
vn 0.184310 -0.702624 -0.687277
vn -0.297108 -0.717283 -0.630263
vn -0.126000 -0.692257 -0.710567
vn 0.106000 -0.686785 -0.719090
vn 0.341586 -0.875579 0.341585
vn -0.240595 -0.895800 0.373707
vn 0.044336 -0.912386 0.406924
vn -0.044336 -0.912386 0.406923
vn 0.240595 -0.895800 0.373707
vn -0.123039 -0.910455 0.394884
vn -0.341586 -0.875579 0.341586
vn 0.189782 -0.903947 0.383226
vn -0.109211 -0.911233 0.397149
vn 0.079613 -0.912263 0.401793
vn 0.341586 -0.341586 0.875579
vn 0.341586 0.341587 0.875579
vn -0.106697 0.369664 0.923019
vn -0.199765 -0.404153 0.892611
vn 0.106698 -0.369665 0.923019
vn 0.199765 0.404154 0.892611
vn -0.199764 0.404154 0.892611
vn -0.106698 -0.369665 0.923018
vn 0.199765 -0.404154 0.892611
vn 0.106698 0.369666 0.923018
vn -0.164167 0.394714 0.904019
vn -0.138074 -0.385070 0.912500
vn -0.341586 0.341586 0.875579
vn -0.341586 -0.341586 0.875579
vn 0.170603 -0.396717 0.901948
vn 0.132055 0.382465 0.914485
vn -0.170603 0.396717 0.901948
vn -0.132055 -0.382465 0.914485
vn 0.119921 -0.376729 0.918528
vn 0.184114 0.400484 0.897616
vn -0.067833 0.934331 0.349893
vn -0.054474 0.705457 -0.706656
vn 0.133777 0.697077 -0.704405
vn 0.166427 0.923236 0.346321
vn 0.054474 -0.705456 -0.706657
vn -0.133777 -0.697076 -0.704407
vn 0.067833 -0.934329 0.349896
vn -0.166425 -0.923237 0.346318
vn 0.022768 -0.350665 0.936224
vn -0.022770 0.350670 0.936222
vn 0.056674 0.350909 0.934693
vn -0.056674 -0.350914 0.934691
vn 0.193460 0.685919 -0.701490
vn 0.240400 0.908575 0.341612
vn -0.193461 0.685919 -0.701490
vn -0.240402 0.908575 0.341611
vn -0.100143 0.931735 0.349058
vn -0.080440 0.703500 -0.706128
vn -0.193461 -0.685921 -0.701488
vn 0.193461 -0.685921 -0.701488
vn 0.080440 -0.703501 -0.706128
vn -0.240401 -0.908574 0.341615
vn 0.240401 -0.908574 0.341614
vn 0.100143 -0.931735 0.349058
vn 0.083437 0.351132 0.932601
vn -0.083437 -0.351127 0.932603
vn -0.083440 0.351133 0.932600
vn 0.083437 -0.351128 0.932603
vn 0.033727 -0.350729 0.935869
vn -0.033727 0.350729 0.935869
# 110 vertex normals

vt 0.490627 0.566439 0.000000
vt 0.490652 0.704966 0.000000
vt 0.355215 0.705132 0.000000
vt 0.355215 0.566489 0.000000
vt 0.494851 0.030020 0.000000
vt 0.494756 0.207035 0.000000
vt 0.359483 0.206925 0.000000
vt 0.359561 0.029910 0.000000
vt 0.490540 0.247591 0.000000
vt 0.490488 0.385726 0.000000
vt 0.355355 0.385793 0.000000
vt 0.355304 0.247782 0.000000
vt 0.490538 0.396446 0.000000
vt 0.490545 0.555057 0.000000
vt 0.355334 0.554876 0.000000
vt 0.355222 0.396267 0.000000
vt 0.042911 0.772485 0.000000
vt 0.171367 0.772485 8.367849
vt 0.171367 0.920254 0.000000
vt 0.042911 0.920254 9.223668
vt 0.836663 0.907441 0.000000
vt 0.836663 0.759672 8.367849
vt 0.965119 0.759672 0.000000
vt 0.965119 0.907441 9.223666
vt 0.969865 0.565610 0.000000
vt 0.970148 0.703435 0.000000
vt 0.830259 0.704956 0.000000
vt 0.830216 0.566392 0.000000
vt 0.807070 0.569755 0.000000
vt 0.807128 0.707479 0.000000
vt 0.672037 0.707616 0.000000
vt 0.672091 0.569834 0.000000
vt 0.648928 0.567292 0.000000
vt 0.648917 0.706000 0.000000
vt 0.513554 0.705479 0.000000
vt 0.513590 0.567144 0.000000
vt 0.034290 0.703462 0.000000
vt 0.034578 0.565653 0.000000
vt 0.174195 0.566489 0.000000
vt 0.174191 0.704751 0.000000
vt 0.196959 0.706205 0.000000
vt 0.197017 0.568190 0.000000
vt 0.332166 0.568223 0.000000
vt 0.332213 0.706208 0.000000
vt 0.833084 0.028489 0.000000
vt 0.972737 0.028764 0.000000
vt 0.979306 0.037398 9.223668
vt 0.832884 0.205504 0.000000
vt 0.979123 0.197170 0.000000
vt 0.972535 0.205778 0.000000
vt 0.810547 0.020855 0.000000
vt 0.810355 0.197870 0.000000
vt 0.675080 0.197617 0.000000
vt 0.675263 0.020603 0.000000
vt 0.652704 0.028149 0.000000
vt 0.652550 0.205164 0.000000
vt 0.517280 0.204973 0.000000
vt 0.517415 0.027958 0.000000
vt 0.179131 0.204774 0.000000
vt 0.039479 0.204739 0.000000
vt 0.032902 0.196116 0.000000
vt 0.179160 0.027759 0.000000
vt 0.032926 0.036343 9.223668
vt 0.039506 0.027724 0.000000
vt 0.201675 0.201688 0.000000
vt 0.201713 0.024673 0.000000
vt 0.337002 0.024724 0.000000
vt 0.336954 0.201739 0.000000
vt 0.970704 0.250412 0.000000
vt 0.970348 0.388007 0.000000
vt 0.830843 0.387465 0.000000
vt 0.830840 0.249730 0.000000
vt 0.807343 0.250600 0.000000
vt 0.807359 0.389392 0.000000
vt 0.671811 0.389312 0.000000
vt 0.671840 0.250471 0.000000
vt 0.648409 0.248664 0.000000
vt 0.648376 0.386613 0.000000
vt 0.513191 0.386438 0.000000
vt 0.513140 0.248112 0.000000
vt 0.034339 0.388288 0.000000
vt 0.034028 0.250505 0.000000
vt 0.173927 0.249468 0.000000
vt 0.173909 0.387326 0.000000
vt 0.196904 0.387793 0.000000
vt 0.196880 0.249279 0.000000
vt 0.332317 0.249038 0.000000
vt 0.332323 0.387683 0.000000
vt 0.970163 0.397856 0.000000
vt 0.969775 0.555534 0.000000
vt 0.830273 0.555064 0.000000
vt 0.830444 0.397159 0.000000
vt 0.807137 0.401247 0.000000
vt 0.807235 0.559762 0.000000
vt 0.671844 0.559778 0.000000
vt 0.671961 0.401238 0.000000
vt 0.648644 0.396894 0.000000
vt 0.648744 0.555496 0.000000
vt 0.513528 0.556175 0.000000
vt 0.513302 0.397567 0.000000
vt 0.034684 0.555680 0.000000
vt 0.034474 0.398207 0.000000
vt 0.174110 0.397504 0.000000
vt 0.174222 0.555611 0.000000
vt 0.197001 0.557673 0.000000
vt 0.197046 0.399152 0.000000
vt 0.332223 0.399276 0.000000
vt 0.332326 0.557818 0.000000
vt 0.025886 0.560183 9.223668
vt 0.025663 0.393763 0.000000
vt 0.978563 0.560061 0.000000
vt 0.978997 0.393564 0.000000
vt 0.979651 0.702225 9.223667
vt 0.024790 0.702288 0.000000
vt 0.980201 0.251479 0.000000
vt 0.024529 0.251665 0.000000
vt 0.501954 0.568379 0.000000
vt 0.501929 0.701351 0.000000
vt 0.344135 0.701882 0.000000
vt 0.344070 0.568960 0.000000
vt 0.506131 0.032518 0.000000
vt 0.506021 0.202472 0.000000
vt 0.348220 0.200800 0.000000
vt 0.348280 0.030846 0.000000
vt 0.502019 0.251589 0.000000
vt 0.501996 0.384492 0.000000
vt 0.343456 0.385139 0.000000
vt 0.343392 0.252210 0.000000
vt 0.502032 0.398873 0.000000
vt 0.501922 0.553874 0.000000
vt 0.344113 0.554547 0.000000
vt 0.343442 0.399565 0.000000
vt 0.819299 0.702574 0.000000
vt 0.819219 0.569772 0.000000
vt 0.659869 0.703065 0.000000
vt 0.659961 0.570163 0.000000
vt 0.185359 0.569020 0.000000
vt 0.185327 0.701832 0.000000
vt 0.821623 0.198156 0.000000
vt 0.821811 0.028203 0.000000
vt 0.663818 0.197859 0.000000
vt 0.663981 0.027906 0.000000
vt 0.190436 0.029746 0.000000
vt 0.190404 0.199700 0.000000
vt 0.818557 0.386714 0.000000
vt 0.818469 0.253882 0.000000
vt 0.660647 0.386360 0.000000
vt 0.660736 0.253410 0.000000
vt 0.185667 0.253051 0.000000
vt 0.185630 0.385880 0.000000
vt 0.819144 0.555626 0.000000
vt 0.818371 0.400908 0.000000
vt 0.659887 0.555797 0.000000
vt 0.660710 0.400815 0.000000
vt 0.185753 0.400092 0.000000
vt 0.185454 0.554837 0.000000
# 156 texture coords

g Archway_Overlay_105x205_Square_A
s 1
f 1/1/1 2/2/2 3/3/3 4/4/4 
f 2/5/2 5/6/5 6/7/6 3/8/3 
f 5/9/5 7/10/7 8/11/8 6/12/6 
f 9/13/9 10/14/10 11/15/11 12/16/12 
f 13/17/13 14/18/14 15/19/15 16/20/16 
f 17/21/17 18/22/18 19/23/19 20/24/20 
f 21/25/21 22/26/22 23/27/23 24/28/24 
f 25/29/25 26/30/26 27/31/27 28/32/28 
f 29/33/29 30/34/30 31/35/31 32/36/32 
f 33/37/33 34/38/34 35/39/35 36/40/36 
f 37/41/37 38/42/38 39/43/39 40/44/40 
f 23/45/23 22/46/22 20/47/20 41/48/41 
f 20/47/20 19/49/19 42/50/42 41/48/41 
f 26/51/26 43/52/43 44/53/44 27/54/27 
f 30/55/30 45/56/45 46/57/46 31/58/31 
f 47/59/47 48/60/48 13/61/13 36/62/36 
f 13/61/13 16/63/16 33/64/33 36/62/36 
f 49/65/49 37/66/37 40/67/40 50/68/50 
f 42/69/42 51/70/51 52/71/52 41/72/41 
f 43/73/43 53/74/53 54/75/54 44/76/44 
f 45/77/45 55/78/55 56/79/56 46/80/46 
f 57/81/57 48/82/48 47/83/47 58/84/58 
f 59/85/59 49/86/49 50/87/50 60/88/60 
f 61/89/61 62/90/62 63/91/63 64/92/64 
f 65/93/65 66/94/66 67/95/67 68/96/68 
f 69/97/69 70/98/70 71/99/71 72/100/72 
f 73/101/73 74/102/74 75/103/75 76/104/76 
f 77/105/77 78/106/78 79/107/79 80/108/80 
f 15/109/15 73/101/73 34/38/34 
f 14/110/14 57/81/57 74/102/74 
f 21/25/21 62/90/62 17/111/17 
f 61/89/61 51/70/51 18/112/18 
f 34/38/34 73/101/73 76/104/76 35/39/35 
f 21/25/21 17/111/17 20/113/20 22/26/22 
f 33/37/33 16/114/16 15/109/15 34/38/34 
f 42/69/42 19/115/19 18/112/18 51/70/51 
f 51/70/51 61/89/61 64/92/64 52/71/52 
f 57/81/57 14/110/14 13/116/13 48/82/48 
f 61/89/61 18/112/18 17/111/17 62/90/62 
f 73/101/73 15/109/15 14/110/14 74/102/74 
f 38/42/38 77/105/77 80/108/80 39/43/39 
f 4/4/4 11/15/11 10/14/10 1/1/1 
f 32/36/32 71/99/71 70/98/70 29/33/29 
f 28/32/28 67/95/67 66/94/66 25/29/25 
f 24/28/24 63/91/63 62/90/62 21/25/21 
f 53/74/53 65/93/65 68/96/68 54/75/54 
f 55/78/55 69/97/69 72/100/72 56/79/56 
f 7/10/7 9/13/9 12/16/12 8/11/8 
f 60/88/60 79/107/79 78/106/78 59/85/59 
f 58/84/58 75/103/75 74/102/74 57/81/57 
f 1/1/1 81/117/81 82/118/82 2/2/2 
f 3/3/3 83/119/83 84/120/84 4/4/4 
f 2/5/2 82/121/82 85/122/85 5/6/5 
f 6/7/6 86/123/86 83/124/83 3/8/3 
f 5/9/5 85/125/85 87/126/87 7/10/7 
f 8/11/8 88/127/88 86/128/86 6/12/6 
f 9/13/9 89/129/89 90/130/90 10/14/10 
f 11/15/11 91/131/91 92/132/92 12/16/12 
f 23/27/23 93/133/93 94/134/94 24/28/24 
f 25/29/25 94/134/94 93/133/93 26/30/26 
f 27/31/27 95/135/95 96/136/96 28/32/28 
f 29/33/29 96/136/96 95/135/95 30/34/30 
f 31/35/31 82/118/82 81/117/81 32/36/32 
f 35/39/35 97/137/97 98/138/98 36/40/36 
f 37/41/37 98/138/98 97/137/97 38/42/38 
f 39/43/39 84/120/84 83/119/83 40/44/40 
f 41/48/41 99/139/99 93/140/93 23/45/23 
f 26/51/26 93/140/93 99/139/99 43/52/43 
f 44/53/44 100/141/100 95/142/95 27/54/27 
f 30/55/30 95/142/95 100/141/100 45/56/45 
f 46/57/46 85/122/85 82/121/82 31/58/31 
f 36/62/36 98/143/98 101/144/101 47/59/47 
f 49/65/49 101/144/101 98/143/98 37/66/37 
f 40/67/40 83/124/83 86/123/86 50/68/50 
f 52/71/52 102/145/102 99/146/99 41/72/41 
f 43/73/43 99/146/99 102/145/102 53/74/53 
f 54/75/54 103/147/103 100/148/100 44/76/44 
f 45/77/45 100/148/100 103/147/103 55/78/55 
f 56/79/56 87/126/87 85/125/85 46/80/46 
f 47/83/47 101/149/101 104/150/104 58/84/58 
f 59/85/59 104/150/104 101/149/101 49/86/49 
f 50/87/50 86/128/86 88/127/88 60/88/60 
f 63/91/63 105/151/105 106/152/106 64/92/64 
f 65/93/65 106/152/106 105/151/105 66/94/66 
f 67/95/67 107/153/107 108/154/108 68/96/68 
f 69/97/69 108/154/108 107/153/107 70/98/70 
f 71/99/71 90/130/90 89/129/89 72/100/72 
f 75/103/75 109/155/109 110/156/110 76/104/76 
f 77/105/77 110/156/110 109/155/109 78/106/78 
f 79/107/79 92/132/92 91/131/91 80/108/80 
f 97/137/97 35/39/35 76/104/76 110/156/110 
f 102/145/102 52/71/52 64/92/64 106/152/106 
f 38/42/38 97/137/97 110/156/110 77/105/77 
f 80/108/80 91/131/91 84/120/84 39/43/39 
f 4/4/4 84/120/84 91/131/91 11/15/11 
f 10/14/10 90/130/90 81/117/81 1/1/1 
f 32/36/32 81/117/81 90/130/90 71/99/71 
f 70/98/70 107/153/107 96/136/96 29/33/29 
f 28/32/28 96/136/96 107/153/107 67/95/67 
f 66/94/66 105/151/105 94/134/94 25/29/25 
f 105/151/105 63/91/63 24/28/24 94/134/94 
f 53/74/53 102/145/102 106/152/106 65/93/65 
f 68/96/68 108/154/108 103/147/103 54/75/54 
f 55/78/55 103/147/103 108/154/108 69/97/69 
f 72/100/72 89/129/89 87/126/87 56/79/56 
f 7/10/7 87/126/87 89/129/89 9/13/9 
f 12/16/12 92/132/92 88/127/88 8/11/8 
f 60/88/60 88/127/88 92/132/92 79/107/79 
f 78/106/78 109/155/109 104/150/104 59/85/59 
f 109/155/109 75/103/75 58/84/58 104/150/104 
# 106 polygons - 4 triangles

