# 3ds Max Wavefront OBJ Exporter v0.97b - (c)2007 guruware
# File Created: 24.05.2015 12:00:35

#
# object Archway_Overlay_105x205_Pointed_C
#

v  -106.652039 251.965881 42.915554
v  -107.412445 251.439316 60.542912
v  -100.041107 277.826874 60.633759
v  -99.282654 277.408539 42.915554
v  -66.309494 269.047668 43.996231
v  -70.858345 253.803070 44.014111
v  -87.561386 301.995483 42.915554
v  -88.296677 302.562531 60.629925
v  -56.898380 290.024017 44.027306
v  -74.337433 323.497620 42.915554
v  -75.069504 324.149200 60.629704
v  -46.268803 308.010101 44.047268
v  -55.907848 347.104095 42.915554
v  -56.623444 347.860016 60.630512
v  -31.000469 328.347900 44.054817
v  -34.403797 367.976685 42.915554
v  -35.106720 368.825531 60.621391
v  -12.803553 346.735107 44.044788
v  0.372491 395.818268 42.915554
v  0.372493 396.815643 60.989105
v  0.372491 356.546661 43.949223
v  35.851624 368.825500 60.621391
v  35.148701 367.976654 42.915554
v  13.548469 346.735046 44.044788
v  56.652618 347.104279 42.915554
v  57.368221 347.860229 60.630516
v  31.745647 328.347717 44.054813
v  75.082733 323.497833 42.915554
v  75.814789 324.149445 60.629704
v  47.014462 308.009796 44.047264
v  88.307358 301.995453 42.915554
v  89.042625 302.562500 60.629921
v  57.644402 290.023743 44.027302
v  100.028877 277.408447 42.915554
v  100.787323 277.826782 60.633762
v  67.055634 269.047607 43.996231
v  107.397232 251.965271 42.915554
v  108.157623 251.438675 60.542908
v  71.603226 253.803574 44.014114
v  -104.895546 247.361984 44.789886
v  -105.985733 247.804016 58.718204
v  -72.006943 249.643539 46.224346
v  -91.618927 252.783295 60.905373
v  -104.343018 251.583481 62.403473
v  -102.865723 248.262512 60.709003
v  -92.257439 248.122559 59.601814
v  105.640686 247.361984 44.789886
v  106.730835 247.803391 58.718208
v  72.751724 249.643524 46.224354
v  -95.765991 277.376587 62.576061
v  -84.389603 301.462585 62.537479
v  -71.577583 322.461121 62.517078
v  -53.657513 345.578247 62.510853
v  -32.714024 366.053528 62.514664
v  0.372495 392.369171 63.014019
v  33.458935 366.053528 62.514656
v  54.402328 345.578430 62.510853
v  72.322906 322.461273 62.517086
v  85.135544 301.462555 62.537483
v  96.512199 277.376465 62.576069
v  105.088211 251.582901 62.403465
v  -82.514633 275.173309 60.702564
v  -77.795113 254.897949 55.898193
v  -70.586647 273.399628 55.427715
v  -72.349152 297.655121 60.705395
v  -61.185257 294.170349 55.448940
v  -60.756836 317.196930 60.707230
v  -50.602409 312.097107 55.428024
v  -44.329502 338.870636 60.707817
v  -35.541847 332.174347 55.422943
v  -24.995619 358.181732 60.707565
v  -17.712252 350.194122 55.419388
v  0.372500 364.943542 54.277126
v  0.372498 377.568665 60.691635
v  25.740549 358.181702 60.707565
v  18.457197 350.194092 55.419361
v  36.286922 332.174286 55.422943
v  45.074463 338.870728 60.707817
v  61.502274 317.196960 60.707230
v  51.347950 312.097015 55.428028
v  61.931210 294.170166 55.448948
v  73.095123 297.655029 60.705395
v  71.332756 273.399567 55.427723
v  83.260765 275.173248 60.702564
v  78.540146 254.898117 55.898178
v  92.364006 252.783051 60.905373
v  79.305824 250.381790 55.400581
v  93.002419 248.122528 59.601814
v  103.610863 248.261963 60.709019
v  -78.560852 250.381836 55.400578
v  -67.040604 255.115799 57.667946
v  -62.261765 270.315125 57.963444
v  -64.383003 270.521179 59.404922
v  -69.433014 254.742676 59.342903
v  -53.328865 290.220245 57.993084
v  -55.286484 290.803223 59.403748
v  -43.235374 307.299255 58.011471
v  -44.996647 308.221191 59.403885
v  -28.729465 326.623444 58.018723
v  -30.233131 327.891968 59.404984
v  -11.447653 344.085205 58.012299
v  -12.666845 345.649170 59.405361
v  0.372494 353.235535 58.061230
v  0.372493 355.613525 59.646862
v  12.192582 344.085175 58.012299
v  13.411767 345.649109 59.405361
v  29.474653 326.623230 58.018726
v  30.978294 327.891785 59.404995
v  43.981026 307.298981 58.011463
v  45.742290 308.220947 59.403885
v  54.074860 290.220032 57.993084
v  56.032482 290.802979 59.403751
v  63.007858 270.315094 57.963448
v  65.129089 270.521149 59.404922
v  67.785484 255.116333 57.667957
v  70.177872 254.743164 59.342903
v  -69.126556 252.258881 56.068565
v  -71.658203 251.912125 57.924561
v  72.402954 251.912506 57.924561
v  69.871307 252.259338 56.068558
# 120 vertices

vn -0.702459 -0.129756 -0.699796
vn -0.868940 -0.138801 0.475056
vn -0.808587 0.306335 0.502341
vn -0.651358 0.247422 -0.717297
vn 0.578785 -0.212567 -0.787289
vn 0.550952 -0.313945 -0.773234
vn -0.605369 0.329030 -0.724754
vn -0.761043 0.411110 0.501798
vn 0.557558 -0.285005 -0.779680
vn -0.565076 0.392224 -0.725844
vn -0.714239 0.493427 0.496379
vn 0.526084 -0.349132 -0.775463
vn -0.512935 0.460062 -0.724735
vn -0.650530 0.581128 0.488980
vn 0.477468 -0.411943 -0.776097
vn -0.452653 0.511537 -0.730367
vn -0.580513 0.654262 0.484712
vn 0.412986 -0.476664 -0.776037
vn 0.000001 0.785503 -0.618858
vn 0.000001 0.897935 0.440127
vn -0.000001 -0.434265 -0.900785
vn 0.580136 0.654419 0.484952
vn 0.452197 0.511628 -0.730585
vn -0.412922 -0.476680 -0.776061
vn 0.512670 0.459634 -0.725194
vn 0.650372 0.580929 0.489426
vn -0.477309 -0.411925 -0.776205
vn 0.564693 0.391841 -0.726349
vn 0.714065 0.493275 0.496781
vn -0.525851 -0.349053 -0.775656
vn 0.604888 0.328657 -0.725324
vn 0.760845 0.411011 0.502180
vn -0.557231 -0.284908 -0.779949
vn 0.651152 0.247199 -0.717561
vn 0.808599 0.305995 0.502528
vn -0.578675 -0.212147 -0.787483
vn 0.700766 -0.134438 -0.700609
vn 0.869634 -0.140116 0.473397
vn -0.551754 -0.323644 -0.768650
vn -0.400067 -0.785120 -0.472793
vn -0.552578 -0.792615 0.257718
vn 0.432097 -0.824880 -0.364507
vn 0.219371 -0.182995 0.958326
vn -0.242585 -0.216144 0.945745
vn -0.061124 -0.750441 0.658105
vn 0.189451 -0.795531 0.575533
vn 0.401562 -0.784767 -0.472110
vn 0.549121 -0.798257 0.247491
vn -0.465441 -0.790954 -0.397186
vn -0.147170 0.059455 0.987323
vn -0.140090 0.079416 0.986949
vn -0.133047 0.094989 0.986547
vn -0.123983 0.112415 0.985896
vn -0.114200 0.121227 0.986034
vn 0.000000 0.249863 0.968281
vn 0.114201 0.121228 0.986033
vn 0.123983 0.112781 0.985854
vn 0.133306 0.094896 0.986521
vn 0.140091 0.079419 0.986948
vn 0.147786 0.060840 0.987146
vn 0.251277 -0.211633 0.944495
vn 0.253758 -0.101468 0.961931
vn 0.008720 -0.063575 0.997939
vn -0.037131 0.026146 0.998968
vn 0.247590 -0.128726 0.960275
vn -0.030304 0.013777 0.999446
vn 0.236923 -0.158514 0.958510
vn -0.024087 0.015025 0.999597
vn 0.219317 -0.190946 0.956786
vn -0.016157 0.012002 0.999797
vn 0.207479 -0.226188 0.951731
vn 0.001217 0.033364 0.999443
vn -0.000000 -0.161895 0.986808
vn -0.000000 -0.247071 0.968997
vn -0.207479 -0.226189 0.951731
vn -0.001217 0.033364 0.999443
vn 0.016738 0.011808 0.999790
vn -0.219650 -0.191388 0.956622
vn -0.237377 -0.158791 0.958352
vn 0.024096 0.015557 0.999589
vn 0.030136 0.013855 0.999450
vn -0.247588 -0.128729 0.960276
vn 0.034006 0.014027 0.999323
vn -0.254581 -0.100872 0.961776
vn -0.025806 -0.068809 0.997296
vn -0.227252 -0.179520 0.957146
vn -0.185459 -0.727393 0.660685
vn -0.167268 -0.804531 0.569869
vn 0.077433 -0.759769 0.645566
vn 0.205032 -0.870275 0.447864
vn 0.835750 -0.434769 0.335407
vn 0.868259 -0.338542 0.362652
vn 0.033973 0.001022 0.999422
vn 0.139289 -0.298589 0.944162
vn 0.823236 -0.431623 0.368760
vn 0.020933 -0.009517 0.999736
vn 0.769900 -0.517428 0.373527
vn 0.020290 -0.012460 0.999717
vn 0.700753 -0.605382 0.377436
vn 0.014878 -0.012115 0.999816
vn 0.615414 -0.692881 0.375741
vn 0.012497 -0.004081 0.999914
vn -0.000003 -0.880089 0.474808
vn 0.000001 0.177652 0.984093
vn -0.615441 -0.692867 0.375723
vn -0.012509 -0.004058 0.999914
vn -0.700678 -0.605451 0.377464
vn -0.014817 -0.012212 0.999816
vn -0.769747 -0.517538 0.373690
vn -0.020166 -0.012768 0.999715
vn -0.823090 -0.431634 0.369073
vn -0.021167 -0.009638 0.999730
vn -0.867154 -0.340055 0.363878
vn -0.021771 -0.011128 0.999701
vn -0.835148 -0.438864 0.331551
vn -0.126859 -0.288031 0.949181
vn 0.567809 -0.801904 0.185858
vn 0.064825 -0.744595 0.664361
vn -0.027701 -0.691996 0.721369
vn -0.626716 -0.761035 0.167487
# 120 vertex normals

vt 0.017856 0.532469 0.000000
vt 0.059335 0.492325 0.000000
vt 0.110886 0.568667 0.000000
vt 0.069843 0.610534 0.000000
vt 0.813554 0.174406 0.000000
vt 0.711104 0.143793 0.000000
vt 0.725381 0.088678 0.000000
vt 0.836687 0.082425 2.247352
vt 0.131467 0.683804 0.000000
vt 0.169392 0.637326 0.000000
vt 0.776915 0.263245 0.000000
vt 0.681667 0.219605 0.000000
vt 0.193489 0.745397 0.000000
vt 0.227903 0.695200 0.000000
vt 0.735656 0.340912 0.000000
vt 0.648480 0.284605 0.000000
vt 0.271333 0.811144 0.000000
vt 0.301831 0.757364 0.000000
vt 0.678245 0.426172 0.000000
vt 0.600882 0.358112 0.000000
vt 0.354647 0.870161 0.000000
vt 0.379246 0.811626 0.000000
vt 0.611358 0.501572 0.000000
vt 0.544228 0.424603 0.000000
vt 0.496357 0.936415 0.000000
vt 0.496550 0.881297 0.000000
vt 0.503302 0.602283 0.000000
vt 0.503237 0.460132 0.000000
vt 0.614355 0.812779 0.000000
vt 0.638547 0.871535 0.000000
vt 0.395154 0.501708 0.000000
vt 0.462217 0.424660 0.000000
vt 0.722274 0.813271 0.000000
vt 0.692137 0.759220 0.000000
vt 0.328205 0.426381 0.000000
vt 0.405516 0.358240 0.000000
vt 0.800557 0.748207 0.000000
vt 0.766475 0.697704 0.000000
vt 0.270733 0.341174 0.000000
vt 0.357870 0.284787 0.000000
vt 0.862985 0.687163 0.000000
vt 0.825368 0.640346 0.000000
vt 0.229423 0.263539 0.000000
vt 0.324646 0.219822 0.000000
vt 0.925093 0.614447 0.000000
vt 0.884328 0.572213 0.000000
vt 0.192734 0.174727 0.000000
vt 0.295167 0.144035 0.000000
vt 0.977596 0.536848 0.000000
vt 0.936383 0.496334 0.000000
vt 0.169553 0.082761 2.247348
vt 0.280863 0.088933 0.000000
vt 0.013274 0.513025 2.229309
vt 0.050907 0.482240 0.625696
vt 0.728686 0.071603 0.000000
vt 0.831055 0.064551 0.000000
vt 0.105955 0.474350 0.000000
vt 0.068067 0.487530 0.000000
vt 0.065481 0.474046 0.097536
vt 0.098905 0.458548 0.000000
vt 0.982305 0.517448 2.229305
vt 0.944878 0.486324 0.625695
vt 0.175175 0.064885 0.000000
vt 0.277549 0.071859 0.000000
vt 0.123015 0.561125 0.000000
vt 0.180802 0.627911 0.000000
vt 0.237907 0.684338 0.000000
vt 0.310224 0.744759 0.000000
vt 0.386148 0.796550 0.000000
vt 0.496588 0.868232 0.000000
vt 0.607555 0.797652 0.000000
vt 0.683833 0.746546 0.000000
vt 0.756546 0.686754 0.000000
vt 0.814021 0.630829 0.000000
vt 0.872249 0.564562 0.000000
vt 0.927682 0.491460 0.000000
vt 0.158921 0.536937 0.000000
vt 0.151039 0.461306 0.000000
vt 0.194159 0.513624 0.000000
vt 0.212780 0.600484 0.000000
vt 0.244640 0.572481 0.000000
vt 0.265994 0.654273 0.000000
vt 0.294073 0.622621 0.000000
vt 0.334257 0.712118 0.000000
vt 0.358114 0.677110 0.000000
vt 0.407583 0.761698 0.000000
vt 0.428731 0.723040 0.000000
vt 0.496966 0.758637 0.000000
vt 0.496777 0.813299 0.000000
vt 0.586360 0.762617 0.000000
vt 0.565485 0.723793 0.000000
vt 0.636411 0.678502 0.000000
vt 0.660025 0.713702 0.000000
vt 0.728661 0.656443 0.000000
vt 0.700795 0.624548 0.000000
vt 0.750549 0.574831 0.000000
vt 0.782225 0.603117 0.000000
vt 0.801416 0.516421 0.000000
vt 0.836502 0.540051 0.000000
vt 0.844881 0.464492 0.000000
vt 0.889879 0.477940 0.000000
vt 0.852541 0.450002 0.000000
vt 0.897034 0.462203 0.000000
vt 0.930357 0.478000 0.097536
vt 0.143475 0.446748 0.000000
vt 0.183772 0.446739 0.000000
vt 0.208226 0.404873 0.000000
vt 0.243430 0.444981 0.000000
vt 0.218071 0.488763 0.000000
vt 0.211285 0.493547 0.000000
vt 0.176429 0.449188 0.000000
vt 0.292717 0.502782 0.000000
vt 0.266732 0.545291 0.000000
vt 0.260821 0.551087 0.000000
vt 0.338676 0.551263 0.000000
vt 0.313877 0.593929 0.000000
vt 0.309136 0.600288 0.000000
vt 0.375542 0.647417 0.000000
vt 0.397729 0.603679 0.000000
vt 0.372269 0.654218 0.000000
vt 0.445724 0.691134 0.000000
vt 0.460504 0.644193 0.000000
vt 0.443246 0.698495 0.000000
vt 0.497147 0.702370 0.000000
vt 0.497482 0.650500 0.000000
vt 0.497119 0.715946 0.000000
vt 0.534430 0.644862 0.000000
vt 0.548729 0.691895 0.000000
vt 0.551150 0.699172 0.000000
vt 0.597306 0.604815 0.000000
vt 0.619217 0.648714 0.000000
vt 0.622419 0.655515 0.000000
vt 0.681188 0.595692 0.000000
vt 0.656645 0.552829 0.000000
vt 0.685881 0.602089 0.000000
vt 0.728633 0.547445 0.000000
vt 0.702916 0.504715 0.000000
vt 0.734507 0.553293 0.000000
vt 0.777662 0.491345 0.000000
vt 0.752588 0.447340 0.000000
vt 0.784420 0.496190 0.000000
vt 0.812239 0.449632 0.000000
vt 0.788060 0.407548 0.000000
vt 0.819568 0.452147 0.000000
vt 0.061672 0.832247 0.785542
vt 0.070204 0.826658 0.730262
vt 0.090951 0.838786 0.545711
vt 0.169032 0.887870 0.000000
vt 0.135157 0.829604 0.269953
vt 0.168152 0.829724 0.068048
vt 0.177171 0.838198 0.000000
vt 0.067748 0.869351 0.785542
vt 0.929841 0.827282 0.200585
vt 0.938248 0.833124 0.485976
vt 0.931355 0.870035 1.923813
vt 0.908833 0.838786 0.586881
vt 0.829696 0.885521 0.000000
vt 0.822655 0.835622 1.382743
vt 0.864844 0.828287 1.261669
vt 0.831857 0.827421 1.671645
vt 0.178134 0.434688 0.000000
vt 0.193632 0.399660 0.000000
vt 0.817958 0.437632 0.000000
vt 0.802690 0.402464 0.000000
vt 0.828846 0.443974 0.000000
vt 0.167206 0.440933 0.000000
# 166 texture coords

g Archway_Overlay_105x205_Pointed_C
s 1
f 1/1/1 2/2/2 3/3/3 4/4/4 
f 4/5/4 5/6/5 6/7/6 1/8/1 
f 7/9/7 4/4/4 3/3/3 8/10/8 
f 7/11/7 9/12/9 5/6/5 4/5/4 
f 10/13/10 7/9/7 8/10/8 11/14/11 
f 10/15/10 12/16/12 9/12/9 7/11/7 
f 13/17/13 10/13/10 11/14/11 14/18/14 
f 13/19/13 15/20/15 12/16/12 10/15/10 
f 16/21/16 13/17/13 14/18/14 17/22/17 
f 16/23/16 18/24/18 15/20/15 13/19/13 
f 19/25/19 16/21/16 17/22/17 20/26/20 
f 16/23/16 19/27/19 21/28/21 18/24/18 
f 19/25/19 20/26/20 22/29/22 23/30/23 
f 23/31/23 24/32/24 21/28/21 19/27/19 
f 25/33/25 23/30/23 22/29/22 26/34/26 
f 25/35/25 27/36/27 24/32/24 23/31/23 
f 28/37/28 25/33/25 26/34/26 29/38/29 
f 28/39/28 30/40/30 27/36/27 25/35/25 
f 31/41/31 28/37/28 29/38/29 32/42/32 
f 31/43/31 33/44/33 30/40/30 28/39/28 
f 34/45/34 31/41/31 32/42/32 35/46/35 
f 34/47/34 36/48/36 33/44/33 31/43/31 
f 37/49/37 34/45/34 35/46/35 38/50/38 
f 34/47/34 37/51/37 39/52/39 36/48/36 
f 1/1/1 40/53/40 41/54/41 2/2/2 
f 6/7/6 42/55/42 40/56/40 1/8/1 
f 43/57/43 44/58/44 45/59/45 46/60/46 
f 47/61/47 37/49/37 38/50/38 48/62/48 
f 37/51/37 47/63/47 49/64/49 39/52/39 
f 44/58/44 50/65/50 3/3/3 2/2/2 
f 50/65/50 51/66/51 8/10/8 3/3/3 
f 51/66/51 52/67/52 11/14/11 8/10/8 
f 52/67/52 53/68/53 14/18/14 11/14/11 
f 14/18/14 53/68/53 54/69/54 17/22/17 
f 17/22/17 54/69/54 55/70/55 20/26/20 
f 55/70/55 56/71/56 22/29/22 20/26/20 
f 56/71/56 57/72/57 26/34/26 22/29/22 
f 26/34/26 57/72/57 58/73/58 29/38/29 
f 29/38/29 58/73/58 59/74/59 32/42/32 
f 32/42/32 59/74/59 60/75/60 35/46/35 
f 35/46/35 60/75/60 61/76/61 38/50/38 
f 62/77/62 43/57/43 63/78/63 64/79/64 
f 65/80/65 62/77/62 64/79/64 66/81/66 
f 67/82/67 65/80/65 66/81/66 68/83/68 
f 69/84/69 67/82/67 68/83/68 70/85/70 
f 71/86/71 69/84/69 70/85/70 72/87/72 
f 71/86/71 72/87/72 73/88/73 74/89/74 
f 75/90/75 74/89/74 73/88/73 76/91/76 
f 77/92/77 78/93/78 75/90/75 76/91/76 
f 79/94/79 78/93/78 77/92/77 80/95/80 
f 81/96/81 82/97/82 79/94/79 80/95/80 
f 83/98/83 84/99/84 82/97/82 81/96/81 
f 85/100/85 86/101/86 84/99/84 83/98/83 
f 87/102/87 88/103/88 86/101/86 85/100/85 
f 62/77/62 50/65/50 44/58/44 43/57/43 
f 51/66/51 50/65/50 62/77/62 65/80/65 
f 52/67/52 51/66/51 65/80/65 67/82/67 
f 69/84/69 53/68/53 52/67/52 67/82/67 
f 71/86/71 54/69/54 53/68/53 69/84/69 
f 55/70/55 54/69/54 71/86/71 74/89/74 
f 75/90/75 56/71/56 55/70/55 74/89/74 
f 57/72/57 56/71/56 75/90/75 78/93/78 
f 79/94/79 58/73/58 57/72/57 78/93/78 
f 82/97/82 59/74/59 58/73/58 79/94/79 
f 84/99/84 60/75/60 59/74/59 82/97/82 
f 86/101/86 61/76/61 60/75/60 84/99/84 
f 88/103/88 89/104/89 61/76/61 86/101/86 
f 90/105/90 63/78/63 43/57/43 46/60/46 
f 91/106/91 6/107/6 5/108/5 92/109/92 
f 93/110/93 64/79/64 63/78/63 94/111/94 
f 92/109/92 5/108/5 9/112/9 95/113/95 
f 93/110/93 96/114/96 66/81/66 64/79/64 
f 95/113/95 9/112/9 12/115/12 97/116/97 
f 98/117/98 68/83/68 66/81/66 96/114/96 
f 99/118/99 97/116/97 12/115/12 15/119/15 
f 100/120/100 70/85/70 68/83/68 98/117/98 
f 101/121/101 99/118/99 15/119/15 18/122/18 
f 102/123/102 72/87/72 70/85/70 100/120/100 
f 103/124/103 101/121/101 18/122/18 21/125/21 
f 102/123/102 104/126/104 73/88/73 72/87/72 
f 103/124/103 21/125/21 24/127/24 105/128/105 
f 106/129/106 76/91/76 73/88/73 104/126/104 
f 105/128/105 24/127/24 27/130/27 107/131/107 
f 106/129/106 108/132/108 77/92/77 76/91/76 
f 109/133/109 107/131/107 27/130/27 30/134/30 
f 110/135/110 80/95/80 77/92/77 108/132/108 
f 111/136/111 109/133/109 30/134/30 33/137/33 
f 112/138/112 81/96/81 80/95/80 110/135/110 
f 113/139/113 111/136/111 33/137/33 36/140/36 
f 114/141/114 83/98/83 81/96/81 112/138/112 
f 115/142/115 113/139/113 36/140/36 39/143/39 
f 116/144/116 85/100/85 83/98/83 114/141/114 
f 117/145/117 118/146/118 90/147/90 40/148/40 
f 46/149/46 45/150/45 41/151/41 40/148/40 
f 90/147/90 46/149/46 40/148/40 
f 117/145/117 40/148/40 42/152/42 
f 119/153/119 120/154/120 49/155/49 87/156/87 
f 49/155/49 47/157/47 48/158/48 88/159/88 
f 48/158/48 89/160/89 88/159/88 
f 49/155/49 88/159/88 87/156/87 
f 91/106/91 117/161/117 42/162/42 6/107/6 
f 120/163/120 115/142/115 39/143/39 49/164/49 
f 119/165/119 87/102/87 85/100/85 116/144/116 
f 94/111/94 63/78/63 90/105/90 118/166/118 
f 92/109/92 93/110/93 94/111/94 91/106/91 
f 95/113/95 96/114/96 93/110/93 92/109/92 
f 97/116/97 98/117/98 96/114/96 95/113/95 
f 99/118/99 100/120/100 98/117/98 97/116/97 
f 101/121/101 102/123/102 100/120/100 99/118/99 
f 102/123/102 101/121/101 103/124/103 104/126/104 
f 106/129/106 104/126/104 103/124/103 105/128/105 
f 107/131/107 108/132/108 106/129/106 105/128/105 
f 109/133/109 110/135/110 108/132/108 107/131/107 
f 111/136/111 112/138/112 110/135/110 109/133/109 
f 113/139/113 114/141/114 112/138/112 111/136/111 
f 115/142/115 116/144/116 114/141/114 113/139/113 
f 91/106/91 94/111/94 118/166/118 117/161/117 
f 120/163/120 119/165/119 116/144/116 115/142/115 
f 44/58/44 2/2/2 41/54/41 45/59/45 
f 48/62/48 38/50/38 61/76/61 89/104/89 
# 116 polygons - 4 triangles

