# 3ds Max Wavefront OBJ Exporter v0.97b - (c)2007 guruware
# File Created: 24.05.2015 12:00:34

#
# object Archway_Overlay_105x205_Square_C
#

v  107.018806 249.734329 37.859161
v  107.018806 249.734329 59.092613
v  -109.666695 249.734344 59.092575
v  -109.666695 249.734344 37.859123
v  107.018806 255.132553 62.859161
v  107.018806 260.418274 66.432190
v  -109.666695 260.418304 66.432152
v  -109.666695 255.132568 62.859123
v  -109.666695 276.721619 37.859123
v  -109.666695 282.386444 37.859123
v  107.018806 282.386414 37.859161
v  107.018806 276.721619 37.859161
v  -109.666695 282.386444 59.092575
v  -109.666695 282.386444 62.859123
v  107.018806 282.386414 59.092613
v  107.018806 282.386414 62.859161
v  -109.666695 278.210999 62.859123
v  107.018806 278.210968 62.859161
v  -109.666695 259.042633 37.859123
v  107.018806 259.042633 37.859161
v  -109.666695 275.154144 58.253853
v  -109.666695 269.887543 64.321884
v  107.018806 269.887512 64.321915
v  107.018806 275.154114 58.253891
v  -109.666695 273.721619 41.413383
v  107.018806 273.721619 41.413418
v  107.018806 268.506348 39.495373
v  -109.666695 268.506348 39.495338
# 28 vertices

vn -0.000000 -1.000000 -0.000000
vn -0.000000 -0.566138 0.824310
vn -0.000000 -0.186476 0.982459
vn -0.000000 -0.186476 0.982460
vn -0.000000 -0.566138 0.824311
vn 0.000000 -0.421303 -0.906920
vn 0.000000 0.000000 -1.000000
vn 0.000000 -0.421302 -0.906920
vn -0.000000 -0.572217 0.820102
vn 0.000000 1.000000 -0.000000
vn -0.000000 0.000000 1.000000
vn -0.000000 -0.472742 0.881201
vn 0.000000 0.085496 -0.996338
vn 0.000000 0.085496 -0.996339
vn -0.000000 -0.064362 0.997927
vn -0.000000 0.512101 0.858925
vn 0.000000 -0.255796 -0.966731
vn 0.000000 -0.255795 -0.966731
vn 0.000000 0.258830 -0.965923
vn 1.000000 0.000000 -0.000000
vn -1.000000 0.000000 -0.000000
# 21 vertex normals

vt 0.987791 0.259002 33.217384
vt 0.987791 0.380148 0.000000
vt 0.016493 0.380148 33.217388
vt 0.016493 0.259001 0.000000
vt 0.987527 0.440617 0.000000
vt 0.987526 0.477016 0.000000
vt 0.016230 0.477016 0.000000
vt 0.016231 0.440616 0.000000
vt 0.987778 0.196945 0.000000
vt 0.987778 0.229264 0.000000
vt 0.016482 0.229264 0.000000
vt 0.016482 0.196944 0.000000
vt 0.016231 0.403061 0.000000
vt 0.987528 0.403062 0.000000
vt 0.015498 0.661049 0.000000
vt 0.986795 0.661049 0.000000
vt 0.986795 0.782194 0.000000
vt 0.986795 0.803684 0.000000
vt 0.015498 0.782194 0.000000
vt 0.015498 0.803684 0.000000
vt 0.016229 0.633563 0.000000
vt 0.016229 0.609741 0.000000
vt 0.987525 0.609741 0.000000
vt 0.987525 0.633563 0.000000
vt 0.987778 0.030810 0.000000
vt 0.987778 0.083916 0.000000
vt 0.016482 0.083916 0.000000
vt 0.016482 0.030810 0.000000
vt 0.016229 0.578206 0.000000
vt 0.016229 0.532365 0.000000
vt 0.987526 0.532365 0.000000
vt 0.987525 0.578206 0.000000
vt 0.987778 0.170410 0.000000
vt 0.016482 0.170410 0.000000
vt 0.016482 0.138709 0.000000
vt 0.987778 0.138709 0.000000
vt 0.833038 0.978314 5.577752
vt 0.832447 0.937333 0.000000
vt 0.839049 0.895564 0.000000
vt 0.847163 0.872481 0.000000
vt 0.831324 0.859499 0.000000
vt 0.830965 0.834559 0.000000
vt 0.924448 0.833211 0.000000
vt 0.921215 0.865105 0.000000
vt 0.941031 0.832972 0.000000
vt 0.941296 0.851355 0.000000
vt 0.948264 0.887907 0.000000
vt 0.958156 0.929462 0.000000
vt 0.942761 0.952960 0.000000
vt 0.926521 0.976966 0.000000
vt 0.064208 0.973854 6.587032
vt 0.047336 0.950288 0.000000
vt 0.031322 0.927207 0.000000
vt 0.157196 0.931737 0.000000
vt 0.040107 0.885403 0.000000
vt 0.066542 0.861891 0.000000
vt 0.140763 0.867298 0.000000
vt 0.046102 0.848679 0.000000
vt 0.045879 0.830295 0.000000
vt 0.062462 0.830094 0.000000
vt 0.155948 0.828959 0.000000
vt 0.156251 0.853900 0.000000
vt 0.149486 0.890158 0.000000
vt 0.157694 0.972719 0.000000
# 64 texture coords

g Archway_Overlay_105x205_Square_C
s 4
f 1/1/1 2/2/1 3/3/1 4/4/1 
s 1
f 5/5/2 6/6/3 7/7/4 8/8/5 
f 9/9/6 10/10/7 11/11/7 12/12/8 
f 8/8/5 3/13/9 2/14/9 5/5/2 
s 8
f 11/15/10 10/16/10 13/17/10 14/18/10 
f 15/19/10 11/15/10 14/18/10 16/20/10 
s 1
f 14/21/11 17/22/12 18/23/12 16/24/11 
f 4/25/7 19/26/13 20/27/14 1/28/7 
f 21/29/15 22/30/16 23/31/16 24/32/15 
f 25/33/17 9/9/6 12/12/8 26/34/18 
f 18/23/12 17/22/12 21/29/15 24/32/15 
f 27/35/19 28/36/19 25/33/17 26/34/18 
f 22/30/16 7/7/4 6/6/3 23/31/16 
f 27/35/19 20/27/14 19/26/13 28/36/19 
s 2
f 1/37/20 20/38/20 27/39/20 26/40/20 
f 26/40/20 12/41/20 11/42/20 15/43/20 
f 1/37/20 26/40/20 15/43/20 24/44/20 
f 15/43/20 16/45/20 18/46/20 24/44/20 
f 24/44/20 23/47/20 6/48/20 1/37/20 
f 1/37/20 6/48/20 5/49/20 2/50/20 
f 3/51/21 8/52/21 7/53/21 19/54/21 
f 7/53/21 22/55/21 21/56/21 25/57/21 
f 21/56/21 17/58/21 14/59/21 13/60/21 
f 13/60/21 10/61/21 9/62/21 25/57/21 
f 21/56/21 13/60/21 25/57/21 
f 25/57/21 28/63/21 19/54/21 7/53/21 
f 3/51/21 19/54/21 4/64/21 
# 25 polygons - 2 triangles

