# 3ds Max Wavefront OBJ Exporter v0.97b - (c)2007 guruware
# File Created: 24.05.2015 12:00:35

#
# object Archway_Overlay_105x205_Square_B
#

v  -116.988586 290.621948 62.859123
v  114.374092 290.621918 62.859161
v  118.140640 290.621918 59.092613
v  118.140663 290.621918 37.859161
v  -120.755119 290.621948 37.859123
v  -120.755135 290.621948 59.092575
v  118.140663 282.386414 37.859161
v  -120.755112 282.386444 37.859123
v  118.140663 246.187897 59.092613
v  -120.755119 246.187912 59.092575
v  -120.755096 246.187912 37.859123
v  118.140671 246.187897 37.859161
v  114.374115 251.586121 62.859161
v  114.374092 282.386414 62.859161
v  -116.988579 282.386444 62.859123
v  -116.988571 251.586136 62.859123
v  -125.436661 284.077118 39.547749
v  -124.309273 284.077118 62.466209
v  -124.309280 288.931274 62.466209
v  -125.436661 288.931274 39.547749
v  118.140640 282.386414 59.092613
v  117.743179 288.931244 66.228249
v  -120.357674 288.931274 66.228210
v  -120.357666 284.077118 66.228210
v  117.743179 284.077087 66.228249
v  -120.755127 282.386444 59.092575
v  122.822205 288.931244 39.547794
v  121.694786 288.931244 62.466248
v  121.694786 284.077087 62.466248
v  122.822205 284.077087 39.547794
# 30 vertices

vn -0.059692 0.971073 0.231200
vn 0.061207 0.970977 0.231209
vn 0.221413 0.973206 0.062018
vn 0.215764 0.692320 -0.688578
vn -0.212859 0.690930 -0.690874
vn -0.211947 0.974974 0.067109
vn 0.475592 -0.230358 -0.848968
vn -0.478424 -0.230242 -0.847407
vn 0.633490 -0.648655 0.421826
vn -0.633490 -0.648655 0.421826
vn -0.577350 -0.577350 -0.577351
vn 0.577350 -0.577350 -0.577350
vn 0.311416 -0.222964 0.923746
vn 0.262976 -0.631684 0.729259
vn -0.264564 -0.631207 0.729098
vn -0.311416 -0.222965 0.923746
vn -0.760154 -0.468304 -0.450397
vn -0.772945 -0.520707 0.362519
vn -0.773589 0.518146 0.364809
vn -0.761394 0.462608 -0.454173
vn 0.713776 -0.644977 0.272998
vn 0.331279 0.515114 0.790514
vn -0.330729 0.513897 0.791535
vn -0.331279 -0.515114 0.790513
vn 0.330729 -0.513897 0.791535
vn -0.721825 -0.638657 0.266621
vn 0.760155 0.468304 -0.450395
vn 0.772945 0.520706 0.362519
vn 0.773588 -0.518147 0.364809
vn 0.761395 -0.462608 -0.454172
# 30 vertex normals

vt 0.041619 0.411462 0.000000
vt 0.956285 0.411462 0.000000
vt 0.971176 0.430855 7.040523
vt 0.971176 0.540182 0.000000
vt 0.026728 0.540182 0.000000
vt 0.026728 0.430855 7.040523
vt 0.024439 0.251999 0.000000
vt 0.024438 0.209595 0.000000
vt 0.968887 0.209590 0.000000
vt 0.968885 0.251993 0.000000
vt 0.971558 0.388128 0.000000
vt 0.027110 0.388128 6.040524
vt 0.027110 0.278801 0.000000
vt 0.971558 0.278801 6.040523
vt 0.959524 0.600566 0.000000
vt 0.961500 0.759575 0.000000
vt 0.043752 0.759518 0.000000
vt 0.046407 0.600501 0.000000
vt 0.053394 0.957946 0.000000
vt 0.120608 0.954879 0.000000
vt 0.121257 0.969098 6.814633
vt 0.054043 0.972166 0.000000
vt 0.956543 0.946952 0.000000
vt 0.894469 0.946950 0.000000
vt 0.894469 0.841126 0.000000
vt 0.956544 0.841126 0.000000
vt 0.024438 0.023217 0.000000
vt 0.968885 0.023211 0.000000
vt 0.972100 0.804742 0.000000
vt 0.033115 0.804724 0.000000
vt 0.033308 0.781827 0.000000
vt 0.971911 0.781862 0.000000
vt 0.048446 0.837215 0.000000
vt 0.110709 0.837215 0.000000
vt 0.110709 0.943360 0.000000
vt 0.048447 0.943361 0.000000
vt 0.950961 0.975672 0.000000
vt 0.883949 0.972609 0.000000
vt 0.884598 0.958434 7.088624
vt 0.951609 0.961495 0.000000
vt 0.961901 0.825472 0.000000
vt 0.043310 0.825467 0.000000
vt 0.112448 0.981472 0.000000
vt 0.050446 0.987141 6.851661
vt 0.988563 0.218298 0.000000
vt 0.988560 0.243291 7.002474
vt 0.004764 0.243295 7.002473
vt 0.004763 0.218302 0.000000
vt 0.954545 0.990602 7.240093
vt 0.892731 0.984946 0.000000
vt 0.976852 0.569177 0.000000
vt 0.029348 0.569015 0.000000
vt 0.983546 0.754474 0.000000
vt 0.013298 0.808572 7.002475
vt 0.013493 0.779360 0.000000
vt 0.021551 0.754307 0.000000
vt 0.991715 0.779407 6.893230
vt 0.991916 0.808603 0.000000
vt 0.983597 0.835709 0.000000
vt 0.021609 0.835687 0.000000
# 60 texture coords

g Archway_Overlay_105x205_Square_B
s 1
f 1/1/1 2/2/2 3/3/3 4/4/4 
f 1/1/1 4/4/4 5/5/5 6/6/6 
f 4/7/4 7/8/7 8/9/8 5/10/5 
f 9/11/9 10/12/10 11/13/11 12/14/12 
f 13/15/13 14/16/14 15/17/15 16/18/16 
f 17/19/17 18/20/18 19/21/19 20/22/20 
f 7/23/7 21/24/21 9/25/9 12/26/12 
f 12/27/12 11/28/11 8/9/8 7/8/7 
f 22/29/22 23/30/23 24/31/24 25/32/25 
f 11/33/11 10/34/10 26/35/26 8/36/8 
f 27/37/27 28/38/28 29/39/29 30/40/30 
f 2/41/2 1/42/1 23/30/23 22/29/22 
f 6/43/6 5/44/5 20/22/20 19/21/19 
f 5/10/5 8/9/8 17/45/17 20/46/20 
f 8/36/8 26/35/26 18/20/18 17/19/17 
f 15/17/15 14/16/14 25/32/25 24/31/24 
f 21/24/21 7/23/7 30/40/30 29/39/29 
f 7/8/7 4/7/4 27/47/27 30/48/30 
f 4/49/4 3/50/3 28/38/28 27/37/27 
f 9/51/9 13/15/13 16/18/16 10/52/10 
f 13/15/13 9/51/9 21/53/21 14/16/14 
f 23/30/23 19/54/19 18/55/18 24/31/24 
f 15/17/15 26/56/26 10/52/10 16/18/16 
f 25/32/25 29/57/29 28/58/28 22/29/22 
f 3/59/3 2/41/2 22/29/22 28/58/28 
f 1/42/1 6/60/6 19/54/19 23/30/23 
f 26/56/26 15/17/15 24/31/24 18/55/18 
f 14/16/14 21/53/21 29/57/29 25/32/25 
# 28 polygons

