mtllib ./BlockWall_4x2x2.mtl
g pb-Cube-30578
v 2 0 1
v -2 0 1
v 2 2 1
v -2 2 1
v -2 0 -1
v 2 0 -1
v -2 2 -1
v 2 2 -1
v 2 2 1
v -2 2 1
v 2 2 -1
v -2 2 -1
v -2 0 1
v -2 0 -1
v -2 2 1
v -2 2 -1
v 2 0 -1
v 2 0 1
v 2 2 -1
v 2 2 1

vn 0 0 1
vn 0 0 1
vn 0 0 1
vn 0 0 1
vn 0 0 -1
vn 0 0 -1
vn 0 0 -1
vn 0 0 -1
vn 0 1 0
vn 0 1 0
vn 0 1 0
vn 0 1 0
vn -1 0 0
vn -1 0 0
vn -1 0 0
vn -1 0 0
vn 1 0 0
vn 1 0 0
vn 1 0 0
vn 1 0 0

vt -0.001901716 0.4002126
vt 0.7980983 0.4002125
vt -0.001901746 0.0002126098
vt 0.7980983 0.0002124906
vt 0.7980983 -0.000959456
vt -0.001901746 -0.000959456
vt 0.7980983 0.3990406
vt -0.001901746 0.3990406
vt -0.001901746 0.7990407
vt 0.7980983 0.7990407
vt -0.001901746 0.3990406
vt 0.7980983 0.3990406
vt 0.3989695 -0.001030505
vt -0.001030505 -0.001030505
vt 0.3989695 0.3989695
vt -0.001030505 0.3989695
vt 0.9985545 -0.001030505
vt 0.5985544 -0.001030505
vt 0.9985545 0.3989695
vt 0.5985544 0.3989695

g Default_Prototype
usemtl Default_Prototype
usemap Default_Prototype
f 2/2/2 1/1/1 3/3/3
f 4/4/4 2/2/2 3/3/3
f 6/6/6 5/5/5 7/7/7
f 8/8/8 6/6/6 7/7/7
f 10/10/10 9/9/9 11/11/11
f 12/12/12 10/10/10 11/11/11

g Default_Prototype 2
usemtl Default_Prototype 2
usemap Default_Prototype 2
f 14/14/14 13/13/13 15/15/15
f 16/16/16 14/14/14 15/15/15
f 18/18/18 17/17/17 19/19/19
f 20/20/20 18/18/18 19/19/19
