mtllib ./BigBlock1.mtl
g pb-Cube-447748
v 1.531696 -1.640904 1.015895
v -1 -1.640904 1.015895
v 1.531696 1 1.015895
v -1 1 1.015895
v -1 -1.640904 1.015895
v -1 -1.640904 -1
v -1 1 1.015895
v -1 1 -1
v -1 -1.640904 -1
v 1.531696 -1.640904 -1
v -1 1 -1
v 1.531696 1 -1
v 1.531696 -1.640904 -1
v 1.531696 -1.640904 1.015895
v 1.531696 1 -1
v 1.531696 1 1.015895
v 1.531696 1 1.015895
v -1 1 1.015895
v 1.531696 1 -1
v -1 1 -1
v 1.531696 -1.640904 -1
v -1 -1.640904 -1
v 1.531696 -1.640904 1.015895
v -1 -1.640904 1.015895

vn 0 0 1
vn 0 0 1
vn 0 0 1
vn 0 0 1
vn -1 0 0
vn -1 0 0
vn -1 0 0
vn -1 0 0
vn 0 0 -1
vn 0 0 -1
vn 0 0 -1
vn 0 0 -1
vn 1 0 0
vn 1 0 0
vn 1 0 0
vn 1 0 0
vn 0 1 0
vn 0 1 0
vn 0 1 0
vn 0 1 0
vn 0 -1 0
vn 0 -1 0
vn 0 -1 0
vn 0 -1 0

vt 1 0.2216443
vt 0.7216443 0.2216443
vt 1 0.5120073
vt 0.7216443 0.5120073
vt 0.7216443 0.2216443
vt 0.5 0.2216443
vt 0.7216443 0.5120073
vt 0.5 0.5120073
vt 0.5 0.2216443
vt 0.2216443 0.2216443
vt 0.5 0.5120073
vt 0.2216443 0.5120073
vt 0.2216443 0.2216443
vt 0 0.2216443
vt 0.2216443 0.5120073
vt 0 0.5120073
vt 0.2216443 0.7336516
vt 0.5000001 0.7336516
vt 0.2216443 0.5120073
vt 0.5000001 0.5120073
vt 0.2216443 0.2216443
vt 0.5000001 0.2216443
vt 0.2216443 3.461397E-08
vt 0.5 0

g Default_Prototype
usemtl Default_Prototype
usemap Default_Prototype
f 2/2/2 1/1/1 3/3/3
f 4/4/4 2/2/2 3/3/3
f 6/6/6 5/5/5 7/7/7
f 8/8/8 6/6/6 7/7/7
f 10/10/10 9/9/9 11/11/11
f 12/12/12 10/10/10 11/11/11
f 14/14/14 13/13/13 15/15/15
f 16/16/16 14/14/14 15/15/15
f 18/18/18 17/17/17 19/19/19
f 20/20/20 18/18/18 19/19/19
f 22/22/22 21/21/21 23/23/23
f 24/24/24 22/22/22 23/23/23
