mtllib ./BlockWall_3x2x2.mtl
g pb-Cube-90892
v 1.5 0 1
v -1.5 0 1
v 1.5 2 1
v -1.5 2 1
v -1.5 0 -1
v 1.5 0 -1
v -1.5 2 -1
v 1.5 2 -1
v 1.5 2 1
v -1.5 2 1
v 1.5 2 -1
v -1.5 2 -1
v -1.5 0 1
v -1.5 0 -1
v -1.5 2 1
v -1.5 2 -1
v 1.5 0 -1
v 1.5 0 1
v 1.5 2 -1
v 1.5 2 1

vn 0 0 1
vn 0 0 1
vn 0 0 1
vn 0 0 1
vn 0 0 -1
vn 0 0 -1
vn 0 0 -1
vn 0 0 -1
vn 0 1 0
vn 0 1 0
vn 0 1 0
vn 0 1 0
vn -1 0 0
vn -1 0 0
vn -1 0 0
vn -1 0 0
vn 1 0 0
vn 1 0 0
vn 1 0 0
vn 1 0 0

vt 0.001210362 0.3992535
vt 0.6012102 0.3992535
vt 0.001210332 -0.000746429
vt 0.6012102 -0.000746429
vt 0.6012102 0.0009499192
vt 0.001210332 0.0009499192
vt 0.6012102 0.40095
vt 0.001210332 0.40095
vt 0.001210332 0.8009499
vt 0.6012102 0.8009499
vt 0.001210332 0.40095
vt 0.6012102 0.40095
vt 1.00121 0.0009499192
vt 0.6012102 0.0009499192
vt 1.00121 0.40095
vt 0.6012102 0.40095
vt 0.9993778 0.0009499192
vt 0.5993778 0.0009499192
vt 0.9993778 0.40095
vt 0.5993778 0.40095

g Default_Prototype
usemtl Default_Prototype
usemap Default_Prototype
f 2/2/2 1/1/1 3/3/3
f 4/4/4 2/2/2 3/3/3
f 6/6/6 5/5/5 7/7/7
f 8/8/8 6/6/6 7/7/7
f 10/10/10 9/9/9 11/11/11
f 12/12/12 10/10/10 11/11/11

g Default_Prototype 2
usemtl Default_Prototype 2
usemap Default_Prototype 2
f 14/14/14 13/13/13 15/15/15
f 16/16/16 14/14/14 15/15/15
f 18/18/18 17/17/17 19/19/19
f 20/20/20 18/18/18 19/19/19
