mtllib ./BlockWall_1x2x2.mtl
g pb-Cube-139326
v 0.5 -1.907349E-06 1
v -0.5 -1.907349E-06 1
v 0.5 1.999998 1
v -0.5 1.999998 1
v -0.5 -1.907349E-06 -1
v 0.5 -1.907349E-06 -1
v -0.5 1.999998 -1
v 0.5 1.999998 -1
v 0.5 1.999998 1
v -0.5 1.999998 1
v 0.5 1.999998 -1
v -0.5 1.999998 -1
v -0.5 -1.907349E-06 1
v -0.5 -1.907349E-06 -1
v -0.5 1.999998 1
v -0.5 1.999998 -1
v 0.5 -1.907349E-06 -1
v 0.5 -1.907349E-06 1
v 0.5 1.999998 -1
v 0.5 1.999998 1

vn 0 0 1
vn 0 0 1
vn 0 0 1
vn 0 0 1
vn 0 0 -1
vn 0 0 -1
vn 0 0 -1
vn 0 0 -1
vn 0 1 0
vn 0 1 0
vn 0 1 0
vn 0 1 0
vn -1 0 0
vn -1 0 0
vn -1 0 0
vn -1 0 0
vn 1 0 0
vn 1 0 0
vn 1 0 0
vn 1 0 0

vt -0.0001148134 0.400803
vt 0.1998852 0.400803
vt -0.0001148507 0.0008029938
vt 0.1998852 0.0008029938
vt 0.1998853 -0.000218451
vt -0.0001147091 -0.000218451
vt 0.1998853 0.3997816
vt -0.0001147091 0.3997816
vt -0.0001147091 0.7997817
vt 0.1998853 0.7997817
vt -0.0001147091 0.3997816
vt 0.1998853 0.3997816
vt 0.5998853 -0.000218451
vt 0.1998853 -0.000218451
vt 0.5998853 0.3997816
vt 0.1998853 0.3997816
vt 1.001147 -0.0002184212
vt 0.6011473 -0.0002184212
vt 1.001147 0.3997816
vt 0.6011473 0.3997816

g Default_Prototype
usemtl Default_Prototype
usemap Default_Prototype
f 2/2/2 1/1/1 3/3/3
f 4/4/4 2/2/2 3/3/3
f 6/6/6 5/5/5 7/7/7
f 8/8/8 6/6/6 7/7/7
f 10/10/10 9/9/9 11/11/11
f 12/12/12 10/10/10 11/11/11

g Default_Prototype 2
usemtl Default_Prototype 2
usemap Default_Prototype 2
f 14/14/14 13/13/13 15/15/15
f 16/16/16 14/14/14 15/15/15
f 18/18/18 17/17/17 19/19/19
f 20/20/20 18/18/18 19/19/19
