mtllib ./BlockWall_2x2x2.mtl
g pb-Cube-117916
v 1 0 1
v -1 0 1
v 1 2 1
v -1 2 1
v -1 0 -1
v 1 0 -1
v -1 2 -1
v 1 2 -1
v 1 2 1
v -1 2 1
v 1 2 -1
v -1 2 -1
v -1 0 1
v -1 0 -1
v -1 2 1
v -1 2 -1
v 1 0 -1
v 1 0 1
v 1 2 -1
v 1 2 1

vn 0 0 1
vn 0 0 1
vn 0 0 1
vn 0 0 1
vn 0 0 -1
vn 0 0 -1
vn 0 0 -1
vn 0 0 -1
vn 0 1 0
vn 0 1 0
vn 0 1 0
vn 0 1 0
vn -1 0 0
vn -1 0 0
vn -1 0 0
vn -1 0 0
vn 1 0 0
vn 1 0 0
vn 1 0 0
vn 1 0 0

vt -0.0007702559 0.4012704
vt 0.3992298 0.4012703
vt -0.0007702857 0.001270339
vt 0.3992298 0.001270339
vt 0.3992298 0.001458704
vt -0.0007702708 0.001458704
vt 0.3992298 0.4014587
vt -0.0007702708 0.4014587
vt -0.0007702708 0.8014588
vt 0.3992298 0.8014588
vt -0.0007702708 0.4014588
vt 0.3992298 0.4014588
vt 0.7992299 0.001458704
vt 0.3992298 0.001458704
vt 0.7992299 0.4014587
vt 0.3992298 0.4014587
vt 0.9983653 0.001458675
vt 0.5983652 0.001458675
vt 0.9983653 0.4014587
vt 0.5983652 0.4014587

g Default_Prototype
usemtl Default_Prototype
usemap Default_Prototype
f 2/2/2 1/1/1 3/3/3
f 4/4/4 2/2/2 3/3/3
f 6/6/6 5/5/5 7/7/7
f 8/8/8 6/6/6 7/7/7
f 10/10/10 9/9/9 11/11/11
f 12/12/12 10/10/10 11/11/11

g Default_Prototype 2
usemtl Default_Prototype 2
usemap Default_Prototype 2
f 14/14/14 13/13/13 15/15/15
f 16/16/16 14/14/14 15/15/15
f 18/18/18 17/17/17 19/19/19
f 20/20/20 18/18/18 19/19/19
