mtllib ./BigBlock1Edge2.mtl
g Default_Prototype
v 1.531696 1.1 1.115895
v 1.531696 1.1 1.015895
v 1.631696 1.1 1.115895
v 1.631696 1.1 1.015895
v 1.298772 1.1 0.8119215
v 1.531696 1.1 0.8119215
v 1.298772 1.1 1.015895
v 1.298772 1.1 0.007947505
v 1.531696 1.1 0.007947505
v 1.531696 1.1 -0.7960265
v 1.631696 1.1 0.007947505
v 1.631696 1.1 -0.7960265
v 1.631696 1.1 0.8119215
v 1.298772 1.1 1.115895
v 0.265848 1.1 1.015895
v 0.265848 1.1 1.115895
v 0.265848 1.1 0.8119215
v -0.7670761 1.1 0.8119215
v -0.7670761 1.1 1.015895
v -0.7670761 1.1 1.115895
v -1 1.1 1.015895
v -1 1.1 1.115895
v -1.1 1.1 1.015895
v -1.1 1.1 1.115895
v -1 1.1 0.8119215
v -1.1 1.1 0.8119215
v -1 1.1 0.007947505
v -1.1 1.1 0.007947505
v -0.7670761 1.1 0.007947505
v -0.7670761 1.1 -0.7960265
v -1 1.1 -0.7960265
v -1.1 1.1 -0.7960265
v -1 1.1 -1
v -1.1 1.1 -1
v -1 1.1 -1.1
v -1.1 1.1 -1.1
v -0.7670761 1.1 -1
v -0.7670761 1.1 -1.1
v 0.265848 1.1 -1
v 0.265848 1.1 -1.1
v 0.265848 1.1 -0.7960265
v 1.298772 1.1 -1
v 1.298772 1.1 -1.1
v 1.298772 1.1 -0.7960265
v 1.531696 1.1 -1
v 1.531696 1.1 -1.1
v 1.631696 1.1 -1
v 1.631696 1.1 -1.1
v 1.631696 1 1.015895
v 1.631696 0.7397746 1.015895
v 1.631696 1 1.115895
v 1.631696 0.7397746 1.115895
v 1.631696 1.1 1.015895
v 1.631696 1.1 1.115895
v 1.631696 1 0.8119215
v 1.631696 0.7397746 0.8119215
v 1.631696 1 0.007947505
v 1.631696 1.1 0.007947505
v 1.631696 1.1 0.8119215
v 1.631696 1 -0.7960265
v 1.631696 1.1 -0.7960265
v 1.631696 1 -1
v 1.631696 1.1 -1
v 1.631696 1 -1.1
v 1.631696 1.1 -1.1
v 1.631696 0.7397746 -1
v 1.631696 0.7397746 -0.7960265
v 1.631696 0.7397746 -1.1
v 1.631696 -0.320452 -1
v 1.631696 -0.320452 -1.1
v 1.631696 -0.320452 -0.7960265
v 1.631696 0.7397746 0.007947505
v 1.631696 -0.320452 0.8119215
v 1.631696 -0.320452 1.015895
v 1.631696 -0.320452 1.115895
v 1.631696 -0.9806779 0.8119215
v 1.631696 -0.9806779 1.015895
v 1.631696 -0.9806779 1.115895
v 1.631696 -1.640904 1.015895
v 1.631696 -1.640904 1.115895
v 1.631696 -1.640904 0.8119215
v 1.631696 -0.980678 -0.7960265
v 1.631696 -0.9806779 -1
v 1.631696 -0.9806779 -1.1
v 1.631696 -1.640904 -1
v 1.631696 -1.640904 -1.1
v 1.631696 -1.640904 -0.7960265
v 1.531696 -0.9806779 0.8119215
v 1.531696 -1.640904 0.8119215
v 1.631696 -0.9806779 0.8119215
v 1.631696 -1.640904 0.8119215
v 1.531696 0.7397746 0.8119215
v 1.531696 -0.320452 0.8119215
v 1.631696 0.7397746 0.8119215
v 1.631696 -0.320452 0.8119215
v 1.531696 0.7397746 -0.7960265
v 1.531696 0.7397746 0.007947505
v 1.631696 0.7397746 -0.7960265
v 1.631696 0.7397746 0.007947505
v 1.531696 0.7397746 0.8119215
v 1.631696 0.7397746 0.8119215
v 1.531696 -0.320452 -0.7960265
v 1.531696 0.7397746 -0.7960265
v 1.631696 -0.320452 -0.7960265
v 1.631696 0.7397746 -0.7960265
v 1.531696 -0.980678 -0.7960265
v 1.631696 -0.980678 -0.7960265
v 1.531696 -1.640904 -0.7960265
v 1.631696 -1.640904 -0.7960265
v 1.298772 0.7397746 1.115895
v 0.265848 0.7397746 1.115895
v 0.265848 1 1.115895
v 1.298772 1 1.115895
v 1.531696 0.7397746 1.115895
v 1.531696 1 1.115895
v -0.7670761 0.7397746 1.115895
v -0.7670761 1 1.115895
v -1 1 1.115895
v -1 0.7397746 1.115895
v -1.1 1 1.115895
v -1.1 0.7397746 1.115895
v 1.631696 0.7397746 1.115895
v 1.631696 1 1.115895
v 1.631696 1.1 1.115895
v 1.531696 1.1 1.115895
v 1.298772 1.1 1.115895
v 0.265848 1.1 1.115895
v -0.7670761 1.1 1.115895
v -1 1.1 1.115895
v -1.1 1.1 1.115895
v 1.298772 -0.320452 1.115895
v 1.531696 -0.320452 1.115895
v 1.631696 -0.320452 1.115895
v 1.531696 -0.9806779 1.115895
v 1.631696 -0.9806779 1.115895
v 1.298772 -0.980678 1.115895
v 1.531696 -1.640904 1.115895
v 1.298772 -1.640904 1.115895
v 1.631696 -1.640904 1.115895
v -0.7670761 -0.9806779 1.115895
v -0.7670761 -1.640904 1.115895
v -1 -0.9806779 1.115895
v -1 -1.640904 1.115895
v -1.1 -0.9806779 1.115895
v -1.1 -1.640904 1.115895
v -1 -0.320452 1.115895
v -1.1 -0.320452 1.115895
v -0.7670761 -0.320452 1.115895
v -0.7670761 0.7397746 1.015895
v -0.7670761 -0.320452 1.015895
v -0.7670761 0.7397746 1.115895
v -0.7670761 -0.320452 1.115895
v -0.7670761 -0.9806779 1.015895
v -0.7670761 -0.9806779 1.115895
v -0.7670761 -1.640904 1.015895
v -0.7670761 -1.640904 1.115895
v 0.265848 0.7397746 1.015895
v -0.7670761 0.7397746 1.015895
v 0.265848 0.7397746 1.115895
v -0.7670761 0.7397746 1.115895
v 1.298772 0.7397746 1.015895
v 1.298772 0.7397746 1.115895
v 1.298772 -0.320452 1.015895
v 1.298772 0.7397746 1.015895
v 1.298772 -0.320452 1.115895
v 1.298772 0.7397746 1.115895
v 1.298772 -0.980678 1.015895
v 1.298772 -0.980678 1.115895
v 1.298772 -1.640904 1.015895
v 1.298772 -1.640904 1.115895
v -1.1 -0.980678 0.8119215
v -1.1 -0.9806779 1.015895
v -1.1 -1.640904 0.8119215
v -1.1 -1.640904 1.015895
v -1.1 -1.640904 1.115895
v -1.1 -0.9806779 1.115895
v -1.1 -0.320452 0.8119215
v -1.1 -0.320452 1.015895
v -1.1 -0.320452 1.115895
v -1.1 0.7397746 0.8119215
v -1.1 0.7397746 1.015895
v -1.1 0.7397746 1.115895
v -1.1 1 1.015895
v -1.1 1 1.115895
v -1.1 1 0.8119215
v -1.1 1.1 1.115895
v -1.1 1.1 1.015895
v -1.1 1.1 0.8119215
v -1.1 0.7397746 0.007947505
v -1.1 1 0.007947505
v -1.1 1.1 0.007947505
v -1.1 0.7397746 -0.7960265
v -1.1 1 -0.7960265
v -1.1 1.1 -0.7960265
v -1.1 1 -1
v -1.1 1.1 -1
v -1.1 0.7397746 -1
v -1.1 1 -1.1
v -1.1 1.1 -1.1
v -1.1 -0.320452 -1
v -1.1 0.7397746 -1.1
v -1.1 -0.320452 -1.1
v -1.1 -0.320452 -0.7960265
v -1.1 -0.9806779 -0.7960265
v -1.1 -0.9806779 -1
v -1.1 -0.9806779 -1.1
v -1.1 -1.640904 -1
v -1.1 -1.640904 -1.1
v -1.1 -1.640904 -0.7960265
v -1 0.7397746 -0.7960265
v -1 -0.320452 -0.7960265
v -1.1 0.7397746 -0.7960265
v -1.1 -0.320452 -0.7960265
v -1 -0.9806779 -0.7960265
v -1.1 -0.9806779 -0.7960265
v -1 -1.640904 -0.7960265
v -1.1 -1.640904 -0.7960265
v -1 0.7397746 0.007947505
v -1 0.7397746 -0.7960265
v -1.1 0.7397746 0.007947505
v -1.1 0.7397746 -0.7960265
v -1 0.7397746 0.8119215
v -1.1 0.7397746 0.8119215
v -1 -0.320452 0.8119215
v -1 0.7397746 0.8119215
v -1.1 -0.320452 0.8119215
v -1.1 0.7397746 0.8119215
v -1 -0.980678 0.8119215
v -1.1 -0.980678 0.8119215
v -1 -1.640904 0.8119215
v -1.1 -1.640904 0.8119215
v -0.7670761 -0.980678 -1.1
v -1 -0.9806779 -1.1
v -0.7670761 -1.640904 -1.1
v -1 -1.640904 -1.1
v -1.1 -1.640904 -1.1
v -1.1 -0.9806779 -1.1
v -1 -0.320452 -1.1
v -1.1 -0.320452 -1.1
v -0.7670761 -0.320452 -1.1
v -0.7670761 0.7397746 -1.1
v -1 0.7397746 -1.1
v -1.1 0.7397746 -1.1
v -1 1 -1.1
v -1.1 1 -1.1
v -1.1 1.1 -1.1
v -1 1.1 -1.1
v -0.7670761 1 -1.1
v -0.7670761 1.1 -1.1
v 0.265848 0.7397746 -1.1
v 0.265848 1 -1.1
v 0.265848 1.1 -1.1
v 1.298772 1 -1.1
v 1.298772 1.1 -1.1
v 1.298772 0.7397746 -1.1
v 1.531696 1 -1.1
v 1.531696 0.7397746 -1.1
v 1.531696 1.1 -1.1
v 1.631696 1 -1.1
v 1.631696 1.1 -1.1
v 1.631696 0.7397746 -1.1
v 1.531696 -0.320452 -1.1
v 1.631696 -0.320452 -1.1
v 1.298772 -0.320452 -1.1
v 1.298772 -0.9806779 -1.1
v 1.531696 -0.9806779 -1.1
v 1.631696 -0.9806779 -1.1
v 1.531696 -1.640904 -1.1
v 1.631696 -1.640904 -1.1
v 1.298772 -1.640904 -1.1
v 1.298772 0.7397746 -1
v 1.298772 -0.320452 -1
v 1.298772 0.7397746 -1.1
v 1.298772 -0.320452 -1.1
v 1.298772 -0.9806779 -1
v 1.298772 -0.9806779 -1.1
v 1.298772 -1.640904 -1
v 1.298772 -1.640904 -1.1
v 0.265848 0.7397746 -1
v 1.298772 0.7397746 -1
v 0.265848 0.7397746 -1.1
v 1.298772 0.7397746 -1.1
v -0.7670761 0.7397746 -1
v -0.7670761 0.7397746 -1.1
v -0.7670761 -0.320452 -1
v -0.7670761 0.7397746 -1
v -0.7670761 -0.320452 -1.1
v -0.7670761 0.7397746 -1.1
v -0.7670761 -0.980678 -1
v -0.7670761 -0.980678 -1.1
v -0.7670761 -1.640904 -1
v -0.7670761 -1.640904 -1.1
v 0.265848 1 0.8119215
v 1.298772 1 0.8119215
v 0.265848 1.1 0.8119215
v 1.298772 1.1 0.8119215
v -0.7670761 1 0.8119215
v -0.7670761 1.1 0.8119215
v -0.7670761 1 -0.7960265
v -0.7670761 1 0.007947505
v -0.7670761 1.1 -0.7960265
v -0.7670761 1.1 0.007947505
v -0.7670761 1 0.8119215
v -0.7670761 1.1 0.8119215
v 0.265848 1 -0.7960265
v -0.7670761 1 -0.7960265
v 0.265848 1.1 -0.7960265
v -0.7670761 1.1 -0.7960265
v 1.298772 1 -0.7960265
v 1.298772 1.1 -0.7960265
v 1.298772 1 0.007947505
v 1.298772 1 -0.7960265
v 1.298772 1.1 0.007947505
v 1.298772 1.1 -0.7960265
v 1.298772 1 0.8119215
v 1.298772 1.1 0.8119215

vn 0 1 0
vn 0 1 0
vn 0 1 0
vn 0 1 0
vn 0 1 0
vn 0 1 0
vn 0 1 0
vn 0 1 0
vn 0 0.9999999 0
vn 0 1 0
vn 0 1 0
vn 0 1 0
vn 0 1 0
vn 0 1 0
vn 0 1 0
vn 0 1 0
vn 0 1 0
vn 0 0.9999999 0
vn 0 1 0
vn 0 1 0
vn 0 0.9999999 0
vn 0 0.9999999 0
vn 0 0.9999999 0
vn 0 0.9999999 0
vn 0 0.9999999 0
vn 0 1 0
vn 0 1 0
vn 0 1 0
vn 0 1 0
vn 0 1 0
vn 0 1 0
vn 0 1 0
vn 0 1 0
vn 0 1 0
vn 0 0.9999999 0
vn 0 0.9999999 0
vn 0 1 0
vn 0 1 0
vn 0 1 0
vn 0 1 0
vn 0 0.9999999 0
vn 0 1 0
vn 0 1 0
vn 0 1 0
vn 0 1 0
vn 0 1 0
vn 0 1 0
vn 0 1 0
vn 1 0 0
vn 1 0 0
vn 1 0 0
vn 1 0 0
vn 1 0 0
vn 1 0 0
vn 1 0 0
vn 1 0 0
vn 1 -3.309293E-07 1.48275E-07
vn 1 0 1.482751E-07
vn 1 0 1.482751E-07
vn 1 0 -1.48275E-07
vn 1 0 -1.482751E-07
vn 1 0 0
vn 1 0 0
vn 1 0 0
vn 1 0 0
vn 1 0 0
vn 1 0 0
vn 1 0 0
vn 1 1.124376E-07 0
vn 1 1.124376E-07 0
vn 1 0 5.844351E-07
vn 1 -4.581001E-07 0
vn 1 0 -5.844351E-07
vn 1 5.621878E-08 -2.922175E-07
vn 1 1.124376E-07 0
vn 1 -9.027916E-08 -2.922175E-07
vn 1 -1.805583E-07 0
vn 1 -1.805583E-07 0
vn 1 0 0
vn 1 0 0
vn 1 0 0
vn 1 -9.027916E-08 2.922175E-07
vn 1 -1.805583E-07 -5.276231E-14
vn 1 -1.805583E-07 0
vn 1 0 0
vn 1 0 0
vn 0.9999999 0 0
vn 0 0 -0.9999999
vn 0 0 -1
vn 0 0 -1
vn 0 0 -1
vn 0 0 -1
vn 0 0 -1
vn 0 0 -1
vn 0 0 -1
vn 0 -1 0
vn 0 -1 0
vn 0 -1 0
vn 0 -1 0
vn 0 -1 0
vn 0 -1 0
vn 0 0 1
vn 0 0 1
vn 0 0 1
vn 0 0 1
vn 0 0 1
vn 0 0 1
vn 0 0 1
vn 0 0 1
vn 0 0 1
vn 0 0 1
vn 0 0 0.9999999
vn 0 0 0.9999999
vn 0 0 0.9999999
vn 0 0 1
vn 0 0 1
vn 0 0 1
vn 0 0 0.9999999
vn 0 0 1
vn 0 0 1
vn 0 0 1
vn 0 0 1
vn 0 0 1
vn 0 0 1
vn 0 0 1
vn 0 0 1
vn 0 0 1
vn 0 0 1
vn 0 0 0.9999999
vn 0 0 0.9999999
vn 0 0 1
vn 0 0 1
vn 0 0 1
vn 0 0 0.9999999
vn 0 0 1
vn 0 0 1
vn 0 0 0.9999999
vn 0 0 1
vn 0 0 1
vn 0 0 0.9999999
vn 0 0 1
vn 0 0 1
vn 0 0 1
vn 0 0 1
vn 0 0 1
vn 0 0 0.9999999
vn 0 0 1
vn 0 0 1
vn 1 0 0
vn 1 0 0
vn 1 0 0
vn 1 0 0
vn 0.9999999 0 0
vn 1 0 0
vn 1 0 0
vn 1 0 0
vn 0 -0.9999999 0
vn 0 -1 0
vn 0 -1 0
vn 0 -1 0
vn 0 -1 0
vn 0 -1 0
vn -1 0 0
vn -1 0 0
vn -1 0 0
vn -1 0 0
vn -1 0 0
vn -1 0 0
vn -1 0 0
vn -1 0 0
vn -0.9999999 0 0
vn -1 0 0
vn -1 0 0
vn -1 0 0
vn -1 0 0
vn -1 0 0
vn -0.9999999 0 0
vn -1 0 0
vn -1 0 0
vn -1 0 0
vn -1 0 0
vn -1 0 0
vn -1 0 0
vn -1 0 0
vn -1 0 0
vn -1 0 0
vn -1 0 0
vn -1 0 0
vn -1 0 0
vn -0.9999999 0 0
vn -1 0 0
vn -1 0 0
vn -0.9999999 0 0
vn -1 0 0
vn -1 0 0
vn -1 0 0
vn -1 0 0
vn -1 0 0
vn -1 0 0
vn -1 0 0
vn -1 0 0
vn -1 0 0
vn -1 0 0
vn -1 0 0
vn -0.9999999 0 0
vn -1 0 0
vn -1 0 0
vn -1 0 0
vn -0.9999999 0 0
vn 0 0 1
vn 0 0 1
vn 0 0 1
vn 0 0 1
vn 0 0 1
vn 0 0 1
vn 0 0 1
vn 0 0 1
vn 0 -1 0
vn 0 -1 0
vn 0 -1 0
vn 0 -1 0
vn 0 -1 0
vn 0 -1 0
vn 0 0 -1
vn 0 0 -1
vn 0 0 -1
vn 0 0 -1
vn 0 0 -1
vn 0 0 -1
vn 0 0 -1
vn 0 0 -1
vn 0 0 -1
vn 0 0 -1
vn 0 0 -1
vn 0 0 -1
vn 0 0 -1
vn 0 0 -1
vn 0 0 -1
vn 0 0 -1
vn 0 0 -1
vn 0 0 -1
vn 0 0 -1
vn 0 0 -1
vn 0 0 -1
vn 0 0 -1
vn 0 0 -0.9999999
vn 0 0 -0.9999999
vn 0 0 -0.9999999
vn 0 0 -1
vn 0 0 -1
vn 0 0 -1
vn 0 0 -1
vn 0 0 -1
vn 0 0 -1
vn 0 0 -1
vn 0 0 -1
vn 0 0 -1
vn 0 0 -1
vn 0 0 -1
vn 0 0 -1
vn 0 0 -1
vn 0 0 -1
vn 0 0 -1
vn 0 0 -1
vn 0 0 -1
vn 0 0 -1
vn 0 0 -1
vn 0 0 -1
vn 0 0 -1
vn 0 0 -1
vn -1 0 0
vn -1 0 0
vn -1 0 0
vn -1 0 0
vn -0.9999999 0 0
vn -1 0 0
vn -1 0 0
vn -1 0 0
vn 0 -1 0
vn 0 -1 0
vn 0 -1 0
vn 0 -1 0
vn 0 -1 0
vn 0 -1 0
vn 1 0 0
vn 1 0 0
vn 1 0 0
vn 1 0 0
vn 1 0 0
vn 1 0 0
vn 1 0 0
vn 1 0 0
vn 0 0 -1
vn 0 0 -1
vn 0 0 -1
vn 0 0 -1
vn 0 0 -1
vn 0 0 -1
vn 1 0 0
vn 1 0 0
vn 1 0 0
vn 1 0 0
vn 1 0 0
vn 1 0 0
vn 0 0 0.9999999
vn 0 0 1
vn 0 0 1
vn 0 0 1
vn 0 0 1
vn 0 0 1
vn -1 0 0
vn -1 0 0
vn -1 0 0
vn -1 0 0
vn -1 0 0
vn -1 0 0

vt 0.5317949 0.5529584
vt 0.5317949 0.5731328
vt 0.5519693 0.5529584
vt 0.5519693 0.5731328
vt 0.484804 0.614283
vt 0.5317949 0.614283
vt 0.484804 0.5731328
vt 0.484804 0.7764792
vt 0.5317949 0.7764792
vt 0.5317949 0.9386753
vt 0.5519693 0.7764792
vt 0.5519693 0.9386753
vt 0.5519693 0.614283
vt 0.484804 0.5529584
vt 0.2764189 0.5731329
vt 0.2764189 0.5529585
vt 0.2764189 0.614283
vt 0.06803356 0.6142831
vt 0.06803356 0.5731329
vt 0.06803356 0.5529585
vt 0.02104286 0.5731329
vt 0.02104286 0.5529585
vt 0.000868577 0.5731329
vt 0.000868577 0.5529585
vt 0.02104286 0.6142831
vt 0.000868577 0.6142831
vt 0.02104286 0.7764792
vt 0.000868577 0.7764792
vt 0.06803356 0.7764792
vt 0.06803366 0.9386753
vt 0.02104286 0.9386753
vt 0.0008686731 0.9386753
vt 0.02104286 0.9798256
vt 0.0008686731 0.9798256
vt 0.02104286 1
vt 0.0008686731 1
vt 0.06803366 0.9798256
vt 0.06803366 1
vt 0.2764189 0.9798256
vt 0.2764189 1
vt 0.2764189 0.9386753
vt 0.4848041 0.9798256
vt 0.4848041 1
vt 0.4848041 0.9386753
vt 0.5317949 0.9798256
vt 0.5317949 1
vt 0.5519693 0.9798256
vt 0.5519693 1
vt 0.5721437 0.532784
vt 0.5721437 0.4802854
vt 0.5519693 0.532784
vt 0.5519693 0.4802854
vt 0.5721437 0.5529584
vt 0.5519693 0.5529584
vt 0.6132939 0.532784
vt 0.6132939 0.4802854
vt 0.77549 0.532784
vt 0.77549 0.5529584
vt 0.6132939 0.5529584
vt 0.9376862 0.532784
vt 0.9376862 0.5529584
vt 0.9788365 0.532784
vt 0.9788365 0.5529584
vt 0.9990109 0.532784
vt 0.9990109 0.5529584
vt 0.9788365 0.4802854
vt 0.9376862 0.4802854
vt 0.9990109 0.4802854
vt 0.9788365 0.2663921
vt 0.9990109 0.2663921
vt 0.9376862 0.2663921
vt 0.77549 0.4802854
vt 0.6132939 0.2663921
vt 0.5721437 0.2663921
vt 0.5519693 0.2663921
vt 0.6132939 0.1331961
vt 0.5721437 0.1331961
vt 0.5519693 0.1331961
vt 0.5721437 4.809929E-08
vt 0.5519693 4.809929E-08
vt 0.6132939 4.809929E-08
vt 0.9376862 0.1331961
vt 0.9788365 0.1331961
vt 0.9990109 0.1331961
vt 0.9788365 4.809929E-08
vt 0.9990109 4.809929E-08
vt 0.9376862 4.809929E-08
vt 0.6334683 0.133196
vt 0.6334683 0
vt 0.6132939 0.133196
vt 0.6132939 0
vt 0.6334683 0.4802854
vt 0.6334683 0.2663921
vt 0.6132939 0.4802854
vt 0.6132939 0.2663921
vt 0.9376862 0.460111
vt 0.77549 0.460111
vt 0.9376862 0.4802854
vt 0.77549 0.4802854
vt 0.613294 0.460111
vt 0.613294 0.4802854
vt 0.9175118 0.2663921
vt 0.9175118 0.4802854
vt 0.9376862 0.2663921
vt 0.9376862 0.4802854
vt 0.9175118 0.133196
vt 0.9376862 0.133196
vt 0.9175118 0
vt 0.9376862 0
vt 0.4848041 0.4802854
vt 0.2764191 0.4802854
vt 0.276419 0.532784
vt 0.4848041 0.532784
vt 0.5317949 0.4802854
vt 0.5317949 0.532784
vt 0.06803394 0.4802854
vt 0.06803394 0.532784
vt 0.02104315 0.532784
vt 0.02104315 0.4802854
vt 0.0008688656 0.532784
vt 0.0008688656 0.4802854
vt 0.5519693 0.4802854
vt 0.5519693 0.532784
vt 0.5519693 0.5529584
vt 0.5317949 0.5529584
vt 0.4848041 0.5529584
vt 0.276419 0.5529584
vt 0.06803394 0.5529584
vt 0.02104315 0.5529584
vt 0.0008688656 0.5529584
vt 0.4848041 0.2663922
vt 0.531795 0.2663922
vt 0.5519693 0.2663922
vt 0.5317949 0.1331963
vt 0.5519693 0.1331963
vt 0.4848041 0.1331963
vt 0.5317949 3.36695E-07
vt 0.4848041 2.885957E-07
vt 0.5519693 3.36695E-07
vt 0.06803394 0.1331963
vt 0.06803394 2.885957E-07
vt 0.02104315 0.1331963
vt 0.02104315 3.36695E-07
vt 0.0008688656 0.1331963
vt 0.0008688656 3.36695E-07
vt 0.02104315 0.2663922
vt 0.0008688656 0.2663922
vt 0.06803394 0.2663922
vt 0.08820833 0.4802854
vt 0.08820833 0.2663922
vt 0.06803394 0.4802854
vt 0.06803394 0.2663922
vt 0.08820833 0.1331963
vt 0.06803394 0.1331963
vt 0.08820833 2.885957E-07
vt 0.06803394 2.885957E-07
vt 0.2764191 0.460111
vt 0.06803404 0.460111
vt 0.2764191 0.4802853
vt 0.06803404 0.4802853
vt 0.4848041 0.460111
vt 0.4848041 0.4802853
vt 0.4646297 0.2663922
vt 0.4646297 0.4802854
vt 0.4848041 0.2663922
vt 0.4848041 0.4802854
vt 0.4646297 0.1331963
vt 0.4848041 0.1331963
vt 0.4646297 2.885957E-07
vt 0.4848041 2.885957E-07
vt 0.9368178 0.1331961
vt 0.977968 0.1331961
vt 0.9368178 4.809929E-08
vt 0.977968 9.619858E-08
vt 0.9981424 9.619858E-08
vt 0.9981424 0.1331961
vt 0.9368178 0.2663921
vt 0.977968 0.2663921
vt 0.9981424 0.2663921
vt 0.9368178 0.4802855
vt 0.977968 0.4802855
vt 0.9981424 0.4802855
vt 0.977968 0.5327842
vt 0.9981424 0.5327842
vt 0.9368178 0.5327842
vt 0.9981424 0.5529585
vt 0.977968 0.5529585
vt 0.9368178 0.5529585
vt 0.7746215 0.4802855
vt 0.7746215 0.5327842
vt 0.7746215 0.5529585
vt 0.6124253 0.4802855
vt 0.6124253 0.5327842
vt 0.6124253 0.5529585
vt 0.5712751 0.5327842
vt 0.5712751 0.5529585
vt 0.5712751 0.4802855
vt 0.5511007 0.5327842
vt 0.5511007 0.5529585
vt 0.5712751 0.2663921
vt 0.5511007 0.4802855
vt 0.5511007 0.2663921
vt 0.6124253 0.2663921
vt 0.6124253 0.1331961
vt 0.5712751 0.1331961
vt 0.5511007 0.1331961
vt 0.5712751 9.619858E-08
vt 0.5511007 9.619858E-08
vt 0.6124253 4.809929E-08
vt 0.6325997 0.4802854
vt 0.6325997 0.2663921
vt 0.6124253 0.4802854
vt 0.6124253 0.2663921
vt 0.6325997 0.1331961
vt 0.6124253 0.1331961
vt 0.6325997 0
vt 0.6124253 0
vt 0.7746215 0.4601112
vt 0.6124253 0.4601112
vt 0.7746215 0.4802855
vt 0.6124253 0.4802855
vt 0.9368178 0.4601112
vt 0.9368178 0.4802855
vt 0.9166434 0.2663921
vt 0.9166434 0.4802855
vt 0.9368178 0.2663921
vt 0.9368178 0.4802855
vt 0.9166434 0.1331961
vt 0.9368178 0.1331961
vt 0.9166434 9.619858E-08
vt 0.9368178 9.619858E-08
vt 0.4839357 0.133196
vt 0.5309265 0.1331961
vt 0.4839357 4.809929E-08
vt 0.5309265 4.809929E-08
vt 0.5511007 4.809929E-08
vt 0.5511007 0.1331961
vt 0.5309265 0.2663921
vt 0.5511007 0.2663921
vt 0.4839357 0.2663921
vt 0.4839357 0.4802853
vt 0.5309265 0.4802853
vt 0.5511007 0.4802853
vt 0.5309265 0.532784
vt 0.5511007 0.532784
vt 0.5511007 0.5529584
vt 0.5309265 0.5529584
vt 0.4839357 0.532784
vt 0.4839357 0.5529584
vt 0.2755504 0.4802853
vt 0.2755504 0.532784
vt 0.2755504 0.5529584
vt 0.06716527 0.532784
vt 0.06716527 0.5529584
vt 0.06716527 0.4802853
vt 0.02017438 0.532784
vt 0.02017438 0.4802853
vt 0.02017438 0.5529584
vt 0 0.532784
vt 0 0.5529584
vt 0 0.4802853
vt 0.02017438 0.2663921
vt 0 0.2663921
vt 0.06716527 0.2663921
vt 0.06716527 0.1331961
vt 0.02017438 0.1331961
vt 0 0.1331961
vt 0.02017438 4.809929E-08
vt 0 4.809929E-08
vt 0.06716527 4.809929E-08
vt 0.08733965 0.4802853
vt 0.08733965 0.2663921
vt 0.06716527 0.4802853
vt 0.06716527 0.2663921
vt 0.08733965 0.1331961
vt 0.06716527 0.1331961
vt 0.08733965 4.809929E-08
vt 0.06716527 4.809929E-08
vt 0.2755504 0.460111
vt 0.06716527 0.460111
vt 0.2755504 0.4802853
vt 0.06716527 0.4802854
vt 0.4839356 0.460111
vt 0.4839356 0.4802853
vt 0.4637613 0.266392
vt 0.4637613 0.4802853
vt 0.4839357 0.266392
vt 0.4839357 0.4802853
vt 0.4637613 0.133196
vt 0.4839357 0.133196
vt 0.4637613 4.809929E-08
vt 0.4839357 4.809929E-08
vt 0.2764189 0.6344575
vt 0.4848041 0.6344574
vt 0.2764189 0.6142831
vt 0.4848041 0.614283
vt 0.06803375 0.6344575
vt 0.06803375 0.6142831
vt 0.08820794 0.9386753
vt 0.08820794 0.7764792
vt 0.06803356 0.9386753
vt 0.06803356 0.7764792
vt 0.08820794 0.614283
vt 0.06803356 0.614283
vt 0.2764189 0.918501
vt 0.06803366 0.918501
vt 0.2764189 0.9386753
vt 0.06803366 0.9386753
vt 0.484804 0.918501
vt 0.484804 0.9386753
vt 0.4646297 0.7764791
vt 0.4646297 0.9386752
vt 0.484804 0.7764791
vt 0.484804 0.9386752
vt 0.4646297 0.614283
vt 0.484804 0.614283

g Default_PrototypeMat
usemtl Default_PrototypeMat
usemap Default_PrototypeMat
f 2/2/2 1/1/1 3/3/3
f 4/4/4 2/2/2 3/3/3
f 6/6/6 5/5/5 2/2/2
f 5/5/5 7/7/7 2/2/2
f 8/8/8 5/5/5 6/6/6
f 8/8/8 6/6/6 9/9/9
f 10/10/10 9/9/9 11/11/11
f 12/12/12 10/10/10 11/11/11
f 6/6/6 2/2/2 4/4/4
f 13/13/13 6/6/6 4/4/4
f 9/9/9 6/6/6 13/13/13
f 11/11/11 9/9/9 13/13/13
f 2/2/2 7/7/7 14/14/14
f 1/1/1 2/2/2 14/14/14
f 7/7/7 15/15/15 16/16/16
f 14/14/14 7/7/7 16/16/16
f 5/5/5 17/17/17 7/7/7
f 7/7/7 17/17/17 15/15/15
f 17/17/17 18/18/18 15/15/15
f 18/18/18 19/19/19 15/15/15
f 15/15/15 19/19/19 20/20/20
f 16/16/16 15/15/15 20/20/20
f 22/22/22 21/21/21 23/23/23
f 24/24/24 22/22/22 23/23/23
f 19/19/19 18/18/18 21/21/21
f 18/18/18 25/25/25 21/21/21
f 19/19/19 21/21/21 22/22/22
f 20/20/20 19/19/19 22/22/22
f 21/21/21 25/25/25 26/26/26
f 23/23/23 21/21/21 26/26/26
f 25/25/25 27/27/27 28/28/28
f 26/26/26 25/25/25 28/28/28
f 18/18/18 29/29/29 27/27/27
f 25/25/25 18/18/18 27/27/27
f 29/29/29 30/30/30 27/27/27
f 30/30/30 31/31/31 27/27/27
f 27/27/27 31/31/31 32/32/32
f 28/28/28 27/27/27 32/32/32
f 31/31/31 33/33/33 34/34/34
f 32/32/32 31/31/31 34/34/34
f 34/34/34 33/33/33 35/35/35
f 36/36/36 34/34/34 35/35/35
f 33/33/33 37/37/37 38/38/38
f 35/35/35 33/33/33 38/38/38
f 30/30/30 37/37/37 33/33/33
f 31/31/31 30/30/30 33/33/33
f 37/37/37 39/39/39 40/40/40
f 38/38/38 37/37/37 40/40/40
f 30/30/30 41/41/41 39/39/39
f 37/37/37 30/30/30 39/39/39
f 39/39/39 42/42/42 43/43/43
f 40/40/40 39/39/39 43/43/43
f 41/41/41 44/44/44 39/39/39
f 44/44/44 42/42/42 39/39/39
f 46/46/46 45/45/45 47/47/47
f 48/48/48 46/46/46 47/47/47
f 42/42/42 45/45/45 46/46/46
f 43/43/43 42/42/42 46/46/46
f 44/44/44 10/10/10 45/45/45
f 42/42/42 44/44/44 45/45/45
f 44/44/44 8/8/8 10/10/10
f 10/10/10 8/8/8 9/9/9
f 45/45/45 10/10/10 12/12/12
f 47/47/47 45/45/45 12/12/12
f 50/50/50 49/49/49 51/51/51
f 52/52/52 50/50/50 51/51/51
f 51/51/51 49/49/49 53/53/53
f 54/54/54 51/51/51 53/53/53
f 56/56/56 55/55/55 49/49/49
f 50/50/50 56/56/56 49/49/49
f 55/55/55 57/57/57 58/58/58
f 59/59/59 55/55/55 58/58/58
f 57/57/57 60/60/60 61/61/61
f 58/58/58 57/57/57 61/61/61
f 60/60/60 62/62/62 63/63/63
f 61/61/61 60/60/60 63/63/63
f 62/62/62 64/64/64 65/65/65
f 63/63/63 62/62/62 65/65/65
f 67/67/67 66/66/66 60/60/60
f 60/60/60 66/66/66 62/62/62
f 62/62/62 66/66/66 68/68/68
f 64/64/64 62/62/62 68/68/68
f 66/66/66 69/69/69 70/70/70
f 68/68/68 66/66/66 70/70/70
f 67/67/67 71/71/71 69/69/69
f 66/66/66 67/67/67 69/69/69
f 72/72/72 67/67/67 57/57/57
f 67/67/67 60/60/60 57/57/57
f 73/73/73 56/56/56 74/74/74
f 56/56/56 50/50/50 74/74/74
f 74/74/74 50/50/50 52/52/52
f 75/75/75 74/74/74 52/52/52
f 49/49/49 55/55/55 59/59/59
f 53/53/53 49/49/49 59/59/59
f 56/56/56 72/72/72 55/55/55
f 55/55/55 72/72/72 57/57/57
f 76/76/76 73/73/73 74/74/74
f 77/77/77 76/76/76 74/74/74
f 77/77/77 74/74/74 75/75/75
f 78/78/78 77/77/77 75/75/75
f 79/79/79 77/77/77 78/78/78
f 80/80/80 79/79/79 78/78/78
f 81/81/81 76/76/76 77/77/77
f 81/81/81 77/77/77 79/79/79
f 71/71/71 82/82/82 69/69/69
f 82/82/82 83/83/83 69/69/69
f 69/69/69 83/83/83 84/84/84
f 70/70/70 69/69/69 84/84/84
f 83/83/83 85/85/85 86/86/86
f 84/84/84 83/83/83 86/86/86
f 83/83/83 82/82/82 85/85/85
f 82/82/82 87/87/87 85/85/85
f 89/89/89 88/88/88 90/90/90
f 91/91/91 89/89/89 90/90/90
f 93/93/93 92/92/92 94/94/94
f 95/95/95 93/93/93 94/94/94
f 88/88/88 93/93/93 95/95/95
f 90/90/90 88/88/88 95/95/95
f 97/97/97 96/96/96 98/98/98
f 99/99/99 97/97/97 98/98/98
f 100/100/100 97/97/97 99/99/99
f 101/101/101 100/100/100 99/99/99
f 103/103/103 102/102/102 104/104/104
f 105/105/105 103/103/103 104/104/104
f 102/102/102 106/106/106 107/107/107
f 104/104/104 102/102/102 107/107/107
f 106/106/106 108/108/108 109/109/109
f 107/107/107 106/106/106 109/109/109
f 111/111/111 110/110/110 112/112/112
f 110/110/110 113/113/113 112/112/112
f 110/110/110 114/114/114 115/115/115
f 113/113/113 110/110/110 115/115/115
f 116/116/116 111/111/111 112/112/112
f 117/117/117 116/116/116 112/112/112
f 116/116/116 117/117/117 118/118/118
f 119/119/119 116/116/116 118/118/118
f 119/119/119 118/118/118 120/120/120
f 121/121/121 119/119/119 120/120/120
f 115/115/115 114/114/114 122/122/122
f 123/123/123 115/115/115 122/122/122
f 115/115/115 123/123/123 124/124/124
f 125/125/125 115/115/115 124/124/124
f 113/113/113 115/115/115 125/125/125
f 126/126/126 113/113/113 125/125/125
f 112/112/112 113/113/113 126/126/126
f 127/127/127 112/112/112 126/126/126
f 117/117/117 112/112/112 127/127/127
f 128/128/128 117/117/117 127/127/127
f 120/120/120 118/118/118 129/129/129
f 130/130/130 120/120/120 129/129/129
f 118/118/118 117/117/117 128/128/128
f 129/129/129 118/118/118 128/128/128
f 110/110/110 131/131/131 132/132/132
f 114/114/114 110/110/110 132/132/132
f 114/114/114 132/132/132 133/133/133
f 122/122/122 114/114/114 133/133/133
f 132/132/132 134/134/134 135/135/135
f 133/133/133 132/132/132 135/135/135
f 131/131/131 136/136/136 132/132/132
f 136/136/136 134/134/134 132/132/132
f 134/134/134 136/136/136 137/137/137
f 136/136/136 138/138/138 137/137/137
f 134/134/134 137/137/137 139/139/139
f 135/135/135 134/134/134 139/139/139
f 141/141/141 140/140/140 142/142/142
f 141/141/141 142/142/142 143/143/143
f 143/143/143 142/142/142 144/144/144
f 145/145/145 143/143/143 144/144/144
f 142/142/142 146/146/146 147/147/147
f 144/144/144 142/142/142 147/147/147
f 140/140/140 148/148/148 142/142/142
f 142/142/142 148/148/148 146/146/146
f 148/148/148 116/116/116 146/146/146
f 116/116/116 119/119/119 146/146/146
f 146/146/146 119/119/119 121/121/121
f 147/147/147 146/146/146 121/121/121
f 150/150/150 149/149/149 151/151/151
f 152/152/152 150/150/150 151/151/151
f 153/153/153 150/150/150 152/152/152
f 154/154/154 153/153/153 152/152/152
f 155/155/155 153/153/153 154/154/154
f 156/156/156 155/155/155 154/154/154
f 158/158/158 157/157/157 159/159/159
f 160/160/160 158/158/158 159/159/159
f 157/157/157 161/161/161 162/162/162
f 159/159/159 157/157/157 162/162/162
f 164/164/164 163/163/163 165/165/165
f 166/166/166 164/164/164 165/165/165
f 163/163/163 167/167/167 168/168/168
f 165/165/165 163/163/163 168/168/168
f 167/167/167 169/169/169 170/170/170
f 168/168/168 167/167/167 170/170/170
f 172/172/172 171/171/171 173/173/173
f 172/172/172 173/173/173 174/174/174
f 172/172/172 174/174/174 175/175/175
f 176/176/176 172/172/172 175/175/175
f 177/177/177 171/171/171 178/178/178
f 171/171/171 172/172/172 178/178/178
f 178/178/178 172/172/172 176/176/176
f 179/179/179 178/178/178 176/176/176
f 180/180/180 177/177/177 178/178/178
f 181/181/181 180/180/180 178/178/178
f 181/181/181 178/178/178 179/179/179
f 182/182/182 181/181/181 179/179/179
f 183/183/183 181/181/181 182/182/182
f 184/184/184 183/183/183 182/182/182
f 180/180/180 181/181/181 183/183/183
f 185/185/185 180/180/180 183/183/183
f 183/183/183 184/184/184 186/186/186
f 187/187/187 183/183/183 186/186/186
f 185/185/185 183/183/183 187/187/187
f 188/188/188 185/185/185 187/187/187
f 189/189/189 180/180/180 185/185/185
f 189/189/189 185/185/185 190/190/190
f 190/190/190 185/185/185 188/188/188
f 191/191/191 190/190/190 188/188/188
f 192/192/192 189/189/189 190/190/190
f 193/193/193 192/192/192 190/190/190
f 193/193/193 190/190/190 191/191/191
f 194/194/194 193/193/193 191/191/191
f 195/195/195 193/193/193 194/194/194
f 196/196/196 195/195/195 194/194/194
f 192/192/192 193/193/193 197/197/197
f 197/197/197 193/193/193 195/195/195
f 198/198/198 195/195/195 196/196/196
f 199/199/199 198/198/198 196/196/196
f 200/200/200 197/197/197 201/201/201
f 202/202/202 200/200/200 201/201/201
f 197/197/197 195/195/195 198/198/198
f 201/201/201 197/197/197 198/198/198
f 204/204/204 203/203/203 205/205/205
f 205/205/205 203/203/203 200/200/200
f 203/203/203 192/192/192 200/200/200
f 192/192/192 197/197/197 200/200/200
f 205/205/205 200/200/200 202/202/202
f 206/206/206 205/205/205 202/202/202
f 207/207/207 205/205/205 206/206/206
f 208/208/208 207/207/207 206/206/206
f 209/209/209 204/204/204 207/207/207
f 204/204/204 205/205/205 207/207/207
f 211/211/211 210/210/210 212/212/212
f 213/213/213 211/211/211 212/212/212
f 214/214/214 211/211/211 213/213/213
f 215/215/215 214/214/214 213/213/213
f 216/216/216 214/214/214 215/215/215
f 217/217/217 216/216/216 215/215/215
f 219/219/219 218/218/218 220/220/220
f 221/221/221 219/219/219 220/220/220
f 218/218/218 222/222/222 223/223/223
f 220/220/220 218/218/218 223/223/223
f 225/225/225 224/224/224 226/226/226
f 227/227/227 225/225/225 226/226/226
f 224/224/224 228/228/228 229/229/229
f 226/226/226 224/224/224 229/229/229
f 228/228/228 230/230/230 231/231/231
f 229/229/229 228/228/228 231/231/231
f 233/233/233 232/232/232 234/234/234
f 233/233/233 234/234/234 235/235/235
f 233/233/233 235/235/235 236/236/236
f 237/237/237 233/233/233 236/236/236
f 238/238/238 233/233/233 237/237/237
f 239/239/239 238/238/238 237/237/237
f 241/241/241 240/240/240 238/238/238
f 242/242/242 241/241/241 238/238/238
f 242/242/242 238/238/238 239/239/239
f 243/243/243 242/242/242 239/239/239
f 240/240/240 232/232/232 238/238/238
f 232/232/232 233/233/233 238/238/238
f 244/244/244 242/242/242 243/243/243
f 245/245/245 244/244/244 243/243/243
f 244/244/244 245/245/245 246/246/246
f 247/247/247 244/244/244 246/246/246
f 248/248/248 244/244/244 247/247/247
f 249/249/249 248/248/248 247/247/247
f 241/241/241 242/242/242 244/244/244
f 248/248/248 241/241/241 244/244/244
f 250/250/250 241/241/241 248/248/248
f 250/250/250 248/248/248 251/251/251
f 251/251/251 248/248/248 249/249/249
f 252/252/252 251/251/251 249/249/249
f 253/253/253 251/251/251 252/252/252
f 254/254/254 253/253/253 252/252/252
f 255/255/255 253/253/253 256/256/256
f 257/257/257 255/255/255 256/256/256
f 255/255/255 250/250/250 251/251/251
f 253/253/253 255/255/255 251/251/251
f 256/256/256 253/253/253 254/254/254
f 258/258/258 256/256/256 254/254/254
f 259/259/259 256/256/256 258/258/258
f 260/260/260 259/259/259 258/258/258
f 257/257/257 256/256/256 259/259/259
f 261/261/261 257/257/257 259/259/259
f 262/262/262 257/257/257 261/261/261
f 263/263/263 262/262/262 261/261/261
f 264/264/264 255/255/255 262/262/262
f 255/255/255 257/257/257 262/262/262
f 265/265/265 264/264/264 262/262/262
f 266/266/266 265/265/265 262/262/262
f 266/266/266 262/262/262 263/263/263
f 267/267/267 266/266/266 263/263/263
f 268/268/268 266/266/266 267/267/267
f 269/269/269 268/268/268 267/267/267
f 270/270/270 265/265/265 268/268/268
f 265/265/265 266/266/266 268/268/268
f 272/272/272 271/271/271 273/273/273
f 274/274/274 272/272/272 273/273/273
f 275/275/275 272/272/272 274/274/274
f 276/276/276 275/275/275 274/274/274
f 277/277/277 275/275/275 276/276/276
f 278/278/278 277/277/277 276/276/276
f 280/280/280 279/279/279 281/281/281
f 282/282/282 280/280/280 281/281/281
f 279/279/279 283/283/283 284/284/284
f 281/281/281 279/279/279 284/284/284
f 286/286/286 285/285/285 287/287/287
f 288/288/288 286/286/286 287/287/287
f 285/285/285 289/289/289 290/290/290
f 287/287/287 285/285/285 290/290/290
f 289/289/289 291/291/291 292/292/292
f 290/290/290 289/289/289 292/292/292
f 294/294/294 293/293/293 295/295/295
f 296/296/296 294/294/294 295/295/295
f 293/293/293 297/297/297 298/298/298
f 295/295/295 293/293/293 298/298/298
f 300/300/300 299/299/299 301/301/301
f 302/302/302 300/300/300 301/301/301
f 303/303/303 300/300/300 302/302/302
f 304/304/304 303/303/303 302/302/302
f 306/306/306 305/305/305 307/307/307
f 308/308/308 306/306/306 307/307/307
f 305/305/305 309/309/309 310/310/310
f 307/307/307 305/305/305 310/310/310
f 312/312/312 311/311/311 313/313/313
f 314/314/314 312/312/312 313/313/313
f 311/311/311 315/315/315 316/316/316
f 313/313/313 311/311/311 316/316/316
