mtllib ./BlockWall_5x2x2.mtl
g pb-Cube-442196
v 1 0 2.5
v -1 0 2.5
v 1 2 2.5
v -1 2 2.5
v -1 0 -2.5
v 1 0 -2.5
v -1 2 -2.5
v 1 2 -2.5
v -1 0 2.5
v -1 0 -2.5
v -1 2 2.5
v -1 2 -2.5
v 1 0 -2.5
v 1 0 2.5
v 1 2 -2.5
v 1 2 2.5
v 1 2 2.5
v -1 2 2.5
v 1 2 -2.5
v -1 2 -2.5

vn 0 0 1
vn 0 0 1
vn 0 0 1
vn 0 0 1
vn 0 0 -1
vn 0 0 -1
vn 0 0 -1
vn 0 0 -1
vn -1 0 0
vn -1 0 0
vn -1 0 0
vn -1 0 0
vn 1 0 0
vn 1 0 0
vn 1 0 0
vn 1 0 0
vn 0 1 0
vn 0 1 0
vn 0 1 0
vn 0 1 0

vt 0.9983774 -1.490116E-08
vt 0.5983773 -1.490116E-08
vt 0.9983774 0.4
vt 0.5983773 0.4
vt 0.3986014 0
vt -0.001398608 0
vt 0.3986014 0.4
vt -0.001398608 0.4
vt 1 0
vt 0 0
vt 1 0.4
vt 0 0.4
vt 1 0
vt 0 0
vt 1 0.4
vt 0 0.4
vt 2.980232E-08 0.4
vt 2.980232E-08 0.8
vt 1 0.4
vt 1 0.8

g Default_Prototype 2
usemtl Default_Prototype 2
usemap Default_Prototype 2
f 2/2/2 1/1/1 3/3/3
f 4/4/4 2/2/2 3/3/3
f 6/6/6 5/5/5 7/7/7
f 8/8/8 6/6/6 7/7/7

g Default_Prototype
usemtl Default_Prototype
usemap Default_Prototype
f 10/10/10 9/9/9 11/11/11
f 12/12/12 10/10/10 11/11/11
f 14/14/14 13/13/13 15/15/15
f 16/16/16 14/14/14 15/15/15
f 18/18/18 17/17/17 19/19/19
f 20/20/20 18/18/18 19/19/19
