mtllib ./BanisterTop1.mtl
g Bannister1_5
v 2.5 0 0.15
v -2.5 0 0.15
v 2.5 0.1 0.1582969
v -2.5 0.1 0.1582969
v -2.5 0 -0.15
v 2.5 0 -0.15
v -2.5 0.1 -0.1417031
v 2.5 0.1 -0.1417031
v 2.5 0.1555789 0.06216402
v -2.5 0.1555789 0.06216402
v 2.5 0.1555789 -0.04557015
v -2.5 0.1555789 -0.04557015
v 2.5 0 -0.15
v -2.5 0 -0.15
v 2.5 0 0.15
v -2.5 0 0.15
v 2.5 0.1 0.1582969
v -2.5 0.1 0.1582969
v 2.5 0.1278834 0.06216402
v -2.5 0.1278834 0.06216402
v -2.5 0.1 -0.1417031
v 2.5 0.1 -0.1417031
v -2.5 0.1278834 -0.04557015
v 2.5 0.1278834 -0.04557015
v 2.5 0.1278834 0.06216402
v -2.5 0.1278834 0.06216402
v 2.5 0.1555789 0.06216402
v -2.5 0.1555789 0.06216402
v 2.5 0.1278834 -0.04557015
v 2.5 0.1278834 0.06216402
v 2.5 0.1555789 -0.04557015
v 2.5 0.1555789 0.06216402
v -2.5 0.1278834 0.06216402
v -2.5 0.1278834 -0.04557015
v -2.5 0.1555789 0.06216402
v -2.5 0.1555789 -0.04557015
v -2.5 0.1278834 -0.04557015
v 2.5 0.1278834 -0.04557015
v -2.5 0.1555789 -0.04557015
v 2.5 0.1555789 -0.04557015
v -2.5 0.1 0.1582969
v -2.5 0.1 -0.1417031
v -2.5 0.1278834 0.06216402
v -2.5 0.1278834 -0.04557015
v -2.5 0 0.15
v -2.5 0 -0.15
v 2.5 0 -0.15
v 2.5 0 0.15
v 2.5 0.1 -0.1417031
v 2.5 0.1 0.1582969
v 2.5 0.1278834 -0.04557015
v 2.5 0.1278834 0.06216402

vn 0 -0.08268526 0.9965758
vn 0 -0.08268526 0.9965758
vn 0 -0.08268526 0.9965758
vn 0 -0.08268526 0.9965758
vn 0 0.08268526 -0.9965758
vn 0 0.08268526 -0.9965758
vn 0 0.08268526 -0.9965758
vn 0 0.08268526 -0.9965758
vn 0 1 0
vn 0 1 0
vn 0 1 0
vn 0 1 0
vn 0 -1 0
vn 0 -1 0
vn 0 -1 0
vn 0 -1 0
vn 0 0.9604161 0.2785692
vn 0 0.9604161 0.2785692
vn 0 0.9604161 0.2785692
vn 0 0.9604161 0.2785692
vn 0 0.9604161 -0.2785692
vn 0 0.9604161 -0.2785692
vn 0 0.9604161 -0.2785692
vn 0 0.9604161 -0.2785692
vn 0 0 1
vn 0 0 1
vn 0 0 1
vn 0 0 1
vn 0.9999999 0 0
vn 0.9999999 0 0
vn 0.9999999 0 0
vn 0.9999999 0 0
vn -0.9999999 0 0
vn -0.9999999 0 0
vn -0.9999999 0 0
vn -0.9999999 0 0
vn 0 0 -1
vn 0 0 -1
vn 0 0 -1
vn 0 0 -1
vn -1 0 0
vn -1 0 0
vn -1 0 0
vn -0.9999999 0 0
vn -1 0 0
vn -1 0 0
vn 1 0 0
vn 1 0 0
vn 1 0 0
vn 1 0 0
vn 1 0 0
vn 0.9999999 0 0

vt 0 0.0727128
vt 1 0.07271272
vt 0 0.05264409
vt 1 0.05264399
vt 1 0.1327128
vt 0 0.1327128
vt 1 0.1527815
vt 0 0.1527815
vt 0 0.02708594
vt 1 0.02708594
vt 0 0.005539107
vt 1 0.005539107
vt 0 0.1327128
vt 1 0.1327127
vt 0 0.0727128
vt 1 0.07271272
vt 0 0.05264404
vt 1 0.05264404
vt 0 0.03262503
vt 1 0.03262503
vt 1 0.1527815
vt 0 0.1527815
vt 1 0.1728005
vt 0 0.1728005
vt 0 0.03262508
vt 1 0.03262498
vt 0 0.02708598
vt 1 0.02708589
vt 0.9944921 0.2722974
vt 0.9944921 0.2938443
vt 1.000031 0.2722974
vt 1.000031 0.2938443
vt 0.005461593 0.2755909
vt 0.005461593 0.2540441
vt -7.754122E-05 0.2755909
vt -7.754122E-05 0.2540441
vt 1 0
vt 0 0
vt 1 0.005539107
vt 0 0.005539107
vt 0.01996602 0.1868123
vt 0.01996602 0.2468123
vt 0.02554273 0.2060389
vt 0.02554273 0.2275857
vt -3.404822E-05 0.1884717
vt -3.404822E-05 0.2484717
vt 1.000029 0.2611693
vt 1.000029 0.2011693
vt 0.9800287 0.2595099
vt 0.9800287 0.1995099
vt 0.974452 0.2402833
vt 0.974452 0.2187365

g Default_Prototype
usemtl Default_Prototype
usemap Default_Prototype
f 2/2/2 1/1/1 3/3/3
f 4/4/4 2/2/2 3/3/3
f 6/6/6 5/5/5 7/7/7
f 8/8/8 6/6/6 7/7/7
f 10/10/10 9/9/9 11/11/11
f 12/12/12 10/10/10 11/11/11
f 14/14/14 13/13/13 15/15/15
f 16/16/16 14/14/14 15/15/15
f 18/18/18 17/17/17 19/19/19
f 20/20/20 18/18/18 19/19/19
f 22/22/22 21/21/21 23/23/23
f 24/24/24 22/22/22 23/23/23
f 26/26/26 25/25/25 27/27/27
f 28/28/28 26/26/26 27/27/27
f 30/30/30 29/29/29 31/31/31
f 32/32/32 30/30/30 31/31/31
f 34/34/34 33/33/33 35/35/35
f 36/36/36 34/34/34 35/35/35
f 38/38/38 37/37/37 39/39/39
f 40/40/40 38/38/38 39/39/39
f 42/42/42 41/41/41 43/43/43
f 44/44/44 42/42/42 43/43/43
f 46/46/46 45/45/45 41/41/41
f 42/42/42 46/46/46 41/41/41
f 48/48/48 47/47/47 49/49/49
f 50/50/50 48/48/48 49/49/49
f 50/50/50 49/49/49 51/51/51
f 52/52/52 50/50/50 51/51/51
