mtllib ./BannisterFull1_4.mtl
g BanniserFull1_4
v 0.3599999 0 4.656613E-09
v 0.4271998 0.634882 4.656613E-10
v 0.3787563 0 0.07000001
v 0.4369532 0.634882 0.03640001
v 0.3787563 0 0.07000001
v 0.4369532 0.634882 0.03640001
v 0.4299999 0 0.1212436
v 0.4635999 0.634882 0.06304666
v 0.4299999 0 0.1212436
v 0.4635999 0.634882 0.06304666
v 0.4999999 0 0.14
v 0.4999999 0.634882 0.07280003
v 0.4999999 0 0.14
v 0.4999999 0.634882 0.07280003
v 0.5699998 0 0.1212436
v 0.5364 0.634882 0.06304666
v 0.5699998 0 0.1212436
v 0.5364 0.634882 0.06304666
v 0.6212434 0 0.07000001
v 0.5630466 0.634882 0.03640001
v 0.6212434 0 0.07000001
v 0.5630466 0.634882 0.03640001
v 0.6399999 0 -7.916242E-09
v 0.5727999 0.634882 -5.587935E-09
v 0.6399999 0 -7.916242E-09
v 0.5727999 0.634882 -5.587935E-09
v 0.6212434 0 -0.06999999
v 0.5630466 0.634882 -0.0364
v 0.6212434 0 -0.06999999
v 0.5630466 0.634882 -0.0364
v 0.5699998 0 -0.1212436
v 0.5364 0.634882 -0.06304666
v 0.5699998 0 -0.1212436
v 0.5364 0.634882 -0.06304666
v 0.4999999 0 -0.14
v 0.4999999 0.634882 -0.07280001
v 0.4999999 0 -0.14
v 0.4999999 0.634882 -0.07280001
v 0.4299999 0 -0.1212436
v 0.4635999 0.634882 -0.06304666
v 0.4299999 0 -0.1212436
v 0.4635999 0.634882 -0.06304666
v 0.3787563 0 -0.07000002
v 0.4369532 0.634882 -0.03640002
v 0.3787563 0 -0.07000002
v 0.4369532 0.634882 -0.03640002
v 0.3599999 0 4.656613E-09
v 0.4271998 0.634882 4.656613E-10
v 0.4271998 0.634882 4.656613E-10
v 0.3991998 1 2.328306E-09
v 0.4369532 0.634882 0.03640001
v 0.4127045 1 0.0504
v 0.4369532 0.634882 0.03640001
v 0.4127045 1 0.0504
v 0.4635999 0.634882 0.06304666
v 0.4495999 1 0.08729537
v 0.4635999 0.634882 0.06304666
v 0.4495999 1 0.08729537
v 0.4999999 0.634882 0.07280003
v 0.4999999 1 0.1008
v 0.4999999 0.634882 0.07280003
v 0.4999999 1 0.1008
v 0.5364 0.634882 0.06304666
v 0.5503999 1 0.08729537
v 0.5364 0.634882 0.06304666
v 0.5503999 1 0.08729537
v 0.5630466 0.634882 0.03640001
v 0.5872952 1 0.05040001
v 0.5630466 0.634882 0.03640001
v 0.5872952 1 0.05040001
v 0.5727999 0.634882 -5.587935E-09
v 0.6007999 1 -6.519258E-09
v 0.5727999 0.634882 -5.587935E-09
v 0.6007999 1 -6.519258E-09
v 0.5630466 0.634882 -0.0364
v 0.5872952 1 -0.0504
v 0.5630466 0.634882 -0.0364
v 0.5872952 1 -0.0504
v 0.5364 0.634882 -0.06304666
v 0.5503999 1 -0.08729537
v 0.5364 0.634882 -0.06304666
v 0.5503999 1 -0.08729537
v 0.4999999 0.634882 -0.07280001
v 0.4999999 1 -0.1008
v 0.4999999 0.634882 -0.07280001
v 0.4999999 1 -0.1008
v 0.4635999 0.634882 -0.06304666
v 0.4495999 1 -0.08729537
v 0.4635999 0.634882 -0.06304666
v 0.4495999 1 -0.08729537
v 0.4369532 0.634882 -0.03640002
v 0.4127046 1 -0.05040001
v 0.4369532 0.634882 -0.03640002
v 0.4127046 1 -0.05040001
v 0.4271998 0.634882 4.656613E-10
v 0.3991998 1 2.328306E-09
v 1.36 0 4.656613E-09
v 1.4272 0.634882 4.656613E-10
v 1.378756 0 0.07000001
v 1.436953 0.634882 0.03640001
v 1.378756 0 0.07000001
v 1.436953 0.634882 0.03640001
v 1.43 0 0.1212436
v 1.4636 0.634882 0.06304666
v 1.43 0 0.1212436
v 1.4636 0.634882 0.06304666
v 1.5 0 0.14
v 1.5 0.634882 0.07280003
v 1.5 0 0.14
v 1.5 0.634882 0.07280003
v 1.57 0 0.1212436
v 1.5364 0.634882 0.06304666
v 1.57 0 0.1212436
v 1.5364 0.634882 0.06304666
v 1.621243 0 0.07000001
v 1.563047 0.634882 0.03640001
v 1.621243 0 0.07000001
v 1.563047 0.634882 0.03640001
v 1.64 0 -7.916242E-09
v 1.5728 0.634882 -5.587935E-09
v 1.64 0 -7.916242E-09
v 1.5728 0.634882 -5.587935E-09
v 1.621243 0 -0.06999999
v 1.563047 0.634882 -0.0364
v 1.621243 0 -0.06999999
v 1.563047 0.634882 -0.0364
v 1.57 0 -0.1212436
v 1.5364 0.634882 -0.06304666
v 1.57 0 -0.1212436
v 1.5364 0.634882 -0.06304666
v 1.5 0 -0.14
v 1.5 0.634882 -0.07280001
v 1.5 0 -0.14
v 1.5 0.634882 -0.07280001
v 1.43 0 -0.1212436
v 1.4636 0.634882 -0.06304666
v 1.43 0 -0.1212436
v 1.4636 0.634882 -0.06304666
v 1.378756 0 -0.07000002
v 1.436953 0.634882 -0.03640002
v 1.378756 0 -0.07000002
v 1.436953 0.634882 -0.03640002
v 1.36 0 4.656613E-09
v 1.4272 0.634882 4.656613E-10
v 1.4272 0.634882 4.656613E-10
v 1.3992 1 2.328306E-09
v 1.436953 0.634882 0.03640001
v 1.412705 1 0.0504
v 1.436953 0.634882 0.03640001
v 1.412705 1 0.0504
v 1.4636 0.634882 0.06304666
v 1.4496 1 0.08729537
v 1.4636 0.634882 0.06304666
v 1.4496 1 0.08729537
v 1.5 0.634882 0.07280003
v 1.5 1 0.1008
v 1.5 0.634882 0.07280003
v 1.5 1 0.1008
v 1.5364 0.634882 0.06304666
v 1.5504 1 0.08729537
v 1.5364 0.634882 0.06304666
v 1.5504 1 0.08729537
v 1.563047 0.634882 0.03640001
v 1.587295 1 0.05040001
v 1.563047 0.634882 0.03640001
v 1.587295 1 0.05040001
v 1.5728 0.634882 -5.587935E-09
v 1.6008 1 -6.519258E-09
v 1.5728 0.634882 -5.587935E-09
v 1.6008 1 -6.519258E-09
v 1.563047 0.634882 -0.0364
v 1.587295 1 -0.0504
v 1.563047 0.634882 -0.0364
v 1.587295 1 -0.0504
v 1.5364 0.634882 -0.06304666
v 1.5504 1 -0.08729537
v 1.5364 0.634882 -0.06304666
v 1.5504 1 -0.08729537
v 1.5 0.634882 -0.07280001
v 1.5 1 -0.1008
v 1.5 0.634882 -0.07280001
v 1.5 1 -0.1008
v 1.4636 0.634882 -0.06304666
v 1.4496 1 -0.08729537
v 1.4636 0.634882 -0.06304666
v 1.4496 1 -0.08729537
v 1.436953 0.634882 -0.03640002
v 1.412705 1 -0.05040001
v 1.436953 0.634882 -0.03640002
v 1.412705 1 -0.05040001
v 1.4272 0.634882 4.656613E-10
v 1.3992 1 2.328306E-09
v -0.6400002 0 4.656613E-09
v -0.5728 0.634882 4.656613E-10
v -0.6212436 0 0.07000001
v -0.5630468 0.634882 0.03640001
v -0.6212436 0 0.07000001
v -0.5630468 0.634882 0.03640001
v -0.5700001 0 0.1212436
v -0.5364002 0.634882 0.06304666
v -0.5700001 0 0.1212436
v -0.5364002 0.634882 0.06304666
v -0.5000001 0 0.14
v -0.5000001 0.634882 0.07280003
v -0.5000001 0 0.14
v -0.5000001 0.634882 0.07280003
v -0.4300001 0 0.1212436
v -0.4636002 0.634882 0.06304666
v -0.4300001 0 0.1212436
v -0.4636002 0.634882 0.06304666
v -0.3787565 0 0.07000001
v -0.4369534 0.634882 0.03640001
v -0.3787565 0 0.07000001
v -0.4369534 0.634882 0.03640001
v -0.3600001 0 -7.916242E-09
v -0.4272001 0.634882 -5.587935E-09
v -0.3600001 0 -7.916242E-09
v -0.4272001 0.634882 -5.587935E-09
v -0.3787565 0 -0.06999999
v -0.4369534 0.634882 -0.0364
v -0.3787565 0 -0.06999999
v -0.4369534 0.634882 -0.0364
v -0.4300002 0 -0.1212436
v -0.4636002 0.634882 -0.06304666
v -0.4300002 0 -0.1212436
v -0.4636002 0.634882 -0.06304666
v -0.5000001 0 -0.14
v -0.5000001 0.634882 -0.07280001
v -0.5000001 0 -0.14
v -0.5000001 0.634882 -0.07280001
v -0.5700001 0 -0.1212436
v -0.5364002 0.634882 -0.06304666
v -0.5700001 0 -0.1212436
v -0.5364002 0.634882 -0.06304666
v -0.6212436 0 -0.07000002
v -0.5630468 0.634882 -0.03640002
v -0.6212436 0 -0.07000002
v -0.5630468 0.634882 -0.03640002
v -0.6400002 0 4.656613E-09
v -0.5728 0.634882 4.656613E-10
v -0.5728 0.634882 4.656613E-10
v -0.6008002 1 2.328306E-09
v -0.5630468 0.634882 0.03640001
v -0.5872954 1 0.0504
v -0.5630468 0.634882 0.03640001
v -0.5872954 1 0.0504
v -0.5364002 0.634882 0.06304666
v -0.5504001 1 0.08729537
v -0.5364002 0.634882 0.06304666
v -0.5504001 1 0.08729537
v -0.5000001 0.634882 0.07280003
v -0.5000001 1 0.1008
v -0.5000001 0.634882 0.07280003
v -0.5000001 1 0.1008
v -0.4636002 0.634882 0.06304666
v -0.4496001 1 0.08729537
v -0.4636002 0.634882 0.06304666
v -0.4496001 1 0.08729537
v -0.4369534 0.634882 0.03640001
v -0.4127047 1 0.05040001
v -0.4369534 0.634882 0.03640001
v -0.4127047 1 0.05040001
v -0.4272001 0.634882 -5.587935E-09
v -0.3992001 1 -6.519258E-09
v -0.4272001 0.634882 -5.587935E-09
v -0.3992001 1 -6.519258E-09
v -0.4369534 0.634882 -0.0364
v -0.4127047 1 -0.0504
v -0.4369534 0.634882 -0.0364
v -0.4127047 1 -0.0504
v -0.4636002 0.634882 -0.06304666
v -0.4496001 1 -0.08729537
v -0.4636002 0.634882 -0.06304666
v -0.4496001 1 -0.08729537
v -0.5000001 0.634882 -0.07280001
v -0.5000001 1 -0.1008
v -0.5000001 0.634882 -0.07280001
v -0.5000001 1 -0.1008
v -0.5364002 0.634882 -0.06304666
v -0.5504001 1 -0.08729537
v -0.5364002 0.634882 -0.06304666
v -0.5504001 1 -0.08729537
v -0.5630468 0.634882 -0.03640002
v -0.5872954 1 -0.05040001
v -0.5630468 0.634882 -0.03640002
v -0.5872954 1 -0.05040001
v -0.5728 0.634882 4.656613E-10
v -0.6008002 1 2.328306E-09
v 2 1 0.1417033
v -2 1 0.1417033
v 2 1.1 0.1500002
v -2 1.1 0.1500002
v -2 1 -0.1582967
v 2 1 -0.1582967
v -2 1.1 -0.1499998
v 2 1.1 -0.1499998
v 2 1.155579 0.05386733
v -2 1.155579 0.05386733
v 2 1.155579 -0.05386684
v -2 1.155579 -0.05386684
v 2 1 -0.1582967
v -2 1 -0.1582967
v 2 1 0.1417033
v -2 1 0.1417033
v 2 1.1 0.1500002
v -2 1.1 0.1500002
v 2 1.127883 0.05386733
v -2 1.127883 0.05386733
v -2 1.1 -0.1499998
v 2 1.1 -0.1499998
v -2 1.127883 -0.05386684
v 2 1.127883 -0.05386684
v 2 1.127883 0.05386733
v -2 1.127883 0.05386733
v 2 1.155579 0.05386733
v -2 1.155579 0.05386733
v 2 1.127883 -0.05386684
v 2 1.127883 0.05386733
v 2 1.155579 -0.05386684
v 2 1.155579 0.05386733
v -2 1.127883 0.05386733
v -2 1.127883 -0.05386684
v -2 1.155579 0.05386733
v -2 1.155579 -0.05386684
v -2 1.127883 -0.05386684
v 2 1.127883 -0.05386684
v -2 1.155579 -0.05386684
v 2 1.155579 -0.05386684
v -2 1.1 0.1500002
v -2 1.1 -0.1499998
v -2 1.127883 0.05386733
v -2 1.127883 -0.05386684
v -2 1 0.1417033
v -2 1 -0.1582967
v 2 1 -0.1582967
v 2 1 0.1417033
v 2 1.1 -0.1499998
v 2 1.1 0.1500002
v 2 1.127883 -0.05386684
v 2 1.127883 0.05386733
v -1.64 0 4.656613E-09
v -1.5728 0.634882 4.656613E-10
v -1.621244 0 0.07000001
v -1.563047 0.634882 0.03640001
v -1.621244 0 0.07000001
v -1.563047 0.634882 0.03640001
v -1.57 0 0.1212436
v -1.5364 0.634882 0.06304666
v -1.57 0 0.1212436
v -1.5364 0.634882 0.06304666
v -1.5 0 0.14
v -1.5 0.634882 0.07280003
v -1.5 0 0.14
v -1.5 0.634882 0.07280003
v -1.43 0 0.1212436
v -1.4636 0.634882 0.06304666
v -1.43 0 0.1212436
v -1.4636 0.634882 0.06304666
v -1.378757 0 0.07000001
v -1.436953 0.634882 0.03640001
v -1.378757 0 0.07000001
v -1.436953 0.634882 0.03640001
v -1.36 0 -7.916242E-09
v -1.4272 0.634882 -5.587935E-09
v -1.36 0 -7.916242E-09
v -1.4272 0.634882 -5.587935E-09
v -1.378757 0 -0.06999999
v -1.436953 0.634882 -0.0364
v -1.378757 0 -0.06999999
v -1.436953 0.634882 -0.0364
v -1.43 0 -0.1212436
v -1.4636 0.634882 -0.06304666
v -1.43 0 -0.1212436
v -1.4636 0.634882 -0.06304666
v -1.5 0 -0.14
v -1.5 0.634882 -0.07280001
v -1.5 0 -0.14
v -1.5 0.634882 -0.07280001
v -1.57 0 -0.1212436
v -1.5364 0.634882 -0.06304666
v -1.57 0 -0.1212436
v -1.5364 0.634882 -0.06304666
v -1.621244 0 -0.07000002
v -1.563047 0.634882 -0.03640002
v -1.621244 0 -0.07000002
v -1.563047 0.634882 -0.03640002
v -1.64 0 4.656613E-09
v -1.5728 0.634882 4.656613E-10
v -1.5728 0.634882 4.656613E-10
v -1.6008 1 2.328306E-09
v -1.563047 0.634882 0.03640001
v -1.587295 1 0.0504
v -1.563047 0.634882 0.03640001
v -1.587295 1 0.0504
v -1.5364 0.634882 0.06304666
v -1.5504 1 0.08729537
v -1.5364 0.634882 0.06304666
v -1.5504 1 0.08729537
v -1.5 0.634882 0.07280003
v -1.5 1 0.1008
v -1.5 0.634882 0.07280003
v -1.5 1 0.1008
v -1.4636 0.634882 0.06304666
v -1.4496 1 0.08729537
v -1.4636 0.634882 0.06304666
v -1.4496 1 0.08729537
v -1.436953 0.634882 0.03640001
v -1.412705 1 0.05040001
v -1.436953 0.634882 0.03640001
v -1.412705 1 0.05040001
v -1.4272 0.634882 -5.587935E-09
v -1.3992 1 -6.519258E-09
v -1.4272 0.634882 -5.587935E-09
v -1.3992 1 -6.519258E-09
v -1.436953 0.634882 -0.0364
v -1.412705 1 -0.0504
v -1.436953 0.634882 -0.0364
v -1.412705 1 -0.0504
v -1.4636 0.634882 -0.06304666
v -1.4496 1 -0.08729537
v -1.4636 0.634882 -0.06304666
v -1.4496 1 -0.08729537
v -1.5 0.634882 -0.07280001
v -1.5 1 -0.1008
v -1.5 0.634882 -0.07280001
v -1.5 1 -0.1008
v -1.5364 0.634882 -0.06304666
v -1.5504 1 -0.08729537
v -1.5364 0.634882 -0.06304666
v -1.5504 1 -0.08729537
v -1.563047 0.634882 -0.03640002
v -1.587295 1 -0.05040001
v -1.563047 0.634882 -0.03640002
v -1.587295 1 -0.05040001
v -1.5728 0.634882 4.656613E-10
v -1.6008 1 2.328306E-09

vn -0.9609168 0.1017095 0.2574761
vn -0.9609168 0.1017096 0.2574763
vn -0.9609168 0.1017096 0.2574763
vn -0.9609167 0.1017096 0.2574767
vn -0.7034391 0.1017096 0.7034405
vn -0.703439 0.1017096 0.7034407
vn -0.703439 0.1017096 0.7034407
vn -0.7034388 0.1017096 0.7034408
vn -0.257477 0.1017096 0.9609166
vn -0.2574771 0.1017096 0.9609166
vn -0.2574771 0.1017096 0.9609166
vn -0.2574774 0.1017096 0.9609165
vn 0.2574771 0.1017096 0.9609166
vn 0.257477 0.1017096 0.9609166
vn 0.257477 0.1017096 0.9609166
vn 0.2574766 0.1017095 0.9609167
vn 0.7034398 0.1017094 0.7034398
vn 0.7034401 0.1017095 0.7034397
vn 0.7034401 0.1017095 0.7034397
vn 0.7034403 0.1017095 0.7034393
vn 0.9609164 0.1017094 0.2574776
vn 0.9609165 0.1017095 0.2574773
vn 0.9609165 0.1017095 0.2574773
vn 0.9609167 0.1017095 0.2574766
vn 0.9609165 0.1017095 -0.2574777
vn 0.9609165 0.1017095 -0.2574774
vn 0.9609165 0.1017095 -0.2574774
vn 0.9609167 0.1017094 -0.2574767
vn 0.7034401 0.1017095 -0.7034397
vn 0.7034402 0.1017095 -0.7034395
vn 0.7034402 0.1017095 -0.7034395
vn 0.7034405 0.1017094 -0.7034392
vn 0.257477 0.1017095 -0.9609166
vn 0.2574767 0.1017096 -0.9609168
vn 0.2574767 0.1017096 -0.9609168
vn 0.2574762 0.1017096 -0.9609168
vn -0.257477 0.1017096 -0.9609166
vn -0.257477 0.1017096 -0.9609166
vn -0.257477 0.1017096 -0.9609166
vn -0.257477 0.1017096 -0.9609166
vn -0.7034391 0.1017096 -0.7034407
vn -0.7034389 0.1017096 -0.7034408
vn -0.7034389 0.1017096 -0.7034408
vn -0.7034386 0.1017096 -0.703441
vn -0.9609169 0.1017096 -0.2574761
vn -0.9609169 0.1017096 -0.2574763
vn -0.9609169 0.1017096 -0.2574763
vn -0.9609167 0.1017095 -0.2574766
vn -0.9632867 -0.07387207 0.2581117
vn -0.9632868 -0.07387209 0.2581117
vn -0.9632868 -0.07387209 0.2581117
vn -0.9632868 -0.07387208 0.2581116
vn -0.7051737 -0.07387204 0.7051758
vn -0.7051741 -0.07387213 0.7051753
vn -0.7051741 -0.07387213 0.7051753
vn -0.7051744 -0.07387217 0.705175
vn -0.2581124 -0.0738721 0.9632865
vn -0.2581121 -0.07387206 0.9632866
vn -0.2581121 -0.07387206 0.9632866
vn -0.2581118 -0.07387203 0.9632867
vn 0.2581117 -0.07387204 0.9632868
vn 0.2581117 -0.07387202 0.9632867
vn 0.2581117 -0.07387202 0.9632867
vn 0.2581118 -0.07387201 0.9632867
vn 0.7051752 -0.07387192 0.7051742
vn 0.7051754 -0.0738719 0.7051741
vn 0.7051754 -0.0738719 0.7051741
vn 0.7051756 -0.07387187 0.705174
vn 0.9632868 -0.07387178 0.2581117
vn 0.9632865 -0.07387193 0.2581128
vn 0.9632865 -0.07387193 0.2581128
vn 0.9632862 -0.07387203 0.2581137
vn 0.9632866 -0.07387207 -0.2581118
vn 0.9632863 -0.07387192 -0.2581129
vn 0.9632863 -0.07387192 -0.2581129
vn 0.9632862 -0.07387181 -0.2581138
vn 0.7051755 -0.07387187 -0.7051741
vn 0.7051755 -0.0738719 -0.7051739
vn 0.7051755 -0.0738719 -0.7051739
vn 0.7051757 -0.07387192 -0.7051739
vn 0.2581113 -0.073872 -0.9632869
vn 0.2581114 -0.07387201 -0.9632868
vn 0.2581114 -0.07387201 -0.9632868
vn 0.2581115 -0.07387203 -0.9632867
vn -0.258112 -0.07387203 -0.9632866
vn -0.2581117 -0.07387206 -0.9632866
vn -0.2581117 -0.07387206 -0.9632866
vn -0.2581115 -0.07387209 -0.9632867
vn -0.7051736 -0.07387221 -0.705176
vn -0.7051747 -0.07387201 -0.7051749
vn -0.7051747 -0.07387201 -0.7051749
vn -0.7051755 -0.07387187 -0.705174
vn -0.9632868 -0.07387178 -0.2581117
vn -0.9632865 -0.07387193 -0.2581128
vn -0.9632865 -0.07387193 -0.2581128
vn -0.9632862 -0.07387202 -0.2581137
vn -0.9609165 0.1017095 0.2574777
vn -0.9609166 0.1017095 0.2574773
vn -0.9609166 0.1017095 0.2574773
vn -0.9609167 0.1017094 0.2574767
vn -0.70344 0.1017095 0.7034397
vn -0.7034401 0.1017095 0.7034396
vn -0.7034401 0.1017095 0.7034396
vn -0.7034404 0.1017094 0.7034393
vn -0.257477 0.1017095 0.9609166
vn -0.2574768 0.1017096 0.9609166
vn -0.2574768 0.1017096 0.9609166
vn -0.2574766 0.1017096 0.9609167
vn 0.2574763 0.1017096 0.9609168
vn 0.257477 0.1017096 0.9609166
vn 0.257477 0.1017096 0.9609166
vn 0.2574781 0.1017097 0.9609162
vn 0.7034414 0.1017099 0.7034382
vn 0.70344 0.1017097 0.7034397
vn 0.70344 0.1017097 0.7034397
vn 0.7034371 0.1017094 0.7034425
vn 0.9609169 0.1017094 0.2574761
vn 0.9609165 0.1017093 0.2574773
vn 0.9609165 0.1017093 0.2574773
vn 0.960916 0.1017091 0.2574795
vn 0.9609168 0.1017092 -0.2574762
vn 0.9609165 0.1017093 -0.2574774
vn 0.9609165 0.1017093 -0.2574774
vn 0.9609159 0.1017095 -0.2574797
vn 0.7034401 0.1017095 -0.7034397
vn 0.7034391 0.1017096 -0.7034405
vn 0.7034391 0.1017096 -0.7034405
vn 0.7034373 0.1017098 -0.7034423
vn 0.257477 0.1017096 -0.9609166
vn 0.2574772 0.1017096 -0.9609166
vn 0.2574772 0.1017096 -0.9609166
vn 0.2574778 0.1017096 -0.9609164
vn -0.257477 0.1017096 -0.9609166
vn -0.2574767 0.1017096 -0.9609168
vn -0.2574767 0.1017096 -0.9609168
vn -0.2574762 0.1017095 -0.9609169
vn -0.7034398 0.1017095 -0.7034398
vn -0.70344 0.1017095 -0.7034397
vn -0.70344 0.1017095 -0.7034397
vn -0.7034402 0.1017095 -0.7034394
vn -0.9609164 0.1017095 -0.2574776
vn -0.9609165 0.1017095 -0.2574772
vn -0.9609165 0.1017095 -0.2574772
vn -0.9609167 0.1017095 -0.2574766
vn -0.9632867 -0.07387207 0.2581117
vn -0.9632863 -0.07387193 0.2581129
vn -0.9632863 -0.07387193 0.2581129
vn -0.9632861 -0.07387181 0.2581137
vn -0.7051753 -0.07387187 0.7051742
vn -0.7051755 -0.0738719 0.7051741
vn -0.7051755 -0.0738719 0.7051741
vn -0.7051756 -0.07387192 0.7051739
vn -0.2581117 -0.07387201 0.9632868
vn -0.2581117 -0.07387202 0.9632867
vn -0.2581117 -0.07387202 0.9632867
vn -0.2581118 -0.07387203 0.9632867
vn 0.2581132 -0.07387201 0.9632864
vn 0.2581124 -0.0738721 0.9632865
vn 0.2581124 -0.0738721 0.9632865
vn 0.2581118 -0.07387218 0.9632867
vn 0.7051721 -0.07387247 0.7051774
vn 0.7051728 -0.07387237 0.7051768
vn 0.7051728 -0.07387237 0.7051768
vn 0.7051733 -0.07387228 0.7051762
vn 0.9632859 -0.07387246 0.2581146
vn 0.9632868 -0.07387207 0.2581116
vn 0.9632868 -0.07387207 0.2581116
vn 0.9632873 -0.0738718 0.2581094
vn 0.9632859 -0.0738717 -0.2581148
vn 0.9632868 -0.07387208 -0.2581117
vn 0.9632868 -0.07387208 -0.2581117
vn 0.9632873 -0.07387236 -0.2581095
vn 0.7051722 -0.07387224 -0.7051773
vn 0.7051729 -0.07387236 -0.7051766
vn 0.7051729 -0.07387236 -0.7051766
vn 0.7051734 -0.07387243 -0.7051761
vn 0.2581128 -0.0738722 -0.9632865
vn 0.258112 -0.0738721 -0.9632866
vn 0.258112 -0.0738721 -0.9632866
vn 0.2581115 -0.07387203 -0.9632867
vn -0.2581113 -0.07387204 -0.9632869
vn -0.2581114 -0.07387202 -0.9632868
vn -0.2581114 -0.07387202 -0.9632868
vn -0.2581115 -0.073872 -0.9632867
vn -0.7051751 -0.07387193 -0.7051743
vn -0.7051754 -0.0738719 -0.7051741
vn -0.7051754 -0.0738719 -0.7051741
vn -0.7051755 -0.07387187 -0.705174
vn -0.9632868 -0.07387178 -0.2581117
vn -0.9632865 -0.07387193 -0.2581128
vn -0.9632865 -0.07387193 -0.2581128
vn -0.9632862 -0.07387202 -0.2581137
vn -0.9609159 0.1017098 0.2574792
vn -0.9609166 0.1017097 0.2574773
vn -0.9609166 0.1017097 0.2574773
vn -0.9609175 0.1017093 0.2574738
vn -0.70344 0.1017095 0.7034397
vn -0.7034401 0.1017095 0.7034396
vn -0.7034401 0.1017095 0.7034396
vn -0.7034404 0.1017094 0.7034393
vn -0.257477 0.1017095 0.9609166
vn -0.2574768 0.1017096 0.9609166
vn -0.2574768 0.1017096 0.9609166
vn -0.2574766 0.1017096 0.9609167
vn 0.2574767 0.1017096 0.9609166
vn 0.257477 0.1017096 0.9609166
vn 0.257477 0.1017096 0.9609166
vn 0.2574774 0.1017096 0.9609165
vn 0.7034398 0.1017097 0.7034398
vn 0.7034395 0.1017096 0.7034402
vn 0.7034395 0.1017096 0.7034402
vn 0.7034387 0.1017096 0.7034409
vn 0.9609169 0.1017096 0.2574761
vn 0.9609168 0.1017096 0.2574763
vn 0.9609168 0.1017096 0.2574763
vn 0.9609167 0.1017095 0.2574766
vn 0.9609168 0.1017095 -0.2574762
vn 0.9609168 0.1017096 -0.2574764
vn 0.9609168 0.1017096 -0.2574764
vn 0.9609167 0.1017096 -0.2574767
vn 0.7034392 0.1017096 -0.7034405
vn 0.7034391 0.1017096 -0.7034405
vn 0.7034391 0.1017096 -0.7034405
vn 0.7034389 0.1017096 -0.7034408
vn 0.257477 0.1017096 -0.9609166
vn 0.257477 0.1017096 -0.9609166
vn 0.257477 0.1017096 -0.9609166
vn 0.257477 0.1017096 -0.9609166
vn -0.257477 0.1017096 -0.9609166
vn -0.2574767 0.1017096 -0.9609168
vn -0.2574767 0.1017096 -0.9609168
vn -0.2574762 0.1017095 -0.9609169
vn -0.7034398 0.1017095 -0.7034398
vn -0.70344 0.1017095 -0.7034397
vn -0.70344 0.1017095 -0.7034397
vn -0.7034402 0.1017095 -0.7034394
vn -0.9609161 0.1017095 -0.2574791
vn -0.9609165 0.1017097 -0.2574773
vn -0.9609165 0.1017097 -0.2574773
vn -0.9609175 0.10171 -0.2574737
vn -0.9632875 -0.07387245 0.2581088
vn -0.9632868 -0.07387209 0.2581117
vn -0.9632868 -0.07387209 0.2581117
vn -0.9632861 -0.07387181 0.2581137
vn -0.7051753 -0.07387187 0.7051742
vn -0.7051755 -0.0738719 0.7051741
vn -0.7051755 -0.0738719 0.7051741
vn -0.7051756 -0.07387192 0.7051739
vn -0.2581117 -0.07387201 0.9632868
vn -0.2581117 -0.07387202 0.9632867
vn -0.2581117 -0.07387202 0.9632867
vn -0.2581118 -0.07387203 0.9632867
vn 0.2581124 -0.07387201 0.9632865
vn 0.2581121 -0.07387206 0.9632866
vn 0.2581121 -0.07387206 0.9632866
vn 0.2581118 -0.0738721 0.9632867
vn 0.7051737 -0.0738722 0.7051758
vn 0.7051741 -0.07387213 0.7051755
vn 0.7051741 -0.07387213 0.7051755
vn 0.7051744 -0.07387207 0.705175
vn 0.9632866 -0.07387208 0.2581116
vn 0.9632868 -0.07387207 0.2581116
vn 0.9632868 -0.07387207 0.2581116
vn 0.9632868 -0.07387207 0.2581115
vn 0.9632866 -0.07387207 -0.2581118
vn 0.9632868 -0.07387208 -0.2581117
vn 0.9632868 -0.07387208 -0.2581117
vn 0.9632868 -0.07387209 -0.2581117
vn 0.7051738 -0.07387204 -0.7051757
vn 0.7051743 -0.07387213 -0.7051753
vn 0.7051743 -0.07387213 -0.7051753
vn 0.7051746 -0.07387218 -0.705175
vn 0.258112 -0.0738721 -0.9632866
vn 0.2581117 -0.07387206 -0.9632866
vn 0.2581117 -0.07387206 -0.9632866
vn 0.2581115 -0.07387203 -0.9632867
vn -0.2581113 -0.07387204 -0.9632869
vn -0.2581114 -0.07387202 -0.9632868
vn -0.2581114 -0.07387202 -0.9632868
vn -0.2581115 -0.073872 -0.9632867
vn -0.7051751 -0.07387193 -0.7051743
vn -0.7051754 -0.0738719 -0.7051741
vn -0.7051754 -0.0738719 -0.7051741
vn -0.7051755 -0.07387187 -0.705174
vn -0.9632875 -0.07387171 -0.2581087
vn -0.9632868 -0.07387207 -0.2581116
vn -0.9632868 -0.07387207 -0.2581116
vn -0.9632862 -0.07387234 -0.2581137
vn 0 -0.08268494 0.9965758
vn 0 -0.08268494 0.9965758
vn 0 -0.08268494 0.9965758
vn 0 -0.08268494 0.9965758
vn 0 0.08268494 -0.9965758
vn 0 0.08268494 -0.9965758
vn 0 0.08268494 -0.9965758
vn 0 0.08268494 -0.9965758
vn 0 1 0
vn 0 1 0
vn 0 1 0
vn 0 1 0
vn 0 -1 0
vn 0 -1 0
vn 0 -1 0
vn 0 -1 0
vn 0 0.9604184 0.2785616
vn 0 0.9604184 0.2785616
vn 0 0.9604184 0.2785616
vn 0 0.9604184 0.2785616
vn 0 0.9604184 -0.2785616
vn 0 0.9604184 -0.2785616
vn 0 0.9604184 -0.2785616
vn 0 0.9604184 -0.2785616
vn 0 0 0.9999999
vn 0 0 0.9999999
vn 0 0 0.9999999
vn 0 0 0.9999999
vn 0.9999999 0 0
vn 0.9999999 0 0
vn 0.9999999 0 0
vn 0.9999999 0 0
vn -0.9999999 0 0
vn -0.9999999 0 0
vn -0.9999999 0 0
vn -0.9999999 0 0
vn 0 0 -0.9999999
vn 0 0 -0.9999999
vn 0 0 -0.9999999
vn 0 0 -0.9999999
vn -1 0 0
vn -1 0 0
vn -1 0 0
vn -1 0 0
vn -1 0 0
vn -0.9999999 0 0
vn 1 0 0
vn 1 0 0
vn 1 0 0
vn 1 0 0
vn 1 0 0
vn 1 0 0
vn -0.9609159 0.1017098 0.2574792
vn -0.9609166 0.1017097 0.2574773
vn -0.9609166 0.1017097 0.2574773
vn -0.9609175 0.1017093 0.2574738
vn -0.70344 0.1017095 0.7034397
vn -0.7034401 0.1017095 0.7034396
vn -0.7034401 0.1017095 0.7034396
vn -0.7034404 0.1017094 0.7034393
vn -0.257477 0.1017095 0.9609166
vn -0.2574768 0.1017096 0.9609166
vn -0.2574768 0.1017096 0.9609166
vn -0.2574766 0.1017096 0.9609167
vn 0.2574771 0.1017096 0.9609166
vn 0.257477 0.1017096 0.9609166
vn 0.257477 0.1017096 0.9609166
vn 0.2574766 0.1017095 0.9609167
vn 0.7034398 0.1017094 0.7034398
vn 0.7034401 0.1017095 0.7034397
vn 0.7034401 0.1017095 0.7034397
vn 0.7034403 0.1017095 0.7034393
vn 0.9609161 0.1017095 0.2574792
vn 0.9609165 0.1017097 0.2574773
vn 0.9609165 0.1017097 0.2574773
vn 0.9609175 0.10171 0.2574737
vn 0.960916 0.1017098 -0.2574793
vn 0.9609165 0.1017096 -0.2574774
vn 0.9609165 0.1017096 -0.2574774
vn 0.9609174 0.1017093 -0.2574738
vn 0.7034401 0.1017095 -0.7034397
vn 0.7034402 0.1017095 -0.7034395
vn 0.7034402 0.1017095 -0.7034395
vn 0.7034405 0.1017094 -0.7034392
vn 0.257477 0.1017095 -0.9609166
vn 0.2574767 0.1017096 -0.9609168
vn 0.2574767 0.1017096 -0.9609168
vn 0.2574762 0.1017096 -0.9609168
vn -0.257477 0.1017096 -0.9609166
vn -0.2574767 0.1017096 -0.9609168
vn -0.2574767 0.1017096 -0.9609168
vn -0.2574762 0.1017095 -0.9609169
vn -0.7034398 0.1017095 -0.7034398
vn -0.70344 0.1017095 -0.7034397
vn -0.70344 0.1017095 -0.7034397
vn -0.7034402 0.1017095 -0.7034394
vn -0.9609161 0.1017095 -0.2574791
vn -0.9609165 0.1017097 -0.2574773
vn -0.9609165 0.1017097 -0.2574773
vn -0.9609175 0.10171 -0.2574737
vn -0.9632875 -0.07387245 0.2581088
vn -0.9632868 -0.07387209 0.2581117
vn -0.9632868 -0.07387209 0.2581117
vn -0.9632861 -0.07387181 0.2581137
vn -0.7051753 -0.07387187 0.7051742
vn -0.7051755 -0.0738719 0.7051741
vn -0.7051755 -0.0738719 0.7051741
vn -0.7051756 -0.07387192 0.7051739
vn -0.2581117 -0.07387201 0.9632868
vn -0.2581117 -0.07387202 0.9632867
vn -0.2581117 -0.07387202 0.9632867
vn -0.2581118 -0.07387203 0.9632867
vn 0.2581117 -0.07387204 0.9632868
vn 0.2581117 -0.07387202 0.9632867
vn 0.2581117 -0.07387202 0.9632867
vn 0.2581118 -0.07387201 0.9632867
vn 0.7051752 -0.07387192 0.7051742
vn 0.7051754 -0.0738719 0.7051741
vn 0.7051754 -0.0738719 0.7051741
vn 0.7051756 -0.07387187 0.705174
vn 0.9632875 -0.07387171 0.2581087
vn 0.9632868 -0.07387207 0.2581116
vn 0.9632868 -0.07387207 0.2581116
vn 0.9632861 -0.07387234 0.2581137
vn 0.9632875 -0.07387244 -0.2581089
vn 0.9632868 -0.07387207 -0.2581117
vn 0.9632868 -0.07387207 -0.2581117
vn 0.9632862 -0.07387181 -0.2581138
vn 0.7051755 -0.07387187 -0.7051741
vn 0.7051755 -0.0738719 -0.7051739
vn 0.7051755 -0.0738719 -0.7051739
vn 0.7051757 -0.07387192 -0.7051739
vn 0.2581113 -0.073872 -0.9632869
vn 0.2581114 -0.07387201 -0.9632868
vn 0.2581114 -0.07387201 -0.9632868
vn 0.2581115 -0.07387203 -0.9632867
vn -0.2581113 -0.07387204 -0.9632869
vn -0.2581114 -0.07387202 -0.9632868
vn -0.2581114 -0.07387202 -0.9632868
vn -0.2581115 -0.073872 -0.9632867
vn -0.7051751 -0.07387193 -0.7051743
vn -0.7051754 -0.0738719 -0.7051741
vn -0.7051754 -0.0738719 -0.7051741
vn -0.7051755 -0.07387187 -0.705174
vn -0.9632875 -0.07387171 -0.2581087
vn -0.9632868 -0.07387207 -0.2581116
vn -0.9632868 -0.07387207 -0.2581116
vn -0.9632862 -0.07387234 -0.2581137

vt 0.5397676 0.5974271
vt 0.5057204 0.8155487
vt 0.5643698 0.601956
vt 0.5185135 0.8179036
vt 0.5642525 0.6017051
vt 0.5183758 0.8176553
vt 0.5885786 0.6075689
vt 0.5310254 0.8207045
vt 0.5884722 0.607326
vt 0.5308941 0.8205053
vt 0.6124686 0.6145136
vt 0.5433723 0.8242428
vt 0.3123029 0.6182526
vt 0.3850697 0.8268654
vt 0.336181 0.6106462
vt 0.3974864 0.8229101
vt 0.3360908 0.6106536
vt 0.397402 0.8229905
vt 0.3603333 0.6043627
vt 0.4100081 0.8197193
vt 0.360251 0.6043739
vt 0.4099031 0.81973
vt 0.3847927 0.5994142
vt 0.4226647 0.817151
vt 0.3847206 0.5994319
vt 0.4225662 0.8171679
vt 0.4094847 0.595818
vt 0.4354435 0.8152885
vt 0.409429 0.5958425
vt 0.4353542 0.8153116
vt 0.434335 0.5935843
vt 0.4483054 0.8141373
vt 0.4343071 0.5936167
vt 0.4482328 0.814167
vt 0.4592638 0.5927196
vt 0.4612103 0.8137004
vt 0.4643176 0.5927708
vt 0.4662115 0.8135056
vt 0.4892731 0.5932341
vt 0.4791883 0.8137466
vt 0.4902044 0.5929537
vt 0.4800786 0.8134709
vt 0.5151249 0.5947775
vt 0.4930372 0.8144193
vt 0.51506 0.5945072
vt 0.4929416 0.8141525
vt 0.5398617 0.5976878
vt 0.5058386 0.8158065
vt 0.502472 0.861442
vt 0.5142708 0.9875748
vt 0.5154256 0.8599712
vt 0.5322066 0.9855382
vt 0.5154189 0.8600203
vt 0.5322001 0.9855874
vt 0.5283042 0.858038
vt 0.5500411 0.9828427
vt 0.5282956 0.8580869
vt 0.5500325 0.9828916
vt 0.5410923 0.8555962
vt 0.567751 0.979443
vt 0.3837103 0.8517106
vt 0.3507788 0.9740389
vt 0.3963636 0.8548498
vt 0.3682986 0.9783854
vt 0.3963525 0.8548014
vt 0.3682875 0.9783372
vt 0.4091201 0.8574374
vt 0.3859656 0.981987
vt 0.409111 0.8573886
vt 0.3859566 0.9819382
vt 0.4219728 0.8595173
vt 0.4037653 0.9848856
vt 0.4219657 0.8594681
vt 0.4037582 0.9848363
vt 0.4349017 0.8610861
vt 0.4216696 0.9870766
vt 0.4348966 0.8610368
vt 0.4216644 0.9870273
vt 0.4478865 0.8621417
vt 0.4396504 0.9885572
vt 0.4478832 0.8620922
vt 0.4396472 0.9885077
vt 0.4609067 0.8626822
vt 0.4576797 0.9893245
vt 0.4617988 0.8626325
vt 0.4585719 0.9892749
vt 0.4748355 0.8627066
vt 0.4766226 0.9893774
vt 0.4764484 0.8627419
vt 0.4782353 0.9894128
vt 0.4894777 0.8623002
vt 0.496276 0.9888011
vt 0.489475 0.8623497
vt 0.4962731 0.9888507
vt 0.5024767 0.8613927
vt 0.5142755 0.9875255
vt 0.2331091 0.5984523
vt 0.199062 0.8165739
vt 0.2577114 0.6029811
vt 0.2118552 0.8189288
vt 0.257594 0.6027304
vt 0.2117175 0.8186805
vt 0.2819201 0.6085941
vt 0.2243671 0.8217297
vt 0.2818137 0.6083512
vt 0.2242357 0.8215305
vt 0.3058101 0.6155388
vt 0.2367139 0.8252681
vt 0.005644485 0.6192778
vt 0.07841125 0.8278906
vt 0.02952264 0.6116713
vt 0.09082781 0.8239353
vt 0.02943232 0.6116787
vt 0.09074359 0.8240156
vt 0.05367477 0.6053878
vt 0.1033497 0.8207443
vt 0.05359261 0.605399
vt 0.1032448 0.8207552
vt 0.07813416 0.6004394
vt 0.1160064 0.8181762
vt 0.07806219 0.6004571
vt 0.1159079 0.8181929
vt 0.1028261 0.5968431
vt 0.1287852 0.8163136
vt 0.1027706 0.5968676
vt 0.1286958 0.8163366
vt 0.1276766 0.5946094
vt 0.141647 0.8151624
vt 0.1276489 0.5946417
vt 0.1415732 0.815192
vt 0.1526072 0.5937447
vt 0.1545515 0.8147256
vt 0.1576593 0.593796
vt 0.1595531 0.8145309
vt 0.1826147 0.5942592
vt 0.1725299 0.8147718
vt 0.1835462 0.5939788
vt 0.1734202 0.8144961
vt 0.2084666 0.5958027
vt 0.1863788 0.8154445
vt 0.2084015 0.5955323
vt 0.1862833 0.8151777
vt 0.2332033 0.598713
vt 0.1991801 0.8168317
vt 0.1958136 0.8624672
vt 0.2076125 0.9886
vt 0.2087672 0.8609963
vt 0.2255482 0.9865634
vt 0.2087605 0.8610454
vt 0.2255416 0.9866125
vt 0.2216457 0.8590631
vt 0.2433826 0.9838678
vt 0.2216372 0.859112
vt 0.2433742 0.9839168
vt 0.234434 0.8566214
vt 0.2610927 0.9804682
vt 0.07705192 0.8527358
vt 0.04412034 0.9750642
vt 0.08970512 0.8558749
vt 0.06164023 0.9794106
vt 0.08969402 0.8558266
vt 0.06162899 0.9793622
vt 0.1024616 0.8584626
vt 0.07930711 0.9830121
vt 0.1024526 0.8584138
vt 0.07929818 0.9829632
vt 0.1153145 0.8605425
vt 0.09710687 0.9859107
vt 0.1153074 0.8604933
vt 0.09709985 0.9858615
vt 0.1282434 0.8621113
vt 0.1150112 0.9881018
vt 0.1282382 0.8620621
vt 0.1150062 0.9880525
vt 0.1412282 0.8631669
vt 0.1329923 0.9895823
vt 0.1412248 0.8631173
vt 0.1329888 0.9895327
vt 0.1542483 0.8637073
vt 0.1510213 0.9903495
vt 0.1551405 0.8636577
vt 0.1519136 0.9903001
vt 0.1681771 0.8637318
vt 0.1699642 0.9904027
vt 0.16979 0.8637671
vt 0.1715769 0.990438
vt 0.1828193 0.8633252
vt 0.1896176 0.9898262
vt 0.1828166 0.8633748
vt 0.1896148 0.9898758
vt 0.1958183 0.8624178
vt 0.2076171 0.9885505
vt 0.8544104 0.5934136
vt 0.820363 0.8115351
vt 0.8790125 0.5979424
vt 0.8331562 0.8138901
vt 0.8788951 0.5976916
vt 0.8330186 0.8136418
vt 0.9032212 0.6035553
vt 0.8456681 0.8166909
vt 0.9031149 0.6033124
vt 0.8455368 0.8164917
vt 0.9271112 0.6105
vt 0.8580149 0.8202293
vt 0.6269456 0.6142392
vt 0.6997123 0.8228519
vt 0.6508237 0.6066326
vt 0.7121289 0.8188965
vt 0.6507335 0.60664
vt 0.7120445 0.8189769
vt 0.674976 0.6003491
vt 0.7246507 0.8157057
vt 0.6748936 0.6003603
vt 0.7245458 0.8157164
vt 0.6994352 0.5954007
vt 0.7373074 0.8131374
vt 0.6993632 0.5954183
vt 0.7372089 0.8131542
vt 0.7241272 0.5918043
vt 0.7500861 0.8112749
vt 0.7240716 0.5918289
vt 0.749997 0.811298
vt 0.7489775 0.5895707
vt 0.7629481 0.8101237
vt 0.7489498 0.5896031
vt 0.7628747 0.8101534
vt 0.7739074 0.588706
vt 0.7758527 0.809687
vt 0.7789603 0.5887572
vt 0.7808542 0.8094922
vt 0.8039157 0.5892205
vt 0.793831 0.809733
vt 0.8048476 0.5889401
vt 0.7947212 0.8094573
vt 0.8297677 0.590764
vt 0.8076797 0.8104057
vt 0.8297026 0.5904936
vt 0.8075844 0.8101391
vt 0.8545043 0.5936743
vt 0.8204813 0.811793
vt 0.8171147 0.8574284
vt 0.8289136 0.9835613
vt 0.8300682 0.8559576
vt 0.8468493 0.9815248
vt 0.8300616 0.8560067
vt 0.8468427 0.9815739
vt 0.8429468 0.8540244
vt 0.8646838 0.9788291
vt 0.8429383 0.8540733
vt 0.8646753 0.9788779
vt 0.855735 0.8515826
vt 0.8823937 0.9754294
vt 0.698353 0.8476971
vt 0.6654214 0.9700254
vt 0.7110062 0.8508362
vt 0.6829413 0.9743719
vt 0.7109953 0.8507879
vt 0.6829303 0.9743236
vt 0.7237628 0.8534239
vt 0.7006084 0.9779734
vt 0.7237537 0.853375
vt 0.7005993 0.9779245
vt 0.7366155 0.8555037
vt 0.718408 0.9808719
vt 0.7366084 0.8554546
vt 0.7184009 0.9808228
vt 0.7495444 0.8570727
vt 0.7363123 0.9830632
vt 0.7495391 0.8570232
vt 0.736307 0.9830137
vt 0.7625291 0.8581281
vt 0.7542931 0.9845434
vt 0.7625259 0.8580786
vt 0.7542898 0.984494
vt 0.7755493 0.8586685
vt 0.7723223 0.9853109
vt 0.7764416 0.858619
vt 0.7732146 0.9852613
vt 0.7894781 0.8586931
vt 0.7912652 0.985364
vt 0.791091 0.8587284
vt 0.792878 0.9853992
vt 0.8041204 0.8582866
vt 0.8109186 0.9847875
vt 0.8041177 0.8583361
vt 0.8109159 0.9848371
vt 0.8171195 0.857379
vt 0.8289183 0.9835119
vt 0.001259565 0.07271281
vt 0.8012598 0.07271273
vt 0.001259565 0.05264409
vt 0.8012598 0.05264401
vt 0.8012598 0.1327128
vt 0.001259685 0.1327128
vt 0.8012598 0.1527815
vt 0.001259685 0.1527815
vt 0.001259685 0.02708595
vt 0.8012598 0.02708595
vt 0.001259685 0.005539119
vt 0.8012598 0.005539119
vt 0.001259565 0.1327128
vt 0.8012598 0.1327128
vt 0.001259565 0.07271282
vt 0.8012598 0.07271274
vt 0.001259685 0.05264405
vt 0.8012598 0.05264405
vt 0.001259685 0.03262504
vt 0.8012598 0.03262504
vt 0.8012598 0.1527815
vt 0.001259685 0.1527815
vt 0.8012598 0.1728005
vt 0.001259685 0.1728005
vt 0.001259565 0.03262508
vt 0.8012598 0.03262501
vt 0.001259565 0.02708598
vt 0.8012598 0.02708591
vt 0.9944921 0.2722974
vt 0.9944921 0.2938442
vt 1.000031 0.2722974
vt 1.000031 0.2938442
vt 0.005461592 0.2755909
vt 0.005461592 0.2540441
vt -7.754192E-05 0.2755909
vt -7.754192E-05 0.2540441
vt 0.8012598 1.303852E-08
vt 0.001259685 1.303852E-08
vt 0.8012598 0.005539121
vt 0.001259685 0.005539121
vt 0.01996611 0.186812
vt 0.01996613 0.2468125
vt 0.02554263 0.2060388
vt 0.02554263 0.2275858
vt -3.395975E-05 0.1884714
vt -3.395975E-05 0.2484719
vt 1.000029 0.2611694
vt 1.000029 0.2011692
vt 0.9800286 0.25951
vt 0.9800286 0.1995098
vt 0.974452 0.2402834
vt 0.974452 0.2187365
vt 0.3910637 0.1968256
vt 0.3570165 0.4149472
vt 0.415666 0.2013544
vt 0.3698097 0.4173022
vt 0.4155484 0.2011036
vt 0.3696719 0.4170538
vt 0.4398745 0.2069674
vt 0.3823215 0.4201029
vt 0.4397683 0.2067245
vt 0.3821902 0.4199038
vt 0.4637647 0.2139121
vt 0.3946683 0.4236414
vt 0.163599 0.2176511
vt 0.2363658 0.4262639
vt 0.1874771 0.2100447
vt 0.2487824 0.4223085
vt 0.1873869 0.2100521
vt 0.2486981 0.422389
vt 0.2116295 0.2037612
vt 0.2613042 0.4191177
vt 0.2115471 0.2037724
vt 0.2611992 0.4191285
vt 0.2360887 0.1988127
vt 0.2739608 0.4165495
vt 0.2360168 0.1988304
vt 0.2738625 0.4165662
vt 0.2607807 0.1952164
vt 0.2867398 0.4146869
vt 0.260725 0.1952409
vt 0.2866502 0.41471
vt 0.2856311 0.1929828
vt 0.2996014 0.4135358
vt 0.2856033 0.193015
vt 0.2995279 0.4135654
vt 0.3105613 0.192118
vt 0.3125061 0.4130989
vt 0.3156142 0.1921693
vt 0.3175073 0.4129042
vt 0.3405696 0.1926326
vt 0.3304842 0.4131451
vt 0.341501 0.1923521
vt 0.3313747 0.4128694
vt 0.3664212 0.194176
vt 0.3443331 0.4138178
vt 0.366356 0.1939056
vt 0.3442378 0.4135511
vt 0.3911578 0.1970863
vt 0.3571347 0.415205
vt 0.3537681 0.4608404
vt 0.3655671 0.5869733
vt 0.3667216 0.4593696
vt 0.3835028 0.5849367
vt 0.3667151 0.4594187
vt 0.3834962 0.5849859
vt 0.3796003 0.4574364
vt 0.4013373 0.5822412
vt 0.3795918 0.4574853
vt 0.4013287 0.5822901
vt 0.3923885 0.4549947
vt 0.4190472 0.5788414
vt 0.2350065 0.4511091
vt 0.2020749 0.5734374
vt 0.2476598 0.4542482
vt 0.2195947 0.5777839
vt 0.2476488 0.4541999
vt 0.2195836 0.5777355
vt 0.2604163 0.4568359
vt 0.2372617 0.5813853
vt 0.2604071 0.456787
vt 0.2372527 0.5813364
vt 0.273269 0.4589157
vt 0.2550613 0.5842838
vt 0.2732619 0.4588666
vt 0.2550543 0.5842347
vt 0.2861978 0.4604846
vt 0.2729656 0.5864751
vt 0.2861927 0.4604354
vt 0.2729605 0.5864258
vt 0.2991825 0.4615403
vt 0.2909464 0.5879556
vt 0.2991794 0.4614907
vt 0.2909433 0.5879061
vt 0.3122029 0.4620806
vt 0.3089757 0.5887229
vt 0.313095 0.462031
vt 0.3098681 0.5886734
vt 0.3261316 0.4621051
vt 0.3279187 0.588776
vt 0.3277444 0.4621404
vt 0.3295319 0.5888112
vt 0.3407735 0.4616985
vt 0.3475721 0.5881994
vt 0.3407711 0.4617481
vt 0.3475694 0.588249
vt 0.3537727 0.460791
vt 0.3655717 0.5869238

g Default_Prototype
usemtl Default_Prototype
usemap Default_Prototype
f 2/2/2 1/1/1 3/3/3
f 4/4/4 2/2/2 3/3/3
f 6/6/6 5/5/5 7/7/7
f 8/8/8 6/6/6 7/7/7
f 10/10/10 9/9/9 11/11/11
f 12/12/12 10/10/10 11/11/11
f 14/14/14 13/13/13 15/15/15
f 16/16/16 14/14/14 15/15/15
f 18/18/18 17/17/17 19/19/19
f 20/20/20 18/18/18 19/19/19
f 22/22/22 21/21/21 23/23/23
f 24/24/24 22/22/22 23/23/23
f 26/26/26 25/25/25 27/27/27
f 28/28/28 26/26/26 27/27/27
f 30/30/30 29/29/29 31/31/31
f 32/32/32 30/30/30 31/31/31
f 34/34/34 33/33/33 35/35/35
f 36/36/36 34/34/34 35/35/35
f 38/38/38 37/37/37 39/39/39
f 40/40/40 38/38/38 39/39/39
f 42/42/42 41/41/41 43/43/43
f 44/44/44 42/42/42 43/43/43
f 46/46/46 45/45/45 47/47/47
f 48/48/48 46/46/46 47/47/47
f 50/50/50 49/49/49 51/51/51
f 52/52/52 50/50/50 51/51/51
f 54/54/54 53/53/53 55/55/55
f 56/56/56 54/54/54 55/55/55
f 58/58/58 57/57/57 59/59/59
f 60/60/60 58/58/58 59/59/59
f 62/62/62 61/61/61 63/63/63
f 64/64/64 62/62/62 63/63/63
f 66/66/66 65/65/65 67/67/67
f 68/68/68 66/66/66 67/67/67
f 70/70/70 69/69/69 71/71/71
f 72/72/72 70/70/70 71/71/71
f 74/74/74 73/73/73 75/75/75
f 76/76/76 74/74/74 75/75/75
f 78/78/78 77/77/77 79/79/79
f 80/80/80 78/78/78 79/79/79
f 82/82/82 81/81/81 83/83/83
f 84/84/84 82/82/82 83/83/83
f 86/86/86 85/85/85 87/87/87
f 88/88/88 86/86/86 87/87/87
f 90/90/90 89/89/89 91/91/91
f 92/92/92 90/90/90 91/91/91
f 94/94/94 93/93/93 95/95/95
f 96/96/96 94/94/94 95/95/95
f 98/98/98 97/97/97 99/99/99
f 100/100/100 98/98/98 99/99/99
f 102/102/102 101/101/101 103/103/103
f 104/104/104 102/102/102 103/103/103
f 106/106/106 105/105/105 107/107/107
f 108/108/108 106/106/106 107/107/107
f 110/110/110 109/109/109 111/111/111
f 112/112/112 110/110/110 111/111/111
f 114/114/114 113/113/113 115/115/115
f 116/116/116 114/114/114 115/115/115
f 118/118/118 117/117/117 119/119/119
f 120/120/120 118/118/118 119/119/119
f 122/122/122 121/121/121 123/123/123
f 124/124/124 122/122/122 123/123/123
f 126/126/126 125/125/125 127/127/127
f 128/128/128 126/126/126 127/127/127
f 130/130/130 129/129/129 131/131/131
f 132/132/132 130/130/130 131/131/131
f 134/134/134 133/133/133 135/135/135
f 136/136/136 134/134/134 135/135/135
f 138/138/138 137/137/137 139/139/139
f 140/140/140 138/138/138 139/139/139
f 142/142/142 141/141/141 143/143/143
f 144/144/144 142/142/142 143/143/143
f 146/146/146 145/145/145 147/147/147
f 148/148/148 146/146/146 147/147/147
f 150/150/150 149/149/149 151/151/151
f 152/152/152 150/150/150 151/151/151
f 154/154/154 153/153/153 155/155/155
f 156/156/156 154/154/154 155/155/155
f 158/158/158 157/157/157 159/159/159
f 160/160/160 158/158/158 159/159/159
f 162/162/162 161/161/161 163/163/163
f 164/164/164 162/162/162 163/163/163
f 166/166/166 165/165/165 167/167/167
f 168/168/168 166/166/166 167/167/167
f 170/170/170 169/169/169 171/171/171
f 172/172/172 170/170/170 171/171/171
f 174/174/174 173/173/173 175/175/175
f 176/176/176 174/174/174 175/175/175
f 178/178/178 177/177/177 179/179/179
f 180/180/180 178/178/178 179/179/179
f 182/182/182 181/181/181 183/183/183
f 184/184/184 182/182/182 183/183/183
f 186/186/186 185/185/185 187/187/187
f 188/188/188 186/186/186 187/187/187
f 190/190/190 189/189/189 191/191/191
f 192/192/192 190/190/190 191/191/191
f 194/194/194 193/193/193 195/195/195
f 196/196/196 194/194/194 195/195/195
f 198/198/198 197/197/197 199/199/199
f 200/200/200 198/198/198 199/199/199
f 202/202/202 201/201/201 203/203/203
f 204/204/204 202/202/202 203/203/203
f 206/206/206 205/205/205 207/207/207
f 208/208/208 206/206/206 207/207/207
f 210/210/210 209/209/209 211/211/211
f 212/212/212 210/210/210 211/211/211
f 214/214/214 213/213/213 215/215/215
f 216/216/216 214/214/214 215/215/215
f 218/218/218 217/217/217 219/219/219
f 220/220/220 218/218/218 219/219/219
f 222/222/222 221/221/221 223/223/223
f 224/224/224 222/222/222 223/223/223
f 226/226/226 225/225/225 227/227/227
f 228/228/228 226/226/226 227/227/227
f 230/230/230 229/229/229 231/231/231
f 232/232/232 230/230/230 231/231/231
f 234/234/234 233/233/233 235/235/235
f 236/236/236 234/234/234 235/235/235
f 238/238/238 237/237/237 239/239/239
f 240/240/240 238/238/238 239/239/239
f 242/242/242 241/241/241 243/243/243
f 244/244/244 242/242/242 243/243/243
f 246/246/246 245/245/245 247/247/247
f 248/248/248 246/246/246 247/247/247
f 250/250/250 249/249/249 251/251/251
f 252/252/252 250/250/250 251/251/251
f 254/254/254 253/253/253 255/255/255
f 256/256/256 254/254/254 255/255/255
f 258/258/258 257/257/257 259/259/259
f 260/260/260 258/258/258 259/259/259
f 262/262/262 261/261/261 263/263/263
f 264/264/264 262/262/262 263/263/263
f 266/266/266 265/265/265 267/267/267
f 268/268/268 266/266/266 267/267/267
f 270/270/270 269/269/269 271/271/271
f 272/272/272 270/270/270 271/271/271
f 274/274/274 273/273/273 275/275/275
f 276/276/276 274/274/274 275/275/275
f 278/278/278 277/277/277 279/279/279
f 280/280/280 278/278/278 279/279/279
f 282/282/282 281/281/281 283/283/283
f 284/284/284 282/282/282 283/283/283
f 286/286/286 285/285/285 287/287/287
f 288/288/288 286/286/286 287/287/287
f 290/290/290 289/289/289 291/291/291
f 292/292/292 290/290/290 291/291/291
f 294/294/294 293/293/293 295/295/295
f 296/296/296 294/294/294 295/295/295
f 298/298/298 297/297/297 299/299/299
f 300/300/300 298/298/298 299/299/299
f 302/302/302 301/301/301 303/303/303
f 304/304/304 302/302/302 303/303/303
f 306/306/306 305/305/305 307/307/307
f 308/308/308 306/306/306 307/307/307
f 310/310/310 309/309/309 311/311/311
f 312/312/312 310/310/310 311/311/311
f 314/314/314 313/313/313 315/315/315
f 316/316/316 314/314/314 315/315/315
f 318/318/318 317/317/317 319/319/319
f 320/320/320 318/318/318 319/319/319
f 322/322/322 321/321/321 323/323/323
f 324/324/324 322/322/322 323/323/323
f 326/326/326 325/325/325 327/327/327
f 328/328/328 326/326/326 327/327/327
f 330/330/330 329/329/329 331/331/331
f 332/332/332 330/330/330 331/331/331
f 334/334/334 333/333/333 329/329/329
f 330/330/330 334/334/334 329/329/329
f 336/336/336 335/335/335 337/337/337
f 338/338/338 336/336/336 337/337/337
f 338/338/338 337/337/337 339/339/339
f 340/340/340 338/338/338 339/339/339
f 342/342/342 341/341/341 343/343/343
f 344/344/344 342/342/342 343/343/343
f 346/346/346 345/345/345 347/347/347
f 348/348/348 346/346/346 347/347/347
f 350/350/350 349/349/349 351/351/351
f 352/352/352 350/350/350 351/351/351
f 354/354/354 353/353/353 355/355/355
f 356/356/356 354/354/354 355/355/355
f 358/358/358 357/357/357 359/359/359
f 360/360/360 358/358/358 359/359/359
f 362/362/362 361/361/361 363/363/363
f 364/364/364 362/362/362 363/363/363
f 366/366/366 365/365/365 367/367/367
f 368/368/368 366/366/366 367/367/367
f 370/370/370 369/369/369 371/371/371
f 372/372/372 370/370/370 371/371/371
f 374/374/374 373/373/373 375/375/375
f 376/376/376 374/374/374 375/375/375
f 378/378/378 377/377/377 379/379/379
f 380/380/380 378/378/378 379/379/379
f 382/382/382 381/381/381 383/383/383
f 384/384/384 382/382/382 383/383/383
f 386/386/386 385/385/385 387/387/387
f 388/388/388 386/386/386 387/387/387
f 390/390/390 389/389/389 391/391/391
f 392/392/392 390/390/390 391/391/391
f 394/394/394 393/393/393 395/395/395
f 396/396/396 394/394/394 395/395/395
f 398/398/398 397/397/397 399/399/399
f 400/400/400 398/398/398 399/399/399
f 402/402/402 401/401/401 403/403/403
f 404/404/404 402/402/402 403/403/403
f 406/406/406 405/405/405 407/407/407
f 408/408/408 406/406/406 407/407/407
f 410/410/410 409/409/409 411/411/411
f 412/412/412 410/410/410 411/411/411
f 414/414/414 413/413/413 415/415/415
f 416/416/416 414/414/414 415/415/415
f 418/418/418 417/417/417 419/419/419
f 420/420/420 418/418/418 419/419/419
f 422/422/422 421/421/421 423/423/423
f 424/424/424 422/422/422 423/423/423
f 426/426/426 425/425/425 427/427/427
f 428/428/428 426/426/426 427/427/427
f 430/430/430 429/429/429 431/431/431
f 432/432/432 430/430/430 431/431/431
f 434/434/434 433/433/433 435/435/435
f 436/436/436 434/434/434 435/435/435
