mtllib ./BannisterFull1_3.mtl
g BanniserFull1_3
v -0.1399999 0 1.435168E-06
v -0.07279998 0.634882 1.430977E-06
v -0.1212435 0 0.07000144
v -0.06304663 0.634882 0.03640144
v -0.1212435 0 0.07000144
v -0.06304663 0.634882 0.03640144
v -0.06999987 0 0.121245
v -0.0363999 0.634882 0.06304809
v -0.06999987 0 0.121245
v -0.0363999 0.634882 0.06304809
v 5.960464E-08 0 0.1400014
v 5.960464E-08 0.634882 0.07280146
v 5.960464E-08 0 0.1400014
v 5.960464E-08 0.634882 0.07280146
v 0.06999999 0 0.121245
v 0.03640014 0.634882 0.06304809
v 0.06999999 0 0.121245
v 0.03640014 0.634882 0.06304809
v 0.1212435 0 0.07000144
v 0.06304675 0.634882 0.03640144
v 0.1212435 0 0.07000144
v 0.06304675 0.634882 0.03640144
v 0.14 0 1.422595E-06
v 0.0728001 0.634882 1.424924E-06
v 0.14 0 1.422595E-06
v 0.0728001 0.634882 1.424924E-06
v 0.1212435 0 -0.06999856
v 0.06304675 0.634882 -0.03639857
v 0.1212435 0 -0.06999856
v 0.06304675 0.634882 -0.03639857
v 0.06999999 0 -0.1212421
v 0.03640014 0.634882 -0.06304523
v 0.06999999 0 -0.1212421
v 0.03640014 0.634882 -0.06304523
v 5.960464E-08 0 -0.1399986
v 5.960464E-08 0.634882 -0.07279858
v 5.960464E-08 0 -0.1399986
v 5.960464E-08 0.634882 -0.07279858
v -0.06999987 0 -0.1212421
v -0.0363999 0.634882 -0.06304523
v -0.06999987 0 -0.1212421
v -0.0363999 0.634882 -0.06304523
v -0.1212435 0 -0.06999859
v -0.06304663 0.634882 -0.03639859
v -0.1212435 0 -0.06999859
v -0.06304663 0.634882 -0.03639859
v -0.1399999 0 1.435168E-06
v -0.07279998 0.634882 1.430977E-06
v -0.07279998 0.634882 1.430977E-06
v -0.1008 1 1.43284E-06
v -0.06304663 0.634882 0.03640144
v -0.08729535 1 0.05040143
v -0.06304663 0.634882 0.03640144
v -0.08729535 1 0.05040143
v -0.0363999 0.634882 0.06304809
v -0.05039996 1 0.0872968
v -0.0363999 0.634882 0.06304809
v -0.05039996 1 0.0872968
v 5.960464E-08 0.634882 0.07280146
v 5.960464E-08 1 0.1008014
v 5.960464E-08 0.634882 0.07280146
v 5.960464E-08 1 0.1008014
v 0.03640014 0.634882 0.06304809
v 0.05040008 1 0.0872968
v 0.03640014 0.634882 0.06304809
v 0.05040008 1 0.0872968
v 0.06304675 0.634882 0.03640144
v 0.08729535 1 0.05040144
v 0.06304675 0.634882 0.03640144
v 0.08729535 1 0.05040144
v 0.0728001 0.634882 1.424924E-06
v 0.1008001 1 1.423992E-06
v 0.0728001 0.634882 1.424924E-06
v 0.1008001 1 1.423992E-06
v 0.06304675 0.634882 -0.03639857
v 0.08729535 1 -0.05039857
v 0.06304675 0.634882 -0.03639857
v 0.08729535 1 -0.05039857
v 0.03640014 0.634882 -0.06304523
v 0.05040008 1 -0.08729394
v 0.03640014 0.634882 -0.06304523
v 0.05040008 1 -0.08729394
v 5.960464E-08 0.634882 -0.07279858
v 5.960464E-08 1 -0.1007986
v 5.960464E-08 0.634882 -0.07279858
v 5.960464E-08 1 -0.1007986
v -0.0363999 0.634882 -0.06304523
v -0.05039996 1 -0.08729394
v -0.0363999 0.634882 -0.06304523
v -0.05039996 1 -0.08729394
v -0.06304663 0.634882 -0.03639859
v -0.08729523 1 -0.05039858
v -0.06304663 0.634882 -0.03639859
v -0.08729523 1 -0.05039858
v -0.07279998 0.634882 1.430977E-06
v -0.1008 1 1.43284E-06
v 0.8600001 0 1.435168E-06
v 0.9272 0.634882 1.430977E-06
v 0.8787566 0 0.07000144
v 0.9369534 0.634882 0.03640144
v 0.8787566 0 0.07000144
v 0.9369534 0.634882 0.03640144
v 0.9300001 0 0.121245
v 0.9636 0.634882 0.06304809
v 0.9300001 0 0.121245
v 0.9636 0.634882 0.06304809
v 1 0 0.1400014
v 1 0.634882 0.07280146
v 1 0 0.1400014
v 1 0.634882 0.07280146
v 1.07 0 0.121245
v 1.0364 0.634882 0.06304809
v 1.07 0 0.121245
v 1.0364 0.634882 0.06304809
v 1.121243 0 0.07000144
v 1.063047 0.634882 0.03640144
v 1.121243 0 0.07000144
v 1.063047 0.634882 0.03640144
v 1.14 0 1.422595E-06
v 1.0728 0.634882 1.424924E-06
v 1.14 0 1.422595E-06
v 1.0728 0.634882 1.424924E-06
v 1.121243 0 -0.06999856
v 1.063047 0.634882 -0.03639857
v 1.121243 0 -0.06999856
v 1.063047 0.634882 -0.03639857
v 1.07 0 -0.1212421
v 1.0364 0.634882 -0.06304523
v 1.07 0 -0.1212421
v 1.0364 0.634882 -0.06304523
v 1 0 -0.1399986
v 1 0.634882 -0.07279858
v 1 0 -0.1399986
v 1 0.634882 -0.07279858
v 0.9300001 0 -0.1212421
v 0.9636 0.634882 -0.06304523
v 0.9300001 0 -0.1212421
v 0.9636 0.634882 -0.06304523
v 0.8787566 0 -0.06999859
v 0.9369534 0.634882 -0.03639859
v 0.8787566 0 -0.06999859
v 0.9369534 0.634882 -0.03639859
v 0.8600001 0 1.435168E-06
v 0.9272 0.634882 1.430977E-06
v 0.9272 0.634882 1.430977E-06
v 0.8992 1 1.43284E-06
v 0.9369534 0.634882 0.03640144
v 0.9127048 1 0.05040143
v 0.9369534 0.634882 0.03640144
v 0.9127048 1 0.05040143
v 0.9636 0.634882 0.06304809
v 0.9496 1 0.0872968
v 0.9636 0.634882 0.06304809
v 0.9496 1 0.0872968
v 1 0.634882 0.07280146
v 1 1 0.1008014
v 1 0.634882 0.07280146
v 1 1 0.1008014
v 1.0364 0.634882 0.06304809
v 1.0504 1 0.0872968
v 1.0364 0.634882 0.06304809
v 1.0504 1 0.0872968
v 1.063047 0.634882 0.03640144
v 1.087296 1 0.05040144
v 1.063047 0.634882 0.03640144
v 1.087296 1 0.05040144
v 1.0728 0.634882 1.424924E-06
v 1.1008 1 1.423992E-06
v 1.0728 0.634882 1.424924E-06
v 1.1008 1 1.423992E-06
v 1.063047 0.634882 -0.03639857
v 1.087296 1 -0.05039857
v 1.063047 0.634882 -0.03639857
v 1.087296 1 -0.05039857
v 1.0364 0.634882 -0.06304523
v 1.0504 1 -0.08729394
v 1.0364 0.634882 -0.06304523
v 1.0504 1 -0.08729394
v 1 0.634882 -0.07279858
v 1 1 -0.1007986
v 1 0.634882 -0.07279858
v 1 1 -0.1007986
v 0.9636 0.634882 -0.06304523
v 0.9496 1 -0.08729394
v 0.9636 0.634882 -0.06304523
v 0.9496 1 -0.08729394
v 0.9369534 0.634882 -0.03639859
v 0.9127048 1 -0.05039858
v 0.9369534 0.634882 -0.03639859
v 0.9127048 1 -0.05039858
v 0.9272 0.634882 1.430977E-06
v 0.8992 1 1.43284E-06
v -1.14 0 1.435168E-06
v -1.0728 0.634882 1.430977E-06
v -1.121243 0 0.07000144
v -1.063047 0.634882 0.03640144
v -1.121243 0 0.07000144
v -1.063047 0.634882 0.03640144
v -1.07 0 0.121245
v -1.0364 0.634882 0.06304809
v -1.07 0 0.121245
v -1.0364 0.634882 0.06304809
v -0.9999999 0 0.1400014
v -0.9999999 0.634882 0.07280146
v -0.9999999 0 0.1400014
v -0.9999999 0.634882 0.07280146
v -0.9299999 0 0.121245
v -0.9636 0.634882 0.06304809
v -0.9299999 0 0.121245
v -0.9636 0.634882 0.06304809
v -0.8787563 0 0.07000144
v -0.9369532 0.634882 0.03640144
v -0.8787563 0 0.07000144
v -0.9369532 0.634882 0.03640144
v -0.86 0 1.422595E-06
v -0.9271999 0.634882 1.424924E-06
v -0.86 0 1.422595E-06
v -0.9271999 0.634882 1.424924E-06
v -0.8787563 0 -0.06999856
v -0.9369532 0.634882 -0.03639857
v -0.8787563 0 -0.06999856
v -0.9369532 0.634882 -0.03639857
v -0.93 0 -0.1212421
v -0.9636 0.634882 -0.06304523
v -0.93 0 -0.1212421
v -0.9636 0.634882 -0.06304523
v -0.9999999 0 -0.1399986
v -0.9999999 0.634882 -0.07279858
v -0.9999999 0 -0.1399986
v -0.9999999 0.634882 -0.07279858
v -1.07 0 -0.1212421
v -1.0364 0.634882 -0.06304523
v -1.07 0 -0.1212421
v -1.0364 0.634882 -0.06304523
v -1.121243 0 -0.06999859
v -1.063047 0.634882 -0.03639859
v -1.121243 0 -0.06999859
v -1.063047 0.634882 -0.03639859
v -1.14 0 1.435168E-06
v -1.0728 0.634882 1.430977E-06
v -1.0728 0.634882 1.430977E-06
v -1.1008 1 1.43284E-06
v -1.063047 0.634882 0.03640144
v -1.087295 1 0.05040143
v -1.063047 0.634882 0.03640144
v -1.087295 1 0.05040143
v -1.0364 0.634882 0.06304809
v -1.0504 1 0.0872968
v -1.0364 0.634882 0.06304809
v -1.0504 1 0.0872968
v -0.9999999 0.634882 0.07280146
v -0.9999999 1 0.1008014
v -0.9999999 0.634882 0.07280146
v -0.9999999 1 0.1008014
v -0.9636 0.634882 0.06304809
v -0.9495999 1 0.0872968
v -0.9636 0.634882 0.06304809
v -0.9495999 1 0.0872968
v -0.9369532 0.634882 0.03640144
v -0.9127045 1 0.05040144
v -0.9369532 0.634882 0.03640144
v -0.9127045 1 0.05040144
v -0.9271999 0.634882 1.424924E-06
v -0.8991999 1 1.423992E-06
v -0.9271999 0.634882 1.424924E-06
v -0.8991999 1 1.423992E-06
v -0.9369532 0.634882 -0.03639857
v -0.9127045 1 -0.05039857
v -0.9369532 0.634882 -0.03639857
v -0.9127045 1 -0.05039857
v -0.9636 0.634882 -0.06304523
v -0.9495999 1 -0.08729394
v -0.9636 0.634882 -0.06304523
v -0.9495999 1 -0.08729394
v -0.9999999 0.634882 -0.07279858
v -0.9999999 1 -0.1007986
v -0.9999999 0.634882 -0.07279858
v -0.9999999 1 -0.1007986
v -1.0364 0.634882 -0.06304523
v -1.0504 1 -0.08729394
v -1.0364 0.634882 -0.06304523
v -1.0504 1 -0.08729394
v -1.063047 0.634882 -0.03639859
v -1.087295 1 -0.05039858
v -1.063047 0.634882 -0.03639859
v -1.087295 1 -0.05039858
v -1.0728 0.634882 1.430977E-06
v -1.1008 1 1.43284E-06
v 1.5 1 0.1417047
v -1.5 1 0.1417047
v 1.5 1.1 0.1500017
v -1.5 1.1 0.1500017
v -1.5 1 -0.1582953
v 1.5 1 -0.1582953
v -1.5 1.1 -0.1499983
v 1.5 1.1 -0.1499983
v 1.5 1.155579 0.05386876
v -1.5 1.155579 0.05386876
v 1.5 1.155579 -0.05386541
v -1.5 1.155579 -0.05386541
v 1.5 1 -0.1582953
v -1.5 1 -0.1582953
v 1.5 1 0.1417047
v -1.5 1 0.1417047
v 1.5 1.1 0.1500017
v -1.5 1.1 0.1500017
v 1.5 1.127883 0.05386876
v -1.5 1.127883 0.05386876
v -1.5 1.1 -0.1499983
v 1.5 1.1 -0.1499983
v -1.5 1.127883 -0.05386541
v 1.5 1.127883 -0.05386541
v 1.5 1.127883 0.05386876
v -1.5 1.127883 0.05386876
v 1.5 1.155579 0.05386876
v -1.5 1.155579 0.05386876
v 1.5 1.127883 -0.05386541
v 1.5 1.127883 0.05386876
v 1.5 1.155579 -0.05386541
v 1.5 1.155579 0.05386876
v -1.5 1.127883 0.05386876
v -1.5 1.127883 -0.05386541
v -1.5 1.155579 0.05386876
v -1.5 1.155579 -0.05386541
v -1.5 1.127883 -0.05386541
v 1.5 1.127883 -0.05386541
v -1.5 1.155579 -0.05386541
v 1.5 1.155579 -0.05386541
v -1.5 1.1 0.1500017
v -1.5 1.1 -0.1499983
v -1.5 1.127883 0.05386876
v -1.5 1.127883 -0.05386541
v -1.5 1 0.1417047
v -1.5 1 -0.1582953
v 1.5 1 -0.1582953
v 1.5 1 0.1417047
v 1.5 1.1 -0.1499983
v 1.5 1.1 0.1500017
v 1.5 1.127883 -0.05386541
v 1.5 1.127883 0.05386876

vn -0.9609168 0.1017095 0.2574761
vn -0.9609168 0.1017096 0.2574763
vn -0.9609168 0.1017096 0.2574763
vn -0.9609167 0.1017096 0.2574767
vn -0.7034391 0.1017096 0.7034405
vn -0.703439 0.1017096 0.7034407
vn -0.703439 0.1017096 0.7034407
vn -0.7034388 0.1017096 0.7034408
vn -0.257477 0.1017096 0.9609166
vn -0.2574771 0.1017096 0.9609166
vn -0.2574771 0.1017096 0.9609166
vn -0.2574774 0.1017096 0.9609165
vn 0.2574771 0.1017096 0.9609166
vn 0.257477 0.1017096 0.9609166
vn 0.257477 0.1017096 0.9609166
vn 0.2574766 0.1017095 0.9609167
vn 0.7034398 0.1017094 0.7034398
vn 0.7034401 0.1017095 0.7034397
vn 0.7034401 0.1017095 0.7034397
vn 0.7034403 0.1017095 0.7034393
vn 0.9609164 0.1017094 0.2574776
vn 0.9609165 0.1017095 0.2574773
vn 0.9609165 0.1017095 0.2574773
vn 0.9609167 0.1017095 0.2574766
vn 0.9609165 0.1017095 -0.2574777
vn 0.9609165 0.1017095 -0.2574774
vn 0.9609165 0.1017095 -0.2574774
vn 0.9609167 0.1017094 -0.2574767
vn 0.7034401 0.1017095 -0.7034397
vn 0.7034402 0.1017095 -0.7034395
vn 0.7034402 0.1017095 -0.7034395
vn 0.7034405 0.1017094 -0.7034392
vn 0.257477 0.1017095 -0.9609166
vn 0.2574767 0.1017096 -0.9609168
vn 0.2574767 0.1017096 -0.9609168
vn 0.2574762 0.1017096 -0.9609168
vn -0.257477 0.1017096 -0.9609166
vn -0.257477 0.1017096 -0.9609166
vn -0.257477 0.1017096 -0.9609166
vn -0.257477 0.1017096 -0.9609166
vn -0.7034391 0.1017096 -0.7034407
vn -0.7034389 0.1017096 -0.7034408
vn -0.7034389 0.1017096 -0.7034408
vn -0.7034386 0.1017096 -0.703441
vn -0.9609169 0.1017096 -0.2574761
vn -0.9609169 0.1017096 -0.2574763
vn -0.9609169 0.1017096 -0.2574763
vn -0.9609167 0.1017095 -0.2574766
vn -0.9632867 -0.07387207 0.2581117
vn -0.9632868 -0.07387209 0.2581117
vn -0.9632868 -0.07387209 0.2581117
vn -0.9632868 -0.07387208 0.2581116
vn -0.7051737 -0.07387204 0.7051758
vn -0.7051741 -0.07387213 0.7051753
vn -0.7051741 -0.07387213 0.7051753
vn -0.7051744 -0.07387217 0.705175
vn -0.2581124 -0.0738721 0.9632865
vn -0.2581121 -0.07387206 0.9632866
vn -0.2581121 -0.07387206 0.9632866
vn -0.2581118 -0.07387203 0.9632867
vn 0.2581117 -0.07387204 0.9632868
vn 0.2581117 -0.07387202 0.9632867
vn 0.2581117 -0.07387202 0.9632867
vn 0.2581118 -0.07387201 0.9632867
vn 0.7051752 -0.07387192 0.7051742
vn 0.7051754 -0.0738719 0.7051741
vn 0.7051754 -0.0738719 0.7051741
vn 0.7051756 -0.07387187 0.705174
vn 0.9632868 -0.07387178 0.2581117
vn 0.9632865 -0.07387193 0.2581128
vn 0.9632865 -0.07387193 0.2581128
vn 0.9632862 -0.07387203 0.2581137
vn 0.9632866 -0.07387207 -0.2581118
vn 0.9632863 -0.07387192 -0.2581129
vn 0.9632863 -0.07387192 -0.2581129
vn 0.9632862 -0.07387181 -0.2581138
vn 0.7051755 -0.07387187 -0.7051741
vn 0.7051755 -0.0738719 -0.7051739
vn 0.7051755 -0.0738719 -0.7051739
vn 0.7051757 -0.07387192 -0.7051739
vn 0.2581113 -0.073872 -0.9632869
vn 0.2581114 -0.07387201 -0.9632868
vn 0.2581114 -0.07387201 -0.9632868
vn 0.2581115 -0.07387203 -0.9632867
vn -0.258112 -0.07387203 -0.9632866
vn -0.2581117 -0.07387206 -0.9632866
vn -0.2581117 -0.07387206 -0.9632866
vn -0.2581115 -0.07387209 -0.9632867
vn -0.7051736 -0.07387221 -0.705176
vn -0.7051747 -0.07387201 -0.7051749
vn -0.7051747 -0.07387201 -0.7051749
vn -0.7051755 -0.07387187 -0.705174
vn -0.9632868 -0.07387178 -0.2581117
vn -0.9632865 -0.07387193 -0.2581128
vn -0.9632865 -0.07387193 -0.2581128
vn -0.9632862 -0.07387202 -0.2581137
vn -0.9609165 0.1017095 0.2574777
vn -0.9609166 0.1017095 0.2574773
vn -0.9609166 0.1017095 0.2574773
vn -0.9609167 0.1017094 0.2574767
vn -0.70344 0.1017095 0.7034397
vn -0.7034401 0.1017095 0.7034396
vn -0.7034401 0.1017095 0.7034396
vn -0.7034404 0.1017094 0.7034393
vn -0.2574772 0.1017096 0.9609166
vn -0.2574771 0.1017096 0.9609166
vn -0.2574771 0.1017096 0.9609166
vn -0.257477 0.1017096 0.9609166
vn 0.2574763 0.1017096 0.9609168
vn 0.257477 0.1017096 0.9609166
vn 0.257477 0.1017096 0.9609166
vn 0.2574781 0.1017097 0.9609162
vn 0.7034414 0.1017099 0.7034382
vn 0.70344 0.1017097 0.7034397
vn 0.70344 0.1017097 0.7034397
vn 0.7034371 0.1017094 0.7034425
vn 0.9609169 0.1017094 0.2574761
vn 0.9609165 0.1017093 0.2574773
vn 0.9609165 0.1017093 0.2574773
vn 0.960916 0.1017091 0.2574795
vn 0.9609168 0.1017092 -0.2574762
vn 0.9609165 0.1017093 -0.2574774
vn 0.9609165 0.1017093 -0.2574774
vn 0.9609159 0.1017095 -0.2574797
vn 0.7034401 0.1017095 -0.7034397
vn 0.7034391 0.1017096 -0.7034405
vn 0.7034391 0.1017096 -0.7034405
vn 0.7034373 0.1017098 -0.7034423
vn 0.257477 0.1017096 -0.9609166
vn 0.2574772 0.1017096 -0.9609166
vn 0.2574772 0.1017096 -0.9609166
vn 0.2574778 0.1017096 -0.9609164
vn -0.2574772 0.1017096 -0.9609166
vn -0.257477 0.1017096 -0.9609166
vn -0.257477 0.1017096 -0.9609166
vn -0.2574766 0.1017095 -0.9609167
vn -0.7034398 0.1017095 -0.7034398
vn -0.70344 0.1017095 -0.7034397
vn -0.70344 0.1017095 -0.7034397
vn -0.7034402 0.1017095 -0.7034394
vn -0.9609164 0.1017095 -0.2574776
vn -0.9609165 0.1017095 -0.2574772
vn -0.9609165 0.1017095 -0.2574772
vn -0.9609167 0.1017095 -0.2574766
vn -0.9632867 -0.07387207 0.2581117
vn -0.9632863 -0.07387193 0.2581129
vn -0.9632863 -0.07387193 0.2581129
vn -0.9632861 -0.07387181 0.2581137
vn -0.7051753 -0.07387187 0.7051742
vn -0.7051755 -0.0738719 0.7051741
vn -0.7051755 -0.0738719 0.7051741
vn -0.7051756 -0.07387192 0.7051739
vn -0.258112 -0.07387202 0.9632866
vn -0.2581121 -0.07387202 0.9632866
vn -0.2581121 -0.07387202 0.9632866
vn -0.2581121 -0.07387203 0.9632866
vn 0.2581132 -0.07387201 0.9632864
vn 0.2581124 -0.0738721 0.9632865
vn 0.2581124 -0.0738721 0.9632865
vn 0.2581118 -0.07387218 0.9632867
vn 0.7051721 -0.07387247 0.7051774
vn 0.7051728 -0.07387237 0.7051768
vn 0.7051728 -0.07387237 0.7051768
vn 0.7051733 -0.07387228 0.7051762
vn 0.9632859 -0.07387246 0.2581146
vn 0.9632868 -0.07387207 0.2581116
vn 0.9632868 -0.07387207 0.2581116
vn 0.9632873 -0.0738718 0.2581094
vn 0.9632859 -0.0738717 -0.2581148
vn 0.9632868 -0.07387208 -0.2581117
vn 0.9632868 -0.07387208 -0.2581117
vn 0.9632873 -0.07387236 -0.2581095
vn 0.7051722 -0.07387224 -0.7051773
vn 0.7051729 -0.07387236 -0.7051766
vn 0.7051729 -0.07387236 -0.7051766
vn 0.7051734 -0.07387243 -0.7051761
vn 0.2581128 -0.0738722 -0.9632865
vn 0.258112 -0.0738721 -0.9632866
vn 0.258112 -0.0738721 -0.9632866
vn 0.2581115 -0.07387203 -0.9632867
vn -0.2581117 -0.07387204 -0.9632868
vn -0.2581118 -0.07387203 -0.9632868
vn -0.2581118 -0.07387203 -0.9632868
vn -0.2581118 -0.07387201 -0.9632866
vn -0.7051751 -0.07387193 -0.7051743
vn -0.7051754 -0.0738719 -0.7051741
vn -0.7051754 -0.0738719 -0.7051741
vn -0.7051755 -0.07387187 -0.705174
vn -0.9632868 -0.07387178 -0.2581117
vn -0.9632865 -0.07387193 -0.2581128
vn -0.9632865 -0.07387193 -0.2581128
vn -0.9632862 -0.07387202 -0.2581137
vn -0.9609159 0.1017098 0.2574792
vn -0.9609166 0.1017097 0.2574773
vn -0.9609166 0.1017097 0.2574773
vn -0.9609175 0.1017093 0.2574738
vn -0.70344 0.1017095 0.7034397
vn -0.7034401 0.1017095 0.7034396
vn -0.7034401 0.1017095 0.7034396
vn -0.7034404 0.1017094 0.7034393
vn -0.2574767 0.1017095 0.9609167
vn -0.2574766 0.1017096 0.9609168
vn -0.2574766 0.1017096 0.9609168
vn -0.2574762 0.1017096 0.9609168
vn 0.2574767 0.1017096 0.9609166
vn 0.257477 0.1017096 0.9609166
vn 0.257477 0.1017096 0.9609166
vn 0.2574774 0.1017096 0.9609165
vn 0.7034398 0.1017097 0.7034398
vn 0.7034395 0.1017096 0.7034402
vn 0.7034395 0.1017096 0.7034402
vn 0.7034387 0.1017096 0.7034409
vn 0.9609169 0.1017096 0.2574761
vn 0.9609168 0.1017096 0.2574763
vn 0.9609168 0.1017096 0.2574763
vn 0.9609167 0.1017095 0.2574766
vn 0.9609168 0.1017095 -0.2574762
vn 0.9609168 0.1017096 -0.2574764
vn 0.9609168 0.1017096 -0.2574764
vn 0.9609167 0.1017096 -0.2574767
vn 0.7034392 0.1017096 -0.7034405
vn 0.7034391 0.1017096 -0.7034405
vn 0.7034391 0.1017096 -0.7034405
vn 0.7034389 0.1017096 -0.7034408
vn 0.257477 0.1017096 -0.9609166
vn 0.257477 0.1017096 -0.9609166
vn 0.257477 0.1017096 -0.9609166
vn 0.257477 0.1017096 -0.9609166
vn -0.2574767 0.1017096 -0.9609167
vn -0.2574764 0.1017096 -0.9609168
vn -0.2574764 0.1017096 -0.9609168
vn -0.2574758 0.1017095 -0.9609169
vn -0.7034398 0.1017095 -0.7034398
vn -0.70344 0.1017095 -0.7034397
vn -0.70344 0.1017095 -0.7034397
vn -0.7034402 0.1017095 -0.7034394
vn -0.9609161 0.1017095 -0.2574791
vn -0.9609165 0.1017097 -0.2574773
vn -0.9609165 0.1017097 -0.2574773
vn -0.9609175 0.10171 -0.2574737
vn -0.9632875 -0.07387245 0.2581088
vn -0.9632868 -0.07387209 0.2581117
vn -0.9632868 -0.07387209 0.2581117
vn -0.9632861 -0.07387181 0.2581137
vn -0.7051753 -0.07387187 0.7051742
vn -0.7051755 -0.0738719 0.7051741
vn -0.7051755 -0.0738719 0.7051741
vn -0.7051756 -0.07387192 0.7051739
vn -0.2581112 -0.073872 0.9632868
vn -0.2581114 -0.07387203 0.9632868
vn -0.2581114 -0.07387203 0.9632868
vn -0.2581115 -0.07387204 0.9632868
vn 0.2581124 -0.07387201 0.9632865
vn 0.2581121 -0.07387206 0.9632866
vn 0.2581121 -0.07387206 0.9632866
vn 0.2581118 -0.0738721 0.9632867
vn 0.7051737 -0.0738722 0.7051758
vn 0.7051741 -0.07387213 0.7051755
vn 0.7051741 -0.07387213 0.7051755
vn 0.7051744 -0.07387207 0.705175
vn 0.9632866 -0.07387208 0.2581116
vn 0.9632868 -0.07387207 0.2581116
vn 0.9632868 -0.07387207 0.2581116
vn 0.9632868 -0.07387207 0.2581115
vn 0.9632866 -0.07387207 -0.2581118
vn 0.9632868 -0.07387208 -0.2581117
vn 0.9632868 -0.07387208 -0.2581117
vn 0.9632868 -0.07387209 -0.2581117
vn 0.7051738 -0.07387204 -0.7051757
vn 0.7051743 -0.07387213 -0.7051753
vn 0.7051743 -0.07387213 -0.7051753
vn 0.7051746 -0.07387218 -0.705175
vn 0.258112 -0.0738721 -0.9632866
vn 0.2581117 -0.07387206 -0.9632866
vn 0.2581117 -0.07387206 -0.9632866
vn 0.2581115 -0.07387203 -0.9632867
vn -0.2581109 -0.07387204 -0.9632869
vn -0.2581111 -0.07387202 -0.9632869
vn -0.2581111 -0.07387202 -0.9632869
vn -0.2581112 -0.073872 -0.9632868
vn -0.7051751 -0.07387193 -0.7051743
vn -0.7051754 -0.0738719 -0.7051741
vn -0.7051754 -0.0738719 -0.7051741
vn -0.7051755 -0.07387187 -0.705174
vn -0.9632875 -0.07387171 -0.2581087
vn -0.9632868 -0.07387207 -0.2581116
vn -0.9632868 -0.07387207 -0.2581116
vn -0.9632862 -0.07387234 -0.2581137
vn 0 -0.08268495 0.9965758
vn 0 -0.08268495 0.9965758
vn 0 -0.08268495 0.9965758
vn 0 -0.08268495 0.9965758
vn 0 0.08268495 -0.9965758
vn 0 0.08268495 -0.9965758
vn 0 0.08268495 -0.9965758
vn 0 0.08268495 -0.9965758
vn 0 1 0
vn 0 1 0
vn 0 1 0
vn 0 1 0
vn 0 -1 0
vn 0 -1 0
vn 0 -1 0
vn 0 -1 0
vn 0 0.9604183 0.2785616
vn 0 0.9604183 0.2785616
vn 0 0.9604183 0.2785616
vn 0 0.9604183 0.2785616
vn 0 0.9604183 -0.2785616
vn 0 0.9604183 -0.2785616
vn 0 0.9604183 -0.2785616
vn 0 0.9604183 -0.2785616
vn 0 0 1
vn 0 0 1
vn 0 0 1
vn 0 0 1
vn 0.9999999 0 0
vn 0.9999999 0 0
vn 0.9999999 0 0
vn 0.9999999 0 0
vn -0.9999999 0 0
vn -0.9999999 0 0
vn -0.9999999 0 0
vn -0.9999999 0 0
vn 0 0 -1
vn 0 0 -1
vn 0 0 -1
vn 0 0 -1
vn -1 0 0
vn -1 0 0
vn -1 0 0
vn -1 0 0
vn -1 0 0
vn -0.9999999 0 0
vn 1 0 0
vn 1 0 0
vn 1 0 0
vn 1 0 0
vn 1 0 0
vn 1 0 0

vt 0.5397675 0.5974271
vt 0.5057203 0.8155487
vt 0.5643698 0.601956
vt 0.5185135 0.8179036
vt 0.5642525 0.6017051
vt 0.5183758 0.8176553
vt 0.5885786 0.6075689
vt 0.5310254 0.8207045
vt 0.5884722 0.607326
vt 0.5308941 0.8205053
vt 0.6124685 0.6145137
vt 0.5433722 0.8242429
vt 0.3123029 0.6182527
vt 0.3850697 0.8268654
vt 0.336181 0.6106462
vt 0.3974864 0.8229101
vt 0.3360908 0.6106536
vt 0.3974019 0.8229905
vt 0.3603333 0.6043627
vt 0.410008 0.8197193
vt 0.360251 0.6043739
vt 0.4099031 0.81973
vt 0.3847926 0.5994143
vt 0.4226647 0.8171511
vt 0.3847206 0.599432
vt 0.4225662 0.8171679
vt 0.4094847 0.595818
vt 0.4354435 0.8152886
vt 0.409429 0.5958425
vt 0.4353543 0.8153116
vt 0.4343351 0.5935843
vt 0.4483054 0.8141373
vt 0.4343071 0.5936167
vt 0.4482328 0.814167
vt 0.4592638 0.5927196
vt 0.4612103 0.8137004
vt 0.4643176 0.5927708
vt 0.4662114 0.8135058
vt 0.4892731 0.5932341
vt 0.4791883 0.8137466
vt 0.4902044 0.5929537
vt 0.4800786 0.8134709
vt 0.5151249 0.5947775
vt 0.4930373 0.8144193
vt 0.51506 0.5945072
vt 0.4929416 0.8141525
vt 0.5398617 0.5976878
vt 0.5058385 0.8158065
vt 0.502472 0.861442
vt 0.5142708 0.9875748
vt 0.5154256 0.8599712
vt 0.5322066 0.9855382
vt 0.5154189 0.8600203
vt 0.5322001 0.9855874
vt 0.5283042 0.858038
vt 0.5500411 0.9828427
vt 0.5282956 0.8580869
vt 0.5500326 0.9828916
vt 0.5410923 0.8555962
vt 0.567751 0.979443
vt 0.3837103 0.8517106
vt 0.3507788 0.9740389
vt 0.3963636 0.8548498
vt 0.3682986 0.9783854
vt 0.3963525 0.8548014
vt 0.3682875 0.9783372
vt 0.4091201 0.8574374
vt 0.3859656 0.9819869
vt 0.409111 0.8573886
vt 0.3859566 0.9819382
vt 0.4219728 0.8595173
vt 0.4037653 0.9848856
vt 0.4219657 0.8594682
vt 0.4037582 0.9848363
vt 0.4349017 0.8610861
vt 0.4216696 0.9870766
vt 0.4348966 0.8610368
vt 0.4216644 0.9870273
vt 0.4478865 0.8621416
vt 0.4396504 0.988557
vt 0.4478832 0.8620922
vt 0.4396472 0.9885077
vt 0.4609067 0.8626822
vt 0.4576797 0.9893245
vt 0.4617989 0.8626326
vt 0.4585719 0.989275
vt 0.4748355 0.8627067
vt 0.4766227 0.9893776
vt 0.4764484 0.8627421
vt 0.4782353 0.9894129
vt 0.4894777 0.8623002
vt 0.4962759 0.9888011
vt 0.489475 0.8623497
vt 0.4962731 0.9888507
vt 0.5024767 0.8613926
vt 0.5142755 0.9875255
vt 0.2331091 0.5984523
vt 0.199062 0.8165739
vt 0.2577114 0.6029811
vt 0.2118552 0.8189288
vt 0.257594 0.6027304
vt 0.2117175 0.8186806
vt 0.2819201 0.6085941
vt 0.2243671 0.8217298
vt 0.2818138 0.6083512
vt 0.2242358 0.8215305
vt 0.3058101 0.6155388
vt 0.2367139 0.825268
vt 0.005644485 0.6192778
vt 0.07841125 0.8278906
vt 0.02952264 0.6116713
vt 0.09082782 0.8239353
vt 0.02943236 0.6116787
vt 0.09074359 0.8240156
vt 0.05367479 0.6053878
vt 0.1033497 0.8207443
vt 0.0535926 0.605399
vt 0.1032448 0.8207552
vt 0.07813416 0.6004394
vt 0.1160064 0.8181762
vt 0.07806221 0.6004571
vt 0.115908 0.8181929
vt 0.1028261 0.5968431
vt 0.1287852 0.8163136
vt 0.1027707 0.5968676
vt 0.1286959 0.8163366
vt 0.1276767 0.5946094
vt 0.1416471 0.8151624
vt 0.1276489 0.5946417
vt 0.1415732 0.815192
vt 0.1526072 0.5937447
vt 0.1545515 0.8147256
vt 0.1576592 0.593796
vt 0.1595531 0.814531
vt 0.1826147 0.5942593
vt 0.1725299 0.8147719
vt 0.1835463 0.5939788
vt 0.1734203 0.8144961
vt 0.2084666 0.5958027
vt 0.1863789 0.8154445
vt 0.2084015 0.5955323
vt 0.1862833 0.8151777
vt 0.2332033 0.598713
vt 0.1991802 0.8168317
vt 0.1958136 0.8624671
vt 0.2076125 0.9885999
vt 0.2087672 0.8609962
vt 0.2255482 0.9865633
vt 0.2087605 0.8610455
vt 0.2255416 0.9866126
vt 0.2216457 0.8590631
vt 0.2433827 0.9838678
vt 0.2216372 0.859112
vt 0.2433742 0.9839168
vt 0.2344339 0.8566214
vt 0.2610927 0.9804682
vt 0.07705188 0.8527358
vt 0.0441203 0.975064
vt 0.08970509 0.8558749
vt 0.06164022 0.9794106
vt 0.08969414 0.8558266
vt 0.06162911 0.9793622
vt 0.1024617 0.8584626
vt 0.07930723 0.9830121
vt 0.1024526 0.8584138
vt 0.07929815 0.9829632
vt 0.1153144 0.8605425
vt 0.09710686 0.9859107
vt 0.1153073 0.8604934
vt 0.09709984 0.9858615
vt 0.1282434 0.8621114
vt 0.1150112 0.9881018
vt 0.1282382 0.862062
vt 0.1150062 0.9880524
vt 0.1412282 0.8631669
vt 0.1329923 0.9895822
vt 0.1412248 0.8631173
vt 0.1329888 0.9895327
vt 0.1542483 0.8637073
vt 0.1510213 0.9903495
vt 0.1551405 0.8636577
vt 0.1519136 0.9903001
vt 0.1681771 0.8637318
vt 0.1699642 0.9904027
vt 0.16979 0.863767
vt 0.171577 0.9904379
vt 0.1828194 0.8633252
vt 0.1896176 0.9898262
vt 0.1828166 0.8633748
vt 0.1896148 0.9898758
vt 0.1958183 0.8624178
vt 0.2076171 0.9885505
vt 0.8544104 0.5934136
vt 0.820363 0.8115352
vt 0.8790125 0.5979424
vt 0.8331562 0.8138901
vt 0.878895 0.5976916
vt 0.8330185 0.8136418
vt 0.9032211 0.6035553
vt 0.845668 0.8166909
vt 0.9031149 0.6033124
vt 0.8455368 0.8164917
vt 0.9271113 0.6105
vt 0.8580149 0.8202294
vt 0.6269456 0.6142392
vt 0.6997123 0.8228519
vt 0.6508237 0.6066327
vt 0.7121289 0.8188965
vt 0.6507334 0.60664
vt 0.7120445 0.8189769
vt 0.6749759 0.6003491
vt 0.7246507 0.8157057
vt 0.6748936 0.6003603
vt 0.7245458 0.8157164
vt 0.6994352 0.5954007
vt 0.7373074 0.8131374
vt 0.6993632 0.5954183
vt 0.7372089 0.8131542
vt 0.7241272 0.5918043
vt 0.7500862 0.8112749
vt 0.7240716 0.5918288
vt 0.7499971 0.811298
vt 0.7489776 0.5895707
vt 0.7629482 0.8101237
vt 0.7489498 0.5896031
vt 0.7628747 0.8101535
vt 0.7739074 0.588706
vt 0.7758527 0.809687
vt 0.7789603 0.5887573
vt 0.7808542 0.8094922
vt 0.8039157 0.5892205
vt 0.793831 0.8097332
vt 0.8048476 0.5889401
vt 0.7947212 0.8094573
vt 0.8297678 0.590764
vt 0.8076797 0.8104057
vt 0.8297026 0.5904936
vt 0.8075843 0.8101391
vt 0.8545043 0.5936743
vt 0.8204813 0.811793
vt 0.8171147 0.8574284
vt 0.8289136 0.9835613
vt 0.8300682 0.8559576
vt 0.8468493 0.9815247
vt 0.8300616 0.8560066
vt 0.8468427 0.9815738
vt 0.8429468 0.8540243
vt 0.8646838 0.978829
vt 0.8429384 0.8540733
vt 0.8646753 0.9788779
vt 0.8557351 0.8515826
vt 0.8823938 0.9754294
vt 0.6983529 0.847697
vt 0.6654214 0.9700254
vt 0.7110062 0.8508362
vt 0.6829413 0.9743719
vt 0.7109953 0.8507879
vt 0.6829303 0.9743236
vt 0.7237628 0.8534238
vt 0.7006084 0.9779733
vt 0.7237537 0.853375
vt 0.7005992 0.9779244
vt 0.7366155 0.8555036
vt 0.7184079 0.9808718
vt 0.7366084 0.8554546
vt 0.7184009 0.9808228
vt 0.7495444 0.8570727
vt 0.7363123 0.9830631
vt 0.7495391 0.8570232
vt 0.736307 0.9830137
vt 0.7625291 0.8581281
vt 0.7542931 0.9845434
vt 0.7625259 0.8580787
vt 0.7542898 0.9844941
vt 0.7755493 0.8586686
vt 0.7723223 0.9853109
vt 0.7764416 0.858619
vt 0.7732147 0.9852613
vt 0.7894782 0.8586931
vt 0.7912653 0.9853639
vt 0.791091 0.8587283
vt 0.792878 0.9853992
vt 0.8041204 0.8582866
vt 0.8109186 0.9847874
vt 0.8041178 0.8583361
vt 0.8109159 0.9848371
vt 0.8171195 0.857379
vt 0.8289183 0.9835119
vt 0.0006024837 0.07271281
vt 0.6006026 0.07271275
vt 0.0006024837 0.05264409
vt 0.6006026 0.05264403
vt 0.6006026 0.1327128
vt 0.0006024837 0.1327128
vt 0.6006026 0.1527815
vt 0.0006024837 0.1527815
vt 0.0006024837 0.02708595
vt 0.6006026 0.02708595
vt 0.0006024837 0.005539127
vt 0.6006026 0.005539127
vt 0.0006024837 0.1327128
vt 0.6006026 0.1327128
vt 0.0006024837 0.07271282
vt 0.6006026 0.07271276
vt 0.0006024837 0.05264406
vt 0.6006026 0.05264406
vt 0.0006024837 0.03262505
vt 0.6006026 0.03262505
vt 0.6006026 0.1527815
vt 0.0006024837 0.1527815
vt 0.6006026 0.1728005
vt 0.0006024837 0.1728005
vt 0.0006024837 0.03262508
vt 0.6006026 0.03262503
vt 0.0006024837 0.02708598
vt 0.6006026 0.02708593
vt 0.9944921 0.2722974
vt 0.9944921 0.2938442
vt 1.000031 0.2722974
vt 1.000031 0.2938442
vt 0.005461592 0.2755909
vt 0.005461592 0.2540441
vt -7.754192E-05 0.2755909
vt -7.754192E-05 0.2540441
vt 0.6006026 2.04891E-08
vt 0.0006024837 2.04891E-08
vt 0.6006026 0.005539129
vt 0.0006024837 0.005539129
vt 0.01996611 0.186812
vt 0.01996613 0.2468125
vt 0.02554263 0.2060388
vt 0.02554263 0.2275858
vt -3.395975E-05 0.1884714
vt -3.395975E-05 0.2484719
vt 1.000029 0.2611694
vt 1.000029 0.2011692
vt 0.9800286 0.25951
vt 0.9800286 0.1995098
vt 0.974452 0.2402834
vt 0.974452 0.2187365

g Default_Prototype
usemtl Default_Prototype
usemap Default_Prototype
f 2/2/2 1/1/1 3/3/3
f 4/4/4 2/2/2 3/3/3
f 6/6/6 5/5/5 7/7/7
f 8/8/8 6/6/6 7/7/7
f 10/10/10 9/9/9 11/11/11
f 12/12/12 10/10/10 11/11/11
f 14/14/14 13/13/13 15/15/15
f 16/16/16 14/14/14 15/15/15
f 18/18/18 17/17/17 19/19/19
f 20/20/20 18/18/18 19/19/19
f 22/22/22 21/21/21 23/23/23
f 24/24/24 22/22/22 23/23/23
f 26/26/26 25/25/25 27/27/27
f 28/28/28 26/26/26 27/27/27
f 30/30/30 29/29/29 31/31/31
f 32/32/32 30/30/30 31/31/31
f 34/34/34 33/33/33 35/35/35
f 36/36/36 34/34/34 35/35/35
f 38/38/38 37/37/37 39/39/39
f 40/40/40 38/38/38 39/39/39
f 42/42/42 41/41/41 43/43/43
f 44/44/44 42/42/42 43/43/43
f 46/46/46 45/45/45 47/47/47
f 48/48/48 46/46/46 47/47/47
f 50/50/50 49/49/49 51/51/51
f 52/52/52 50/50/50 51/51/51
f 54/54/54 53/53/53 55/55/55
f 56/56/56 54/54/54 55/55/55
f 58/58/58 57/57/57 59/59/59
f 60/60/60 58/58/58 59/59/59
f 62/62/62 61/61/61 63/63/63
f 64/64/64 62/62/62 63/63/63
f 66/66/66 65/65/65 67/67/67
f 68/68/68 66/66/66 67/67/67
f 70/70/70 69/69/69 71/71/71
f 72/72/72 70/70/70 71/71/71
f 74/74/74 73/73/73 75/75/75
f 76/76/76 74/74/74 75/75/75
f 78/78/78 77/77/77 79/79/79
f 80/80/80 78/78/78 79/79/79
f 82/82/82 81/81/81 83/83/83
f 84/84/84 82/82/82 83/83/83
f 86/86/86 85/85/85 87/87/87
f 88/88/88 86/86/86 87/87/87
f 90/90/90 89/89/89 91/91/91
f 92/92/92 90/90/90 91/91/91
f 94/94/94 93/93/93 95/95/95
f 96/96/96 94/94/94 95/95/95
f 98/98/98 97/97/97 99/99/99
f 100/100/100 98/98/98 99/99/99
f 102/102/102 101/101/101 103/103/103
f 104/104/104 102/102/102 103/103/103
f 106/106/106 105/105/105 107/107/107
f 108/108/108 106/106/106 107/107/107
f 110/110/110 109/109/109 111/111/111
f 112/112/112 110/110/110 111/111/111
f 114/114/114 113/113/113 115/115/115
f 116/116/116 114/114/114 115/115/115
f 118/118/118 117/117/117 119/119/119
f 120/120/120 118/118/118 119/119/119
f 122/122/122 121/121/121 123/123/123
f 124/124/124 122/122/122 123/123/123
f 126/126/126 125/125/125 127/127/127
f 128/128/128 126/126/126 127/127/127
f 130/130/130 129/129/129 131/131/131
f 132/132/132 130/130/130 131/131/131
f 134/134/134 133/133/133 135/135/135
f 136/136/136 134/134/134 135/135/135
f 138/138/138 137/137/137 139/139/139
f 140/140/140 138/138/138 139/139/139
f 142/142/142 141/141/141 143/143/143
f 144/144/144 142/142/142 143/143/143
f 146/146/146 145/145/145 147/147/147
f 148/148/148 146/146/146 147/147/147
f 150/150/150 149/149/149 151/151/151
f 152/152/152 150/150/150 151/151/151
f 154/154/154 153/153/153 155/155/155
f 156/156/156 154/154/154 155/155/155
f 158/158/158 157/157/157 159/159/159
f 160/160/160 158/158/158 159/159/159
f 162/162/162 161/161/161 163/163/163
f 164/164/164 162/162/162 163/163/163
f 166/166/166 165/165/165 167/167/167
f 168/168/168 166/166/166 167/167/167
f 170/170/170 169/169/169 171/171/171
f 172/172/172 170/170/170 171/171/171
f 174/174/174 173/173/173 175/175/175
f 176/176/176 174/174/174 175/175/175
f 178/178/178 177/177/177 179/179/179
f 180/180/180 178/178/178 179/179/179
f 182/182/182 181/181/181 183/183/183
f 184/184/184 182/182/182 183/183/183
f 186/186/186 185/185/185 187/187/187
f 188/188/188 186/186/186 187/187/187
f 190/190/190 189/189/189 191/191/191
f 192/192/192 190/190/190 191/191/191
f 194/194/194 193/193/193 195/195/195
f 196/196/196 194/194/194 195/195/195
f 198/198/198 197/197/197 199/199/199
f 200/200/200 198/198/198 199/199/199
f 202/202/202 201/201/201 203/203/203
f 204/204/204 202/202/202 203/203/203
f 206/206/206 205/205/205 207/207/207
f 208/208/208 206/206/206 207/207/207
f 210/210/210 209/209/209 211/211/211
f 212/212/212 210/210/210 211/211/211
f 214/214/214 213/213/213 215/215/215
f 216/216/216 214/214/214 215/215/215
f 218/218/218 217/217/217 219/219/219
f 220/220/220 218/218/218 219/219/219
f 222/222/222 221/221/221 223/223/223
f 224/224/224 222/222/222 223/223/223
f 226/226/226 225/225/225 227/227/227
f 228/228/228 226/226/226 227/227/227
f 230/230/230 229/229/229 231/231/231
f 232/232/232 230/230/230 231/231/231
f 234/234/234 233/233/233 235/235/235
f 236/236/236 234/234/234 235/235/235
f 238/238/238 237/237/237 239/239/239
f 240/240/240 238/238/238 239/239/239
f 242/242/242 241/241/241 243/243/243
f 244/244/244 242/242/242 243/243/243
f 246/246/246 245/245/245 247/247/247
f 248/248/248 246/246/246 247/247/247
f 250/250/250 249/249/249 251/251/251
f 252/252/252 250/250/250 251/251/251
f 254/254/254 253/253/253 255/255/255
f 256/256/256 254/254/254 255/255/255
f 258/258/258 257/257/257 259/259/259
f 260/260/260 258/258/258 259/259/259
f 262/262/262 261/261/261 263/263/263
f 264/264/264 262/262/262 263/263/263
f 266/266/266 265/265/265 267/267/267
f 268/268/268 266/266/266 267/267/267
f 270/270/270 269/269/269 271/271/271
f 272/272/272 270/270/270 271/271/271
f 274/274/274 273/273/273 275/275/275
f 276/276/276 274/274/274 275/275/275
f 278/278/278 277/277/277 279/279/279
f 280/280/280 278/278/278 279/279/279
f 282/282/282 281/281/281 283/283/283
f 284/284/284 282/282/282 283/283/283
f 286/286/286 285/285/285 287/287/287
f 288/288/288 286/286/286 287/287/287
f 290/290/290 289/289/289 291/291/291
f 292/292/292 290/290/290 291/291/291
f 294/294/294 293/293/293 295/295/295
f 296/296/296 294/294/294 295/295/295
f 298/298/298 297/297/297 299/299/299
f 300/300/300 298/298/298 299/299/299
f 302/302/302 301/301/301 303/303/303
f 304/304/304 302/302/302 303/303/303
f 306/306/306 305/305/305 307/307/307
f 308/308/308 306/306/306 307/307/307
f 310/310/310 309/309/309 311/311/311
f 312/312/312 310/310/310 311/311/311
f 314/314/314 313/313/313 315/315/315
f 316/316/316 314/314/314 315/315/315
f 318/318/318 317/317/317 319/319/319
f 320/320/320 318/318/318 319/319/319
f 322/322/322 321/321/321 323/323/323
f 324/324/324 322/322/322 323/323/323
f 326/326/326 325/325/325 327/327/327
f 328/328/328 326/326/326 327/327/327
f 330/330/330 329/329/329 331/331/331
f 332/332/332 330/330/330 331/331/331
f 334/334/334 333/333/333 329/329/329
f 330/330/330 334/334/334 329/329/329
f 336/336/336 335/335/335 337/337/337
f 338/338/338 336/336/336 337/337/337
f 338/338/338 337/337/337 339/339/339
f 340/340/340 338/338/338 339/339/339
