mtllib ./BannisterFull1_2.mtl
g BanniserFull1_2
v -0.64 0 -4.721805E-07
v -0.5728001 0.634882 -4.763715E-07
v -0.6212437 0 0.06999953
v -0.5630468 0.634882 0.03639953
v -0.6212437 0 0.06999953
v -0.5630468 0.634882 0.03639953
v -0.57 0 0.1212431
v -0.5364 0.634882 0.06304619
v -0.57 0 0.1212431
v -0.5364 0.634882 0.06304619
v -0.5000001 0 0.1399995
v -0.5000001 0.634882 0.07279955
v -0.5000001 0 0.1399995
v -0.5000001 0.634882 0.07279955
v -0.4300001 0 0.1212431
v -0.4636 0.634882 0.06304619
v -0.4300001 0 0.1212431
v -0.4636 0.634882 0.06304619
v -0.3787566 0 0.06999953
v -0.4369534 0.634882 0.03639954
v -0.3787566 0 0.06999953
v -0.4369534 0.634882 0.03639954
v -0.3600001 0 -4.847534E-07
v -0.4272 0.634882 -4.824251E-07
v -0.3600001 0 -4.847534E-07
v -0.4272 0.634882 -4.824251E-07
v -0.3787566 0 -0.07000047
v -0.4369534 0.634882 -0.03640048
v -0.3787566 0 -0.07000047
v -0.4369534 0.634882 -0.03640048
v -0.4300001 0 -0.121244
v -0.4636 0.634882 -0.06304714
v -0.4300001 0 -0.121244
v -0.4636 0.634882 -0.06304714
v -0.5000001 0 -0.1400005
v -0.5000001 0.634882 -0.07280049
v -0.5000001 0 -0.1400005
v -0.5000001 0.634882 -0.07280049
v -0.57 0 -0.121244
v -0.5364 0.634882 -0.06304714
v -0.57 0 -0.121244
v -0.5364 0.634882 -0.06304714
v -0.6212437 0 -0.0700005
v -0.5630468 0.634882 -0.0364005
v -0.6212437 0 -0.0700005
v -0.5630468 0.634882 -0.0364005
v -0.64 0 -4.721805E-07
v -0.5728001 0.634882 -4.763715E-07
v -0.5728001 0.634882 -4.763715E-07
v -0.6008001 1 -4.745089E-07
v -0.5630468 0.634882 0.03639953
v -0.5872955 1 0.05039953
v -0.5630468 0.634882 0.03639953
v -0.5872955 1 0.05039953
v -0.5364 0.634882 0.06304619
v -0.5504001 1 0.08729489
v -0.5364 0.634882 0.06304619
v -0.5504001 1 0.08729489
v -0.5000001 0.634882 0.07279955
v -0.5000001 1 0.1007995
v -0.5000001 0.634882 0.07279955
v -0.5000001 1 0.1007995
v -0.4636 0.634882 0.06304619
v -0.4496 1 0.08729489
v -0.4636 0.634882 0.06304619
v -0.4496 1 0.08729489
v -0.4369534 0.634882 0.03639954
v -0.4127048 1 0.05039953
v -0.4369534 0.634882 0.03639954
v -0.4127048 1 0.05039953
v -0.4272 0.634882 -4.824251E-07
v -0.3992 1 -4.833564E-07
v -0.4272 0.634882 -4.824251E-07
v -0.3992 1 -4.833564E-07
v -0.4369534 0.634882 -0.03640048
v -0.4127048 1 -0.05040047
v -0.4369534 0.634882 -0.03640048
v -0.4127048 1 -0.05040047
v -0.4636 0.634882 -0.06304714
v -0.4496 1 -0.08729585
v -0.4636 0.634882 -0.06304714
v -0.4496 1 -0.08729585
v -0.5000001 0.634882 -0.07280049
v -0.5000001 1 -0.1008005
v -0.5000001 0.634882 -0.07280049
v -0.5000001 1 -0.1008005
v -0.5364 0.634882 -0.06304714
v -0.5504001 1 -0.08729585
v -0.5364 0.634882 -0.06304714
v -0.5504001 1 -0.08729585
v -0.5630468 0.634882 -0.0364005
v -0.5872954 1 -0.05040049
v -0.5630468 0.634882 -0.0364005
v -0.5872954 1 -0.05040049
v -0.5728001 0.634882 -4.763715E-07
v -0.6008001 1 -4.745089E-07
v 0.36 0 -4.721805E-07
v 0.4271999 0.634882 -4.763715E-07
v 0.3787565 0 0.06999953
v 0.4369532 0.634882 0.03639953
v 0.3787565 0 0.06999953
v 0.4369532 0.634882 0.03639953
v 0.43 0 0.1212431
v 0.4635999 0.634882 0.06304619
v 0.43 0 0.1212431
v 0.4635999 0.634882 0.06304619
v 0.4999999 0 0.1399995
v 0.4999999 0.634882 0.07279955
v 0.4999999 0 0.1399995
v 0.4999999 0.634882 0.07279955
v 0.5700001 0 0.1212431
v 0.5363997 0.634882 0.06304619
v 0.5700001 0 0.1212431
v 0.5363997 0.634882 0.06304619
v 0.6212434 0 0.06999953
v 0.5630466 0.634882 0.03639954
v 0.6212434 0 0.06999953
v 0.5630466 0.634882 0.03639954
v 0.6399997 0 -4.847534E-07
v 0.5728 0.634882 -4.824251E-07
v 0.6399997 0 -4.847534E-07
v 0.5728 0.634882 -4.824251E-07
v 0.6212434 0 -0.07000047
v 0.5630466 0.634882 -0.03640048
v 0.6212434 0 -0.07000047
v 0.5630466 0.634882 -0.03640048
v 0.5699998 0 -0.121244
v 0.5363997 0.634882 -0.06304714
v 0.5699998 0 -0.121244
v 0.5363997 0.634882 -0.06304714
v 0.4999999 0 -0.1400005
v 0.4999999 0.634882 -0.07280049
v 0.4999999 0 -0.1400005
v 0.4999999 0.634882 -0.07280049
v 0.43 0 -0.121244
v 0.4635999 0.634882 -0.06304714
v 0.43 0 -0.121244
v 0.4635999 0.634882 -0.06304714
v 0.3787565 0 -0.0700005
v 0.4369532 0.634882 -0.0364005
v 0.3787565 0 -0.0700005
v 0.4369532 0.634882 -0.0364005
v 0.36 0 -4.721805E-07
v 0.4271999 0.634882 -4.763715E-07
v 0.4271999 0.634882 -4.763715E-07
v 0.3991999 1 -4.745089E-07
v 0.4369532 0.634882 0.03639953
v 0.4127046 1 0.05039953
v 0.4369532 0.634882 0.03639953
v 0.4127046 1 0.05039953
v 0.4635999 0.634882 0.06304619
v 0.4495999 1 0.08729489
v 0.4635999 0.634882 0.06304619
v 0.4495999 1 0.08729489
v 0.4999999 0.634882 0.07279955
v 0.4999999 1 0.1007995
v 0.4999999 0.634882 0.07279955
v 0.4999999 1 0.1007995
v 0.5363997 0.634882 0.06304619
v 0.5503999 1 0.08729489
v 0.5363997 0.634882 0.06304619
v 0.5503999 1 0.08729489
v 0.5630466 0.634882 0.03639954
v 0.5872954 1 0.05039953
v 0.5630466 0.634882 0.03639954
v 0.5872954 1 0.05039953
v 0.5728 0.634882 -4.824251E-07
v 0.6007999 1 -4.833564E-07
v 0.5728 0.634882 -4.824251E-07
v 0.6007999 1 -4.833564E-07
v 0.5630466 0.634882 -0.03640048
v 0.5872954 1 -0.05040047
v 0.5630466 0.634882 -0.03640048
v 0.5872954 1 -0.05040047
v 0.5363997 0.634882 -0.06304714
v 0.5503999 1 -0.08729585
v 0.5363997 0.634882 -0.06304714
v 0.5503999 1 -0.08729585
v 0.4999999 0.634882 -0.07280049
v 0.4999999 1 -0.1008005
v 0.4999999 0.634882 -0.07280049
v 0.4999999 1 -0.1008005
v 0.4635999 0.634882 -0.06304714
v 0.4495999 1 -0.08729585
v 0.4635999 0.634882 -0.06304714
v 0.4495999 1 -0.08729585
v 0.4369532 0.634882 -0.0364005
v 0.4127046 1 -0.05040049
v 0.4369532 0.634882 -0.0364005
v 0.4127046 1 -0.05040049
v 0.4271999 0.634882 -4.763715E-07
v 0.3991999 1 -4.745089E-07
v 0.9999999 1 0.1417028
v -1 1 0.1417028
v 0.9999999 1.1 0.1499998
v -1 1.1 0.1499998
v -1 1 -0.1582972
v 0.9999999 1 -0.1582972
v -1 1.1 -0.1500002
v 0.9999999 1.1 -0.1500002
v 0.9999999 1.155579 0.05386685
v -1 1.155579 0.05386685
v 0.9999999 1.155579 -0.05386732
v -1 1.155579 -0.05386732
v 0.9999999 1 -0.1582972
v -1 1 -0.1582972
v 0.9999999 1 0.1417028
v -1 1 0.1417028
v 0.9999999 1.1 0.1499998
v -1 1.1 0.1499998
v 0.9999999 1.127883 0.05386685
v -1 1.127883 0.05386685
v -1 1.1 -0.1500002
v 0.9999999 1.1 -0.1500002
v -1 1.127883 -0.05386732
v 0.9999999 1.127883 -0.05386732
v 0.9999999 1.127883 0.05386685
v -1 1.127883 0.05386685
v 0.9999999 1.155579 0.05386685
v -1 1.155579 0.05386685
v 0.9999999 1.127883 -0.05386732
v 0.9999999 1.127883 0.05386685
v 0.9999999 1.155579 -0.05386732
v 0.9999999 1.155579 0.05386685
v -1 1.127883 0.05386685
v -1 1.127883 -0.05386732
v -1 1.155579 0.05386685
v -1 1.155579 -0.05386732
v -1 1.127883 -0.05386732
v 0.9999999 1.127883 -0.05386732
v -1 1.155579 -0.05386732
v 0.9999999 1.155579 -0.05386732
v -1 1.1 0.1499998
v -1 1.1 -0.1500002
v -1 1.127883 0.05386685
v -1 1.127883 -0.05386732
v -1 1 0.1417028
v -1 1 -0.1582972
v 0.9999999 1 -0.1582972
v 0.9999999 1 0.1417028
v 0.9999999 1.1 -0.1500002
v 0.9999999 1.1 0.1499998
v 0.9999999 1.127883 -0.05386732
v 0.9999999 1.127883 0.05386685

vn -0.9609168 0.1017095 0.2574761
vn -0.9609168 0.1017096 0.2574763
vn -0.9609168 0.1017096 0.2574763
vn -0.9609167 0.1017096 0.2574767
vn -0.7034391 0.1017096 0.7034405
vn -0.703439 0.1017096 0.7034407
vn -0.703439 0.1017096 0.7034407
vn -0.7034388 0.1017096 0.7034408
vn -0.257477 0.1017096 0.9609166
vn -0.2574771 0.1017096 0.9609166
vn -0.2574771 0.1017096 0.9609166
vn -0.2574774 0.1017096 0.9609165
vn 0.2574771 0.1017096 0.9609166
vn 0.257477 0.1017096 0.9609166
vn 0.257477 0.1017096 0.9609166
vn 0.2574766 0.1017095 0.9609167
vn 0.7034398 0.1017094 0.7034398
vn 0.7034401 0.1017095 0.7034397
vn 0.7034401 0.1017095 0.7034397
vn 0.7034403 0.1017095 0.7034393
vn 0.9609164 0.1017094 0.2574776
vn 0.9609165 0.1017095 0.2574773
vn 0.9609165 0.1017095 0.2574773
vn 0.9609167 0.1017095 0.2574766
vn 0.9609165 0.1017095 -0.2574777
vn 0.9609165 0.1017095 -0.2574774
vn 0.9609165 0.1017095 -0.2574774
vn 0.9609167 0.1017094 -0.2574767
vn 0.7034401 0.1017095 -0.7034397
vn 0.7034402 0.1017095 -0.7034395
vn 0.7034402 0.1017095 -0.7034395
vn 0.7034405 0.1017094 -0.7034392
vn 0.257477 0.1017095 -0.9609166
vn 0.2574767 0.1017096 -0.9609168
vn 0.2574767 0.1017096 -0.9609168
vn 0.2574762 0.1017096 -0.9609168
vn -0.257477 0.1017096 -0.9609166
vn -0.257477 0.1017096 -0.9609166
vn -0.257477 0.1017096 -0.9609166
vn -0.257477 0.1017096 -0.9609166
vn -0.7034391 0.1017096 -0.7034407
vn -0.7034389 0.1017096 -0.7034408
vn -0.7034389 0.1017096 -0.7034408
vn -0.7034386 0.1017096 -0.703441
vn -0.9609169 0.1017096 -0.2574761
vn -0.9609169 0.1017096 -0.2574763
vn -0.9609169 0.1017096 -0.2574763
vn -0.9609167 0.1017095 -0.2574766
vn -0.9632867 -0.07387207 0.2581117
vn -0.9632868 -0.07387209 0.2581117
vn -0.9632868 -0.07387209 0.2581117
vn -0.9632868 -0.07387208 0.2581116
vn -0.7051737 -0.07387204 0.7051758
vn -0.7051741 -0.07387213 0.7051753
vn -0.7051741 -0.07387213 0.7051753
vn -0.7051744 -0.07387217 0.705175
vn -0.2581124 -0.0738721 0.9632865
vn -0.2581121 -0.07387206 0.9632866
vn -0.2581121 -0.07387206 0.9632866
vn -0.2581118 -0.07387203 0.9632867
vn 0.2581117 -0.07387204 0.9632868
vn 0.2581117 -0.07387202 0.9632867
vn 0.2581117 -0.07387202 0.9632867
vn 0.2581118 -0.07387201 0.9632867
vn 0.7051752 -0.07387192 0.7051742
vn 0.7051754 -0.0738719 0.7051741
vn 0.7051754 -0.0738719 0.7051741
vn 0.7051756 -0.07387187 0.705174
vn 0.9632868 -0.07387178 0.2581117
vn 0.9632865 -0.07387193 0.2581128
vn 0.9632865 -0.07387193 0.2581128
vn 0.9632862 -0.07387203 0.2581137
vn 0.9632866 -0.07387207 -0.2581118
vn 0.9632863 -0.07387192 -0.2581129
vn 0.9632863 -0.07387192 -0.2581129
vn 0.9632862 -0.07387181 -0.2581138
vn 0.7051755 -0.07387187 -0.7051741
vn 0.7051755 -0.0738719 -0.7051739
vn 0.7051755 -0.0738719 -0.7051739
vn 0.7051757 -0.07387192 -0.7051739
vn 0.2581113 -0.073872 -0.9632869
vn 0.2581114 -0.07387201 -0.9632868
vn 0.2581114 -0.07387201 -0.9632868
vn 0.2581115 -0.07387203 -0.9632867
vn -0.258112 -0.07387203 -0.9632866
vn -0.2581117 -0.07387206 -0.9632866
vn -0.2581117 -0.07387206 -0.9632866
vn -0.2581115 -0.07387209 -0.9632867
vn -0.7051736 -0.07387221 -0.705176
vn -0.7051747 -0.07387201 -0.7051749
vn -0.7051747 -0.07387201 -0.7051749
vn -0.7051755 -0.07387187 -0.705174
vn -0.9632868 -0.07387178 -0.2581117
vn -0.9632865 -0.07387193 -0.2581128
vn -0.9632865 -0.07387193 -0.2581128
vn -0.9632862 -0.07387202 -0.2581137
vn -0.9609165 0.1017095 0.2574777
vn -0.9609166 0.1017095 0.2574773
vn -0.9609166 0.1017095 0.2574773
vn -0.9609167 0.1017094 0.2574767
vn -0.70344 0.1017095 0.7034397
vn -0.7034401 0.1017095 0.7034396
vn -0.7034401 0.1017095 0.7034396
vn -0.7034404 0.1017094 0.7034393
vn -0.2574772 0.1017096 0.9609166
vn -0.2574771 0.1017096 0.9609166
vn -0.2574771 0.1017096 0.9609166
vn -0.257477 0.1017096 0.9609166
vn 0.2574763 0.1017096 0.9609168
vn 0.257477 0.1017096 0.9609166
vn 0.257477 0.1017096 0.9609166
vn 0.2574781 0.1017097 0.9609162
vn 0.7034414 0.1017099 0.7034382
vn 0.70344 0.1017097 0.7034397
vn 0.70344 0.1017097 0.7034397
vn 0.7034371 0.1017094 0.7034425
vn 0.9609169 0.1017094 0.2574761
vn 0.9609165 0.1017093 0.2574773
vn 0.9609165 0.1017093 0.2574773
vn 0.960916 0.1017091 0.2574795
vn 0.9609168 0.1017092 -0.2574762
vn 0.9609165 0.1017093 -0.2574774
vn 0.9609165 0.1017093 -0.2574774
vn 0.9609159 0.1017095 -0.2574797
vn 0.7034401 0.1017095 -0.7034397
vn 0.7034391 0.1017096 -0.7034405
vn 0.7034391 0.1017096 -0.7034405
vn 0.7034373 0.1017098 -0.7034423
vn 0.257477 0.1017096 -0.9609166
vn 0.2574772 0.1017096 -0.9609166
vn 0.2574772 0.1017096 -0.9609166
vn 0.2574778 0.1017096 -0.9609164
vn -0.2574772 0.1017096 -0.9609166
vn -0.257477 0.1017096 -0.9609166
vn -0.257477 0.1017096 -0.9609166
vn -0.2574766 0.1017095 -0.9609167
vn -0.7034398 0.1017095 -0.7034398
vn -0.70344 0.1017095 -0.7034397
vn -0.70344 0.1017095 -0.7034397
vn -0.7034402 0.1017095 -0.7034394
vn -0.9609164 0.1017095 -0.2574776
vn -0.9609165 0.1017095 -0.2574772
vn -0.9609165 0.1017095 -0.2574772
vn -0.9609167 0.1017095 -0.2574766
vn -0.9632867 -0.07387207 0.2581117
vn -0.9632863 -0.07387193 0.2581129
vn -0.9632863 -0.07387193 0.2581129
vn -0.9632861 -0.07387181 0.2581137
vn -0.7051753 -0.07387187 0.7051742
vn -0.7051755 -0.0738719 0.7051741
vn -0.7051755 -0.0738719 0.7051741
vn -0.7051756 -0.07387192 0.7051739
vn -0.258112 -0.07387202 0.9632866
vn -0.2581121 -0.07387202 0.9632866
vn -0.2581121 -0.07387202 0.9632866
vn -0.2581121 -0.07387203 0.9632866
vn 0.2581132 -0.07387201 0.9632864
vn 0.2581124 -0.0738721 0.9632865
vn 0.2581124 -0.0738721 0.9632865
vn 0.2581118 -0.07387218 0.9632867
vn 0.7051721 -0.07387247 0.7051774
vn 0.7051728 -0.07387237 0.7051768
vn 0.7051728 -0.07387237 0.7051768
vn 0.7051733 -0.07387228 0.7051762
vn 0.9632859 -0.07387246 0.2581146
vn 0.9632868 -0.07387207 0.2581116
vn 0.9632868 -0.07387207 0.2581116
vn 0.9632873 -0.0738718 0.2581094
vn 0.9632859 -0.0738717 -0.2581148
vn 0.9632868 -0.07387208 -0.2581117
vn 0.9632868 -0.07387208 -0.2581117
vn 0.9632873 -0.07387236 -0.2581095
vn 0.7051722 -0.07387224 -0.7051773
vn 0.7051729 -0.07387236 -0.7051766
vn 0.7051729 -0.07387236 -0.7051766
vn 0.7051734 -0.07387243 -0.7051761
vn 0.2581128 -0.0738722 -0.9632865
vn 0.258112 -0.0738721 -0.9632866
vn 0.258112 -0.0738721 -0.9632866
vn 0.2581115 -0.07387203 -0.9632867
vn -0.2581117 -0.07387204 -0.9632868
vn -0.2581118 -0.07387203 -0.9632868
vn -0.2581118 -0.07387203 -0.9632868
vn -0.2581118 -0.07387201 -0.9632866
vn -0.7051751 -0.07387193 -0.7051743
vn -0.7051754 -0.0738719 -0.7051741
vn -0.7051754 -0.0738719 -0.7051741
vn -0.7051755 -0.07387187 -0.705174
vn -0.9632868 -0.07387178 -0.2581117
vn -0.9632865 -0.07387193 -0.2581128
vn -0.9632865 -0.07387193 -0.2581128
vn -0.9632862 -0.07387202 -0.2581137
vn 0 -0.08268494 0.9965758
vn 0 -0.08268494 0.9965758
vn 0 -0.08268494 0.9965758
vn 0 -0.08268494 0.9965758
vn 0 0.08268494 -0.9965758
vn 0 0.08268494 -0.9965758
vn 0 0.08268494 -0.9965758
vn 0 0.08268494 -0.9965758
vn 0 1 0
vn 0 1 0
vn 0 1 0
vn 0 1 0
vn 0 -1 0
vn 0 -1 0
vn 0 -1 0
vn 0 -1 0
vn 0 0.9604184 0.2785616
vn 0 0.9604184 0.2785616
vn 0 0.9604184 0.2785616
vn 0 0.9604184 0.2785616
vn 0 0.9604184 -0.2785616
vn 0 0.9604184 -0.2785616
vn 0 0.9604184 -0.2785616
vn 0 0.9604184 -0.2785616
vn 0 0 0.9999999
vn 0 0 0.9999999
vn 0 0 0.9999999
vn 0 0 0.9999999
vn 0.9999999 0 0
vn 0.9999999 0 0
vn 0.9999999 0 0
vn 0.9999999 0 0
vn -0.9999999 0 0
vn -0.9999999 0 0
vn -0.9999999 0 0
vn -0.9999999 0 0
vn 0 0 -0.9999999
vn 0 0 -0.9999999
vn 0 0 -0.9999999
vn 0 0 -0.9999999
vn -1 0 0
vn -1 0 0
vn -1 0 0
vn -1 0 0
vn -1 0 0
vn -0.9999999 0 0
vn 1 0 0
vn 1 0 0
vn 1 0 0
vn 1 0 0
vn 1 0 0
vn 1 0 0

vt 0.5397675 0.5974271
vt 0.5057203 0.8155487
vt 0.5643697 0.601956
vt 0.5185135 0.8179036
vt 0.5642525 0.6017051
vt 0.5183758 0.8176553
vt 0.5885786 0.6075689
vt 0.5310254 0.8207045
vt 0.5884722 0.607326
vt 0.5308941 0.8205053
vt 0.6124685 0.6145137
vt 0.5433722 0.8242429
vt 0.3123029 0.6182526
vt 0.3850697 0.8268654
vt 0.336181 0.6106462
vt 0.3974864 0.8229101
vt 0.3360907 0.6106536
vt 0.3974019 0.8229905
vt 0.3603332 0.6043627
vt 0.410008 0.8197192
vt 0.360251 0.6043739
vt 0.4099031 0.81973
vt 0.3847926 0.5994142
vt 0.4226647 0.817151
vt 0.3847206 0.5994319
vt 0.4225662 0.8171679
vt 0.4094847 0.595818
vt 0.4354435 0.8152885
vt 0.409429 0.5958425
vt 0.4353542 0.8153116
vt 0.434335 0.5935844
vt 0.4483054 0.8141373
vt 0.4343071 0.5936167
vt 0.4482328 0.814167
vt 0.4592638 0.5927196
vt 0.4612103 0.8137004
vt 0.4643176 0.5927708
vt 0.4662114 0.8135058
vt 0.489273 0.5932341
vt 0.4791882 0.8137466
vt 0.4902044 0.5929537
vt 0.4800785 0.8134709
vt 0.5151249 0.5947775
vt 0.4930372 0.8144193
vt 0.51506 0.5945072
vt 0.4929416 0.8141525
vt 0.5398617 0.5976878
vt 0.5058386 0.8158065
vt 0.5024719 0.861442
vt 0.5142708 0.9875748
vt 0.5154256 0.8599712
vt 0.5322066 0.9855382
vt 0.5154189 0.8600203
vt 0.5322001 0.9855875
vt 0.5283042 0.858038
vt 0.5500411 0.9828427
vt 0.5282956 0.8580869
vt 0.5500326 0.9828916
vt 0.5410923 0.8555963
vt 0.567751 0.979443
vt 0.3837103 0.8517106
vt 0.3507788 0.9740388
vt 0.3963636 0.8548497
vt 0.3682986 0.9783854
vt 0.3963525 0.8548014
vt 0.3682875 0.9783372
vt 0.4091201 0.8574374
vt 0.3859656 0.981987
vt 0.409111 0.8573886
vt 0.3859566 0.9819381
vt 0.4219728 0.8595172
vt 0.4037653 0.9848856
vt 0.4219657 0.8594682
vt 0.4037582 0.9848363
vt 0.4349017 0.8610861
vt 0.4216696 0.9870766
vt 0.4348966 0.8610368
vt 0.4216644 0.9870273
vt 0.4478865 0.8621416
vt 0.4396504 0.9885571
vt 0.4478832 0.8620921
vt 0.4396472 0.9885076
vt 0.4609067 0.8626821
vt 0.4576797 0.9893245
vt 0.4617988 0.8626326
vt 0.4585719 0.989275
vt 0.4748355 0.8627067
vt 0.4766226 0.9893776
vt 0.4764483 0.8627419
vt 0.4782353 0.9894128
vt 0.4894777 0.8623001
vt 0.4962759 0.988801
vt 0.489475 0.8623497
vt 0.4962731 0.9888507
vt 0.5024767 0.8613927
vt 0.5142755 0.9875255
vt 0.2331091 0.5984523
vt 0.199062 0.8165739
vt 0.2577114 0.6029811
vt 0.2118552 0.8189288
vt 0.257594 0.6027304
vt 0.2117175 0.8186805
vt 0.2819201 0.6085941
vt 0.2243671 0.8217297
vt 0.2818138 0.6083512
vt 0.2242357 0.8215305
vt 0.3058101 0.6155388
vt 0.2367139 0.825268
vt 0.005644463 0.6192778
vt 0.07841122 0.8278906
vt 0.02952264 0.6116713
vt 0.09082779 0.8239353
vt 0.0294323 0.6116786
vt 0.09074353 0.8240156
vt 0.05367473 0.6053877
vt 0.1033497 0.8207443
vt 0.05359257 0.6053991
vt 0.1032448 0.8207552
vt 0.07813413 0.6004394
vt 0.1160064 0.8181762
vt 0.07806219 0.6004571
vt 0.1159079 0.8181929
vt 0.1028261 0.5968431
vt 0.1287852 0.8163136
vt 0.1027707 0.5968676
vt 0.1286959 0.8163366
vt 0.1276767 0.5946094
vt 0.1416471 0.8151624
vt 0.1276489 0.5946417
vt 0.1415733 0.815192
vt 0.1526072 0.5937447
vt 0.1545515 0.8147256
vt 0.1576593 0.593796
vt 0.1595531 0.814531
vt 0.1826147 0.5942593
vt 0.1725299 0.8147719
vt 0.1835463 0.5939788
vt 0.1734203 0.8144962
vt 0.2084666 0.5958027
vt 0.1863789 0.8154445
vt 0.2084016 0.5955323
vt 0.1862833 0.8151777
vt 0.2332033 0.598713
vt 0.1991802 0.8168317
vt 0.1958136 0.8624671
vt 0.2076125 0.9885999
vt 0.2087672 0.8609962
vt 0.2255482 0.9865634
vt 0.2087605 0.8610455
vt 0.2255417 0.9866126
vt 0.2216457 0.8590631
vt 0.2433827 0.9838678
vt 0.2216372 0.859112
vt 0.2433742 0.9839168
vt 0.2344339 0.8566214
vt 0.2610927 0.9804682
vt 0.07705191 0.8527358
vt 0.04412033 0.9750642
vt 0.08970512 0.855875
vt 0.06164023 0.9794106
vt 0.08969414 0.8558266
vt 0.0616291 0.9793622
vt 0.1024617 0.8584626
vt 0.07930724 0.983012
vt 0.1024526 0.8584138
vt 0.07929815 0.9829632
vt 0.1153144 0.8605424
vt 0.09710686 0.9859106
vt 0.1153074 0.8604933
vt 0.09709986 0.9858615
vt 0.1282434 0.8621113
vt 0.1150112 0.9881018
vt 0.1282382 0.8620621
vt 0.1150062 0.9880525
vt 0.1412282 0.8631669
vt 0.1329923 0.9895823
vt 0.1412249 0.8631173
vt 0.1329888 0.9895327
vt 0.1542483 0.8637072
vt 0.1510213 0.9903495
vt 0.1551405 0.8636577
vt 0.1519136 0.9903001
vt 0.168177 0.8637318
vt 0.1699642 0.9904027
vt 0.16979 0.863767
vt 0.1715769 0.9904379
vt 0.1828193 0.8633252
vt 0.1896175 0.9898262
vt 0.1828166 0.8633749
vt 0.1896148 0.9898759
vt 0.1958183 0.8624178
vt 0.2076171 0.9885507
vt -0.3993975 0.07271287
vt 0.000602603 0.07271283
vt -0.3993975 0.05264413
vt 0.000602603 0.05264409
vt 0.000602603 0.1327128
vt -0.3993975 0.1327128
vt 0.000602603 0.1527815
vt -0.3993975 0.1527815
vt -0.3993975 0.02708595
vt 0.000602603 0.02708595
vt -0.3993975 0.005539127
vt 0.000602603 0.005539127
vt -0.3993975 0.1327128
vt 0.000602603 0.1327128
vt -0.3993975 0.07271281
vt 0.000602603 0.07271278
vt -0.3993975 0.05264405
vt 0.000602603 0.05264405
vt -0.3993975 0.03262505
vt 0.000602603 0.03262505
vt 0.000602603 0.1527815
vt -0.3993975 0.1527815
vt 0.000602603 0.1728005
vt -0.3993975 0.1728005
vt -0.3993975 0.03262507
vt 0.000602603 0.03262504
vt -0.3993975 0.02708597
vt 0.000602603 0.02708593
vt 0.9944921 0.2722974
vt 0.9944921 0.2938442
vt 1.000031 0.2722974
vt 1.000031 0.2938442
vt 0.005461592 0.2755909
vt 0.005461592 0.2540441
vt -7.754192E-05 0.2755909
vt -7.754192E-05 0.2540441
vt 0.000602603 2.04891E-08
vt -0.3993975 2.04891E-08
vt 0.000602603 0.005539129
vt -0.3993975 0.005539129
vt 0.01996611 0.186812
vt 0.01996613 0.2468125
vt 0.02554263 0.2060388
vt 0.02554263 0.2275858
vt -3.395975E-05 0.1884714
vt -3.395975E-05 0.2484719
vt 1.000029 0.2611694
vt 1.000029 0.2011692
vt 0.9800286 0.25951
vt 0.9800286 0.1995098
vt 0.974452 0.2402834
vt 0.974452 0.2187365

g Default_Prototype
usemtl Default_Prototype
usemap Default_Prototype
f 2/2/2 1/1/1 3/3/3
f 4/4/4 2/2/2 3/3/3
f 6/6/6 5/5/5 7/7/7
f 8/8/8 6/6/6 7/7/7
f 10/10/10 9/9/9 11/11/11
f 12/12/12 10/10/10 11/11/11
f 14/14/14 13/13/13 15/15/15
f 16/16/16 14/14/14 15/15/15
f 18/18/18 17/17/17 19/19/19
f 20/20/20 18/18/18 19/19/19
f 22/22/22 21/21/21 23/23/23
f 24/24/24 22/22/22 23/23/23
f 26/26/26 25/25/25 27/27/27
f 28/28/28 26/26/26 27/27/27
f 30/30/30 29/29/29 31/31/31
f 32/32/32 30/30/30 31/31/31
f 34/34/34 33/33/33 35/35/35
f 36/36/36 34/34/34 35/35/35
f 38/38/38 37/37/37 39/39/39
f 40/40/40 38/38/38 39/39/39
f 42/42/42 41/41/41 43/43/43
f 44/44/44 42/42/42 43/43/43
f 46/46/46 45/45/45 47/47/47
f 48/48/48 46/46/46 47/47/47
f 50/50/50 49/49/49 51/51/51
f 52/52/52 50/50/50 51/51/51
f 54/54/54 53/53/53 55/55/55
f 56/56/56 54/54/54 55/55/55
f 58/58/58 57/57/57 59/59/59
f 60/60/60 58/58/58 59/59/59
f 62/62/62 61/61/61 63/63/63
f 64/64/64 62/62/62 63/63/63
f 66/66/66 65/65/65 67/67/67
f 68/68/68 66/66/66 67/67/67
f 70/70/70 69/69/69 71/71/71
f 72/72/72 70/70/70 71/71/71
f 74/74/74 73/73/73 75/75/75
f 76/76/76 74/74/74 75/75/75
f 78/78/78 77/77/77 79/79/79
f 80/80/80 78/78/78 79/79/79
f 82/82/82 81/81/81 83/83/83
f 84/84/84 82/82/82 83/83/83
f 86/86/86 85/85/85 87/87/87
f 88/88/88 86/86/86 87/87/87
f 90/90/90 89/89/89 91/91/91
f 92/92/92 90/90/90 91/91/91
f 94/94/94 93/93/93 95/95/95
f 96/96/96 94/94/94 95/95/95
f 98/98/98 97/97/97 99/99/99
f 100/100/100 98/98/98 99/99/99
f 102/102/102 101/101/101 103/103/103
f 104/104/104 102/102/102 103/103/103
f 106/106/106 105/105/105 107/107/107
f 108/108/108 106/106/106 107/107/107
f 110/110/110 109/109/109 111/111/111
f 112/112/112 110/110/110 111/111/111
f 114/114/114 113/113/113 115/115/115
f 116/116/116 114/114/114 115/115/115
f 118/118/118 117/117/117 119/119/119
f 120/120/120 118/118/118 119/119/119
f 122/122/122 121/121/121 123/123/123
f 124/124/124 122/122/122 123/123/123
f 126/126/126 125/125/125 127/127/127
f 128/128/128 126/126/126 127/127/127
f 130/130/130 129/129/129 131/131/131
f 132/132/132 130/130/130 131/131/131
f 134/134/134 133/133/133 135/135/135
f 136/136/136 134/134/134 135/135/135
f 138/138/138 137/137/137 139/139/139
f 140/140/140 138/138/138 139/139/139
f 142/142/142 141/141/141 143/143/143
f 144/144/144 142/142/142 143/143/143
f 146/146/146 145/145/145 147/147/147
f 148/148/148 146/146/146 147/147/147
f 150/150/150 149/149/149 151/151/151
f 152/152/152 150/150/150 151/151/151
f 154/154/154 153/153/153 155/155/155
f 156/156/156 154/154/154 155/155/155
f 158/158/158 157/157/157 159/159/159
f 160/160/160 158/158/158 159/159/159
f 162/162/162 161/161/161 163/163/163
f 164/164/164 162/162/162 163/163/163
f 166/166/166 165/165/165 167/167/167
f 168/168/168 166/166/166 167/167/167
f 170/170/170 169/169/169 171/171/171
f 172/172/172 170/170/170 171/171/171
f 174/174/174 173/173/173 175/175/175
f 176/176/176 174/174/174 175/175/175
f 178/178/178 177/177/177 179/179/179
f 180/180/180 178/178/178 179/179/179
f 182/182/182 181/181/181 183/183/183
f 184/184/184 182/182/182 183/183/183
f 186/186/186 185/185/185 187/187/187
f 188/188/188 186/186/186 187/187/187
f 190/190/190 189/189/189 191/191/191
f 192/192/192 190/190/190 191/191/191
f 194/194/194 193/193/193 195/195/195
f 196/196/196 194/194/194 195/195/195
f 198/198/198 197/197/197 199/199/199
f 200/200/200 198/198/198 199/199/199
f 202/202/202 201/201/201 203/203/203
f 204/204/204 202/202/202 203/203/203
f 206/206/206 205/205/205 207/207/207
f 208/208/208 206/206/206 207/207/207
f 210/210/210 209/209/209 211/211/211
f 212/212/212 210/210/210 211/211/211
f 214/214/214 213/213/213 215/215/215
f 216/216/216 214/214/214 215/215/215
f 218/218/218 217/217/217 219/219/219
f 220/220/220 218/218/218 219/219/219
f 222/222/222 221/221/221 223/223/223
f 224/224/224 222/222/222 223/223/223
f 226/226/226 225/225/225 227/227/227
f 228/228/228 226/226/226 227/227/227
f 230/230/230 229/229/229 231/231/231
f 232/232/232 230/230/230 231/231/231
f 234/234/234 233/233/233 235/235/235
f 236/236/236 234/234/234 235/235/235
f 238/238/238 237/237/237 233/233/233
f 234/234/234 238/238/238 233/233/233
f 240/240/240 239/239/239 241/241/241
f 242/242/242 240/240/240 241/241/241
f 242/242/242 241/241/241 243/243/243
f 244/244/244 242/242/242 243/243/243
