mtllib ./BannisterFull1_5.mtl
g pb-MergedObject-440550
v 0.8600003 0 4.656613E-09
v 0.9272002 0.634882 4.656613E-10
v 0.8787566 0 0.07000001
v 0.9369535 0.634882 0.03640001
v 0.8787566 0 0.07000001
v 0.9369535 0.634882 0.03640001
v 0.9300003 0 0.1212436
v 0.9636003 0.634882 0.06304666
v 0.9300003 0 0.1212436
v 0.9636003 0.634882 0.06304666
v 1 0 0.14
v 1 0.634882 0.07280003
v 1 0 0.14
v 1 0.634882 0.07280003
v 1.07 0 0.1212436
v 1.0364 0.634882 0.06304666
v 1.07 0 0.1212436
v 1.0364 0.634882 0.06304666
v 1.121244 0 0.07000001
v 1.063047 0.634882 0.03640001
v 1.121244 0 0.07000001
v 1.063047 0.634882 0.03640001
v 1.14 0 -7.916242E-09
v 1.0728 0.634882 -5.587935E-09
v 1.14 0 -7.916242E-09
v 1.0728 0.634882 -5.587935E-09
v 1.121244 0 -0.06999999
v 1.063047 0.634882 -0.0364
v 1.121244 0 -0.06999999
v 1.063047 0.634882 -0.0364
v 1.07 0 -0.1212436
v 1.0364 0.634882 -0.06304666
v 1.07 0 -0.1212436
v 1.0364 0.634882 -0.06304666
v 1 0 -0.14
v 1 0.634882 -0.07280001
v 1 0 -0.14
v 1 0.634882 -0.07280001
v 0.9300003 0 -0.1212436
v 0.9636003 0.634882 -0.06304666
v 0.9300003 0 -0.1212436
v 0.9636003 0.634882 -0.06304666
v 0.8787566 0 -0.07000002
v 0.9369535 0.634882 -0.03640002
v 0.8787566 0 -0.07000002
v 0.9369535 0.634882 -0.03640002
v 0.8600003 0 4.656613E-09
v 0.9272002 0.634882 4.656613E-10
v 0.9272002 0.634882 4.656613E-10
v 0.8992002 1 2.328306E-09
v 0.9369535 0.634882 0.03640001
v 0.9127048 1 0.0504
v 0.9369535 0.634882 0.03640001
v 0.9127048 1 0.0504
v 0.9636003 0.634882 0.06304666
v 0.9496002 1 0.08729537
v 0.9636003 0.634882 0.06304666
v 0.9496002 1 0.08729537
v 1 0.634882 0.07280003
v 1 1 0.1008
v 1 0.634882 0.07280003
v 1 1 0.1008
v 1.0364 0.634882 0.06304666
v 1.0504 1 0.08729537
v 1.0364 0.634882 0.06304666
v 1.0504 1 0.08729537
v 1.063047 0.634882 0.03640001
v 1.087296 1 0.05040001
v 1.063047 0.634882 0.03640001
v 1.087296 1 0.05040001
v 1.0728 0.634882 -5.587935E-09
v 1.1008 1 -6.519258E-09
v 1.0728 0.634882 -5.587935E-09
v 1.1008 1 -6.519258E-09
v 1.063047 0.634882 -0.0364
v 1.087296 1 -0.0504
v 1.063047 0.634882 -0.0364
v 1.087296 1 -0.0504
v 1.0364 0.634882 -0.06304666
v 1.0504 1 -0.08729537
v 1.0364 0.634882 -0.06304666
v 1.0504 1 -0.08729537
v 1 0.634882 -0.07280001
v 1 1 -0.1008
v 1 0.634882 -0.07280001
v 1 1 -0.1008
v 0.9636003 0.634882 -0.06304666
v 0.9496002 1 -0.08729537
v 0.9636003 0.634882 -0.06304666
v 0.9496002 1 -0.08729537
v 0.9369535 0.634882 -0.03640002
v 0.9127049 1 -0.05040001
v 0.9369535 0.634882 -0.03640002
v 0.9127049 1 -0.05040001
v 0.9272002 0.634882 4.656613E-10
v 0.8992002 1 2.328306E-09
v 1.86 0 4.656613E-09
v 1.9272 0.634882 4.656613E-10
v 1.878757 0 0.07000001
v 1.936954 0.634882 0.03640001
v 1.878757 0 0.07000001
v 1.936954 0.634882 0.03640001
v 1.93 0 0.1212436
v 1.9636 0.634882 0.06304666
v 1.93 0 0.1212436
v 1.9636 0.634882 0.06304666
v 2 0 0.14
v 2 0.634882 0.07280003
v 2 0 0.14
v 2 0.634882 0.07280003
v 2.07 0 0.1212436
v 2.0364 0.634882 0.06304666
v 2.07 0 0.1212436
v 2.0364 0.634882 0.06304666
v 2.121244 0 0.07000001
v 2.063047 0.634882 0.03640001
v 2.121244 0 0.07000001
v 2.063047 0.634882 0.03640001
v 2.14 0 -7.916242E-09
v 2.0728 0.634882 -5.587935E-09
v 2.14 0 -7.916242E-09
v 2.0728 0.634882 -5.587935E-09
v 2.121244 0 -0.06999999
v 2.063047 0.634882 -0.0364
v 2.121244 0 -0.06999999
v 2.063047 0.634882 -0.0364
v 2.07 0 -0.1212436
v 2.0364 0.634882 -0.06304666
v 2.07 0 -0.1212436
v 2.0364 0.634882 -0.06304666
v 2 0 -0.14
v 2 0.634882 -0.07280001
v 2 0 -0.14
v 2 0.634882 -0.07280001
v 1.93 0 -0.1212436
v 1.9636 0.634882 -0.06304666
v 1.93 0 -0.1212436
v 1.9636 0.634882 -0.06304666
v 1.878757 0 -0.07000002
v 1.936954 0.634882 -0.03640002
v 1.878757 0 -0.07000002
v 1.936954 0.634882 -0.03640002
v 1.86 0 4.656613E-09
v 1.9272 0.634882 4.656613E-10
v 1.9272 0.634882 4.656613E-10
v 1.8992 1 2.328306E-09
v 1.936954 0.634882 0.03640001
v 1.912705 1 0.0504
v 1.936954 0.634882 0.03640001
v 1.912705 1 0.0504
v 1.9636 0.634882 0.06304666
v 1.9496 1 0.08729537
v 1.9636 0.634882 0.06304666
v 1.9496 1 0.08729537
v 2 0.634882 0.07280003
v 2 1 0.1008
v 2 0.634882 0.07280003
v 2 1 0.1008
v 2.0364 0.634882 0.06304666
v 2.0504 1 0.08729537
v 2.0364 0.634882 0.06304666
v 2.0504 1 0.08729537
v 2.063047 0.634882 0.03640001
v 2.087296 1 0.05040001
v 2.063047 0.634882 0.03640001
v 2.087296 1 0.05040001
v 2.0728 0.634882 -5.587935E-09
v 2.1008 1 -6.519258E-09
v 2.0728 0.634882 -5.587935E-09
v 2.1008 1 -6.519258E-09
v 2.063047 0.634882 -0.0364
v 2.087296 1 -0.0504
v 2.063047 0.634882 -0.0364
v 2.087296 1 -0.0504
v 2.0364 0.634882 -0.06304666
v 2.0504 1 -0.08729537
v 2.0364 0.634882 -0.06304666
v 2.0504 1 -0.08729537
v 2 0.634882 -0.07280001
v 2 1 -0.1008
v 2 0.634882 -0.07280001
v 2 1 -0.1008
v 1.9636 0.634882 -0.06304666
v 1.9496 1 -0.08729537
v 1.9636 0.634882 -0.06304666
v 1.9496 1 -0.08729537
v 1.936954 0.634882 -0.03640002
v 1.912705 1 -0.05040001
v 1.936954 0.634882 -0.03640002
v 1.912705 1 -0.05040001
v 1.9272 0.634882 4.656613E-10
v 1.8992 1 2.328306E-09
v -0.1399999 0 4.656613E-09
v -0.07279968 0.634882 4.656613E-10
v -0.1212432 0 0.07000001
v -0.06304646 0.634882 0.03640001
v -0.1212432 0 0.07000001
v -0.06304646 0.634882 0.03640001
v -0.06999969 0 0.1212436
v -0.03639984 0.634882 0.06304666
v -0.06999969 0 0.1212436
v -0.03639984 0.634882 0.06304666
v 2.384186E-07 0 0.14
v 2.384186E-07 0.634882 0.07280003
v 2.384186E-07 0 0.14
v 2.384186E-07 0.634882 0.07280003
v 0.07000029 0 0.1212436
v 0.0364002 0.634882 0.06304666
v 0.07000029 0 0.1212436
v 0.0364002 0.634882 0.06304666
v 0.1212438 0 0.07000001
v 0.06304693 0.634882 0.03640001
v 0.1212438 0 0.07000001
v 0.06304693 0.634882 0.03640001
v 0.1400002 0 -7.916242E-09
v 0.07280028 0.634882 -5.587935E-09
v 0.1400002 0 -7.916242E-09
v 0.07280028 0.634882 -5.587935E-09
v 0.1212438 0 -0.06999999
v 0.06304693 0.634882 -0.0364
v 0.1212438 0 -0.06999999
v 0.06304693 0.634882 -0.0364
v 0.07000017 0 -0.1212436
v 0.0364002 0.634882 -0.06304666
v 0.07000017 0 -0.1212436
v 0.0364002 0.634882 -0.06304666
v 2.384186E-07 0 -0.14
v 2.384186E-07 0.634882 -0.07280001
v 2.384186E-07 0 -0.14
v 2.384186E-07 0.634882 -0.07280001
v -0.06999969 0 -0.1212436
v -0.03639984 0.634882 -0.06304666
v -0.06999969 0 -0.1212436
v -0.03639984 0.634882 -0.06304666
v -0.1212432 0 -0.07000002
v -0.06304646 0.634882 -0.03640002
v -0.1212432 0 -0.07000002
v -0.06304646 0.634882 -0.03640002
v -0.1399999 0 4.656613E-09
v -0.07279968 0.634882 4.656613E-10
v -0.07279968 0.634882 4.656613E-10
v -0.1007998 1 2.328306E-09
v -0.06304646 0.634882 0.03640001
v -0.08729506 1 0.0504
v -0.06304646 0.634882 0.03640001
v -0.08729506 1 0.0504
v -0.03639984 0.634882 0.06304666
v -0.05039978 1 0.08729537
v -0.03639984 0.634882 0.06304666
v -0.05039978 1 0.08729537
v 2.384186E-07 0.634882 0.07280003
v 2.384186E-07 1 0.1008
v 2.384186E-07 0.634882 0.07280003
v 2.384186E-07 1 0.1008
v 0.0364002 0.634882 0.06304666
v 0.05040026 1 0.08729537
v 0.0364002 0.634882 0.06304666
v 0.05040026 1 0.08729537
v 0.06304693 0.634882 0.03640001
v 0.08729565 1 0.05040001
v 0.06304693 0.634882 0.03640001
v 0.08729565 1 0.05040001
v 0.07280028 0.634882 -5.587935E-09
v 0.1008003 1 -6.519258E-09
v 0.07280028 0.634882 -5.587935E-09
v 0.1008003 1 -6.519258E-09
v 0.06304693 0.634882 -0.0364
v 0.08729565 1 -0.0504
v 0.06304693 0.634882 -0.0364
v 0.08729565 1 -0.0504
v 0.0364002 0.634882 -0.06304666
v 0.05040026 1 -0.08729537
v 0.0364002 0.634882 -0.06304666
v 0.05040026 1 -0.08729537
v 2.384186E-07 0.634882 -0.07280001
v 2.384186E-07 1 -0.1008
v 2.384186E-07 0.634882 -0.07280001
v 2.384186E-07 1 -0.1008
v -0.03639984 0.634882 -0.06304666
v -0.05039978 1 -0.08729537
v -0.03639984 0.634882 -0.06304666
v -0.05039978 1 -0.08729537
v -0.06304646 0.634882 -0.03640002
v -0.08729506 1 -0.05040001
v -0.06304646 0.634882 -0.03640002
v -0.08729506 1 -0.05040001
v -0.07279968 0.634882 4.656613E-10
v -0.1007998 1 2.328306E-09
v -2.14 0 4.656613E-09
v -2.0728 0.634882 4.656613E-10
v -2.121243 0 0.07000001
v -2.063046 0.634882 0.03640001
v -2.121243 0 0.07000001
v -2.063046 0.634882 0.03640001
v -2.07 0 0.1212436
v -2.0364 0.634882 0.06304666
v -2.07 0 0.1212436
v -2.0364 0.634882 0.06304666
v -2 0 0.14
v -2 0.634882 0.07280003
v -2 0 0.14
v -2 0.634882 0.07280003
v -1.93 0 0.1212436
v -1.9636 0.634882 0.06304666
v -1.93 0 0.1212436
v -1.9636 0.634882 0.06304666
v -1.878756 0 0.07000001
v -1.936953 0.634882 0.03640001
v -1.878756 0 0.07000001
v -1.936953 0.634882 0.03640001
v -1.86 0 -7.916242E-09
v -1.9272 0.634882 -5.587935E-09
v -1.86 0 -7.916242E-09
v -1.9272 0.634882 -5.587935E-09
v -1.878756 0 -0.06999999
v -1.936953 0.634882 -0.0364
v -1.878756 0 -0.06999999
v -1.936953 0.634882 -0.0364
v -1.93 0 -0.1212436
v -1.9636 0.634882 -0.06304666
v -1.93 0 -0.1212436
v -1.9636 0.634882 -0.06304666
v -2 0 -0.14
v -2 0.634882 -0.07280001
v -2 0 -0.14
v -2 0.634882 -0.07280001
v -2.07 0 -0.1212436
v -2.0364 0.634882 -0.06304666
v -2.07 0 -0.1212436
v -2.0364 0.634882 -0.06304666
v -2.121243 0 -0.07000002
v -2.063046 0.634882 -0.03640002
v -2.121243 0 -0.07000002
v -2.063046 0.634882 -0.03640002
v -2.14 0 4.656613E-09
v -2.0728 0.634882 4.656613E-10
v -2.0728 0.634882 4.656613E-10
v -2.1008 1 2.328306E-09
v -2.063046 0.634882 0.03640001
v -2.087295 1 0.0504
v -2.063046 0.634882 0.03640001
v -2.087295 1 0.0504
v -2.0364 0.634882 0.06304666
v -2.0504 1 0.08729537
v -2.0364 0.634882 0.06304666
v -2.0504 1 0.08729537
v -2 0.634882 0.07280003
v -2 1 0.1008
v -2 0.634882 0.07280003
v -2 1 0.1008
v -1.9636 0.634882 0.06304666
v -1.9496 1 0.08729537
v -1.9636 0.634882 0.06304666
v -1.9496 1 0.08729537
v -1.936953 0.634882 0.03640001
v -1.912704 1 0.05040001
v -1.936953 0.634882 0.03640001
v -1.912704 1 0.05040001
v -1.9272 0.634882 -5.587935E-09
v -1.8992 1 -6.519258E-09
v -1.9272 0.634882 -5.587935E-09
v -1.8992 1 -6.519258E-09
v -1.936953 0.634882 -0.0364
v -1.912704 1 -0.0504
v -1.936953 0.634882 -0.0364
v -1.912704 1 -0.0504
v -1.9636 0.634882 -0.06304666
v -1.9496 1 -0.08729537
v -1.9636 0.634882 -0.06304666
v -1.9496 1 -0.08729537
v -2 0.634882 -0.07280001
v -2 1 -0.1008
v -2 0.634882 -0.07280001
v -2 1 -0.1008
v -2.0364 0.634882 -0.06304666
v -2.0504 1 -0.08729537
v -2.0364 0.634882 -0.06304666
v -2.0504 1 -0.08729537
v -2.063046 0.634882 -0.03640002
v -2.087295 1 -0.05040001
v -2.063046 0.634882 -0.03640002
v -2.087295 1 -0.05040001
v -2.0728 0.634882 4.656613E-10
v -2.1008 1 2.328306E-09
v 2.5 1 0.1417033
v -2.5 1 0.1417033
v 2.5 1.1 0.1500002
v -2.5 1.1 0.1500002
v -2.5 1 -0.1582967
v 2.5 1 -0.1582967
v -2.5 1.1 -0.1499998
v 2.5 1.1 -0.1499998
v 2.5 1.155579 0.05386733
v -2.5 1.155579 0.05386733
v 2.5 1.155579 -0.05386684
v -2.5 1.155579 -0.05386684
v 2.5 1 -0.1582967
v -2.5 1 -0.1582967
v 2.5 1 0.1417033
v -2.5 1 0.1417033
v 2.5 1.1 0.1500002
v -2.5 1.1 0.1500002
v 2.5 1.127883 0.05386733
v -2.5 1.127883 0.05386733
v -2.5 1.1 -0.1499998
v 2.5 1.1 -0.1499998
v -2.5 1.127883 -0.05386684
v 2.5 1.127883 -0.05386684
v 2.5 1.127883 0.05386733
v -2.5 1.127883 0.05386733
v 2.5 1.155579 0.05386733
v -2.5 1.155579 0.05386733
v 2.5 1.127883 -0.05386684
v 2.5 1.127883 0.05386733
v 2.5 1.155579 -0.05386684
v 2.5 1.155579 0.05386733
v -2.5 1.127883 0.05386733
v -2.5 1.127883 -0.05386684
v -2.5 1.155579 0.05386733
v -2.5 1.155579 -0.05386684
v -2.5 1.127883 -0.05386684
v 2.5 1.127883 -0.05386684
v -2.5 1.155579 -0.05386684
v 2.5 1.155579 -0.05386684
v -2.5 1.1 0.1500002
v -2.5 1.1 -0.1499998
v -2.5 1.127883 0.05386733
v -2.5 1.127883 -0.05386684
v -2.5 1 0.1417033
v -2.5 1 -0.1582967
v 2.5 1 -0.1582967
v 2.5 1 0.1417033
v 2.5 1.1 -0.1499998
v 2.5 1.1 0.1500002
v 2.5 1.127883 -0.05386684
v 2.5 1.127883 0.05386733
v -1.14 0 4.656613E-09
v -1.0728 0.634882 4.656613E-10
v -1.121243 0 0.07000001
v -1.063046 0.634882 0.03640001
v -1.121243 0 0.07000001
v -1.063046 0.634882 0.03640001
v -1.07 0 0.1212436
v -1.0364 0.634882 0.06304666
v -1.07 0 0.1212436
v -1.0364 0.634882 0.06304666
v -0.9999998 0 0.14
v -0.9999998 0.634882 0.07280003
v -0.9999998 0 0.14
v -0.9999998 0.634882 0.07280003
v -0.9299998 0 0.1212436
v -0.9635997 0.634882 0.06304666
v -0.9299998 0 0.1212436
v -0.9635997 0.634882 0.06304666
v -0.8787563 0 0.07000001
v -0.9369531 0.634882 0.03640001
v -0.8787563 0 0.07000001
v -0.9369531 0.634882 0.03640001
v -0.8599997 0 -7.916242E-09
v -0.9271998 0.634882 -5.587935E-09
v -0.8599997 0 -7.916242E-09
v -0.9271998 0.634882 -5.587935E-09
v -0.8787563 0 -0.06999999
v -0.9369531 0.634882 -0.0364
v -0.8787563 0 -0.06999999
v -0.9369531 0.634882 -0.0364
v -0.9299998 0 -0.1212436
v -0.9635997 0.634882 -0.06304666
v -0.9299998 0 -0.1212436
v -0.9635997 0.634882 -0.06304666
v -0.9999998 0 -0.14
v -0.9999998 0.634882 -0.07280001
v -0.9999998 0 -0.14
v -0.9999998 0.634882 -0.07280001
v -1.07 0 -0.1212436
v -1.0364 0.634882 -0.06304666
v -1.07 0 -0.1212436
v -1.0364 0.634882 -0.06304666
v -1.121243 0 -0.07000002
v -1.063046 0.634882 -0.03640002
v -1.121243 0 -0.07000002
v -1.063046 0.634882 -0.03640002
v -1.14 0 4.656613E-09
v -1.0728 0.634882 4.656613E-10
v -1.0728 0.634882 4.656613E-10
v -1.1008 1 2.328306E-09
v -1.063046 0.634882 0.03640001
v -1.087295 1 0.0504
v -1.063046 0.634882 0.03640001
v -1.087295 1 0.0504
v -1.0364 0.634882 0.06304666
v -1.0504 1 0.08729537
v -1.0364 0.634882 0.06304666
v -1.0504 1 0.08729537
v -0.9999998 0.634882 0.07280003
v -0.9999998 1 0.1008
v -0.9999998 0.634882 0.07280003
v -0.9999998 1 0.1008
v -0.9635997 0.634882 0.06304666
v -0.9495997 1 0.08729537
v -0.9635997 0.634882 0.06304666
v -0.9495997 1 0.08729537
v -0.9369531 0.634882 0.03640001
v -0.9127045 1 0.05040001
v -0.9369531 0.634882 0.03640001
v -0.9127045 1 0.05040001
v -0.9271998 0.634882 -5.587935E-09
v -0.8991997 1 -6.519258E-09
v -0.9271998 0.634882 -5.587935E-09
v -0.8991997 1 -6.519258E-09
v -0.9369531 0.634882 -0.0364
v -0.9127045 1 -0.0504
v -0.9369531 0.634882 -0.0364
v -0.9127045 1 -0.0504
v -0.9635997 0.634882 -0.06304666
v -0.9495997 1 -0.08729537
v -0.9635997 0.634882 -0.06304666
v -0.9495997 1 -0.08729537
v -0.9999998 0.634882 -0.07280001
v -0.9999998 1 -0.1008
v -0.9999998 0.634882 -0.07280001
v -0.9999998 1 -0.1008
v -1.0364 0.634882 -0.06304666
v -1.0504 1 -0.08729537
v -1.0364 0.634882 -0.06304666
v -1.0504 1 -0.08729537
v -1.063046 0.634882 -0.03640002
v -1.087295 1 -0.05040001
v -1.063046 0.634882 -0.03640002
v -1.087295 1 -0.05040001
v -1.0728 0.634882 4.656613E-10
v -1.1008 1 2.328306E-09

vn -0.9609168 0.1017095 0.2574761
vn -0.9609168 0.1017096 0.2574763
vn -0.9609168 0.1017096 0.2574763
vn -0.9609167 0.1017096 0.2574767
vn -0.7034391 0.1017096 0.7034405
vn -0.703439 0.1017096 0.7034407
vn -0.703439 0.1017096 0.7034407
vn -0.7034388 0.1017096 0.7034408
vn -0.257477 0.1017096 0.9609166
vn -0.2574771 0.1017096 0.9609166
vn -0.2574771 0.1017096 0.9609166
vn -0.2574774 0.1017096 0.9609165
vn 0.2574771 0.1017096 0.9609166
vn 0.257477 0.1017096 0.9609166
vn 0.257477 0.1017096 0.9609166
vn 0.2574766 0.1017095 0.9609167
vn 0.7034398 0.1017094 0.7034398
vn 0.7034401 0.1017095 0.7034397
vn 0.7034401 0.1017095 0.7034397
vn 0.7034403 0.1017095 0.7034393
vn 0.9609164 0.1017094 0.2574776
vn 0.9609165 0.1017095 0.2574773
vn 0.9609165 0.1017095 0.2574773
vn 0.9609167 0.1017095 0.2574766
vn 0.9609165 0.1017095 -0.2574777
vn 0.9609165 0.1017095 -0.2574774
vn 0.9609165 0.1017095 -0.2574774
vn 0.9609167 0.1017094 -0.2574767
vn 0.7034401 0.1017095 -0.7034397
vn 0.7034402 0.1017095 -0.7034395
vn 0.7034402 0.1017095 -0.7034395
vn 0.7034405 0.1017094 -0.7034392
vn 0.257477 0.1017095 -0.9609166
vn 0.2574767 0.1017096 -0.9609168
vn 0.2574767 0.1017096 -0.9609168
vn 0.2574762 0.1017096 -0.9609168
vn -0.257477 0.1017096 -0.9609166
vn -0.257477 0.1017096 -0.9609166
vn -0.257477 0.1017096 -0.9609166
vn -0.257477 0.1017096 -0.9609166
vn -0.7034391 0.1017096 -0.7034407
vn -0.7034389 0.1017096 -0.7034408
vn -0.7034389 0.1017096 -0.7034408
vn -0.7034386 0.1017096 -0.703441
vn -0.9609169 0.1017096 -0.2574761
vn -0.9609169 0.1017096 -0.2574763
vn -0.9609169 0.1017096 -0.2574763
vn -0.9609167 0.1017095 -0.2574766
vn -0.9632867 -0.07387207 0.2581117
vn -0.9632868 -0.07387209 0.2581117
vn -0.9632868 -0.07387209 0.2581117
vn -0.9632868 -0.07387208 0.2581116
vn -0.7051737 -0.07387204 0.7051758
vn -0.7051741 -0.07387213 0.7051753
vn -0.7051741 -0.07387213 0.7051753
vn -0.7051744 -0.07387217 0.705175
vn -0.2581124 -0.0738721 0.9632865
vn -0.2581121 -0.07387206 0.9632866
vn -0.2581121 -0.07387206 0.9632866
vn -0.2581118 -0.07387203 0.9632867
vn 0.2581117 -0.07387204 0.9632868
vn 0.2581117 -0.07387202 0.9632867
vn 0.2581117 -0.07387202 0.9632867
vn 0.2581118 -0.07387201 0.9632867
vn 0.7051752 -0.07387192 0.7051742
vn 0.7051754 -0.0738719 0.7051741
vn 0.7051754 -0.0738719 0.7051741
vn 0.7051756 -0.07387187 0.705174
vn 0.9632868 -0.07387178 0.2581117
vn 0.9632865 -0.07387193 0.2581128
vn 0.9632865 -0.07387193 0.2581128
vn 0.9632862 -0.07387203 0.2581137
vn 0.9632866 -0.07387207 -0.2581118
vn 0.9632863 -0.07387192 -0.2581129
vn 0.9632863 -0.07387192 -0.2581129
vn 0.9632862 -0.07387181 -0.2581138
vn 0.7051755 -0.07387187 -0.7051741
vn 0.7051755 -0.0738719 -0.7051739
vn 0.7051755 -0.0738719 -0.7051739
vn 0.7051757 -0.07387192 -0.7051739
vn 0.2581113 -0.073872 -0.9632869
vn 0.2581114 -0.07387201 -0.9632868
vn 0.2581114 -0.07387201 -0.9632868
vn 0.2581115 -0.07387203 -0.9632867
vn -0.258112 -0.07387203 -0.9632866
vn -0.2581117 -0.07387206 -0.9632866
vn -0.2581117 -0.07387206 -0.9632866
vn -0.2581115 -0.07387209 -0.9632867
vn -0.7051736 -0.07387221 -0.705176
vn -0.7051747 -0.07387201 -0.7051749
vn -0.7051747 -0.07387201 -0.7051749
vn -0.7051755 -0.07387187 -0.705174
vn -0.9632868 -0.07387178 -0.2581117
vn -0.9632865 -0.07387193 -0.2581128
vn -0.9632865 -0.07387193 -0.2581128
vn -0.9632862 -0.07387202 -0.2581137
vn -0.9609165 0.1017095 0.2574777
vn -0.9609166 0.1017095 0.2574773
vn -0.9609166 0.1017095 0.2574773
vn -0.9609167 0.1017094 0.2574767
vn -0.70344 0.1017095 0.7034397
vn -0.7034401 0.1017095 0.7034396
vn -0.7034401 0.1017095 0.7034396
vn -0.7034404 0.1017094 0.7034393
vn -0.257477 0.1017095 0.9609166
vn -0.2574768 0.1017096 0.9609166
vn -0.2574768 0.1017096 0.9609166
vn -0.2574766 0.1017096 0.9609167
vn 0.2574763 0.1017096 0.9609168
vn 0.257477 0.1017096 0.9609166
vn 0.257477 0.1017096 0.9609166
vn 0.2574781 0.1017097 0.9609162
vn 0.7034414 0.1017099 0.7034382
vn 0.70344 0.1017097 0.7034397
vn 0.70344 0.1017097 0.7034397
vn 0.7034371 0.1017094 0.7034425
vn 0.9609169 0.1017094 0.2574761
vn 0.9609165 0.1017093 0.2574773
vn 0.9609165 0.1017093 0.2574773
vn 0.960916 0.1017091 0.2574795
vn 0.9609168 0.1017092 -0.2574762
vn 0.9609165 0.1017093 -0.2574774
vn 0.9609165 0.1017093 -0.2574774
vn 0.9609159 0.1017095 -0.2574797
vn 0.7034401 0.1017095 -0.7034397
vn 0.7034391 0.1017096 -0.7034405
vn 0.7034391 0.1017096 -0.7034405
vn 0.7034373 0.1017098 -0.7034423
vn 0.257477 0.1017096 -0.9609166
vn 0.2574772 0.1017096 -0.9609166
vn 0.2574772 0.1017096 -0.9609166
vn 0.2574778 0.1017096 -0.9609164
vn -0.257477 0.1017096 -0.9609166
vn -0.2574767 0.1017096 -0.9609168
vn -0.2574767 0.1017096 -0.9609168
vn -0.2574762 0.1017095 -0.9609169
vn -0.7034398 0.1017095 -0.7034398
vn -0.70344 0.1017095 -0.7034397
vn -0.70344 0.1017095 -0.7034397
vn -0.7034402 0.1017095 -0.7034394
vn -0.9609164 0.1017095 -0.2574776
vn -0.9609165 0.1017095 -0.2574772
vn -0.9609165 0.1017095 -0.2574772
vn -0.9609167 0.1017095 -0.2574766
vn -0.9632867 -0.07387207 0.2581117
vn -0.9632863 -0.07387193 0.2581129
vn -0.9632863 -0.07387193 0.2581129
vn -0.9632861 -0.07387181 0.2581137
vn -0.7051753 -0.07387187 0.7051742
vn -0.7051755 -0.0738719 0.7051741
vn -0.7051755 -0.0738719 0.7051741
vn -0.7051756 -0.07387192 0.7051739
vn -0.2581117 -0.07387201 0.9632868
vn -0.2581117 -0.07387202 0.9632867
vn -0.2581117 -0.07387202 0.9632867
vn -0.2581118 -0.07387203 0.9632867
vn 0.2581132 -0.07387201 0.9632864
vn 0.2581124 -0.0738721 0.9632865
vn 0.2581124 -0.0738721 0.9632865
vn 0.2581118 -0.07387218 0.9632867
vn 0.7051721 -0.07387247 0.7051774
vn 0.7051728 -0.07387237 0.7051768
vn 0.7051728 -0.07387237 0.7051768
vn 0.7051733 -0.07387228 0.7051762
vn 0.9632859 -0.07387246 0.2581146
vn 0.9632868 -0.07387207 0.2581116
vn 0.9632868 -0.07387207 0.2581116
vn 0.9632873 -0.0738718 0.2581094
vn 0.9632859 -0.0738717 -0.2581148
vn 0.9632868 -0.07387208 -0.2581117
vn 0.9632868 -0.07387208 -0.2581117
vn 0.9632873 -0.07387236 -0.2581095
vn 0.7051722 -0.07387224 -0.7051773
vn 0.7051729 -0.07387236 -0.7051766
vn 0.7051729 -0.07387236 -0.7051766
vn 0.7051734 -0.07387243 -0.7051761
vn 0.2581128 -0.0738722 -0.9632865
vn 0.258112 -0.0738721 -0.9632866
vn 0.258112 -0.0738721 -0.9632866
vn 0.2581115 -0.07387203 -0.9632867
vn -0.2581113 -0.07387204 -0.9632869
vn -0.2581114 -0.07387202 -0.9632868
vn -0.2581114 -0.07387202 -0.9632868
vn -0.2581115 -0.073872 -0.9632867
vn -0.7051751 -0.07387193 -0.7051743
vn -0.7051754 -0.0738719 -0.7051741
vn -0.7051754 -0.0738719 -0.7051741
vn -0.7051755 -0.07387187 -0.705174
vn -0.9632868 -0.07387178 -0.2581117
vn -0.9632865 -0.07387193 -0.2581128
vn -0.9632865 -0.07387193 -0.2581128
vn -0.9632862 -0.07387202 -0.2581137
vn -0.9609159 0.1017098 0.2574792
vn -0.9609166 0.1017097 0.2574773
vn -0.9609166 0.1017097 0.2574773
vn -0.9609175 0.1017093 0.2574738
vn -0.70344 0.1017095 0.7034397
vn -0.7034401 0.1017095 0.7034396
vn -0.7034401 0.1017095 0.7034396
vn -0.7034404 0.1017094 0.7034393
vn -0.257477 0.1017095 0.9609166
vn -0.2574768 0.1017096 0.9609166
vn -0.2574768 0.1017096 0.9609166
vn -0.2574766 0.1017096 0.9609167
vn 0.2574767 0.1017096 0.9609166
vn 0.257477 0.1017096 0.9609166
vn 0.257477 0.1017096 0.9609166
vn 0.2574774 0.1017096 0.9609165
vn 0.7034398 0.1017097 0.7034398
vn 0.7034395 0.1017096 0.7034402
vn 0.7034395 0.1017096 0.7034402
vn 0.7034387 0.1017096 0.7034409
vn 0.9609169 0.1017096 0.2574761
vn 0.9609168 0.1017096 0.2574763
vn 0.9609168 0.1017096 0.2574763
vn 0.9609167 0.1017095 0.2574766
vn 0.9609168 0.1017095 -0.2574762
vn 0.9609168 0.1017096 -0.2574764
vn 0.9609168 0.1017096 -0.2574764
vn 0.9609167 0.1017096 -0.2574767
vn 0.7034392 0.1017096 -0.7034405
vn 0.7034391 0.1017096 -0.7034405
vn 0.7034391 0.1017096 -0.7034405
vn 0.7034389 0.1017096 -0.7034408
vn 0.257477 0.1017096 -0.9609166
vn 0.257477 0.1017096 -0.9609166
vn 0.257477 0.1017096 -0.9609166
vn 0.257477 0.1017096 -0.9609166
vn -0.257477 0.1017096 -0.9609166
vn -0.2574767 0.1017096 -0.9609168
vn -0.2574767 0.1017096 -0.9609168
vn -0.2574762 0.1017095 -0.9609169
vn -0.7034398 0.1017095 -0.7034398
vn -0.70344 0.1017095 -0.7034397
vn -0.70344 0.1017095 -0.7034397
vn -0.7034402 0.1017095 -0.7034394
vn -0.9609161 0.1017095 -0.2574791
vn -0.9609165 0.1017097 -0.2574773
vn -0.9609165 0.1017097 -0.2574773
vn -0.9609175 0.10171 -0.2574737
vn -0.9632875 -0.07387245 0.2581088
vn -0.9632868 -0.07387209 0.2581117
vn -0.9632868 -0.07387209 0.2581117
vn -0.9632861 -0.07387181 0.2581137
vn -0.7051753 -0.07387187 0.7051742
vn -0.7051755 -0.0738719 0.7051741
vn -0.7051755 -0.0738719 0.7051741
vn -0.7051756 -0.07387192 0.7051739
vn -0.2581117 -0.07387201 0.9632868
vn -0.2581117 -0.07387202 0.9632867
vn -0.2581117 -0.07387202 0.9632867
vn -0.2581118 -0.07387203 0.9632867
vn 0.2581124 -0.07387201 0.9632865
vn 0.2581121 -0.07387206 0.9632866
vn 0.2581121 -0.07387206 0.9632866
vn 0.2581118 -0.0738721 0.9632867
vn 0.7051737 -0.0738722 0.7051758
vn 0.7051741 -0.07387213 0.7051755
vn 0.7051741 -0.07387213 0.7051755
vn 0.7051744 -0.07387207 0.705175
vn 0.9632866 -0.07387208 0.2581116
vn 0.9632868 -0.07387207 0.2581116
vn 0.9632868 -0.07387207 0.2581116
vn 0.9632868 -0.07387207 0.2581115
vn 0.9632866 -0.07387207 -0.2581118
vn 0.9632868 -0.07387208 -0.2581117
vn 0.9632868 -0.07387208 -0.2581117
vn 0.9632868 -0.07387209 -0.2581117
vn 0.7051738 -0.07387204 -0.7051757
vn 0.7051743 -0.07387213 -0.7051753
vn 0.7051743 -0.07387213 -0.7051753
vn 0.7051746 -0.07387218 -0.705175
vn 0.258112 -0.0738721 -0.9632866
vn 0.2581117 -0.07387206 -0.9632866
vn 0.2581117 -0.07387206 -0.9632866
vn 0.2581115 -0.07387203 -0.9632867
vn -0.2581113 -0.07387204 -0.9632869
vn -0.2581114 -0.07387202 -0.9632868
vn -0.2581114 -0.07387202 -0.9632868
vn -0.2581115 -0.073872 -0.9632867
vn -0.7051751 -0.07387193 -0.7051743
vn -0.7051754 -0.0738719 -0.7051741
vn -0.7051754 -0.0738719 -0.7051741
vn -0.7051755 -0.07387187 -0.705174
vn -0.9632875 -0.07387171 -0.2581087
vn -0.9632868 -0.07387207 -0.2581116
vn -0.9632868 -0.07387207 -0.2581116
vn -0.9632862 -0.07387234 -0.2581137
vn -0.9609168 0.1017092 0.2574761
vn -0.960916 0.1017095 0.2574794
vn -0.960916 0.1017095 0.2574794
vn -0.9609143 0.10171 0.2574855
vn -0.7034415 0.1017098 0.703438
vn -0.7034411 0.1017099 0.7034385
vn -0.7034411 0.1017099 0.7034385
vn -0.7034404 0.10171 0.7034392
vn -0.2574762 0.1017097 0.9609168
vn -0.2574768 0.1017096 0.9609166
vn -0.2574768 0.1017096 0.9609166
vn -0.2574781 0.1017095 0.9609163
vn 0.2574771 0.1017096 0.9609166
vn 0.257477 0.1017096 0.9609166
vn 0.257477 0.1017096 0.9609166
vn 0.2574766 0.1017095 0.9609167
vn 0.7034398 0.1017094 0.7034398
vn 0.7034401 0.1017095 0.7034397
vn 0.7034401 0.1017095 0.7034397
vn 0.7034403 0.1017095 0.7034393
vn 0.9609161 0.1017095 0.2574792
vn 0.9609165 0.1017097 0.2574773
vn 0.9609165 0.1017097 0.2574773
vn 0.9609175 0.10171 0.2574737
vn 0.960916 0.1017098 -0.2574793
vn 0.9609165 0.1017096 -0.2574774
vn 0.9609165 0.1017096 -0.2574774
vn 0.9609174 0.1017093 -0.2574738
vn 0.7034401 0.1017095 -0.7034397
vn 0.7034402 0.1017095 -0.7034395
vn 0.7034402 0.1017095 -0.7034395
vn 0.7034405 0.1017094 -0.7034392
vn 0.257477 0.1017095 -0.9609166
vn 0.2574767 0.1017096 -0.9609168
vn 0.2574767 0.1017096 -0.9609168
vn 0.2574762 0.1017096 -0.9609168
vn -0.2574762 0.1017096 -0.9609168
vn -0.2574767 0.1017097 -0.9609168
vn -0.2574767 0.1017097 -0.9609168
vn -0.2574778 0.1017098 -0.9609164
vn -0.7034414 0.1017099 -0.7034382
vn -0.703441 0.1017099 -0.7034386
vn -0.703441 0.1017099 -0.7034386
vn -0.7034402 0.1017098 -0.7034394
vn -0.9609168 0.1017098 -0.257476
vn -0.960916 0.1017095 -0.2574793
vn -0.960916 0.1017095 -0.2574793
vn -0.9609144 0.1017089 -0.2574854
vn -0.9632844 -0.07387158 0.2581206
vn -0.963286 -0.07387239 0.2581141
vn -0.963286 -0.07387239 0.2581141
vn -0.9632872 -0.07387298 0.2581095
vn -0.7051753 -0.07387279 0.7051742
vn -0.7051728 -0.07387235 0.7051767
vn -0.7051728 -0.07387235 0.7051767
vn -0.705171 -0.07387204 0.7051785
vn -0.2581132 -0.07387204 0.9632864
vn -0.2581131 -0.07387201 0.9632863
vn -0.2581131 -0.07387201 0.9632863
vn -0.2581129 -0.073872 0.9632863
vn 0.2581117 -0.07387204 0.9632868
vn 0.2581117 -0.07387202 0.9632867
vn 0.2581117 -0.07387202 0.9632867
vn 0.2581118 -0.07387201 0.9632867
vn 0.7051752 -0.07387192 0.7051742
vn 0.7051754 -0.0738719 0.7051741
vn 0.7051754 -0.0738719 0.7051741
vn 0.7051756 -0.07387187 0.705174
vn 0.9632875 -0.07387171 0.2581087
vn 0.9632868 -0.07387207 0.2581116
vn 0.9632868 -0.07387207 0.2581116
vn 0.9632861 -0.07387234 0.2581137
vn 0.9632875 -0.07387244 -0.2581089
vn 0.9632868 -0.07387207 -0.2581117
vn 0.9632868 -0.07387207 -0.2581117
vn 0.9632862 -0.07387181 -0.2581138
vn 0.7051755 -0.07387187 -0.7051741
vn 0.7051755 -0.0738719 -0.7051739
vn 0.7051755 -0.0738719 -0.7051739
vn 0.7051757 -0.07387192 -0.7051739
vn 0.2581113 -0.073872 -0.9632869
vn 0.2581114 -0.07387201 -0.9632868
vn 0.2581114 -0.07387201 -0.9632868
vn 0.2581115 -0.07387203 -0.9632867
vn -0.2581128 -0.07387201 -0.9632865
vn -0.2581127 -0.07387202 -0.9632864
vn -0.2581127 -0.07387202 -0.9632864
vn -0.2581126 -0.07387202 -0.9632864
vn -0.7051751 -0.07387193 -0.7051743
vn -0.7051727 -0.07387235 -0.7051768
vn -0.7051727 -0.07387235 -0.7051768
vn -0.7051709 -0.07387266 -0.7051786
vn -0.9632843 -0.07387321 -0.2581204
vn -0.963286 -0.07387239 -0.258114
vn -0.963286 -0.07387239 -0.258114
vn -0.9632874 -0.07387179 -0.2581094
vn 0 -0.08268495 0.9965758
vn 0 -0.08268495 0.9965758
vn 0 -0.08268495 0.9965758
vn 0 -0.08268495 0.9965758
vn 0 0.08268495 -0.9965758
vn 0 0.08268495 -0.9965758
vn 0 0.08268495 -0.9965758
vn 0 0.08268495 -0.9965758
vn 0 1 0
vn 0 1 0
vn 0 1 0
vn 0 1 0
vn 0 -1 0
vn 0 -1 0
vn 0 -1 0
vn 0 -1 0
vn 0 0.9604183 0.2785616
vn 0 0.9604183 0.2785616
vn 0 0.9604183 0.2785616
vn 0 0.9604183 0.2785616
vn 0 0.9604183 -0.2785616
vn 0 0.9604183 -0.2785616
vn 0 0.9604183 -0.2785616
vn 0 0.9604183 -0.2785616
vn 0 0 1
vn 0 0 1
vn 0 0 1
vn 0 0 1
vn 0.9999999 0 0
vn 0.9999999 0 0
vn 0.9999999 0 0
vn 0.9999999 0 0
vn -0.9999999 0 0
vn -0.9999999 0 0
vn -0.9999999 0 0
vn -0.9999999 0 0
vn 0 0 -1
vn 0 0 -1
vn 0 0 -1
vn 0 0 -1
vn -1 0 0
vn -1 0 0
vn -1 0 0
vn -1 0 0
vn -1 0 0
vn -0.9999999 0 0
vn 1 0 0
vn 1 0 0
vn 1 0 0
vn 1 0 0
vn 1 0 0
vn 1 0 0
vn -0.9609159 0.1017098 0.2574792
vn -0.9609166 0.1017097 0.2574773
vn -0.9609166 0.1017097 0.2574773
vn -0.9609175 0.1017093 0.2574738
vn -0.70344 0.1017095 0.7034397
vn -0.7034401 0.1017095 0.7034396
vn -0.7034401 0.1017095 0.7034396
vn -0.7034404 0.1017094 0.7034393
vn -0.257477 0.1017095 0.9609166
vn -0.2574768 0.1017096 0.9609166
vn -0.2574768 0.1017096 0.9609166
vn -0.2574766 0.1017096 0.9609167
vn 0.2574771 0.1017096 0.9609166
vn 0.257477 0.1017096 0.9609166
vn 0.257477 0.1017096 0.9609166
vn 0.2574766 0.1017095 0.9609167
vn 0.7034398 0.1017094 0.7034398
vn 0.7034401 0.1017095 0.7034397
vn 0.7034401 0.1017095 0.7034397
vn 0.7034403 0.1017095 0.7034393
vn 0.9609161 0.1017095 0.2574792
vn 0.9609165 0.1017097 0.2574773
vn 0.9609165 0.1017097 0.2574773
vn 0.9609175 0.10171 0.2574737
vn 0.960916 0.1017098 -0.2574793
vn 0.9609165 0.1017096 -0.2574774
vn 0.9609165 0.1017096 -0.2574774
vn 0.9609174 0.1017093 -0.2574738
vn 0.7034401 0.1017095 -0.7034397
vn 0.7034402 0.1017095 -0.7034395
vn 0.7034402 0.1017095 -0.7034395
vn 0.7034405 0.1017094 -0.7034392
vn 0.257477 0.1017095 -0.9609166
vn 0.2574767 0.1017096 -0.9609168
vn 0.2574767 0.1017096 -0.9609168
vn 0.2574762 0.1017096 -0.9609168
vn -0.257477 0.1017096 -0.9609166
vn -0.2574767 0.1017096 -0.9609168
vn -0.2574767 0.1017096 -0.9609168
vn -0.2574762 0.1017095 -0.9609169
vn -0.7034398 0.1017095 -0.7034398
vn -0.70344 0.1017095 -0.7034397
vn -0.70344 0.1017095 -0.7034397
vn -0.7034402 0.1017095 -0.7034394
vn -0.9609161 0.1017095 -0.2574791
vn -0.9609165 0.1017097 -0.2574773
vn -0.9609165 0.1017097 -0.2574773
vn -0.9609175 0.10171 -0.2574737
vn -0.9632875 -0.07387245 0.2581088
vn -0.9632868 -0.07387209 0.2581117
vn -0.9632868 -0.07387209 0.2581117
vn -0.9632861 -0.07387181 0.2581137
vn -0.7051753 -0.07387187 0.7051742
vn -0.7051755 -0.0738719 0.7051741
vn -0.7051755 -0.0738719 0.7051741
vn -0.7051756 -0.07387192 0.7051739
vn -0.2581117 -0.07387201 0.9632868
vn -0.2581117 -0.07387202 0.9632867
vn -0.2581117 -0.07387202 0.9632867
vn -0.2581118 -0.07387203 0.9632867
vn 0.2581117 -0.07387204 0.9632868
vn 0.2581117 -0.07387202 0.9632867
vn 0.2581117 -0.07387202 0.9632867
vn 0.2581118 -0.07387201 0.9632867
vn 0.7051752 -0.07387192 0.7051742
vn 0.7051754 -0.0738719 0.7051741
vn 0.7051754 -0.0738719 0.7051741
vn 0.7051756 -0.07387187 0.705174
vn 0.9632875 -0.07387171 0.2581087
vn 0.9632868 -0.07387207 0.2581116
vn 0.9632868 -0.07387207 0.2581116
vn 0.9632861 -0.07387234 0.2581137
vn 0.9632875 -0.07387244 -0.2581089
vn 0.9632868 -0.07387207 -0.2581117
vn 0.9632868 -0.07387207 -0.2581117
vn 0.9632862 -0.07387181 -0.2581138
vn 0.7051755 -0.07387187 -0.7051741
vn 0.7051755 -0.0738719 -0.7051739
vn 0.7051755 -0.0738719 -0.7051739
vn 0.7051757 -0.07387192 -0.7051739
vn 0.2581113 -0.073872 -0.9632869
vn 0.2581114 -0.07387201 -0.9632868
vn 0.2581114 -0.07387201 -0.9632868
vn 0.2581115 -0.07387203 -0.9632867
vn -0.2581113 -0.07387204 -0.9632869
vn -0.2581114 -0.07387202 -0.9632868
vn -0.2581114 -0.07387202 -0.9632868
vn -0.2581115 -0.073872 -0.9632867
vn -0.7051751 -0.07387193 -0.7051743
vn -0.7051754 -0.0738719 -0.7051741
vn -0.7051754 -0.0738719 -0.7051741
vn -0.7051755 -0.07387187 -0.705174
vn -0.9632875 -0.07387171 -0.2581087
vn -0.9632868 -0.07387207 -0.2581116
vn -0.9632868 -0.07387207 -0.2581116
vn -0.9632862 -0.07387234 -0.2581137

vt 0.5368554 0.5979676
vt 0.5028029 0.8161908
vt 0.5613827 0.6024055
vt 0.5154952 0.8184501
vt 0.5613827 0.6024055
vt 0.5154952 0.8184501
vt 0.585621 0.6081868
vt 0.5280345 0.8214114
vt 0.585621 0.6081868
vt 0.5280345 0.8214114
vt 0.609569 0.6153355
vt 0.5404546 0.8251072
vt 0.3151936 0.6192404
vt 0.3879399 0.8277804
vt 0.3390464 0.6115568
vt 0.4003263 0.8237494
vt 0.3390464 0.6115568
vt 0.4003263 0.8237494
vt 0.3632389 0.6051136
vt 0.4128706 0.8203289
vt 0.3632389 0.6051136
vt 0.4128706 0.8203289
vt 0.3877304 0.6000057
vt 0.4255669 0.8176048
vt 0.3877304 0.6000057
vt 0.4255669 0.8176048
vt 0.4124485 0.5962483
vt 0.4383771 0.8155852
vt 0.4124485 0.5962483
vt 0.4383771 0.8155852
vt 0.4373196 0.5938526
vt 0.4512633 0.8142761
vt 0.4373196 0.5938526
vt 0.4512633 0.8142761
vt 0.4622699 0.5928257
vt 0.4641874 0.8136814
vt 0.4622699 0.5928257
vt 0.4641874 0.8136814
vt 0.4872254 0.5931706
vt 0.4771109 0.8138029
vt 0.4872254 0.5931706
vt 0.4771109 0.8138029
vt 0.5121118 0.5948862
vt 0.4899955 0.8146402
vt 0.5121118 0.5948862
vt 0.4899955 0.8146402
vt 0.5368554 0.5979676
vt 0.5028029 0.8161908
vt 0.5012264 0.8613006
vt 0.5130253 0.9874334
vt 0.5141799 0.8598297
vt 0.5309611 0.9853968
vt 0.5141799 0.8598297
vt 0.5309611 0.9853968
vt 0.5270652 0.8578474
vt 0.5488021 0.9826521
vt 0.5270652 0.8578474
vt 0.5488021 0.9826521
vt 0.5398619 0.8553568
vt 0.5665207 0.9792035
vt 0.384927 0.8514088
vt 0.3519953 0.9737371
vt 0.3975802 0.8545479
vt 0.3695152 0.9780836
vt 0.3975802 0.8545479
vt 0.3695152 0.9780836
vt 0.4103478 0.8571839
vt 0.3871933 0.9817334
vt 0.4103478 0.8571839
vt 0.3871933 0.9817334
vt 0.4232095 0.8593126
vt 0.405002 0.9846808
vt 0.4232095 0.8593126
vt 0.405002 0.9846808
vt 0.4361455 0.8609306
vt 0.4229134 0.9869211
vt 0.4361455 0.8609306
vt 0.4229134 0.9869211
vt 0.4491355 0.8620355
vt 0.4408994 0.9884509
vt 0.4491355 0.8620355
vt 0.4408994 0.9884509
vt 0.4621589 0.8626254
vt 0.4589319 0.9892678
vt 0.4621589 0.8626254
vt 0.4589319 0.9892678
vt 0.4751955 0.8626994
vt 0.4769826 0.9893703
vt 0.4751955 0.8626994
vt 0.4769826 0.9893703
vt 0.4882248 0.8622577
vt 0.4950231 0.9887586
vt 0.4882248 0.8622577
vt 0.4950231 0.9887586
vt 0.5012264 0.8613006
vt 0.5130253 0.9874334
vt 0.230197 0.5989928
vt 0.1961446 0.817216
vt 0.2547243 0.6034307
vt 0.2088367 0.8194753
vt 0.2547243 0.6034307
vt 0.2088367 0.8194753
vt 0.2789626 0.609212
vt 0.2213762 0.8224366
vt 0.2789626 0.609212
vt 0.2213762 0.8224366
vt 0.3029106 0.6163607
vt 0.2337962 0.8261324
vt 0.008535236 0.6202655
vt 0.08128148 0.8288056
vt 0.0323879 0.6125819
vt 0.09366792 0.8247746
vt 0.0323879 0.6125819
vt 0.09366792 0.8247746
vt 0.05658045 0.6061387
vt 0.1062123 0.8213541
vt 0.05658045 0.6061387
vt 0.1062123 0.8213541
vt 0.08107205 0.6010309
vt 0.1189085 0.8186299
vt 0.08107205 0.6010309
vt 0.1189085 0.8186299
vt 0.1057901 0.5972735
vt 0.1317187 0.8166103
vt 0.1057901 0.5972735
vt 0.1317187 0.8166103
vt 0.1306613 0.5948778
vt 0.1446049 0.8153012
vt 0.1306613 0.5948778
vt 0.1446049 0.8153012
vt 0.1556115 0.5938509
vt 0.157529 0.8147066
vt 0.1556115 0.5938509
vt 0.157529 0.8147066
vt 0.180567 0.5941957
vt 0.1704525 0.8148281
vt 0.180567 0.5941957
vt 0.1704525 0.8148281
vt 0.2054534 0.5959114
vt 0.1833372 0.8156654
vt 0.2054534 0.5959114
vt 0.1833372 0.8156654
vt 0.230197 0.5989928
vt 0.1961446 0.817216
vt 0.1945681 0.8623257
vt 0.206367 0.9884585
vt 0.2075215 0.8608548
vt 0.2243027 0.9864219
vt 0.2075215 0.8608548
vt 0.2243027 0.9864219
vt 0.2204068 0.8588725
vt 0.2421438 0.9836772
vt 0.2204068 0.8588725
vt 0.2421438 0.9836772
vt 0.2332035 0.8563818
vt 0.2598622 0.9802286
vt 0.07826861 0.8524339
vt 0.04533698 0.9747623
vt 0.09092184 0.8555731
vt 0.06285682 0.9791088
vt 0.09092184 0.8555731
vt 0.06285682 0.9791088
vt 0.1036893 0.8582091
vt 0.08053487 0.9827586
vt 0.1036893 0.8582091
vt 0.08053487 0.9827586
vt 0.1165512 0.8603377
vt 0.09834366 0.9857059
vt 0.1165512 0.8603377
vt 0.09834366 0.9857059
vt 0.1294872 0.8619558
vt 0.116255 0.9879463
vt 0.1294872 0.8619558
vt 0.116255 0.9879463
vt 0.1424771 0.8630606
vt 0.134241 0.989476
vt 0.1424771 0.8630606
vt 0.134241 0.989476
vt 0.1555005 0.8636505
vt 0.1522735 0.9902928
vt 0.1555005 0.8636505
vt 0.1522735 0.9902928
vt 0.1685371 0.8637246
vt 0.1703241 0.9903955
vt 0.1685371 0.8637246
vt 0.1703241 0.9903955
vt 0.1815664 0.8632828
vt 0.1883647 0.9897838
vt 0.1815664 0.8632828
vt 0.1883647 0.9897838
vt 0.1945681 0.8623257
vt 0.206367 0.9884585
vt 0.8514981 0.593954
vt 0.8174456 0.8121772
vt 0.8760254 0.598392
vt 0.8301378 0.8144366
vt 0.8760254 0.598392
vt 0.8301378 0.8144366
vt 0.9002637 0.6041732
vt 0.8426772 0.8173979
vt 0.9002637 0.6041732
vt 0.8426772 0.8173979
vt 0.9242117 0.6113219
vt 0.8550972 0.8210936
vt 0.6298363 0.6152268
vt 0.7025825 0.8237668
vt 0.653689 0.6075432
vt 0.714969 0.8197358
vt 0.653689 0.6075432
vt 0.714969 0.8197358
vt 0.6778815 0.6011
vt 0.7275134 0.8163154
vt 0.6778815 0.6011
vt 0.7275134 0.8163154
vt 0.7023731 0.5959922
vt 0.7402096 0.8135912
vt 0.7023731 0.5959922
vt 0.7402096 0.8135912
vt 0.7270911 0.5922347
vt 0.7530198 0.8115717
vt 0.7270911 0.5922347
vt 0.7530198 0.8115717
vt 0.7519623 0.589839
vt 0.765906 0.8102626
vt 0.7519623 0.589839
vt 0.765906 0.8102626
vt 0.7769126 0.5888121
vt 0.77883 0.8096679
vt 0.7769126 0.5888121
vt 0.77883 0.8096679
vt 0.801868 0.589157
vt 0.7917536 0.8097894
vt 0.801868 0.589157
vt 0.7917536 0.8097894
vt 0.8267545 0.5908726
vt 0.8046382 0.8106266
vt 0.8267545 0.5908726
vt 0.8046382 0.8106266
vt 0.8514981 0.593954
vt 0.8174456 0.8121772
vt 0.8158692 0.857287
vt 0.8276681 0.9834198
vt 0.8288226 0.8558161
vt 0.8456038 0.9813833
vt 0.8288226 0.8558161
vt 0.8456038 0.9813833
vt 0.8417079 0.8538338
vt 0.8634449 0.9786385
vt 0.8417079 0.8538338
vt 0.8634449 0.9786385
vt 0.8545045 0.8513432
vt 0.8811633 0.9751899
vt 0.6995696 0.8473952
vt 0.6666381 0.9697235
vt 0.7122229 0.8505344
vt 0.6841579 0.97407
vt 0.7122229 0.8505344
vt 0.6841579 0.97407
vt 0.7249904 0.8531703
vt 0.7018359 0.9777198
vt 0.7249904 0.8531703
vt 0.7018359 0.9777198
vt 0.7378523 0.8552991
vt 0.7196447 0.9806672
vt 0.7378523 0.8552991
vt 0.7196447 0.9806672
vt 0.7507883 0.8569171
vt 0.7375561 0.9829075
vt 0.7507883 0.8569171
vt 0.7375561 0.9829075
vt 0.7637782 0.8580219
vt 0.7555421 0.9844373
vt 0.7637782 0.8580219
vt 0.7555421 0.9844373
vt 0.7768016 0.8586118
vt 0.7735746 0.9852542
vt 0.7768016 0.8586118
vt 0.7735746 0.9852542
vt 0.7898382 0.8586859
vt 0.7916252 0.9853567
vt 0.7898382 0.8586859
vt 0.7916252 0.9853567
vt 0.8028675 0.8582441
vt 0.8096658 0.984745
vt 0.8028675 0.8582441
vt 0.8096658 0.984745
vt 0.8158692 0.857287
vt 0.8276681 0.9834198
vt 0.6963837 0.1934417
vt 0.6623312 0.4116649
vt 0.720911 0.1978796
vt 0.6750234 0.4139242
vt 0.720911 0.1978796
vt 0.6750234 0.4139242
vt 0.7451493 0.2036609
vt 0.6875628 0.4168855
vt 0.7451493 0.2036609
vt 0.6875628 0.4168855
vt 0.7690972 0.2108096
vt 0.6999829 0.4205813
vt 0.4747219 0.2147145
vt 0.5474681 0.4232545
vt 0.4985746 0.2070309
vt 0.5598546 0.4192235
vt 0.4985746 0.2070309
vt 0.5598546 0.4192235
vt 0.5227671 0.2005877
vt 0.572399 0.415803
vt 0.5227671 0.2005877
vt 0.572399 0.415803
vt 0.5472587 0.1954798
vt 0.5850952 0.4130788
vt 0.5472587 0.1954798
vt 0.5850952 0.4130788
vt 0.5719768 0.1917225
vt 0.5979053 0.4110593
vt 0.5719768 0.1917225
vt 0.5979053 0.4110593
vt 0.5968479 0.1893267
vt 0.6107916 0.4097502
vt 0.5968479 0.1893267
vt 0.6107916 0.4097502
vt 0.6217982 0.1882998
vt 0.6237156 0.4091555
vt 0.6217982 0.1882998
vt 0.6237156 0.4091555
vt 0.6467535 0.1886446
vt 0.6366392 0.409277
vt 0.6467535 0.1886446
vt 0.6366392 0.409277
vt 0.67164 0.1903603
vt 0.6495238 0.4101143
vt 0.67164 0.1903603
vt 0.6495238 0.4101143
vt 0.6963837 0.1934417
vt 0.6623312 0.4116649
vt 0.6607547 0.4567747
vt 0.6725537 0.5829075
vt 0.6737082 0.4553038
vt 0.6904894 0.5808709
vt 0.6737082 0.4553038
vt 0.6904894 0.5808709
vt 0.6865935 0.4533215
vt 0.7083305 0.5781262
vt 0.6865935 0.4533215
vt 0.7083305 0.5781262
vt 0.6993901 0.4508308
vt 0.7260489 0.5746775
vt 0.5444553 0.4468828
vt 0.5115237 0.5692111
vt 0.5571085 0.450022
vt 0.5290435 0.5735577
vt 0.5571085 0.450022
vt 0.5290435 0.5735577
vt 0.569876 0.452658
vt 0.5467215 0.5772075
vt 0.569876 0.452658
vt 0.5467215 0.5772075
vt 0.5827379 0.4547867
vt 0.5645303 0.5801549
vt 0.5827379 0.4547867
vt 0.5645303 0.5801549
vt 0.5956739 0.4564047
vt 0.5824417 0.5823952
vt 0.5956739 0.4564047
vt 0.5824417 0.5823952
vt 0.6086637 0.4575095
vt 0.6004277 0.583925
vt 0.6086637 0.4575095
vt 0.6004277 0.583925
vt 0.6216872 0.4580995
vt 0.6184602 0.5847418
vt 0.6216872 0.4580995
vt 0.6184602 0.5847418
vt 0.6347238 0.4581736
vt 0.6365108 0.5848445
vt 0.6347238 0.4581736
vt 0.6365108 0.5848445
vt 0.6477531 0.4577318
vt 0.6545514 0.5842327
vt 0.6477531 0.4577318
vt 0.6545514 0.5842327
vt 0.6607547 0.4567747
vt 0.6725537 0.5829075
vt 0 0.0727128
vt 1 0.07271272
vt 0 0.05264409
vt 1 0.05264399
vt 1 0.1327128
vt 0 0.1327128
vt 1 0.1527815
vt 0 0.1527815
vt 0 0.02708594
vt 1 0.02708594
vt 0 0.005539107
vt 1 0.005539107
vt 0 0.1327128
vt 1 0.1327127
vt 0 0.0727128
vt 1 0.07271272
vt 0 0.05264404
vt 1 0.05264404
vt 0 0.03262503
vt 1 0.03262503
vt 1 0.1527815
vt 0 0.1527815
vt 1 0.1728005
vt 0 0.1728005
vt 0 0.03262508
vt 1 0.03262498
vt 0 0.02708598
vt 1 0.02708589
vt 0.9944921 0.2722974
vt 0.9944921 0.2938443
vt 1.000031 0.2722974
vt 1.000031 0.2938443
vt 0.005461593 0.2755909
vt 0.005461593 0.2540441
vt -7.754122E-05 0.2755909
vt -7.754122E-05 0.2540441
vt 1 0
vt 0 0
vt 1 0.005539107
vt 0 0.005539107
vt 0.01996602 0.1868123
vt 0.01996602 0.2468123
vt 0.02554273 0.2060389
vt 0.02554273 0.2275857
vt -3.404822E-05 0.1884717
vt -3.404822E-05 0.2484717
vt 1.000029 0.2611693
vt 1.000029 0.2011693
vt 0.9800287 0.2595099
vt 0.9800287 0.1995099
vt 0.974452 0.2402833
vt 0.974452 0.2187365
vt 0.3881515 0.1973661
vt 0.3540991 0.4155893
vt 0.4126789 0.201804
vt 0.3667913 0.4178486
vt 0.4126789 0.201804
vt 0.3667913 0.4178486
vt 0.4369171 0.2075852
vt 0.3793306 0.4208099
vt 0.4369171 0.2075852
vt 0.3793306 0.4208099
vt 0.4608651 0.214734
vt 0.3917508 0.4245057
vt 0.1664898 0.2186389
vt 0.239236 0.4271789
vt 0.1903425 0.2109553
vt 0.2516224 0.4231479
vt 0.1903425 0.2109553
vt 0.2516224 0.4231479
vt 0.214535 0.2045121
vt 0.2641668 0.4197274
vt 0.214535 0.2045121
vt 0.2641668 0.4197274
vt 0.2390266 0.1994042
vt 0.276863 0.4170032
vt 0.2390266 0.1994042
vt 0.276863 0.4170032
vt 0.2637446 0.1956468
vt 0.2896732 0.4149837
vt 0.2637446 0.1956468
vt 0.2896732 0.4149837
vt 0.2886158 0.1932511
vt 0.3025594 0.4136746
vt 0.2886158 0.1932511
vt 0.3025594 0.4136746
vt 0.3135661 0.1922242
vt 0.3154835 0.4130799
vt 0.3135661 0.1922242
vt 0.3154835 0.4130799
vt 0.3385215 0.192569
vt 0.328407 0.4132014
vt 0.3385215 0.192569
vt 0.328407 0.4132014
vt 0.3634079 0.1942847
vt 0.3412917 0.4140387
vt 0.3634079 0.1942847
vt 0.3412917 0.4140387
vt 0.3881515 0.1973661
vt 0.3540991 0.4155893
vt 0.3525226 0.4606991
vt 0.3643215 0.5868319
vt 0.3654761 0.4592282
vt 0.3822572 0.5847953
vt 0.3654761 0.4592282
vt 0.3822572 0.5847953
vt 0.3783613 0.4572458
vt 0.4000983 0.5820506
vt 0.3783613 0.4572458
vt 0.4000983 0.5820506
vt 0.391158 0.4547552
vt 0.4178168 0.578602
vt 0.2362232 0.4508072
vt 0.2032915 0.5731356
vt 0.2488764 0.4539464
vt 0.2208113 0.577482
vt 0.2488764 0.4539464
vt 0.2208113 0.577482
vt 0.2616439 0.4565824
vt 0.2384894 0.5811319
vt 0.2616439 0.4565824
vt 0.2384894 0.5811319
vt 0.2745057 0.4587111
vt 0.2562982 0.5840793
vt 0.2745057 0.4587111
vt 0.2562982 0.5840793
vt 0.2874417 0.4603291
vt 0.2742096 0.5863196
vt 0.2874417 0.4603291
vt 0.2742096 0.5863196
vt 0.3004316 0.4614339
vt 0.2921956 0.5878494
vt 0.3004316 0.4614339
vt 0.2921956 0.5878494
vt 0.3134551 0.4620239
vt 0.310228 0.5886662
vt 0.3134551 0.4620239
vt 0.310228 0.5886662
vt 0.3264917 0.4620979
vt 0.3282787 0.5887688
vt 0.3264917 0.4620979
vt 0.3282787 0.5887688
vt 0.3395209 0.4616561
vt 0.3463193 0.5881571
vt 0.3395209 0.4616561
vt 0.3463193 0.5881571
vt 0.3525226 0.4606991
vt 0.3643215 0.5868319

g Default_Prototype
usemtl Default_Prototype
usemap Default_Prototype
f 2/2/2 1/1/1 3/3/3
f 4/4/4 2/2/2 3/3/3
f 6/6/6 5/5/5 7/7/7
f 8/8/8 6/6/6 7/7/7
f 10/10/10 9/9/9 11/11/11
f 12/12/12 10/10/10 11/11/11
f 14/14/14 13/13/13 15/15/15
f 16/16/16 14/14/14 15/15/15
f 18/18/18 17/17/17 19/19/19
f 20/20/20 18/18/18 19/19/19
f 22/22/22 21/21/21 23/23/23
f 24/24/24 22/22/22 23/23/23
f 26/26/26 25/25/25 27/27/27
f 28/28/28 26/26/26 27/27/27
f 30/30/30 29/29/29 31/31/31
f 32/32/32 30/30/30 31/31/31
f 34/34/34 33/33/33 35/35/35
f 36/36/36 34/34/34 35/35/35
f 38/38/38 37/37/37 39/39/39
f 40/40/40 38/38/38 39/39/39
f 42/42/42 41/41/41 43/43/43
f 44/44/44 42/42/42 43/43/43
f 46/46/46 45/45/45 47/47/47
f 48/48/48 46/46/46 47/47/47
f 50/50/50 49/49/49 51/51/51
f 52/52/52 50/50/50 51/51/51
f 54/54/54 53/53/53 55/55/55
f 56/56/56 54/54/54 55/55/55
f 58/58/58 57/57/57 59/59/59
f 60/60/60 58/58/58 59/59/59
f 62/62/62 61/61/61 63/63/63
f 64/64/64 62/62/62 63/63/63
f 66/66/66 65/65/65 67/67/67
f 68/68/68 66/66/66 67/67/67
f 70/70/70 69/69/69 71/71/71
f 72/72/72 70/70/70 71/71/71
f 74/74/74 73/73/73 75/75/75
f 76/76/76 74/74/74 75/75/75
f 78/78/78 77/77/77 79/79/79
f 80/80/80 78/78/78 79/79/79
f 82/82/82 81/81/81 83/83/83
f 84/84/84 82/82/82 83/83/83
f 86/86/86 85/85/85 87/87/87
f 88/88/88 86/86/86 87/87/87
f 90/90/90 89/89/89 91/91/91
f 92/92/92 90/90/90 91/91/91
f 94/94/94 93/93/93 95/95/95
f 96/96/96 94/94/94 95/95/95
f 98/98/98 97/97/97 99/99/99
f 100/100/100 98/98/98 99/99/99
f 102/102/102 101/101/101 103/103/103
f 104/104/104 102/102/102 103/103/103
f 106/106/106 105/105/105 107/107/107
f 108/108/108 106/106/106 107/107/107
f 110/110/110 109/109/109 111/111/111
f 112/112/112 110/110/110 111/111/111
f 114/114/114 113/113/113 115/115/115
f 116/116/116 114/114/114 115/115/115
f 118/118/118 117/117/117 119/119/119
f 120/120/120 118/118/118 119/119/119
f 122/122/122 121/121/121 123/123/123
f 124/124/124 122/122/122 123/123/123
f 126/126/126 125/125/125 127/127/127
f 128/128/128 126/126/126 127/127/127
f 130/130/130 129/129/129 131/131/131
f 132/132/132 130/130/130 131/131/131
f 134/134/134 133/133/133 135/135/135
f 136/136/136 134/134/134 135/135/135
f 138/138/138 137/137/137 139/139/139
f 140/140/140 138/138/138 139/139/139
f 142/142/142 141/141/141 143/143/143
f 144/144/144 142/142/142 143/143/143
f 146/146/146 145/145/145 147/147/147
f 148/148/148 146/146/146 147/147/147
f 150/150/150 149/149/149 151/151/151
f 152/152/152 150/150/150 151/151/151
f 154/154/154 153/153/153 155/155/155
f 156/156/156 154/154/154 155/155/155
f 158/158/158 157/157/157 159/159/159
f 160/160/160 158/158/158 159/159/159
f 162/162/162 161/161/161 163/163/163
f 164/164/164 162/162/162 163/163/163
f 166/166/166 165/165/165 167/167/167
f 168/168/168 166/166/166 167/167/167
f 170/170/170 169/169/169 171/171/171
f 172/172/172 170/170/170 171/171/171
f 174/174/174 173/173/173 175/175/175
f 176/176/176 174/174/174 175/175/175
f 178/178/178 177/177/177 179/179/179
f 180/180/180 178/178/178 179/179/179
f 182/182/182 181/181/181 183/183/183
f 184/184/184 182/182/182 183/183/183
f 186/186/186 185/185/185 187/187/187
f 188/188/188 186/186/186 187/187/187
f 190/190/190 189/189/189 191/191/191
f 192/192/192 190/190/190 191/191/191
f 194/194/194 193/193/193 195/195/195
f 196/196/196 194/194/194 195/195/195
f 198/198/198 197/197/197 199/199/199
f 200/200/200 198/198/198 199/199/199
f 202/202/202 201/201/201 203/203/203
f 204/204/204 202/202/202 203/203/203
f 206/206/206 205/205/205 207/207/207
f 208/208/208 206/206/206 207/207/207
f 210/210/210 209/209/209 211/211/211
f 212/212/212 210/210/210 211/211/211
f 214/214/214 213/213/213 215/215/215
f 216/216/216 214/214/214 215/215/215
f 218/218/218 217/217/217 219/219/219
f 220/220/220 218/218/218 219/219/219
f 222/222/222 221/221/221 223/223/223
f 224/224/224 222/222/222 223/223/223
f 226/226/226 225/225/225 227/227/227
f 228/228/228 226/226/226 227/227/227
f 230/230/230 229/229/229 231/231/231
f 232/232/232 230/230/230 231/231/231
f 234/234/234 233/233/233 235/235/235
f 236/236/236 234/234/234 235/235/235
f 238/238/238 237/237/237 239/239/239
f 240/240/240 238/238/238 239/239/239
f 242/242/242 241/241/241 243/243/243
f 244/244/244 242/242/242 243/243/243
f 246/246/246 245/245/245 247/247/247
f 248/248/248 246/246/246 247/247/247
f 250/250/250 249/249/249 251/251/251
f 252/252/252 250/250/250 251/251/251
f 254/254/254 253/253/253 255/255/255
f 256/256/256 254/254/254 255/255/255
f 258/258/258 257/257/257 259/259/259
f 260/260/260 258/258/258 259/259/259
f 262/262/262 261/261/261 263/263/263
f 264/264/264 262/262/262 263/263/263
f 266/266/266 265/265/265 267/267/267
f 268/268/268 266/266/266 267/267/267
f 270/270/270 269/269/269 271/271/271
f 272/272/272 270/270/270 271/271/271
f 274/274/274 273/273/273 275/275/275
f 276/276/276 274/274/274 275/275/275
f 278/278/278 277/277/277 279/279/279
f 280/280/280 278/278/278 279/279/279
f 282/282/282 281/281/281 283/283/283
f 284/284/284 282/282/282 283/283/283
f 286/286/286 285/285/285 287/287/287
f 288/288/288 286/286/286 287/287/287
f 290/290/290 289/289/289 291/291/291
f 292/292/292 290/290/290 291/291/291
f 294/294/294 293/293/293 295/295/295
f 296/296/296 294/294/294 295/295/295
f 298/298/298 297/297/297 299/299/299
f 300/300/300 298/298/298 299/299/299
f 302/302/302 301/301/301 303/303/303
f 304/304/304 302/302/302 303/303/303
f 306/306/306 305/305/305 307/307/307
f 308/308/308 306/306/306 307/307/307
f 310/310/310 309/309/309 311/311/311
f 312/312/312 310/310/310 311/311/311
f 314/314/314 313/313/313 315/315/315
f 316/316/316 314/314/314 315/315/315
f 318/318/318 317/317/317 319/319/319
f 320/320/320 318/318/318 319/319/319
f 322/322/322 321/321/321 323/323/323
f 324/324/324 322/322/322 323/323/323
f 326/326/326 325/325/325 327/327/327
f 328/328/328 326/326/326 327/327/327
f 330/330/330 329/329/329 331/331/331
f 332/332/332 330/330/330 331/331/331
f 334/334/334 333/333/333 335/335/335
f 336/336/336 334/334/334 335/335/335
f 338/338/338 337/337/337 339/339/339
f 340/340/340 338/338/338 339/339/339
f 342/342/342 341/341/341 343/343/343
f 344/344/344 342/342/342 343/343/343
f 346/346/346 345/345/345 347/347/347
f 348/348/348 346/346/346 347/347/347
f 350/350/350 349/349/349 351/351/351
f 352/352/352 350/350/350 351/351/351
f 354/354/354 353/353/353 355/355/355
f 356/356/356 354/354/354 355/355/355
f 358/358/358 357/357/357 359/359/359
f 360/360/360 358/358/358 359/359/359
f 362/362/362 361/361/361 363/363/363
f 364/364/364 362/362/362 363/363/363
f 366/366/366 365/365/365 367/367/367
f 368/368/368 366/366/366 367/367/367
f 370/370/370 369/369/369 371/371/371
f 372/372/372 370/370/370 371/371/371
f 374/374/374 373/373/373 375/375/375
f 376/376/376 374/374/374 375/375/375
f 378/378/378 377/377/377 379/379/379
f 380/380/380 378/378/378 379/379/379
f 382/382/382 381/381/381 383/383/383
f 384/384/384 382/382/382 383/383/383
f 386/386/386 385/385/385 387/387/387
f 388/388/388 386/386/386 387/387/387
f 390/390/390 389/389/389 391/391/391
f 392/392/392 390/390/390 391/391/391
f 394/394/394 393/393/393 395/395/395
f 396/396/396 394/394/394 395/395/395
f 398/398/398 397/397/397 399/399/399
f 400/400/400 398/398/398 399/399/399
f 402/402/402 401/401/401 403/403/403
f 404/404/404 402/402/402 403/403/403
f 406/406/406 405/405/405 407/407/407
f 408/408/408 406/406/406 407/407/407
f 410/410/410 409/409/409 411/411/411
f 412/412/412 410/410/410 411/411/411
f 414/414/414 413/413/413 415/415/415
f 416/416/416 414/414/414 415/415/415
f 418/418/418 417/417/417 419/419/419
f 420/420/420 418/418/418 419/419/419
f 422/422/422 421/421/421 423/423/423
f 424/424/424 422/422/422 423/423/423
f 426/426/426 425/425/425 427/427/427
f 428/428/428 426/426/426 427/427/427
f 430/430/430 429/429/429 425/425/425
f 426/426/426 430/430/430 425/425/425
f 432/432/432 431/431/431 433/433/433
f 434/434/434 432/432/432 433/433/433
f 434/434/434 433/433/433 435/435/435
f 436/436/436 434/434/434 435/435/435
f 438/438/438 437/437/437 439/439/439
f 440/440/440 438/438/438 439/439/439
f 442/442/442 441/441/441 443/443/443
f 444/444/444 442/442/442 443/443/443
f 446/446/446 445/445/445 447/447/447
f 448/448/448 446/446/446 447/447/447
f 450/450/450 449/449/449 451/451/451
f 452/452/452 450/450/450 451/451/451
f 454/454/454 453/453/453 455/455/455
f 456/456/456 454/454/454 455/455/455
f 458/458/458 457/457/457 459/459/459
f 460/460/460 458/458/458 459/459/459
f 462/462/462 461/461/461 463/463/463
f 464/464/464 462/462/462 463/463/463
f 466/466/466 465/465/465 467/467/467
f 468/468/468 466/466/466 467/467/467
f 470/470/470 469/469/469 471/471/471
f 472/472/472 470/470/470 471/471/471
f 474/474/474 473/473/473 475/475/475
f 476/476/476 474/474/474 475/475/475
f 478/478/478 477/477/477 479/479/479
f 480/480/480 478/478/478 479/479/479
f 482/482/482 481/481/481 483/483/483
f 484/484/484 482/482/482 483/483/483
f 486/486/486 485/485/485 487/487/487
f 488/488/488 486/486/486 487/487/487
f 490/490/490 489/489/489 491/491/491
f 492/492/492 490/490/490 491/491/491
f 494/494/494 493/493/493 495/495/495
f 496/496/496 494/494/494 495/495/495
f 498/498/498 497/497/497 499/499/499
f 500/500/500 498/498/498 499/499/499
f 502/502/502 501/501/501 503/503/503
f 504/504/504 502/502/502 503/503/503
f 506/506/506 505/505/505 507/507/507
f 508/508/508 506/506/506 507/507/507
f 510/510/510 509/509/509 511/511/511
f 512/512/512 510/510/510 511/511/511
f 514/514/514 513/513/513 515/515/515
f 516/516/516 514/514/514 515/515/515
f 518/518/518 517/517/517 519/519/519
f 520/520/520 518/518/518 519/519/519
f 522/522/522 521/521/521 523/523/523
f 524/524/524 522/522/522 523/523/523
f 526/526/526 525/525/525 527/527/527
f 528/528/528 526/526/526 527/527/527
f 530/530/530 529/529/529 531/531/531
f 532/532/532 530/530/530 531/531/531
