mtllib ./BannisterFull1_1.mtl
g BanniserFull1_1
v -0.14 0 4.814938E-07
v -0.07280001 0.634882 4.773028E-07
v -0.1212434 0 0.07000048
v -0.06304666 0.634882 0.03640049
v -0.1212434 0 0.07000048
v -0.06304666 0.634882 0.03640049
v -0.0699999 0 0.121244
v -0.03640005 0.634882 0.06304714
v -0.0699999 0 0.121244
v -0.03640005 0.634882 0.06304714
v -2.980232E-08 0 0.1400005
v -2.980232E-08 0.634882 0.0728005
v -2.980232E-08 0 0.1400005
v -2.980232E-08 0.634882 0.0728005
v 0.07000014 0 0.121244
v 0.03639981 0.634882 0.06304714
v 0.07000014 0 0.121244
v 0.03639981 0.634882 0.06304714
v 0.1212434 0 0.07000048
v 0.06304666 0.634882 0.03640049
v 0.1212434 0 0.07000048
v 0.06304666 0.634882 0.03640049
v 0.1399998 0 4.689209E-07
v 0.07280013 0.634882 4.712492E-07
v 0.1399998 0 4.689209E-07
v 0.07280013 0.634882 4.712492E-07
v 0.1212434 0 -0.06999952
v 0.06304666 0.634882 -0.03639952
v 0.1212434 0 -0.06999952
v 0.06304666 0.634882 -0.03639952
v 0.0699999 0 -0.1212431
v 0.03639981 0.634882 -0.06304619
v 0.0699999 0 -0.1212431
v 0.03639981 0.634882 -0.06304619
v -2.980232E-08 0 -0.1399995
v -2.980232E-08 0.634882 -0.07279953
v -2.980232E-08 0 -0.1399995
v -2.980232E-08 0.634882 -0.07279953
v -0.0699999 0 -0.1212431
v -0.03640005 0.634882 -0.06304619
v -0.0699999 0 -0.1212431
v -0.03640005 0.634882 -0.06304619
v -0.1212434 0 -0.06999955
v -0.06304666 0.634882 -0.03639954
v -0.1212434 0 -0.06999955
v -0.06304666 0.634882 -0.03639954
v -0.14 0 4.814938E-07
v -0.07280001 0.634882 4.773028E-07
v -0.07280001 0.634882 4.773028E-07
v -0.1008 1 4.791655E-07
v -0.06304666 0.634882 0.03640049
v -0.08729526 1 0.05040048
v -0.06304666 0.634882 0.03640049
v -0.08729526 1 0.05040048
v -0.03640005 0.634882 0.06304714
v -0.05039999 1 0.08729585
v -0.03640005 0.634882 0.06304714
v -0.05039999 1 0.08729585
v -2.980232E-08 0.634882 0.0728005
v -2.980232E-08 1 0.1008005
v -2.980232E-08 0.634882 0.0728005
v -2.980232E-08 1 0.1008005
v 0.03639981 0.634882 0.06304714
v 0.05039999 1 0.08729585
v 0.03639981 0.634882 0.06304714
v 0.05039999 1 0.08729585
v 0.06304666 0.634882 0.03640049
v 0.0872955 1 0.05040048
v 0.06304666 0.634882 0.03640049
v 0.0872955 1 0.05040048
v 0.07280013 0.634882 4.712492E-07
v 0.1008 1 4.703179E-07
v 0.07280013 0.634882 4.712492E-07
v 0.1008 1 4.703179E-07
v 0.06304666 0.634882 -0.03639952
v 0.0872955 1 -0.05039952
v 0.06304666 0.634882 -0.03639952
v 0.0872955 1 -0.05039952
v 0.03639981 0.634882 -0.06304619
v 0.05039999 1 -0.08729489
v 0.03639981 0.634882 -0.06304619
v 0.05039999 1 -0.08729489
v -2.980232E-08 0.634882 -0.07279953
v -2.980232E-08 1 -0.1007995
v -2.980232E-08 0.634882 -0.07279953
v -2.980232E-08 1 -0.1007995
v -0.03640005 0.634882 -0.06304619
v -0.05039999 1 -0.08729489
v -0.03640005 0.634882 -0.06304619
v -0.05039999 1 -0.08729489
v -0.06304666 0.634882 -0.03639954
v -0.08729526 1 -0.05039954
v -0.06304666 0.634882 -0.03639954
v -0.08729526 1 -0.05039954
v -0.07280001 0.634882 4.773028E-07
v -0.1008 1 4.791655E-07
v 0.5 1 0.1417038
v -0.5000002 1 0.1417038
v 0.5 1.1 0.1500007
v -0.5000002 1.1 0.1500007
v -0.5000002 1 -0.1582962
v 0.5 1 -0.1582962
v -0.5000002 1.1 -0.1499993
v 0.5 1.1 -0.1499993
v 0.5 1.155579 0.05386781
v -0.5000002 1.155579 0.05386781
v 0.5 1.155579 -0.05386637
v -0.5000002 1.155579 -0.05386637
v 0.5 1 -0.1582962
v -0.5000002 1 -0.1582962
v 0.5 1 0.1417038
v -0.5000002 1 0.1417038
v 0.5 1.1 0.1500007
v -0.5000002 1.1 0.1500007
v 0.5 1.127883 0.05386781
v -0.5000002 1.127883 0.05386781
v -0.5000002 1.1 -0.1499993
v 0.5 1.1 -0.1499993
v -0.5000002 1.127883 -0.05386637
v 0.5 1.127883 -0.05386637
v 0.5 1.127883 0.05386781
v -0.5000002 1.127883 0.05386781
v 0.5 1.155579 0.05386781
v -0.5000002 1.155579 0.05386781
v 0.5 1.127883 -0.05386637
v 0.5 1.127883 0.05386781
v 0.5 1.155579 -0.05386637
v 0.5 1.155579 0.05386781
v -0.5000002 1.127883 0.05386781
v -0.5000002 1.127883 -0.05386637
v -0.5000002 1.155579 0.05386781
v -0.5000002 1.155579 -0.05386637
v -0.5000002 1.127883 -0.05386637
v 0.5 1.127883 -0.05386637
v -0.5000002 1.155579 -0.05386637
v 0.5 1.155579 -0.05386637
v -0.5000002 1.1 0.1500007
v -0.5000002 1.1 -0.1499993
v -0.5000002 1.127883 0.05386781
v -0.5000002 1.127883 -0.05386637
v -0.5000002 1 0.1417038
v -0.5000002 1 -0.1582962
v 0.5 1 -0.1582962
v 0.5 1 0.1417038
v 0.5 1.1 -0.1499993
v 0.5 1.1 0.1500007
v 0.5 1.127883 -0.05386637
v 0.5 1.127883 0.05386781

vn -0.9609165 0.1017095 0.2574777
vn -0.9609166 0.1017095 0.2574773
vn -0.9609166 0.1017095 0.2574773
vn -0.9609167 0.1017094 0.2574767
vn -0.70344 0.1017095 0.7034397
vn -0.7034401 0.1017095 0.7034396
vn -0.7034401 0.1017095 0.7034396
vn -0.7034404 0.1017094 0.7034393
vn -0.2574772 0.1017096 0.9609166
vn -0.2574771 0.1017096 0.9609166
vn -0.2574771 0.1017096 0.9609166
vn -0.257477 0.1017096 0.9609166
vn 0.2574763 0.1017096 0.9609168
vn 0.257477 0.1017096 0.9609166
vn 0.257477 0.1017096 0.9609166
vn 0.2574781 0.1017097 0.9609162
vn 0.7034414 0.1017099 0.7034382
vn 0.70344 0.1017097 0.7034397
vn 0.70344 0.1017097 0.7034397
vn 0.7034371 0.1017094 0.7034425
vn 0.9609169 0.1017094 0.2574761
vn 0.9609165 0.1017093 0.2574773
vn 0.9609165 0.1017093 0.2574773
vn 0.960916 0.1017091 0.2574795
vn 0.9609168 0.1017092 -0.2574762
vn 0.9609165 0.1017093 -0.2574774
vn 0.9609165 0.1017093 -0.2574774
vn 0.9609159 0.1017095 -0.2574797
vn 0.7034401 0.1017095 -0.7034397
vn 0.7034391 0.1017096 -0.7034405
vn 0.7034391 0.1017096 -0.7034405
vn 0.7034373 0.1017098 -0.7034423
vn 0.257477 0.1017096 -0.9609166
vn 0.2574772 0.1017096 -0.9609166
vn 0.2574772 0.1017096 -0.9609166
vn 0.2574778 0.1017096 -0.9609164
vn -0.2574772 0.1017096 -0.9609166
vn -0.257477 0.1017096 -0.9609166
vn -0.257477 0.1017096 -0.9609166
vn -0.2574766 0.1017095 -0.9609167
vn -0.7034398 0.1017095 -0.7034398
vn -0.70344 0.1017095 -0.7034397
vn -0.70344 0.1017095 -0.7034397
vn -0.7034402 0.1017095 -0.7034394
vn -0.9609164 0.1017095 -0.2574776
vn -0.9609165 0.1017095 -0.2574772
vn -0.9609165 0.1017095 -0.2574772
vn -0.9609167 0.1017095 -0.2574766
vn -0.9632867 -0.07387207 0.2581117
vn -0.9632863 -0.07387193 0.2581129
vn -0.9632863 -0.07387193 0.2581129
vn -0.9632861 -0.07387181 0.2581137
vn -0.7051753 -0.07387187 0.7051742
vn -0.7051755 -0.0738719 0.7051741
vn -0.7051755 -0.0738719 0.7051741
vn -0.7051756 -0.07387192 0.7051739
vn -0.258112 -0.07387202 0.9632866
vn -0.2581121 -0.07387202 0.9632866
vn -0.2581121 -0.07387202 0.9632866
vn -0.2581121 -0.07387203 0.9632866
vn 0.2581132 -0.07387201 0.9632864
vn 0.2581124 -0.0738721 0.9632865
vn 0.2581124 -0.0738721 0.9632865
vn 0.2581118 -0.07387218 0.9632867
vn 0.7051721 -0.07387247 0.7051774
vn 0.7051728 -0.07387237 0.7051768
vn 0.7051728 -0.07387237 0.7051768
vn 0.7051733 -0.07387228 0.7051762
vn 0.9632859 -0.07387246 0.2581146
vn 0.9632868 -0.07387207 0.2581116
vn 0.9632868 -0.07387207 0.2581116
vn 0.9632873 -0.0738718 0.2581094
vn 0.9632859 -0.0738717 -0.2581148
vn 0.9632868 -0.07387208 -0.2581117
vn 0.9632868 -0.07387208 -0.2581117
vn 0.9632873 -0.07387236 -0.2581095
vn 0.7051722 -0.07387224 -0.7051773
vn 0.7051729 -0.07387236 -0.7051766
vn 0.7051729 -0.07387236 -0.7051766
vn 0.7051734 -0.07387243 -0.7051761
vn 0.2581128 -0.0738722 -0.9632865
vn 0.258112 -0.0738721 -0.9632866
vn 0.258112 -0.0738721 -0.9632866
vn 0.2581115 -0.07387203 -0.9632867
vn -0.2581117 -0.07387204 -0.9632868
vn -0.2581118 -0.07387203 -0.9632868
vn -0.2581118 -0.07387203 -0.9632868
vn -0.2581118 -0.07387201 -0.9632866
vn -0.7051751 -0.07387193 -0.7051743
vn -0.7051754 -0.0738719 -0.7051741
vn -0.7051754 -0.0738719 -0.7051741
vn -0.7051755 -0.07387187 -0.705174
vn -0.9632868 -0.07387178 -0.2581117
vn -0.9632865 -0.07387193 -0.2581128
vn -0.9632865 -0.07387193 -0.2581128
vn -0.9632862 -0.07387202 -0.2581137
vn 0 -0.08268494 0.9965758
vn 0 -0.08268494 0.9965758
vn 0 -0.08268494 0.9965758
vn 0 -0.08268494 0.9965758
vn 0 0.08268494 -0.9965758
vn 0 0.08268494 -0.9965758
vn 0 0.08268494 -0.9965758
vn 0 0.08268494 -0.9965758
vn 0 0.9999999 0
vn 0 0.9999999 0
vn 0 0.9999999 0
vn 0 0.9999999 0
vn 0 -1 0
vn 0 -1 0
vn 0 -1 0
vn 0 -1 0
vn 0 0.9604183 0.2785616
vn 0 0.9604183 0.2785616
vn 0 0.9604183 0.2785616
vn 0 0.9604183 0.2785616
vn 0 0.9604183 -0.2785616
vn 0 0.9604183 -0.2785616
vn 0 0.9604183 -0.2785616
vn 0 0.9604183 -0.2785616
vn 0 0 1
vn 0 0 1
vn 0 0 1
vn 0 0 1
vn 0.9999999 0 0
vn 0.9999999 0 0
vn 0.9999999 0 0
vn 0.9999999 0 0
vn -0.9999999 0 0
vn -0.9999999 0 0
vn -0.9999999 0 0
vn -0.9999999 0 0
vn 0 0 -1
vn 0 0 -1
vn 0 0 -1
vn 0 0 -1
vn -1 0 0
vn -1 0 0
vn -1 0 0
vn -1 0 0
vn -1 0 0
vn -0.9999999 0 0
vn 1 0 0
vn 1 0 0
vn 1 0 0
vn 1 0 0
vn 1 0 0
vn 1 0 0

vt 0.2331091 0.5984523
vt 0.199062 0.8165739
vt 0.2577114 0.6029811
vt 0.2118552 0.8189288
vt 0.257594 0.6027304
vt 0.2117175 0.8186806
vt 0.2819201 0.6085942
vt 0.2243671 0.8217298
vt 0.2818137 0.6083512
vt 0.2242357 0.8215305
vt 0.3058101 0.6155388
vt 0.2367138 0.8252681
vt 0.005644497 0.6192778
vt 0.07841125 0.8278906
vt 0.02952267 0.6116713
vt 0.09082782 0.8239353
vt 0.02943229 0.6116787
vt 0.09074353 0.8240156
vt 0.05367471 0.6053878
vt 0.1033497 0.8207443
vt 0.05359258 0.605399
vt 0.1032448 0.8207552
vt 0.07813414 0.6004394
vt 0.1160064 0.8181762
vt 0.0780622 0.6004571
vt 0.1159079 0.8181929
vt 0.1028261 0.5968431
vt 0.1287852 0.8163136
vt 0.1027707 0.5968676
vt 0.1286959 0.8163366
vt 0.1276767 0.5946094
vt 0.1416471 0.8151624
vt 0.1276489 0.5946417
vt 0.1415733 0.815192
vt 0.1526072 0.5937448
vt 0.1545515 0.8147256
vt 0.1576593 0.593796
vt 0.1595531 0.814531
vt 0.1826147 0.5942593
vt 0.1725299 0.8147719
vt 0.1835463 0.5939788
vt 0.1734203 0.8144961
vt 0.2084666 0.5958027
vt 0.1863789 0.8154445
vt 0.2084016 0.5955324
vt 0.1862833 0.8151777
vt 0.2332033 0.598713
vt 0.1991802 0.8168317
vt 0.1958136 0.8624672
vt 0.2076125 0.9886
vt 0.2087671 0.8609963
vt 0.2255482 0.9865634
vt 0.2087605 0.8610455
vt 0.2255416 0.9866126
vt 0.2216457 0.8590631
vt 0.2433827 0.9838678
vt 0.2216372 0.859112
vt 0.2433742 0.9839167
vt 0.2344339 0.8566213
vt 0.2610927 0.9804682
vt 0.07705193 0.8527358
vt 0.04412036 0.9750642
vt 0.08970514 0.855875
vt 0.06164026 0.9794106
vt 0.08969413 0.8558266
vt 0.06162911 0.9793622
vt 0.1024617 0.8584626
vt 0.07930723 0.9830121
vt 0.1024526 0.8584138
vt 0.07929815 0.9829632
vt 0.1153144 0.8605425
vt 0.09710686 0.9859107
vt 0.1153074 0.8604934
vt 0.09709985 0.9858615
vt 0.1282434 0.8621114
vt 0.1150112 0.9881018
vt 0.1282382 0.862062
vt 0.1150062 0.9880525
vt 0.1412282 0.8631669
vt 0.1329923 0.9895823
vt 0.1412248 0.8631173
vt 0.1329888 0.9895327
vt 0.1542483 0.8637072
vt 0.1510213 0.9903495
vt 0.1551405 0.8636576
vt 0.1519136 0.9903001
vt 0.1681771 0.8637317
vt 0.1699642 0.9904026
vt 0.16979 0.8637671
vt 0.1715769 0.990438
vt 0.1828193 0.8633252
vt 0.1896175 0.9898262
vt 0.1828166 0.8633749
vt 0.1896148 0.9898759
vt 0.1958183 0.8624178
vt 0.2076171 0.9885507
vt -0.7993975 0.07271279
vt -0.5993974 0.07271277
vt -0.7993975 0.05264407
vt -0.5993974 0.05264405
vt -0.5993974 0.1327128
vt -0.7993975 0.1327128
vt -0.5993974 0.1527815
vt -0.7993975 0.1527815
vt -0.7993975 0.02708595
vt -0.5993974 0.02708595
vt -0.7993975 0.005539127
vt -0.5993974 0.005539127
vt -0.7993975 0.1327128
vt -0.5993974 0.1327128
vt -0.7993975 0.0727128
vt -0.5993974 0.07271279
vt -0.7993975 0.05264404
vt -0.5993974 0.05264404
vt -0.7993975 0.03262504
vt -0.5993974 0.03262504
vt -0.5993974 0.1527815
vt -0.7993975 0.1527815
vt -0.5993974 0.1728005
vt -0.7993975 0.1728005
vt -0.7993975 0.03262506
vt -0.5993974 0.03262505
vt -0.7993975 0.02708596
vt -0.5993974 0.02708594
vt 0.9944921 0.2722974
vt 0.9944921 0.2938442
vt 1.000031 0.2722974
vt 1.000031 0.2938442
vt 0.005461592 0.2755909
vt 0.005461592 0.2540441
vt -7.754192E-05 0.2755909
vt -7.754192E-05 0.2540441
vt -0.5993974 2.04891E-08
vt -0.7993975 2.04891E-08
vt -0.5993974 0.005539129
vt -0.7993975 0.005539129
vt 0.01996611 0.186812
vt 0.01996613 0.2468125
vt 0.02554263 0.2060388
vt 0.02554263 0.2275858
vt -3.395975E-05 0.1884714
vt -3.395975E-05 0.2484719
vt 1.000029 0.2611694
vt 1.000029 0.2011692
vt 0.9800286 0.25951
vt 0.9800286 0.1995098
vt 0.974452 0.2402834
vt 0.974452 0.2187365

g Default_Prototype
usemtl Default_Prototype
usemap Default_Prototype
f 2/2/2 1/1/1 3/3/3
f 4/4/4 2/2/2 3/3/3
f 6/6/6 5/5/5 7/7/7
f 8/8/8 6/6/6 7/7/7
f 10/10/10 9/9/9 11/11/11
f 12/12/12 10/10/10 11/11/11
f 14/14/14 13/13/13 15/15/15
f 16/16/16 14/14/14 15/15/15
f 18/18/18 17/17/17 19/19/19
f 20/20/20 18/18/18 19/19/19
f 22/22/22 21/21/21 23/23/23
f 24/24/24 22/22/22 23/23/23
f 26/26/26 25/25/25 27/27/27
f 28/28/28 26/26/26 27/27/27
f 30/30/30 29/29/29 31/31/31
f 32/32/32 30/30/30 31/31/31
f 34/34/34 33/33/33 35/35/35
f 36/36/36 34/34/34 35/35/35
f 38/38/38 37/37/37 39/39/39
f 40/40/40 38/38/38 39/39/39
f 42/42/42 41/41/41 43/43/43
f 44/44/44 42/42/42 43/43/43
f 46/46/46 45/45/45 47/47/47
f 48/48/48 46/46/46 47/47/47
f 50/50/50 49/49/49 51/51/51
f 52/52/52 50/50/50 51/51/51
f 54/54/54 53/53/53 55/55/55
f 56/56/56 54/54/54 55/55/55
f 58/58/58 57/57/57 59/59/59
f 60/60/60 58/58/58 59/59/59
f 62/62/62 61/61/61 63/63/63
f 64/64/64 62/62/62 63/63/63
f 66/66/66 65/65/65 67/67/67
f 68/68/68 66/66/66 67/67/67
f 70/70/70 69/69/69 71/71/71
f 72/72/72 70/70/70 71/71/71
f 74/74/74 73/73/73 75/75/75
f 76/76/76 74/74/74 75/75/75
f 78/78/78 77/77/77 79/79/79
f 80/80/80 78/78/78 79/79/79
f 82/82/82 81/81/81 83/83/83
f 84/84/84 82/82/82 83/83/83
f 86/86/86 85/85/85 87/87/87
f 88/88/88 86/86/86 87/87/87
f 90/90/90 89/89/89 91/91/91
f 92/92/92 90/90/90 91/91/91
f 94/94/94 93/93/93 95/95/95
f 96/96/96 94/94/94 95/95/95
f 98/98/98 97/97/97 99/99/99
f 100/100/100 98/98/98 99/99/99
f 102/102/102 101/101/101 103/103/103
f 104/104/104 102/102/102 103/103/103
f 106/106/106 105/105/105 107/107/107
f 108/108/108 106/106/106 107/107/107
f 110/110/110 109/109/109 111/111/111
f 112/112/112 110/110/110 111/111/111
f 114/114/114 113/113/113 115/115/115
f 116/116/116 114/114/114 115/115/115
f 118/118/118 117/117/117 119/119/119
f 120/120/120 118/118/118 119/119/119
f 122/122/122 121/121/121 123/123/123
f 124/124/124 122/122/122 123/123/123
f 126/126/126 125/125/125 127/127/127
f 128/128/128 126/126/126 127/127/127
f 130/130/130 129/129/129 131/131/131
f 132/132/132 130/130/130 131/131/131
f 134/134/134 133/133/133 135/135/135
f 136/136/136 134/134/134 135/135/135
f 138/138/138 137/137/137 139/139/139
f 140/140/140 138/138/138 139/139/139
f 142/142/142 141/141/141 137/137/137
f 138/138/138 142/142/142 137/137/137
f 144/144/144 143/143/143 145/145/145
f 146/146/146 144/144/144 145/145/145
f 146/146/146 145/145/145 147/147/147
f 148/148/148 146/146/146 147/147/147
