# 3ds Max Wavefront OBJ Exporter v0.97b - (c)2007 guruware
# File Created: 08.06.2015 10:25:06

#
# object Floor_5x5CurveA_Xa
#

v  250.000000 100.000000 250.000000
v  250.000000 100.000000 -250.000000
v  -13.951050 30.539206 -250.000000
v  -13.951050 30.539207 250.000000
v  -190.246948 1.908711 -250.000000
v  -249.999985 0.000007 -250.000000
v  -250.000015 0.000007 250.000000
v  -190.246948 1.908712 250.000000
v  -130.987762 7.634812 -250.000000
v  -130.987762 7.634813 250.000000
v  -72.222473 17.178312 -250.000000
v  -72.222473 17.178314 250.000000
# 12 vertices

vn -0.254493 0.967075 -0.000000
vn -0.239021 0.971014 -0.000000
vn -0.064087 0.997944 -0.000000
vn -0.031927 0.999490 -0.000000
vn -0.128307 0.991734 -0.000000
vn -0.191994 0.981396 -0.000000
# 6 vertex normals

vt 1.000003 0.000002 0.000000
vt 1.000003 1.000003 0.000000
vt 0.475218 1.000002 0.000000
vt 0.475218 0.000002 0.000000
vt 0.113295 1.000002 0.000000
vt 0.000002 0.999998 0.000000
vt 0.000003 -0.000002 0.000000
vt 0.113295 0.000002 0.000000
vt 0.233936 1.000002 0.000000
vt 0.233936 0.000002 0.000000
vt 0.354577 1.000002 0.000000
vt 0.354577 0.000002 0.000000
# 12 texture coords

g Floor_5x5CurveA_Xa
s 1
f 1/1/1 2/2/1 3/3/2 4/4/2 
f 5/5/3 6/6/4 7/7/4 8/8/3 
f 9/9/5 5/5/3 8/8/3 10/10/5 
f 11/11/6 9/9/5 10/10/5 12/12/6 
f 3/3/2 11/11/6 12/12/6 4/4/2 
# 5 polygons

