# 3ds Max Wavefront OBJ Exporter v0.97b - (c)2007 guruware
# File Created: 08.06.2015 10:25:05

#
# object Floor_5x5CurveB_Ya
#

v  -250.000000 100.000008 -119.975937
v  250.000000 100.000008 -119.975937
v  250.000000 99.999992 -250.000000
v  -250.000000 99.999992 -250.000000
v  -250.000000 -0.000008 250.000000
v  250.000000 -0.000008 250.000000
v  250.000000 55.442062 111.394859
v  -250.000000 55.442062 111.394859
v  250.000000 97.215134 -60.524284
v  -250.000000 97.215134 -60.524284
v  250.000000 88.860527 -2.145267
v  -250.000000 88.860527 -2.145267
v  250.000000 74.936165 55.161114
v  -250.000000 74.936165 55.161114
# 14 vertices

vn 0.000000 0.999726 0.023402
vn 0.000000 1.000000 -0.000000
vn 0.000000 0.928477 0.371391
vn 0.000000 0.936914 0.349561
vn 0.000000 0.995540 0.094336
vn 0.000000 0.981956 0.189107
vn 0.000000 0.959372 0.282146
# 7 vertex normals

vt 0.000000 0.739952 0.000000
vt 1.000000 0.739952 0.000000
vt 1.000000 1.000000 0.000000
vt 0.000000 1.000000 0.000000
vt 0.000000 0.000000 0.000000
vt 1.000000 0.000000 0.000000
vt 1.000000 0.277210 0.000000
vt 0.000000 0.277210 0.000000
vt 1.000000 0.624267 0.000000
vt 0.000000 0.624267 0.000000
vt 1.000000 0.508581 0.000000
vt 0.000000 0.508581 0.000000
vt 1.000000 0.392896 0.000000
vt 0.000000 0.392896 0.000000
# 14 texture coords

g Floor_5x5CurveB_Ya
s 1
f 1/1/1 2/2/1 3/3/2 4/4/2 
f 5/5/3 6/6/3 7/7/4 8/8/4 
f 9/9/5 2/2/1 1/1/1 10/10/5 
f 11/11/6 9/9/5 10/10/5 12/12/6 
f 13/13/7 11/11/6 12/12/6 14/14/7 
f 7/7/4 13/13/7 14/14/7 8/8/4 
# 6 polygons

