# 3ds Max Wavefront OBJ Exporter v0.97b - (c)2007 guruware
# File Created: 08.06.2015 10:25:06

#
# object Floor_5x5CurveC_Xa
#

v  205.017563 100.000000 -249.999969
v  205.017532 100.000000 250.000031
v  249.999985 100.000000 250.000000
v  250.000015 100.000000 -250.000000
v  -59.982685 26.929737 -250.000000
v  -59.982708 26.929737 250.000000
v  -0.000011 49.999996 250.000000
v  0.000011 49.999996 -250.000000
v  59.982693 73.070282 250.000000
v  59.982716 73.070282 -250.000000
v  -249.999985 -0.000004 -250.000031
v  -250.000015 -0.000004 249.999969
v  -205.017563 0.000003 249.999969
v  -205.017532 0.000003 -250.000031
v  155.561417 97.007828 250.000000
v  155.561447 97.007828 -250.000000
v  -107.216492 11.968778 250.000000
v  -107.216476 11.968778 -250.000000
v  107.216469 88.031250 250.000000
v  107.216484 88.031250 -250.000000
v  -155.561447 2.992201 250.000000
v  -155.561417 2.992201 -250.000000
# 22 vertices

vn -0.030209 0.999544 -0.000000
vn 0.000000 1.000000 0.000000
vn -0.330619 0.943764 -0.000000
vn -0.358979 0.933346 -0.000000
vn -0.000000 1.000000 -0.000000
vn -0.030210 0.999544 -0.000000
vn -0.121705 0.992566 -0.000000
vn -0.242718 0.970097 -0.000000
# 8 vertex normals

vt 0.906286 1.000000 0.000000
vt 0.906287 0.000000 0.000000
vt 1.000000 0.000000 0.000000
vt 1.000000 1.000000 0.000000
vt 0.384649 1.000000 0.000000
vt 0.384649 0.000000 0.000000
vt 0.500000 0.000000 0.000000
vt 0.500000 1.000000 0.000000
vt 0.615351 0.000000 0.000000
vt 0.615351 1.000000 0.000000
vt -0.000000 1.000000 0.000000
vt -0.000000 0.000000 0.000000
vt 0.093713 0.000000 0.000000
vt 0.093713 1.000000 0.000000
vt 0.809308 0.000000 0.000000
vt 0.809308 1.000000 0.000000
vt 0.287670 0.000000 0.000000
vt 0.287670 1.000000 0.000000
vt 0.712330 0.000000 0.000000
vt 0.712330 1.000000 0.000000
vt 0.190692 0.000000 0.000000
vt 0.190692 1.000000 0.000000
# 22 texture coords

g Floor_5x5CurveC_Xa
s 1
f 1/1/1 2/2/1 3/3/2 4/4/2 
f 5/5/3 6/6/3 7/7/4 8/8/4 
f 8/8/4 7/7/4 9/9/3 10/10/3 
f 11/11/5 12/12/5 13/13/6 14/14/6 
f 15/15/7 2/2/1 1/1/1 16/16/7 
f 17/17/8 6/6/3 5/5/3 18/18/8 
f 19/19/8 15/15/7 16/16/7 20/20/8 
f 9/9/3 19/19/8 20/20/8 10/10/3 
f 21/21/7 17/17/8 18/18/8 22/22/7 
f 13/13/6 21/21/7 22/22/7 14/14/6 
# 10 polygons

