# 3ds Max Wavefront OBJ Exporter v0.97b - (c)2007 guruware
# File Created: 08.06.2015 10:25:05

#
# object Floor_5x5CurveC_Ya
#

v  -250.000000 100.000000 -205.017548
v  250.000000 100.000000 -205.017548
v  250.000000 100.000000 -250.000000
v  -250.000000 100.000000 -250.000000
v  -250.000000 26.929737 59.982697
v  250.000000 26.929737 59.982697
v  250.000000 49.999996 -0.000000
v  -250.000000 49.999996 -0.000000
v  250.000000 73.070282 -59.982704
v  -250.000000 73.070282 -59.982704
v  -250.000000 -0.000004 250.000000
v  250.000000 -0.000004 250.000000
v  250.000000 0.000003 205.017548
v  -250.000000 0.000003 205.017548
v  250.000000 97.007828 -155.561432
v  -250.000000 97.007828 -155.561432
v  250.000000 11.968778 107.216484
v  -250.000000 11.968778 107.216484
v  250.000000 88.031250 -107.216476
v  -250.000000 88.031250 -107.216476
v  250.000000 2.992201 155.561432
v  -250.000000 2.992201 155.561432
# 22 vertices

vn 0.000000 0.999544 0.030209
vn 0.000000 1.000000 -0.000000
vn 0.000000 0.943764 0.330619
vn 0.000000 0.933346 0.358979
vn 0.000000 1.000000 0.000000
vn 0.000000 0.999544 0.030210
vn 0.000000 0.992566 0.121705
vn 0.000000 0.970097 0.242718
# 8 vertex normals

vt 0.000000 0.906287 0.000000
vt 1.000000 0.906287 0.000000
vt 1.000000 1.000000 0.000000
vt 0.000000 1.000000 0.000000
vt 0.000000 0.384649 0.000000
vt 1.000000 0.384649 0.000000
vt 1.000000 0.500000 0.000000
vt 0.000000 0.500000 0.000000
vt 1.000000 0.615351 0.000000
vt 0.000000 0.615351 0.000000
vt 0.000000 0.000000 0.000000
vt 1.000000 0.000000 0.000000
vt 1.000000 0.093713 0.000000
vt 0.000000 0.093713 0.000000
vt 1.000000 0.809308 0.000000
vt 0.000000 0.809308 0.000000
vt 1.000000 0.287670 0.000000
vt 0.000000 0.287670 0.000000
vt 1.000000 0.712330 0.000000
vt 0.000000 0.712330 0.000000
vt 1.000000 0.190692 0.000000
vt 0.000000 0.190692 0.000000
# 22 texture coords

g Floor_5x5CurveC_Ya
s 1
f 1/1/1 2/2/1 3/3/2 4/4/2 
f 5/5/3 6/6/3 7/7/4 8/8/4 
f 8/8/4 7/7/4 9/9/3 10/10/3 
f 11/11/5 12/12/5 13/13/6 14/14/6 
f 15/15/7 2/2/1 1/1/1 16/16/7 
f 17/17/8 6/6/3 5/5/3 18/18/8 
f 19/19/8 15/15/7 16/16/7 20/20/8 
f 9/9/3 19/19/8 20/20/8 10/10/3 
f 21/21/7 17/17/8 18/18/8 22/22/7 
f 13/13/6 21/21/7 22/22/7 14/14/6 
# 10 polygons

