# 3ds Max Wavefront OBJ Exporter v0.97b - (c)2007 guruware
# File Created: 08.06.2015 10:25:04

#
# object Floor_5x5CurveA_Ya
#

v  250.000000 100.000000 -250.000000
v  -250.000000 100.000000 -250.000000
v  -250.000000 30.539206 13.951050
v  250.000000 30.539207 13.951050
v  -250.000000 1.908711 190.246948
v  -250.000000 0.000007 250.000000
v  250.000000 0.000007 250.000000
v  250.000000 1.908712 190.246948
v  -250.000000 7.634812 130.987762
v  250.000000 7.634813 130.987762
v  -250.000000 17.178312 72.222473
v  250.000000 17.178314 72.222473
# 12 vertices

vn -0.000000 0.967075 0.254493
vn 0.000000 0.967075 0.254493
vn -0.000000 0.971014 0.239021
vn -0.000000 0.997944 0.064087
vn 0.000000 0.999490 0.031927
vn -0.000000 0.999490 0.031927
vn -0.000000 0.991734 0.128307
vn -0.000000 0.981396 0.191994
# 8 vertex normals

vt 1.000000 1.000000 0.000000
vt 0.000000 1.000000 0.000000
vt 0.000000 0.475216 0.000000
vt 1.000000 0.475216 0.000000
vt 0.000000 0.113292 0.000000
vt 0.000005 -0.000000 0.000000
vt 1.000005 -0.000000 0.000000
vt 1.000000 0.113292 0.000000
vt 0.000000 0.233933 0.000000
vt 1.000000 0.233934 0.000000
vt 0.000000 0.354575 0.000000
vt 1.000000 0.354575 0.000000
# 12 texture coords

g Floor_5x5CurveA_Ya
s 1
f 1/1/1 2/2/2 3/3/3 4/4/3 
f 5/5/4 6/6/5 7/7/6 8/8/4 
f 9/9/7 5/5/4 8/8/4 10/10/7 
f 11/11/8 9/9/7 10/10/7 12/12/8 
f 3/3/3 11/11/8 12/12/8 4/4/3 
# 5 polygons

