# 3ds Max Wavefront OBJ Exporter v0.97b - (c)2007 guruware
# File Created: 08.06.2015 10:25:05

#
# object Floor_5x5CurveA_Yb
#

v  -250.000015 100.000000 250.000000
v  249.999985 100.000000 250.000000
v  249.999985 30.539206 -13.951019
v  -250.000015 30.539207 -13.951080
v  250.000015 1.908711 -190.246918
v  250.000031 0.000007 -249.999985
v  -249.999969 0.000007 -250.000015
v  -249.999985 1.908712 -190.246979
v  250.000000 7.634812 -130.987732
v  -250.000000 7.634813 -130.987793
v  250.000000 17.178312 -72.222443
v  -250.000000 17.178314 -72.222504
# 12 vertices

vn 0.000000 0.967075 -0.254493
vn 0.000000 0.971014 -0.239021
vn 0.000000 0.997944 -0.064087
vn 0.000000 0.999490 -0.031927
vn 0.000000 0.991734 -0.128307
vn 0.000000 0.981396 -0.191994
# 6 vertex normals

vt 0.000005 -0.000000 0.000000
vt 1.000005 0.000000 0.000000
vt 1.000005 0.524784 0.000000
vt 0.000005 0.524784 0.000000
vt 1.000005 0.886708 0.000000
vt 1.000000 1.000000 0.000000
vt 0.000000 1.000000 0.000000
vt 0.000005 0.886707 0.000000
vt 1.000005 0.766067 0.000000
vt 0.000005 0.766066 0.000000
vt 1.000005 0.645425 0.000000
vt 0.000005 0.645425 0.000000
# 12 texture coords

g Floor_5x5CurveA_Yb
s 1
f 1/1/1 2/2/1 3/3/2 4/4/2 
f 5/5/3 6/6/4 7/7/4 8/8/3 
f 9/9/5 5/5/3 8/8/3 10/10/5 
f 11/11/6 9/9/5 10/10/5 12/12/6 
f 3/3/2 11/11/6 12/12/6 4/4/2 
# 5 polygons

