# 3ds Max Wavefront OBJ Exporter v0.97b - (c)2007 guruware
# File Created: 08.06.2015 10:25:05

#
# object Floor_5x5CurveB_Yb
#

v  249.999969 100.000008 119.975960
v  -250.000031 100.000008 119.975914
v  -250.000000 99.999992 249.999985
v  250.000000 99.999992 250.000015
v  250.000031 -0.000008 -249.999985
v  -249.999969 -0.000008 -250.000015
v  -250.000000 55.442062 -111.394882
v  250.000000 55.442062 -111.394836
v  -250.000000 97.215134 60.524261
v  250.000000 97.215134 60.524307
v  -250.000000 88.860527 2.145245
v  250.000000 88.860527 2.145289
v  -250.000000 74.936165 -55.161137
v  250.000000 74.936165 -55.161091
# 14 vertices

vn 0.000000 0.999726 -0.023402
vn -0.000000 1.000000 0.000000
vn 0.000000 0.928477 -0.371391
vn 0.000000 0.936914 -0.349561
vn 0.000000 0.995540 -0.094336
vn 0.000000 0.981956 -0.189107
vn 0.000000 0.959372 -0.282146
# 7 vertex normals

vt 1.000000 0.260048 0.000000
vt -0.000000 0.260048 0.000000
vt -0.000000 0.000000 0.000000
vt 1.000000 0.000000 0.000000
vt 1.000000 1.000000 0.000000
vt 0.000000 1.000000 0.000000
vt 0.000000 0.722790 0.000000
vt 1.000000 0.722790 0.000000
vt -0.000000 0.375734 0.000000
vt 1.000000 0.375733 0.000000
vt -0.000000 0.491419 0.000000
vt 1.000000 0.491419 0.000000
vt 0.000000 0.607104 0.000000
vt 1.000000 0.607104 0.000000
# 14 texture coords

g Floor_5x5CurveB_Yb
s 1
f 1/1/1 2/2/1 3/3/2 4/4/2 
f 5/5/3 6/6/3 7/7/4 8/8/4 
f 9/9/5 2/2/1 1/1/1 10/10/5 
f 11/11/6 9/9/5 10/10/5 12/12/6 
f 13/13/7 11/11/6 12/12/6 14/14/7 
f 7/7/4 13/13/7 14/14/7 8/8/4 
# 6 polygons

