# 3ds Max Wavefront OBJ Exporter v0.97b - (c)2007 guruware
# File Created: 01.05.2015 10:16:17

#
# object Floor_5x5CurveA_CornerXYa
#

v  -750.000061 97.073318 486.048889
v  -750.000061 100.000000 749.999939
v  -250.000061 100.000000 750.000000
v  -250.000061 30.539209 486.048920
v  -750.000000 100.000000 249.999908
v  -750.000000 97.365837 309.752991
v  -250.000031 1.908715 309.753021
v  -250.000015 0.000011 249.999985
v  -750.000061 96.590446 369.012177
v  -250.000046 7.634816 369.012207
v  -750.000061 97.227058 427.530518
v  -250.000046 17.178316 427.777496
v  -486.992554 100.000000 749.999939
v  -427.867554 100.000000 749.999939
v  -368.742554 100.000000 749.999939
v  -309.617554 100.000000 750.000000
v  -486.992523 42.009575 486.048920
v  -427.867523 33.496498 486.048920
v  -368.742523 31.783068 486.048920
v  -309.617523 30.539209 486.048920
v  -486.992523 28.023426 309.753021
v  -427.867523 17.017124 309.753021
v  -368.742523 7.037438 309.753021
v  -309.617523 1.908715 309.753021
v  -309.753082 1.908715 249.999954
v  -369.012268 7.634816 249.999939
v  -427.530609 19.087013 249.999939
v  -486.048981 30.539209 249.999924
v  -486.992523 27.872896 369.012207
v  -427.867523 19.205265 369.012207
v  -368.742523 12.341054 369.012207
v  -309.617523 7.634816 369.012207
v  -486.992584 31.686850 427.660461
v  -427.867584 23.857319 427.689636
v  -368.742523 20.368099 427.718842
v  -309.617584 17.405899 427.748047
# 36 vertices

vn 0.001910 0.968842 -0.247674
vn 0.027413 0.975461 -0.218461
vn 0.081577 0.975247 -0.205522
vn 0.009574 0.972786 -0.231506
vn 0.128567 0.991002 -0.037219
vn 0.142060 0.989835 0.006816
vn 0.185580 0.982214 0.028555
vn 0.169451 0.985520 -0.006001
vn 0.099631 0.989043 -0.108938
vn 0.127745 0.990005 -0.059768
vn 0.057375 0.985429 -0.160120
vn 0.092485 0.988156 -0.122453
vn 0.000000 0.967075 -0.254493
vn 0.000956 0.971242 -0.238092
vn 0.013789 0.972221 -0.233657
vn 0.001383 0.967557 -0.252649
vn 0.142207 0.974286 -0.174769
vn 0.103161 0.988077 -0.114290
vn 0.000000 0.976706 -0.214584
vn 0.007989 0.998392 -0.056118
vn 0.031911 0.998981 -0.031911
vn 0.056187 0.998387 -0.008099
vn 0.044337 0.997917 -0.046869
vn 0.254644 0.966084 0.042880
vn 0.253924 0.966847 0.027002
vn 0.214343 0.976582 0.018586
vn 0.220809 0.974404 0.042194
vn 0.000000 0.991734 -0.128307
vn 0.040711 0.990855 -0.128642
vn 0.248046 0.968745 -0.002493
vn 0.197643 0.979753 -0.031963
vn 0.002878 0.981208 -0.192932
vn 0.029705 0.981575 -0.188753
vn 0.241801 0.970318 -0.004001
vn 0.181567 0.977359 -0.108640
vn 0.220871 0.975172 -0.016008
# 36 vertex normals

vt 0.762520 -0.000000 0.000000
vt 0.762520 0.524784 0.000000
vt 0.644270 0.524784 0.000000
vt 0.644270 -0.000000 0.000000
vt 0.762520 0.886707 0.000000
vt 0.762515 1.000000 0.000000
vt 0.644265 1.000000 0.000000
vt 0.644270 0.886707 0.000000
vt 0.762520 0.766066 0.000000
vt 0.644270 0.766066 0.000000
vt 0.762520 0.645425 0.000000
vt 0.644270 0.645425 0.000000
vt 1.000005 -0.000000 0.000000
vt 1.000005 0.524784 0.000000
vt 0.880770 0.524784 0.000000
vt 0.880770 -0.000000 0.000000
vt 0.526020 0.524784 0.000000
vt 0.000005 -0.000000 0.000000
vt 0.526020 -0.000000 0.000000
vt 1.000005 0.886707 0.000000
vt 1.000000 1.000000 0.000000
vt 0.880765 1.000000 0.000000
vt 0.880770 0.886707 0.000000
vt 0.000000 1.000000 0.000000
vt 0.000005 0.886707 0.000000
vt 0.526020 0.886707 0.000000
vt 0.526015 1.000000 0.000000
vt 1.000005 0.766066 0.000000
vt 0.880770 0.766066 0.000000
vt 0.000005 0.766066 0.000000
vt 0.526020 0.766066 0.000000
vt 1.000005 0.645425 0.000000
vt 0.880770 0.645425 0.000000
vt 0.000005 0.645425 0.000000
vt 0.526020 0.645425 0.000000
vt 0.000005 0.524784 0.000000
# 36 texture coords

g Floor_5x5CurveA_CornerXYa
s 1
f -22/-36/-36 -18/-35/-35 -19/-34/-34 -23/-33/-33 
f -14/-32/-32 -11/-31/-31 -10/-30/-30 -15/-29/-29 
f -6/-28/-28 -14/-32/-32 -15/-29/-29 -7/-27/-27 
f -2/-26/-26 -6/-28/-28 -7/-27/-27 -3/-25/-25 
f -18/-35/-35 -2/-26/-26 -3/-25/-25 -19/-34/-34 
f -34/-24/-24 -33/-23/-23 -17/-22/-22 -21/-21/-21 
f -21/-21/-21 -17/-22/-22 -18/-35/-35 -22/-36/-36 
f -20/-20/-20 -35/-19/-19 -24/-18/-18 
f -20/-20/-20 -24/-18/-18 -23/-33/-33 -19/-34/-34 
f -30/-17/-17 -29/-16/-16 -12/-15/-15 -13/-14/-14 
f -13/-14/-14 -12/-15/-15 -11/-31/-31 -14/-32/-32 
f -32/-13/-13 -31/-12/-12 -16/-11/-11 -9/-10/-10 
f -9/-10/-10 -16/-11/-11 -15/-29/-29 -10/-30/-30 
f -27/-9/-9 -30/-17/-17 -13/-14/-14 -5/-8/-8 
f -5/-8/-8 -13/-14/-14 -14/-32/-32 -6/-28/-28 
f -31/-12/-12 -28/-7/-7 -8/-6/-6 -16/-11/-11 
f -16/-11/-11 -8/-6/-6 -7/-27/-27 -15/-29/-29 
f -25/-5/-5 -27/-9/-9 -5/-8/-8 -1/-4/-4 
f -1/-4/-4 -5/-8/-8 -6/-28/-28 -2/-26/-26 
f -28/-7/-7 -26/-3/-3 -4/-2/-2 -8/-6/-6 
f -8/-6/-6 -4/-2/-2 -3/-25/-25 -7/-27/-27 
f -33/-23/-23 -25/-5/-5 -1/-4/-4 -17/-22/-22 
f -17/-22/-22 -1/-4/-4 -2/-26/-26 -18/-35/-35 
f -4/-2/-2 -26/-3/-3 -36/-1/-1 -20/-20/-20 
f -4/-2/-2 -20/-20/-20 -19/-34/-34 -3/-25/-25 
f -20/-20/-20 -36/-1/-1 -35/-19/-19 
# 24 polygons - 2 triangles

