# 3ds Max Wavefront OBJ Exporter v0.97b - (c)2007 guruware
# File Created: 08.06.2015 10:25:05

#
# object Floor_5x5CurveB_Xa
#

v  119.975945 100.000008 -250.000000
v  119.975929 100.000008 250.000000
v  249.999985 99.999992 250.000000
v  250.000015 99.999992 -250.000000
v  -249.999985 -0.000008 -250.000031
v  -250.000015 -0.000008 249.999969
v  -111.394867 55.442062 250.000000
v  -111.394852 55.442062 -250.000000
v  60.524273 97.215134 250.000000
v  60.524296 97.215134 -250.000000
v  2.145256 88.860527 250.000000
v  2.145278 88.860527 -250.000000
v  -55.161125 74.936165 250.000000
v  -55.161102 74.936165 -250.000000
# 14 vertices

vn -0.023402 0.999726 -0.000000
vn 0.000000 1.000000 0.000000
vn -0.371391 0.928477 -0.000000
vn -0.349561 0.936914 -0.000000
vn -0.094336 0.995540 -0.000000
vn -0.189107 0.981956 -0.000000
vn -0.282146 0.959372 -0.000000
# 7 vertex normals

vt 0.739952 1.000000 0.000000
vt 0.739952 0.000000 0.000000
vt 1.000000 0.000000 0.000000
vt 1.000000 1.000000 0.000000
vt -0.000000 1.000000 0.000000
vt -0.000000 0.000000 0.000000
vt 0.277210 0.000000 0.000000
vt 0.277210 1.000000 0.000000
vt 0.624266 0.000000 0.000000
vt 0.624266 1.000000 0.000000
vt 0.508581 0.000000 0.000000
vt 0.508581 1.000000 0.000000
vt 0.392896 0.000000 0.000000
vt 0.392896 1.000000 0.000000
# 14 texture coords

g Floor_5x5CurveB_Xa
s 1
f 1/1/1 2/2/1 3/3/2 4/4/2 
f 5/5/3 6/6/3 7/7/4 8/8/4 
f 9/9/5 2/2/1 1/1/1 10/10/5 
f 11/11/6 9/9/5 10/10/5 12/12/6 
f 13/13/7 11/11/6 12/12/6 14/14/7 
f 7/7/4 13/13/7 14/14/7 8/8/4 
# 6 polygons

