# 3ds Max Wavefront OBJ Exporter v0.97b - (c)2007 guruware
# File Created: 01.05.2015 10:16:04

#
# object Floor_5x5CurveA_CornerXYb
#

v  486.048920 97.073318 750.000000
v  749.999939 100.000000 750.000061
v  750.000000 100.000000 250.000031
v  486.048950 30.539209 250.000031
v  249.999939 100.000000 750.000000
v  309.753021 97.365837 750.000000
v  309.753052 1.908715 250.000015
v  249.999985 0.000011 250.000015
v  369.012207 96.590446 750.000000
v  369.012238 7.634816 250.000031
v  427.530548 97.227058 750.000000
v  427.777527 17.178316 250.000031
v  750.000000 100.000000 486.992523
v  750.000000 100.000000 427.867523
v  750.000000 100.000000 368.742523
v  750.000000 100.000000 309.617523
v  486.048920 42.009575 486.992523
v  486.048920 33.496498 427.867523
v  486.048920 31.783068 368.742523
v  486.048950 30.539209 309.617523
v  309.753021 28.023426 486.992493
v  309.753021 17.017124 427.867493
v  309.753021 7.037438 368.742493
v  309.753052 1.908715 309.617493
v  249.999969 1.908715 309.753052
v  249.999954 7.634816 369.012238
v  249.999954 19.087013 427.530579
v  249.999954 30.539209 486.048950
v  369.012207 27.872896 486.992523
v  369.012207 19.205265 427.867523
v  369.012207 12.341054 368.742523
v  369.012238 7.634816 309.617523
v  427.660461 31.686850 486.992584
v  427.689636 23.857319 427.867584
v  427.718842 20.368099 368.742523
v  427.748077 17.405899 309.617584
# 36 vertices

vn -0.247674 0.968842 -0.001910
vn -0.218461 0.975461 -0.027413
vn -0.205522 0.975247 -0.081577
vn -0.231506 0.972786 -0.009574
vn -0.037219 0.991002 -0.128567
vn 0.006816 0.989835 -0.142060
vn 0.028555 0.982214 -0.185580
vn -0.006001 0.985520 -0.169451
vn -0.108938 0.989043 -0.099631
vn -0.059768 0.990005 -0.127745
vn -0.160120 0.985429 -0.057375
vn -0.122453 0.988156 -0.092485
vn -0.254493 0.967075 -0.000000
vn -0.238092 0.971242 -0.000956
vn -0.233657 0.972221 -0.013789
vn -0.252649 0.967557 -0.001383
vn -0.174769 0.974286 -0.142207
vn -0.114290 0.988077 -0.103161
vn -0.214584 0.976706 -0.000000
vn -0.056118 0.998392 -0.007989
vn -0.031911 0.998981 -0.031911
vn -0.008099 0.998387 -0.056187
vn -0.046869 0.997917 -0.044337
vn 0.042880 0.966084 -0.254644
vn 0.027002 0.966847 -0.253924
vn 0.018586 0.976582 -0.214343
vn 0.042194 0.974404 -0.220809
vn -0.128307 0.991734 -0.000000
vn -0.128642 0.990855 -0.040711
vn -0.002493 0.968745 -0.248046
vn -0.031963 0.979753 -0.197643
vn -0.192932 0.981208 -0.002878
vn -0.188753 0.981575 -0.029705
vn -0.004001 0.970318 -0.241801
vn -0.108640 0.977359 -0.181567
vn -0.016008 0.975172 -0.220871
# 36 vertex normals

vt 1.000003 0.762517 0.000000
vt 0.475218 0.762517 0.000000
vt 0.475218 0.644267 0.000000
vt 1.000003 0.644267 0.000000
vt 0.113295 0.762517 0.000000
vt 0.000002 0.762512 0.000000
vt 0.000002 0.644262 0.000000
vt 0.113295 0.644267 0.000000
vt 0.233936 0.762517 0.000000
vt 0.233936 0.644267 0.000000
vt 0.354577 0.762517 0.000000
vt 0.354577 0.644267 0.000000
vt 1.000003 1.000002 0.000000
vt 0.475218 1.000002 0.000000
vt 0.475218 0.880767 0.000000
vt 1.000003 0.880767 0.000000
vt 0.475218 0.526017 0.000000
vt 1.000003 0.000002 0.000000
vt 1.000003 0.526017 0.000000
vt 0.113295 1.000002 0.000000
vt 0.000002 0.999997 0.000000
vt 0.000002 0.880762 0.000000
vt 0.113295 0.880767 0.000000
vt 0.000002 -0.000003 0.000000
vt 0.113295 0.000002 0.000000
vt 0.113295 0.526017 0.000000
vt 0.000002 0.526012 0.000000
vt 0.233936 1.000002 0.000000
vt 0.233936 0.880767 0.000000
vt 0.233936 0.000002 0.000000
vt 0.233936 0.526017 0.000000
vt 0.354577 1.000002 0.000000
vt 0.354577 0.880767 0.000000
vt 0.354577 0.000002 0.000000
vt 0.354577 0.526017 0.000000
vt 0.475218 0.000002 0.000000
# 36 texture coords

g Floor_5x5CurveA_CornerXYb
s 1
f -22/-36/-36 -18/-35/-35 -19/-34/-34 -23/-33/-33 
f -14/-32/-32 -11/-31/-31 -10/-30/-30 -15/-29/-29 
f -6/-28/-28 -14/-32/-32 -15/-29/-29 -7/-27/-27 
f -2/-26/-26 -6/-28/-28 -7/-27/-27 -3/-25/-25 
f -18/-35/-35 -2/-26/-26 -3/-25/-25 -19/-34/-34 
f -34/-24/-24 -33/-23/-23 -17/-22/-22 -21/-21/-21 
f -21/-21/-21 -17/-22/-22 -18/-35/-35 -22/-36/-36 
f -20/-20/-20 -35/-19/-19 -24/-18/-18 
f -20/-20/-20 -24/-18/-18 -23/-33/-33 -19/-34/-34 
f -30/-17/-17 -29/-16/-16 -12/-15/-15 -13/-14/-14 
f -13/-14/-14 -12/-15/-15 -11/-31/-31 -14/-32/-32 
f -32/-13/-13 -31/-12/-12 -16/-11/-11 -9/-10/-10 
f -9/-10/-10 -16/-11/-11 -15/-29/-29 -10/-30/-30 
f -27/-9/-9 -30/-17/-17 -13/-14/-14 -5/-8/-8 
f -5/-8/-8 -13/-14/-14 -14/-32/-32 -6/-28/-28 
f -31/-12/-12 -28/-7/-7 -8/-6/-6 -16/-11/-11 
f -16/-11/-11 -8/-6/-6 -7/-27/-27 -15/-29/-29 
f -25/-5/-5 -27/-9/-9 -5/-8/-8 -1/-4/-4 
f -1/-4/-4 -5/-8/-8 -6/-28/-28 -2/-26/-26 
f -28/-7/-7 -26/-3/-3 -4/-2/-2 -8/-6/-6 
f -8/-6/-6 -4/-2/-2 -3/-25/-25 -7/-27/-27 
f -33/-23/-23 -25/-5/-5 -1/-4/-4 -17/-22/-22 
f -17/-22/-22 -1/-4/-4 -2/-26/-26 -18/-35/-35 
f -4/-2/-2 -26/-3/-3 -36/-1/-1 -20/-20/-20 
f -4/-2/-2 -20/-20/-20 -19/-34/-34 -3/-25/-25 
f -20/-20/-20 -36/-1/-1 -35/-19/-19 
# 24 polygons - 2 triangles

